<svg class="main-svg" xmlns="http://www.w3.org/2000/svg" xmlns:xlink="http://www.w3.org/1999/xlink" width="1200" height="750" style="" viewBox="0 0 1200 750"><rect x="0" y="0" width="1200" height="750" style="fill: rgb(255, 255, 255); fill-opacity: 1;"/><defs id="defs-643006"><g class="clips"><clipPath id="clip643006xyplot" class="plotclip"><rect width="1017" height="564"/></clipPath><clipPath class="axesclip" id="clip643006x"><rect x="103" y="0" width="1017" height="750"/></clipPath><clipPath class="axesclip" id="clip643006y"><rect x="0" y="100" width="1200" height="564"/></clipPath><clipPath class="axesclip" id="clip643006xy"><rect x="103" y="100" width="1017" height="564"/></clipPath></g><g class="gradients"/></defs><g class="bglayer"><rect class="bg" x="103" y="100" width="1017" height="564" style="fill: rgb(229, 236, 246); fill-opacity: 1; stroke-width: 0;"/></g><g class="layer-below"><g class="imagelayer"/><g class="shapelayer"/></g><g class="cartesianlayer"><g class="subplot xy"><g class="layer-subplot"><g class="shapelayer"/><g class="imagelayer"/></g><g class="gridlayer"><g class="x"><path class="xgrid crisp" transform="translate(230.04000000000002,0)" d="M0,100v564" style="stroke: rgb(255, 255, 255); stroke-opacity: 1; stroke-width: 1px;"/><path class="xgrid crisp" transform="translate(357.43,0)" d="M0,100v564" style="stroke: rgb(255, 255, 255); stroke-opacity: 1; stroke-width: 1px;"/><path class="xgrid crisp" transform="translate(484.47,0)" d="M0,100v564" style="stroke: rgb(255, 255, 255); stroke-opacity: 1; stroke-width: 1px;"/><path class="xgrid crisp" transform="translate(611.51,0)" d="M0,100v564" style="stroke: rgb(255, 255, 255); stroke-opacity: 1; stroke-width: 1px;"/><path class="xgrid crisp" transform="translate(738.55,0)" d="M0,100v564" style="stroke: rgb(255, 255, 255); stroke-opacity: 1; stroke-width: 1px;"/><path class="xgrid crisp" transform="translate(865.93,0)" d="M0,100v564" style="stroke: rgb(255, 255, 255); stroke-opacity: 1; stroke-width: 1px;"/><path class="xgrid crisp" transform="translate(992.97,0)" d="M0,100v564" style="stroke: rgb(255, 255, 255); stroke-opacity: 1; stroke-width: 1px;"/></g><g class="y"><path class="ygrid crisp" transform="translate(0,660.96)" d="M103,0h1017" style="stroke: rgb(255, 255, 255); stroke-opacity: 1; stroke-width: 1px;"/><path class="ygrid crisp" transform="translate(0,574.65)" d="M103,0h1017" style="stroke: rgb(255, 255, 255); stroke-opacity: 1; stroke-width: 1px;"/><path class="ygrid crisp" transform="translate(0,488.33)" d="M103,0h1017" style="stroke: rgb(255, 255, 255); stroke-opacity: 1; stroke-width: 1px;"/><path class="ygrid crisp" transform="translate(0,402.01)" d="M103,0h1017" style="stroke: rgb(255, 255, 255); stroke-opacity: 1; stroke-width: 1px;"/><path class="ygrid crisp" transform="translate(0,315.69)" d="M103,0h1017" style="stroke: rgb(255, 255, 255); stroke-opacity: 1; stroke-width: 1px;"/><path class="ygrid crisp" transform="translate(0,229.37)" d="M103,0h1017" style="stroke: rgb(255, 255, 255); stroke-opacity: 1; stroke-width: 1px;"/><path class="ygrid crisp" transform="translate(0,143.05)" d="M103,0h1017" style="stroke: rgb(255, 255, 255); stroke-opacity: 1; stroke-width: 1px;"/></g></g><g class="zerolinelayer"/><path class="xlines-below"/><path class="ylines-below"/><g class="overlines-below"/><g class="xaxislayer-below"/><g class="yaxislayer-below"/><g class="overaxes-below"/><g class="plot" transform="translate(103, 100)" clip-path="url('#clip643006xyplot')"><g class="scatterlayer mlayer"><g class="trace scatter tracea6e0bf" style="stroke-miterlimit: 2; opacity: 1;"><g class="fills"/><g class="errorbars"/><g class="lines"><path class="js-line" d="M0,440.97L0.1,535.8L0.3,348L0.62,371.87L0.64,319.98L0.74,473.82L1.35,247.17L1.38,309.96L1.39,360.13L1.44,426.37L1.96,217.86L2.15,403.64L2.16,389.65L2.29,219.8L2.52,404.91L2.8,387.56L2.81,412.55L2.89,455.18L3.26,234.11L3.28,211.44L3.35,185.93L3.89,391.03L3.94,265.72L3.96,236.26L4.05,192.6L4.58,391.44L4.73,194.99L4.74,194.48L5.32,461.74L5.5,348.09L5.51,286.68L5.61,421.69L6.12,173.35L6.25,277.44L6.26,331.17L6.31,389.34L6.47,175.82L7.02,369.84L7.03,357.67L7.16,171.17L7.4,369.16L7.67,366L7.69,388.1L7.76,436.45L8.22,172.01L8.41,374.14L8.43,364.94L8.76,370.71L9.27,149.99L9.28,158.38L9.46,351.12L9.6,143.67L10.04,221.36L10.05,222.78L10.2,420.97L10.66,147.29L10.85,355.6L10.86,340.97L11.36,150.11L11.53,359.03L11.69,165.65L11.7,162.71L12.24,362.44L12.44,303.06L12.46,284.36L12.63,420.06L13.08,149.92L13.21,236.8L13.23,290L13.27,352.86L13.79,140.9L13.98,341.21L13.99,322.14L14.13,141.87L14.68,351.18L14.69,349.04L14.71,344.35L14.91,212.84L14.98,341.4L15,367.8L15.07,424L15.53,150.23L15.73,334.46L15.75,287.39L16.23,154.39L16.42,363.22L16.53,192.77L16.55,178.02L16.58,158.73L17.11,371.68L17.21,284.1L17.23,289.36L17.34,210.84L17.42,378.68L17.43,395.84L17.49,438.97L17.87,232.77L17.88,190.53L18.14,354.88L18.3,139.06L18.5,351.85L18.52,333.96L18.66,144.28L19.19,362.4L19.33,165.91L19.35,155.24L19.48,254.89L19.49,300.8L19.77,196.45L19.93,437.17L20.27,357.79L20.29,313.09L20.39,185.24L20.93,405.16L21.06,197.96L21.07,219.01L21.16,206.38L21.2,258.37L21.22,313.51L21.51,216.63L21.99,429.02L22,425.55L22.2,248.04L22.36,493.57L22.73,442.29L22.74,408.38L23.06,467.66L23.52,237.3L23.54,237.51L23.55,233.95L23.71,420.76L24.22,191.47L24.28,215.78L24.29,189.32L24.8,466.01L24.97,287.79L24.99,261.2L25.1,439.32L25.34,196.41L25.55,209.21L25.57,204.67L25.68,191.45L26.15,413.81L26.31,197.21L26.32,195.06L26.5,410.42L26.58,226.51L26.6,202.37L26.66,187.52L26.83,391.4L26.84,402.6L26.86,404.85L26.92,332.42L26.93,302.78L27.08,210.57L27.24,469.04L27.5,397.45L27.51,426.81L27.54,448.07L27.77,217.05L28.02,244.96L28.03,235.01L28.24,425.02L28.47,197.15L28.53,300.6L28.54,356.88L28.58,413.2L29.09,173.24L29.29,394.28L29.31,390.23L29.51,190.78L29.67,451.19L29.83,338.71L29.85,251.68L29.98,407.88L30.14,156.78L30.6,225.74L30.61,276.32L30.85,179.37L31.37,411.2L31.38,408.42L31.4,382.69L31.53,186.07L32.11,457.49L32.12,450.88L32.14,427.89L32.41,454.15L32.63,200.13L32.99,200.32L33.01,212.51L33.11,427.69L33.33,198.54L33.36,210.76L33.37,208.8L33.46,423.11L33.69,199.09L34.17,411.3L34.18,406.21L34.2,408.8L34.23,319.71L34.25,372.93L34.27,311.87L34.37,210.96L34.54,478.02L34.79,371.42L34.81,411.03L34.85,455.27L35.41,172.6L35.55,397.97L35.56,395.88L36.11,156.14L36.4,162.45L36.42,164.39L36.46,162.93L36.98,447.6L37.31,390.93L37.33,353.08L37.5,169.61L37.98,393.24L38.11,217.65L38.13,213.76L38.2,182.18L38.3,369.45L38.31,393.7L38.55,217.4L38.72,477.17L38.88,377.45L38.9,271.18L39.07,458.06L39.24,228.39L39.39,449.43L39.4,450.25L39.42,469.57L39.84,218.7L39.9,226.31L39.91,205.93L39.94,181.17L40.42,428.18L40.61,223.19L40.62,224.05L40.77,436.99L41.33,189.53L41.36,226.57L41.37,228.47L41.68,199.85L41.85,485.56L42.19,424.35L42.2,378.53L42.38,194.56L42.85,444.92L42.98,265.66L43,257.15L43.2,440.8L43.77,187.67L43.78,214.41L43.8,229.89L43.81,227.95L43.85,353.53L43.87,391.8L44.12,203.97L44.29,487.98L44.62,433.22L44.64,387.57L45.16,193.11L45.29,437.12L45.42,248.38L45.44,234.82L45.51,181.71L45.64,433L45.99,425.84L46,423.07L46.2,202.8L46.65,445.34L46.67,463.16L46.73,489.93L47.23,250.64L47.25,214.04L47.38,459.22L47.94,208.22L48.09,452.69L48.1,424.55L48.29,205.76L48.42,451.91L48.87,331.28L48.89,334.15L48.99,206.54L49.16,511.47L49.57,282.36L49.58,272.53L49.82,450.62L50.03,193.9L50.24,306.76L50.25,279.03L50.73,184.83L50.86,443.66L51,260.58L51.02,253.66L51.08,203.44L51.12,254.48L51.13,289.02L51.43,207.14L51.6,504.84L51.93,455.77L51.95,403.96L52.25,463.92L52.47,195.21L52.74,277.4L52.76,269.16L52.77,269.61L52.79,262.31L52.8,236.68L52.95,454.28L53.17,198.57L53.54,246.69L53.56,248.06L53.86,207.76L54.05,510.23L54.37,459.02L54.38,409.41L54.56,210.68L55.04,460.66L55.2,264.36L55.21,264.67L55.25,196.57L55.38,448.55L55.69,400.57L55.7,433.84L55.73,452.44L55.95,201.62L56.28,290.54L56.3,209.71L56.49,515.42L57.12,465.58L57.14,459.31L57.69,202.69L57.95,287.15L57.97,281.88L58.04,207.36L58.17,460.24L58.49,424.37L58.5,444.76L58.73,202.14L58.92,503.93L59.07,351.07L59.08,256.09L59.21,486.48L59.43,206.32L59.76,234.71L59.78,189.93L60.6,475.25L60.63,456.84L60.65,433.09L61.17,212.2L61.36,505.68L61.39,457.19L61.4,440.1L61.65,494.57L61.87,227.25L61.95,418.52L61.97,449.88L62,468.34L62.21,210.95L62.55,250.24L62.56,196.67L62.69,454.97L62.91,191.47L63.24,243.11L63.26,200.51L63.8,500.04L64.11,458.24L64.13,409.39L64.43,461.99L64.65,217.05L64.9,277.89L64.91,286.77L65,205.94L65.13,455.54L65.42,340.75L65.43,395.01L65.7,216.36L66.23,516.34L66.25,489.48L66.52,492.74L67.09,199.56L67.1,217.05L67.12,231.84L67.22,445.64L67.35,272.71L67.36,254.66L67.44,190.49L67.51,324.92L67.52,378.67L67.57,443.4L67.78,199.48L68.29,434.68L68.31,430.35L68.67,495.41L69.18,202.5L69.19,217.42L69.31,438.31L69.52,191.4L69.86,234.23L69.87,180.26L70,428.23L70.22,179.22L70.52,230.04L70.54,230.76L70.57,201.67L70.63,267.21L70.64,313.6L70.92,217.59L71.1,502.36L71.42,451.58L71.44,409.99L71.74,453L71.96,198L72.22,268.56L72.24,254.27L72.31,187.4L72.44,439.41L72.77,426.24L72.79,433.02L73,195.26L73.09,349.86L73.11,389.26L73.35,206.49L73.54,481.57L73.86,426.46L73.87,376.18L74.4,192.17L74.53,427.8L74.67,253.09L74.69,243.94L74.74,193.1L74.82,328.41L74.83,382.64L75.09,204.61L75.22,446.64L75.61,431.4L75.63,411.69L75.79,208.91L75.96,490.66L76.43,213.87L76.44,212.14L76.48,197.67L76.6,409.61L76.62,416.84L76.83,188.31L77.25,306.9L77.27,358.28L77.53,192.79L77.66,423.74L78.02,414.69L78.04,415.52L78.05,415.32L78.07,389.76L78.24,198.76L78.4,480.4L78.85,247.88L78.86,237.88L78.91,253.87L78.92,199.63L78.98,253.74L78.99,308.47L79.05,415.85L79.62,164.53L79.76,401.08L79.78,375.95L79.97,179.19L80.1,411.21L80.55,289.86L80.56,291.98L80.66,204.61L80.85,478.44L81.27,267.82L81.29,259.51L81.49,442.73L81.71,204.51L81.82,428.68L81.84,434.09L82.4,180.74L82.47,297.21L82.49,353.91L82.75,189.33L83.27,481.07L83.29,474.49L84.08,165.39L84.14,168.29L84.16,182.55L84.62,426.68L84.85,212.63L84.87,223.07L85.2,213.42L85.33,440.53L85.51,339.31L85.52,322.31L85.71,499.99L86.24,198.15L86.27,207.85L86.29,246.22L86.58,199.72L87.06,439.08L87.07,432.6L87.09,409.4L87.27,188.8L87.8,416.17L87.87,306.61L87.88,309.21L87.99,197.88L88.04,331.53L88.06,373.28L88.14,472.64L88.71,203.54L88.81,415.76L88.83,391.71L89.01,183.28L89.49,422.53L89.62,241.99L89.64,233.57L89.73,202.64L89.84,424.15L90.22,419.63L90.23,425.77L90.42,204.77L90.58,492.54L91.07,219.4L91.09,248.25L91.23,421.11L91.8,183.47L91.84,199.43L91.86,233.5L91.93,409.92L92.44,171.3L92.63,386.24L92.64,388.94L92.67,394.94L92.71,297.35L92.73,285.82L92.84,198.88L93.02,484.22L93.18,351.99L93.19,264.07L93.21,260.03L93.26,376.98L93.28,416.03L93.32,463.5L93.9,194.19L94.02,417.57L94.03,413.74L94.24,179.47L94.69,374.49L94.7,392.29L94.87,166.32L95.11,403.6L95.27,281.84L95.28,192.97L95.29,186L95.45,465.57L95.71,396.35L95.73,423.55L95.76,439.79L95.99,200.09L96.31,245.26L96.32,208.71L96.38,254.79L96.4,322.41L96.45,426.79L96.98,191.25L97.15,411.45L97.17,407.9L97.32,180.76L97.53,411.54L97.82,398.98L97.83,422.75L97.89,467.27L98.08,258.5L98.25,315.05L98.27,256.57L98.37,172.69L98.93,449.14L98.99,352.01L99.01,348.34L99.06,356.41L99.09,338.48L99.11,254.55L99.24,429.82L99.75,177.82L99.86,227.26L99.88,274.28L100.17,214.18L100.34,474.68L100.66,424.4L100.67,376.32L100.88,227.22L101.33,451.94L101.46,267.75L101.47,262.16L101.57,231.66L101.68,453.23L101.97,316.72L101.98,375.47L102.27,233.19L102.76,495L102.78,496.94L103.59,186.53L103.63,243.15L103.65,211.52L103.76,410.18L104.29,170.6L104.39,216.42L104.4,262.02L104.62,168.65L105.21,455.73L105.23,438.86L105.5,455.15L105.75,236.62L106.04,260.87L106.06,275.54L106.1,242.03L106.24,477.55L106.78,257.28L106.79,225.81L106.9,432.77L107.14,223.57L107.46,314.3L107.48,252.64L107.64,480.38L108.19,209.16L108.22,242.06L108.23,296.86L108.29,414.31L108.81,178.29L108.98,388L109,387.29L109.49,153.52L109.78,269.8L109.8,268.87L109.93,206.95L110.09,448.3L110.48,250.91L110.49,254.83L110.62,225.15L110.77,428L110.94,315.2L110.96,265.97L111.07,448.08L111.67,205.47L111.7,239.19L111.71,294.16L111.93,210.15L112.51,489.49L112.52,479.64L113.34,173.22L113.44,209.75L113.45,264.2L113.7,191.65L113.86,406.57L114.23,379.77L114.25,351.08L114.38,171.4L114.94,458.27L114.97,435.79L114.99,413.56L115.25,441.22L115.77,194.88L115.86,208.25L115.87,226.87L115.95,408.18L116.45,168.2L116.66,396.12L116.67,375.15L116.8,208.3L117.32,443.41L117.34,454.6L117.38,480.2L117.77,235.69L117.79,209.96L117.86,183.32L117.99,332.49L118,372.37L118.21,171.88L118.38,395.31L118.51,192.98L118.53,172.73L118.56,162.02L118.73,382.38L119.03,312.83L119.05,354.21L119.24,186.51L119.82,474.82L119.83,468.02L119.85,442.55L120.12,447.05L120.63,157.64L120.67,189.78L120.69,234.23L120.82,376.54L120.96,170.83L120.98,157.33L121.51,387.6L121.57,302.64L121.59,245.72L121.67,181.51L122.25,439.17L122.3,385L122.31,367.73L122.37,380.28L122.47,253.47L122.5,316L122.52,363.06L122.56,425.1L123.07,163.69L123.27,376.96L123.28,364.03L123.41,165.82L123.62,372.6L123.91,280.07L123.92,325.82L124.21,205.85L124.7,480.05L124.75,440.32L124.76,433.37L124.81,462.11L124.91,301.52L125.07,344.27L125.08,303.55L125.34,423.34L125.59,235.14L125.87,242.53L125.88,243.08L126.4,441L126.62,323.14L126.63,263.77L126.76,453.6L126.78,463.6L126.79,464.85L126.87,393.33L126.92,393.68L126.94,379.66L126.98,237.21L127.14,527.46L127.69,267.78L127.71,280.19L127.78,449.58L128.3,216.52L128.48,412.66L128.49,412.58L128.98,196.08L129.17,408.47L129.19,412.41L129.22,412.42L129.4,286.55L129.42,234.22L129.58,464.97L130.01,216.94L130.03,212.7L130.04,211.84L130.09,268.88L130.1,275.96L130.56,416.72L130.75,212.59L130.84,231.7L130.85,276.08L130.93,416.16L131.42,188.09L131.62,392.96L131.64,392.38L131.65,392.22L131.67,379.57L132.01,449.46L132.46,182.35L132.48,182.42L132.65,387.16L132.83,175.23L133.07,244.1L133.09,211.1L133.52,167.49L133.7,383.35L133.84,200.67L133.86,193.69L134,297.62L134.02,343.53L134.29,206.71L134.45,450.87L134.77,388.77L134.78,351.8L135.09,363.57L135.25,148.69L135.6,164.13L135.61,163.94L135.64,190.85L135.65,234.71L135.94,159.03L136.15,374.19L136.26,199.24L136.28,189.74L136.31,183.09L136.5,407.49L136.77,312.03L136.79,364.62L136.89,465.52L137.35,188.34L137.54,397.58L137.55,379.91L137.87,394.05L138.38,149.07L138.4,145.84L138.57,355.91L138.73,133.09L139.15,268.74L139.16,189.11L139.27,381.3L139.28,390.21L139.32,423.68L139.53,209.73L139.69,211.27L139.7,169.43L139.98,326.06L140.47,95.06L140.48,95.07L140.66,313.59L140.82,94.78L141.14,135.2L141.15,117.05L141.17,103.85L141.38,335.88L141.64,267.85L141.66,313L141.76,419.8L142.21,155.37L142.41,365.65L142.43,340.99L142.75,367.11L142.92,141.69L143.21,167.22L143.22,179.49L143.27,146.83L143.44,358.38L143.76,322.8L143.78,348.42L144.04,204.99L144.2,432.89L144.54,387.87L144.56,359.44L144.89,395.33L145.37,174.79L145.39,197.49L145.53,346.04L146.04,129.52L146.12,171.82L146.14,176.74L146.47,175.45L146.62,422.36L146.81,204.52L146.82,212.52L146.92,374.54L147.07,130.73L147.08,115.16L147.27,337.12L147.37,123.45L147.39,124.41L147.62,328.11L147.79,92.21L148.11,113.2L148.13,98.15L148.33,317.51L148.4,134.07L148.42,112.29L148.47,93.23L148.65,304.7L148.66,319.76L148.71,336.22L148.88,208.01L148.89,154.98L149.05,414.14L149.45,161.87L149.46,133.74L149.52,113.81L149.56,183.44L149.58,194.95L149.87,113.2L150.05,337.19L150.33,167.48L150.34,219.88L150.4,340.57L150.91,110.61L151.11,339.74L151.13,337.91L151.33,162.41L151.49,426.77L151.84,328.43L151.85,279.5L152.14,357.88L152.32,121.52L152.64,128.26L152.65,114.34L152.68,124.56L152.69,174.14L152.84,338.59L153,120.25L153.16,325.52L153.17,343.53L153.2,349.94L153.29,163.81L153.3,164.95L153.35,161.64L153.93,455.71L154.1,265.75L154.12,235.59L154.23,424.44L154.75,157.55L154.8,185.92L154.81,159.43L154.9,345.16L154.91,365.29L154.93,372.39L155.04,147.75L155.06,157.53L155.07,143.87L155.28,352.58L155.44,111.97L155.57,218.96L155.58,279.43L155.78,148.88L156.36,434.39L156.38,425.34L156.84,118.25L157.22,179.64L157.23,157.44L157.25,147.61L157.36,355.17L157.65,279.76L157.67,333.09L157.71,393.25L158.22,159.06L158.42,387.65L158.44,383.76L158.45,384.45L158.47,357.14L158.48,315.99L158.8,449.55L159.28,147.67L159.29,154.99L159.31,196.61L159.45,377.9L159.96,134.66L160.06,148.69L160.08,174.37L160.31,136.51L160.86,419.63L160.87,412.55L160.89,418.13L161.24,446.8L161.7,157.36L161.76,159.55L161.77,168.28L161.89,379.66L161.99,158.77L162.02,170.69L162.03,157.32L162.24,374.64L162.4,140.98L162.53,246.89L162.54,304.49L162.93,363.77L163.09,129.69L163.16,152.04L163.18,160.28L163.5,148.42L163.67,423.03L164.01,372.56L164.02,330.8L164.54,161.37L164.67,396L164.82,178.5L164.83,165.58L164.86,168.24L164.88,198.81L164.89,153.39L165.02,396.74L165.63,186.09L165.64,212.54L165.93,192.93L166.11,457.58L166.44,409.64L166.46,370.29L166.76,411.71L166.98,161.09L167.25,180.9L167.27,168.28L167.33,142.14L167.46,385.6L167.75,263.05L167.76,319.07L168.02,157.68L168.56,448.26L168.57,427.12L169.07,206.62L169.21,459.74L169.23,458.28L169.24,472.67L169.55,475.33L170.11,173.84L170.16,209.65L170.17,253.21L170.81,176.93L170.95,469.05L170.97,469.23L170.98,481.09L171.47,223.84L171.49,225.64L171.5,185.72L171.85,180.26L171.98,435.2L172.16,221.84L172.17,218.41L172.19,219.74L172.2,173.26L172.24,210.63L172.26,245.46L172.33,428.72L172.55,165.33L173.03,412.79L173.04,415.26L173.23,248.48L173.24,163.71L173.42,461.13L173.9,216.95L173.91,203.69L173.94,173.81L174.07,433.33L174.36,333.2L174.38,390.52L174.64,176.82L175.11,454.5L175.13,450.25L175.14,422.64L175.33,196.78L175.83,494.25L175.84,493.09L175.85,500.92L175.87,502.82L175.91,435.7L175.93,422.77L175.97,430.25L176.03,248.97L176.1,403.1L176.12,439.45L176.16,490.22L176.72,182.81L176.87,446.29L176.88,419.65L177.07,171.24L177.2,449.22L177.7,230.03L177.71,220.18L177.74,221.85L177.77,165.52L177.81,215.85L177.83,252.48L178.12,173.22L178.29,491.8L178.61,465.8L178.62,433.24L179.16,156.48L179.45,192.9L179.47,195.21L179.51,153.77L179.55,200.99L179.57,240.24L179.86,168.2L179.99,432.91L180.34,425.94L180.35,427.52L180.55,178.75L180.74,482.03L180.97,367.09L180.99,410.62L181.03,459.38L181.6,155.53L181.73,406.11L181.74,401.01L181.95,171.07L182.39,434.77L182.41,450.05L182.42,456.51L182.64,205.87L182.96,332.84L182.98,284.28L182.99,191.92L183.18,492.74L183.73,226.23L183.74,266.35L183.82,443.78L184.03,176.54L184.53,433.27L184.54,405.33L184.73,177.7L184.86,440.65L185.31,319.62L185.32,320.72L185.43,188.82L185.5,367.92L185.51,413.31L185.61,498.03L186.11,228.6L186.12,186.37L186.25,434.57L186.47,164.69L186.8,182.75L186.82,160.76L187.17,155.94L187.64,415.08L187.66,417.94L187.86,168.53L188.05,484.72L188.3,422.63L188.31,449.82L188.34,467.58L188.56,182.95L188.78,270.08L188.79,252.32L188.91,182.84L189.04,441.61L189.23,236.11L189.24,227.01L189.25,171.49L189.39,442.31L189.98,229.08L189.99,235.46L190.3,182.82L190.49,491.54L190.81,434.99L190.82,393.13L191.13,432.28L191.34,170.84L191.63,228.82L191.65,228L191.69,167.58L191.75,266.47L191.76,313.47L191.82,427.79L192.04,172.66L192.55,419.25L192.56,413.3L192.74,188.38L192.92,488.96L193.17,442.79L193.18,469.27L193.21,490.88L193.43,247.38L193.69,272.2L193.71,257.59L193.91,439.33L194.13,170.88L194.21,362.62L194.23,400.27L194.48,179.42L194.95,435.54L194.98,429.09L195,420.61L195.17,189.34L195.36,499.13L195.87,203.33L195.88,220.02L196,444.86L196.22,187.49L196.48,262.74L196.49,247.46L196.56,185.32L196.62,272.38L196.64,331.61L196.91,188.15L197.4,447.83L197.42,443.22L197.61,193.46L197.8,503.28L198.07,471.31L198.09,476.97L198.65,169.73L198.74,354.48L198.75,392.9L198.78,423.16L199,170.12L199.33,222.38L199.35,168.12L200.23,486.33L200.25,457.07L200.52,459.23L201.09,177.43L201.1,192.33L201.12,204.78L201.22,430.13L201.44,174.02L201.67,223.35L201.68,221.1L201.78,173.84L202.28,423.05L202.45,312.64L202.47,292.75L202.48,183.84L202.65,483.03L203.22,217.36L203.23,254.07L203.31,432.4L203.87,175.23L204.02,416.81L204.03,388.4L204.22,177.39L204.7,424.67L204.8,298.97L204.82,301.02L204.92,180.96L205.09,485.8L205.47,285.68L205.48,252.34L205.74,417.57L205.96,168.62L206.09,416.25L206.11,411.57L206.44,423.91L206.66,176.11L206.93,219.98L206.95,211.24L206.99,243.12L207.01,184.9L207.06,238.23L207.08,290.71L207.35,186.66L207.53,480.12L207.85,457.41L207.86,431.82L208.4,179.04L208.67,219.86L208.69,206.93L208.75,172.04L208.88,424.64L209.17,306.75L209.18,358.46L209.79,185.99L209.96,478.7L209.98,470.69L209.99,441.76L210.27,460.96L210.83,191.79L210.88,222.78L210.89,255.6L211.18,188.36L211.31,434.69L211.67,424.62L211.69,396.91L212.23,191.83L212.4,490.96L212.41,478.37L212.43,448.52L212.7,455.55L212.92,186.24L213.27,194.51L213.28,198.67L213.3,198.23L213.31,209.84L213.33,236.5L213.4,424.96L213.62,177.66L214.1,413.73L214.11,416.05L214.14,434.5L214.15,417.58L214.17,384.24L214.68,198.37L214.84,473.13L214.92,375.75L214.94,377.89L215,327.95L215.01,225.65L215.03,223.79L215.05,256.7L215.07,291.04L215.14,427.95L215.66,149.62L215.84,380.81L215.85,375.89L216,148.76L216.19,381.75L216.52,376.48L216.53,386.3L216.59,286.14L216.61,233.75L216.69,165.76L217.27,461.98L217.3,422.7L217.32,401.08L217.58,414.75L218.1,128.54L218.2,175.61L218.22,232.28L218.45,123.66L218.97,377.94L218.98,376.31L219,355.71L219.09,164.52L219.69,465.77L219.71,484.05L220.58,164.95L220.62,211.27L220.64,237.85L220.93,198.3L221.06,458.64L221.42,437.21L221.44,418.67L221.97,202.79L222.15,500.02L222.17,450.24L222.19,424.58L222.45,459.57L222.97,167.62L223.06,181.77L223.07,201.89L223.15,384.84L223.32,140.22L223.86,370.79L223.87,360.42L224,149.97L224.23,389.6L224.51,377.02L224.52,401.91L224.58,453.23L224.97,192.53L224.99,167.95L225.05,153.56L225.19,306.11L225.21,345.4L225.23,375.14L225.76,135.61L225.96,347.32L225.97,322.65L226.09,163.25L226.66,446.82L226.67,450.96L227.02,491.35L227.48,218.04L227.5,217.81L227.55,189.26L227.61,292.57L227.63,350.34L227.67,415.2L228.25,166.55L228.38,394.77L228.4,386.86L228.53,166.77L229.09,411.41L229.16,275.41L229.18,274.16L229.3,190.81L229.47,458.98L229.83,250.93L229.85,210.46L230.27,148.18L230.46,373.67L230.61,150.57L230.63,148.21L230.79,354.79L230.8,367.72L230.88,223.6L230.89,189.36L231.15,375.38L231.31,134.82L231.6,256.72L231.62,253.65L231.75,181.32L231.91,418.18L232.08,262.44L232.09,228.2L232.2,390.66L232.27,222.3L232.28,175.3L232.56,339.24L233.05,91.2L233.07,92.1L233.08,104.25L233.65,403.5L233.89,367.62L233.91,400.49L234.18,241.59L234.34,477.73L234.66,415.73L234.68,375.39L234.98,412.9L235.44,185.72L235.47,188.98L235.49,175.85L235.68,397.49L236.1,232.5L236.11,197.05L236.14,176.22L236.39,395.71L236.68,359.2L236.69,398.31L236.76,463.1L237.24,175.4L237.26,178.58L237.76,436.04L238.08,415.63L238.1,439.23L238.46,469.78L238.71,257.22L238.85,465.21L238.87,442.32L239.2,511.38L239.66,219.77L239.68,215.27L239.85,421.67L240.08,281.37L240.1,240.88L240.2,422.52L240.27,271.09L240.29,235.54L240.55,411.13L240.72,175.93L241.04,208.43L241.06,191.58L241.09,172.13L241.1,203.88L241.11,245.51L241.14,198.08L241.29,385.13L241.54,306.38L241.55,346.41L241.94,450.6L242.12,207.41L242.3,414.27L242.32,388.8L242.64,420.42L243.1,179.33L243.12,189.55L243.13,174.78L243.16,157.94L243.7,400.06L243.72,397.42L243.74,375.14L244.07,454.09L244.54,165.43L244.55,162.86L244.67,249.61L244.68,308.28L244.73,385.12L245.23,122.24L245.44,345.24L245.45,329.03L245.78,336.37L245.93,97.33L246.1,298.13L246.12,308.05L246.36,169.93L246.52,392.05L246.86,342.43L246.87,288.84L247.16,343.79L247.32,106.31L247.67,109.7L247.68,110.42L248.02,108.53L248.22,344.54L248.34,171.01L248.35,154.42L248.37,146.29L248.57,363.72L248.58,361.1L248.6,360.48L248.95,429.83L249.41,163.12L249.42,163.63L249.44,169.1L249.6,363.32L250.11,128.58L250.19,170.44L250.21,171.28L250.31,351.01L250.47,127.3L250.77,162.48L250.79,150.37L250.8,144.95L251.03,355.44L251.28,252.15L251.3,293.71L251.6,238.07L252.09,451.1L252.11,440.41L252.54,161.25L253.01,180.01L253.02,213.05L253.34,197.19L253.83,429.99L253.85,413.49L254.37,232.78L254.53,464.25L254.6,412.64L254.62,423.04L254.63,427.26L254.91,244.53L254.92,219.65L254.98,189.07L255.05,264.9L255.11,241.23L255.12,288.24L255.67,187.45L255.91,382.68L255.92,370.12L256.27,415.07L256.73,118.77L256.76,163.28L256.78,215.21L257.07,97.5L257.27,321.77L257.5,173.9L257.52,167.36L257.76,154.78L257.97,380.28L258.08,223.54L258.1,202.63L258.11,197.59L258.31,400.75L258.59,318.3L258.6,366.97L258.71,462.05L259.17,193.47L259.24,216.4L259.26,215.79L259.34,399.78L259.87,186.09L259.94,205.64L259.95,208.94L260.21,175.41L260.39,393.8L260.48,211.6L260.49,187.78L260.55,165.46L261.14,448.09L261.32,336.46L261.33,281.56L261.43,432.23L261.95,188.01L262.07,264.41L262.08,323.62L262.13,392.67L262.65,142.35L262.84,346.39L262.85,334.61L263,143.35L263.49,366.86L263.51,392.07L263.58,436.83L264.03,182.46L264.12,208.66L264.13,204.31L264.56,391.55L264.74,168.73L264.83,196.61L264.84,205.79L264.91,379.8L265.42,144.14L265.62,361.42L265.64,358.76L265.86,191.76L266.01,415.12L266.28,368.69L266.29,388.01L266.31,396.25L266.46,162.04L266.55,195.76L266.57,194.19L267,386.95L267.18,165.94L267.23,224.91L267.25,187.48L267.35,383.41L267.52,176.44L267.84,178.81L267.86,168.87L268.45,432.75L268.63,311.85L268.64,252.03L268.65,251.75L268.67,274.99L268.76,413.14L269.34,194.89L269.44,358.24L269.45,360.02L269.96,97.12L270.09,236.14L270.1,277.75L270.29,86.13L270.87,391.78L270.9,356.08L270.92,338.53L271.18,347.81L271.34,77.2L271.8,148.49L271.82,198.43L271.89,317.4L272.4,80.46L272.58,312.83L272.6,298.12L272.73,82.46L273.25,359.98L273.27,375.43L273.31,412.64L273.7,152.28L273.72,118.3L273.79,95.19L273.92,252.5L273.93,288.35L274.12,79.79L274.31,333.31L274.53,173.29L274.54,134.35L274.66,340.2L274.75,152.19L274.76,134.46L274.82,127.82L274.93,192.71L274.95,235.33L275.17,150.57L275.73,418.41L275.75,440.7L276.56,77.8L276.67,170.61L276.69,218.23L276.75,333.38L276.91,83.89L277.44,318.57L277.46,319.47L277.6,77.3L278.15,366.88L278.17,372.09L278.18,396.3L278.65,102.22L278.88,280.55L278.89,235.75L278.99,78.58L279.55,323.66L279.66,153.52L279.68,139.83L279.88,362.09L280.04,123.01L280.18,276.8L280.2,313.56L280.46,150.01L280.62,416.19L280.95,373.29L280.97,332.36L281.16,171.39L281.62,404.04L281.75,206.81L281.76,200.82L281.85,161.89L281.92,332.3L281.94,370.45L281.97,396.83L282.48,140.79L282.68,365.27L282.69,359.66L282.71,361.21L282.72,332.42L282.74,286.36L283.06,437.62L283.53,152.41L283.55,156.05L283.59,151.5L284.06,380.62L284.3,176.07L284.32,186.07L284.64,179.65L285.1,460.95L285.14,456.86L285.16,429.18L285.49,474.47L285.96,150.26L285.97,150.86L286.36,146.1L286.49,378.1L286.56,217.27L286.58,188.76L286.84,383.32L287.06,143.26L287.33,173.7L287.35,164.86L287.42,161.3L287.46,211.48L287.48,251.93L287.77,162.56L287.93,436.25L288.25,411.19L288.26,383.89L288.8,167.65L288.93,399.99L289.06,208.39L289.07,201.68L289.28,399.36L289.49,156.51L289.58,325.59L289.6,361.38L289.84,143.14L290.36,451.02L290.38,449.57L290.39,425.8L290.67,454.2L291.23,179.95L291.28,213.3L291.29,245.35L291.71,430.91L291.93,169.95L292.08,412.63L292.09,384.84L292.28,171.02L292.8,484.27L292.82,477.13L293.32,179.45L293.64,232.48L293.66,233.34L293.8,431.09L294.37,163.07L294.41,206.15L294.42,244.53L294.71,170.67L295.24,478.85L295.25,473.57L296.11,150.1L296.15,207.06L296.17,234.34L296.28,445.63L296.8,149.27L296.95,401.64L296.96,376.58L297.15,148.54L297.64,446.27L297.66,446.7L297.67,465.36L298.2,172.14L298.35,398.38L298.37,356.02L298.54,170.65L299.02,438.25L299.15,243.13L299.17,236.25L299.24,165.66L299.37,429.07L299.72,426.74L299.73,429.96L299.94,174.11L300.01,349.64L300.02,398.72L300.11,489.06L300.62,196.17L300.63,155.38L300.76,417.64L300.98,147.2L301.31,176.96L301.33,138.47L302.17,430.78L302.18,424.48L302.2,416.21L302.37,187.41L302.55,491.83L303.02,210.17L303.04,206.43L303.07,166.94L303.14,303.81L303.16,364.34L303.2,422.03L303.76,161.1L303.91,413.26L303.92,384.48L304.11,169.7L304.61,441.74L304.69,315.56L304.71,316.7L304.81,184.46L305,501.54L305.36,301.77L305.37,265.15L305.64,432.68L305.85,159.78L306.19,168.65L306.2,156.17L306.68,449.91L306.88,234.12L306.9,188.73L307.43,488.43L307.74,455.34L307.75,423.31L307.94,169.64L308.42,442.6L308.55,258.79L308.56,254.85L308.64,176.92L308.72,382.44L308.74,419.79L308.77,444.61L308.99,168.86L309.49,425.62L309.51,415.56L309.68,182.16L309.87,485.25L310.33,224.31L310.35,222.05L310.51,431.25L311.07,165.75L311.09,186.04L311.1,204.65L311.2,420.62L311.39,214.43L311.41,203.68L311.77,170.3L311.91,414.38L312.13,207.45L312.15,243.98L312.31,486.55L312.81,148.04L312.94,407.6L312.96,402.8L313.29,421.22L313.51,145.6L313.76,215.56L313.77,233.01L313.86,156.23L313.93,295.22L313.94,354.99L314.55,165.05L314.74,474.72L314.76,449.71L315.03,462.78L315.6,164.58L315.61,185.48L315.63,198.96L315.73,419.78L315.95,145.14L316.15,254.11L316.16,223.73L316.31,152.18L316.42,405.02L316.74,377.75L316.76,404.51L316.99,166.18L317.18,472.47L317.5,430.34L317.51,378.73L317.69,175.09L318.17,429.71L318.31,242.11L318.32,235.26L318.34,235.52L318.35,229.37L318.37,223.21L318.38,171.48L318.51,435.86L319.11,220.94L319.12,227.7L319.43,189.39L319.62,502.26L319.93,454.33L319.95,416.11L320.12,195.64L320.6,446.89L320.75,241.75L320.76,233.99L320.82,176.98L320.88,256.17L320.89,313.04L320.95,435.84L321.52,176.8L321.67,427.57L321.69,419.66L322.05,491.89L322.56,174.17L322.57,186.69L322.69,413.26L322.91,170.62L323.15,232.1L323.17,236.41L323.26,161.75L323.73,415.93L323.95,173.38L323.97,184.12L324.3,170.68L324.49,465.15L324.79,432.72L324.81,405.92L325,162.91L325.47,442.18L325.59,252.57L325.6,259.78L325.82,439.33L326.04,184.93L326.13,376.78L326.14,411.8L326.39,192.52L326.53,448.62L326.72,292.52L326.74,196.05L326.92,507.66L327.43,174.21L327.45,187.01L327.79,162.23L327.91,437.08L328.27,425.54L328.29,400.68L328.48,156.02L328.97,418.64L329.06,301.71L329.07,301.71L329.13,316.17L329.16,283.52L329.17,184.34L329.36,477.82L329.72,279.99L329.74,255.58L329.87,171.8L330.35,413.38L330.51,201.34L330.52,196.62L330.56,157.75L330.62,218.57L330.64,283.97L330.7,412.92L331.26,149.47L331.41,405.28L331.42,399.07L331.59,281.11L331.61,182.54L331.8,481.42L331.94,354.96L331.96,249.9L332.09,468.76L332.3,162.25L332.52,224.91L332.54,200.02L332.65,145.99L332.78,400.86L333.06,250.43L333.07,305.9L333.35,168.3L333.48,430.58L333.86,417.79L333.87,416.92L334.05,177.12L334.23,489.12L334.52,470.95L334.54,465.06L335.09,165.27L335.36,217.27L335.38,205.33L335.44,161.44L335.51,288.21L335.52,339.01L335.92,406.82L336.13,151.13L336.29,397.79L336.31,398.71L336.48,167.82L336.66,468.93L337.12,199.72L337.13,198.16L337.16,216.23L337.18,170.77L337.66,427.64L337.74,251.14L337.76,229.29L337.87,177.79L337.93,247.9L337.95,306.67L338.35,433.83L338.57,169.41L338.71,421L338.73,415.78L338.74,419.16L338.9,281.12L338.92,177.94L339.09,489.45L339.25,344.4L339.27,223.14L339.4,447.62L339.61,156.66L339.92,185.82L339.93,180.17L339.96,155.14L340.44,418.36L340.61,214.7L340.63,210.65L340.66,174.49L341.18,464.63L341.35,214.74L341.37,214.19L341.53,497.26L342.06,164.64L342.17,399.61L342.18,405.31L342.22,347.36L342.24,302.45L342.76,151.32L342.88,398.99L343.01,194.38L343.02,181.05L343.11,157.57L343.22,402.49L343.53,317.23L343.54,358.45L343.81,168.01L343.96,463.62L344.3,386.91L344.31,355.23L344.83,136.18L344.97,377.83L345.1,197.18L345.11,190.79L345.18,141.05L345.31,395.04L345.62,324.14L345.63,363.94L345.66,394.55L345.82,146.54L346.21,254.02L346.23,158.52L346.24,151.7L346.4,436.01L346.66,343.24L346.68,374.5L346.89,142.71L347.4,412.11L347.43,382.41L347.45,353.76L347.75,420.19L347.98,169.17L348.23,213.34L348.24,206.08L348.33,170.33L348.49,415.39L348.74,329.8L348.75,370.7L348.84,466.81L349.36,142.88L349.5,386.07L349.52,365.67L349.72,140.73L350.19,392.18L350.32,185.49L350.33,173.74L350.4,140.55L350.55,380.32L350.82,261.51L350.84,315.31L351.11,175.01L351.27,481.75L351.61,431.63L351.62,394.72L351.93,438.67L352.16,189.08L352.42,226.14L352.43,217.6L352.46,216.53L352.48,244.52L352.64,423.11L352.85,166.43L353.23,207.42L353.25,241.62L353.55,228.3L353.71,494.4L354.03,429.91L354.04,415.9L354.25,146.01L354.86,175.19L354.87,167.23L354.91,194.74L354.93,160.24L354.97,177.36L354.99,210.22L355.29,159.3L355.77,416.3L355.78,424.29L355.99,184.05L356.04,338.38L356.07,390.43L356.16,471.1L356.61,134.77L356.63,132.6L357.16,364.62L357.22,222.99L357.23,184.13L357.5,363.07L357.67,109.43L358,134.53L358.02,136.75L358.6,423.97L358.9,412.76L358.92,388.99L359.06,170.89L359.58,397.4L359.71,202.26L359.73,192.27L359.83,176.82L359.93,396.11L360.25,372.12L360.27,394.12L360.44,188.79L360.67,439.19L360.85,322.76L360.86,251.25L361.02,472.88L361.48,162.76L361.6,205.16L361.61,254.45L361.92,178.29L362.37,415.75L362.4,383.78L362.41,337.08L362.61,181.04L362.72,418.52L363.09,409.05L363.11,408.62L363.46,460.46L363.93,106.18L363.95,110.98L363.96,151.49L364.27,93.01L364.47,338.81L364.7,167.6L364.72,170L364.98,152.46L365.2,408.09L365.56,389.05L365.57,354.21L366.2,435.24L366.37,167.7L366.4,200.51L366.41,238.54L366.54,386.51L366.72,127.9L367.17,164.07L367.18,212.28L367.4,96.62L367.95,374.24L367.98,369L367.99,345.21L368.33,447.34L368.78,187.57L368.81,191.5L368.82,196.68L368.88,182.04L368.98,407.91L369.21,225L369.23,180.59L369.33,409.23L369.85,136.44L369.91,212.89L369.92,157.26L369.97,217.5L369.98,270.48L370.18,113.19L370.76,447.4L370.79,420.15L370.81,395.82L371.07,415.99L371.59,112.98L371.68,142.56L371.69,155.56L372.27,69.18L372.46,355.69L372.49,333.03L372.51,308.27L372.64,136.97L373.2,434.02L373.24,378.16L373.26,360.03L373.51,398.9L373.68,111.36L374.14,216.82L374.16,276.39L374.38,148.37L374.9,388.05L374.93,369.92L374.94,348.11L375.06,182.35L375.62,428.07L375.64,445.12L376.12,162.04L376.25,315.97L376.26,359.2L376.64,395.68L376.81,161.86L376.87,240.87L376.88,187.58L376.93,246.39L376.94,316.79L376.99,391.84L377.16,175.47L377.71,385.91L377.73,391.06L377.93,216.58L378.07,444.38L378.54,259.23L378.55,257.27L378.6,294.68L378.61,278.06L378.63,227.86L378.68,332.86L378.7,379.73L378.97,243.08L379.13,490.55L379.45,422.41L379.47,412.23L379.68,192.2L380.25,281.65L380.26,281.91L380.31,285.97L380.35,259.5L380.37,196.17L380.52,417.67L381.06,211.78L381.08,207.72L381.57,454.19L381.9,379.72L381.92,349.38L382.38,143.4L382.67,246.24L382.69,252.31L382.8,188.78L382.96,399.42L383.15,224.99L383.16,209.15L383.27,358.54L383.4,125.9L383.41,116.93L383.43,112.16L383.56,242.46L383.57,284.95L383.61,325.08L384.12,83.63L384.32,290.25L384.34,276.99L384.47,78.7L385.04,310.11L385.09,215.52L385.11,211.34L385.24,156.31L385.4,374.67L385.75,253.89L385.76,189.1L386.05,316.08L386.21,71.69L386.53,90.82L386.54,72.1L386.56,70.61L386.57,83.36L386.59,128.05L386.91,91.36L387.08,322.48L387.34,164L387.36,176.61L387.83,420.54L388.15,354.91L388.17,325.2L388.49,328.48L388.98,75.75L388.99,73.66L389.18,304.52L389.34,67.33L389.62,85.44L389.63,89.93L389.68,65.08L390.27,380.06L390.44,274.14L390.46,200.46L390.57,327.01L391.08,53.42L391.2,136.02L391.21,202.31L391.27,283.04L391.78,49.58L391.98,260.57L392,234.35L392.11,51.38L392.69,340.89L392.71,354.67L393.17,35.67L393.62,81.16L393.63,121.47L393.71,252.76L394.21,28.2L394.4,250.38L394.42,236.96L394.56,32.45L395.13,323.67L395.14,345.29L395.96,32.33L396.07,136.14L396.09,191.35L396.65,44.49L396.83,275.02L396.85,259.02L396.87,213.96L396.98,54L397.54,373.7L397.55,379.96L397.56,402.68L398.04,123.73L398.26,297L398.28,251.46L398.57,356.78L399.03,123.17L399.04,137.79L399.06,125.09L399.26,332.84L399.42,89.63L399.74,220.69L399.75,224.45L399.84,143.47L399.94,347.34L399.96,360.5L400,400.02L400.42,101.91L400.45,102.6L400.47,92.29L400.52,165.09L400.58,151.72L400.6,206.28L400.65,320L401.18,59.25L401.36,295.63L401.38,275.45L401.52,52.51L402.06,325.45L402.08,328.28L402.28,164.06L402.44,417.85L402.81,326.69L402.83,296.92L403.13,387.16L403.67,137.85L403.68,141.92L403.7,140.87L403.71,170.15L403.73,221.05L403.96,111.8L404.5,361.44L404.51,357.54L404.53,363.67L404.7,212.04L404.71,164.05L404.87,447.43L405.32,111.18L405.34,99.36L405.35,98.82L405.37,108.51L405.38,159.71L405.44,113.11L405.51,320.51L405.53,329.87L405.54,331.3L405.58,240.07L405.6,174.62L405.69,88L406.22,326.55L406.35,122.89L406.37,110.6L406.57,322.88L406.73,71.32L407.05,205.09L407.06,208.75L407.12,223.42L407.14,165.12L407.15,121.15L407.31,380.38L407.76,67.92L407.77,58.6L407.98,294.24L408.12,65.33L408.14,66.5L408.33,298.33L408.49,65.92L408.8,73.23L408.82,59.72L408.83,59.53L408.85,73.62L409.17,61.46L409.4,318.77L409.62,186.18L409.63,223.73L409.76,411.23L410.28,146.99L410.41,372.13L410.43,342.84L410.75,369.92L410.98,128.97L411.24,146.19L411.26,136.21L411.33,125.34L411.39,241.26L411.4,300.07L411.6,115.4L412.18,413.6L412.2,407.65L413,97.87L413.05,117.16L413.07,111.49L413.18,345.65L413.34,98.98L413.73,162.2L413.75,126.7L413.76,123.66L413.84,289.48L413.85,326.41L414.04,124.85L414.27,370.31L414.43,263.13L414.45,176.27L414.62,437.16L415.08,116.31L415.19,142.32L415.2,180.02L415.27,353.2L415.79,92.78L415.97,343.82L415.98,340.06L416.32,348.98L416.48,106.28L416.64,303.67L416.65,327.27L416.88,136.57L417.06,401.77L417.39,356.35L417.4,314.15L417.71,393.22L417.93,147.82L418.17,173.38L418.19,192.85L418.27,141.35L418.77,409.28L418.78,415.94L419.32,184.29L419.49,450.1L419.52,418.29L419.54,398.33L419.84,443.95L420.36,135.03L420.41,166.68L420.42,204.88L420.71,133.53L421.19,401.59L421.2,397.71L421.22,370.31L421.41,157.43L421.93,484.75L421.94,476.32L421.96,447.73L422.23,457.21L422.8,160.73L422.81,179.27L422.83,193.61L423.15,161.79L423.32,449.48L423.48,302.35L423.5,204.55L423.84,162.92L424.34,455.68L424.35,454.63L424.37,468.74L424.51,364.3L424.52,309.36L424.67,437.14L425.24,133.47L425.28,173.17L425.29,215.32L425.37,396.36L425.58,133.44L426.08,385.67L426.09,359.13L426.28,158.04L426.42,408.66L426.71,395.37L426.73,427.47L426.8,482.41L427.32,165.77L427.47,425.2L427.48,394.78L427.8,423.89L428.02,146.86L428.31,206.06L428.32,201.05L428.34,201.52L428.35,198.07L428.37,141.12L429.21,457.48L429.22,456.73L429.25,467.43L429.4,310.31L429.41,226.31L429.54,452.65L429.76,153.88L430.08,197.52L430.09,197.59L430.24,419.99L430.8,134L430.83,176.66L430.85,184.02L431.15,132L431.67,465.97L431.69,467.91L432.2,150.52L432.54,157.79L432.56,182.27L433.24,159.52L433.37,445.18L433.39,439.37L433.4,410.1L433.59,174.9L434.11,493.16L434.13,492.1L434.14,462.96L434.63,165.85L434.98,168.89L435,198.93L435.11,439.56L435.33,155.97L435.66,191.78L435.68,145.11L436.56,475.37L436.58,447.05L437.07,147.71L437.43,177.48L437.45,187.34L437.55,415.35L437.75,201.05L437.77,158.21L438.24,428.6L438.46,153.33L438.62,419.32L438.64,414.84L438.81,162.3L439,483.16L439.51,163.52L439.52,184.66L440.2,154.93L440.35,438.06L440.38,435.52L440.39,433.58L440.68,463.99L440.9,190.02L441.17,340.02L441.19,343.67L441.25,185.66L441.3,337.91L441.32,375.25L441.43,501.23L441.59,234.44L442.07,450.19L442.09,446.74L442.64,158.69L442.91,214.54L442.93,204.99L442.99,141.66L443.06,296.52L443.07,364.29L443.33,152.94L443.87,487.3L443.89,458.56L444.16,468.78L444.73,163.89L444.74,186.04L444.76,195.47L444.86,428.93L445.07,149.9L445.39,195.77L445.41,201.89L445.42,144.34L445.92,429.37L446.15,223.26L446.16,266.04L446.31,482.8L446.81,161.88L446.96,411.24L446.97,391.04L447.51,211.57L447.64,442.51L447.77,239.44L447.79,221.93L447.86,167.61L447.99,431.27L448.28,319.24L448.29,369.34L448.57,214.61L448.74,511.12L449.06,452.18L449.08,398.4L449.38,445.3L449.6,165.16L449.87,236.64L449.89,229.98L449.92,229.6L449.93,229.93L449.95,161.8L450.79,440.83L450.8,434.5L450.82,423.17L451.18,504.16L451.69,177.86L451.7,191.96L451.72,206.71L451.82,444.2L452.04,163.89L452.37,229.12L452.38,158.63L452.51,431.2L452.73,152.76L453.05,235.59L453.07,226.17L453.08,175.72L453.62,495.87L453.8,302.35L453.82,324.64L453.91,487.82L454.47,180.18L454.6,457.84L454.62,454.08L454.82,174.28L454.95,455.57L455.44,239.24L455.46,231.35L455.52,179.12L455.59,319.75L455.6,373.27L455.86,194.1L456.04,494.51L456.37,431.41L456.39,379.86L456.56,164.83L457.04,440.03L457.17,252.69L457.18,243L457.39,440.89L457.6,167.95L457.68,314.72L457.69,372.19L457.95,182.1L458.47,499.15L458.49,497.02L458.5,464.51L458.78,476.17L459.34,151.62L459.39,184.55L459.4,231.3L459.69,164.43L460.17,445.6L460.2,416.33L460.21,373.6L460.39,189.05L460.87,483.21L460.88,489.2L460.91,498.92L460.94,464.51L460.95,439.57L461.22,479.02L461.78,168.91L461.82,203.07L461.84,248.3L461.91,434.05L462.48,159.14L462.61,422.83L462.62,417.36L462.83,157.84L463.27,421.55L463.29,445.85L463.35,479.26L463.81,172.99L463.83,170.93L463.87,146.49L463.94,282.45L463.96,343.27L464.22,143.96L464.7,432.59L464.72,399.3L464.74,358.24L464.91,171.38L465.41,438.8L465.49,311.83L465.51,310.48L465.61,202.68L465.78,491.78L466.15,337.34L466.16,275.8L466.44,417.11L466.65,150.16L466.94,178.96L466.96,178.67L467,149.33L467.07,288.94L467.09,339.12L467.35,175.95L467.84,434.6L467.86,429.48L467.87,435.69L468.06,203.46L468.22,502.58L468.71,208.61L468.73,238.42L468.87,424.97L469.44,148.75L469.48,180.59L469.5,216.76L469.74,134.03L470.28,409.74L470.29,405.4L470.31,413.08L470.48,191.45L470.5,183.16L470.66,474.39L471.18,153.7L471.29,384.22L471.31,391.7L471.48,156.9L471.61,336.42L471.63,373.55L472.01,405.88L472.22,150.5L472.37,386.87L472.38,364.24L472.51,159.21L473.02,394.57L473.03,416.2L473.4,451.14L473.5,223.95L473.51,215.01L473.98,179.65L474.09,417.62L474.19,191.65L474.21,181.41L474.31,152.56L474.44,404.28L474.93,165.75L474.95,155.32L475.53,473.37L475.69,327.48L475.7,236.38L475.79,379.86L475.8,411.3L475.83,430.73L476.01,139.47L476.25,215.7L476.27,173.88L476.69,127.74L476.88,381.47L476.99,191.42L477.01,203.93L477.04,176L477.59,430.92L477.6,435.11L477.62,440.89L477.69,317.92L477.78,318.2L477.79,225.72L477.81,214.86L477.97,508.51L478.21,395.82L478.23,432.74L478.27,475.98L478.85,175.46L478.97,419.36L478.98,414.55L479.49,149.21L479.62,307.96L479.63,353.26L479.66,387.67L479.84,122.66L480.23,190.25L480.24,170.73L480.4,458.08L480.88,91.64L480.92,140.56L480.94,131.4L481.07,341.95L481.23,91.02L481.49,134.72L481.5,114.72L481.56,92.83L481.77,343.43L481.9,106.45L481.91,86.13L481.92,84.19L482.04,202.67L482.06,253.86L482.26,69.07L482.85,415.27L482.87,399.08L483.32,160.02L483.69,214.36L483.71,245.36L484.19,402.06L484.36,165.47L484.46,208.05L484.48,248.08L484.69,142.78L485.26,439.78L485.27,446.83L485.29,451.55L485.45,340.97L485.46,286.18L485.58,449.66L485.75,187.51L486.2,231.34L486.22,287.95L486.28,414.2L486.8,125.24L486.97,358.05L486.99,358.59L487.13,123.01L487.68,404.13L487.7,410.4L487.73,434.08L488.19,126.75L488.39,335.19L488.41,301.77L488.87,118.92L489.06,354.65L489.2,146.3L489.22,129.01L489.23,127.81L489.26,177.66L489.28,218.07L489.41,370.78L489.57,114.56L490.02,221.6L490.03,256.91L490.16,432.6L490.63,162.49L490.81,392.35L490.83,369.15L491.15,380.48L491.64,147.36L491.66,132.33L492.24,463.06L492.42,309.45L492.44,273.46L492.58,503.34L493.06,205.07L493.24,422.22L493.25,420.39L493.76,159.13L493.93,394.96L493.95,395.93L494.44,145.52L494.66,361.38L494.67,362.75L495.03,425.85L495.48,152.47L495.53,192.96L495.54,227.96L495.67,381.26L496.19,135.71L496.3,193.58L496.31,239.06L496.54,149.72L497.08,407.49L497.11,403.07L497.12,378.85L497.46,466.34L497.94,156.24L497.95,158.96L497.96,191.86L498.11,379.92L498.65,131.24L498.69,214.95L498.7,156.9L498.72,156.24L498.73,169.54L498.75,216.13L498.96,137.39L499.52,417.46L499.53,412.46L499.54,414.08L499.89,468.07L500.37,176.77L500.4,208.55L500.41,244.04L500.55,374.44L500.71,136.96L500.89,365.25L500.91,363.78L501.75,129.97L501.76,131.49L501.78,152.79L502.33,433.68L502.63,427.42L502.65,425.33L503.5,158.91L503.52,165.51L503.69,382.59L503.85,134.98L504.27,187.73L504.29,193.03L504.77,415.93L505.1,362.01L505.11,342.98L505.23,170.15L505.78,410.86L505.8,409.34L505.81,410.98L505.87,320.63L505.98,335.41L506,307.21L506.17,490.4L506.72,211.84L506.75,252.01L506.77,297.19L507.06,208.13L507.22,419.61L507.52,366.89L507.54,358.45L507.59,226.64L507.61,200.21L507.67,168.16L507.87,350.27L508.14,227.57L508.16,268.78L508.45,221.57L508.61,443.28L508.93,373.43L508.94,376.71L509.16,198L509.59,365.06L509.61,372.87L509.65,406.84L509.86,231.89L510,303.18L510.02,238.55L510.31,350.33L510.8,87.18L510.81,86.88L511,315.22L511.16,79.2L511.41,169.72L511.42,126.55L511.49,66.84L512.03,291.8L512.05,301.98L512.09,354.14L512.52,45.47L512.54,36.28L512.55,33.52L512.61,196.9L512.68,179.14L512.7,216.07L513.09,261.08L513.25,29.82L513.45,247.09L513.47,231.14L513.6,29.98L514.16,271.62L514.22,177.76L514.24,175.96L514.53,334.8L514.89,128.2L514.9,79.14L514.96,31.18L515.53,245.72L515.54,234.75L515.56,214.96L515.7,30.95L516.22,301.26L516.32,117.66L516.34,120.4L516.37,84.16L516.96,399.51L516.99,362.93L517.01,348.47L517.76,75L517.89,180.87L517.9,236.11L518.31,307.64L518.47,70.18L518.66,285.56L518.67,270.81L518.8,61.5L519.02,304.59L519.31,299.21L519.33,323.51L519.4,391L519.85,98.73L520.05,323.02L520.07,304.51L520.21,71.96L520.73,336.65L520.85,149.94L520.86,168.07L520.91,139.22L521.08,351.52L521.39,294.08L521.4,333.78L521.68,202.19L521.83,428.31L522.15,366.34L522.17,310.66L522.47,349.75L522.98,89.7L523,85.52L523.18,308.49L523.24,164.9L523.26,122L523.34,55.34L523.92,304.61L523.97,229.89L523.98,226.3L524.08,253.7L524.1,233.61L524.11,182.25L524.27,386.37L524.79,279.83L524.81,224.18L524.97,371.4L525.36,200.83L525.37,200.31L525.45,154.74L525.56,280.2L525.58,319.41L525.61,347.89L526.11,115.04L526.33,325.8L526.35,320.1L526.36,319.66L526.37,284.02L526.69,399.4L527.17,75.74L527.19,89.35L527.2,149.45L527.36,304.93L527.51,70.33L527.91,154.29L527.93,121.38L528.06,313.27L528.11,161.22L528.13,121.37L528.2,70.15L528.78,340.28L528.84,228.07L528.85,229.19L528.97,170.42L529.11,402.25L529.13,427.57L529.96,100.59L530.06,171.16L530.07,207.55L530.14,335.14L530.65,79.8L530.84,316.11L530.86,299.63L530.99,86.14L531.52,387.15L531.54,395.18L531.57,416.63L531.75,219.67L531.93,277.5L531.94,210.71L532.22,358.39L532.73,112.89L532.74,113.89L532.91,352.42L533.34,195.15L533.35,154.52L533.42,115.54L533.99,401.88L534,424.97L534.39,164.6L534.41,137.89L534.47,111.42L534.67,354.59L534.96,297.65L534.97,336.45L535,361.46L535.16,141.42L535.52,150.29L535.54,155.64L535.86,139.31L536.09,372.79L536.32,292.83L536.34,326.71L536.44,444.27L536.92,177.6L537.11,396.82L537.12,370.41L537.44,389.19L537.93,138.97L537.95,126.28L538.14,359.19L538.22,163.87L538.24,138.67L538.29,123.79L538.48,361.5L538.5,364.15L538.72,169.91L538.83,391.21L538.85,397L538.87,420.37L539.03,306.09L539.05,233.24L539.18,398.8L539.69,110.19L539.8,185.08L539.82,237.54L540.05,134.2L540.6,418L540.62,448.95L541.15,218.99L541.22,362.32L541.24,389.97L541.31,442.35L541.78,146.81L541.98,380.68L541.99,354.9L542.31,409.32L542.53,183.49L542.67,404.07L542.69,379.38L543.01,404.59L543.23,174.11L543.47,281.5L543.49,284.29L543.57,195.36L543.75,463.32L544.11,309.09L544.12,255.22L544.4,395.82L544.92,142.39L544.94,148.87L544.97,144.69L545.44,380.79L545.69,193.92L545.71,195.58L546.01,175.29L546.18,440.92L546.52,397.67L546.53,385.81L546.88,401.11L547.34,165.14L547.36,166.79L547.37,171.98L547.88,405.05L548.04,165.1L548.08,208.93L548.1,173.07L548.62,485.92L548.95,427.44L548.97,384.45L549.27,427.6L549.49,176.25L549.75,225.86L549.77,216.25L549.84,187.63L549.97,428.16L550.26,345.32L550.27,392.59L550.88,244.39L551.06,502.26L551.07,497.25L551.09,468.94L551.58,172.01L551.94,203.29L551.96,221.71L551.97,221.05L551.99,259.54L552,316.93L552.28,200.88L552.75,457.27L552.77,452.82L552.78,424.94L552.97,226.5L553.46,500.22L553.48,500.23L553.49,512.95L554,226.08L554.02,190.14L554.36,181.46L554.84,457.09L554.87,418.63L554.89,369.54L555.06,201.31L555.55,459.75L555.64,349.24L555.65,347.77L555.71,362.63L555.74,299.83L555.76,230.22L555.93,509.6L556.45,207.26L556.58,455.09L556.6,448.03L556.93,449.27L557.15,193.76L557.41,251.94L557.42,240.1L557.5,189.79L557.6,421.54L557.61,438.31L557.63,443.98L557.71,262.23L557.73,239.33L557.84,199.36L557.92,330.05L557.93,379.55L558.19,214.1L558.38,502.42L558.7,438.61L558.71,389.19L559.02,429.43L559.24,172.8L559.53,199.75L559.54,200.91L559.58,168.87L559.67,358.06L559.69,394.08L559.93,176.48L560.41,449.54L560.45,436.7L560.47,420.7L560.63,223.59L560.82,494.52L561.25,252.58L561.27,243.29L561.32,204.01L561.38,278.02L561.4,337.4L561.67,200.09L562.17,468.07L562.18,466.08L562.37,251.89L562.5,488.09L562.59,331.46L562.6,311.15L562.63,314.03L562.67,302.12L562.69,303.44L562.7,285.92L563.06,225.32L563.25,514.13L563.43,294.63L563.44,318.59L563.54,495.14L563.76,209.92L564.02,252.68L564.04,239.92L564.24,445.28L564.46,192.2L564.56,416.06L564.57,435.68L564.59,441.48L564.67,262.74L564.69,235.51L564.81,181.48L564.94,436.33L565.24,373.35L565.25,409.39L565.5,211.76L565.69,498.56L566.01,429.24L566.02,378.89L566.2,210.01L566.68,464.15L566.82,255.29L566.84,245.22L566.89,196.94L566.97,339.13L566.98,395.66L567.24,186.73L567.73,477.28L567.75,472.1L567.76,463.96L567.94,239.15L568.13,527.82L568.37,470.7L568.39,496.72L568.42,510.01L568.63,222.02L568.91,265.93L568.92,255.64L568.97,246.09L568.98,206.64L569.46,472.39L569.66,260.61L569.68,217.79L570.55,529.89L570.56,521.77L571.07,227.72L571.14,385.43L571.16,431.68L571.2,486.86L571.77,206.9L571.91,456.82L571.93,430.27L572.11,203.63L572.61,455.17L572.69,339.72L572.71,338.56L572.81,237.87L573,524.3L573.38,315.29L573.39,290.27L573.42,298.38L573.49,278L573.51,229.74L573.64,471.58L574.2,199.92L574.22,221L574.68,468.12L574.9,214.36L575.06,457.24L575.07,454.69L575.25,234.13L575.35,467.37L575.36,488.61L575.44,518.63L575.59,278.81L575.8,323.21L575.81,285.28L576.07,448.27L576.29,192.78L576.42,439L576.44,438.75L576.99,195.82L577.12,441.67L577.23,258.71L577.25,268.77L577.33,203.36L577.83,500.05L577.84,499.15L577.86,505.82L577.87,515.49L578.32,240.93L578.34,240.75L578.38,207.66L578.51,442.94L578.93,306.72L578.94,282.75L579.21,462.34L579.42,207.12L579.51,390.76L579.52,427.75L579.55,456.81L579.77,196.87L580.1,308.6L580.12,232.88L580.31,511.4L580.8,267.24L580.82,213.71L580.95,457.55L581.16,199.79L581.44,236.88L581.45,227.33L581.5,251.38L581.51,189.44L581.56,239.82L581.57,268.68L581.64,454.27L582.21,201.2L582.35,449.17L582.37,445.66L582.56,224.99L582.72,492.88L582.73,506.38L582.74,508.63L582.89,373.9L582.9,270.26L583.03,485.31L583.25,207.77L583.51,238.13L583.53,224.66L583.73,444.04L583.95,187.48L584.27,216.93L584.28,249.02L584.43,438.42L584.64,190.17L585.02,254.9L585.04,286.26L585.18,491.98L585.69,207.5L585.83,438.93L585.85,410.35L586.17,447.66L586.38,197.03L586.63,234.02L586.65,245.36L586.73,195.53L586.86,446.55L587.34,326.46L587.36,332.06L587.43,210.69L587.6,492.56L587.97,343.99L587.98,289.4L588.26,427.13L588.47,182.47L588.75,203.86L588.76,188.26L588.82,178.51L588.88,246.52L588.89,305.88L589.17,201.19L589.66,436.87L589.68,431.84L589.69,434.32L590.04,496.75L590.56,204.4L590.58,213.95L590.59,229.71L590.69,431.38L590.91,204.29L591.11,278.58L591.13,250.06L591.26,190.52L591.74,433.06L591.88,236.7L591.9,229.37L591.95,209.39L592.1,446.02L592.29,319.81L592.3,225.07L592.37,372.89L592.39,413.39L592.48,507.39L592.94,186.77L593.14,419.1L593.16,395.03L593.29,173.16L593.82,428.93L593.95,234.21L593.97,219.4L594.04,199.8L594.56,434.11L594.58,412.47L594.75,248.63L594.91,501.61L595.33,394.42L595.35,389.73L595.56,466.61L595.68,226.8L595.71,234.2L595.72,225.96L595.74,223.96L595.84,274.11L595.85,329.81L596.26,436.1L596.48,183.03L596.62,413.54L596.64,386.72L596.83,191.3L597.35,499.57L597.36,490.89L597.38,468.89L597.65,481.17L598.23,204.66L598.25,221.42L598.35,430.02L598.52,160.4L598.57,177.09L598.58,178.04L598.7,401.14L598.87,140.1L599.13,184.88L599.15,151.4L599.2,128.06L599.39,365.05L599.41,372.2L599.62,196.38L599.78,462.36L599.94,346.26L599.96,262.27L600.09,423.38L600.6,126.05L600.71,202.61L600.73,257.47L600.79,376.77L601.31,91.5L601.48,335.27L601.5,336.84L601.6,117.33L601.87,376.81L602.13,348.04L602.15,378.19L602.22,454.01L602.7,172.68L602.89,391.81L602.9,370.85L603.22,405L603.38,170.1L603.54,371.43L603.56,394.28L603.57,403.33L604.03,150.95L604.05,163.46L604.06,142.79L604.08,128.76L604.31,390.39L604.54,290.53L604.56,322.66L604.66,460.18L605.12,190L605.32,400.59L605.34,384.8L605.66,414.15L606.17,140.48L606.18,136.33L607.09,452.14L607.11,437.28L607.12,415.98L607.44,466.89L607.91,152.19L608.02,204.84L608.04,258.56L608.09,372.17L608.6,88.47L608.8,318.63L608.82,320.69L608.95,78.52L609.18,360.45L609.41,259.22L609.43,287.55L609.54,444.98L610.01,173.13L610.21,352.16L610.23,318.39L610.55,335.14L610.69,96.94L611.04,113.49L611.05,120.25L611.98,467.36L612,448.42L612.01,428.53L612.27,431.7L612.79,154.08L612.88,201.41L612.89,211.91L613.14,174.41L613.66,392.39L613.69,374.23L613.71,356.28L613.84,182.37L614.42,446.78L614.43,428.21L614.45,411.36L614.77,449.06L615.23,162.32L615.33,210.48L615.35,256.82L615.58,135.25L615.77,375.73L616.11,370.14L616.13,347.46L616.26,157.26L616.82,452.51L616.84,466.77L616.85,472.47L617.22,260.26L617.23,222.14L617.49,380.19L618,107.96L618.03,123.48L618.04,168.5L618.55,337.02L618.7,102.18L618.8,205.34L618.81,207.42L619.13,205.39L619.29,420.63L619.62,335.24L619.64,298.2L620.1,150.11L620.28,386.44L620.41,167.6L620.42,147.8L620.64,350.03L620.78,108.58L620.96,319.29L620.97,333.48L621.22,227.16L621.36,384.03L621.54,310.06L621.55,276.39L621.71,474.15L622.19,179.95L622.29,242.89L622.31,289.05L622.36,396.37L622.87,168.83L623.06,384.25L623.08,382.12L623.23,146.25L623.8,385.98L623.86,277.07L623.87,273.49L623.97,287.43L623.99,249.21L624,222.6L624.15,437.75L624.61,183.14L624.63,184.52L624.8,397.34L624.97,171.26L625.28,182L625.29,167.67L625.31,153.9L625.51,385.04L625.8,323.66L625.82,361.3L626,159.5L626.58,430.32L626.6,427.89L626.61,410.12L626.89,410.3L627.41,179.77L627.51,236.41L627.53,279.51L627.59,396.29L627.76,146.39L628.28,353.79L628.3,354.33L628.44,134.4L628.98,388.23L628.99,399.37L629.04,431.59L629.21,309.84L629.22,252.83L629.33,384.05L629.83,102.16L629.96,205.72L629.98,255.93L630.38,339.14L630.53,122.89L630.75,325.07L630.76,318.24L630.88,124.41L631.44,375.11L631.46,398.17L631.47,402.59L631.67,240.58L631.83,268.8L631.85,225.87L632.12,355.53L632.28,158.8L632.62,166.62L632.63,163.93L633.21,425.03L633.57,374.9L633.59,342.06L633.91,416.73L634.37,198.78L634.39,202.34L634.4,225.29L634.46,203.99L634.91,369.79L635.14,232.47L635.16,224.91L635.49,215.56L635.65,434.65L635.82,344.41L635.84,282.12L636.19,244.56L636.34,432.23L636.45,377.21L636.46,375.02L636.65,417.07L636.72,249.99L636.74,221.64L636.81,197.56L636.85,270.28L636.92,260.98L636.94,310.68L637,386.93L637.5,166.33L637.69,358.29L637.71,346.04L638.19,131.69L638.39,335.98L638.4,337.63L638.62,201.55L638.78,403.66L638.97,237.4L638.98,229.42L639.07,350.47L639.14,213.92L639.16,175.67L639.23,139.34L639.78,339.4L639.91,146.23L639.93,135.26L639.94,131.94L640.1,319.56L640.12,328.45L640.13,331.49L640.26,161.84L640.27,144.78L640.83,371.97L641.03,291.66L641.04,278.06L641.22,451.15L641.68,202.26L641.78,242.5L641.8,291.34L642.03,204.1L642.55,401.97L642.57,399.95L642.58,382.06L643.06,184.05L643.26,398.04L643.29,387.41L643.31,382.22L643.65,447.06L644.12,156.29L644.13,161.89L644.31,348.37L644.47,98.8L644.87,218.67L644.89,183.54L645.16,126.46L645.34,347.05L645.55,227.86L645.57,234.1L645.58,186.95L646.09,409.34L646.31,213.33L646.32,236.26L646.39,349.47L646.89,66.7L647.09,296.42L647.11,284.3L647.25,62.01L647.79,308.47L647.9,122.56L647.92,99.47L647.93,82.84L648.5,372.8L648.51,383.58L648.53,405.78L649.08,215.73L649.22,363.76L649.24,343.06L650.02,85.27L650.06,146.6L650.08,199.65L650.37,119.43L650.57,341.55L650.79,243.75L650.8,188.68L650.96,404.12L651.31,232.23L651.33,168.96L651.41,77.77L651.96,322.41L652.09,86.68L652.11,70.86L652.12,70.2L652.14,81.92L652.15,132.77L652.31,312.97L652.8,71.1L652.89,159.09L652.91,150.44L653.38,395.99L653.56,262.35L653.57,220.77L653.69,364.85L653.76,189.94L653.78,155.42L654.04,332.17L654.55,95.72L654.56,97.99L655.1,322.99L655.24,83.8L655.31,133.94L655.33,139.69L655.37,198.54L655.39,239.84L655.66,154.86L655.82,388.6L656.15,320.36L656.17,297.28L656.23,140.08L656.82,378.75L656.94,165.91L656.95,178.3L657.17,359.04L657.34,141.76L657.5,338.46L657.52,345.1L657.68,121.73L657.88,357.22L657.9,357.84L658.1,180.53L658.26,432.64L658.61,319.08L658.62,270.76L658.91,342.75L659.07,100.71L659.39,125.6L659.4,104.15L659.42,87.77L659.62,324.93L659.91,261.36L659.93,298.73L660.11,128.64L660.69,434.78L660.72,406.33L660.74,387.71L661,407.67L661.51,124.01L661.61,164.74L661.62,197.4L662.04,371.49L662.2,123.29L662.41,362.38L662.42,340.56L662.55,116.46L663.12,401.33L663.13,427.44L663.94,84.3L664.06,164.14L664.07,207.89L664.29,88.57L664.87,409.52L664.89,406.66L664.9,385.98L665.41,205.65L665.57,437.92L665.65,355.72L665.67,358.3L665.68,359.14L665.73,325.42L665.74,248.52L665.87,377.07L666.39,94.68L666.51,219.06L666.52,274.01L666.58,341.96L667.07,90.67L667.29,312.16L667.31,294.67L667.42,104.59L668,422.04L668.03,391.8L668.05,369.3L668.82,98.14L668.92,145.51L668.93,174.21L669.02,344.17L669.51,90.83L669.71,326.92L669.73,307.24L669.86,95.98L670.41,377.24L670.42,383.88L670.44,411.22L670.9,97.85L670.99,160.74L671.01,153.68L671.09,341.41L671.6,94.06L671.8,336.86L671.82,316.83L671.95,93.54L672.53,351.47L672.59,235.81L672.6,236.09L672.7,170.13L672.88,418.81L673.24,270.22L673.25,200.88L673.53,335.02L674.04,89.01L674.05,94.5L674.27,367.01L674.78,221.01L674.79,178.44L675.33,430.77L675.65,359.32L675.66,329.35L675.78,108.65L676.31,359.65L676.43,184.76L676.44,204.89L676.53,187.81L676.63,383.4L676.65,401.44L676.88,206.24L677.01,444.87L677.21,261.89L677.23,229.53L677.75,527.54L678.08,464.54L678.1,422.02L678.4,453.41L678.62,203.43L678.89,230.74L678.91,218.84L678.97,197.07L679.02,264.99L679.04,316.23L679.1,430.38L679.31,190.05L679.81,421.27L679.82,420.12L679.84,419.61L679.85,397.33L680.19,476.9L680.65,198.78L680.68,208.03L680.69,217.46L680.84,407.82L681.4,165.01L681.45,196.06L681.46,231.17L681.75,173.06L682.24,430.89L682.27,423.38L682.29,405.54L682.64,494.35L683.1,207.6L683.11,210.96L683.14,200.33L683.27,422.41L683.43,218.81L683.45,219.33L683.49,190.2L683.97,436.44L684.06,255.17L684.07,235.86L684.19,199.39L684.27,368.34L684.29,405.54L684.54,186.13L685.06,473.8L685.07,473.21L685.09,445.94L685.36,446.28L685.58,203.12L685.93,209.72L685.94,229.53L686.28,210.62L686.45,455.95L686.6,352.08L686.61,303.52L686.75,457.11L686.97,215.46L687.36,303.34L687.38,340.46L687.51,506.43L688.02,195.28L688.15,430.53L688.16,427.1L688.36,169.83L689,203.43L689.02,202.62L689.06,176.12L689.12,242.75L689.13,292.53L689.41,188.85L689.93,463.48L689.95,470.86L690.45,191.08L690.8,195.26L690.82,211.45L691.15,192.02L691.28,436.79L691.47,260.07L691.48,248.54L691.5,208.07L691.99,461.34L692.21,261.59L692.22,299.1L692.38,535.22L692.89,226.6L692.9,246.94L692.92,260.43L693.02,478.52L693.25,225.77L693.57,246.76L693.59,198.43L693.72,464.11L693.93,194.41L694.44,454.18L694.46,448.59L694.63,215.69L694.82,518.2L695.33,216.77L695.34,231.19L695.46,460.32L695.67,208.08L695.99,247.71L696.01,237.84L696.37,197.71L696.5,460.86L696.75,260.76L696.76,272.6L697.07,219.07L697.25,522.25L697.57,463.27L697.59,413.98L697.89,463.33L698.11,205.21L698.37,268.76L698.39,260.56L698.46,201.51L698.59,461.68L698.89,400.91L698.91,435.87L699.15,210.08L699.69,513.62L699.71,489.02L699.98,491.4L700.55,191.62L700.56,211.07L700.58,226.17L700.68,447.66L700.89,194.21L701.18,245.16L701.2,243.32L701.24,197.85L701.33,381.49L701.34,416.62L701.59,203L701.76,463.32L701.92,313.56L701.94,230.7L702.13,514.1L702.63,195.85L702.66,225.51L702.68,233.95L702.77,440.15L702.98,176.74L703.48,426.68L703.49,402.9L703.81,426.66L704.03,179.74L704.26,308.72L704.27,305.57L704.32,322.14L704.36,283.48L704.37,209.58L704.56,504.32L705.01,268.58L705.03,269.67L705.07,214.34L705.14,354.47L705.16,397.71L705.55,458.39L705.77,198.84L705.91,444.89L705.93,420.3L706.12,201.75L706.61,455.24L706.7,343.07L706.71,339.65L706.77,348.3L706.8,302.72L706.81,212.61L707,508.78L707.43,252.09L707.45,240.12L707.51,203.37L707.61,414.67L707.62,433.12L707.64,444.08L707.86,190.74L708.06,290.59L708.07,254.67L708.2,183.68L708.33,437.95L708.65,413.35L708.67,433.75L708.68,443.43L708.9,197.6L709.23,298.8L709.25,213.06L709.44,507.58L709.93,262.1L709.94,208.25L710,266.22L710.02,330.59L710.64,194.13L710.77,445.31L710.78,439.41L710.8,412.28L710.99,198.35L711.12,441.71L711.57,321.93L711.58,316.34L711.61,318L711.67,293.14L711.68,200.88L711.87,487.98L712.24,299.37L712.25,264.35L712.51,422.85L712.73,191.71L713,240.82L713.02,232.69L713.08,202.09L713.16,369.87L713.18,410.06L713.42,205.12L713.92,450.89L713.93,446.09L713.95,445.3L714.31,506.71L714.82,209.49L714.83,215.63L714.95,431.29L715.16,189.32L715.38,241.48L715.4,210.6L715.51,170.5L715.64,404.44L715.96,370.35L715.98,391.31L716.21,180.83L716.75,467.44L716.76,444.81L716.77,419.15L717.02,476.16L717.6,215.43L717.64,244.24L717.66,282.14L717.73,457.42L718.3,199.65L718.43,436.86L718.44,432.6L718.66,202.88L718.82,438.41L719.09,434.8L719.11,458.38L719.17,500.48L719.63,189.82L719.67,231.04L719.69,181.7L719.82,411.19L720.04,170.18L720.25,238.25L720.27,219.11L720.39,196.47L720.52,420.66L720.79,252.74L720.81,308.99L721.08,197.18L721.59,479.38L721.6,500.42L722.13,207.33L722.24,420.28L722.26,427.94L722.47,196.55L722.65,438.93L722.89,347.28L722.91,392.95L722.95,444.24L723.17,204.57L723.66,433.61L723.68,429.86L723.87,216.76L724.04,491.17L724.37,413.35L724.39,379.95L724.69,399.21L724.87,151.44L725.17,184.29L725.19,168.59L725.2,156.96L725.39,395.81L725.72,393.55L725.74,405.68L725.79,312.85L725.81,265.88L726.3,202.01L726.48,470.91L726.49,458.25L726.51,428.77L726.78,430.28L726.94,170.85L727.32,213.42L727.33,246.3L727.82,431.68L728.04,197.2L728.09,220.36L728.1,252.58L728.33,191.59L728.88,474.81L728.9,476.32L728.91,498.53L729.45,221.77L729.59,416.03L729.61,385.62L729.91,437.41L730.09,197.56L730.39,217.08L730.41,200.33L730.42,186.56L730.99,423.5L731,434.55L731.35,502.8L731.77,233.32L731.84,237.39L731.86,258.81L732.23,209.49L732.35,445.07L732.61,242.89L732.63,282.48L733.05,464.04L733.28,220.36L733.39,453.27L733.41,454.01L733.63,223.45L733.79,506.89L733.96,293.34L733.97,279.02L734.09,462.47L734.58,215.62L734.6,204.06L734.71,261.86L734.73,312.34L734.83,460.93L735.31,170.38L735.48,391.84L735.5,389.16L735.64,179.68L735.87,410.41L736.15,359.62L736.16,396.28L736.24,459.32L736.64,158.29L736.66,162.97L736.89,343.13L737.4,84.91L737.41,96.26L737.43,142.85L737.73,104.78L737.93,335.24L738.19,213.45L738.21,250.55L738.51,246.02L738.67,461.41L738.99,391.64L739.01,358.14L739.14,146.89L739.66,372.4L739.8,147.62L739.82,154.31L739.83,138.55L740.37,366.47L740.53,208.97L740.54,224.11L741.11,495.78L741.43,428.89L741.44,391.96L741.92,180.26L742.14,418.82L742.18,359.6L742.2,340.43L742.6,179.52L742.79,393.76L742.99,245.17L743.01,266.35L743.04,227.21L743.55,484.44L743.73,287.98L743.75,296.8L743.84,451.28L744.36,169.97L744.43,201.44L744.44,203.36L744.53,395.72L744.71,153.86L745,172.51L745.01,178.46L745.39,126.6L745.62,382.8L745.68,293.83L745.69,295.54L745.82,252.56L745.88,384.76L745.89,419.37L745.98,472.44L746.5,289.23L746.52,268.86L746.66,470.59L747.14,193.95L747.33,419.99L747.34,395.29L747.48,182.95L748,446.3L748.01,458.26L748.26,282.96L748.4,528.3L748.58,388.79L748.59,348.85L748.71,482.59L749.22,198.54L749.35,303.22L749.36,348.33L749.4,418.19L749.93,186L750.11,405.64L750.13,385.12L750.26,169.71L750.84,457.5L750.85,452.6L750.87,430.46L751.3,128.25L751.7,188.01L751.71,227.56L751.74,190.08L752.19,429.12L752.39,255.45L752.41,276.28L752.54,426.33L752.71,200.11L753.15,254.43L753.16,290.2L753.29,451.55L753.74,203.37L753.94,412.86L753.96,393.83L754.28,400.94L754.8,148.98L754.81,158.3L755.13,142.58L755.71,427.83L755.73,429.12L756.52,143.41L756.57,186.32L756.58,223.37L756.73,372.13L756.87,170.07L757,273.75L757.02,324.08L757.22,232.78L757.77,440.77L757.79,435.8L757.8,439.81L758.15,473.88L758.61,193.08L758.66,232.78L758.67,261.03L758.71,214.63L758.74,278.69L758.76,327.43L758.82,403.09L759.32,181.44L759.51,379.98L759.53,368.7L759.67,183.16L760.22,380.52L760.24,398.68L760.44,219.73L760.6,444.95L760.85,335.78L760.86,366.24L760.9,400.4L761.38,158.58L761.4,149.65L761.41,149.18L761.43,159.37L761.44,193.46L761.75,157.43L761.95,327.46L762.18,195.04L762.2,184.99L762.25,290.39L762.27,312.43L762.88,208.32L763.04,429.45L763.07,400L763.08,386.05L763.14,392.61L763.83,116.59L763.98,245.54L763.99,282.26L764.04,323.78L764.53,105.44L764.62,168.11L764.63,158.99L764.65,156.77L764.68,234.94L764.69,270.78L764.88,96.05L765.47,373.55L765.49,358.41L765.92,73.27L766.33,183.06L766.34,189.14L766.62,67.77L766.82,294.38L767.08,176.11L767.1,210.63L767.33,142.84L767.89,384.08L767.91,399.51L768.36,119.79L768.76,222.33L768.78,224.55L768.91,325.76L769.07,130.38L769.52,191.12L769.53,226.71L769.77,176.38L770.35,424.72L770.36,407.01L770.37,387.48L771.16,102.9L771.27,199.01L771.29,249.81L771.35,327.59L771.85,119.09L772.04,320.99L772.06,305.78L772.19,121.23L772.78,391.86L772.8,377.95L773.23,91.02L773.64,197.27L773.65,198.26L773.78,317.02L773.94,106.76L774.39,166.8L774.41,212.28L774.62,117.74L775.19,372.29L775.2,379.61L775.22,398.26L775.65,116.61L775.67,99.67L775.73,194.16L775.74,198.08L776.03,96.19L776.22,328.69L776.48,152.1L776.49,201.19L776.57,329.84L777.07,104L777.26,315.19L777.28,317.11L777.5,169.04L777.65,387.59L777.94,335.09L777.96,335.54L778.8,64.32L778.81,65.15L778.83,77.09L779,290.12L779.5,59.35L779.58,124.53L779.6,124.71L780.08,366.8L780.42,270.89L780.44,215.21L780.54,39.31L781.09,285.86L781.19,77.2L781.21,88.95L781.44,284.32L781.58,35.04L781.95,80.14L781.96,103.81L782.51,394.98L782.8,369.26L782.82,378.26L782.86,380.94L782.93,265.78L782.95,266.1L782.96,258.33L783.05,201.86L783.15,348.69L783.17,359.73L783.21,379.76L783.4,184.08L783.6,205.21L783.62,180.2L783.88,302.07L784.02,87.25L784.15,207.63L784.17,251.66L784.37,86.88L784.95,377.76L784.96,373.01L785.76,77.03L785.88,146.54L785.89,190.49L786.3,312.88L786.47,67.02L786.66,292.53L786.68,275.07L786.81,47.77L787.34,323.73L787.36,333.6L787.39,367.22L787.76,158.91L787.78,118.9L787.85,73.97L788.39,323.83L788.53,97.78L788.55,87.7L788.73,318.98L788.91,70.43L789.15,147.76L789.17,108.33L789.24,69.37L789.79,401.78L789.81,403.55L789.82,422.21L790.29,173.85L790.52,336.54L790.53,293.77L790.82,382.77L791.33,135.49L791.34,136.98L791.52,360.9L791.68,119.18L792.04,242.13L792.06,245.58L792.1,160.97L792.17,312.36L792.19,343.5L792.26,415.12L792.72,142.31L792.93,356.82L792.94,331.34L793.07,155.45L793.61,395.57L793.72,183.5L793.74,197.93L793.77,168.74L794.32,405.67L794.42,293.17L794.43,294.67L794.54,208.05L794.59,337.94L794.61,376.92L794.69,467.15L795.17,168.93L795.35,381.4L795.36,376.14L795.87,120.77L796.22,128.28L796.23,137.2L796.55,134.84L797.13,425.24L797.15,420.75L797.94,112.63L798,133.33L798.02,144.11L798.87,442.84L798.92,392.66L798.93,372.18L799.39,210.14L799.57,452.44L799.67,377.32L799.68,381.59L799.87,410.22L800.03,169.1L800.18,327.9L800.19,360.76L800.44,175.94L800.57,402.9L800.77,224.39L800.79,176.81L801.13,173.15L801.63,413.38L801.66,411.55L801.67,391.29L801.83,211.01L802,464.28L802.45,222.15L802.47,210.69L802.51,233.62L802.53,191.63L802.57,219.43L802.58,253.68L802.66,422.6L803.22,158.56L803.35,386.7L803.37,381.55L803.57,166.51L804.06,439.03L804.12,371.69L804.14,342.35L804.27,231.48L804.76,503.13L804.77,500.71L804.79,514.06L805.31,197.44L805.43,429.32L805.44,440.89L805.66,188.41L805.75,364.31L805.76,401.64L805.79,428.54L806.01,176.11L806.51,406.01L806.53,401.77L806.7,197.19L806.88,473.3L807.36,221.13L807.37,225.73L807.53,428.33L807.75,190.47L808.05,212.53L808.07,219.07L808.09,179.87L808.57,432.87L808.7,244.5L808.72,230.53L808.79,195.45L808.94,435.41L809.21,356.84L809.23,394.29L809.31,475.98L809.84,184.01L809.98,415.72L809.99,384.76L810.18,172.48L810.66,427.54L810.79,237.57L810.81,229.26L810.88,174.47L811.01,417.79L811.33,389.89L811.34,412.17L811.58,196.69L811.76,470.14L811.89,354.83L811.91,300.91L812.05,456.61L812.62,169.44L812.66,220.7L812.68,259.14L812.97,178.13L813.1,430.54L813.45,428.9L813.46,423.26L813.66,180.74L814.11,428.16L814.13,452.89L814.2,480.98L814.65,232.46L814.69,236.62L814.71,191.59L814.84,446.06L815.4,190L815.55,435.81L815.56,406.17L815.75,190.58L816.25,447.34L816.33,332.5L816.35,328.07L816.39,334.65L816.43,281.43L816.45,206.39L816.64,489.48L817.14,183.01L817.26,412.8L817.27,419.32L817.35,263.55L817.36,236.47L817.62,416.01L817.84,156.19L817.96,402.46L817.97,409.47L818.04,259.33L818.06,231.08L818.19,152.38L818.68,432.3L818.77,325.24L818.78,327.26L818.81,333.91L818.87,282.87L818.88,210.65L819.07,506.67L819.57,225.84L819.58,186.81L819.71,435.61L819.93,175.12L820.15,240.93L820.16,219.28L820.28,176.03L820.39,425.01L820.41,435.81L820.42,439.06L820.61,292.97L820.62,218.5L820.97,199.28L821.12,456.57L821.31,290.26L821.32,212.22L821.51,494.64L822,232.31L822.02,192.17L822.84,451.19L822.87,415.18L822.89,364.72L823.06,184.54L823.19,452.74L823.64,333.3L823.66,330.16L823.76,206.97L823.83,390.46L823.84,424.79L823.95,503.16L824.44,246.22L824.45,197.43L824.58,458.96L824.8,191.21L825.02,278.57L825.03,257.8L825.15,183.23L825.22,342.4L825.24,389.55L825.5,181.8L825.99,450.3L826.01,443.12L826.19,216.25L826.38,508.39L826.64,476.96L826.66,489.17L826.67,494.06L826.88,264.27L826.89,216.84L827.02,474.42L827.59,197.49L827.73,457.03L827.75,433.44L827.93,194.39L828.43,457.67L828.51,346.28L828.53,343.31L828.57,351.3L828.62,293.55L828.63,221.86L828.82,520.72L829.33,207.38L829.46,458.67L829.47,452.79L829.8,455.66L830.02,195.03L830.14,445.46L830.15,453.23L830.21,350.9L830.23,306.83L830.37,190.24L830.86,454.34L830.95,344.46L830.97,342.36L831.07,218.76L831.14,391.13L831.15,426.54L831.26,506.06L831.7,254.05L831.75,259.59L831.76,202.4L832.24,470.27L832.39,273.74L832.4,269.22L832.44,260.11L832.46,206.5L832.59,462.97L832.81,202.82L833.31,451.74L833.33,442.69L833.69,509.52L834.2,199.8L834.21,210.49L834.23,229.67L834.33,449.31L834.9,186.52L835.05,421.93L835.07,388.18L835.24,188.05L835.74,454.22L835.82,346.58L835.84,343.37L835.94,219.34L836.13,506.3L836.27,364.43L836.29,266.28L836.42,491.87L836.98,208.54L837.11,460.07L837.13,455.18L837.33,196.63L837.94,265.52L837.96,256.45L838.03,213.16L838.17,451.57L838.43,355.65L838.45,397.61L838.56,509.67L839.07,211.36L839.2,453.27L839.22,450.75L839.77,180.57L840.04,234.06L840.06,223.57L840.12,200.51L840.17,273.16L840.19,318.2L840.46,203.1L840.96,480.1L840.97,479.55L840.99,489.9L841.02,457L841.03,428.24L841.29,468.72L841.51,200.39L841.87,213.4L841.89,223.3L842.2,193.12L842.33,435.53L842.54,224.09L842.55,187.83L842.68,429.21L843.2,310.61L843.22,304.68L843.25,208.56L843.42,484.9L843.97,227.62L843.99,247.54L844.42,458.45L844.64,204.68L844.79,448.77L844.8,418.59L844.99,206.49L845.12,452.76L845.57,330.48L845.58,326.89L845.64,333.77L845.67,312.79L845.68,225.41L845.86,509.43L846.02,366.86L846.03,270.07L846.16,476.57L846.38,204.73L846.6,271.04L846.61,241.06L846.86,433.07L847.08,179.09L847.16,354.95L847.18,392.6L847.43,196.59L847.92,435.6L847.93,427.89L847.95,427.65L848.12,220.8L848.3,500.77L848.77,221.61L848.79,225.63L848.95,434.63L849.51,193.21L849.53,197.1L849.54,214.03L849.69,443.15L850.06,330.95L850.08,294.52L850.21,216.88L850.73,486.03L850.75,470.14L851.56,154.56L851.6,167.69L851.62,170.75L851.73,397.83L852.25,136.16L852.28,193.72L852.3,157.34L852.36,212.88L852.37,245.55L852.59,134.17L853.15,443.69L853.17,468.38L853.65,155.65L854.08,187.56L854.1,221.9L854.17,390.44L854.34,147.93L854.88,384.26L854.89,365.51L855.02,161.83L855.26,400.38L855.53,388.62L855.55,410.06L855.6,458.79L856.08,180.2L856.13,187.85L856.14,181.09L856.26,403.17L856.47,175.1L856.66,294.88L856.68,244.07L857.11,155.46L857.3,397.22L857.43,206.36L857.45,194.02L857.52,183.91L857.66,403.73L857.94,357.96L857.95,398.73L858.04,486.41L858.46,195.25L858.55,235.49L858.56,191.72L858.64,305.1L858.65,352.33L858.91,192.94L859.39,442.06L859.4,438.59L859.42,417.54L859.9,129.09L860.2,275.4L860.22,280.86L860.32,208.41L860.48,468.13L860.85,241.63L860.87,199.32L861.13,370.35L861.64,90.17L861.65,94.12L861.67,117.98L861.87,387.56L862.43,191.76L862.45,208.55L862.75,197.72L862.93,441.61L863.25,389.17L863.26,349.42L863.57,383.22L864.09,129.82L864.1,131.81L864.12,170.5L864.28,348.96L864.44,101.96L864.87,199.86L864.89,214.62L865.2,203.33L865.36,414.64L865.68,373.72L865.7,331.13L866,402.5L866.5,176.66L866.51,154.68L866.52,146.67L866.71,370.14L867.02,331.88L867.03,356.1L867.22,148.39L867.41,376.07L867.61,263.36L867.63,211.17L867.8,425.39L868.26,172.95L868.37,211.84L868.38,259.68L868.6,172.82L869.18,441.47L869.19,438.06L869.21,412.76L869.5,434.02L869.73,209.01L869.99,291.69L870.01,290.09L870.06,218.89L870.24,430.9L870.48,374.65L870.5,404.29L870.53,426.66L870.69,199.83L871.11,227.83L871.12,207.8L871.22,414.06L871.47,201.81L871.66,240.77L871.67,216.16L871.92,393.57L872.08,152.6L872.22,293.07L872.24,331.2L872.51,247.71L872.66,477.89L872.99,408.82L873.01,375.97L873.49,170.03L873.7,411.5L873.76,310.19L873.78,302.71L874.01,376.12L874.17,107.79L874.63,210.98L874.65,247.64L874.95,212.16L875.11,428.09L875.43,404L875.44,391.91L875.75,413.01L875.92,168.96L876.3,212.95L876.31,239.55L876.79,406.2L876.97,178.11L877.05,213.79L877.07,224.48L877.39,202.74L877.55,430.25L877.85,382.71L877.87,360.24L878,145.02L878.53,379.6L878.66,200.98L878.68,185.28L878.71,170.63L879.23,400L879.4,213.85L879.42,220.54L879.48,218.99L879.97,462.64L880.27,414.13L880.29,412.46L880.78,142.5L881.13,158.55L881.14,154.44L881.33,372.49L881.4,202.5L881.42,182.05L881.49,152.27L881.68,358.84L881.95,253.41L881.97,296.99L882.26,208.5L882.4,433.71L882.72,391.17L882.74,369.11L882.87,134.11L883.41,380.36L883.55,178.5L883.56,166.61L883.58,160.32L883.72,333.6L883.74,359.69L883.75,379.93L884.26,125.17L884.48,347.65L884.49,355.04L884.84,407.62L885.3,119.26L885.35,168.76L885.36,213.4L885.38,215.44L885.41,156.9L885.44,206.26L885.45,257.67L885.51,335.58L885.67,108.85L886.2,327.82L886.22,317.32L886.35,157.84L886.9,364.03L886.91,363.49L886.93,373.48L887.13,207.1L887.28,408.83L887.61,397.85L887.63,424.02L887.64,433.71L888.1,189.53L888.16,242.82L888.18,192.05L888.29,350.58L888.44,168.05L888.6,300.9L888.61,321.6L888.8,177.38L888.99,343.07L889.21,247.09L889.22,203.86L889.25,211.76L889.26,236.99L889.92,214.47L890.08,462.89L890.09,450.79L890.11,429.11L890.89,168.25L890.96,183.86L890.98,179.5L891.42,371.19L891.57,177.5L891.79,361.54L891.8,362.29L892.01,207.52L892.14,402.98L892.15,416.35L892.16,426.65L892.61,197.02L892.69,239.2L892.7,193.54L892.73,216.76L892.74,264.37L892.8,377.58L893.32,132.95L893.51,338.7L893.53,324.23L893.67,119.71L894.21,343.31L894.3,255.67L894.31,251.08L894.35,256.5L894.43,239.31L894.44,192.89L894.6,402.78L894.98,186.06L894.99,159.89L895.06,117.72L895.12,205.63L895.18,198.43L895.2,251.84L895.25,324.43L895.76,76.74L895.95,287.36L895.96,277.85L896.44,49.67L896.63,269.5L896.65,277.03L896.88,157.06L897.04,362.02L897.21,251.95L897.23,189.68L897.34,301.89L897.85,32.62L897.98,177.38L897.99,216.6L898.2,37.22L898.73,265.99L898.75,256.9L898.76,235.11L898.88,85.92L899.4,333.49L899.42,349.28L899.47,383.4L899.91,103.32L899.92,90.14L899.94,88.67L899.97,137.55L899.98,182.75L900.01,136.18L900.1,294.97L900.11,307.61L900.13,308.77L900.14,291.32L900.16,257.78L900.27,138.89L900.46,357.63L900.92,163.49L900.94,171.58L901.32,131.09L901.52,343.48L901.65,247.78L901.66,249.74L901.75,198.93L901.81,314.95L901.82,345.74L901.91,412.58L902.37,172.35L902.43,226.96L902.45,181.66L902.55,372.52L902.72,158.99L902.97,227.48L902.98,193.06L903.24,343.89L903.75,87.82L903.78,106.45L903.8,141.12L903.85,135.77L904.35,390.7L904.56,226.41L904.58,248.83L904.67,347.31L904.88,186.11L905.36,330.13L905.38,307.51L905.68,355.46L906.2,126.69L906.22,142.21L906.77,401.89L907.04,358.44L907.06,370.98L907.07,376.09L907.23,118.29L907.48,242.16L907.49,186.87L907.93,90.74L908.12,321.78L908.28,97.32L908.29,99.25L908.86,362.35L909.03,217.97L909.05,169.54L909.2,420.21L909.67,131.42L909.87,352.08L909.89,325.72L910.21,349.44L910.71,83.47L910.73,86.23L911.06,73.12L911.64,385.15L911.67,350.69L911.68,330.55L911.95,337.26L912.45,60.31L912.58,187.08L912.6,233.76L912.8,71.61L913.35,338.41L913.37,312.96L913.38,287.38L913.5,117.73L914.05,385.61L914.06,388.95L914.08,409.13L914.5,100.15L914.51,111.81L914.53,90.21L914.73,310.09L915.24,43.35L915.27,61.3L915.28,117.77L915.44,307.47L915.6,53.27L915.75,246.49L915.76,271.06L915.93,51.32L916.51,398.1L916.56,343.81L916.57,328L916.83,338.31L917.33,50.65L917.46,181.37L917.47,226.26L917.67,98.19L918.21,342.31L918.24,316.1L918.25,289.76L918.37,82.86L918.94,376.7L918.95,399.82L919.78,104.61L919.88,176.32L919.89,218.39L920.11,99.8L920.69,403.19L920.7,399.63L920.72,373.91L921.23,183.02L921.39,417.48L921.47,339.26L921.49,343.81L921.5,345.7L921.56,216.4L921.58,215L921.69,368.14L921.85,121.71L922.18,123L922.2,110.52L922.33,228.73L922.34,276.04L922.74,361.3L922.89,132.62L923.11,327.86L923.13,297.41L923.24,137.14L923.82,428.61L923.84,425.44L924.64,142.18L924.69,160.82L924.71,163.01L925,141.52L925.17,370.28L925.32,168.49L925.33,154.93L925.49,341.46L925.51,361.32L925.52,371.39L925.68,128.67L926.07,255.71L926.09,180.54L926.56,434.81L926.64,273.71L926.65,242.85L926.91,418.54L927.13,188.95L927.23,393.93L927.25,413.16L927.48,186.98L927.61,421.28L927.7,253.13L927.71,229.25L927.83,178.69L927.96,408.73L928.26,348.78L928.28,383.92L928.52,221.99L928.7,473.95L929.03,408.83L929.04,373.5L929.35,400.1L929.87,156.73L929.88,165.23L929.9,192.85L930.04,380L930.55,144.59L930.65,190.01L930.67,221.39L930.96,175.16L931.13,444.28L931.47,407.98L931.48,395.09L931.83,433.94L932.29,168.89L932.31,169.85L932.48,386.66L932.7,153.83L932.97,167.33L932.99,151.1L933.1,218.92L933.12,253.49L933.39,172.85L933.57,442.89L933.89,412.5L933.9,383.82L934.09,170.85L934.57,412.92L934.71,214.63L934.73,202.77L934.79,179.67L934.84,247.73L934.86,307.39L934.92,415.22L935.48,172.29L935.61,399.69L935.63,402.36L935.83,188.61L936,454.2L936.27,400.9L936.28,426.3L936.31,443.42L936.53,173.17L936.86,204.83L936.88,166.25L937.22,159.79L937.7,404.58L937.72,400.17L937.73,370.09L937.92,160.75L938.41,458.19L938.43,457.46L938.62,261.55L938.75,488.8L938.93,270.84L938.95,258.59L939.09,472.27L939.31,199.8L939.69,242.87L939.7,260.58L940.01,210.76L940.49,477.59L940.52,471.62L940.53,467.84L940.89,517.95L941.4,228.67L941.41,244.94L941.43,263.49L941.75,228.43L941.88,495.74L942.26,490.89L942.27,497.3L942.31,439.82L942.33,417.42L942.59,490.64L943.14,223.04L943.15,254.53L943.17,285.27L943.33,495.27L943.84,218.99L943.97,458.44L943.98,453.9L944.53,200.71L944.82,245.64L944.84,241.68L944.88,196.84L944.94,270.38L944.95,323.76L945.23,197.85L945.76,488.53L945.78,461.59L946.05,462.13L946.62,164.37L946.64,178.29L946.97,164.5L947.45,432.49L947.48,399.77L947.49,353.53L947.66,198.63L948.13,466.6L948.14,479.38L948.2,489.66L948.26,378.67L948.33,440.4L948.35,340.72L948.49,475.73L949.06,190.73L949.1,234.51L949.11,278.77L949.19,448.14L949.75,176.53L949.9,428.33L949.91,411.02L950.1,183.7L950.57,449.35L950.58,464.02L950.64,475.5L950.8,244.15L951,299.53L951.01,268.37L951.28,426.47L951.49,168.03L951.62,422.84L951.64,418.59L951.97,424.87L952.19,172.83L952.45,242.61L952.46,230.47L952.54,182.71L952.68,432.57L952.94,333.81L952.96,369.66L953.07,483.4L953.58,190.53L953.71,432.23L953.73,427.28L953.93,169.37L954.55,217.23L954.57,208.59L954.58,208.26L954.61,214.5L954.63,170.53L955.51,484.89L955.52,458.21L955.8,467.24L956.37,208.49L956.41,252.66L956.42,295.18L956.5,454.04L957.06,189.57L957.21,443.94L957.22,418.32L957.41,189.15L957.92,479.6L957.93,483.99L957.95,490.61L958.09,338.53L958.11,251.5L958.24,465.16L958.8,181.67L958.92,420.44L958.93,430.11L958.99,338.16L959.01,295.7L959.28,425.56L959.5,169.21L959.79,202.19L959.8,203.76L959.85,168.89L960.38,479.78L960.53,344.85L960.54,255.63L960.67,462.48L960.89,190.46L961.21,237.36L961.22,238.14L961.37,438.03L961.59,176.4L961.96,219.06L961.98,229.96L962.28,180.43L962.79,460.6L962.81,470.97L962.82,475.36L962.98,236.11L963.17,341.33L963.18,291.3L963.33,179.97L963.81,430.42L963.95,247.87L963.97,235.35L964.15,431.48L964.37,190.18L964.44,316.57L964.46,366.98L965.07,191.13L965.21,464.64L965.23,463.18L965.24,468.8L965.26,470.92L965.3,406.9L965.31,390.72L965.42,244.45L965.5,417.81L965.52,445.84L965.55,458.24L965.76,196.66L966.05,239.57L966.07,235.49L966.11,192.48L966.23,424.99L966.24,430.81L966.46,178.78L966.55,359.57L966.56,398.34L966.81,177.96L966.94,430.11L967.14,262.99L967.16,199.47L967.69,496.3L967.84,370.39L967.85,275.45L967.98,478.14L968.2,197.94L968.4,290.26L968.42,265.58L968.55,185.7L968.68,434.83L969.17,249.85L969.19,240.77L969.24,185.98L969.32,316.34L969.33,366.1L969.59,196.56L970.11,484.55L970.13,481.77L970.14,457.37L970.42,465.16L970.98,187.42L971.03,218.02L971.04,260.51L971.11,430.2L971.68,166.31L971.83,403.29L971.84,374.28L972.43,116.58L972.55,472.86L972.57,475.88L972.86,479.63L973.07,208.39L973.39,235.09L973.41,251.98L973.55,437.28L974.12,175.77L974.16,206.57L974.17,245.42L974.46,178.73L974.99,466.04L975,459.95L975.51,199.01L975.9,229.43L975.92,269.24L976.57,202.31L976.7,437.68L976.71,436.06L976.92,225.69L977.08,462.29L977.23,309.45L977.25,227.3L977.42,488.73L977.58,344.09L977.6,254.02L977.73,450.76L977.96,192.45L978.18,219.46L978.19,212.66L978.42,408.99L978.64,175.62L978.87,209.54L978.89,199.92L978.99,172.63L979.48,409.33L979.67,265.92L979.69,197.21L979.86,472.81L980.37,238.11L980.38,193.74L980.43,218.95L980.44,260.83L980.51,416.96L981.08,149.25L981.21,390.22L981.22,387.53L981.56,397.18L981.79,165L981.9,389.16L981.92,393.37L981.95,397.06L981.99,286.12L982.01,265.09L982.14,192.83L982.22,387.74L982.24,410.01L982.3,460.51L982.76,130.24L982.77,134.87L982.79,149.56L982.95,367.79L983.46,112.15L983.53,137.57L983.54,143.85L983.8,120.86L983.99,365.66L984.07,219.13L984.08,185.48L984.15,159.09L984.7,421.1L984.72,428.3L984.73,447.76L985.2,161.45L985.41,356.74L985.43,330.57L985.73,358.17L985.89,97.78L986.21,167.55L986.23,154.75L986.24,139.56L986.79,398.24L986.81,396.55L986.82,399.95L987.17,469.83L987.65,180.02L987.66,184.03L987.68,220.02L987.82,381.15L988.34,124.74L988.43,156.67L988.45,184.19L988.68,152.44L988.91,417.33L989.24,408.1L989.26,406.77L989.61,432.19L990.07,177.15L990.08,177.05L990.26,379.93L990.4,174.65L990.42,158.48L990.61,367.68L990.77,136.75L990.9,243.03L990.91,290.52L991.11,112.28L991.68,399.02L991.69,396.19L992.04,481.85L992.52,184.51L992.53,192.52L992.55,230.49L992.69,397.15L992.87,147.64L993.3,199.38L993.32,230.21L993.74,387.21L993.9,155.6L994.09,378.53L994.1,378.96L994.32,196.9L994.48,453.54L994.65,291.78L994.67,278.55L994.78,435.17L994.94,211.21L995,213.25L995.01,196.88L995.13,407.77L995.28,188.52L995.29,172.52L995.3,169.69L995.44,325.16L995.45,358.28L995.64,119.14L996.22,411.17L996.23,392.88L996.75,205.25L996.93,429.98L997,354.81L997.02,354.28L997.22,411.92L997.33,209.8L997.36,214.96L997.38,203.2L997.44,250.46L997.47,195.1L997.49,223.58L997.51,278.63L997.57,396.24L998.09,181.12L998.28,385.22L998.29,359.27L998.51,201.86L998.97,408.49L999.06,293.35L999.08,287.46L999.13,292.75L999.18,276.36L999.19,235.06L999.35,453.83L999.83,134.74L999.93,188.76L999.95,231.23L1000.02,353.18L1000.51,87.97L1000.71,323.11L1000.73,326.35L1001.21,181.66L1001.44,390.86L1001.47,342.02L1001.48,314.43L1001.79,430.96L1002.25,195.83L1002.29,227.16L1002.31,253.58L1002.79,412.76L1003.03,198.73L1003.06,232.23L1003.08,281.82L1003.14,405.42L1003.64,143.8L1003.83,351.37L1003.85,354.32L1004.08,210.37L1004.24,411.13L1004.47,307.41L1004.48,373.25L1004.53,403.27L1005.05,165.41L1005.11,217.43L1005.12,172.88L1005.22,380.84L1005.4,143.14L1005.63,271.65L1005.64,217.86L1005.75,112.92L1005.93,344.04L1006.31,333.27L1006.33,321.18L1006.51,184.65L1006.66,409.65L1007.12,188.63L1007.14,184.03L1007.27,319.27L1007.28,358.29L1007.31,391.57L1007.81,122.03L1007.82,110.24L1007.83,107.62L1007.95,224.8L1007.97,276.07L1008.18,106.95L1008.72,384.25L1008.73,380.32L1008.75,383.37L1009.1,471.25L1009.57,147.14L1009.6,181.73L1009.62,216.15L1009.63,216.54L1009.65,160.96L1009.75,360.25L1009.91,108.4L1010.05,245.96L1010.07,286.7L1010.11,328.43L1010.6,58.49L1010.82,288.86L1010.84,276.98L1010.95,66.33L1011.53,352.12L1011.58,308.55L1011.59,290.52L1011.85,301.84L1012.36,34.3L1012.49,165.4L1012.5,207.48L1012.9,266.85L1013.06,52.93L1013.26,245.02L1013.27,240.14L1013.39,86.38L1013.94,313.01L1013.95,321.84L1014.19,196.03L1014.68,440.27L1014.78,417.18L1014.8,416.73L1015.56,208.25L1015.61,271.33L1015.62,311.98L1015.91,207.17L1016.42,412.13L1016.43,392.48L1016.96,219.63L1017,343.78" style="vector-effect: non-scaling-stroke; fill: none; stroke: rgb(99, 110, 250); stroke-opacity: 1; stroke-width: 2px; opacity: 1;"/></g><g class="points"/><g class="text"/></g></g></g><g class="overplot"/><path class="xlines-above crisp" d="M102,664.5H1120" style="fill: none; stroke-width: 1px; stroke: rgb(255, 255, 255); stroke-opacity: 1;"/><path class="ylines-above crisp" d="M102.5,100V664" style="fill: none; stroke-width: 1px; stroke: rgb(255, 255, 255); stroke-opacity: 1;"/><g class="overlines-above"/><g class="xaxislayer-above"><g class="xtick"><text text-anchor="middle" x="0" y="696.2" transform="translate(103,0)" style="font-family: 'Open Sans', verdana, arial, sans-serif; font-size: 26px; fill: rgb(42, 63, 95); fill-opacity: 1; white-space: pre;">2011</text></g><g class="xtick"><text text-anchor="middle" x="0" y="696.2" transform="translate(230.04000000000002,0)" style="font-family: 'Open Sans', verdana, arial, sans-serif; font-size: 26px; fill: rgb(42, 63, 95); fill-opacity: 1; white-space: pre;">2012</text></g><g class="xtick"><text text-anchor="middle" x="0" y="696.2" transform="translate(357.43,0)" style="font-family: 'Open Sans', verdana, arial, sans-serif; font-size: 26px; fill: rgb(42, 63, 95); fill-opacity: 1; white-space: pre;">2013</text></g><g class="xtick"><text text-anchor="middle" x="0" y="696.2" transform="translate(484.47,0)" style="font-family: 'Open Sans', verdana, arial, sans-serif; font-size: 26px; fill: rgb(42, 63, 95); fill-opacity: 1; white-space: pre;">2014</text></g><g class="xtick"><text text-anchor="middle" x="0" y="696.2" transform="translate(611.51,0)" style="font-family: 'Open Sans', verdana, arial, sans-serif; font-size: 26px; fill: rgb(42, 63, 95); fill-opacity: 1; white-space: pre;">2015</text></g><g class="xtick"><text text-anchor="middle" x="0" y="696.2" transform="translate(738.55,0)" style="font-family: 'Open Sans', verdana, arial, sans-serif; font-size: 26px; fill: rgb(42, 63, 95); fill-opacity: 1; white-space: pre;">2016</text></g><g class="xtick"><text text-anchor="middle" x="0" y="696.2" transform="translate(865.93,0)" style="font-family: 'Open Sans', verdana, arial, sans-serif; font-size: 26px; fill: rgb(42, 63, 95); fill-opacity: 1; white-space: pre;">2017</text></g><g class="xtick"><text text-anchor="middle" x="0" y="696.2" transform="translate(992.97,0)" style="font-family: 'Open Sans', verdana, arial, sans-serif; font-size: 26px; fill: rgb(42, 63, 95); fill-opacity: 1; white-space: pre;">2018</text></g><g class="xtick"><text text-anchor="middle" x="0" y="696.2" transform="translate(1120.01,0)" style="font-family: 'Open Sans', verdana, arial, sans-serif; font-size: 26px; fill: rgb(42, 63, 95); fill-opacity: 1; white-space: pre;">2019</text></g></g><g class="yaxislayer-above"><g class="ytick"><text text-anchor="end" x="96.8" y="9.1" transform="translate(0,660.96)" style="font-family: 'Open Sans', verdana, arial, sans-serif; font-size: 26px; fill: rgb(42, 63, 95); fill-opacity: 1; white-space: pre;">20k</text></g><g class="ytick"><text text-anchor="end" x="96.8" y="9.1" transform="translate(0,574.65)" style="font-family: 'Open Sans', verdana, arial, sans-serif; font-size: 26px; fill: rgb(42, 63, 95); fill-opacity: 1; white-space: pre;">25k</text></g><g class="ytick"><text text-anchor="end" x="96.8" y="9.1" transform="translate(0,488.33)" style="font-family: 'Open Sans', verdana, arial, sans-serif; font-size: 26px; fill: rgb(42, 63, 95); fill-opacity: 1; white-space: pre;">30k</text></g><g class="ytick"><text text-anchor="end" x="96.8" y="9.1" transform="translate(0,402.01)" style="font-family: 'Open Sans', verdana, arial, sans-serif; font-size: 26px; fill: rgb(42, 63, 95); fill-opacity: 1; white-space: pre;">35k</text></g><g class="ytick"><text text-anchor="end" x="96.8" y="9.1" transform="translate(0,315.69)" style="font-family: 'Open Sans', verdana, arial, sans-serif; font-size: 26px; fill: rgb(42, 63, 95); fill-opacity: 1; white-space: pre;">40k</text></g><g class="ytick"><text text-anchor="end" x="96.8" y="9.1" transform="translate(0,229.37)" style="font-family: 'Open Sans', verdana, arial, sans-serif; font-size: 26px; fill: rgb(42, 63, 95); fill-opacity: 1; white-space: pre;">45k</text></g><g class="ytick"><text text-anchor="end" x="96.8" y="9.1" transform="translate(0,143.05)" style="font-family: 'Open Sans', verdana, arial, sans-serif; font-size: 26px; fill: rgb(42, 63, 95); fill-opacity: 1; white-space: pre;">50k</text></g></g><g class="overaxes-above"/></g></g><g class="polarlayer"/><g class="ternarylayer"/><g class="geolayer"/><g class="funnelarealayer"/><g class="pielayer"/><g class="treemaplayer"/><g class="sunburstlayer"/><g class="glimages"/><defs id="topdefs-643006"><g class="clips"/></defs><g class="layer-above"><g class="imagelayer"/><g class="shapelayer"/></g><g class="infolayer"><g class="g-gtitle"><text class="gtitle" x="60" y="50" text-anchor="start" dy="0em" style="font-family: 'Open Sans', verdana, arial, sans-serif; font-size: 36px; fill: rgb(42, 63, 95); opacity: 1; font-weight: normal; white-space: pre;">SouthEast Demand outliers fixed</text></g><g class="g-xtitle"><text class="xtitle" x="611.5" y="737.903125" text-anchor="middle" style="font-family: 'Open Sans', verdana, arial, sans-serif; font-size: 31px; fill: rgb(42, 63, 95); opacity: 1; font-weight: normal; white-space: pre;">Date</text></g><g class="g-ytitle" transform="translate(19.3564453125,0)"><text class="ytitle" transform="rotate(-90,11.643749999999997,382)" x="11.643749999999997" y="382" text-anchor="middle" style="font-family: 'Open Sans', verdana, arial, sans-serif; font-size: 31px; fill: rgb(42, 63, 95); opacity: 1; font-weight: normal; white-space: pre;">Demand</text></g></g></svg>