<svg class="main-svg" xmlns="http://www.w3.org/2000/svg" xmlns:xlink="http://www.w3.org/1999/xlink" width="1200" height="750" style="" viewBox="0 0 1200 750"><rect x="0" y="0" width="1200" height="750" style="fill: rgb(255, 255, 255); fill-opacity: 1;"/><defs id="defs-e0b3f9"><g class="clips"><clipPath id="clipe0b3f9xyplot" class="plotclip"><rect width="999" height="564"/></clipPath><clipPath class="axesclip" id="clipe0b3f9x"><rect x="121" y="0" width="999" height="750"/></clipPath><clipPath class="axesclip" id="clipe0b3f9y"><rect x="0" y="100" width="1200" height="564"/></clipPath><clipPath class="axesclip" id="clipe0b3f9xy"><rect x="121" y="100" width="999" height="564"/></clipPath></g><g class="gradients"/></defs><g class="bglayer"><rect class="bg" x="121" y="100" width="999" height="564" style="fill: rgb(229, 236, 246); fill-opacity: 1; stroke-width: 0;"/></g><g class="layer-below"><g class="imagelayer"/><g class="shapelayer"/></g><g class="cartesianlayer"><g class="subplot xy"><g class="layer-subplot"><g class="shapelayer"/><g class="imagelayer"/></g><g class="gridlayer"><g class="x"><path class="xgrid crisp" transform="translate(245.79000000000002,0)" d="M0,100v564" style="stroke: rgb(255, 255, 255); stroke-opacity: 1; stroke-width: 1px;"/><path class="xgrid crisp" transform="translate(370.91999999999996,0)" d="M0,100v564" style="stroke: rgb(255, 255, 255); stroke-opacity: 1; stroke-width: 1px;"/><path class="xgrid crisp" transform="translate(495.72,0)" d="M0,100v564" style="stroke: rgb(255, 255, 255); stroke-opacity: 1; stroke-width: 1px;"/><path class="xgrid crisp" transform="translate(620.51,0)" d="M0,100v564" style="stroke: rgb(255, 255, 255); stroke-opacity: 1; stroke-width: 1px;"/><path class="xgrid crisp" transform="translate(745.3,0)" d="M0,100v564" style="stroke: rgb(255, 255, 255); stroke-opacity: 1; stroke-width: 1px;"/><path class="xgrid crisp" transform="translate(870.43,0)" d="M0,100v564" style="stroke: rgb(255, 255, 255); stroke-opacity: 1; stroke-width: 1px;"/><path class="xgrid crisp" transform="translate(995.22,0)" d="M0,100v564" style="stroke: rgb(255, 255, 255); stroke-opacity: 1; stroke-width: 1px;"/></g><g class="y"><path class="ygrid crisp" transform="translate(0,604.1600000000001)" d="M121,0h999" style="stroke: rgb(255, 255, 255); stroke-opacity: 1; stroke-width: 1px;"/><path class="ygrid crisp" transform="translate(0,526.98)" d="M121,0h999" style="stroke: rgb(255, 255, 255); stroke-opacity: 1; stroke-width: 1px;"/><path class="ygrid crisp" transform="translate(0,449.81)" d="M121,0h999" style="stroke: rgb(255, 255, 255); stroke-opacity: 1; stroke-width: 1px;"/><path class="ygrid crisp" transform="translate(0,372.64)" d="M121,0h999" style="stroke: rgb(255, 255, 255); stroke-opacity: 1; stroke-width: 1px;"/><path class="ygrid crisp" transform="translate(0,295.47)" d="M121,0h999" style="stroke: rgb(255, 255, 255); stroke-opacity: 1; stroke-width: 1px;"/><path class="ygrid crisp" transform="translate(0,218.29000000000002)" d="M121,0h999" style="stroke: rgb(255, 255, 255); stroke-opacity: 1; stroke-width: 1px;"/><path class="ygrid crisp" transform="translate(0,141.12)" d="M121,0h999" style="stroke: rgb(255, 255, 255); stroke-opacity: 1; stroke-width: 1px;"/></g></g><g class="zerolinelayer"/><path class="xlines-below"/><path class="ylines-below"/><g class="overlines-below"/><g class="xaxislayer-below"/><g class="yaxislayer-below"/><g class="overaxes-below"/><g class="plot" transform="translate(121, 100)" clip-path="url('#clipe0b3f9xyplot')"><g class="scatterlayer mlayer"><g class="trace scatter trace7d161c" style="stroke-miterlimit: 2; opacity: 1;"><g class="fills"/><g class="errorbars"/><g class="lines"><path class="js-line" d="M0,446.05L0.21,532.67L0.63,413.02L0.78,519.28L0.8,500.8L0.97,413.93L1.47,521.38L1.55,450.99L1.57,427.75L1.65,406.32L2.15,512.04L2.31,439.86L2.32,428.82L2.68,407.67L2.85,529.74L2.95,503.5L2.96,523.78L3.7,400.38L3.76,425.66L3.78,444.87L4.2,496.74L4.39,401.5L4.54,489.39L4.56,475.79L4.73,398.1L5.26,520.04L5.29,514.28L5.3,513.54L5.38,514.63L6.03,409.39L6.14,417.31L6.15,435.19L6.44,407.67L6.94,491.7L6.95,482.97L6.97,457.84L7.46,409.48L7.64,535.69L7.66,523.9L7.68,519.14L7.81,409.75L8.5,440.07L8.52,442.91L8.65,520.08L9.1,413.44L9.3,484.91L9.32,484.76L9.87,412.64L10.03,522.07L10.07,507.56L10.09,503.75L10.17,535.41L10.47,413.61L10.66,474.93L10.67,480.37L10.7,493.15L10.88,411.53L11.31,472.45L11.33,475.45L11.38,494.76L11.5,412.17L11.55,437.83L11.57,403.72L12.25,395.96L12.42,530.18L12.45,519.69L12.46,507.29L13.21,389.2L13.33,416L13.35,438.57L13.62,392.04L14.12,482.87L14.13,469.22L14.64,385.8L14.84,522.68L14.86,508.68L14.99,386L15.4,455.38L15.41,465.61L16.03,411.48L16.17,497.89L16.18,481.43L16.2,446.81L16.35,410.94L16.87,501.33L16.91,470.95L16.92,476.92L17.04,406.09L17.19,531.66L17.55,449.84L17.56,441.52L17.84,488.46L18.32,386.01L18.35,402.23L18.36,417.83L18.43,382.08L18.52,472.34L18.83,455.83L18.85,464.94L19.07,390.95L19.62,518.63L19.67,511.43L19.69,510.23L19.7,511.66L19.76,427.44L19.94,458.51L19.96,438.38L20.26,503.69L20.73,402.82L20.74,411.92L21.05,399L21.28,504.31L21.47,400.02L21.48,403.91L21.82,391.06L21.98,520.1L22.14,452.48L22.15,411L22.66,527.96L22.81,510.72L22.82,466.35L22.99,523.5L23.45,394.85L23.58,442.06L23.59,472.55L23.68,533.67L24.2,385.61L24.33,476.84L24.35,482.91L24.37,523.91L24.89,377.74L25.07,418.76L25.09,404.57L25.16,383.6L25.37,501.31L25.39,514.47L25.91,378.25L26.17,394.36L26.18,382.16L26.25,363.83L26.41,499.48L26.58,393.33L26.6,362.18L26.77,520.28L27.41,448.48L27.42,446.25L27.55,371.53L28.12,480.14L28.14,477.29L28.15,424.6L28.46,467.22L28.65,367.79L28.89,436.22L28.9,438.29L28.99,370.6L29.16,514.04L29.43,455.14L29.45,461.68L29.49,472.93L29.67,367.01L29.99,402.56L30,381.95L30.47,474.61L30.63,363.32L30.74,378.07L30.76,396.62L31.4,344.54L31.54,500.81L31.55,508.9L32.08,367.14L32.45,371.18L32.47,395.23L32.91,475.43L33.02,357.84L33.23,460.64L33.25,467.45L33.62,527.09L33.78,362.48L33.98,501.76L33.99,498.34L34.46,360.43L34.84,384.13L34.86,400.66L34.96,463.4L35.14,355.27L35.63,456.13L35.64,451.71L35.83,368.64L35.98,484.21L36.28,457.6L36.3,465.55L36.44,520.81L36.51,372.97L36.82,400.1L36.84,375.44L37.01,484.24L37.25,363.86L37.49,398.44L37.51,412.7L37.54,378.24L38.05,511.05L38.26,406.52L38.28,421.68L38.73,516.87L38.9,373.14L39.03,457.88L39.05,457.79L39.06,471.19L39.25,360.41L39.76,439.33L39.77,408.17L40.22,367.09L40.43,458.33L40.56,379.5L40.57,388.99L40.97,355.65L41.13,493.32L41.28,390.35L41.3,376.4L41.68,362.71L41.8,467.1L41.95,386.1L41.97,359.64L41.98,356.05L42.14,458.9L42.47,444.99L42.48,452L43.01,361.68L43.16,460.66L43.22,445.8L43.24,446.52L43.35,358.08L43.52,499.73L43.86,450.3L43.88,414.3L44.05,358.28L44.19,461.87L44.63,399.3L44.65,381.79L44.72,372.87L44.87,462.64L45.19,448.9L45.2,455.88L45.22,466.24L45.74,348.59L45.76,353.77L45.91,475.98L46.58,442.17L46.6,432.29L46.7,365.13L46.92,465.6L47.35,412.93L47.37,400.7L47.79,363.34L47.96,466.79L48.09,437.84L48.11,433.13L48.32,509.53L48.82,360.81L48.86,373.37L48.88,398.45L48.98,479.5L49.43,354.05L49.66,446.78L49.67,438.52L50.13,362.41L50.34,461.25L50.42,426.89L50.43,433.13L50.53,357.45L50.7,507.34L50.97,437.19L50.98,439.9L51.03,453.56L51.48,353.7L51.61,384.05L51.63,413.88L52.24,354.35L52.4,451.09L52.41,442.32L52.58,349.08L53.09,501.79L53.14,485.02L53.15,485.09L53.53,354.45L53.76,493.07L53.96,395.63L53.98,396.32L54.1,492.59L54.29,349.95L54.69,417L54.7,434.68L54.92,355.97L55.13,486.86L55.3,374.4L55.32,346.82L55.49,502.43L56.13,465.57L56.14,466.37L56.16,483.1L56.68,350.05L56.85,462.65L56.87,424.79L57.05,360.79L57.18,474.34L57.61,436.2L57.62,437.57L57.64,438.56L57.68,435.3L57.69,370.36L57.71,349.41L57.92,490.83L58.42,375.32L58.44,376.17L58.68,363.46L59.23,496.8L59.25,510.03L59.76,382.25L60.05,451.41L60.06,463.6L60.1,365L60.27,508.64L60.81,385.37L60.83,389.29L61.06,385.18L61.58,480.51L61.61,475.2L61.63,493.79L62.14,397.66L62.38,454.78L62.4,464.07L62.5,379.84L62.67,515.51L62.97,473.44L62.98,475.43L63.12,387.85L63.68,501.94L63.71,446.05L63.72,424.61L64.02,496.09L64.13,376.41L64.48,389.79L64.49,418.78L64.55,387.95L65.06,516.14L65.17,494.09L65.19,496.13L65.57,390.64L65.96,398.74L65.97,416.1L66.07,491.36L66.54,385.37L66.75,478.85L66.77,469.05L67.28,381.76L67.45,511.28L67.51,484.37L67.52,484.76L67.54,486.51L67.6,469.54L67.61,418.8L68.12,489.92L68.25,383.57L68.36,410.18L68.38,426.76L68.58,389.95L69.15,489.18L69.16,478.91L69.18,433.4L69.68,373.89L69.83,520.91L69.85,513.79L70.7,381.06L70.74,388.04L70.76,402.56L70.97,382.44L71.54,484.72L71.56,478.96L72.07,351.08L72.24,497.63L72.31,464.46L72.32,475.51L72.37,482.07L73.02,370.68L73.12,382.63L73.14,386.05L73.38,354.52L73.59,481.83L73.91,428.93L73.92,435.04L74.46,353.57L74.65,499.2L74.69,478.62L74.7,467.18L74.73,490.24L75.09,355.05L75.34,400.64L75.36,392.81L75.39,399.4L75.4,375.57L75.42,353.17L75.43,351.12L75.63,457.69L75.64,475.8L75.99,482.42L76.1,366.11L76.3,463.03L76.31,469.57L76.44,369.72L77.04,528.77L77.08,491.91L77.1,491.27L77.35,496.77L77.88,368.51L77.94,402.68L77.95,419.22L78.17,351.6L78.72,483.24L78.74,465.59L78.75,411.61L78.85,351.93L79.43,506.82L79.45,502.73L79.46,503.57L79.86,343.65L80.07,449.28L80.09,465.22L80.56,342.1L80.77,472.35L80.9,358.4L80.91,378.82L81.24,353.53L81.46,479.41L81.64,363.76L81.66,368.1L81.81,489.39L82.27,332.82L82.5,456.4L82.51,413.88L82.6,332.49L82.82,473.88L83.28,367.76L83.29,371.37L83.51,479.9L83.69,363.2L84.01,443.93L84.02,389.74L84.23,512.52L84.72,354.09L84.76,367.63L84.78,379.71L85,350.12L85.23,476.24L85.56,474.17L85.57,464.23L85.74,354.38L86.24,471.29L86.34,417.95L86.36,413.41L86.43,331.93L86.61,484.87L87.01,384.4L87.03,383.85L87.05,334.15L87.61,476.48L87.78,360.18L87.8,348.12L87.95,473.19L88.07,343.73L88.65,459L88.66,434.86L88.82,348.79L88.99,501.09L89.45,375.1L89.46,407.94L89.66,475.87L90.12,338.08L90.22,362.66L90.23,366.9L90.46,320.9L91.03,477.45L91.04,470.64L91.06,449.59L91.21,353.53L91.4,496.74L91.86,372.54L91.87,396.53L92.4,470.39L92.53,333.37L92.62,347.82L92.64,368.59L92.74,475.38L92.85,330.93L93.41,450.8L93.42,478.65L93.61,349.03L93.78,503.64L94.08,453.58L94.09,460.2L94.23,357.18L94.79,483.27L94.8,462.95L94.82,426.87L95.13,484.5L95.6,338.88L95.62,375.57L96,354.97L96.17,484.86L96.36,369.65L96.37,369.64L96.5,476.02L96.68,361.73L96.88,385.25L96.9,378.08L96.96,350.26L97.18,468.03L97.62,369.33L97.64,353.33L97.65,346.45L98.21,468.35L98.27,418.39L98.28,432.26L98.39,350.87L98.55,447.84L98.57,474.32L98.61,487.16L98.78,363.85L99.26,446.26L99.28,407.83L99.36,354.44L99.59,475.88L100,420.98L100.02,433.35L100.27,503.61L100.46,392.7L100.6,469.52L100.62,494.01L100.96,502.14L101.49,364.1L101.54,379.67L101.56,401.74L101.76,348.86L101.98,487.24L102.34,445.71L102.35,403.83L102.44,340.16L102.67,480.52L103.08,424.8L103.1,427.94L103.2,368.87L103.35,502.04L103.78,409.36L103.79,386.93L104.15,355.46L104.39,485.78L104.41,480.29L104.42,483.89L104.68,500.21L104.85,364.24L105.08,459.36L105.09,417.32L105.59,356L105.77,499.56L105.8,493.93L105.82,486.69L106.27,363.99L106.4,453.24L106.41,467.08L106.77,488.63L106.96,370.95L107.13,466.05L107.14,430L107.28,348L107.45,491.15L107.78,447.99L107.8,471.31L107.98,374.19L108.17,508.46L108.55,423.69L108.57,460.34L108.82,499.54L109.28,360.42L109.33,375.81L109.35,369.96L109.38,354.95L109.85,485.38L110.06,384.4L110.08,392.66L110.37,368.9L110.55,502.06L110.87,487.99L110.89,465.6L111.33,357.73L111.56,484.95L111.64,410.01L111.66,379.9L112.04,344.23L112.24,486.06L112.38,409.32L112.4,420.47L112.43,381.56L112.97,515.64L113.15,406.86L113.17,423.19L113.27,490.74L113.72,343.76L113.92,438.26L113.94,445.42L114.06,348.74L114.63,481.48L114.66,408.59L114.68,390.44L114.82,357.26L114.98,485.25L115.3,476.15L115.32,511.99L115.85,361.87L115.97,448.2L115.99,461.15L116.46,341.95L116.69,488.45L116.71,441.72L116.73,426.83L116.76,426.62L116.77,430.23L116.79,413.6L117.14,356.38L117.37,482.33L117.51,424.11L117.53,432.29L117.73,488.06L118.17,348.45L118.28,365.28L118.3,383.81L118.92,338.1L119.08,464.41L119.09,454.06L119.19,356.69L119.42,481.87L119.83,428.31L119.85,436.48L119.95,351.37L120.09,472.87L120.1,499.49L120.12,500.24L120.18,480.51L120.19,473.95L120.45,491.21L120.63,360.35L120.77,452.96L120.79,477.41L120.9,355.09L121.47,481.8L121.57,386.85L121.59,369.11L121.66,361.41L121.77,440.53L121.79,457.62L121.81,480.92L121.83,457.21L121.84,411.31L122.01,368.83L122.58,506.17L122.65,483.74L122.67,433.04L122.84,493.19L123.37,370.62L123.42,406.89L123.44,422.85L123.52,503.7L124.05,358.29L124.21,473.55L124.22,451.74L124.39,367.84L124.92,498.88L124.93,492.91L124.95,488.12L124.96,522.19L125.45,375.32L125.67,397.55L125.69,376.88L125.76,365.63L125.92,495.63L126.24,452.63L126.26,478.68L126.71,377.16L126.94,485.37L127.01,435.9L127.03,446.95L127.13,367.35L127.3,503.95L127.81,391.43L127.83,404.01L128.15,371.34L128.31,477.54L128.55,412.24L128.57,437.99L129.11,365.07L129.34,488.49L129.35,486.48L129.52,359.21L129.69,499.24L130.1,445.76L130.12,436.63L130.32,491.5L130.49,367.33L130.9,378.66L130.92,380.19L131.57,375.73L131.73,479.36L131.74,471.26L131.76,452.62L131.91,378.36L132.18,528.87L132.54,397.36L132.56,410.38L133.1,466.72L133.21,363.17L133.27,398.17L133.28,366.96L133.55,363.39L133.78,457.01L133.95,397.58L133.97,359.73L134.31,355.48L134.48,519.64L134.81,482.44L134.82,457.61L135.15,459.9L135.26,356.94L135.58,404.69L135.59,385.66L135.83,470.08L136.29,342.37L136.33,396.28L136.34,401.49L136.36,356.13L136.87,490.79L137.09,380L137.1,390.25L137.31,348.53L137.88,457.36L137.9,448.45L137.91,406.23L138.57,453.04L138.69,353.6L138.71,369.44L138.75,354.11L139.26,483.74L139.46,383.23L139.48,391.85L139.78,371.79L139.93,461.34L140.25,454.81L140.26,449.94L140.62,480.02L140.8,378L140.97,463.59L140.99,434.26L141.15,383.45L141.66,490.33L141.7,485.91L141.72,484.44L141.83,383.68L142.27,461.79L142.28,465.54L142.34,502.83L142.53,399.39L142.75,404.91L142.77,386.74L143.01,454.78L143.2,363.36L143.51,399.95L143.52,387.81L143.54,356.95L144.04,482.06L144.25,377.58L144.27,395.44L144.89,336.66L145.03,451.86L145.05,444.61L145.06,423.65L145.16,330.03L145.39,453.79L145.83,367.64L145.85,353.67L146.27,353.35L146.43,498.56L146.59,404L146.6,365.03L146.63,363.86L146.64,367.83L146.66,378.39L146.76,471.92L146.94,350.34L147.44,435.07L147.46,419.95L147.63,362.02L148.13,460.34L148.21,394.26L148.23,374.04L148.65,339.47L148.82,500.36L148.89,476.36L148.91,472.05L149.28,347.22L149.71,372.57L149.72,376.43L150.18,472.54L150.31,356.63L150.52,452.34L150.53,442.48L151.05,358.61L151.23,487.27L151.26,470.67L151.27,478.98L151.73,358.78L152.11,374.02L152.13,394.96L152.7,352.11L152.91,470.61L152.93,459.59L153.44,363.32L153.61,485.14L153.68,448.38L153.7,444.35L153.72,452.16L153.77,390.06L153.78,363.2L153.94,453.51L154.12,346.91L154.37,388.37L154.38,376.53L154.49,346.3L154.96,450.77L155.11,373.15L155.12,400.7L155.65,447.16L155.83,344.15L155.88,363.96L155.89,381.73L156,469.66L156.17,347.1L156.67,441.96L156.69,433.27L156.79,344.19L157.01,454.96L157.44,408.41L157.46,381.43L157.71,470.71L157.9,369.4L158.15,415.96L158.17,422.15L158.23,351.79L158.43,475L158.82,394.59L158.84,380.27L159.07,454.38L159.25,353.7L159.44,385.03L159.45,366.03L159.75,443.98L159.86,341.42L160.05,412L160.06,419.61L160.28,340.69L160.43,443.43L160.59,413.77L160.6,363.44L160.62,336.55L160.8,465.04L161.33,368.11L161.35,381.3L161.46,439L161.93,328.34L162.11,418.37L162.13,422.04L162.6,331.72L162.84,448.31L162.88,429.3L162.9,428.13L163.01,356.45L163.21,506.54L163.54,394.37L163.55,372.37L163.85,441.54L163.97,332.72L164.14,417.12L164.15,423.57L164.32,339.93L164.54,451.54L164.65,355.93L164.66,353.64L164.88,451.43L164.99,343.1L165.38,410.93L165.39,349.87L165.41,332.35L165.58,488.41L166.12,361.28L166.13,360.55L166.26,491.29L166.7,340.83L166.94,448.19L166.96,397.32L167.04,340.42L167.27,482.96L167.7,416.47L167.71,414.08L167.8,340.93L167.94,436.63L167.96,471.71L167.97,486.77L168.41,340.48L168.65,433.65L168.67,391.91L168.98,482.82L169.44,339.02L169.45,336.89L170.01,474.85L170.18,347.45L170.19,330.16L170.36,492.69L170.86,343.94L170.88,335.18L171.37,481.09L171.55,373.03L171.56,357.82L171.72,489.85L172.21,407.49L172.23,375.57L172.24,369.58L172.74,504.09L172.76,512.75L173.27,358.03L173.65,392.54L173.67,417.83L173.77,491.36L173.95,353.56L174.45,482.29L174.47,470.23L174.98,340.3L175.15,508.17L175.21,481.63L175.22,479.94L175.82,488.24L175.95,343.67L176.05,374.35L176.06,406.16L176.63,333.66L176.84,485.05L176.86,468.17L176.96,354.57L177.54,528.2L177.6,509L177.61,496.56L177.87,499.25L177.98,352.08L178.17,460.12L178.18,467.06L178.21,490.62L178.31,357.99L178.33,340.92L178.34,338.65L178.53,462.05L178.54,461.65L178.55,485.01L178.67,363.62L178.91,491.87L179.35,367.14L179.37,370.3L179.42,366.51L179.94,512.42L180.14,407.25L180.15,415.51L180.26,497.3L180.79,368.65L180.95,494.13L180.96,478.05L181.06,379.63L181.63,508.6L181.75,380.08L181.76,382.33L182.16,364.89L182.33,522.52L182.51,405.47L182.53,408.43L182.66,498.85L182.79,378.04L183.18,381.8L183.2,389.63L183.21,388.87L183.24,423.55L183.26,442.17L183.68,503.59L183.81,372.66L184.02,491.2L184.04,480.61L184.55,383.5L184.74,533.99L184.78,522.64L184.79,514.63L185.24,405.82L185.38,499.18L185.39,523.75L185.92,389.02L186.2,414.31L186.22,421.62L186.42,512.16L186.6,391.57L186.93,408.46L186.94,385.36L187.12,528.15L187.8,493.78L187.81,453.76L188.13,504.67L188.31,385.07L188.61,404.4L188.63,424.04L188.81,513.41L189.34,374.61L189.38,410.86L189.4,428.96L189.52,515.39L189.95,392.43L190.18,493.71L190.19,482.37L190.65,366.87L190.86,495.31L190.98,372.76L190.99,392.27L191.2,488.36L191.32,376.58L191.53,462.94L191.55,485.56L191.73,376.32L191.94,517.05L192.04,485.32L192.06,423.28L192.23,494.89L192.69,371.54L192.81,416.03L192.83,438.56L192.91,500.29L193.1,368.51L193.61,480.28L193.63,441.53L193.78,377.83L194.3,520.32L194.34,512.74L194.35,511.14L194.37,516.01L194.47,396.24L194.71,422.78L194.72,405.68L194.75,379.54L195.31,489.88L195.45,408L195.46,430.76L195.78,385.18L195.99,496.68L196.22,403.02L196.23,418.86L196.72,521.21L196.86,380.55L197.03,505.88L197.04,467.48L197.36,498.3L197.54,371.42L197.84,386.5L197.86,415.68L198.04,491.81L198.23,366.55L198.61,390.28L198.63,404.98L198.91,377.24L199.08,514.42L199.41,490.06L199.42,476.13L199.75,484.4L199.88,361.24L200.21,373.19L200.22,374.16L200.44,488.48L200.62,372.83L200.95,390.18L200.96,369.65L201.5,504.86L201.82,473.37L201.83,427.13L201.93,363.91L202.49,480.4L202.56,439.24L202.57,445.63L202.83,479.49L202.96,358.41L203.37,377.82L203.38,376.48L203.51,485.52L203.68,399.57L203.7,371.09L203.88,502.8L204.32,366.84L204.47,438.03L204.48,445.61L204.54,484.3L204.67,363.82L204.98,388.21L204.99,366.08L205.14,422.32L205.15,434.54L205.69,361.81L205.91,491.26L205.93,464.5L205.95,447.77L206.28,505.78L206.7,358.55L206.73,381.1L206.75,412.5L206.93,474.76L207.39,332.9L207.5,372.68L207.52,388.22L207.74,345.07L208.3,475.45L208.31,470.03L208.66,523.31L209.11,343.04L209.13,359.4L209.14,391.86L209.45,336.95L209.67,476.24L209.89,354.17L209.91,377.56L210.12,343L210.69,480.21L210.71,477.7L211.05,496.43L211.5,351.47L211.52,369.27L211.72,469.2L212.19,350.41L212.26,363.66L212.27,360.03L212.4,465.92L212.52,339.84L212.73,425.86L212.74,455.78L212.86,334.9L213.41,437.93L213.43,471.24L213.47,480.42L213.9,352.57L214.13,454.8L214.14,410.01L214.57,338.77L214.79,474.38L214.92,353.91L214.94,372.08L215.32,354.54L215.62,514.26L215.69,374.59L215.71,380.69L215.83,492.38L216.28,346.29L216.5,481.9L216.52,455.77L216.85,463.54L216.96,337.38L217.29,350.01L217.3,338.44L217.87,466.5L218.04,383.49L218.06,365.35L218.23,487.96L218.68,362.92L218.91,452.82L218.93,406.17L219.01,349.55L219.58,472.97L219.71,369.52L219.72,380.58L219.92,467.24L220.15,358.9L220.44,381.52L220.45,360.36L220.51,376.4L220.52,394.77L220.64,491.94L221.15,350.33L221.16,340.35L221.22,395.8L221.23,406.14L221.5,353.36L221.63,474.13L221.8,378.62L221.82,373.38L221.97,486.93L222.19,370.45L222.2,370.2L222.84,362.86L223.03,488.04L223.06,486.01L223.07,487.94L223.09,488.91L223.16,466.44L223.17,399.75L223.68,480.56L223.87,358.54L223.93,374.13L223.94,407.52L224.03,479.91L224.48,350.02L224.72,436.74L224.74,395.74L224.82,342.48L225.42,485.32L225.44,483.97L226.32,353.52L226.33,375.71L226.89,344.65L227.07,487.5L227.13,456.27L227.15,409.6L227.23,355.62L227.82,512.07L227.84,504.97L227.86,502.77L228.14,504.21L228.6,350.56L228.73,384.7L228.74,409.28L228.94,356.52L229.52,497.53L229.57,482.4L229.58,481.94L229.62,461.67L229.67,480.66L229.68,414.06L230.19,510.38L230.38,366.55L230.44,394.42L230.45,413.81L230.54,493.91L230.99,341.79L231.23,458.03L231.25,408.98L231.33,350.81L231.56,483.28L232.02,356.95L232.03,359.84L232.6,507.23L232.79,386.36L232.8,391.03L232.93,503.89L233.06,374.18L233.3,425.73L233.31,400.97L233.39,376.86L233.6,461.58L233.61,486.95L233.96,493.62L234.41,360.89L234.43,368.25L234.44,391.33L234.84,360.9L235,497.49L235.18,381.65L235.19,374.86L235.32,487.31L235.44,351.94L236.01,481.9L236.02,454.07L236.35,493.64L236.8,344.29L236.82,359.55L237.42,499.42L237.57,394.71L237.59,394.51L237.72,507.55L237.83,360.04L238.26,387.66L238.27,386.06L238.39,467.57L238.4,489.47L238.51,374.9L239.08,502.64L239.15,440.83L239.17,452.17L239.61,391.69L239.8,532.68L239.88,493.79L239.9,498.69L239.95,401.08L240.11,502.79L240.42,489.74L240.44,492.37L240.45,512.89L240.91,376.65L241.15,470.42L241.16,430.79L241.25,374.13L241.48,479.79L241.76,454.16L241.78,463.57L242,383.49L242.16,505.76L242.52,468.97L242.53,427.01L242.96,362.67L243.19,486.97L243.31,372.35L243.33,394.65L243.53,489.13L244.06,372.18L244.07,378.18L244.08,379.14L244.21,470.29L244.4,363.75L244.51,451.83L244.53,459.59L244.9,498.71L245.08,384.58L245.25,470.27L245.27,430.13L245.71,358.83L245.92,485.8L246.05,385.54L246.06,402.39L246.11,386.17L246.61,493.87L246.78,406.14L246.79,369.22L247.7,531.01L247.72,535.8L248.16,387.04L248.56,427.29L248.57,448.95L248.66,506.04L248.87,394.4L249.17,439.04L249.18,395.99L249.7,529.08L249.85,454.39L249.87,414.55L250.04,534.82L250.45,453.79L250.47,441.3L250.71,501.76L251.24,399.3L251.25,404.04L251.39,507.04L251.58,386.64L251.9,453.94L251.92,403.7L252.08,490.62L252.19,371.99L252.65,392.25L252.66,412.19L252.87,396.25L253.44,496.53L253.46,482.53L253.97,391.02L254.14,527.91L254.2,503.58L254.21,503.55L254.28,503.75L254.3,463.84L254.31,406.45L254.33,403.58L254.45,487.6L254.47,509.89L254.92,390.53L255.25,414L255.27,393.51L255.49,503.29L255.61,379.97L256.01,430.33L256.02,397.62L256.05,396.06L256.11,438.72L256.12,447.82L256.18,481.14L256.35,416.99L256.36,371.53L256.53,527.95L256.89,419.74L256.9,396.93L256.99,359.99L257.2,465.11L257.53,446.85L257.55,470.57L257.66,364.98L258.23,476.4L258.34,386.68L258.36,392.53L258.76,367.75L258.93,510.62L259.1,380.24L259.11,378.66L259.13,378.32L259.14,383.87L259.16,397.97L259.26,468.08L259.37,357.54L259.94,458.71L259.95,445.4L260.62,456.62L260.74,355.63L260.75,371.63L261.15,368.96L261.32,510.97L261.49,382.33L261.51,378.48L261.65,474.36L261.76,361.35L261.85,371.64L261.86,368.8L261.91,406.42L261.92,417.24L262.56,368.62L262.67,470.54L262.69,456.95L262.7,425.25L263.13,369.61L263.36,468.85L263.44,427.84L263.46,419.43L263.51,446.7L263.53,413.42L263.54,375.21L263.71,487.96L264.28,410.22L264.3,425.17L264.4,490.34L264.6,399.67L265.07,489.01L265.08,462.61L265.41,464.98L265.54,363.28L265.85,426.96L265.87,429.14L265.95,371.31L266.09,507.06L266.46,391.79L266.48,368.37L266.49,346.16L267.1,476.74L267.23,364.95L267.25,374.34L267.45,486.56L267.92,325.14L267.99,359.8L268,355.17L268.02,354.18L268.03,378.73L268.04,395.93L268.32,346.09L268.49,493.07L268.83,467.86L268.84,417.79L269.16,474.8L269.28,338.29L269.63,347.24L269.64,375.81L269.84,446.7L270.07,347.9L270.38,364.28L270.4,360.17L270.52,465.37L270.69,393.97L270.71,353.53L270.88,496.57L271.32,346.96L271.39,357.14L271.41,357.43L271.55,432.95L271.76,321.42L272.13,341.6L272.15,373.94L272.23,451.33L272.69,341.79L272.8,344.3L272.82,326.46L273.27,496.35L273.61,456.39L273.63,400.08L273.94,437.62L274.07,321.06L274.4,325.85L274.41,335.92L274.44,367.39L274.51,326.06L274.54,362.73L274.56,385.95L274.74,329.9L275.31,477.89L275.34,431.48L275.35,416.09L275.52,317.53L275.67,478.93L275.99,430.71L276.01,425.54L276.19,326.21L276.69,463.13L276.76,398.93L276.78,384.88L277.02,448.63L277.49,332.49L277.55,338.25L277.56,340.76L277.65,404.27L277.66,411L277.89,329.91L278.07,489.18L278.4,436.75L278.42,399.77L278.73,449.28L278.84,330.48L279.18,345.23L279.2,340.4L279.64,336.87L279.77,490.52L279.97,372.28L279.98,374.25L280.28,361.49L280.45,526.88L280.75,440.46L280.77,440.41L280.78,462.43L280.97,331.44L281.49,385.82L281.51,365.34L281.59,328.62L282.15,445.81L282.26,344.64L282.28,350.42L282.68,337.65L282.85,476.34L283.03,362.16L283.05,364.54L283.63,336.78L283.86,458.76L283.87,449.48L283.89,406.58L284.54,463.78L284.66,336.99L284.67,341.23L284.68,353.35L285.07,330.79L285.24,491.39L285.42,350.26L285.44,348.92L285.57,440.83L285.68,315.55L286.11,353.04L286.12,345.9L286.25,443.34L286.42,355.4L286.44,350.62L286.48,338.03L286.93,451.98L287.16,354.7L287.18,370.45L287.46,350.22L287.63,493.16L287.96,474.35L287.97,448.55L288.3,451.71L288.52,337.93L288.76,338.84L288.77,340.29L288.99,463.53L289.1,328.61L289.5,364.87L289.51,359.18L289.56,356.36L289.68,447.17L289.84,361.37L289.85,332.55L290.03,503.05L290.44,358.72L290.45,347.94L290.7,444.48L290.78,309.34L291.02,433.18L291.04,483.16L291.05,501.3L291.51,333.31L291.75,414.03L291.76,370.65L291.85,336.24L292.06,468.15L292.39,440.04L292.4,492.68L292.42,502.8L292.85,347.68L292.86,329.91L292.87,322.64L293.09,446.18L293.57,356.75L293.59,370.24L293.62,339.97L294.11,453.41L294.34,366.08L294.36,383.44L294.64,346.23L294.81,510.51L295.11,417.55L295.13,413.42L295.14,415.13L295.37,333.69L295.57,370.81L295.58,349.72L295.61,332.28L296.19,457.34L296.22,416.06L296.24,431.87L296.25,460.13L296.39,320.22L296.98,406.34L296.99,423.5L297.02,367.08L297.03,346.69L297.21,512.09L297.56,406.31L297.58,386.02L298,343.97L298.22,459.01L298.33,368.81L298.35,377.88L298.56,456.28L298.67,342.91L298.93,391.23L298.94,375.51L299.24,463.06L299.43,348.33L299.53,427.3L299.54,436.45L299.6,498.25L300.01,371.87L300.03,355.56L300.27,471.82L300.38,333.65L300.6,436.54L300.61,460.01L300.74,329.37L300.95,460.22L301.41,344.83L301.42,350.12L301.82,326.94L301.94,535.25L302.15,380.52L302.16,341.48L302.45,336.4L302.66,491L303.02,479.01L303.03,437.15L303.69,495.65L303.8,364.84L303.82,371.59L303.83,393.99L304.21,353.74L304.39,507.18L304.57,384.04L304.58,382.94L304.71,492.84L304.83,360.11L305.25,396.4L305.27,394.51L305.4,497.78L305.53,377.45L305.82,406.66L305.84,382.9L305.85,361.61L306.42,490.21L306.56,433.46L306.58,437.71L306.78,508.42L307.23,355.81L307.33,378.92L307.35,401.01L307.45,491.36L307.9,364.09L308.13,488.25L308.15,475.66L308.64,360.66L308.83,486.94L308.9,460.06L308.92,451.59L309.17,514.96L309.61,366.78L309.73,387.87L309.74,409.06L309.84,497.02L310.3,369.83L310.54,474.65L310.55,431.94L310.64,361.76L311.22,490.82L311.25,466.55L311.27,458.62L311.32,449.19L311.35,467.58L311.37,475.2L311.39,387.2L311.57,510.79L312.12,416.06L312.13,428.77L312.69,392.81L312.92,504.24L312.93,490.87L312.95,450.56L313.37,376.89L313.6,495.55L313.7,437.68L313.72,429.24L313.79,355.94L313.97,523.43L314.39,372.38L314.4,349.19L314.53,391.56L314.73,235.76L314.74,211.43L314.97,352.54L315.18,227.44L315.2,216.45L315.5,199.55L315.65,383.89L316.02,341.91L316.04,327.63L316.35,414.41L316.79,230.59L316.82,249.81L316.84,298.75L317.02,369.87L317.48,234.41L317.61,252.81L317.62,285.95L317.83,221.84L318.4,371.4L318.42,344.38L318.74,410.95L319.2,239.95L319.22,259.07L319.54,241.14L319.76,382.95L319.97,268.38L319.98,265.89L320.21,225.38L320.44,353.27L320.81,327.94L320.82,320.06L320.85,327.64L320.9,292.68L320.94,308.96L320.95,253.45L320.97,208.98L321.18,391.06L321.69,227.44L321.71,251.97L321.81,347.2L321.94,152.81L322.12,295.25L322.14,304.4L322.26,176.7L322.83,346.73L322.86,289.09L322.88,263.66L322.96,175.58L323.53,395.14L323.56,384.73L323.57,381.82L324.31,148.9L324.46,224.52L324.47,242.25L324.88,360.17L325.01,145.79L325.07,180.69L325.08,180.92L325.24,332.6L325.34,123.71L325.71,265.36L325.73,276.32L325.95,380.57L326.37,160.24L326.49,197.22L326.51,230.29L326.95,337.74L327.06,140L327.29,315.63L327.31,221.44L327.46,121.56L327.98,343.1L328.02,296.12L328.03,292.87L328.15,207.21L328.36,395.98L328.67,280.6L328.69,250.12L329,336.82L329.44,160.08L329.47,196.19L329.49,217.78L329.56,154.84L329.67,377.85L330.24,186.83L330.26,203.02L330.55,185.05L330.71,364.54L331.05,309.22L331.07,238.62L331.72,312.18L331.84,126.49L331.85,160.25L331.94,145.02L332.41,329.64L332.61,189.82L332.62,177.49L332.63,176.2L332.69,251.8L332.71,262.77L333.1,378.32L333.32,196.62L333.45,326.17L333.46,257.98L333.65,164.29L334.12,349.65L334.23,178.52L334.24,183.15L334.46,316.43L334.69,169.43L335.01,228.98L335.03,223.32L335.17,371.22L335.7,222.02L335.84,334.34L335.85,290.41L336.17,339.21L336.3,147.92L336.67,211.24L336.68,231.42L336.85,347.77L337.32,147.69L337.44,178.13L337.45,197.64L337.72,159.47L337.89,351.02L338.23,316.5L338.25,244.03L338.56,309.61L338.69,111.27L339.02,129.25L339.03,121.39L339.59,320.69L339.81,191.69L339.83,208.71L340.11,205.4L340.28,376.42L340.63,343.11L340.64,269.92L340.74,142.51L341.3,353.9L341.42,154.59L341.44,172.48L341.64,356.04L341.77,153.03L342.19,193.06L342.21,191.19L342.72,372.54L343.02,325.99L343.03,260.01L343.35,352.86L343.48,155.97L343.82,160.05L343.83,188.04L344.03,338.61L344.16,152.81L344.57,187.34L344.59,182.18L344.71,331.38L344.9,178L345.04,302.21L345.06,347.69L345.11,364.82L345.51,175.84L345.75,346.34L345.77,280.56L345.87,153.3L346.42,355.8L346.54,171.49L346.55,178.2L346.88,176.58L347.12,364.75L347.31,224.98L347.32,228.37L347.51,367.57L347.62,255.33L347.63,221.75L347.79,336.29L347.91,164.59L347.92,158.19L348.48,370.18L348.67,204.51L348.69,194.13L348.7,192.4L348.79,300.35L348.8,320.05L348.82,364.14L348.93,162.47L349.53,310.51L349.54,292.77L349.69,238.19L349.87,412.76L350.23,296.82L350.24,265.06L350.54,335.13L350.67,143.67L350.85,292.81L350.87,305.31L350.88,344.17L351,146.88L351.6,250.65L351.61,218.76L351.69,148.85L351.91,328.31L352.24,300.76L352.25,341.07L352.59,359.15L352.71,192.7L352.95,329.48L352.96,268.56L353.62,341.76L353.73,164.73L353.75,176.79L353.76,203.7L353.83,184.55L354.32,384.99L354.52,232.94L354.53,237.94L354.84,224.59L355.33,388.55L355.34,381.73L355.36,321.73L355.67,364.13L355.8,186.36L356.14,223.33L356.15,241.24L356.35,360.02L356.47,163.1L356.87,221.85L356.88,196.22L356.89,194.81L356.98,271.18L356.99,287.52L357.07,369.92L357.48,212.42L357.49,187.98L357.83,180.16L358.06,352.5L358.11,243.82L358.12,224.38L358.18,163.47L358.76,352.73L358.92,273.3L358.93,241.82L358.95,238.82L359.06,333.52L359.07,336.58L359.1,399.47L359.27,220.36L359.79,332.15L359.8,278.67L359.9,187.18L360.46,375.41L360.54,288.16L360.56,260.45L360.8,351.97L360.91,169.6L361.32,222.53L361.34,221.18L361.48,350.58L361.67,211.42L361.81,316.97L361.82,355.22L361.84,374.77L362.28,167.52L362.39,179.71L362.41,197.98L362.62,160.08L363.19,341.77L363.21,334.96L363.65,195.37L363.87,348.66L363.97,265.92L363.99,256.3L364.06,178.56L364.23,383.38L364.64,206.4L364.66,166.99L364.67,140.39L364.9,328.25L365.38,199.65L365.4,230.08L365.58,325.82L365.8,147.75L366.15,179.93L366.17,198.85L366.47,159.26L366.68,353.54L366.95,332.27L366.97,305.96L367.41,120L367.64,311.26L367.74,146.44L367.75,123.77L367.98,315.02L368.43,134.92L368.45,133.32L369.02,335.87L369.2,190.08L369.22,187.17L369.46,145.87L369.69,323.24L369.77,232.49L369.79,211.38L369.9,167.64L370.37,311.95L370.53,247.78L370.54,228.26L370.6,196.14L370.71,331.39L371.28,222.05L371.3,238.29L371.58,168.22L371.74,366.45L372.09,351.53L372.11,330.03L372.45,392.32L372.88,199.69L372.89,215.84L372.91,242.54L373.32,199.39L373.46,338.01L373.65,222.16L373.66,222.63L373.8,364.95L374.26,219.7L374.3,243.43L374.32,209.76L374.36,202.33L374.47,348.46L374.76,319.74L374.77,322.06L374.84,377.85L375.04,224.4L375.2,250.99L375.21,245.19L375.5,293.89L375.71,152.59L375.83,247.39L375.84,282.84L376.05,173.2L376.2,348.92L376.35,271.42L376.37,210.24L376.53,310.52L376.75,168.18L377.11,192.24L377.12,214.86L377.32,160.03L377.89,335.85L377.91,324.75L377.92,276.5L378.43,187.1L378.59,344.62L378.6,360.35L378.62,372.73L379.03,210.66L379.1,217.4L379.12,217.62L379.26,341.25L379.39,192.08L379.84,240.03L379.86,264.96L379.94,340.82L380.4,158.11L380.63,300.17L380.64,306.76L381.06,336.63L381.44,174.98L381.45,193.23L381.47,224.09L381.54,162.77L381.64,263.64L381.65,298.67L382,299.79L382.11,156.68L382.32,249.04L382.34,281.62L382.45,135.21L382.68,310.52L383.01,294.25L383.02,326.05L383.22,212.62L383.38,361.5L383.56,229.69L383.58,236.2L383.7,339.3L383.83,191.14L383.9,208.86L383.92,197.95L384.05,315L384.26,189.17L384.36,263.23L384.37,274.37L384.39,312.62L384.94,160.95L385.1,241.15L385.12,211.98L385.2,155.37L385.78,382.93L385.8,376.49L385.81,377.56L385.91,333.85L385.93,284.68L386.1,335L386.65,159.89L386.68,207.65L386.7,230.87L386.78,327.78L386.91,152.18L387.47,293.32L387.48,284.94L387.69,179.69L388.21,351.57L388.22,344.53L388.23,348.3L388.55,196.84L388.58,222.74L388.59,200.14L388.61,172.77L389.18,301.98L389.32,214.34L389.33,244.75L389.4,175.61L389.52,334.3L390.09,193.77L390.1,203.13L390.4,197.54L390.6,384.54L390.88,313.43L390.9,268.21L391.1,162.38L391.55,299.21L391.67,189.29L391.68,194.7L392.11,169.88L392.25,309.01L392.41,220.44L392.42,173.26L392.47,171.42L392.99,398.22L393.11,222.4L393.12,211.2L393.15,202.71L393.22,292.81L393.24,297.92L393.26,328.07L393.36,202.43L393.38,175.01L393.61,332.72L393.73,173.28L394.13,182.06L394.15,181.95L394.65,296.25L394.76,153.97L394.89,182.23L394.9,194.71L395.19,187.66L395.39,355.79L395.74,294.76L395.76,283.27L396.03,347.91L396.55,149.66L396.57,155.56L396.58,186.06L396.68,330.98L397.24,176.56L397.35,268.82L397.37,300.42L397.38,301.5L397.54,259.09L397.55,221.55L397.57,221.16L397.58,225.08L397.59,235.94L397.72,375.84L398.12,223.45L398.14,231.83L398.15,208.61L398.26,170.49L398.75,327.93L398.88,241.71L398.89,264.1L399.08,323.1L399.53,166.67L399.67,219.62L399.69,225.24L399.97,171.06L400.13,339.89L400.46,317.67L400.47,247.16L400.79,296.14L401,131.35L401.21,238L401.23,222.24L401.47,309.63L401.92,166.03L401.98,205L402,182.97L402.02,170.7L402.14,262.03L402.15,293.48L402.17,294.47L402.18,268.43L402.2,253.65L402.34,173.06L402.55,349.62L402.98,209.18L402.99,232.05L403.18,317.63L403.31,181.6L403.51,288.83L403.52,312.22L403.75,170.82L404.18,270.49L404.19,277.34L404.75,188.49L404.92,342.62L404.94,328.73L404.96,320.05L404.97,327.46L405.46,168.49L405.6,239.38L405.61,207.82L405.69,155.81L405.91,320.93L406.24,298.87L406.26,318.23L406.33,210.61L406.34,225.64L406.36,197.45L406.73,152.69L406.95,302.72L407.08,243.26L407.1,252.18L407.32,334.82L407.74,125.05L407.85,140.14L407.87,158.82L408.18,136.72L408.65,301.75L408.66,291.97L408.68,254L409.08,176.41L409.35,323.68L409.42,266.2L409.43,258.28L409.49,274.25L409.5,217.48L409.52,182.85L409.63,294.13L409.65,307.6L409.69,362.47L410.14,177.32L410.23,197.3L410.24,191.76L410.36,331.71L410.91,150L411.06,292.06L411.07,256.6L411.11,198.66L411.43,362.97L411.78,308.14L411.8,301.22L411.83,290.68L411.84,287.78L412.08,371.15L412.28,210.23L412.4,306.81L412.41,338.7L412.62,214.33L412.75,346.31L412.79,236.7L412.81,204.7L412.97,150.94L413.44,313.97L413.52,197.86L413.54,166.45L413.55,137.5L414.13,315.7L414.23,277.39L414.25,284.49L414.48,379.8L414.93,190.95L414.95,195.21L415.14,341.1L415.6,163.56L415.69,191.95L415.7,187.17L415.83,325.19L415.84,350.88L415.97,356.03L416.36,178.94L416.48,284.56L416.5,295.13L416.7,181.53L416.87,370.03L417.22,269.7L417.24,231.65L417.42,170.43L417.88,351.94L418.01,192.2L418.02,202.28L418.34,179.66L418.91,365.41L418.92,353.49L418.93,326.23L419.28,427.64L419.8,207.17L419.83,225.13L419.85,245.99L420.27,327.87L420.5,172.74L420.63,324.55L420.64,284.43L420.73,153.64L421.3,332.6L421.38,274.28L421.4,266.99L421.67,386.4L422.1,173.88L422.2,180.46L422.21,178.01L422.44,154.05L422.67,314.01L423.02,307.12L423.04,260.38L423.22,173.73L423.71,329.65L423.76,281.51L423.78,292.3L423.88,214.96L424.05,404.4L424.36,318.81L424.38,343.68L424.49,160.35L425,287.01L425.02,306.19L425.06,326.56L425.17,159.05L425.76,312.29L425.77,260.27L425.86,183.52L426.1,348.51L426.41,335.61L426.43,372.87L426.46,392L426.9,141.29L427.13,319.95L427.14,261.73L427.24,138.31L427.45,334.35L427.91,155.43L427.92,156.89L428.26,148.26L428.88,385.37L428.92,372.83L428.93,355.86L429.28,153.17L429.49,294.86L429.5,329.99L429.52,328.76L429.53,277.05L429.63,167.52L430.19,372.79L430.26,276.34L430.27,292.02L430.53,377.3L430.66,202.07L431.01,297.95L431.03,315.5L431.23,396.34L431.67,203.62L431.78,215.1L431.8,233.34L432.13,231.36L432.6,392.19L432.62,372.51L432.64,368.82L432.94,379.9L433.14,234.42L433.15,232.39L433.45,218.52L433.64,389.43L433.96,348.9L433.98,298.71L434.29,354.92L434.4,206.11L434.76,232.35L434.78,247.66L435.09,215.08L435.32,359.58L435.52,228.44L435.53,230.64L436.07,392.91L436.17,300.35L436.19,263.23L436.68,369.96L436.81,218.18L436.94,254.83L436.95,263.34L437.03,353.47L437.5,196.99L437.72,330.65L437.74,293.55L438.25,226.97L438.42,390.18L438.45,384.31L438.46,378.53L438.52,342.59L438.55,344.7L438.56,292.86L438.86,194.61L439.23,377.45L439.33,230.56L439.35,259.48L439.53,202.71L439.76,343.28L440.12,332.63L440.13,293.14L440.22,229.13L440.46,368.72L440.77,346.73L440.79,382.24L440.82,408.5L441.36,207.25L441.48,335.94L441.5,291.24L441.6,197.94L442.17,355.24L442.27,207.4L442.28,209.85L442.62,191.2L442.85,357L443.01,260.11L443.02,217.64L443.19,384.05L443.35,312.61L443.37,262.69L443.54,342L443.65,183.47L444.12,247.74L444.13,267.36L444.21,350.24L444.68,196.94L444.75,210.39L444.76,201.08L444.78,199.37L444.82,254.93L444.83,274.91L445.12,232.98L445.6,422.65L445.67,372.31L445.69,361.16L445.72,372.71L445.73,356.26L445.74,295.81L445.92,361.83L446.14,191.43L446.51,230.2L446.53,248.43L446.73,176.59L447.3,334.07L447.31,289.23L447.41,192.96L447.98,393.09L448,399.37L448.42,164.29L448.91,233.07L448.92,260.35L449.01,355.81L449.22,206.61L449.69,352.9L449.7,295.56L449.8,182.29L450.37,395.58L450.39,400.68L450.83,182.96L451.03,332.76L451.04,357.82L451.09,245.78L451.1,222.01L451.4,350.52L451.51,146.59L451.71,301.91L451.73,338.05L451.76,280.93L451.77,240.04L451.84,156.12L452.43,353.97L452.48,341.9L452.5,330.52L452.78,393.15L453.21,135.7L453.35,218.64L453.37,232.88L453.57,140.91L454.12,338.36L454.13,337.41L454.15,300.88L454.25,148.86L454.82,348.07L454.9,284.39L454.92,271.51L455,200.36L455.19,383.17L455.53,220.02L455.55,190.79L455.96,129.16L456.19,328.84L456.27,181.48L456.29,149.78L456.3,141.28L456.51,330.08L456.84,290.37L456.86,316.74L456.98,130.99L457.21,321.11L457.48,269.76L457.5,286.11L457.63,380.9L457.74,250.98L457.91,280.46L457.92,234.13L458.24,338.74L458.68,130.81L458.71,151.16L458.72,191.7L458.78,137.85L458.84,206.1L458.85,225.67L459.02,100.25L459.61,327.22L459.63,293.22L459.65,287.72L459.79,210.46L459.99,382.85L460.32,239.6L460.33,220.58L460.4,171.23L460.6,301.39L460.62,330.47L460.96,332.78L461.43,117.87L461.44,133.75L461.46,181.75L461.53,132.5L461.64,315.42L461.97,293.28L461.98,347.85L462.17,183.34L462.31,289.13L462.33,339.11L462.4,364.5L462.78,102.08L463.02,288.01L463.04,220.2L463.12,108.54L463.69,327.16L463.79,184.08L463.81,146.32L464.04,354.24L464.56,188.24L464.58,190.26L464.75,449.86L464.89,242.21L464.9,205.43L465.06,331.65L465.52,127.15L465.65,176.84L465.66,203.72L465.87,124.66L466.09,330.23L466.44,320.63L466.46,258.79L466.54,128.8L467.13,368.63L467.18,357.87L467.2,352.57L467.21,356.92L467.53,190.12L467.54,201.53L467.55,175.21L467.92,118.88L468.14,353.36L468.28,166.87L468.3,211.27L468.37,152.2L468.82,379.3L469.02,230.11L469.04,223.23L469.05,212.53L469.55,422.39L469.75,244.43L469.76,260.73L469.85,372.69L469.96,163.64L470.3,177.7L470.32,169.37L470.53,349.03L470.99,146.46L471.07,198.28L471.09,187.48L471.12,172.42L471.57,344.34L471.8,207.34L471.81,240.43L471.96,405.38L472.36,220.44L472.6,339.32L472.61,274.38L472.71,154.74L472.92,366.48L473.39,214.02L473.41,221.6L473.61,354.64L473.72,201.66L474.16,243.73L474.18,249.08L474.36,397.81L474.75,205.12L474.76,160.53L475.1,137.11L475.33,352.48L475.53,214.67L475.55,201.19L475.79,193.19L476.02,369.75L476.26,224.05L476.27,244.09L476.54,198.97L476.79,395.3L477.06,345.6L477.07,291.67L477.38,336.67L477.85,141.23L477.87,148.55L477.95,136.69L478.41,327.46L478.62,186.12L478.64,184.44L479.11,368.65L479.32,182.78L479.45,315.89L479.46,244.1L479.78,334.56L479.89,146.84L480.25,157.37L480.26,179.81L480.46,356.37L480.57,141.8L481,182.7L481.02,173.54L481.03,163.42L481.56,381.87L481.57,385.34L482.4,128.13L482.47,234.74L482.48,244.97L482.64,145.89L483.2,343.84L483.22,258.73L483.24,242.45L483.31,159.16L483.95,394.54L483.97,390.27L484.68,161.2L484.81,199.83L484.82,228.85L485.02,204.81L485.59,385.08L485.6,360.84L485.62,307.61L486.12,209.13L486.32,388.1L486.33,378.25L486.34,374.71L487.08,140.06L487.21,209.15L487.23,233.71L487.3,346.57L487.53,144.53L488,321.05L488.01,257.85L488.11,161.74L488.68,363.41L488.69,371.71L489.14,139.94L489.59,166.27L489.61,190.42L489.82,131.64L490.03,325.86L490.39,316.86L490.4,261.68L490.49,187.69L491.07,370.18L491.09,370.57L491.14,377.11L491.23,303L491.24,257.82L491.4,380.61L491.57,294.48L491.59,252.02L491.86,157.13L492.09,351.72L492.33,243.07L492.34,261.09L492.43,359.05L492.88,193.95L492.98,207.44L493,200L493.31,190.13L493.54,381.06L493.81,341.64L493.82,276.74L493.92,167.57L494.48,345.21L494.61,200.74L494.62,219.69L494.71,193.12L495.16,345.39L495.36,241.24L495.38,233.37L495.7,216L495.86,392.5L496.1,245.86L496.12,261.05L496.42,174.33L496.54,363.39L496.9,322.6L496.91,306.95L497.07,249.44L497.24,389.59L497.26,409.59L497.34,421.96L498.1,181.29L498.21,262.89L498.23,278.98L498.27,344.06L498.81,174.69L498.97,249.37L498.98,244.22L499.05,199.31L499.25,289.94L499.26,328.29L499.46,245.91L499.68,388.38L499.69,400.19L500.18,221.65L500.28,311.2L500.29,351.61L500.49,227.28L500.65,397.43L500.82,270.04L500.83,267.34L500.97,373.98L501.43,193.18L501.57,251.31L501.59,285.78L501.66,356.22L501.79,187.94L502.1,209.51L502.11,171.51L502.13,169.11L502.17,243.27L502.27,240.99L502.29,261.84L502.47,206.95L503.11,390.57L503.13,386.13L503.17,401.81L503.2,344.83L503.21,296.09L503.5,171.05L503.71,359.45L503.98,258.23L503.99,276.61L504.39,377.79L504.61,219.91L504.62,213.79L504.86,185.2L505.09,358.46L505.25,285.18L505.26,232.84L505.28,226.72L505.46,398.86L505.48,402.1L506.23,205.29L506.36,257.37L506.37,271.9L506.44,341.73L506.91,177.6L507.14,302.08L507.16,260.05L507.19,230.12L507.83,404.8L507.84,402.67L507.86,395.18L507.87,397.24L507.98,321.31L508,266.42L508.15,356.61L508.62,164.99L508.77,244.2L508.78,258L508.84,323.59L509.31,144.32L509.54,289.04L509.55,238.6L509.65,140.08L510.26,378.26L510.28,385.35L510.33,407.77L510.65,242.99L510.66,218.86L510.69,229.19L510.7,255.62L510.9,351.74L511.35,208.04L511.43,238.14L511.44,224.71L511.57,321.7L511.8,176.7L511.9,300.97L511.92,328.2L512.03,182.53L512.27,341.15L512.4,297.89L512.41,312.84L512.63,407.61L513.05,176.89L513.18,214.75L513.2,239.4L513.28,333.06L513.75,163.24L513.98,319.57L513.99,257.04L514.42,136.76L514.66,321.75L514.72,283.64L514.74,294.16L514.85,200.19L515.06,379.22L515.48,296.07L515.49,319.04L515.83,378.98L516.25,228.23L516.26,249.01L516.27,263.74L516.82,176.06L517.06,339.07L517.07,326.81L517.09,295.69L517.24,207.44L517.5,414.69L517.86,235.33L517.87,272.5L518.4,371.9L518.52,202.76L518.58,230.87L518.6,230.53L518.74,348.74L519.21,189.24L519.34,242.02L519.35,255.74L519.62,199.93L519.78,416.06L520.12,351.75L520.13,291.05L520.46,360.84L520.9,188.25L520.92,188.37L520.93,215.74L521.13,341L521.25,188.01L521.67,221.55L521.69,215.71L521.7,211.1L521.83,360.21L522.14,338.97L522.16,367.35L522.17,390.47L522.63,167.49L522.86,315.69L522.87,255.79L523.53,334.51L523.64,155.28L523.65,139.14L524.61,391.8L524.62,373.64L524.64,368.85L525.35,188.97L525.49,236.4L525.51,257.83L525.58,343.16L525.8,192.71L526.27,310.74L526.29,268.96L526.79,211.99L526.96,389.18L526.97,381.81L526.99,375.36L527.07,386.98L527.17,245.21L527.31,280.78L527.33,247.08L527.97,353.89L528.1,166.78L528.11,186.27L528.31,333.87L528.44,145.09L528.85,181.68L528.87,169.23L528.88,164.61L529.01,328.7L529.31,293.83L529.32,309.37L529.35,372.41L529.79,152.63L530.04,309.58L530.05,235.39L530.38,345.48L530.48,147.95L530.8,226.42L530.82,194.98L530.93,189.42L531.03,295.47L531.05,343.53L531.08,379.79L531.65,202.69L531.8,349.41L531.82,344.23L532.2,127.77L532.4,238.4L532.41,285.58L532.43,285.41L532.44,220.08L532.54,119.35L532.76,295.66L533.08,277.78L533.1,312.73L533.17,193.4L533.2,196.39L533.21,171.39L533.23,165.79L533.44,289.84L533.71,233.86L533.73,251.34L533.98,186.34L534.25,352.51L534.48,301.83L534.49,246.67L534.69,171.51L535.15,341.17L535.26,176.59L535.28,181.36L535.49,340.01L536.03,212.88L536.05,201.67L536.06,195.24L536.52,357.27L536.53,381.19L537.09,201.51L537.27,321.29L537.29,320.71L537.54,334.12L537.67,153.73L538.13,186.59L538.14,201L538.34,181.53L538.92,392.76L539.01,352.79L539.02,343.89L539.14,230.17L539.25,365.72L539.3,255.1L539.31,213.65L539.59,337.16L539.71,147.23L540.04,199.27L540.05,171.26L540.06,164.04L540.28,330.39L540.59,312.53L540.61,326.71L541.15,240.48L541.32,417.56L541.37,412.6L541.39,411.75L541.77,172L542.26,243.13L542.27,262.77L542.67,347.89L542.8,211.17L543.03,332.19L543.04,268.24L543.24,204.43L543.71,385.38L543.73,370.16L543.81,393.97L544.51,155.65L544.64,211.93L544.65,240.48L544.72,328.56L544.84,134.64L545.26,195.17L545.28,174.86L545.52,157.62L545.76,327.31L545.98,203.23L545.99,228.6L546.1,397.31L546.56,144.41L546.75,250.12L546.76,255.32L547.13,314.86L547.34,173.15L547.5,217.85L547.51,196.4L547.57,144.16L547.79,270L547.8,313.13L547.91,165.14L548.16,327L548.43,266L548.44,290.38L548.5,385.83L548.94,159.4L549.18,317.15L549.2,257.95L549.85,328.48L549.98,142.24L549.99,160.79L550.32,152.46L550.55,333.59L550.76,203.77L550.78,212.1L550.89,383.63L551.33,167.54L551.57,329.51L551.59,264.16L551.67,134.44L552.26,354.15L552.32,324.83L552.33,311.23L552.7,187.05L552.94,362.61L553.11,224.69L553.13,238.61L553.31,396.85L553.5,232.15L553.63,332.21L553.64,264.07L554.3,342.8L554.41,142L554.42,144.33L554.64,349.87L555.19,188.99L555.21,185.12L555.68,387.57L556.02,365.67L556.03,300.2L556.13,135.66L556.35,342.12L556.83,157.22L556.85,195.39L556.92,143.42L557.37,344.6L557.61,216.7L557.63,235.85L557.9,233.59L558.13,412.05L558.41,363.67L558.43,300.84L559.08,367.68L559.2,189.33L559.21,184.07L559.42,349.87L559.55,178.02L559.98,222.85L559.99,213.38L560.51,407.25L560.66,256.98L560.68,252.98L560.81,362.66L560.88,268.02L560.89,236.76L561.26,187.54L561.49,359.89L561.62,235.2L561.63,272.77L561.83,389.68L562.05,210.01L562.26,237.67L562.27,203.88L562.29,202.49L562.3,233.4L562.32,270.98L562.39,233.86L562.93,411.84L562.94,402.92L562.96,393.5L563.31,230.29L563.78,264.55L563.8,283.34L563.88,364.28L564.34,180.11L564.57,343.46L564.58,291.75L564.68,178.75L565.26,403.9L565.28,403.07L565.29,404.41L565.39,355.9L565.41,292.51L565.59,351.65L566.05,178.66L566.16,208.79L566.18,223.96L566.28,352.04L566.39,171.51L566.96,333.56L566.97,286.32L567.07,199.04L567.64,397.25L567.66,412.8L567.67,418.6L568.07,232.14L568.09,206.4L568.33,334.57L568.54,169.62L568.81,246.59L568.83,259.63L569.01,356.8L569.13,182.97L569.58,215.53L569.6,230.37L570.05,409.18L570.39,309.53L570.41,266.49L570.72,343.26L571.18,170.59L571.19,179.85L571.21,223.45L571.4,328.17L571.5,162.52L571.95,217.65L571.96,213.24L572.46,420.49L572.59,307.43L572.6,255.79L572.77,369.84L572.89,161.77L573.09,296.42L573.1,335.44L573.11,341.99L573.56,146.51L573.57,143.45L573.78,325.79L573.91,128.16L574.32,188.59L574.34,171.46L574.35,165.14L574.48,345.99L574.81,335.42L574.82,366.6L574.84,379.48L575.25,184.43L575.27,137.57L575.28,131.81L575.51,342.27L575.81,258.24L575.82,274.99L575.96,150.65L576.53,342.98L576.56,250.79L576.58,228.41L576.65,167.12L576.69,249.09L576.8,245.42L576.82,275L576.87,361.21L577.05,178.03L577.19,296.75L577.2,343.11L577.23,379.72L577.67,124.55L577.9,319.22L577.91,263.9L578.24,333.14L578.68,119.66L578.71,128.82L578.73,181.75L579.03,128.56L579.27,345.1L579.48,190.3L579.5,200.94L579.62,362.42L580.07,108.86L580.29,317.57L580.31,260.87L580.64,346.69L580.85,92.52L581.09,103.73L581.11,125.75L581.43,107.04L581.66,341.85L581.86,187.84L581.88,189.79L582.03,364.92L582.46,117.31L582.54,130.99L582.56,124.49L582.69,304.7L583.13,99.83L583.36,300.11L583.37,287.75L583.47,97.5L584.05,324.54L584.11,262.89L584.13,265.69L584.23,155L584.75,350.84L584.85,291.76L584.87,293.73L585.07,307.39L585.19,106.29L585.49,178.16L585.51,141.39L585.75,294.34L585.86,78.02L586.25,156.88L586.26,169.69L586.32,113.89L586.8,334.2L587.02,145.43L587.03,170.73L587.46,298.6L587.59,83.38L587.67,124.07L587.69,118.68L587.82,315.22L588.27,83.69L588.5,287.07L588.51,219.49L588.6,74.34L589.2,334.54L589.21,333.83L589.62,84.52L589.84,229L589.85,281.37L589.87,281.14L589.88,207.19L590.19,282.04L590.65,67.3L590.68,87.09L590.69,135.12L591.01,67.6L591.23,291.56L591.39,183.93L591.41,135.62L591.53,232.01L591.55,250.72L591.62,340.88L592.03,88.38L592.27,216.93L592.29,174.37L592.7,70.71L592.93,298.4L592.94,322.82L593.4,100.08L593.71,231.7L593.73,215.7L593.84,143.49L593.96,295.57L593.97,314.67L594.01,323.03L594.13,190.32L594.14,147.73L594.3,277.87L594.51,73.35L594.61,187.64L594.62,213.77L594.87,72.55L595.34,278.6L595.35,212.6L595.37,184.8L595.55,71.08L596.02,304.61L596.06,248.1L596.08,250.82L596.19,145.7L596.41,340.13L596.68,257.35L596.69,307.39L596.7,322.71L597.26,81.05L597.39,285.05L597.4,211.21L597.83,73.33L598.06,291.5L598.19,82.83L598.2,128.77L598.29,70.07L598.78,353.94L598.94,134.06L598.96,123.61L599.21,67.42L599.44,299.47L599.7,122.74L599.71,149.38L599.78,286.61L599.9,50.25L600.48,276.37L600.49,202.89L600.59,83.6L601.16,335.53L601.18,342.4L601.22,401.96L601.72,139.6L601.86,239.4L601.88,207.96L601.95,120.88L602.52,332.95L602.65,152.46L602.66,173.34L602.74,148.76L603.21,336.88L603.41,195.64L603.43,211.41L603.56,371.25L603.77,199.04L604.07,231.93L604.08,207.21L604.23,340.45L604.68,103.83L604.82,190.74L604.84,208.33L605.02,114.85L605.25,333.72L605.62,295.45L605.64,272.76L605.95,334.32L606.39,91.14L606.53,147.96L606.55,173.85L606.73,95.85L607.3,341.62L607.33,246.64L607.35,208.33L607.65,314.51L607.76,89.29L608.06,257.94L608.07,261.13L608.36,336.78L608.9,85.15L608.93,130.86L608.94,149.16L609.35,298.57L609.47,80.2L609.71,279.06L609.73,207.07L609.82,107.48L610.04,321.09L610.45,234.92L610.47,244.14L610.78,327.81L611.18,57.84L611.32,77.58L611.33,142.69L611.98,88.17L612.09,295.57L612.12,219.6L612.13,187.87L612.43,306.92L612.56,98.51L612.75,205.42L612.76,228.11L613.16,323.66L613.34,133.41L613.49,215.33L613.5,167.59L613.8,296.94L614.26,63.79L614.28,91.48L614.3,146.66L614.37,52.78L614.47,190.71L614.48,247.64L614.71,87.7L614.83,260.39L615.14,198.01L615.15,204.64L615.39,136.62L615.54,338.38L615.88,236.9L615.89,207.19L616.08,116.45L616.18,248.81L616.19,301.4L616.21,312.09L616.42,108.13L616.62,170.81L616.63,123.62L616.76,79.66L616.88,279.89L617.35,133.76L617.36,158L617.45,122.6L617.93,329.71L618.1,174.57L618.12,153.04L618.24,292.3L618.37,82.51L618.84,182.16L618.86,194.93L619.38,145.04L619.61,336.5L619.64,274.72L619.65,238.75L619.84,141.39L620.31,316.63L620.34,312.56L620.35,317.39L620.37,325.17L620.52,163.56L620.82,229.85L620.84,214.24L621.34,325.65L621.55,167.02L621.59,208.14L621.61,218.04L621.86,206.04L622.36,382.57L622.4,322.25L622.42,321.64L622.57,199.64L622.67,290.39L622.69,337.67L622.7,367.87L623.27,162.29L623.4,274.28L623.42,243.32L623.73,302.67L623.94,130.31L624.14,292.44L624.16,286.74L624.26,200.36L624.55,400.02L624.78,341.46L624.8,339.68L624.9,362.39L624.91,319.14L624.93,261.87L625.14,388.45L625.65,165.9L625.69,219.52L625.71,245.32L625.77,336.43L626.34,145.31L626.46,298.92L626.48,249.4L626.68,173.83L627.15,349.86L627.2,308.41L627.22,317.22L627.55,380.01L628.05,126.36L628.06,134.58L628.07,159.91L628.39,134.13L628.52,311.63L628.86,307.36L628.87,252.79L629.2,301.39L629.41,137.17L629.61,262.91L629.63,251.56L629.95,332.73L630.44,106.72L630.45,119.08L630.47,140.73L630.59,340.25L631.28,254.55L631.29,243.34L631.48,180.6L631.93,357.16L632.09,297.06L632.11,236.99L632.33,387.62L632.83,143.74L632.87,199.76L632.89,223.15L633.07,198.9L633.64,338.39L633.66,299.22L633.67,274.2L633.99,363.63L634.2,191.59L634.3,288.9L634.31,332.86L634.51,220.66L634.71,380.6L635.01,337.46L635.03,289.91L635.22,183.11L635.68,338.36L635.82,223.15L635.84,253.76L635.91,197.58L636.36,344.11L636.58,232.46L636.59,221.12L636.72,365.04L636.88,313.23L636.89,235.04L636.92,209.58L637.12,387.17L637.63,233.21L637.65,250.07L637.8,367.92L638.3,168.37L638.43,315.92L638.44,250.68L638.53,131.08L639.11,305.34L639.17,272.2L639.19,264.41L639.5,347.91L639.9,120.1L640.04,175.31L640.05,176.67L640.14,290.59L640.25,101.37L640.82,275.19L640.84,221.7L641.04,111.59L641.51,319.18L641.56,270.28L641.58,280.3L641.88,354.87L642.29,101.83L642.43,187.57L642.45,202.25L642.73,142.11L643.19,311.67L643.22,242.18L643.23,206.85L643.3,133.34L643.86,283.94L643.87,314.79L644.26,384.97L644.43,183.14L644.44,171.46L644.57,301.09L644.66,140.34L644.67,109.57L644.78,104.8L644.91,286.74L645.17,201.06L645.18,219.86L645.27,489.76L645.45,169.41L645.47,158.66L646.15,123.64L646.28,320.98L646.29,303.81L646.65,369.96L647.08,146.55L647.19,179.08L647.21,194.08L647.42,129.33L647.99,311.29L648,253.8L648.2,135.02L648.67,335.41L648.72,294.04L648.73,296.13L648.89,192.13L649.07,361.71L649.38,231.73L649.4,211.71L649.7,322.92L649.81,133.58L649.98,251.42L650,264.24L650.38,315.21L650.48,120.13L650.58,138.28L650.6,126.81L651.44,367.32L651.45,368L652.29,106.64L652.35,181.15L652.36,218.02L652.53,128.14L653.17,382.5L653.19,379.79L653.2,361.42L653.33,191.05L653.84,379.44L653.91,358.82L653.93,360.16L654.26,114.14L654.73,171.04L654.74,191.45L655.15,309.12L655.28,100.62L655.51,295.98L655.52,237.11L655.72,153.9L655.85,353.52L656.19,349.38L656.21,357.24L656.24,357.43L656.25,348.2L656.99,69.91L657.13,177.95L657.15,206.88L657.22,277.71L657.68,83.96L657.9,263.59L657.92,206.08L658.02,79.37L658.62,354.35L658.63,350.04L658.64,344.86L658.66,372.82L659.03,130.36L659.3,229.47L659.31,221.7L659.39,171.25L659.61,313.45L659.64,220.29L659.66,202.43L659.94,315.11L660.07,113.22L660.24,246.77L660.25,258.46L660.28,304.25L660.34,171.39L660.37,181.65L660.38,150.99L660.4,129.72L660.64,316.05L660.97,306.58L660.98,332.14L661.05,317.62L661.07,302.56L661.09,307.89L661.76,128.08L661.89,161.38L661.91,176.19L662.11,112.53L662.35,329.54L662.7,263.05L662.72,230.31L662.8,134.04L663.42,355.75L663.43,354.24L663.45,345.57L664.17,83.83L664.31,175.9L664.33,198.06L664.51,73.54L665.07,302.81L665.1,247.29L665.11,221.5L665.18,183.95L665.81,369.51L665.91,333.77L665.92,273.7L666.09,335.81L666.21,170.89L666.69,233.94L666.71,254.69L666.79,363.36L667.23,159.15L667.48,318.72L667.49,257.74L667.58,122.16L668.19,349.84L668.2,348.47L668.6,130.99L668.8,255.15L668.82,269.47L668.96,143.84L669.51,323.22L669.54,248.88L669.56,221.18L669.97,135.93L670.21,334.26L670.27,278.19L670.28,279.22L670.55,353.51L671,86.42L671.14,157.52L671.15,177.32L671.34,86.93L671.57,307.58L671.92,294.26L671.94,234.16L672.04,96.72L672.61,326.74L672.68,262.18L672.69,240.99L672.96,344.75L673.39,91.93L673.5,106.58L673.52,122.16L673.73,121.94L674.34,335.74L674.36,334.42L674.66,340.31L674.77,172.97L675.24,199.55L675.25,216.72L675.35,354.52L675.78,118.5L675.88,163.56L675.9,156.01L676.35,366.78L676.72,278.27L676.74,233.31L676.81,148.94L677.39,343.51L677.46,292.38L677.48,279.81L677.78,390.65L678.18,164.43L678.29,166.05L678.3,180.03L678.76,349.82L678.86,142.79L679.1,340.33L679.12,278.01L679.2,153.77L679.44,354.86L679.86,305.93L679.87,285.99L680.18,394.16L680.58,187.68L680.64,237.39L680.65,234.19L680.8,355.17L680.91,164.03L681.39,211.57L681.41,234.12L681.49,345.57L681.61,140.28L682.19,318.18L682.21,296.19L682.56,384.51L682.96,145.71L683.06,175.59L683.08,169.94L683.3,136.83L683.55,344.23L683.9,290.19L683.92,257.53L684.33,148.18L684.57,349.31L684.64,301.22L684.66,308.93L684.91,384.1L685.35,155.47L685.43,201.79L685.44,193.92L685.71,145.02L685.94,335.06L686.18,187.66L686.2,208.73L686.39,141.76L686.96,332.63L686.98,318.3L686.99,292.63L687.14,189.26L687.32,365.69L687.61,279.83L687.62,292.65L687.76,169.5L687.99,358.11L688.36,269.19L688.38,265.9L688.55,189.21L688.67,340.69L688.75,241.33L688.76,202.87L688.79,146.65L689.36,340.22L689.49,285.97L689.5,295.56L689.74,379.53L690.16,143.25L690.27,167.73L690.28,190.96L690.73,330.38L690.84,139.07L691.08,272.63L691.1,238.52L691.18,144.86L691.41,333.93L691.82,276.79L691.84,262.11L692.11,365.47L692.53,128.11L692.63,163.19L692.65,149.71L692.88,133.97L693.12,324.38L693.32,179L693.33,161.14L693.8,333.6L694,203.85L694.02,195.39L694.49,386.7L694.83,332.66L694.84,277.14L695.28,127.26L695.51,325.46L695.64,160.61L695.65,200.12L695.73,134.76L695.85,315.01L696.38,187.66L696.4,172.4L696.41,157.09L696.89,367.82L697.12,207.36L697.14,213.08L697.22,341.8L697.68,101.38L697.89,303.6L697.91,319.57L698.02,98.71L698.59,323.71L698.67,204.13L698.69,160.6L698.7,154.38L698.93,341.42L699.24,269.2L699.26,313.11L699.29,348.02L699.71,106.44L699.97,246.31L699.99,206.44L700.3,295.79L700.4,98.66L700.77,120.48L700.78,175.74L701.08,99.86L701.32,302.15L701.52,171.48L701.54,162.38L701.69,347.3L701.87,163.07L701.88,150.17L701.89,149.17L701.94,210.2L701.95,225.45L702.01,311.26L702.22,97.96L702.44,118.55L702.45,72.37L702.69,285.47L702.79,60.16L702.98,198L702.99,214.19L703.03,290.76L703.15,67.41L703.56,138.05L703.58,117.38L703.59,103.36L704.1,348.93L704.29,142.12L704.3,161.5L704.62,85.72L705.09,303.91L705.1,238.39L705.43,341.59L705.88,112.17L705.9,124.82L706.51,347.59L706.65,168.14L706.67,156.1L706.79,295.38L706.89,83.03L706.99,119.9L707.01,106.31L707.14,292.83L707.69,67.12L707.82,283.05L707.83,214.3L707.92,49.2L708.5,320.94L708.53,292.5L708.55,290.17L708.72,179.91L708.86,356.02L709.2,254.46L709.22,230.65L709.4,131.19L709.87,329.5L709.89,330.08L709.91,332.69L710.09,141.45L710.19,260.1L710.2,309.33L710.21,315.74L710.43,107.44L710.74,187.73L710.75,167.4L711.11,142.43L711.27,342.52L711.28,336.41L711.3,332.13L711.68,67.39L712.19,159.24L712.21,179.5L712.48,67.99L712.95,288.96L712.96,229.92L712.98,202.9L713.05,98.62L713.66,344.39L713.68,349.16L714.09,86.55L714.57,177.33L714.59,199.81L714.64,312.43L714.77,80.82L715.34,310.44L715.36,247.77L715.56,144.67L716.07,339.75L716.08,337.11L716.92,97.06L716.98,177.81L716.99,197.89L717.05,286.7L717.15,92.76L717.61,178.29L717.62,176.57L718.08,340.32L718.25,193.55L718.26,192.47L718.29,182.75L718.46,373.95L718.73,272.58L718.75,320.2L718.85,152.31L718.86,113.77L719.09,304.85L719.2,93.23L719.37,191.42L719.39,210.14L719.66,94.49L720.11,312.51L720.14,243.85L720.16,205.64L720.24,100.44L720.84,338.84L720.85,342.68L720.87,346.21L720.94,288.48L720.95,291.89L720.97,219.75L721.14,310.09L721.37,90.72L721.72,122.01L721.74,149.18L721.85,320.3L722.39,96.15L722.52,285.67L722.54,226.32L722.74,105.18L723.26,320.83L723.28,317.53L723.66,58.24L724.15,121.5L724.16,149.55L724.23,288.52L724.46,73.69L724.93,270.67L724.94,202.62L725.04,97.36L725.61,336.71L725.63,342.25L725.67,350.54L725.7,317.98L725.71,362.52L725.73,410.54L726.18,180.66L726.37,196.83L726.38,150.7L726.97,288.33L727.08,86.62L727.11,155.15L727.12,197.59L727.19,127.95L727.29,253.74L727.31,297.64L727.55,124.1L728.02,345.73L728.03,352.45L728.05,358.81L728.23,180.71L728.36,239.1L728.38,214.49L728.68,316.42L728.79,125.39L728.99,235.21L729,269.82L729.03,343.61L729.47,82.36L729.72,256.33L729.73,201.79L729.83,80.63L730.43,322.69L730.44,319.19L730.46,325.81L730.47,327.82L730.57,202.77L730.58,192.95L730.73,307L730.96,94.34L731.34,163.27L731.35,182.19L731.41,286.62L731.87,75.91L731.94,118.33L731.95,108.4L731.98,75.75L732.09,273.2L732.66,130.31L732.68,139.71L733.35,100.29L733.49,313.44L733.52,301.62L733.53,303.53L734.03,63.62L734.29,183.73L734.3,224.8L734.37,167.61L734.47,273.48L734.49,317.42L734.62,120.83L735.13,215.14L735.14,224.9L735.23,330.3L735.74,110.29L735.76,117.98L735.86,281.6L736.43,61.12L736.55,253.06L736.57,184.81L736.88,286.74L737.01,77.85L737.22,267.19L737.24,275.6L737.62,306.73L738.02,49.89L738.04,51.02L738.05,80.51L738.25,266.91L738.36,39.73L738.8,102.52L738.82,87.02L739.27,295.54L739.39,84.18L739.47,128.92L739.49,111.13L739.5,104.29L739.63,268.94L739.94,268.92L739.96,317.92L740.02,349.27L740.53,109.33L740.66,283.23L740.67,235.31L740.76,83.38L741.34,292.99L741.41,243.38L741.43,216.05L741.78,126.42L742.01,292.17L742.15,242.65L742.17,250.28L742.41,338.55L742.81,160.28L742.92,182.71L742.94,189.47L743.04,326.8L743.15,125.43L743.73,309.49L743.75,262.13L743.95,194.02L744.42,351.39L744.47,307.91L744.49,314.55L744.62,211.9L744.89,379.16L745.04,318.76L745.06,326.9L745.43,360.55L745.56,219.88L745.63,235.33L745.64,225.12L745.66,221.68L745.76,304.34L745.77,342.44L745.78,349.32L746,187.05L746.33,214.78L746.34,204.1L746.81,341.21L746.95,279.18L746.97,236.38L747.24,377.4L747.71,170.74L747.72,183.17L747.74,200.83L748.18,324.16L748.39,177.68L748.52,315.72L748.53,280.21L748.73,187.38L749.2,328.4L749.23,317.71L749.25,323.7L749.39,224L749.59,386.42L749.7,312.67L749.72,264.26L749.89,337.01L750.44,183.33L750.49,225.19L750.5,248.64L750.91,332.09L751.13,187.04L751.26,327.63L751.27,279.04L751.47,172.36L751.98,368.7L752,374.16L752.1,332.92L752.11,273.39L752.27,352.97L752.72,175.29L752.88,251.99L752.89,264.49L753.29,336.15L753.41,176.71L753.49,209L753.51,192.87L753.52,182.02L753.99,352.37L754.12,330.68L754.13,345.46L754.33,388.21L754.89,186.82L754.92,217.6L754.93,235.74L755.07,218.69L755.7,353.51L755.71,310.42L755.73,281.61L756.03,309.12L756.14,146.55L756.35,271.04L756.37,305.81L756.57,210.33L756.77,382.19L757.08,296.48L757.1,260.08L757.74,325.08L757.87,164.32L757.88,176.22L757.89,215.82L758.19,136.91L758.42,295.99L758.62,194.91L758.63,184.97L758.65,179.3L758.78,342.18L759.05,260.9L759.06,276.16L759.16,368.81L759.5,186.08L759.53,195.73L759.55,169.31L759.56,130.09L760.13,321.68L760.27,218.37L760.29,253.02L760.49,294.15L760.7,177.9L761,216.5L761.01,202.52L761.36,184.59L761.51,328.82L761.53,335.44L761.55,343.6L761.73,195.71L761.87,230.66L761.88,197.2L761.97,120.46L762.54,288.77L762.65,172.13L762.67,184.86L762.75,144.44L762.88,287.03L763.41,180.05L763.42,169.44L763.44,167.39L763.49,232.19L763.51,243.04L763.75,196L763.92,358.86L764.25,300.67L764.26,251.21L764.8,181.2L764.93,344.67L765.04,210.24L765.06,227.96L765.27,335.37L765.71,182.63L765.8,202.16L765.81,196.26L765.96,315.8L766.16,187.47L766.26,296.91L766.27,324.61L766.31,369.97L766.84,170.74L766.98,262.76L767,223.63L767.31,301.74L767.42,156.87L767.78,164.29L767.79,196.27L767.87,140.59L768.72,379.36L768.76,365.69L768.78,350.86L769.23,213.55L769.4,375.48L769.42,375.81L770.26,145.15L770.32,213.71L770.33,232.25L770.73,310.39L770.93,143.86L771.11,302.86L771.13,298.81L771.28,148.73L771.4,263.77L771.41,269.15L771.97,126.89L772.1,272.53L772.18,184.25L772.2,163.94L772.44,283.53L772.65,124.83L772.91,194.5L772.92,218.08L772.98,148.04L773.45,316.93L773.46,360.72L773.48,367.25L773.66,181.22L773.68,186.28L773.81,292.31L773.91,159.98L773.92,146.33L774.02,131.73L774.49,292.57L774.67,187.76L774.69,173.49L774.82,298.88L775.27,150.04L775.4,173.06L775.42,192.8L775.7,182.74L775.9,370.73L776.2,301.97L776.21,243.43L776.88,304.73L777,124.91L777.01,138.54L777.03,170.86L777.22,285.98L777.44,105.26L777.75,152.76L777.77,140.5L777.78,131.18L778.26,342.9L778.32,326.43L778.34,315.97L779.15,78.91L779.19,147.01L779.2,172.92L779.72,108.73L779.95,400.78L779.97,253.35L779.99,202.72L780.17,107.71L780.64,362.58L780.67,345.98L780.69,347.23L780.7,349.08L780.8,254.39L780.81,212.89L780.99,325.02L781.2,172.4L781.27,264.94L781.28,280.84L781.33,329.08L781.43,141.61L781.44,131.89L782,343.42L782.2,187.69L782.21,170.47L782.34,329.2L782.47,131.92L782.68,310.31L782.7,324.45L783.04,354.89L783.49,145.12L783.51,154.98L783.52,185.94L783.59,140.16L784.06,307.37L784.13,216.06L784.15,172.54L784.18,133.36L784.79,389.53L784.85,353.09L784.86,350.68L784.89,352.57L784.9,297.12L785.26,197.02L785.47,374.36L785.67,222.89L785.69,241.52L785.76,333.62L786.33,117.53L786.46,280.78L786.47,224.07L786.9,93.63L787.14,338.69L787.18,303.01L787.2,299.59L787.23,316.34L787.25,264.15L787.28,273.85L787.3,201.2L787.35,136.38L787.87,353.86L788.05,174.71L788.07,217.21L788.28,113.71L788.51,324.37L788.85,315.1L788.86,227.23L788.95,69.68L789.18,298.93L789.63,138.24L789.65,151.46L789.75,146.3L790.22,369.37L790.4,216.22L790.42,208.4L790.56,377.46L790.76,189.26L790.84,292.93L790.86,300.43L790.89,311.96L790.99,165.72L791,142.14L791.23,337.55L791.36,125.56L791.56,271.06L791.57,311.4L791.58,311.21L791.6,243.62L792.03,97.46L792.27,317.05L792.35,222.2L792.37,203.96L792.45,132.63L792.58,267.39L792.6,317.5L792.62,342.29L793.07,61.36L793.29,269.94L793.31,178.84L793.39,58.54L793.98,282.56L794.06,131.26L794.08,92.85L794.66,310.59L794.86,161.31L794.88,161.77L795.02,337.92L795.2,152.87L795.22,139.32L795.33,268.25L795.8,29.22L795.89,70.46L795.9,51.54L796.14,41.16L796.71,266.42L796.73,203.48L796.81,76.78L797.4,333.54L797.44,326.73L797.45,325.78L797.82,68.68L797.84,29.18L797.85,29L797.87,58.19L798.18,30.52L798.41,252.37L798.62,82.09L798.64,74.75L798.88,37.24L799.45,276.37L799.46,256.63L799.8,322.62L800.25,73.58L800.33,94.41L800.35,122.9L800.57,69.69L800.8,281.1L801.14,277.14L801.16,274.12L801.27,90.18L801.84,295.16L801.91,251.51L801.93,241.69L802.18,351.77L802.74,97.03L802.75,122.28L803.21,283.89L803.32,65.66L803.55,280.61L803.56,211.92L803.89,291.85L803.99,49.36L804.29,234.78L804.31,216.01L804.59,320.13L805.02,107.93L805.1,150.58L805.12,131.51L805.13,130.69L805.16,170.59L805.17,191.73L805.72,74.27L805.94,322.17L806,307.1L806.02,300.76L806.5,137.08L806.63,326.68L806.84,170.27L806.86,174.36L806.98,333.95L807.43,78L807.65,290.57L807.67,226.78L807.75,103.84L808,286.85L808.42,177.59L808.44,139.64L808.45,130.66L809.01,297.16L809.02,314.93L809.38,343.64L809.82,125.2L809.9,146.73L809.92,138.77L810.15,116.8L810.73,323.83L810.74,283.3L810.76,241.29L811.17,125.43L811.41,317.04L811.47,281.41L811.49,282.31L811.77,358.71L812.21,178.23L812.3,193.43L812.31,187.49L812.44,344.23L812.87,224.45L812.88,182.39L813.12,318.92L813.34,142.77L813.59,165.52L813.61,201.3L813.68,173.43L814.19,353.56L814.35,205.48L814.36,197.02L814.49,319.08L814.93,141.44L814.95,137.1L815.17,296.21L815.29,132.53L815.7,183.57L815.72,166.54L815.73,155.9L816.2,319.24L816.41,208.96L816.43,219.63L816.54,365.58L817.1,131.87L817.23,293.4L817.24,246.43L817.43,130.42L817.57,313.29L818.01,155.32L818.02,156.5L818.04,157.01L818.05,197.08L818.12,142L818.59,315.75L818.76,188.09L818.78,164.99L818.96,355.94L819.49,121.01L819.53,181.05L819.55,203.32L819.62,305.73L820.18,111.65L820.3,295.99L820.32,245.34L820.52,115.11L820.99,298.16L821.07,239.08L821.09,217.31L821.1,216.63L821.13,245.37L821.14,217.79L821.16,176.32L821.4,334.49L821.88,130.21L821.91,167.21L821.93,191.44L822.01,303.75L822.57,114.78L822.7,290.98L822.71,241.42L823.04,295.51L823.15,100.02L823.45,247.54L823.47,229.28L823.72,325.67L824.18,120.28L824.25,165.08L824.26,158.13L824.41,312.37L824.51,124.55L824.72,253L824.73,291.37L824.85,106.14L825.09,313.1L825.18,149.94L825.19,111.49L825.25,200.71L825.3,109.8L825.37,198.93L825.39,214.19L825.55,109.61L826.13,332.69L826.2,318.5L826.22,296.57L826.46,296.69L826.67,82.17L827.06,137.81L827.07,157.86L827.48,268.24L827.6,66.42L827.84,202.77L827.85,164.38L827.94,50.88L828.17,275.03L828.47,202.69L828.48,216.62L828.52,297.87L828.96,86.24L829.22,195.65L829.24,183.09L829.41,95.57L829.53,287.11L829.96,145.44L829.98,103.04L830.22,291.05L830.33,88.28L830.53,225.01L830.55,268.88L830.77,132.9L830.94,343.03L831.26,237.44L831.27,194.87L831.59,279.46L831.7,63.16L831.9,214.02L831.91,264.95L832.04,63.35L832.27,277.83L832.36,110L832.37,82.38L832.81,57.58L832.95,285.86L833.11,189.75L833.12,142.88L833.17,131.72L833.3,325.67L833.59,237.4L833.61,250.23L833.64,302.05L833.75,79.31L834.34,225.85L834.35,189.25L834.53,66.65L834.68,313.11L835.12,141.7L835.13,163.62L835.22,93.69L835.72,320.34L835.86,146.97L835.87,139.85L835.89,140.63L835.9,123.18L835.93,133.65L835.95,163.33L836.14,49.65L836.36,299.33L836.71,266.88L836.73,212.84L837.04,262.85L837.51,43.31L837.53,62.76L838.12,319.83L838.28,143.23L838.3,130.63L838.31,130.81L838.32,150.71L838.54,47.26L838.75,287.08L838.97,97.64L838.98,89.09L839.22,63.74L839.44,263.22L839.79,258.43L839.81,199.87L840.01,92.51L840.5,315.35L840.52,315.02L840.53,311.32L840.92,68.69L841.13,207L841.14,255.8L841.27,58.8L841.44,191.58L841.46,208.04L841.71,61.28L842.17,298.01L842.18,279.77L842.2,217.96L842.4,115.74L842.91,340.72L842.93,340.86L843.42,52.97L843.81,127.39L843.82,174L844.11,98.67L844.56,303.71L844.59,247.08L844.61,216.59L844.79,136.53L845.26,328.02L845.28,331.95L845.39,345.17L845.49,214.26L845.62,254L845.63,217L845.93,296.48L846.06,87.59L846.42,119.77L846.43,163.79L846.5,90.66L846.6,223.97L846.61,280.16L846.67,289.01L846.84,115.46L847.04,188.73L847.06,166.04L847.18,98.67L847.73,327.14L847.78,275.89L847.8,271.84L848,283.53L848.22,97.2L848.31,200.57L848.32,219.63L848.68,271.79L848.91,74.02L849.05,196.53L849.07,159.98L849.14,54.34L849.38,264.97L849.79,214.69L849.81,193.59L850.12,298.03L850.62,68.03L850.63,74.01L850.65,100.62L850.73,265.19L851.3,69.91L851.44,205.63L851.46,171.94L851.76,278.12L851.99,88.79L852.16,212.88L852.17,215.81L852.34,112.46L852.5,302.16L852.66,113.65L852.67,100.21L852.68,99.69L852.7,119.15L852.71,138.85L853.01,118.91L853.47,293.33L853.48,289.19L853.5,233.42L853.7,97.65L853.82,307.49L854.28,120.59L854.29,144.76L854.38,106.64L854.85,311.14L855.03,142.69L855.05,127.15L855.29,83.3L855.53,282.39L855.76,136.24L855.77,153.1L856.2,292.44L856.32,88.56L856.42,104.62L856.43,93.22L857.3,311.23L857.31,308.11L857.33,295.86L857.57,297.7L857.8,99.99L858.18,162.46L858.2,182.1L858.3,307.95L858.82,139.3L858.95,294.54L858.97,231.24L859.05,103.34L859.68,327.67L859.69,320.03L859.71,313.28L860.53,101.95L860.56,129.74L860.58,152.67L860.87,76.56L861.33,280.6L861.34,269.12L861.36,210.39L861.46,104.71L862.07,320.58L862.09,316.1L862.93,79.67L862.98,156.42L863,175.19L863.04,268.47L863.17,50.49L863.75,204.86L863.77,173.33L863.84,103.47L864.14,286.42L864.39,220.84L864.41,307.01L864.42,407.94L864.98,49.08L865.13,156.85L865.15,149.97L865.21,59.25L865.23,95.8L865.25,164.92L865.33,41.09L865.78,249.87L866.02,90.79L866.03,116.83L866.84,337.47L866.87,330.45L866.89,320.59L867.37,119.8L867.71,130.58L867.73,129.72L868.51,310.62L868.54,250.8L868.55,213.2L868.64,142.62L869.19,311.53L869.21,336.02L869.76,153.17L870.02,232.98L870.03,259.29L870.11,193.9L870.21,277.47L870.22,314.47L870.79,146.11L870.89,239.78L870.9,279.67L870.92,284.16L871.02,141.46L871.1,161.21L871.12,153.12L871.13,137.05L871.63,352.58L871.79,254.54L871.8,274.19L872.03,419.99L872.48,213.7L872.5,198.7L872.63,314.01L873.18,161.04L873.2,162.15L874.01,337.74L874.02,334.17L874.04,335.61L874.18,200.5L874.31,282.28L874.32,328.4L874.41,354.7L874.89,138.2L875.02,278.59L875.03,231.21L875.23,147.07L875.7,296.07L875.82,154.74L875.83,174.42L875.92,151.64L876.42,361.62L876.6,227.11L876.62,216.45L876.84,152.3L877.41,323.46L877.43,276.23L877.74,317.85L878.21,159.89L878.23,187.99L878.31,177.19L878.82,378.36L878.98,246.78L879,234.81L879.12,322.84L879.57,168.01L879.58,166.62L879.68,139.62L880.15,327.4L880.33,207.78L880.35,198.62L880.49,317.2L881.02,168.92L881.08,205L881.09,226.99L881.19,348.5L881.63,112.37L881.72,120.93L881.73,111.32L882.53,294.24L882.54,276.49L882.56,226.67L882.87,279.55L883.1,146.05L883.28,263.08L883.3,270.17L883.63,368.94L884.12,115.39L884.14,125.34L884.59,273.79L884.81,90.19L884.94,240.5L884.95,204.36L885.15,108.12L885.62,291.4L885.66,258.89L885.68,267.42L885.83,181.65L886,343.38L886.37,209.42L886.39,183.11L886.52,137.06L886.65,296.59L887.13,214.41L887.14,232.95L887.33,281.87L887.54,91.11L887.91,162.66L887.93,178.6L888.21,154.49L888.37,322.81L888.74,279.2L888.75,284.38L888.91,195.13L889.02,309.08L889.04,328.73L889.08,337.17L889.25,213.75L889.54,242.54L889.55,196.87L889.71,285.08L890.18,91.81L890.32,164.22L890.33,180.18L890.51,327.56L890.95,149.81L891.09,236.94L891.1,202.89L891.42,293.86L891.63,127.4L891.75,276.02L891.76,286.56L891.86,112.06L892.53,186.98L892.54,146.2L892.56,138.85L892.78,304.85L893.06,229.47L893.07,246.16L893.17,341.53L893.58,94.17L893.81,264.15L893.82,202.38L894.14,279.88L894.37,96.28L894.62,125.43L894.64,185.63L894.95,89.63L895.18,270.1L895.36,135.97L895.38,129.53L895.59,311.03L895.69,171.11L895.71,154.7L895.86,261.68L896.3,61.96L896.47,136.36L896.49,155.09L896.76,28.2L897.23,221.61L897.24,162.15L897.26,141.03L897.33,86.82L897.93,311.11L897.94,299.5L897.96,298.65L897.97,299.28L898.01,258.95L898.06,268.13L898.07,211.83L898.37,62.02L898.58,242.48L898.83,106.41L898.84,135.96L899.49,67.4L899.61,302.37L899.62,259.69L899.64,186.47L899.72,83.69L900.32,321.99L900.36,305.62L900.38,292.06L900.43,311.26L901.2,73.88L901.25,132.86L901.26,158.19L901.43,80.32L901.49,346.97L901.87,104.17L901.89,97.47L902.76,344.09L902.77,337.05L902.79,325.62L903.04,332.71L903.5,107.7L903.63,161.23L903.64,183.52L903.94,141.9L904.42,395.55L904.44,394L905.28,179.36L905.29,181.25L905.31,170.97L905.44,306.73L905.89,131.66L905.96,150.87L905.98,135.5L906.12,286.82L906.33,113.55L906.45,249.99L906.46,259.3L906.9,119.6L907.14,276.36L907.2,228.8L907.22,236.78L907.33,146.49L907.5,357.41L907.77,268.21L907.79,283L907.83,338.62L907.94,136.08L908.51,303.19L908.53,261.7L909.18,312.61L909.3,136.38L909.31,143.78L909.32,158.26L909.72,149.78L909.92,413.32L910.08,188.12L910.09,189.44L910.44,149.7L910.55,343.01L910.66,164.05L910.68,163.16L910.91,356.98L911.36,138.53L911.43,190.86L911.45,163.07L911.46,161.79L911.5,233.88L911.52,262.71L911.69,149.18L912.3,382.4L912.33,370.03L912.34,362.39L912.73,130.18L913.18,162.18L913.2,202.53L913.3,319.68L913.74,88.07L913.98,303.86L914,233.06L914.08,91.59L914.71,366.25L914.72,369.17L914.74,370.89L914.81,339.94L914.82,270.46L915.22,195.13L915.38,370.1L915.59,230.77L915.61,267.71L915.68,336.17L915.81,132.08L916.38,324.29L916.39,268.9L916.59,146.13L917.06,374.23L917.1,349.94L917.12,340.85L917.52,153.18L917.73,342.36L917.74,363.03L918.09,363.19L918.53,138.23L918.56,162.29L918.57,194.42L918.77,331.15L918.88,116.47L919.05,250.16L919.07,271.51L919.45,385.13L919.67,186.96L919.81,271.55L919.82,231.78L920.01,160.16L920.14,314.06L920.45,285.71L920.46,319.9L920.48,326.27L920.59,152.79L920.66,156.77L920.68,136.53L920.82,289.7L920.93,109.33L921.13,247.17L921.15,295.06L921.16,297.07L921.22,167.24L921.23,180.13L921.25,147.58L921.26,103.68L921.85,377.59L921.95,356.63L921.96,356.85L921.99,362.87L922.06,214.68L922.22,219.6L922.23,185.85L922.29,141.4L922.53,343.29L922.62,200.48L922.63,150.24L922.86,340.78L922.97,145.93L923.11,225.51L923.13,256.15L923.33,129.71L923.54,382.1L923.91,363.54L923.93,348.88L924.07,229.4L924.25,438.6L924.71,255.26L924.72,272.11L924.92,380.19L925.04,196.91L925.49,228.68L925.51,249.68L925.61,415.24L926.16,168.24L926.29,338.83L926.3,305.13L926.65,353.51L927.09,100.32L927.19,133.34L927.2,162.3L927.32,409.63L927.42,157.31L927.74,169.65L927.76,141.66L927.77,139.84L927.93,232.84L927.94,249.05L928.11,126.34L928.68,315.55L928.71,285.4L928.73,279.99L928.76,286.26L928.8,247.4L928.83,268.93L928.84,206.91L929.03,376.53L929.48,106.54L929.6,154.23L929.61,170.93L929.71,320.84L929.82,111.45L930.39,302.95L930.41,244.73L930.61,118.06L931.08,313.56L931.13,268.17L931.15,274.72L931.42,366.64L931.87,170.98L931.93,218.84L931.95,210.89L931.97,182.44L932.43,351.46L932.67,224.16L932.69,250.71L932.9,151.43L933.13,367.07L933.48,335.34L933.5,309.23L933.83,373.34L934.25,160.7L934.3,243.15L934.31,252.03L934.5,346.14L934.61,163.93L935.08,214.51L935.09,236.16L935.64,179.66L935.86,346.87L935.89,301.9L935.91,294.1L936.03,205.67L936.22,393.58L936.53,342.67L936.55,351.34L936.76,171.58L937.35,184.82L937.36,196.7L937.57,348.78L937.69,188.14L938.11,218.06L938.13,204.76L938.61,384.06L938.77,234.09L938.78,228.43L938.94,351.24L939.05,163.86L939.25,331.3L939.27,362.47L939.28,371.87L939.84,207.84L939.97,365.39L939.98,307.69L940.52,182.62L940.65,350.14L940.72,314.84L940.74,303.54L941.03,392.79L941.55,173.23L941.56,183.22L941.58,207.12L941.68,349.4L942.23,161.1L942.37,293.59L942.39,260.84L942.47,167.49L942.7,336.87L942.97,243.17L942.99,258.56L943.21,186.46L943.43,377.67L943.73,315.3L943.74,267.46L943.94,129.92L944.41,321.69L944.52,173.34L944.54,190.76L944.62,143.88L945.09,325.11L945.29,199.43L945.31,188.35L945.79,373.34L945.94,277.76L945.95,234.39L946.46,330.98L946.68,160.35L946.7,186.85L946.72,208.28L946.8,325.35L947.02,144.48L947.49,304.57L947.5,254.99L947.7,167.99L948.16,345.2L948.17,379.91L948.19,391.83L948.6,190.54L948.61,147.52L948.63,142.99L948.8,266.73L948.81,282.92L948.86,348.33L949.07,155.44L949.3,155.79L949.31,149.53L949.54,334.29L950,142.9L950.05,191.88L950.07,183.69L950.09,154.83L950.61,388.48L950.79,212.7L950.81,227.47L951.25,339.28L951.36,131.35L951.6,296.58L951.62,274.62L951.92,351.56L952.39,120.93L952.4,145.67L952.42,190.37L952.49,149.32L952.97,360.32L953.3,331.08L953.31,271.96L953.64,318.77L954.1,99.25L954.11,133.29L954.13,191.85L954.33,330.22L954.78,117.88L954.85,169.08L954.87,158.71L954.9,149.53L955.01,326.72L955.34,308.64L955.35,341.24L955.39,345.09L955.51,277.5L955.52,226.88L955.68,324.18L955.79,138.16L956.28,192.81L956.29,215.47L956.38,331.17L956.83,124.64L956.92,143.89L956.93,130.73L957.17,124.59L957.4,309.2L957.56,218.39L957.57,171.01L957.76,348.91L957.96,157.09L958.06,257.1L958.07,304.6L958.13,178.33L958.14,173.85L958.19,103.35L958.43,305.83L958.61,175.44L958.63,140.16L958.64,136.32L958.77,327.39L959.07,258.72L959.08,270.11L959.21,196.65L959.8,373.11L959.85,336.82L959.87,324.41L960.2,385.83L960.69,147.72L960.74,195.56L960.75,220.03L960.81,325.19L960.94,115.58L961.51,306.91L961.52,249.11L961.96,119.64L962.19,317.12L962.27,242.49L962.29,220.58L962.3,220.37L962.32,241.3L962.55,352.52L962.96,124.93L962.97,85.03L962.99,80.05L963.17,218.01L963.19,238.49L963.67,76.14L963.88,310.38L963.93,235.54L963.94,215.45L964.11,108.76L964.2,241.43L964.21,259.27L964.35,92.86L964.98,327.91L965,314.26L965.37,54.66L965.85,129.96L965.86,152.71L966.28,287.6L966.39,58.01L966.63,275.69L966.65,205.05L966.75,68.7L967.36,333.33L967.37,330.79L967.76,86.68L967.96,224.55L967.97,243.33L968.44,87.11L968.67,316.73L968.71,218.71L968.73,200.55L968.9,111.23L969.37,323.29L969.43,285.88L969.44,287.26L969.75,369.75L970.15,125.51L970.25,136.54L970.27,122.62L970.72,308.77L970.85,99.03L971.08,303.64L971.09,244.01L971.19,149.77L971.46,362.26L971.79,306.54L971.81,301.6L971.98,183.64L972.06,247.53L972.08,270.45L972.15,362.7L972.66,96.46L972.8,238.03L972.82,189.51L973.12,330.38L973.59,87.59L973.6,119.42L973.61,172.91L973.67,381.28L973.91,105.07L974.1,236.56L974.11,250.07L974.36,185.18L974.54,372.72L974.7,198L974.71,183.56L974.73,182.79L974.74,202.12L974.75,218.54L974.83,339.98L974.94,94.6L975.27,145.15L975.28,98.75L975.31,122.55L975.32,187.3L975.4,117.78L975.51,323.73L975.61,159.98L975.62,124.73L975.74,109.87L975.82,222.73L975.84,245.75L975.85,305.25L975.96,82.47L976.59,261.66L976.61,259.08L976.76,143.08L976.88,303.19L976.89,323.21L976.93,336.77L977.08,171.71L977.09,159.82L977.45,81.29L977.56,302.47L977.82,162.08L977.83,187.03L977.9,314.61L978.03,91.98L978.44,176.8L978.46,154.34L978.47,139.93L978.94,352.03L979.17,194.01L979.18,199.51L979.3,357.93L979.5,223.41L979.51,204.9L979.58,274.28L979.6,290.43L979.63,352.54L980.08,110.89L980.32,324.06L980.34,262.31L980.67,340.48L981.12,109.05L981.14,140.83L981.22,118.32L981.73,324.28L981.89,159.07L981.91,151.24L982.02,338.41L982.13,92.81L982.15,97.43L982.36,316.42L982.48,75.04L982.9,149.49L982.92,137.06L982.93,122.78L983.06,328.08L983.57,186.28L983.59,255.91L984.13,343.82L984.3,159.95L984.33,193.89L984.34,213.55L984.41,327.67L984.64,97.55L984.95,173.66L984.97,147.73L984.98,125.9L985.1,328.89L985.69,197.44L985.71,217.92L985.89,195.47L986.52,364.5L986.54,364.01L986.55,361.06L987.03,170.6L987.39,192.93L987.4,213.29L987.49,335.7L987.6,153.36L988.19,333.16L988.2,284.37L988.4,176.69L988.89,353.52L988.9,358.3L988.93,366.43L989.33,201.69L989.38,228.65L989.4,227.22L989.77,187.61L989.88,335.13L990.15,224.64L990.17,249.35L990.81,220.39L990.92,356.28L990.95,318.01L990.97,314.21L991.34,395.22L991.49,227.52L991.61,326.63L991.62,264.85L991.93,337.05L992.4,164.68L992.42,189.66L992.73,151.87L992.96,374.69L993.17,237.71L993.19,223.15L993.67,443.88L993.83,204.53L993.99,373.52L994,345.62L994.21,120.08L994.75,253.48L994.77,252.86L995.01,318L995.24,145.2L995.52,223.9L995.54,193.1L995.6,156.78L995.71,317.55L996.04,310.17L996.05,327.7L996.07,334.03L996.26,179.13L996.55,266.65L996.56,230.44L996.79,391.9L996.95,222L997.12,240.92L997.13,203.89L997.29,138.48L997.4,296.32L997.6,168.8L997.62,135L997.63,129.74L997.75,280.03L998.07,263.02L998.09,297.86L998.32,166.84L998.46,333.74L998.83,292.6L998.84,293.52L998.86,301.11L998.97,221.11L999,248.03" style="vector-effect: non-scaling-stroke; fill: none; stroke: rgb(99, 110, 250); stroke-opacity: 1; stroke-width: 2px; opacity: 1;"/></g><g class="points"/><g class="text"/></g></g></g><g class="overplot"/><path class="xlines-above crisp" d="M120,664.5H1120" style="fill: none; stroke-width: 1px; stroke: rgb(255, 255, 255); stroke-opacity: 1;"/><path class="ylines-above crisp" d="M120.5,100V664" style="fill: none; stroke-width: 1px; stroke: rgb(255, 255, 255); stroke-opacity: 1;"/><g class="overlines-above"/><g class="xaxislayer-above"><g class="xtick"><text text-anchor="middle" x="0" y="696.2" transform="translate(121,0)" style="font-family: 'Open Sans', verdana, arial, sans-serif; font-size: 26px; fill: rgb(42, 63, 95); fill-opacity: 1; white-space: pre;">2011</text></g><g class="xtick"><text text-anchor="middle" x="0" y="696.2" transform="translate(245.79000000000002,0)" style="font-family: 'Open Sans', verdana, arial, sans-serif; font-size: 26px; fill: rgb(42, 63, 95); fill-opacity: 1; white-space: pre;">2012</text></g><g class="xtick"><text text-anchor="middle" x="0" y="696.2" transform="translate(370.91999999999996,0)" style="font-family: 'Open Sans', verdana, arial, sans-serif; font-size: 26px; fill: rgb(42, 63, 95); fill-opacity: 1; white-space: pre;">2013</text></g><g class="xtick"><text text-anchor="middle" x="0" y="696.2" transform="translate(495.72,0)" style="font-family: 'Open Sans', verdana, arial, sans-serif; font-size: 26px; fill: rgb(42, 63, 95); fill-opacity: 1; white-space: pre;">2014</text></g><g class="xtick"><text text-anchor="middle" x="0" y="696.2" transform="translate(620.51,0)" style="font-family: 'Open Sans', verdana, arial, sans-serif; font-size: 26px; fill: rgb(42, 63, 95); fill-opacity: 1; white-space: pre;">2015</text></g><g class="xtick"><text text-anchor="middle" x="0" y="696.2" transform="translate(745.3,0)" style="font-family: 'Open Sans', verdana, arial, sans-serif; font-size: 26px; fill: rgb(42, 63, 95); fill-opacity: 1; white-space: pre;">2016</text></g><g class="xtick"><text text-anchor="middle" x="0" y="696.2" transform="translate(870.43,0)" style="font-family: 'Open Sans', verdana, arial, sans-serif; font-size: 26px; fill: rgb(42, 63, 95); fill-opacity: 1; white-space: pre;">2017</text></g><g class="xtick"><text text-anchor="middle" x="0" y="696.2" transform="translate(995.22,0)" style="font-family: 'Open Sans', verdana, arial, sans-serif; font-size: 26px; fill: rgb(42, 63, 95); fill-opacity: 1; white-space: pre;">2018</text></g><g class="xtick"><text text-anchor="middle" x="0" y="696.2" transform="translate(1120.01,0)" style="font-family: 'Open Sans', verdana, arial, sans-serif; font-size: 26px; fill: rgb(42, 63, 95); fill-opacity: 1; white-space: pre;">2019</text></g></g><g class="yaxislayer-above"><g class="ytick"><text text-anchor="end" x="114.8" y="9.1" transform="translate(0,604.1600000000001)" style="font-family: 'Open Sans', verdana, arial, sans-serif; font-size: 26px; fill: rgb(42, 63, 95); fill-opacity: 1; white-space: pre;">3500</text></g><g class="ytick"><text text-anchor="end" x="114.8" y="9.1" transform="translate(0,526.98)" style="font-family: 'Open Sans', verdana, arial, sans-serif; font-size: 26px; fill: rgb(42, 63, 95); fill-opacity: 1; white-space: pre;">4000</text></g><g class="ytick"><text text-anchor="end" x="114.8" y="9.1" transform="translate(0,449.81)" style="font-family: 'Open Sans', verdana, arial, sans-serif; font-size: 26px; fill: rgb(42, 63, 95); fill-opacity: 1; white-space: pre;">4500</text></g><g class="ytick"><text text-anchor="end" x="114.8" y="9.1" transform="translate(0,372.64)" style="font-family: 'Open Sans', verdana, arial, sans-serif; font-size: 26px; fill: rgb(42, 63, 95); fill-opacity: 1; white-space: pre;">5000</text></g><g class="ytick"><text text-anchor="end" x="114.8" y="9.1" transform="translate(0,295.47)" style="font-family: 'Open Sans', verdana, arial, sans-serif; font-size: 26px; fill: rgb(42, 63, 95); fill-opacity: 1; white-space: pre;">5500</text></g><g class="ytick"><text text-anchor="end" x="114.8" y="9.1" transform="translate(0,218.29000000000002)" style="font-family: 'Open Sans', verdana, arial, sans-serif; font-size: 26px; fill: rgb(42, 63, 95); fill-opacity: 1; white-space: pre;">6000</text></g><g class="ytick"><text text-anchor="end" x="114.8" y="9.1" transform="translate(0,141.12)" style="font-family: 'Open Sans', verdana, arial, sans-serif; font-size: 26px; fill: rgb(42, 63, 95); fill-opacity: 1; white-space: pre;">6500</text></g></g><g class="overaxes-above"/></g></g><g class="polarlayer"/><g class="ternarylayer"/><g class="geolayer"/><g class="funnelarealayer"/><g class="pielayer"/><g class="treemaplayer"/><g class="sunburstlayer"/><g class="glimages"/><defs id="topdefs-e0b3f9"><g class="clips"/></defs><g class="layer-above"><g class="imagelayer"/><g class="shapelayer"/></g><g class="infolayer"><g class="g-gtitle"><text class="gtitle" x="60" y="50" text-anchor="start" dy="0em" style="font-family: 'Open Sans', verdana, arial, sans-serif; font-size: 36px; fill: rgb(42, 63, 95); opacity: 1; font-weight: normal; white-space: pre;">North Demand outliers fixed</text></g><g class="g-xtitle"><text class="xtitle" x="620.5" y="737.903125" text-anchor="middle" style="font-family: 'Open Sans', verdana, arial, sans-serif; font-size: 31px; fill: rgb(42, 63, 95); opacity: 1; font-weight: normal; white-space: pre;">Date</text></g><g class="g-ytitle" transform="translate(19.0283203125,0)"><text class="ytitle" transform="rotate(-90,11.971874999999997,382)" x="11.971874999999997" y="382" text-anchor="middle" style="font-family: 'Open Sans', verdana, arial, sans-serif; font-size: 31px; fill: rgb(42, 63, 95); opacity: 1; font-weight: normal; white-space: pre;">Demand</text></g></g></svg>