<svg class="main-svg" xmlns="http://www.w3.org/2000/svg" xmlns:xlink="http://www.w3.org/1999/xlink" width="1200" height="750" style="" viewBox="0 0 1200 750"><rect x="0" y="0" width="1200" height="750" style="fill: rgb(255, 255, 255); fill-opacity: 1;"/><defs id="defs-150897"><g class="clips"><clipPath id="clip150897xyplot" class="plotclip"><rect width="1017" height="564"/></clipPath><clipPath class="axesclip" id="clip150897x"><rect x="103" y="0" width="1017" height="750"/></clipPath><clipPath class="axesclip" id="clip150897y"><rect x="0" y="100" width="1200" height="564"/></clipPath><clipPath class="axesclip" id="clip150897xy"><rect x="103" y="100" width="1017" height="564"/></clipPath></g><g class="gradients"/></defs><g class="bglayer"><rect class="bg" x="103" y="100" width="1017" height="564" style="fill: rgb(229, 236, 246); fill-opacity: 1; stroke-width: 0;"/></g><g class="layer-below"><g class="imagelayer"/><g class="shapelayer"/></g><g class="cartesianlayer"><g class="subplot xy"><g class="layer-subplot"><g class="shapelayer"/><g class="imagelayer"/></g><g class="gridlayer"><g class="x"><path class="xgrid crisp" transform="translate(230.04000000000002,0)" d="M0,100v564" style="stroke: rgb(255, 255, 255); stroke-opacity: 1; stroke-width: 1px;"/><path class="xgrid crisp" transform="translate(357.43,0)" d="M0,100v564" style="stroke: rgb(255, 255, 255); stroke-opacity: 1; stroke-width: 1px;"/><path class="xgrid crisp" transform="translate(484.47,0)" d="M0,100v564" style="stroke: rgb(255, 255, 255); stroke-opacity: 1; stroke-width: 1px;"/><path class="xgrid crisp" transform="translate(611.51,0)" d="M0,100v564" style="stroke: rgb(255, 255, 255); stroke-opacity: 1; stroke-width: 1px;"/><path class="xgrid crisp" transform="translate(738.55,0)" d="M0,100v564" style="stroke: rgb(255, 255, 255); stroke-opacity: 1; stroke-width: 1px;"/><path class="xgrid crisp" transform="translate(865.93,0)" d="M0,100v564" style="stroke: rgb(255, 255, 255); stroke-opacity: 1; stroke-width: 1px;"/><path class="xgrid crisp" transform="translate(992.97,0)" d="M0,100v564" style="stroke: rgb(255, 255, 255); stroke-opacity: 1; stroke-width: 1px;"/></g><g class="y"><path class="ygrid crisp" transform="translate(0,589.35)" d="M103,0h1017" style="stroke: rgb(255, 255, 255); stroke-opacity: 1; stroke-width: 1px;"/><path class="ygrid crisp" transform="translate(0,512.2)" d="M103,0h1017" style="stroke: rgb(255, 255, 255); stroke-opacity: 1; stroke-width: 1px;"/><path class="ygrid crisp" transform="translate(0,435.04)" d="M103,0h1017" style="stroke: rgb(255, 255, 255); stroke-opacity: 1; stroke-width: 1px;"/><path class="ygrid crisp" transform="translate(0,357.89)" d="M103,0h1017" style="stroke: rgb(255, 255, 255); stroke-opacity: 1; stroke-width: 1px;"/><path class="ygrid crisp" transform="translate(0,280.73)" d="M103,0h1017" style="stroke: rgb(255, 255, 255); stroke-opacity: 1; stroke-width: 1px;"/><path class="ygrid crisp" transform="translate(0,203.57999999999998)" d="M103,0h1017" style="stroke: rgb(255, 255, 255); stroke-opacity: 1; stroke-width: 1px;"/><path class="ygrid crisp" transform="translate(0,126.43)" d="M103,0h1017" style="stroke: rgb(255, 255, 255); stroke-opacity: 1; stroke-width: 1px;"/></g></g><g class="zerolinelayer"/><path class="xlines-below"/><path class="ylines-below"/><g class="overlines-below"/><g class="xaxislayer-below"/><g class="yaxislayer-below"/><g class="overaxes-below"/><g class="plot" transform="translate(103, 100)" clip-path="url('#clip150897xyplot')"><g class="scatterlayer mlayer"><g class="trace scatter tracefba7f6" style="stroke-miterlimit: 2; opacity: 1;"><g class="fills"/><g class="errorbars"/><g class="lines"><path class="js-line" d="M0,445.17L0.1,510.41L0.3,387.16L0.62,429.09L0.64,392.35L0.74,474.19L1.26,275.79L1.39,363.13L1.41,389.1L1.45,415.81L1.94,240.19L2.16,394.74L2.18,384.5L2.29,240.25L2.89,459.31L2.9,448.45L3.34,228.87L3.74,317.74L3.76,362.17L4.23,409.32L4.38,238.65L4.51,297.94L4.52,340.1L4.73,226L5.32,456.36L5.34,447.83L5.77,220.54L6.18,313.95L6.19,357.49L6.32,403.32L6.82,221.65L6.95,304.77L6.96,342.83L7.16,234.18L7.76,469.94L7.77,459.17L7.79,444.65L8.56,207.14L8.61,304.18L8.63,353.2L9.11,383.22L9.25,201.1L9.38,293.55L9.4,328.1L9.6,208.01L10.2,461.48L10.21,450.79L10.64,219.92L11.05,311.56L11.07,358.16L11.2,406.5L11.7,224.98L11.82,296.4L11.83,332.07L12.04,212.87L12.63,457.17L12.65,450.24L12.66,438.5L13.44,233.97L13.49,310.08L13.5,347.09L13.63,397.3L13.78,234.75L14.26,317.45L14.27,355.48L14.47,245.37L15.04,477.45L15.05,462.5L15.07,470.28L15.53,262.56L15.92,326.82L15.94,367.62L16.07,417.91L16.58,233.66L16.69,305.55L16.71,345.71L16.91,221.49L17.49,460.72L17.5,451.34L17.52,436.25L17.95,222.68L18.37,303.81L18.39,304L18.84,414.22L19,235.46L19.11,296.01L19.13,327.27L19.35,229.53L19.91,458.63L19.93,472.39L20.74,262.31L20.85,318.3L20.87,353.25L20.93,428.48L21.45,260.32L21.62,420.28L21.64,419.23L21.78,255.24L22.32,461.46L22.33,465.76L22.36,480.08L22.52,437.31L22.54,412.25L22.67,460.62L23.25,295.66L23.29,327.94L23.31,363.67L23.36,428.64L23.87,229.55L24.07,408.16L24.09,406.72L24.16,251.16L24.78,469.31L24.8,479.17L25.26,259.62L25.42,404.03L25.44,421.92L25.61,254.11L25.8,427.8L25.9,266.04L25.92,262.32L26.15,418.57L26.32,229.71L26.66,241.84L26.67,245.71L27.24,493.28L27.57,433.21L27.58,402.59L27.89,420.64L28.05,241.99L28.38,257.47L28.4,258.12L28.74,225.44L28.95,413.39L29.14,279.95L29.15,309.51L29.16,295.21L29.67,487.89L29.8,445.52L29.82,437.27L29.98,461.88L30.08,275.32L30.6,333.53L30.61,368.27L31.02,445.58L31.18,277.73L31.38,437.06L31.4,423.13L31.53,270.82L32.12,502.81L32.14,485.54L32.57,276.58L32.99,300.31L33.01,321.76L33.12,444.27L33.63,273.46L33.73,323.49L33.75,364.04L33.96,268.9L34.53,500.19L34.54,503.56L34.56,504.97L34.6,457.29L34.62,450.16L34.83,476.67L35.01,278.28L35.25,351.29L35.27,313.09L35.55,435.72L36.05,253.83L36.07,254.46L36.24,443.21L36.78,384.99L36.79,370.33L36.97,492.62L37.44,267.52L37.55,316.14L37.56,327.53L38.14,257.33L38.36,460.66L38.37,460.26L38.39,459.96L38.4,440.2L38.55,342.85L38.74,518.59L39.04,510.61L39.05,506.75L39.24,359.32L39.43,529.55L39.68,483.21L39.69,493.27L39.72,499.68L39.81,328.65L39.82,310.75L39.91,305.93L40.01,390.45L40.03,425.32L40.42,458.86L40.61,294.17L40.78,451.94L40.79,436.22L41.27,285.03L41.48,455.93L41.56,371.89L41.58,374.74L41.87,513.23L42.26,305.68L42.3,321.14L42.32,310.55L42.38,306.26L42.39,324.42L42.4,342.81L42.51,460.81L43.07,294.47L43.13,337.79L43.14,383.37L43.67,291.19L43.91,458.24L43.93,452.24L44.3,506.62L44.71,299.05L44.8,301.45L44.81,297.34L45.13,284L45.29,455.01L45.54,334.26L45.55,319.53L45.86,287.3L45.99,451.37L46.16,300.82L46.18,302.26L46.2,293.25L46.35,459.56L46.54,359.72L46.55,306.07L46.71,514.95L47.25,300.19L47.28,339.38L47.29,334.48L47.38,465.32L47.6,291.16L47.93,303.44L47.94,291.1L48.29,283.26L48.79,462.71L48.8,456.43L48.81,442.87L48.99,291.02L49.18,516.39L49.42,467.05L49.44,479.82L49.45,485.78L49.67,287.95L49.89,311.81L49.9,298.54L50.16,456.63L50.38,271.77L50.47,412.27L50.48,439.38L50.51,454.24L50.73,283.15L50.95,301.61L50.96,289.23L51.16,417.63L51.18,440.62L51.43,297.37L51.57,509.95L51.93,459.42L51.95,416.81L52.25,459.05L52.47,278.99L52.72,302.2L52.73,342.52L53.17,280.14L53.3,448.41L53.5,287.76L53.51,286.13L54.05,513.18L54.37,459.36L54.38,413.62L54.89,276.41L55.04,465.71L55.15,299.15L55.17,340.14L55.25,285.27L55.38,464.95L55.94,301.67L55.95,288.33L56.49,515.15L56.78,485.55L56.79,480.8L57.34,282.72L57.46,449.45L57.47,452.37L57.53,352.26L57.54,318.1L57.66,262.87L57.82,450.22L58.11,374.34L58.13,415.27L58.28,285.96L58.92,521.91L58.94,500.92L59.66,256.39L59.82,325.85L59.84,341.69L60.01,282.37L60.6,489.49L60.62,488.07L60.63,476.9L60.82,312.17L61.3,518.49L61.32,521.71L61.33,521.9L61.36,513.57L61.37,505.75L62.21,274.03L62.27,326.13L62.29,379.08L62.35,460.92L62.55,263.48L63.04,457.58L63.06,455.94L63.24,273.14L63.4,466.34L63.69,464.04L63.71,487.62L63.75,515.97L64.3,271.2L64.33,300.21L64.35,293.47L64.43,459.38L64.65,268.71L65.14,454.81L65.16,439.48L65.35,273.59L65.84,464.45L65.91,390.45L65.93,382.3L66.04,291.32L66.19,511.58L66.58,371.89L66.59,332.33L66.87,457.94L67.09,284.64L67.2,453.66L67.22,457.65L67.42,287.85L67.52,416.61L67.54,442.55L67.67,287.55L68.28,463.01L68.29,456.72L68.31,441.96L68.64,516.72L69.16,297.81L69.18,304.78L69.19,321.98L69.31,460.93L69.86,283.74L70,448.18L70.02,448.14L70.1,282.15L70.35,466.05L70.74,427.66L70.76,418.07L70.92,297.73L71.06,510.4L71.55,313.94L71.57,313.97L71.61,292.64L71.67,335.37L71.68,381.24L71.74,450.15L72.31,275.92L72.45,439.2L72.47,423.49L72.89,272.58L73.13,450.08L73.22,376.53L73.24,365.28L73.31,387.59L73.34,349.52L73.35,296.26L73.51,497.68L73.93,281.98L74.01,290.39L74.02,279.25L74.03,275.71L74.18,453.66L74.47,373.15L74.48,414.06L74.53,451.83L74.74,273.94L75.12,297.83L75.14,291.01L75.32,276.26L75.98,508.56L75.99,490.12L76.46,271.47L76.88,308.15L76.89,322.64L77.31,446.36L77.43,282.88L77.67,440.39L77.69,423.87L77.78,282.33L78.41,501.36L78.43,479.54L79.24,279.1L79.25,292.35L79.27,280.32L79.75,438.67L79.85,274.35L79.92,285.83L79.94,278.32L80.1,451.13L80.2,275.76L80.26,288.37L80.27,288.65L80.28,282.21L80.46,454.36L80.75,453.21L80.76,476.74L80.85,512.06L81.26,276.82L81.27,314.46L81.29,288.78L81.59,266.82L81.84,446.27L82.02,290.89L82.04,298.47L82.18,447.73L82.63,278.59L82.76,292.37L82.78,317.76L83.11,299.13L83.27,499.26L83.37,450.58L83.39,452.9L83.43,427.38L83.45,348.89L83.58,469.93L84.03,265.81L84.2,325.58L84.21,369.56L84.85,290.43L84.97,447.74L84.98,446.23L85,432.1L85.07,292.97L85.71,517.62L85.72,514.08L85.74,493.6L86.2,279.13L86.58,309.28L86.59,307.65L87.06,470.21L87.25,290.95L87.3,326.3L87.32,320.29L87.51,302.35L88.14,519.04L88.17,494.56L88.19,478.3L88.45,483.31L89.03,287.43L89.04,312.09L89.06,306.95L89.15,441.79L89.25,282.95L89.86,437.78L89.87,420.97L89.94,276.81L90.52,485.11L90.54,493.01L90.58,503.52L90.76,360.69L90.77,339.21L90.89,473.68L91.07,295.36L91.57,450.44L91.58,451.4L91.7,280.7L91.89,399.16L91.9,423.7L91.93,435.78L92.09,281.34L92.36,283.95L92.38,270.02L93.02,511.61L93.18,432.7L93.19,375.28L93.32,474.91L93.83,278.53L93.95,315.65L93.96,361.21L94.37,435.53L94.54,255.84L94.71,422.6L94.73,421.6L94.87,252.27L95.38,472.24L95.4,485.96L95.45,505.44L95.83,327.27L95.85,307.92L96.11,440.89L96.61,265.31L96.63,264.09L96.74,344.06L96.76,383.03L96.96,246.56L97.15,425.13L97.51,416.58L97.53,414.85L97.54,417.03L97.72,309.31L97.73,290.77L97.89,492.2L98.38,269.73L98.44,303.91L98.46,294.64L98.66,256.35L98.93,469.54L99.27,430.59L99.28,402.26L99.75,268.76L99.95,442.54L100.02,368.78L100.04,360.26L100.17,306.4L100.25,454.96L100.27,472.83L100.34,503.1L100.79,283.21L100.86,344.13L100.88,295.23L100.98,441.97L101.49,274.42L101.69,433.62L101.7,420.69L102.18,267.93L102.39,440.06L102.47,348.74L102.49,348.99L102.78,490.53L103.18,256.25L103.2,290.94L103.21,260.67L103.23,239.81L103.76,434.96L103.92,287.61L103.94,288.73L103.95,288.28L103.97,305.5L103.98,333.74L104.11,441.9L104.63,262.06L104.69,343.85L104.71,293.77L105.17,501.04L105.53,455.67L105.55,419.98L105.95,290.54L106.24,474.07L106.29,438.88L106.3,424.88L106.55,465.22L107.06,267.74L107.17,306.45L107.19,333.86L107.49,296.58L107.65,487.82L107.95,447.72L107.97,429.24L108.45,238.38L108.75,243.78L108.77,281.37L108.8,217.98L109.33,406.7L109.52,251.26L109.54,279.63L110.09,488.67L110.35,467.22L110.36,473.51L110.38,476.13L110.43,403.01L110.45,359.33L110.74,460.98L111.17,280.42L111.23,280.88L111.25,282.85L111.26,282.33L111.28,300.75L111.29,329.87L111.42,434.61L111.93,259.97L112.03,311.82L112.04,307.51L112.36,301.81L112.51,493.81L112.84,426.27L112.86,395.7L113.16,424.56L113.26,258.8L113.63,263.42L113.64,302.24L113.86,416.15L114.38,219.64L114.39,226.96L114.41,254.87L114.94,467.61L115.16,310.84L115.18,324.82L115.25,419.4L115.76,196.24L115.93,376.27L115.95,384.15L116,310.5L116.02,257.25L116.05,214.19L116.64,414.65L116.76,261.81L116.77,298.58L116.8,253.83L117.38,479.65L117.4,472.42L117.86,222.08L118.25,291.71L118.27,327.4L118.38,389.38L118.54,198.92L119.02,303.06L119.03,347.8L119.24,236.53L119.82,472.88L119.85,450.12L119.86,434.44L120.28,205.5L120.75,280.03L120.76,306.55L120.99,216.51L121.51,404.97L121.53,404.9L121.54,392.87L121.67,238.73L121.91,410.86L122.15,359.91L122.17,395.45L122.25,461.17L122.72,214.4L122.91,381.33L122.92,380.2L123.07,192.77L123.23,336.04L123.24,357.87L123.27,369.81L123.41,192.91L123.86,271.68L123.88,257.46L124.7,502.95L124.75,465.16L124.76,467.07L124.81,491.04L125.27,323.09L125.4,401.05L125.42,362.88L125.62,306.3L126.05,431.1L126.18,327.88L126.2,315.03L126.26,350.55L126.27,376.4L126.31,311.46L126.79,464.05L127,359.6L127.01,397.68L127.14,511.55L127.69,326L127.71,319.93L127.79,433.33L128.29,263.3L128.49,404.72L128.5,398.98L128.84,403.16L128.98,240.84L129.14,364.38L129.16,382.77L129.43,298.65L129.58,451.22L129.91,384.48L129.93,350.77L130.23,380.28L130.38,205.66L130.69,256.89L130.71,217.4L130.72,200.21L131.27,377.7L131.43,240.44L131.45,241.26L132.01,472.96L132.29,426.37L132.3,430.12L132.35,395.47L132.36,359.89L132.67,391.95L133.16,205.81L133.17,209.37L133.36,383.19L133.44,252.74L133.45,234.04L133.48,267.69L133.49,226.88L133.51,203.83L133.54,210.79L133.55,239.01L133.86,188.76L134.35,376.83L134.36,393.66L134.45,449.12L134.86,209.16L134.87,239.81L134.89,196.85L135.25,176.63L135.45,358.85L135.63,211.48L135.64,242.28L135.94,230.4L136.15,395.14L136.39,307.88L136.41,297.84L136.89,460.41L137.19,403.46L137.21,391.7L138.03,170.74L138.05,171.22L138.24,348.56L138.66,203.62L138.67,182.77L138.7,216.85L138.71,175.63L138.73,157.73L139.32,430.08L139.51,318.54L139.53,297.55L139.63,379.33L139.69,248.16L139.7,217.67L140.32,351.41L140.47,159.92L140.48,161.28L141.02,359.97L141.06,288.04L141.08,240.48L141.17,203.43L141.73,442.35L141.75,440.71L141.76,451.83L142.22,186.71L142.41,360.79L142.43,352.29L142.76,354.73L142.91,162.59L143.24,175.06L143.25,149.79L143.46,334.37L143.53,201.24L143.54,182.35L143.6,156.72L143.66,264.95L143.67,315.82L143.72,244.6L144.2,420.44L144.41,314.78L144.43,326.7L144.5,389.57L144.65,262.94L145.2,381.96L145.21,374.8L146.04,181.46L146.05,186.05L146.07,200.51L146.62,449.46L146.86,351.62L146.88,374.44L146.92,402.63L147.08,192.12L147.63,376.82L147.65,365.03L147.78,173.84L148.31,389.24L148.43,221.91L148.45,261.39L148.47,208.15L149.05,458.32L149.14,400.89L149.16,400.43L149.87,147.01L150,256.31L150.01,294.16L150.21,143.83L150.77,353.23L150.78,342.63L150.79,327.48L150.91,166.63L151.48,419.34L151.49,435.74L151.66,348.27L151.68,281.99L151.81,382.26L151.94,170.3L151.95,150.15L152.1,290.12L152.11,318.29L152.3,148.86L152.85,372.12L152.87,361.6L152.88,333.64L153,212.36L153.55,402.59L153.58,397.66L153.59,381.23L153.93,463.99L154.39,206.01L154.43,244.37L154.45,298.77L154.59,383.77L154.74,192.04L155.2,276.01L155.22,313.16L155.44,218.65L155.99,412.73L156,408.16L156.2,272.89L156.35,469.67L156.36,476.69L156.55,324.06L156.62,430.42L156.64,443.12L156.67,453.54L156.83,228.12L157.18,260.56L157.19,263.97L157.2,262.93L157.29,317.24L157.31,355.92L157.36,427.54L157.87,262.57L158.07,417.46L158.09,402.3L158.22,252.2L158.8,474.94L158.81,470.92L158.83,451.41L159.61,217.19L159.68,258.34L159.7,283.6L159.8,400.88L159.97,199.22L160.39,329.32L160.41,319.45L160.86,472.96L161.06,317.99L161.08,298.06L161.25,478.63L161.71,255L161.86,400.22L161.87,410.98L161.89,413.07L161.93,359.59L161.95,321.66L162.58,410.12L162.69,224.41L162.7,226.7L162.72,270.19L163.09,213.99L163.3,402.33L163.44,354.83L163.45,357.06L163.5,293.44L163.56,373.23L163.57,402.95L163.69,470.21L164.14,256.9L164.22,302.54L164.24,295.79L164.33,418.31L164.83,228.85L165.04,407.06L165.05,390.62L165.53,231.33L165.75,422.25L165.8,386.14L165.82,373.84L166.12,475.14L166.6,259.32L166.67,291.84L166.69,305.95L167.3,251.85L167.46,419.31L167.47,417.29L167.56,260.3L167.81,428.61L168.11,395.78L168.12,419.19L168.37,291.29L168.52,498.85L168.89,432.7L168.91,399.03L169.26,487.98L169.65,275.64L169.66,276.47L169.68,316.65L169.89,437.06L170.36,256.75L170.43,265.56L170.45,275.76L170.46,262.66L171,478.59L171.07,429.28L171.08,435.11L171.1,436.69L171.14,397.56L171.16,311.87L171.29,456.18L171.79,252.9L171.85,254.89L171.87,277.95L171.98,419.34L172.14,245.11L172.68,416.69L172.69,414.73L172.78,250.75L173.04,428.52L173.3,378.92L173.32,412.72L173.39,487.39L173.94,257.11L174.07,425.69L174.09,422.88L174.29,251.35L174.77,427.09L174.88,271.7L174.9,314.19L174.98,256.38L175.48,434L175.62,380.19L175.64,381.41L175.68,274.18L175.87,491.62L176.12,437.09L176.13,451.74L176.14,457.8L176.38,255.95L176.58,287.21L176.59,274.29L176.86,426.31L177.07,245.43L177.16,382.89L177.17,408.13L177.2,422.84L177.41,238.42L177.65,250.68L177.67,253.97L178.26,491.35L178.44,436.3L178.45,386.9L178.6,462.97L179.12,235.94L179.2,281.8L179.22,295.24L179.39,250.75L179.99,428.52L180,424.74L180.09,257.86L180.35,434.75L180.63,411.74L180.64,445.52L180.71,492.45L181.23,255.7L181.38,436.87L181.39,434.39L181.5,255.28L181.73,437.87L182.03,408.23L182.05,437.44L182.09,465.94L182.64,265.88L182.8,454.34L182.82,442.75L183.13,499.06L183.69,255.77L183.7,277.22L183.71,292.12L183.82,438.9L184.03,246.38L184.12,396.78L184.14,422.68L184.16,440.31L184.73,246.98L184.87,427.08L184.89,411.18L185.08,263.01L185.59,492.81L185.61,486.37L185.63,473.49L186.46,241.48L186.47,252.85L186.48,282.57L186.6,432.1L187.17,247.34L187.31,426.63L187.33,409.29L187.4,248.93L188.05,498.73L188.07,483.35L188.91,250.71L188.92,275.95L189.04,432.86L189.25,248.21L189.59,264.33L189.6,248.02L190.49,489.59L190.5,471.51L190.99,257.18L191.4,312.33L191.42,355.98L191.47,430.48L192.02,248.5L192.18,425.96L192.2,412.64L192.27,259.42L192.89,505.53L192.92,504.81L192.94,488.37L193.78,260.87L193.79,286.64L193.91,441.38L194.13,255.19L194.5,302.84L194.52,292.52L194.82,266.97L195.36,498.45L195.37,482.63L195.85,236.54L196.27,295.3L196.29,344.91L196.45,251.7L196.69,438.69L197.04,431.54L197.06,430.7L197.26,261.85L197.71,471.49L197.72,485.74L197.75,500.54L197.96,316.67L198.13,396.46L198.14,351.54L198.43,437.94L198.65,261.02L198.91,310.71L198.93,285.54L199,263.76L199.48,442.97L199.67,292.68L199.68,295.47L199.7,277.7L200.19,504.82L200.2,509.03L200.38,407.14L200.39,339.43L200.45,394.63L200.46,423.65L200.52,478.07L201.06,268.5L201.1,285.26L201.12,305.83L201.22,447.06L201.78,273.37L201.84,310.41L201.86,355.85L202.07,273.85L202.63,501.63L202.64,496.16L202.65,487.5L202.67,489.73L202.73,422.26L202.8,436.78L202.81,406.64L202.96,465.38L203.41,271.12L203.58,305.58L203.6,352.91L203.66,437.04L204.1,253.36L204.35,426.07L204.37,422.59L204.47,252.83L205.05,493.56L205.06,495.59L205.09,491.86L205.11,494.45L205.12,472.52L205.51,263.16L205.96,271.4L205.98,275.54L206.09,435.6L206.54,255.28L206.79,431.73L206.8,427.75L206.95,251.37L207.15,441.87L207.43,414.47L207.44,444.3L207.5,488.1L207.99,259.09L208.18,427.52L208.19,423.58L208.53,423.63L208.69,234.27L208.83,383.15L208.85,406.92L209.04,239.84L209.59,428.3L209.6,422.8L209.62,409.66L209.93,492.09L210.38,260.79L210.44,269.29L210.46,265.6L210.62,433.91L210.72,248.65L211.02,322.67L211.04,280.92L211.07,251.77L211.66,435.07L211.78,261.52L211.79,304.06L211.82,264.46L212.39,483.72L212.4,487.17L212.82,257.82L213.02,420.54L213.04,432.04L213.05,434.9L213.15,265.72L213.2,282.43L213.21,265.91L213.26,282.24L213.28,271.15L213.3,292.59L213.4,424.59L213.59,232.75L213.69,326.1L213.71,370.38L213.91,240.85L214.46,465.25L214.49,453.96L214.5,434.84L214.81,484.33L215.33,251.94L215.36,277.73L215.37,287.68L215.49,434.53L215.94,255.44L216,258.33L216.01,258.9L216.03,258.55L216.04,273.71L216.07,270.42L216.2,424.08L216.26,290.26L216.27,271.89L216.53,426.09L216.69,240.75L216.85,400.67L216.87,417.51L217.11,286.72L217.27,488.6L217.61,426.88L217.62,393.18L217.75,219.95L217.93,418.12L218.39,266.55L218.4,313.57L218.62,450.58L219.07,281.93L219.14,305.06L219.16,307.53L219.2,295.66L219.71,511.52L220.01,469.24L220.03,465.99L220.46,256.45L220.85,292.45L220.87,279.05L220.94,276.3L221.06,438.61L221.13,300.63L221.14,286.57L221.41,436.9L221.51,269.98L221.71,394.11L221.73,420.17L221.99,308.75L222.15,504.77L222.48,442.25L222.49,409.52L222.8,434.65L223.25,255.63L223.26,258.62L223.28,301.88L223.84,433.32L224,252.14L224.03,260.22L224.05,286.36L224.07,275.74L224.58,492.49L224.89,449.41L224.9,445.41L225.39,223.47L225.55,388.17L225.57,404.73L225.68,247.41L225.93,431.06L226,293.8L226.02,276.52L226.03,260.42L226.63,488.94L226.64,489.6L226.7,429.21L226.71,409.7L227.02,520.53L227.5,266.11L227.6,315.25L227.61,362.37L227.67,432.24L228.18,247.56L228.38,417.2L228.4,409.03L228.53,237.28L229.08,424.22L229.16,328.26L229.18,327.95L229.47,478.16L229.88,249.07L229.9,265.66L229.92,245.89L229.95,240.88L230.11,431.65L230.4,358.9L230.41,396.3L230.47,446.84L230.98,248.58L231.17,416.41L231.18,401.3L231.31,239.14L231.86,466.44L231.88,468.35L231.91,477.12L232.09,328.75L232.25,342.22L232.27,290.78L232.56,403.08L232.7,209.82L233.02,269.38L233.04,240.9L233.05,223.56L233.65,449.69L233.69,407.19L233.7,397.73L233.83,317.62L233.95,463.05L234.17,357.55L234.18,307.53L234.33,480.34L234.79,213.68L234.86,324.64L234.88,270.05L234.98,398.96L235.14,207.07L235.47,223.35L235.49,191.66L236.01,391.46L236.17,227.36L236.18,205.96L236.23,237.91L236.24,270.95L236.3,260.44L236.76,444.89L237.05,400.64L237.07,406.35L237.13,317.39L237.14,260.74L237.18,215.86L237.76,406.3L237.78,404.44L237.87,251.19L238.46,430.56L238.48,429.94L238.62,268.61L239.17,461.15L239.19,463.98L239.2,476.81L239.68,218.66L239.87,382.83L239.88,368.91L240.22,376.89L240.36,178.05L240.56,375.18L240.58,362.05L240.72,164.16L241.26,377.06L241.33,311.45L241.35,303.16L241.49,300.19L241.65,468.46L241.84,329.83L241.85,318.53L241.94,436.01L242.39,215.82L242.41,203.48L242.65,376.49L242.8,169.82L243.14,186.18L243.16,185.61L244.07,444.35L244.1,424.53L244.12,407.58L244.38,409.31L244.55,165.61L244.94,267.35L244.96,310.28L245.09,355.07L245.58,147.72L245.71,226.16L245.73,271.17L245.87,160.02L246.52,436.39L246.54,421.3L246.99,139.48L247.37,243.9L247.38,286.17L247.61,197.01L247.87,383.76L248.12,280L248.13,271.64L248.37,217.76L248.95,440.8L248.97,423.61L248.99,404.11L249.25,407.53L249.77,176.33L249.8,218.74L249.82,266.51L250.31,370.21L250.45,186.69L250.56,279.38L250.57,260.8L250.74,238.78L251.38,468.82L251.41,444.85L251.43,428.71L251.6,309.55L252.09,440.82L252.18,427.1L252.19,418.83L252.54,280.28L252.73,406.65L252.75,410.09L252.83,313.69L253.09,441.72L253.4,418.03L253.41,434.85L253.69,336.35L253.83,486.57L254.01,399.54L254.02,363.12L254.04,335.14L254.53,509.45L254.73,386.25L254.75,402.81L254.82,489.57L255.36,287.81L255.5,411.34L255.52,418.11L255.53,418.68L255.56,400.19L255.57,375.45L255.69,262.06L256.27,463.09L256.28,450.73L256.3,434.41L256.73,221.8L257.11,265.93L257.13,296.54L257.62,391.18L257.76,214.16L257.86,286.35L257.88,273.75L258.11,228.89L258.71,453.92L258.72,440.49L259.5,177.98L259.56,269.26L259.58,316.53L259.71,375.55L260.21,165.4L260.33,244.14L260.34,287.89L260.55,180.05L261.14,441.39L261.17,415.38L261.19,400.47L261.43,406L261.95,193.82L262.07,274.11L262.08,314.05L262.14,370.51L262.64,142.31L262.84,355.2L262.85,346.86L262.98,182.28L263.48,382.99L263.49,404.69L263.58,453.19L263.98,215.14L264,246.8L264.01,203.73L264.23,353.76L264.72,151.45L264.75,157.48L264.77,192.44L264.93,332.4L265.42,120.05L265.52,230.61L265.54,205.38L266.01,419.2L266.36,320.09L266.38,271.94L266.67,374.76L267.16,189.87L267.18,191.62L267.35,374.37L267.83,259.58L267.84,225.53L267.86,208.78L268.36,405.07L268.38,419.09L268.45,442.34L268.9,260.55L269,291.98L269.02,281.8L269.1,376.83L269.6,175.08L269.8,352.35L269.81,342.48L269.95,164.95L270.5,364.37L270.51,363.63L270.53,354.74L270.74,269.65L270.87,435.66L271.16,385.17L271.18,392.71L271.34,169.83L271.48,327.21L271.5,350.3L271.54,370.49L272.03,161.09L272.25,358.08L272.27,338.17L272.38,176.16L272.96,393.97L273.02,305.36L273.03,303.7L273.31,455.05L273.69,235.52L273.7,208.19L273.77,173.96L273.96,372.66L274.27,351.64L274.28,375.56L274.47,205.14L274.66,392.24L274.75,232.27L274.76,212.14L274.82,191.36L274.96,336.22L274.98,364.13L275.17,164.2L275.75,436.47L275.77,414.5L275.79,400.81L276.21,193.78L276.6,259.38L276.62,308.24L276.75,400.17L277.27,202.33L277.37,264.37L277.38,300.48L277.6,176.48L278.18,471.91L278.2,465.17L278.21,446.05L278.66,198.34L279.11,282.36L279.13,319.94L279.28,233.27L279.88,412.6L279.89,411.18L279.91,393.22L279.98,240.56L280.62,475.55L280.63,472.9L280.65,452.81L281.37,245.56L281.47,263.09L281.49,285.4L281.79,231.38L281.97,423.41L282.23,276.15L282.24,291.48L282.48,228.27L283.06,472.15L283.07,470.32L283.08,453.34L283.87,223.79L283.98,280.61L284,326.46L284.23,228.13L284.78,449.65L284.8,462.84L284.81,467.7L284.98,334.83L285.3,373.21L285.32,320.69L285.49,477.2L285.96,197.75L286.07,273.98L286.09,317.1L286.65,202.81L286.84,395.9L286.85,394.29L286.87,379.78L286.96,200.37L287.55,430.24L287.62,352.68L287.64,340.33L287.65,340.1L287.67,357.48L287.77,267.78L287.83,397.17L287.84,427.69L287.94,471.69L288.35,236.23L288.36,277.38L288.38,249.32L288.58,412.77L289.09,215.77L289.13,241.15L289.15,256.43L289.28,410.09L289.45,210.87L289.86,272.19L289.87,294.61L289.99,422.67L290.2,284.81L290.25,379.8L290.26,416.54L290.38,488.91L290.86,266.37L290.92,289.36L290.93,286.93L291.02,424.37L291.55,250.03L291.73,414.57L291.74,397.71L292.18,240.91L292.42,424.76L292.51,338.89L292.53,339.07L292.82,482.19L293.22,261.11L293.24,302.33L293.25,274.52L293.45,413.46L293.96,235.33L294,259.24L294.02,248.77L294.66,230.51L294.86,418.39L294.87,413.07L294.89,402L295.21,466.06L295.64,252.87L295.73,256.14L295.74,271.74L295.76,269.31L295.83,349.99L295.85,379.69L296.05,233.09L296.3,445.62L296.61,409.83L296.63,365.7L296.76,212.08L297.3,415.97L297.38,331.55L297.4,336.46L297.5,277.08L297.66,472.72L298.12,300.24L298.14,285.25L298.2,267.48L298.28,395.03L298.3,417.4L298.33,431.53L298.78,266.57L298.88,275.92L298.89,256.37L299.24,252.28L299.37,426.76L299.57,275.81L299.59,256.55L300.1,487.65L300.41,451L300.43,445.79L300.98,232.37L301.27,236.81L301.28,237.89L301.81,429.19L301.86,326.05L301.88,284.35L302.02,249.68L302.5,483.84L302.52,487.39L302.62,403.92L302.69,411.37L302.71,367.34L302.84,460.04L303.42,245.62L303.47,302.51L303.49,350.44L303.55,428.34L303.75,238.73L304.24,415.75L304.26,413.25L304.46,240.78L304.94,475.86L304.95,479.07L305,479.93L305.03,443.11L305.04,423.27L305.27,449.49L305.84,224.26L305.91,301.73L305.93,343.39L306.08,242.29L306.68,454.3L306.69,453.92L306.71,443.15L306.9,266.84L307.39,499.14L307.43,492.08L307.45,481.6L308.29,246.87L308.3,271.57L308.64,240.37L308.77,431.8L308.97,244.49L308.99,234.89L309.83,488.2L309.84,487.08L309.86,482.67L309.87,485.36L310.01,386.5L310.03,300.52L310.16,455.3L310.73,228.85L310.75,272.27L310.77,268.15L311.07,224.75L311.55,421.49L311.57,418.55L311.58,399.14L311.77,237.71L312.26,488.11L312.28,487L312.29,481.54L312.35,415.28L312.36,401.71L312.6,454.14L312.81,230.91L312.99,349.23L313,299.06L313.16,224.64L313.64,420.03L313.76,234.17L313.77,280.68L313.84,218.28L314.35,440.76L314.45,349.64L314.47,371.27L314.55,264.24L314.74,496.15L315.08,390.49L315.09,330.92L315.38,429.55L315.58,228.02L315.87,265.3L315.89,254.25L315.95,229.14L316.02,332.08L316.03,376.55L316.18,239.45L316.79,436.81L316.8,431.49L316.82,418.31L317.14,496.16L317.67,249.31L317.69,235.94L317.82,423.08L318.03,231.61L318.37,251.22L318.38,232.51L318.51,423.41L319.02,249.22L319.04,250.99L319.08,240.05L319.57,486.74L319.76,377.84L319.77,310.73L319.91,462.65L320.12,243.99L320.31,310.68L320.33,274.76L320.47,237.75L320.6,423.32L321.07,257.66L321.08,300.56L321.52,232.77L321.66,421.24L321.79,360.8L321.81,363.58L321.86,262.53L322.02,481.4L322.2,387.6L322.21,310.08L322.34,455.11L322.56,243.75L322.75,315.97L322.76,275.61L322.91,239.46L323.04,418.55L323.34,384.31L323.36,408.92L323.39,427.7L323.84,229.91L324.11,423.54L324.13,410.03L324.44,493.86L324.97,230.19L324.98,224.46L325.01,236.51L325.02,254.11L325.04,251.57L325.07,330.78L325.08,372.93L325.13,423.2L325.69,201.25L325.72,228.78L325.74,224.58L326.04,211.25L326.53,427.12L326.55,422.13L326.56,409.26L326.74,256.69L326.88,484.66L327.16,392.08L327.17,420.83L327.21,451.03L327.45,243.14L327.75,251.71L327.77,258.82L327.78,230.09L327.91,422.76L328.51,274.32L328.52,276.28L328.71,243.77L329.33,498.21L329.36,493.04L329.38,475.87L330.11,249.86L330.22,255.57L330.23,258.33L330.35,430.5L330.8,245.49L330.88,251.18L330.9,256.62L331.16,229.01L331.41,429.43L331.55,353.7L331.57,354.85L331.61,277.92L331.8,494.95L332.07,469.15L332.09,471.63L332.65,233.91L332.73,335.03L332.74,379.74L332.78,426.24L333.02,226.6L333.49,420.63L333.51,404.31L333.58,240.33L334.23,491.27L334.25,470.04L334.97,249.67L335.07,272.19L335.09,252.8L335.22,422.76L335.34,245.31L335.51,337.86L335.52,381.57L335.57,419.73L336.02,228.05L336.16,271.21L336.18,266.58L336.48,261.67L336.64,479.38L336.99,429.23L337,383.2L337.15,222.53L337.31,421.73L337.77,238.81L337.79,286.45L337.89,236.92L338,422.35L338.54,275.56L338.56,287.82L338.58,256.67L339.09,495.39L339.28,323.36L339.29,342.59L339.4,462.1L339.83,264.65L339.85,249.46L339.87,290.9L340.02,288.21L340.03,333.91L340.19,246.34L340.79,431.49L340.8,429.29L340.82,410.19L340.9,254.4L341.5,494.88L341.54,466.44L341.56,462.59L342.34,221.38L342.38,248.72L342.4,257.89L342.53,412.5L343.04,202.54L343.14,257.67L343.15,270.08L343.38,187.05L343.96,473.93L343.98,467.29L343.99,446.04L344.37,241.94L344.88,287.01L344.89,303.28L345.41,246.95L345.66,428.48L345.68,426.31L345.69,411.78L345.78,278.21L346.39,474.19L346.4,478.4L346.78,300.72L346.79,278.37L347.05,427.57L347.16,247.3L347.37,409.24L347.39,423.65L347.4,428.78L347.63,247.48L347.84,272.06L347.85,256.08L347.87,256.54L347.88,301.08L347.98,248.74L348.46,432.96L348.59,364.39L348.61,368.24L348.68,287.27L348.72,374.41L348.74,409.16L348.84,505.45L349.33,252.23L349.49,424.99L349.5,422.04L349.95,245.35L350.16,396.43L350.17,410.91L350.19,415.32L350.26,274.98L350.27,259.12L350.3,240.09L350.53,412.63L350.85,397.06L350.87,415.24L351.11,274L351.27,504.94L351.61,438.31L351.62,407.29L352.27,429.28L352.39,245.37L352.4,287.87L352.42,261.29L352.62,422.17L353.07,233.14L353.16,246.39L353.17,268.4L353.2,247.75L353.71,507.14L353.87,411.2L353.88,363.51L354.01,444.01L354.17,216.24L354.64,274.51L354.65,322.75L354.81,225.25L355.06,413.17L355.42,410.62L355.44,393.6L355.51,227.13L356.13,485.22L356.15,491.47L356.16,499.72L356.55,227.81L356.6,247.04L356.61,231.29L356.63,227.05L356.76,356.02L356.77,383.76L357.15,413.5L357.34,226.81L357.51,376.06L357.52,357.08L357.6,223.43L358.19,409.25L358.21,411.16L358.6,476.74L359.06,254.98L359.08,256.74L359.09,278.58L359.24,416.85L359.76,220.27L359.83,252.1L359.84,272.47L359.93,405.31L360.05,228.39L360.08,242.69L360.09,220.49L360.11,220.26L360.12,223.31L360.13,246.25L360.44,223.43L361.02,472.45L361.03,470.62L361.85,223.23L361.95,278.35L361.96,311.54L362.37,408.21L362.54,216.85L362.73,398.36L362.75,382.88L362.88,195.38L363.47,449.52L363.48,430.78L363.5,410.32L363.76,411.02L363.95,198.5L364.31,246.02L364.33,284.18L364.46,402.29L364.98,197.48L365.07,276.51L365.08,276.55L365.89,493.38L365.91,488.09L365.92,462.07L366.72,163.12L366.83,276.63L366.85,316.57L367.05,182.3L367.59,392.43L367.62,376.16L367.63,350.26L367.69,217.93L368.31,468.08L368.33,477.75L369.14,156.96L369.27,261.05L369.29,311.47L369.5,151.41L370.04,371.54L370.05,356.31L370.07,333.53L370.18,194.61L370.76,455.05L370.79,432.12L370.81,417.62L371.08,420.56L371.58,155L371.63,245.19L371.65,287.56L371.78,367.48L371.92,144.52L372.39,286.13L372.4,310.8L372.62,217.71L373.2,458.38L373.22,454.86L373.23,436.81L373.67,163.64L374.06,227.11L374.07,263.93L374.55,391.51L374.72,195.92L374.81,256.72L374.83,252.49L375.06,180.19L375.64,438.48L375.65,436.96L376.1,156.36L376.57,229.78L376.58,251.71L376.65,363.27L376.81,157.77L377.35,355.36L377.36,348.52L377.49,182.64L377.73,375.62L377.96,274.33L377.97,304.39L378.09,419.25L378.54,261.04L378.76,392.89L378.77,395.88L379.13,433.69L379.58,210.38L379.61,222.05L379.63,240.47L379.93,193.35L380.18,357.92L380.39,273.83L380.41,291.59L380.52,406.96L380.97,255.72L381.19,380.29L381.21,387.68L381.42,319.96L381.54,414.63L381.55,426.83L381.57,442.34L382.02,251.07L382.11,293.59L382.12,268.7L382.13,264.17L382.54,406.21L382.56,414.27L382.82,304.19L382.96,465.47L383.15,340.57L383.16,297.09L383.27,411.51L383.43,196.29L383.66,304.92L383.67,249.13L384.31,344.87L384.45,151.2L384.48,158.91L384.5,190.89L384.8,132.38L385.05,360.43L385.28,337.83L385.3,377.17L385.4,438L385.85,188.12L385.96,260.86L385.98,274.6L386.05,370.76L386.22,166.13L386.75,362.68L386.76,350.71L387.24,130.76L387.44,339.03L387.46,340.14L387.49,341.1L387.5,309.98L387.51,286.37L387.83,409.8L388.28,100.96L388.34,214.85L388.36,270.08L388.49,303.79L388.98,62.11L389.12,196.85L389.14,228.9L389.33,63.32L389.92,313.54L389.94,288.08L390.27,420.9L390.72,103.84L390.76,153.96L390.78,213.92L390.92,300.62L391.42,55.7L391.52,169.17L391.53,144.72L391.76,58.97L392.36,320.51L392.37,288.47L392.39,264.21L392.71,394.01L393.16,65.03L393.2,120.05L393.21,183.87L393.36,266.79L393.85,42.05L393.94,185.53L393.95,144.44L394.06,239.9L394.2,34.45L394.68,144.44L394.69,171.13L395.14,369.8L395.48,267.42L395.49,240.82L395.8,280.24L395.94,56.91L396.29,58.16L396.3,64.48L397.19,384.23L397.23,365.58L397.25,341.34L397.56,450.97L398.04,169.58L398.06,171.96L398.07,213.27L398.22,355.19L398.73,134.41L398.81,210.71L398.83,202.32L399.26,341.15L399.38,146.12L399.41,148.62L399.42,124.43L399.58,304.6L399.6,322.34L399.84,242.35L400,418.9L400.35,342.18L400.36,293.04L400.67,351.46L400.81,138.56L401.13,201.96L401.15,172.87L401.16,152.96L401.7,391.69L401.87,211.79L401.89,221.1L402.44,456.47L402.67,338.62L402.68,359.05L402.74,410L402.97,266.1L403.45,394.21L403.47,381.88L403.79,386.7L404.29,168.25L404.31,174.62L404.87,445.34L405.19,392.68L405.21,374.95L405.34,167.63L405.99,186.73L406.01,234.46L406.22,382.02L406.73,146.38L406.77,199.51L406.79,252.44L406.8,207.51L407.31,432.62L407.53,273.28L407.54,285.23L407.77,151.53L408.31,380.66L408.34,364.02L408.35,334.75L408.47,191L408.66,390.51L409.12,206.32L409.14,254.22L409.17,210.41L409.75,484.74L409.82,410.97L409.83,420.32L410.05,443.48L410.17,228.5L410.2,237.5L410.21,216.8L410.23,215.73L410.25,248.9L410.27,276.76L410.4,403.38L410.91,192.5L411.02,259.29L411.04,302.06L411.1,385.25L411.6,154.69L411.81,380.1L411.82,377.78L412.02,225.8L412.08,345.16L412.1,376.71L412.2,436.22L412.65,188.67L412.85,382.88L412.86,364.42L413,179.2L413.53,379.53L413.65,187.55L413.66,233.88L414.04,174.48L414.24,386.99L414.36,311.64L414.37,310.85L414.46,232.39L414.5,324.34L414.52,354.38L414.62,440.25L415.08,145.18L415.27,357.79L415.29,356.25L415.43,139.9L415.97,400.17L415.98,398.73L416.43,193.08L416.62,346.25L416.64,373.17L416.9,272.05L417.07,474.09L417.39,424.45L417.4,380.91L417.71,416.29L418.17,220.81L418.2,235.7L418.22,218.29L418.35,315.02L418.36,359.35L418.56,207.75L419.12,467.65L419.16,438.96L419.17,409.18L419.32,301.81L419.46,484.69L419.91,384.52L419.93,394.92L419.94,395.95L420,361.99L420.01,282.64L420.03,280.05L420.07,346.68L420.09,381.23L420.14,428.68L420.26,230.31L420.84,414.07L420.86,412.34L420.94,234.43L421.54,419.21L421.58,401.45L421.6,388.73L421.94,477.22L422.39,247.28L422.41,248.91L422.58,417.36L422.77,236.58L422.78,244.9L422.8,226.23L423.63,466.51L423.65,445.31L423.67,412.87L423.84,267.97L424.34,491.89L424.39,471.51L424.41,454.64L424.67,456.3L425.18,224.4L425.24,224.54L425.25,245.95L425.54,217.86L426.08,429.09L426.09,393.13L426.16,233.99L426.77,482.12L426.8,479.17L426.82,481.41L427.67,218.86L427.69,248.38L428.37,220.5L428.5,414.61L428.51,411.74L428.53,393.76L428.6,230.51L429.22,480.89L429.25,479.16L429.27,460.34L430.11,224.14L430.12,253.53L430.14,276.84L430.24,415.12L430.46,221.76L430.54,379.56L430.56,404.89L430.79,229.35L431.3,435.85L431.31,431.63L431.33,417.14L431.65,491.22L432.2,229.96L432.21,253.73L432.33,428.18L432.54,215.67L432.86,247.96L432.88,235.59L432.89,214.66L433.37,421.74L433.6,259.47L433.62,286.9L433.94,266.56L434.02,444.02L434.04,465.46L434.08,494.04L434.63,234.66L434.66,274.59L434.68,268.66L434.76,426.23L434.98,218.93L435.47,419.95L435.49,400.59L435.66,211.73L436.17,424.24L436.24,337.51L436.26,324.55L436.37,262.02L436.53,478.04L436.92,279.7L436.94,259.85L437.42,220.84L437.55,418.37L437.66,240.89L437.68,281.5L437.77,224.85L438.24,420.06L438.45,230.39L438.46,226.22L438.97,488.15L439.3,454.88L439.32,428.4L439.51,228.1L440.1,238.35L440.11,281.94L440.2,229.16L440.68,454.48L440.85,288.27L440.87,285.86L440.9,235.38L441.39,493.17L441.54,436.77L441.55,436.11L441.72,468.35L442.29,229.39L442.33,275.51L442.35,295.96L442.62,225.42L442.77,443.14L443.12,424.21L443.13,420.88L443.32,232.99L443.48,433.33L443.75,406.6L443.77,440.2L443.83,498.01L444.38,229.74L444.51,427.93L444.52,425.55L444.86,429.54L445.07,223.83L445.18,402.63L445.19,418.64L445.2,425.45L445.42,227.72L445.68,275.04L445.7,255.17L445.71,243.73L446.23,472.76L446.25,484.92L446.26,488.7L446.47,310.3L446.64,379.77L446.66,321.78L446.95,420.91L447.41,230.94L447.42,278.14L447.44,255.2L447.64,414.89L447.86,223.95L448.19,254.38L448.21,233.19L448.7,493.91L449.06,426.93L449.08,374.45L449.25,231.07L449.37,423.51L449.85,233.75L449.86,276.74L449.95,220.03L450.43,431.6L450.61,261.54L450.63,268.89L450.64,243.92L451.18,494.72L451.35,310L451.37,330.39L451.47,461.56L451.92,237.42L452.02,248.5L452.04,227.67L452.62,224.84L452.86,427.8L452.88,419.96L452.89,402.45L453.08,240.04L453.56,485.34L453.57,492.27L453.76,387.52L453.78,303.58L453.91,456.42L454.12,233.23L454.31,311.34L454.33,271.14L454.6,432.49L454.82,230.22L455.07,241.38L455.08,284.95L455.17,232.61L455.65,440.67L455.76,345.59L455.78,362.77L455.86,276.9L456.02,496.19L456.4,328.24L456.42,281.62L456.46,239.72L456.69,429.03L457.15,249.21L457.17,293.32L457.39,427.36L457.84,231.53L457.92,258.2L457.94,264.58L457.95,241.24L458.45,485.7L458.6,449.71L458.62,440.11L458.76,458.8L459.32,227.05L459.4,285.75L459.42,336.24L459.48,427.33L460.06,229.41L460.17,419.96L460.19,416.39L460.27,234.09L460.87,494.68L460.88,497.98L460.95,453.11L460.97,430.73L461.22,471L461.66,241.13L461.82,271.69L461.84,293.35L462.03,240.77L462.26,427.67L462.61,421.23L462.62,415.39L462.77,230.92L462.94,418.56L463.25,395.87L463.26,426.29L463.33,479.01L463.77,233.2L464,427.09L464.01,425.39L464.35,426.91L464.58,238.07L464.67,412.25L464.68,418.52L464.7,419.21L464.72,395.58L464.74,346.77L464.93,230.88L465.39,431.42L465.49,343.09L465.51,343.34L465.78,487.42L466.2,261.97L466.22,304.56L466.23,283.08L466.55,242.62L466.78,435.66L467,261.64L467.02,256.42L467.58,252.59L467.84,448.66L467.86,443.55L468.06,294.35L468.19,502.3L468.47,421.91L468.48,452.27L468.51,476.64L468.97,237.4L468.99,235.56L469.22,411.36L469.41,219.11L469.74,246.56L469.76,241.29L470.02,230.32L470.28,410.95L470.47,333.77L470.48,287.11L470.66,496.98L471.08,239.56L471.22,281.3L471.24,298.31L471.66,426.23L471.77,240.03L472.01,418.5L472.02,412.65L472.11,234.24L472.72,434.97L472.74,430.66L472.76,406.4L473.09,504.85L473.51,259.09L473.56,264.06L473.57,265.26L473.63,256.19L473.66,282.89L473.67,303.66L473.75,470.3L474.19,233.99L474.46,420.48L474.47,399.28L474.89,238.63L475.15,437.81L475.22,349.15L475.24,338.83L475.31,374.92L475.34,356.4L475.36,304.03L475.53,506.46L475.95,240.16L476.09,288.44L476.11,307.03L476.28,235.51L476.53,428.22L476.88,427.41L476.89,423.96L476.98,250.66L477.23,428.92L477.53,391.72L477.54,419.03L477.81,296.46L477.97,513.9L478.3,440.85L478.31,405.19L478.62,433.41L479.08,217.26L479.11,230.28L479.13,210.29L479.14,209.36L479.18,269.48L479.24,268.4L479.26,315.1L479.82,182.3L480.02,403.53L480.04,404.07L480.24,269.28L480.4,482.41L480.58,343.06L480.59,299.35L480.71,421.17L480.87,196.46L481.14,225.09L481.16,205.87L481.21,196.78L481.4,401.22L481.48,250.04L481.49,227L481.56,192.17L481.75,397.16L482.24,214.42L482.26,200.15L482.85,469.75L483.03,368.45L483.04,325.86L483.14,446.95L483.59,247.01L483.61,243.65L484.19,420.02L484.35,212.42L484.36,210.86L484.38,211.04L484.39,237.91L484.69,203.45L484.9,405.38L485.17,376.29L485.19,408.3L485.29,470.98L485.75,180.86L485.91,371.11L485.93,379.27L485.94,381.2L485.99,298.69L486,242.24L486.29,370.2L486.43,131.91L486.75,233.98L486.77,199L486.78,183L486.97,387.2L487.44,306.73L487.45,324.29L487.73,462L488.09,260.34L488.1,232.71L488.19,176.04L488.68,385.06L488.7,402.27L488.71,407.05L488.89,219.8L489.13,259.54L489.15,241.24L489.22,205.96L489.77,423.62L489.86,326.06L489.87,325.68L490.15,478.84L490.52,266.32L490.54,238.1L490.63,179.23L491.15,377.87L491.29,219.95L491.31,201.16L491.32,199.89L491.38,283.51L491.42,263.79L491.44,291.6L491.66,198.29L492.21,428.19L492.22,427.87L492.24,440.95L492.58,477.95L493.06,180.8L493.16,250.01L493.18,279.52L493.25,384.22L493.74,155.45L493.93,362.23L493.95,362.71L494.44,150.5L494.64,371.1L494.66,369.64L494.7,325.45L494.72,306.87L494.88,276.38L495.02,459.61L495.32,413.73L495.34,410.75L495.5,154.9L496.18,172.84L496.19,172.34L496.33,309.05L496.34,340.64L496.53,158.86L497.08,373.15L497.09,371.26L497.11,376.38L497.46,436.57L497.92,142.85L497.95,146.19L497.96,181.87L498.27,117.82L498.47,347.28L498.73,243.44L498.75,267.89L499.31,166.92L499.52,377.23L499.53,375.57L499.76,264.07L499.89,429.73L500.08,313.55L500.1,264.64L500.21,340.58L500.36,93.36L500.84,226.72L500.85,267.93L501.05,119.06L501.6,345.94L501.62,332.21L501.75,146.06L502.3,427.28L502.31,431.24L502.33,447.66L502.75,208.23L502.78,208.88L502.79,184L502.81,183.46L502.82,187.1L502.84,217.73L503.34,366.28L503.5,175.42L503.59,239.13L503.61,231.7L503.84,159.75L504.39,358.56L504.4,358.37L504.42,366.62L504.53,266.95L504.78,435.46L505.19,303.11L505.2,328.79L505.23,310.24L505.43,441.87L505.74,419.77L505.75,440.33L506.01,355.62L506.17,494.03L506.36,378.91L506.38,345.94L506.48,449.63L506.55,359.38L506.56,339.01L507.07,311.82L507.16,439.81L507.17,447.33L507.22,462.59L507.39,382.2L507.41,349.75L507.52,438.86L508.01,285.24L508.14,317.03L508.16,351.32L508.45,342.58L508.61,466.66L508.94,450.32L508.96,443.46L509.51,314.58L509.65,466.8L509.71,401L509.73,407.51L509.86,305.83L509.96,413.84L510,360.45L510.02,307.15L510.31,352.03L510.8,131.16L510.81,143.84L510.83,160.93L511.35,346.04L511.49,138.12L511.6,252.05L511.61,243.16L512.09,419.83L512.28,294.17L512.29,259.23L512.39,346.56L512.52,118.86L512.54,94.7L512.74,290.77L512.86,152.86L512.87,104.31L512.89,79.25L513.44,327.71L513.45,318.74L513.79,330.44L513.93,112.74L514.12,301.15L514.13,308.58L514.18,314.94L514.19,285.27L514.53,397.16L514.98,92.11L515.02,142.83L515.03,199.21L515.32,125.24L515.53,340.17L515.8,252.11L515.82,286.78L516.22,347.09L516.37,146.21L516.59,344.61L516.6,342.37L516.96,412.87L517.41,96.26L517.46,153.23L517.47,206.97L517.76,86.95L517.96,304.2L518.21,220.38L518.22,204.4L518.46,150.95L519.01,368.81L519.06,329.01L519.08,309.15L519.4,430.15L519.85,129.31L519.89,179.61L519.91,229.72L520.2,100.71L520.38,321.39L520.66,232.06L520.67,248.32L521.24,148.15L521.44,348.86L521.46,348.78L521.47,343.1L521.49,345.26L521.54,279.32L521.66,304.52L521.68,269.59L521.83,420.24L522.28,104.31L522.43,243.64L522.44,276.9L522.63,86.58L523.18,313.36L523.2,299.39L523.21,268.39L523.33,91.29L523.89,337.7L523.91,332.71L523.92,332.86L523.94,313.43L524.27,432.35L524.72,257.85L524.74,256.29L524.78,295.59L524.79,320.91L524.92,370.12L525.42,163.61L525.55,244.18L525.56,281.81L525.76,143.13L526.32,356.44L526.33,348.63L526.35,337.06L526.55,257.24L526.69,433.74L526.95,357.44L526.97,376.18L527,393.76L527.16,143.37L527.59,246.38L527.61,245.85L527.71,377.77L527.75,287.48L527.77,229.88L528.06,355.45L528.2,134.38L528.55,147.39L528.56,153.87L529.13,449.91L529.46,370.82L529.48,345.91L529.94,104.8L530.26,171.07L530.28,129.5L530.29,107.3L530.84,341.07L531.01,162.29L531.03,206.27L531.57,431.35L531.78,280.64L531.8,294.99L531.87,377.97L532.03,146.32L532.57,350.29L532.58,349.97L533.07,129.43L533.23,323.98L533.25,340.2L533.26,345.41L533.42,123.12L533.81,268.61L533.83,250.77L534,404.01L534.47,118.24L534.58,211.13L534.6,244.2L534.81,123.23L535,349.32L535.37,347.85L535.38,331.06L535.7,351.08L535.86,126.25L536.13,282.3L536.15,274.2L536.24,314.46L536.28,248.67L536.31,301.99L536.32,330.64L536.44,444.06L536.9,193.01L537,248.7L537.02,265.38L537.09,379.27L537.6,145.47L537.79,356.37L537.8,355.42L537.95,166.21L538.14,374.77L538.43,313.18L538.44,348.5L538.72,268.2L538.85,455.09L539.21,402.64L539.22,355.69L539.53,401.12L539.99,190.43L540.02,198.27L540.04,174.38L540.15,257.56L540.17,296.36L540.38,187.07L540.63,444.57L540.95,432.37L540.96,427.22L541.33,443.98L541.73,225.36L541.85,253.71L541.86,277.69L541.96,405.24L542.05,244.01L542.07,224.61L542.3,395.37L542.43,220.83L542.46,233.65L542.47,210.88L542.49,209.8L542.53,247.46L542.54,235.13L542.56,261.68L542.66,390.53L542.83,189.27L542.99,378.92L543.01,381.94L543.17,183.37L543.33,364.39L543.34,379.19L543.59,245.68L543.76,444.37L543.91,368.48L543.92,298.49L544.05,406.96L544.57,179.24L544.68,261.28L544.69,299.28L544.92,179.42L545.46,382.23L545.47,366.2L545.6,188.74L546.14,454.19L546.16,456.63L546.2,460.15L546.21,443.18L546.23,422.46L546.49,430.76L546.6,247.47L547.01,353.56L547.03,348.59L547.18,427.48L547.63,227.94L547.79,279.49L547.81,292.94L548.04,218.03L548.59,469.99L548.61,469.3L548.64,471.65L549.01,252.57L549.03,229.7L549.27,402.49L549.43,211.43L549.55,285.25L549.56,326.61L549.72,225.89L550.36,444.54L550.38,451.34L550.88,294.21L551.04,480L551.14,421.22L551.16,428.54L551.36,452.34L551.45,271.85L551.46,254.78L551.48,251.04L551.65,348.74L551.67,387.03L551.71,426.91L552.28,230.54L552.42,408.89L552.43,392.51L552.86,232.39L553.12,423.75L553.19,352.08L553.2,342.6L553.28,366.51L553.32,260.87L553.36,342.7L553.38,371.07L553.46,469.82L554.02,238.35L554.13,420.94L554.15,422.33L554.71,232.9L554.77,302.13L554.78,341.65L555.06,237.55L555.55,427.29L555.57,421.08L555.58,408.29L555.76,267.68L555.9,480.16L556.22,442.13L556.23,441.81L556.45,238.13L556.52,350.54L556.54,385.68L556.58,419.32L557.15,231.46L557.29,407.41L557.31,386.35L557.79,214.14L557.99,412.33L558.06,334.74L558.08,319.54L558.15,348.49L558.18,311.87L558.19,249.12L558.35,466.45L558.87,247.86L559.03,425.68L559.05,407.04L559.22,230.42L559.71,437.09L559.83,255.86L559.85,301.25L559.93,246.26L560.43,445.94L560.56,377.75L560.57,384.41L560.63,279.77L560.69,395.53L560.7,424.26L560.77,497.09L561.22,254.05L561.31,256.35L561.32,237.41L561.46,427.74L561.67,234.24L562.01,259.51L562.02,241.52L562.5,455.67L562.88,445.92L562.89,431.77L563.06,268.94L563.21,476.86L563.49,403.12L563.5,427.21L563.53,447.55L564.07,223.24L564.09,232.14L564.11,228.27L564.41,221.5L564.94,424.1L564.95,419.46L565.04,239.65L565.63,486.92L565.65,490.6L565.83,377.19L565.85,316.8L565.98,468.25L566.55,237.4L566.57,281.15L566.59,279.05L566.68,434.01L566.89,234.06L567.39,430.43L567.4,412.77L567.59,242.84L568.08,499.09L568.1,496.86L568.98,238.99L569.04,301.59L569.05,351.91L569.33,231.39L569.81,437.31L569.82,436.45L569.84,417.91L570.03,247.28L570.52,497.61L570.56,491.18L570.58,476.15L571.07,247.62L571.42,254.79L571.43,278.16L571.55,440.58L572.1,241.37L572.11,242.96L572.13,263.39L572.45,243.68L572.96,486.8L572.97,488.82L573.74,228.35L573.91,292.81L573.93,346.39L574.09,227.06L574.68,433.55L574.7,429.47L574.71,411.07L574.78,244.81L575.39,483.39L575.44,476.06L575.45,460.34L576.17,240.49L576.28,244L576.29,251.72L576.52,228.81L576.77,430.49L576.94,253.08L576.96,249.54L576.99,241.16L577.12,432.78L577.41,341.01L577.42,374.9L577.68,277.11L577.83,500.91L578.19,441.3L578.21,394.97L578.61,250.73L578.86,435.24L578.97,259.95L578.99,305.42L579.21,434.78L579.42,246.08L579.74,267.36L579.76,269.07L579.77,258.89L580.26,497.13L580.29,492.64L580.31,497.63L581.05,245.46L581.18,260.18L581.19,288.85L581.21,286.73L581.24,350.05L581.25,388.38L581.64,431.65L581.8,242.08L582,426.05L582.02,403.53L582.09,249.38L582.74,485.13L582.76,462.27L583.5,237.84L583.59,262.74L583.6,250.32L583.73,421.44L584.25,237.1L584.33,285.84L584.34,278.52L584.59,224.82L585.18,469.38L585.2,442.06L585.47,446.57L585.63,222.37L586.04,242.39L586.05,253.33L586.33,216.35L586.86,412.57L586.88,408.95L586.89,389L586.96,237.05L587.57,479.99L587.59,479.42L587.62,479.76L588.08,243.11L588.23,405.71L588.24,416.39L588.26,417.38L588.28,392.22L588.3,347.81L588.36,232.34L588.95,424.8L589.07,254.1L589.08,299.34L589.4,252.16L589.66,439.87L589.76,348.35L589.78,363.9L589.86,288.06L590.02,480.88L590.4,334.07L590.42,292.14L590.69,427.05L591.16,245L591.18,262.67L591.2,246.65L591.23,245.13L591.32,304.83L591.33,349.47L591.85,256.66L592.1,441.03L592.11,435.81L592.32,283.13L592.48,490.2L592.72,407.41L592.74,435.97L592.78,458.97L592.95,221.75L593.48,423.37L593.49,419.73L593.93,244.59L594.17,433.61L594.29,263.58L594.3,308.08L594.33,277.62L594.85,484.43L594.87,491.42L595.1,348.99L595.23,502.78L595.39,430.21L595.4,423.12L595.56,472.45L596.01,258.96L596.19,309.17L596.2,355.58L596.45,249.09L596.97,443.64L596.99,439.18L597,440.29L597.35,504.64L597.77,265.21L597.81,275.44L597.83,276.46L597.88,267.74L597.97,419.51L597.99,431.54L598,432.77L598.04,376.46L598.06,324.41L598.35,421.99L598.54,214.05L598.81,222.61L598.83,265.83L598.86,215.77L599.41,415.83L599.55,349.93L599.57,355.89L599.62,294.79L599.74,462.27L599.76,469.78L599.78,480.33L599.84,404.62L599.86,393.12L600.09,443.8L600.25,218.25L600.51,256.6L600.52,236.2L600.79,397.91L600.94,193.6L601.12,383.52L601.13,387.93L601.18,344.05L601.19,294.25L601.29,185.85L601.84,421.77L601.9,371.38L601.92,355.1L602.22,481.96L602.64,264.78L602.71,275.12L602.73,297.85L602.87,430.37L602.99,249.94L603.37,270.59L603.38,255.31L603.41,257.57L603.42,277.24L603.57,421.8L603.73,241.04L604,251.89L604.02,230.36L604.08,226.15L604.24,408.01L604.25,423.56L604.5,299.88L604.66,491.79L604.82,410.22L604.83,354.26L604.96,452.33L605.47,226.39L605.59,277.52L605.6,322.34L605.66,408.59L606.11,205.81L606.35,405.1L606.37,402.73L606.46,231.24L607.06,472.88L607.08,472.1L607.44,491.13L607.63,322.88L607.78,429.91L607.79,405.64L608.09,420.05L608.28,216.58L608.56,236.92L608.57,271.78L608.89,213.2L609.18,411.86L609.27,342.01L609.28,347L609.37,287.57L609.54,482.23L609.72,358.61L609.73,321.42L609.83,445.96L610.02,240.07L610.24,310.66L610.26,263.28L610.36,205.13L610.88,394.17L611.02,234.6L611.04,219.12L611.17,321.7L611.18,355.84L611.33,229.12L611.98,485.19L612,466.4L612.01,448.34L612.27,450.8L612.73,232.39L612.82,258.18L612.84,278.57L612.97,411.07L613.49,200.17L613.58,271.28L613.59,269.53L613.84,213.26L614.42,469.01L614.43,449.82L614.45,431.12L614.72,472.8L615.21,243.52L615.27,283.88L615.29,292.16L615.4,410.98L615.5,225.76L616.03,291.48L616.04,321.93L616.2,230.74L616.84,479.55L616.85,479.2L616.87,460.46L617.33,207.04L617.69,245.37L617.71,276.05L617.84,399.19L618.35,187.23L618.45,275.28L618.46,274.51L618.7,203.02L619.29,468.96L619.3,451.73L619.32,434.11L620.03,225.7L620.15,276.67L620.16,300.45L620.28,403.75L620.78,184.07L620.9,303.87L620.91,333.06L621.07,238.19L621.71,487.16L621.73,482.38L621.74,461.95L622.13,239.8L622.63,294.17L622.64,297.92L622.71,407.67L623.23,208.18L623.42,389.88L623.44,370.54L623.51,204.03L624.09,474.37L624.13,454.79L624.15,466.44L624.34,379.79L624.35,336.82L624.45,436.02L624.96,222.45L625.09,309.17L625.11,351.9L625.26,216.89L625.5,404.76L625.87,376.57L625.89,350.79L625.95,220.65L626.6,486.11L626.61,471.58L626.63,454.92L626.7,458.73L627.41,200.99L627.45,271.14L627.47,307.22L627.74,161.02L627.95,388.83L628.22,289.27L628.24,327.59L628.44,183.16L629.02,445.29L629.04,447.64L629.49,181.24L629.89,257.81L629.91,300.63L630.38,380.42L630.53,173.05L630.66,249.92L630.67,288.06L630.83,191.7L631.47,455.37L631.49,435.62L631.5,417.42L631.76,434.43L632.27,244.25L632.39,279.13L632.4,296.34L632.62,247.81L633.18,459.48L633.2,469.65L633.21,475.62L633.42,349.91L633.73,357.97L633.75,329.23L633.91,455.75L634.36,280.03L634.49,313.21L634.5,344.39L634.56,404.17L635.05,275.3L635.27,399.19L635.29,404.66L635.49,336.24L635.59,426.9L635.61,435.31L635.65,465.5L636.19,345.45L636.2,334.33L636.34,466.54L636.81,249.48L636.97,378.41L636.98,387.05L637,390.14L637.06,289.13L637.07,265.08L637.33,371.21L637.84,186.16L637.85,188.57L637.87,192.82L638.19,185.32L638.42,366.42L638.65,304.43L638.67,326.38L638.78,427.09L639.23,164.66L639.42,336.49L639.43,340.38L639.93,116.86L640.06,218.52L640.07,257.33L640.48,348.36L640.62,141.16L640.85,341.82L640.87,336.16L641.22,420.95L641.67,125.78L641.68,127.51L641.7,135.96L641.87,326.44L642.02,118.71L642.46,223.36L642.48,201.91L642.71,125.68L643.29,347.85L643.31,348.33L643.65,408.01L644.1,95.13L644.13,123.11L644.15,185.3L644.45,148.45L644.65,353.36L644.9,260.36L644.92,248.27L644.99,353.99L645.5,101.87L645.7,347.53L645.71,348.13L645.8,276.68L646.09,429.6L646.34,354.41L646.35,375.61L646.38,391.07L646.54,188.36L646.8,253.15L646.82,235.91L647.42,366.84L647.6,173.42L647.61,176.23L647.93,152.55L648.48,399.73L648.5,408.15L648.53,428.35L648.98,209.65L648.99,211.62L649.01,217.57L649.53,346.33L649.67,119.03L649.76,247.2L649.77,225.88L650.22,331.24L650.37,122.17L650.5,215.58L650.51,253.9L650.8,245.56L650.96,400.46L651.28,339.71L651.3,304.58L651.41,122.41L651.62,346.53L652.09,135.56L652.11,105.77L652.31,327.96L652.37,192.84L652.38,164.07L652.46,100.88L652.99,322.73L653.01,332.68L653.24,263.79L653.38,422.68L653.73,335.4L653.75,279.85L654.05,346.56L654.2,133.38L654.5,141.06L654.52,184.56L654.75,326.01L655.24,89.34L655.27,123.51L655.28,175.66L655.82,429.05L656.08,372.62L656.1,390.54L656.13,402L656.29,169L656.58,198.19L656.59,191.64L656.63,165.22L657.17,398.49L657.34,216.15L657.36,217.04L657.68,205.14L657.91,398.87L658.14,340.8L658.16,363.35L658.26,456.63L658.72,164.85L658.91,371.83L658.92,369.75L659.07,141.28L659.56,337.32L659.58,358.87L659.77,195.06L660.32,409.4L660.35,409.26L660.36,385.67L660.69,470.83L661.16,186.9L661.17,187.1L661.19,194.2L661.35,392.28L661.85,136.67L661.94,223.03L661.96,211.04L662.04,356.8L662.2,117.09L662.52,176.06L662.54,129.96L662.55,103.9L663.13,424.86L663.2,363.94L663.22,373.98L663.43,395.73L663.59,175.05L663.83,324.52L663.84,282.18L663.88,190.14L664.48,384.48L664.6,211.32L664.61,250.72L664.64,207.2L665.19,462.56L665.31,368.19L665.32,371.33L665.41,299.07L665.45,374.49L665.47,400.16L665.57,480.46L666.03,220.62L666.22,400.26L666.23,396.96L666.73,172.37L666.89,358.3L666.9,371.71L666.92,375.97L666.99,231.32L667,208.8L667.26,381.38L667.42,160.75L667.6,363.2L667.61,373.19L667.63,378.09L667.83,255.24L667.84,239.38L668.02,434.88L668.47,160.48L668.66,362.87L668.67,362.05L669.16,109.67L669.35,348.37L669.37,348.23L669.51,117.77L670.03,361.71L670.05,372.99L670.27,256.84L670.45,425.23L670.61,310.81L670.63,305.99L670.74,409.36L671.25,185.25L671.35,259.56L671.37,270.42L671.44,392.2L671.95,164.1L672.14,362.31L672.15,368.24L672.3,135.63L672.46,328.95L672.47,347.16L672.72,216.33L672.89,409.96L673.21,344.01L673.22,314.84L673.54,342.22L673.69,107.2L673.99,149.81L674.01,188.71L674.04,122.48L674.59,391.03L674.73,252.87L674.75,255.69L675.33,436.02L675.47,363.12L675.49,294.57L675.62,399.77L675.78,201.95L675.92,370.6L675.94,396.99L676.07,225.45L676.31,439.65L676.69,399.29L676.7,358L677.11,228.91L677.37,426.37L677.4,409.47L677.42,397.46L677.76,490.86L678.17,250.64L678.21,262.52L678.23,262.33L678.4,424.7L678.62,239.46L678.69,343.01L678.71,384.18L678.75,421.16L679.31,233.48L679.46,413.34L679.47,391.9L679.55,233.88L680.16,478.1L680.17,477.89L680.19,472.48L680.34,389.16L680.36,329.01L680.48,459.95L680.94,242.48L680.98,265.99L681,253.84L681.06,243.91L681.07,264.75L681.08,286.35L681.1,284.74L681.11,303.06L681.13,347.14L681.3,234.45L681.88,424.97L681.9,420.83L682.1,240.88L682.58,481.86L682.59,485.04L682.66,427.09L682.68,405.14L682.91,455.34L683.49,233.92L683.51,254.45L683.52,275.03L683.54,273.68L683.55,294.22L683.56,342.8L683.62,421.54L684.19,212.27L684.33,410.26L684.35,390.7L684.43,215.97L685.04,476.48L685.07,471.76L685.09,456.92L685.35,457.66L685.58,231.37L685.91,234.64L685.93,226.03L686.75,452.53L686.77,451.73L686.78,441.4L686.97,262.18L687.48,471.67L687.49,466.8L688,224.66L688.1,378.59L688.12,404.47L688.49,424.71L688.7,218.86L688.86,415.96L688.87,394.47L689.41,222.32L689.55,425.24L689.63,341L689.64,329.5L689.71,351.15L689.74,297.32L689.76,243.93L689.9,467.98L690.45,208.82L690.57,409.85L690.58,412.3L690.64,291.11L690.66,248.19L690.93,411.04L691.15,200.64L691.4,213.66L691.41,262.1L691.5,191.63L691.99,417.35L692.12,332.39L692.13,337.29L692.15,340L692.18,280.63L692.19,214.82L692.34,461.07L692.86,242.58L692.87,223.94L692.89,199.38L693.02,417L693.6,231.2L693.61,254.82L693.63,252.4L693.66,324.78L693.67,367.82L693.93,213.62L694.43,421.76L694.44,416.89L694.46,401.15L694.79,468.51L695.22,216.86L695.3,228.52L695.31,212.9L695.46,411.22L695.67,197.2L695.76,370.59L695.77,400.03L696.02,206.36L696.15,421.15L696.25,219.93L696.27,219.73L696.37,209.08L696.86,421.27L697.04,345.09L697.05,297.63L697.21,469.4L697.76,214.67L697.81,254.57L697.82,278.45L698.46,212.55L698.59,413.68L698.6,410.52L698.81,218.17L699.26,391.71L699.27,408.55L699.5,244.87L699.65,464.54L699.84,365.64L699.85,285.79L699.98,438.07L700.55,225.67L700.68,416.7L700.69,412.92L701.02,425.23L701.24,233.32L701.34,408.26L701.36,422.86L701.37,423.47L701.4,401.6L701.42,355.36L701.59,230.09L702.08,476.05L702.14,448.16L702.16,424.68L702.42,452.75L702.98,230.42L703,250.21L703.01,275.39L703.11,427.47L703.2,257.73L703.21,238.97L703.33,232.67L703.37,279.78L703.39,303.16L703.58,233.05L704.16,438.24L704.17,440.26L704.37,269.83L704.46,430.79L704.48,455.37L704.56,487.3L705.07,225.6L705.09,236.5L705.2,428.42L705.77,215.55L705.91,418.91L705.93,400.77L706.12,212.01L706.61,427.62L706.68,342.86L706.7,331.85L706.81,250.8L706.96,474.41L707.14,385.29L707.16,300.33L707.29,448.85L707.51,236.11L707.71,272L707.72,257.32L707.99,421.89L708.2,230.58L708.3,399.47L708.32,414.69L708.33,419.68L708.55,220.49L708.75,262.29L708.77,246.8L708.9,228.26L709.38,469.38L709.39,473.2L709.84,244.85L710.03,384.13L710.05,405.47L710.07,418.64L710.29,231.64L710.63,255.15L710.64,232.74L710.99,229.06L711.48,425.35L711.5,422.46L711.51,406.73L711.83,466.88L712.38,239.33L712.39,248.17L712.51,417.66L712.61,227.59L713.03,254.67L713.05,251.18L713.21,415.43L713.31,230.29L713.61,306.9L713.63,264.77L713.66,233.75L714.24,463.47L714.25,468.64L714.27,473.16L714.45,397.23L714.47,315.13L714.48,313.7L714.54,400.47L714.56,426.27L714.6,451.66L715.06,238.39L715.29,425.46L715.31,421.1L715.64,425.61L716.11,230.34L716.12,272.97L716.14,254.01L716.17,242.17L716.66,446.71L716.67,461.6L716.7,476.32L716.92,308.82L717.09,340.35L717.11,286.93L717.62,233.25L717.73,422.33L717.86,284.44L717.88,265.4L718.08,422.95L718.54,229.28L718.63,257.13L718.65,252.11L718.66,238.4L719.17,468.39L719.27,414.33L719.28,417.86L719.31,407.93L719.33,383.01L719.47,432.78L719.94,231.88L720.08,274.92L720.1,296.08L720.27,232.63L720.86,422.75L720.88,419.18L720.98,243.39L721.57,473.85L721.59,474.46L722.13,248.03L722.23,412.68L722.24,425.07L722.26,430.26L722.34,261.74L722.36,247.29L722.56,388.48L722.58,417.08L722.65,449.1L723.18,249.1L723.31,424.72L723.33,407.36L723.53,253.29L724.04,474.64L724.05,465.55L724.07,442.93L724.52,223.87L724.92,253.19L724.94,276.83L725.04,421.72L725.13,267.36L725.14,249.03L725.32,300.53L725.33,343.03L725.85,239.4L726.1,423.77L726.11,418.36L726.13,416.75L726.48,469.59L726.9,265.55L726.93,286.23L726.94,276.14L727.01,259.37L727.13,438.67L727.23,295.2L727.24,288.35L727.48,427.54L727.71,239.69L727.97,260.33L727.98,244.41L728.01,243.85L728.03,263.5L728.06,230.87L728.54,419.38L728.67,348.55L728.68,351.52L728.75,269.63L728.83,424.59L728.84,443.76L728.91,475.66L729.33,243.79L729.43,263.36L729.45,232.61L730.09,221.34L730.25,440.01L730.28,416.75L730.29,423.09L730.38,219.91L731.04,345.23L731.06,335.8L731.19,265.97L731.29,455.3L731.31,464.84L731.35,473.97L731.52,358.21L731.54,327.09L731.65,437.36L731.89,240.31L732.06,306.79L732.07,265.25L732.35,410.06L732.47,227.07L732.65,372.04L732.67,404.49L732.81,242.59L733.41,425.48L733.42,422.32L733.44,422.46L733.79,482.38L734.21,242.21L734.23,261.85L734.25,247.72L734.28,246.62L734.29,266.12L734.31,265.03L734.32,232.85L734.55,228.94L734.83,445.34L735.16,410.41L735.18,378.08L735.6,235L735.84,419.51L735.93,324.84L735.95,323.29L736.24,465.13L736.61,237.21L736.63,211.89L736.69,195.06L736.87,402.83L737.19,372.53L737.21,386.44L737.22,388.42L737.28,296.25L737.29,244.29L737.38,189.11L737.57,383.5L737.89,372.79L737.9,387.51L737.92,392.54L738.01,241.41L738.02,225.94L738.19,286.87L738.21,314.39L738.51,281.56L738.67,465.34L738.98,405.83L738.99,388.37L739.12,187.05L739.66,400.95L739.77,224L739.79,266.74L739.85,230.59L740.35,420.78L740.53,264.57L740.54,270.25L740.6,262.59L741.09,481.45L741.43,414.48L741.44,378.71L741.92,200.92L742.14,429.27L742.15,426.66L742.17,409.22L742.44,435.53L742.95,231.01L742.99,264.91L743.01,287.53L743.04,253.54L743.53,464.04L743.85,408.51L743.86,389.08L744.34,152.1L744.65,197.26L744.66,240.71L744.88,387.44L745.05,161.29L745.4,211.77L745.42,224.43L745.97,462.38L746.23,395.38L746.24,414.8L746.27,430.93L746.45,228.3L746.82,328.92L746.84,321.57L746.97,396.65L747.13,185.42L747.59,275.89L747.61,310.19L747.78,229.54L748.39,455.6L748.4,466.04L748.87,185.46L749.33,250.22L749.35,287.63L749.4,379.98L749.93,168.46L750.11,362.24L750.13,346.73L750.26,181.31L750.83,403.77L750.84,414.42L750.85,415.37L750.9,362.66L750.91,349.26L751.14,386.62L751.25,173.85L751.26,170.43L751.3,166.71L751.84,386.4L752.01,206.43L752.03,208.22L752.19,384.11L752.7,161.52L752.78,234.23L752.8,237.18L753.28,461.39L753.62,373.58L753.64,322.97L753.93,373.79L754.1,142.26L754.42,158.18L754.44,131.11L754.45,130.23L754.48,170.37L754.49,212.81L754.78,158.04L755.32,375.65L755.34,377.96L755.58,262.7L755.71,419.57L755.99,365.25L756,381.57L756.02,387.41L756.1,213.84L756.12,189.47L756.38,338.97L756.52,113.16L756.68,311.25L756.7,333.31L756.87,178.25L757.41,376.67L757.45,337.63L757.47,293.53L757.58,196.1L758.15,416.19L758.19,374.27L758.21,352.31L758.47,389.2L758.63,189.51L759.02,248.43L759.03,278.46L759.16,372.7L759.66,174.6L759.79,237.39L759.8,274.69L760.01,201.78L760.6,432.9L760.61,417.93L760.63,401.3L760.69,402.38L761.06,207.14L761.51,251.07L761.53,270.43L761.75,239.06L762.3,370.23L762.31,369.87L762.33,365.13L762.44,277.66L762.98,415.32L762.99,423.94L763.04,452.7L763.22,326.71L763.24,293.66L763.34,402.14L763.49,226.01L763.75,276.65L763.76,247.47L764.18,164.1L764.39,362.01L764.54,186.98L764.56,199.57L765.1,379.53L765.34,286.28L765.36,311.27L765.47,420.83L765.92,139.55L766.11,329.63L766.13,333.64L766.63,145.32L766.78,297.02L766.79,314.2L766.97,139.08L767.17,334.52L767.24,198.21L767.26,172.19L767.31,124.35L767.56,328.07L767.82,321.93L767.84,339.52L767.91,393.68L768.36,108.09L768.56,318.05L768.58,307.45L768.91,316.19L769.05,99.16L769.4,116.42L769.42,119.91L770.35,398.95L770.36,384.65L771.14,87.03L771.2,203.35L771.22,239.96L771.49,124.36L771.69,332.67L771.96,234.85L771.97,260.74L772.19,166.26L772.75,397.82L772.77,400.26L772.78,410.85L773.25,131.38L773.33,204.38L773.35,201.47L773.58,141.17L774.12,336.45L774.13,336.27L774.15,324.02L774.62,123.65L774.84,329.58L774.91,253.4L774.93,242.62L775.22,384.64L775.6,171.29L775.61,153L775.67,124.35L775.87,327.33L776.07,221.53L776.09,253.73L776.22,327.73L776.71,105.87L776.84,212.5L776.86,249.05L777.06,115.27L777.65,405.93L777.67,396.99L778.1,141.81L778.51,223.23L778.52,250.82L778.66,332.51L779.15,65.89L779.28,199.69L779.29,243.96L779.5,98.77L780.08,382.79L780.09,371.35L780.11,351.57L780.54,46.5L780.93,129.58L780.95,205.46L781.24,55.22L781.44,297.07L781.7,198.89L781.72,231.2L781.93,100.13L782.51,398.89L782.53,391.15L782.98,187.56L783.35,218.4L783.37,242.06L783.53,319.06L783.67,105.77L784.01,107.32L784.02,83.43L784.06,145.72L784.08,210.93L784.37,89.66L784.6,339.95L784.8,250.99L784.82,268.73L784.95,409.52L785.41,130.8L785.6,337.3L785.62,336.6L786.46,79.76L786.47,84.95L786.49,98.21L787.01,363.88L787.28,327.06L787.3,351.96L787.39,411.43L787.86,196.14L788.05,380.11L788.07,361.82L788.39,364.95L788.56,125.11L788.88,178.3L788.89,159.98L789.08,374.79L789.17,219.84L789.18,205.55L789.2,206.14L789.21,250.53L789.24,215.81L789.76,444.66L789.78,451.55L789.82,458.66L790.01,298.57L790.17,356.52L790.18,313.96L790.47,388.68L790.98,171.29L791,174.27L791.52,373.71L791.61,199.78L791.62,178.02L791.68,158.15L791.84,347.99L791.85,365.1L792.1,240.53L792.26,434.1L792.43,316.94L792.45,285.38L792.56,402.07L793.07,185.76L793.17,246.16L793.19,265.35L793.26,382.64L793.77,183.52L793.96,382.06L793.97,378.19L794.11,189.55L794.67,440.12L794.68,440.7L794.69,444.7L794.88,285.1L795.06,297.1L795.07,250.3L795.35,372.56L795.51,171.19L795.81,193.29L795.83,240.96L796.39,391.56L796.55,194.41L796.58,204.55L796.59,229.21L796.62,224.87L796.64,253.46L796.75,384.14L796.94,304.33L796.96,249.64L797.15,428.59L797.48,331.15L797.49,287.17L797.6,168.67L798.13,384.63L798.25,204.84L798.26,249.09L798.29,205.69L798.86,428.52L798.87,436.19L798.89,440.05L799.03,374.46L799.05,313.64L799.39,268.02L799.58,446.43L799.65,414.47L799.67,427.34L799.87,432.28L799.93,308.83L799.94,263.13L800.22,392.14L800.32,210.52L800.54,378.13L800.55,391.18L800.57,394.08L800.61,329.67L800.63,289.51L800.76,207.37L801.28,404.35L801.35,357.45L801.37,340.23L801.48,266.4L801.97,465.05L802,464.95L802.02,466.29L802.76,217.73L802.87,223.81L802.89,239.2L803.35,420.71L803.7,419.16L803.72,416.58L803.92,243.36L804.4,471.69L804.41,475.74L804.6,397.79L804.61,319.22L804.76,478.44L805.18,261.46L805.19,243.94L805.31,237.47L805.38,330.29L805.4,368.51L805.66,215.05L806.14,409.18L806.15,405.12L806.17,383.43L806.25,220.12L806.89,461.68L806.91,439.02L807.75,217.55L807.76,235.77L807.78,259.08L807.88,410.98L807.99,222.31L808.08,233.69L808.09,214.01L808.44,210.61L808.94,414.97L808.95,410.55L808.97,396.68L809.3,473.54L809.73,242.25L809.79,253.24L809.81,254.67L809.97,411.91L810.18,217.02L810.26,330.88L810.27,371.28L810.53,214.2L811.01,420.95L811.02,418.68L811.04,402.37L811.13,246.23L811.74,483.71L811.76,474.28L811.78,460.49L812.62,216.85L812.63,244.46L812.97,216.91L813.1,422.06L813.3,231.1L813.32,211.85L814.16,471.75L814.17,471.38L814.19,464.96L814.58,265.06L814.59,243.6L814.71,226.08L814.78,336.91L814.79,372.28L815.39,215.28L815.53,419.1L815.55,415.96L815.56,394.47L815.75,223.84L816.25,427.54L816.3,366.23L816.32,351.55L816.59,483.89L817.13,208.04L817.16,239.55L817.17,254.22L817.27,416.16L817.39,226.35L817.45,238.24L817.46,229.44L817.62,419.42L817.83,209.56L817.93,370.08L817.94,396.74L817.97,417.43L818.19,217.88L818.46,248.66L818.48,239.41L818.54,215.72L818.59,283.76L818.61,319.49L818.88,241.35L819.03,473.24L819.38,443.77L819.39,419.59L819.93,208.03L820.18,221.62L820.19,266.95L820.28,213.74L820.76,440.21L820.91,285.38L820.93,287.55L820.97,236.32L821.05,356.45L821.06,390.48L821.32,256.2L821.47,472.29L821.81,440.71L821.83,417.23L822.15,417.58L822.37,189.66L822.61,215.61L822.63,264.04L822.71,198.97L822.84,412.9L823.39,238.31L823.41,211.15L823.9,470.54L824.25,435.33L824.26,413.53L824.8,207.07L825.06,262.83L825.08,241.97L825.15,201.13L825.28,407.46L825.83,232.77L825.85,213.06L826.34,468.1L826.69,431.99L826.7,411.36L827.02,411.68L827.24,204.4L827.48,224.44L827.5,270.68L827.59,204.63L827.72,410.36L828.25,239.45L828.27,239.11L828.28,211.14L828.78,465.97L828.99,306.05L829.01,326.38L829.09,435.03L829.33,212.67L829.65,225.83L829.66,225.9L830.15,400.11L830.37,199.14L830.4,247.02L830.41,253.71L830.72,204.49L831.21,458.62L831.26,450.16L831.27,430.95L832.11,177.75L832.14,211.17L832.15,223.2L832.24,403.87L832.46,182.14L832.95,398.25L832.97,379.96L833.15,201.86L833.65,463.59L833.69,457.02L833.71,436.77L834.55,206.64L834.56,219.55L834.9,199.91L835.37,405.19L835.39,400.57L835.4,380.28L835.59,211.75L836.1,459.58L836.11,452.59L836.13,453.78L836.14,431.09L836.16,409.44L836.42,424.65L836.98,209.34L837,215.86L837.01,241.29L837.33,205.53L837.46,405.44L837.53,257.26L837.55,248.2L837.68,227.7L837.81,417.14L838.2,394.54L838.22,380.7L838.52,463.16L838.97,238.98L839.01,248.19L839.03,240.49L839.09,220.67L839.2,403.89L839.3,225.8L839.32,217.08L839.9,400.6L840,202.02L840.06,203.57L840.07,203.33L840.12,191.06L840.16,229.5L840.17,265.12L840.36,208.55L840.97,456.29L840.99,453.94L841.86,223.07L841.91,290.37L841.93,335.92L841.99,416.73L842.2,219.6L842.68,408.24L842.7,406.54L842.8,225.39L843.39,471.41L843.41,472.02L844.31,211.29L844.35,278.14L844.37,324.3L844.42,412.44L845,205.98L845.13,395.85L845.15,377.97L845.28,211.43L845.83,450.87L845.87,446.74L845.89,427.73L846.69,183.4L846.74,200.99L846.76,226.33L847.02,198.19L847.21,394.09L847.41,230.94L847.43,219.07L847.44,212.86L847.56,400.55L847.89,398.04L847.9,405.56L847.92,407.36L847.98,346.15L847.99,329.63L848.14,248.69L848.3,455.08L848.57,403.01L848.59,409.22L848.6,410.49L848.64,347.57L848.66,303.23L848.77,182.83L849.3,397.04L849.41,214.99L849.43,257.04L849.46,211.44L849.99,413.08L850.18,254.79L850.2,267.3L850.22,237.45L850.73,450.82L850.93,295.4L850.95,304.04L851.04,400.41L851.56,190.45L851.73,382.56L851.75,380.66L852.24,177.29L852.43,380.78L852.54,191.73L852.56,232.32L852.59,188.18L853.17,458.23L853.25,391.56L853.27,404.54L853.47,422.62L853.56,244.9L853.57,225.13L853.7,218.03L853.78,350.85L853.79,374.61L853.82,394.45L853.98,195.53L854.31,234.73L854.33,217.49L854.4,214.86L854.52,382.62L854.57,286.6L854.59,238.31L854.69,156.82L855.23,381.24L855.31,298.87L855.33,299.63L855.6,453.31L856.02,215.82L856.04,256.91L856.05,227.43L856.26,386.9L856.43,184.41L856.79,189.49L856.81,218.42L857.07,204.43L857.3,388.53L857.36,289.14L857.37,246.44L857.4,218.84L857.66,412.44L857.92,359.5L857.94,390.95L858.04,476.01L858.58,247.02L858.69,416.35L858.71,412.98L859.56,199.6L859.58,200.18L859.85,188.96L860.42,454.26L860.43,460.8L860.48,465.64L860.55,386.62L860.62,408.69L860.64,387.28L860.78,433.93L861.25,209.78L861.41,273.32L861.42,313.1L861.64,189.09L861.87,421.79L862.19,415.69L862.2,402.13L862.33,224.67L862.57,418.37L862.8,364.25L862.81,391.22L862.93,473L863.39,221.9L863.41,223.44L863.57,396.16L864.09,158.99L864.15,225.4L864.16,197.13L864.97,398.48L865,382.07L865.02,367.64L865.36,461.9L865.77,233.43L865.81,245.14L865.83,247.01L865.87,286.8L865.89,277.4L865.9,234.02L866.47,216.79L866.7,405.33L866.71,401.75L866.73,382.32L867.21,204.37L867.41,403.59L867.5,309.54L867.51,306.84L867.8,457.61L868.18,247.28L868.19,226.97L868.28,218.79L868.4,343.89L868.41,370.64L868.96,215L869.18,426.32L869.19,421.82L869.21,403.46L869.48,421.81L869.6,259.35L869.98,354.56L869.99,360.7L870.08,304.32L870.16,453.5L870.18,476.57L870.19,488.44L870.7,231.03L870.76,280.93L870.77,238.31L870.88,400.47L871.05,207.53L871.46,263.63L871.47,230.91L872.02,186.01L872.28,404.43L872.3,398.9L872.51,277.16L872.66,465.96L872.91,359.65L872.92,391.74L872.96,423.22L873.49,169.88L873.67,403.7L873.69,405.85L873.7,412.18L873.91,206.07L874.08,208.2L874.09,179.32L874.17,133.81L874.37,379.6L874.67,350.01L874.69,371.43L874.95,287.23L875.1,458.93L875.43,396.34L875.44,364.1L875.86,181.64L876.1,384.95L876.21,207.51L876.23,248.64L876.44,386.57L876.95,155.55L877,197.85L877.01,230.45L877.04,223.72L877.53,443.82L877.81,389.19L877.82,400.38L877.84,403.04L877.88,347.34L877.89,301.53L878.18,373.18L878.69,154.3L878.71,154.54L879.23,360.51L879.29,274.33L879.3,232.58L879.4,179.1L879.59,370.18L879.88,355.18L879.9,378.71L879.97,425.13L880.43,152.75L880.62,349.91L880.64,347.73L881.14,138.55L881.43,159.9L881.45,204.93L881.82,137.49L882.06,352.54L882.17,271.79L882.19,273.76L882.24,278.55L882.26,248.71L882.27,245.81L882.4,413.25L882.87,140.49L882.96,228.47L882.97,214.12L883.07,345.03L883.12,264.67L883.13,217.75L883.41,340.98L883.91,90.11L883.94,105.35L883.96,142.42L884.26,87.08L884.49,320.57L884.72,213.64L884.74,234.24L885.16,357.78L885.3,165.3L885.52,341.1L885.54,321.91L885.67,150.61L886.2,363.76L886.31,209.51L886.32,233.41L886.7,183.49L886.93,356.59L887.03,294.22L887.05,294.53L887.13,279.18L887.64,470.22L887.97,419.66L887.99,398.48L888.44,233.29L888.77,238.98L888.79,224.99L889.37,407.79L889.55,329.89L889.57,305.07L889.58,291.07L890.08,447.9L890.29,340.2L890.31,360.94L890.38,416.74L890.89,223.12L891.06,365.98L891.08,368.73L891.57,160.26L891.74,291.29L891.76,305.53L892.02,269L892.16,420.48L892.51,311.3L892.53,258.46L892.82,350.73L893.31,164.88L893.32,170.12L893.51,342.81L893.66,148.51L893.93,192.02L893.95,171.1L894.01,139.47L894.22,342.24L894.48,304.17L894.5,329.36L894.6,403.05L895.05,140.17L895.24,320.74L895.25,321.65L895.6,329.26L895.75,128.76L895.88,220.34L895.89,256.36L896.09,103.63L896.66,341.73L896.69,340.05L896.7,312.23L897.04,407.71L897.49,153.07L897.53,197.93L897.54,240.2L897.69,343.25L897.83,124.8L898.17,128.06L898.18,102.65L898.39,333.3L898.52,173.38L898.53,151.87L898.59,232.46L898.6,262.89L898.88,160.13L899.1,347.26L899.33,265.15L899.34,292.59L899.47,410.45L899.92,141.41L899.94,141.72L900.11,338.64L900.29,137.47L900.53,202.26L900.55,180.83L900.82,323.99L900.98,126.47L901.32,134.58L901.33,135.96L901.91,402.36L902.21,351.65L902.23,334.47L902.71,113.77L903.01,130.99L903.03,166.43L903.26,295.2L903.75,75.69L903.78,127.32L903.8,169.09L904.35,386.42L904.59,340.88L904.61,369.9L904.65,401.98L905.23,247.07L905.29,319.54L905.3,345.5L905.33,364.42L905.51,175.94L905.81,218.79L905.83,182.39L906.19,147.88L906.41,343.12L906.52,286.32L906.54,284.14L906.62,246.39L906.77,412.73L906.94,308.89L906.96,257.31L907.06,356.3L907.58,151.3L907.7,228.73L907.71,257.38L907.93,133.17L908.12,348.86L908.49,327.16L908.51,303.23L908.64,140.57L909.2,412.3L909.23,380.68L909.25,360.72L909.67,104.53L910.09,185.38L910.1,195.29L910.21,331.49L910.26,244.74L910.28,191.83L910.55,326.46L910.71,88.26L911.06,92.96L911.08,97.5L911.64,393.79L911.93,345.69L911.95,348.47L912,252.53L912.02,190.54L912.11,95.58L912.66,325.26L912.76,148.66L912.77,196.14L913,339.81L913.5,134.29L913.53,150.5L913.54,191.42L914.08,394.03L914.35,314.52L914.37,326.93L914.4,337.87L914.89,119.6L914.9,119.57L915.24,116.77L915.44,334.59L915.51,177.34L915.53,158.35L915.59,154.53L915.77,364.55L915.88,175.34L915.89,169.57L915.93,151.61L916.51,406.45L916.66,300.44L916.67,291.15L916.98,135.7L917.18,346.8L917.43,242.1L917.44,264.5L917.67,178.2L917.86,373.23L918.23,361.03L918.24,343.89L918.37,138.56L918.95,423.21L918.96,423.1L918.98,407.53L919.25,418.18L919.79,197.54L919.85,237.43L919.86,245.83L919.95,383.21L920.11,170.99L920.52,221.18L920.53,212.45L921.39,447.77L921.4,446L921.42,422.19L922.2,174.37L922.27,203.84L922.29,227.59L922.39,370.28L922.55,168.29L922.79,279.93L922.81,234.41L922.91,168.54L923.45,374.7L923.53,279.09L923.55,270.95L923.82,417.05L924.23,168.07L924.24,155.47L924.48,341.61L924.65,124.6L924.97,142.16L924.98,119.09L925,117.22L925.04,177.04L925.06,168.72L925.07,191.55L925.1,206.16L925.11,246.61L925.33,109.46L925.88,367.33L925.91,353.21L925.93,342.12L926.27,439.34L926.72,211.22L926.74,209.67L926.82,253.63L926.84,275.8L927.26,387.49L927.43,167.59L927.61,366.37L927.62,364.02L928.12,151.08L928.28,346.42L928.29,363.26L928.52,258.32L928.71,430.38L929.03,364.74L929.04,325.46L929.35,356.1L929.86,133.77L929.87,133.83L930.41,344.59L930.48,184.3L930.49,159.73L930.55,140.79L930.68,259.48L930.7,294.26L930.96,206.93L931.15,409.24L931.47,364.89L931.48,339.65L931.84,391.96L932.25,187.43L932.26,230.44L932.28,200.5L932.48,362.28L932.99,156.59L933.03,197.68L933.05,187.81L933.58,422.8L933.89,393.96L933.9,372.35L934.57,378.96L934.69,192.3L934.71,213.16L934.73,194.37L934.79,188.21L934.84,256.2L934.86,300.42L935.08,181.74L935.63,389.33L935.64,384.57L935.83,242.34L935.98,448.88L936.28,411.02L936.29,415.61L936.31,416.32L936.32,409.2L936.34,387.08L936.77,197.7L937.01,392.19L937.12,211.84L937.14,259.24L937.57,199.84L937.7,395.23L937.9,208.79L937.92,210L938.43,476.49L938.75,441.35L938.76,436.49L939.31,203.6L939.56,238.32L939.57,287.32L939.66,212.34L940.14,433.14L940.15,434.64L940.36,243.09L940.5,452.7L940.78,419.17L940.79,447.23L940.86,486.69L941.05,302.9L941.37,312.93L941.39,307.98L941.88,473.31L942.1,268.08L942.12,321.4L942.14,344.02L942.24,472.23L942.79,261.29L942.92,448.48L942.94,449.35L943.14,272.37L943.29,476.12L943.56,401.11L943.58,427.25L943.62,446.98L944.18,206.74L944.2,224.81L944.31,414.08L944.88,197.54L945.03,402.18L945.04,383.03L945.23,198.39L945.74,461.13L945.76,455.26L945.78,439.61L946.62,202.03L946.64,223.03L946.75,412.68L947.32,180.82L947.43,395.48L947.45,400.16L947.66,179.08L947.75,339.07L947.77,370.1L948.01,204.62L948.17,453.91L948.52,396.44L948.53,343.42L948.71,183.92L949.19,395.82L949.3,211.15L949.32,259.67L949.4,193.9L949.88,400.46L950.1,203.18L950.12,227.8L950.59,454.77L950.94,419.29L950.96,396.83L951.28,400.66L951.49,193.71L951.74,215.84L951.75,256.27L951.97,399.06L952.19,192.97L952.29,383.78L952.31,397.16L952.54,203.26L952.68,409.31L952.86,335.61L952.87,291.97L953.03,462.15L953.58,210.26L953.63,256.37L953.64,284.42L953.71,403.24L954.28,181.01L954.41,398.05L954.42,394.82L954.63,186.96L954.76,395.03L955.08,379.61L955.09,397.29L955.32,233.76L955.47,458.12L955.83,400.16L955.84,351.55L956.15,399.69L956.37,186.12L956.61,210.26L956.63,257.58L956.71,174.35L956.84,395.21L957.38,235.52L957.4,232L957.41,194.3L957.9,456.68L958.12,292.94L958.14,313.64L958.24,423.13L958.8,193.04L958.82,211.43L959.28,393.01L959.5,193.27L959.63,389L959.64,387.22L959.85,200.53L960.28,410L960.3,430.43L960.34,456.47L960.86,214.82L960.88,214.06L961.24,182.83L961.37,391.15L961.62,234.59L961.63,244.71L961.93,192.78L962.43,404.76L962.44,401.01L962.46,383.96L962.78,456.41L963.33,207.67L963.34,219.08L963.46,400.54L963.68,194.75L963.97,227.4L963.98,228.05L964.02,188.86L964.15,401.15L964.46,352.34L964.47,384.29L964.62,211.02L964.86,415.88L965.05,310.57L965.07,241.55L965.21,464.47L965.78,212.36L965.88,401.27L965.89,405.18L966.13,207.31L966.18,317.25L966.2,359.98L966.59,404.59L966.81,195.62L966.95,400.12L966.97,381.02L967.16,204.03L967.65,463.16L967.69,458.54L967.71,432.04L968.21,209.74L968.52,227.85L968.53,233.24L968.68,396.27L968.9,197.02L969.27,232.68L969.29,241.68L969.49,214.75L970.09,454.92L970.11,451.99L970.13,452.07L970.98,195.31L971,201.97L971.81,409.55L971.83,405.33L971.84,388.27L972.03,218.68L972.55,466.51L972.57,466.25L972.58,443.12L973.09,204.57L973.42,214.35L973.44,202.21L973.55,402.32L974.23,382.24L974.25,386.94L974.32,243.73L974.33,225.37L974.36,202.25L974.61,406.21L974.89,381.45L974.9,414.09L974.97,462.82L975.52,225.21L975.64,409.21L975.65,405.57L975.87,218.23L975.99,412.41L976.31,393.03L976.32,406.79L976.34,408.65L976.38,352.51L976.39,306.64L976.57,235.66L977.05,454.46L977.06,448.09L977.08,447.73L977.42,472.77L977.84,229.42L977.92,234.64L977.93,248.66L978.08,419.98L978.31,210.76L978.38,359.36L978.39,388.88L978.41,413.75L978.66,210.01L979,214.8L979.02,238.97L979.24,216.37L979.48,403.32L979.69,262.43L979.7,254.26L979.86,468.14L980.4,218.36L980.48,370.32L980.5,396.06L980.51,400L980.74,209.45L980.92,286.91L980.93,248.7L980.98,205.23L981.21,398.89L981.5,342.76L981.51,371.2L981.56,406.52L981.79,212.87L982.12,256.78L982.14,233.82L982.3,458.01L982.72,199.58L982.92,365.77L982.93,379.18L982.95,381.5L982.99,334.98L983.01,284.19L983.14,195.98L983.64,382.33L983.76,209.57L983.78,253.25L983.99,386.88L984.15,199.66L984.5,302.37L984.51,303.88L984.53,304.27L984.54,297.45L984.56,258.34L984.73,446.1L985.21,191.77L985.31,253.84L985.33,295.58L985.85,193.86L986.08,389.28L986.1,384.92L986.11,367.16L986.53,215.25L986.78,406.78L986.86,331.46L986.88,321.73L986.89,321.34L986.95,348L986.98,331.09L986.99,283.84L987.17,467.38L987.71,210.5L987.75,268.48L987.76,307.56L987.82,390.65L987.94,184.98L988.53,384.01L988.55,368.1L988.63,219.55L989.26,441.22L989.3,351.18L989.32,337.5L989.61,474.38L990.14,213.4L990.17,243.25L990.19,273.93L990.26,393.37L990.77,185.86L990.95,383.59L990.97,379.92L991.07,186.45L991.68,405.87L991.69,399.73L992.04,476.65L992.52,194.6L992.53,197.74L992.55,233.47L992.81,199.49L993.39,392.65L993.4,387.99L993.85,200.47L994.04,346.56L994.06,377.23L994.32,264.07L994.48,475.06L994.81,410.93L994.83,373.9L995.13,390.32L995.3,171.1L995.59,219.9L995.61,262.73L995.94,227.09L996.22,437.71L996.29,357.92L996.31,363.02L996.41,274.5L996.93,464.68L997.07,386.9L997.09,370.9L997.22,421.03L997.73,181.11L997.86,268.02L997.87,315.06L998.09,190.43L998.26,374.1L998.64,354.78L998.65,324.83L998.79,179.72L999.34,412.12L999.35,423.31L999.39,379.21L999.41,356.93L999.66,357.32L1000.18,100.71L1000.28,184.73L1000.29,211.52L1000.51,144.55L1001.06,369.76L1001.09,350.24L1001.11,310.88L1001.21,186.91L1001.8,423.06L1001.83,399.33L1001.85,384.8L1002.08,413.05L1002.61,187.13L1002.72,242.12L1002.73,277.31L1002.79,372.31L1003.31,136.97L1003.48,328.74L1003.5,328.94L1003.64,141.48L1004.17,407.03L1004.18,416.26L1004.22,437.88L1004.62,224.77L1004.63,201.73L1004.88,364.26L1005.05,167.33L1005.18,305.28L1005.2,331.03L1005.22,353.94L1005.73,146.9L1005.93,335.72L1005.95,317.56L1006.08,146.92L1006.63,419.58L1006.65,422.11L1006.66,434.61L1007.14,201.34L1007.34,355.48L1007.36,329.65L1007.66,355.98L1007.83,150.69L1008.12,170.32L1008.14,211.97L1008.17,149.84L1008.72,373.06L1008.86,320.07L1008.88,321.02L1008.95,273.63L1009.01,369.14L1009.02,393.03L1009.1,437.74L1009.49,193.17L1009.5,167.02L1009.76,304.85L1009.92,65.55L1010.05,201.81L1010.07,240.11L1010.46,292.95L1010.6,63.27L1010.82,270.83L1010.84,260.48L1010.95,62.62L1011.55,393.11L1011.56,376.25L1011.58,358.69L1012,53.25L1012.4,218.44L1012.42,245.45L1012.55,334.81L1012.69,131.06L1013.16,235.12L1013.17,250.38L1013.35,200.69L1013.97,405.38L1013.98,405.14L1014,388.81L1014.19,290.29L1014.68,447.2L1014.72,408.36L1014.74,406.99L1014.77,424.09L1015.13,252.9L1015.39,310.07L1015.4,286.74L1015.68,353.75L1015.83,203.55L1016.04,345.97L1016.06,358.4L1016.1,313.06L1016.12,300.62L1016.27,232.97L1016.42,380.28L1016.87,297.43L1016.88,298.58L1016.96,286.6L1017,338.91" style="vector-effect: non-scaling-stroke; fill: none; stroke: rgb(99, 110, 250); stroke-opacity: 1; stroke-width: 2px; opacity: 1;"/></g><g class="points"/><g class="text"/></g><g class="trace scatter trace0c8d17" style="stroke-miterlimit: 2; opacity: 1;"><g class="fills"/><g class="errorbars"/><g class="lines"/><g class="points"><path class="point" transform="translate(39.37,523.57)" d="M5,0A5,5 0 1,1 0,-5A5,5 0 0,1 5,0Z" style="opacity: 1; stroke-width: 0px; fill: rgb(239, 85, 59); fill-opacity: 1;"/><path class="point" transform="translate(39.39,528.52)" d="M5,0A5,5 0 1,1 0,-5A5,5 0 0,1 5,0Z" style="opacity: 1; stroke-width: 0px; fill: rgb(239, 85, 59); fill-opacity: 1;"/><path class="point" transform="translate(39.4,527.46)" d="M5,0A5,5 0 1,1 0,-5A5,5 0 0,1 5,0Z" style="opacity: 1; stroke-width: 0px; fill: rgb(239, 85, 59); fill-opacity: 1;"/><path class="point" transform="translate(39.42,527.75)" d="M5,0A5,5 0 1,1 0,-5A5,5 0 0,1 5,0Z" style="opacity: 1; stroke-width: 0px; fill: rgb(239, 85, 59); fill-opacity: 1;"/><path class="point" transform="translate(39.43,529.55)" d="M5,0A5,5 0 1,1 0,-5A5,5 0 0,1 5,0Z" style="opacity: 1; stroke-width: 0px; fill: rgb(239, 85, 59); fill-opacity: 1;"/><path class="point" transform="translate(58.92,521.91)" d="M5,0A5,5 0 1,1 0,-5A5,5 0 0,1 5,0Z" style="opacity: 1; stroke-width: 0px; fill: rgb(239, 85, 59); fill-opacity: 1;"/><path class="point" transform="translate(61.32,521.71)" d="M5,0A5,5 0 1,1 0,-5A5,5 0 0,1 5,0Z" style="opacity: 1; stroke-width: 0px; fill: rgb(239, 85, 59); fill-opacity: 1;"/><path class="point" transform="translate(61.33,521.9)" d="M5,0A5,5 0 1,1 0,-5A5,5 0 0,1 5,0Z" style="opacity: 1; stroke-width: 0px; fill: rgb(239, 85, 59); fill-opacity: 1;"/><path class="point" transform="translate(393.85,42.05)" d="M5,0A5,5 0 1,1 0,-5A5,5 0 0,1 5,0Z" style="opacity: 1; stroke-width: 0px; fill: rgb(239, 85, 59); fill-opacity: 1;"/><path class="point" transform="translate(394.2,34.45)" d="M5,0A5,5 0 1,1 0,-5A5,5 0 0,1 5,0Z" style="opacity: 1; stroke-width: 0px; fill: rgb(239, 85, 59); fill-opacity: 1;"/><path class="point" transform="translate(394.21,42.46)" d="M5,0A5,5 0 1,1 0,-5A5,5 0 0,1 5,0Z" style="opacity: 1; stroke-width: 0px; fill: rgb(239, 85, 59); fill-opacity: 1;"/><path class="point" transform="translate(394.55,38.63)" d="M5,0A5,5 0 1,1 0,-5A5,5 0 0,1 5,0Z" style="opacity: 1; stroke-width: 0px; fill: rgb(239, 85, 59); fill-opacity: 1;"/></g><g class="text"/></g></g></g><g class="overplot"/><path class="xlines-above crisp" d="M102,664.5H1120" style="fill: none; stroke-width: 1px; stroke: rgb(255, 255, 255); stroke-opacity: 1;"/><path class="ylines-above crisp" d="M102.5,100V664" style="fill: none; stroke-width: 1px; stroke: rgb(255, 255, 255); stroke-opacity: 1;"/><g class="overlines-above"/><g class="xaxislayer-above"><g class="xtick"><text text-anchor="middle" x="0" y="696.2" transform="translate(103,0)" style="font-family: 'Open Sans', verdana, arial, sans-serif; font-size: 26px; fill: rgb(42, 63, 95); fill-opacity: 1; white-space: pre;">2011</text></g><g class="xtick"><text text-anchor="middle" x="0" y="696.2" transform="translate(230.04000000000002,0)" style="font-family: 'Open Sans', verdana, arial, sans-serif; font-size: 26px; fill: rgb(42, 63, 95); fill-opacity: 1; white-space: pre;">2012</text></g><g class="xtick"><text text-anchor="middle" x="0" y="696.2" transform="translate(357.43,0)" style="font-family: 'Open Sans', verdana, arial, sans-serif; font-size: 26px; fill: rgb(42, 63, 95); fill-opacity: 1; white-space: pre;">2013</text></g><g class="xtick"><text text-anchor="middle" x="0" y="696.2" transform="translate(484.47,0)" style="font-family: 'Open Sans', verdana, arial, sans-serif; font-size: 26px; fill: rgb(42, 63, 95); fill-opacity: 1; white-space: pre;">2014</text></g><g class="xtick"><text text-anchor="middle" x="0" y="696.2" transform="translate(611.51,0)" style="font-family: 'Open Sans', verdana, arial, sans-serif; font-size: 26px; fill: rgb(42, 63, 95); fill-opacity: 1; white-space: pre;">2015</text></g><g class="xtick"><text text-anchor="middle" x="0" y="696.2" transform="translate(738.55,0)" style="font-family: 'Open Sans', verdana, arial, sans-serif; font-size: 26px; fill: rgb(42, 63, 95); fill-opacity: 1; white-space: pre;">2016</text></g><g class="xtick"><text text-anchor="middle" x="0" y="696.2" transform="translate(865.93,0)" style="font-family: 'Open Sans', verdana, arial, sans-serif; font-size: 26px; fill: rgb(42, 63, 95); fill-opacity: 1; white-space: pre;">2017</text></g><g class="xtick"><text text-anchor="middle" x="0" y="696.2" transform="translate(992.97,0)" style="font-family: 'Open Sans', verdana, arial, sans-serif; font-size: 26px; fill: rgb(42, 63, 95); fill-opacity: 1; white-space: pre;">2018</text></g><g class="xtick"><text text-anchor="middle" x="0" y="696.2" transform="translate(1120.01,0)" style="font-family: 'Open Sans', verdana, arial, sans-serif; font-size: 26px; fill: rgb(42, 63, 95); fill-opacity: 1; white-space: pre;">2019</text></g></g><g class="yaxislayer-above"><g class="ytick"><text text-anchor="end" x="96.8" y="9.1" transform="translate(0,589.35)" style="font-family: 'Open Sans', verdana, arial, sans-serif; font-size: 26px; fill: rgb(42, 63, 95); fill-opacity: 1; white-space: pre;">6k</text></g><g class="ytick"><text text-anchor="end" x="96.8" y="9.1" transform="translate(0,512.2)" style="font-family: 'Open Sans', verdana, arial, sans-serif; font-size: 26px; fill: rgb(42, 63, 95); fill-opacity: 1; white-space: pre;">8k</text></g><g class="ytick"><text text-anchor="end" x="96.8" y="9.1" transform="translate(0,435.04)" style="font-family: 'Open Sans', verdana, arial, sans-serif; font-size: 26px; fill: rgb(42, 63, 95); fill-opacity: 1; white-space: pre;">10k</text></g><g class="ytick"><text text-anchor="end" x="96.8" y="9.1" transform="translate(0,357.89)" style="font-family: 'Open Sans', verdana, arial, sans-serif; font-size: 26px; fill: rgb(42, 63, 95); fill-opacity: 1; white-space: pre;">12k</text></g><g class="ytick"><text text-anchor="end" x="96.8" y="9.1" transform="translate(0,280.73)" style="font-family: 'Open Sans', verdana, arial, sans-serif; font-size: 26px; fill: rgb(42, 63, 95); fill-opacity: 1; white-space: pre;">14k</text></g><g class="ytick"><text text-anchor="end" x="96.8" y="9.1" transform="translate(0,203.57999999999998)" style="font-family: 'Open Sans', verdana, arial, sans-serif; font-size: 26px; fill: rgb(42, 63, 95); fill-opacity: 1; white-space: pre;">16k</text></g><g class="ytick"><text text-anchor="end" x="96.8" y="9.1" transform="translate(0,126.43)" style="font-family: 'Open Sans', verdana, arial, sans-serif; font-size: 26px; fill: rgb(42, 63, 95); fill-opacity: 1; white-space: pre;">18k</text></g></g><g class="overaxes-above"/></g></g><g class="polarlayer"/><g class="ternarylayer"/><g class="geolayer"/><g class="funnelarealayer"/><g class="pielayer"/><g class="treemaplayer"/><g class="sunburstlayer"/><g class="glimages"/><defs id="topdefs-150897"><g class="clips"/><clipPath id="legend150897"><rect width="147" height="47" x="0" y="0"/></clipPath></defs><g class="layer-above"><g class="imagelayer"/><g class="shapelayer"/></g><g class="infolayer"><g class="legend" pointer-events="all" transform="translate(113.17, 105.64)"><rect class="bg" shape-rendering="crispEdges" width="147" height="47" x="0" y="0" style="stroke: rgb(68, 68, 68); stroke-opacity: 1; fill: rgb(255, 255, 255); fill-opacity: 1; stroke-width: 0px;"/><g class="scrollbox" transform="translate(0, 0)" clip-path="url('#legend150897')"><g class="groups"><g class="traces" transform="translate(0, 23.400000000000002)" style="opacity: 1;"><text class="legendtext user-select-none" text-anchor="start" x="40" y="10.14" style="font-family: 'Open Sans', verdana, arial, sans-serif; font-size: 26px; fill: rgb(42, 63, 95); fill-opacity: 1; white-space: pre;">Outliers</text><g class="layers" style="opacity: 1;"><g class="legendfill"/><g class="legendlines"/><g class="legendsymbols"><g class="legendpoints"><path class="scatterpts" transform="translate(20,0)" d="M5,0A5,5 0 1,1 0,-5A5,5 0 0,1 5,0Z" style="opacity: 1; stroke-width: 0px; fill: rgb(239, 85, 59); fill-opacity: 1;"/></g></g></g><rect class="legendtoggle" pointer-events="all" x="0" y="-18.400000000000002" width="141.5625" height="36.800000000000004" style="cursor: pointer; fill: rgb(0, 0, 0); fill-opacity: 0;"/></g></g></g><rect class="scrollbar" rx="20" ry="3" width="0" height="0" x="0" y="0" style="fill: rgb(128, 139, 164); fill-opacity: 1;"/></g><g class="g-gtitle"><text class="gtitle" x="60" y="50" text-anchor="start" dy="0em" style="font-family: 'Open Sans', verdana, arial, sans-serif; font-size: 36px; fill: rgb(42, 63, 95); opacity: 1; font-weight: normal; white-space: pre;">South Demand outliers</text></g><g class="g-xtitle"><text class="xtitle" x="611.5" y="737.903125" text-anchor="middle" style="font-family: 'Open Sans', verdana, arial, sans-serif; font-size: 31px; fill: rgb(42, 63, 95); opacity: 1; font-weight: normal; white-space: pre;">Date</text></g><g class="g-ytitle" transform="translate(19.3564453125,0)"><text class="ytitle" transform="rotate(-90,11.643749999999997,382)" x="11.643749999999997" y="382" text-anchor="middle" style="font-family: 'Open Sans', verdana, arial, sans-serif; font-size: 31px; fill: rgb(42, 63, 95); opacity: 1; font-weight: normal; white-space: pre;">Demand</text></g></g></svg>