<svg class="main-svg" xmlns="http://www.w3.org/2000/svg" xmlns:xlink="http://www.w3.org/1999/xlink" width="1200" height="750" style="" viewBox="0 0 1200 750"><rect x="0" y="0" width="1200" height="750" style="fill: rgb(255, 255, 255); fill-opacity: 1;"/><defs id="defs-c5a562"><g class="clips"><clipPath id="clipc5a562xyplot" class="plotclip"><rect width="1017" height="564"/></clipPath><clipPath class="axesclip" id="clipc5a562x"><rect x="103" y="0" width="1017" height="750"/></clipPath><clipPath class="axesclip" id="clipc5a562y"><rect x="0" y="100" width="1200" height="564"/></clipPath><clipPath class="axesclip" id="clipc5a562xy"><rect x="103" y="100" width="1017" height="564"/></clipPath></g><g class="gradients"/></defs><g class="bglayer"><rect class="bg" x="103" y="100" width="1017" height="564" style="fill: rgb(229, 236, 246); fill-opacity: 1; stroke-width: 0;"/></g><g class="layer-below"><g class="imagelayer"/><g class="shapelayer"/></g><g class="cartesianlayer"><g class="subplot xy"><g class="layer-subplot"><g class="shapelayer"/><g class="imagelayer"/></g><g class="gridlayer"><g class="x"><path class="xgrid crisp" transform="translate(230.04000000000002,0)" d="M0,100v564" style="stroke: rgb(255, 255, 255); stroke-opacity: 1; stroke-width: 1px;"/><path class="xgrid crisp" transform="translate(357.43,0)" d="M0,100v564" style="stroke: rgb(255, 255, 255); stroke-opacity: 1; stroke-width: 1px;"/><path class="xgrid crisp" transform="translate(484.47,0)" d="M0,100v564" style="stroke: rgb(255, 255, 255); stroke-opacity: 1; stroke-width: 1px;"/><path class="xgrid crisp" transform="translate(611.51,0)" d="M0,100v564" style="stroke: rgb(255, 255, 255); stroke-opacity: 1; stroke-width: 1px;"/><path class="xgrid crisp" transform="translate(738.55,0)" d="M0,100v564" style="stroke: rgb(255, 255, 255); stroke-opacity: 1; stroke-width: 1px;"/><path class="xgrid crisp" transform="translate(865.93,0)" d="M0,100v564" style="stroke: rgb(255, 255, 255); stroke-opacity: 1; stroke-width: 1px;"/><path class="xgrid crisp" transform="translate(992.97,0)" d="M0,100v564" style="stroke: rgb(255, 255, 255); stroke-opacity: 1; stroke-width: 1px;"/></g><g class="y"><path class="ygrid crisp" transform="translate(0,602.51)" d="M103,0h1017" style="stroke: rgb(255, 255, 255); stroke-opacity: 1; stroke-width: 1px;"/><path class="ygrid crisp" transform="translate(0,520.13)" d="M103,0h1017" style="stroke: rgb(255, 255, 255); stroke-opacity: 1; stroke-width: 1px;"/><path class="ygrid crisp" transform="translate(0,437.76)" d="M103,0h1017" style="stroke: rgb(255, 255, 255); stroke-opacity: 1; stroke-width: 1px;"/><path class="ygrid crisp" transform="translate(0,355.39)" d="M103,0h1017" style="stroke: rgb(255, 255, 255); stroke-opacity: 1; stroke-width: 1px;"/><path class="ygrid crisp" transform="translate(0,273.01)" d="M103,0h1017" style="stroke: rgb(255, 255, 255); stroke-opacity: 1; stroke-width: 1px;"/><path class="ygrid crisp" transform="translate(0,190.64)" d="M103,0h1017" style="stroke: rgb(255, 255, 255); stroke-opacity: 1; stroke-width: 1px;"/><path class="ygrid crisp" transform="translate(0,108.26)" d="M103,0h1017" style="stroke: rgb(255, 255, 255); stroke-opacity: 1; stroke-width: 1px;"/></g></g><g class="zerolinelayer"/><path class="xlines-below"/><path class="ylines-below"/><g class="overlines-below"/><g class="xaxislayer-below"/><g class="yaxislayer-below"/><g class="overaxes-below"/><g class="plot" transform="translate(103, 100)" clip-path="url('#clipc5a562xyplot')"><g class="scatterlayer mlayer"><g class="trace scatter trace172717" style="stroke-miterlimit: 2; opacity: 1;"><g class="fills"/><g class="errorbars"/><g class="lines"><path class="js-line" d="M0,455.34L0.1,525L0.3,393.41L0.62,438.17L0.64,398.95L0.74,486.33L1.26,274.5L1.39,367.75L1.41,395.48L1.45,424L1.94,236.49L2.16,401.5L2.18,390.57L2.29,236.56L2.89,470.44L2.9,458.84L3.34,224.41L3.74,319.29L3.76,366.73L4.23,417.07L4.38,234.85L4.51,298.14L4.52,343.16L4.73,221.33L5.32,467.29L5.34,458.18L5.77,215.51L6.18,315.24L6.19,361.73L6.32,410.66L6.82,216.69L6.95,305.44L6.96,346.08L7.16,230.07L7.76,481.79L7.77,470.29L7.79,454.78L8.56,201.2L8.61,304.81L8.63,357.14L9.11,389.19L9.25,194.76L9.38,293.46L9.4,330.35L9.6,202.14L10.2,472.75L10.21,461.35L10.64,214.84L11.05,312.69L11.07,362.44L11.2,414.05L11.7,220.25L11.82,296.51L11.83,334.59L12.04,207.32L12.63,468.16L12.65,460.75L12.66,448.22L13.44,229.85L13.49,311.11L13.5,350.62L13.63,404.24L13.78,230.68L14.26,318.98L14.27,359.58L14.47,242.02L15.04,489.81L15.05,473.84L15.07,482.15L15.53,260.37L15.92,328.98L15.94,372.55L16.07,426.23L16.58,229.52L16.69,306.28L16.71,349.15L16.91,216.52L17.49,471.95L17.5,461.93L17.52,445.82L17.95,217.79L18.35,272.49L18.36,331.72L18.84,422.29L19,231.44L19.11,296.09L19.13,329.46L19.35,225.11L19.91,469.71L19.93,484.4L20.74,260.11L20.85,319.89L20.87,357.2L20.93,437.52L21.45,257.98L21.62,428.76L21.64,427.64L21.78,252.56L22.32,472.73L22.33,477.32L22.36,492.61L22.52,446.94L22.54,420.19L22.67,471.84L23.25,295.71L23.29,330.18L23.31,368.32L23.36,437.69L23.87,225.13L24.07,415.83L24.09,414.28L24.16,248.2L24.78,481.11L24.8,491.64L25.26,257.24L25.42,411.42L25.44,430.51L25.61,251.35L25.8,436.79L25.9,264.09L25.92,260.12L26.15,426.94L26.32,225.3L26.66,238.25L26.67,242.38L27.24,506.71L27.57,442.57L27.58,409.88L27.89,429.15L28.05,238.41L28.38,254.94L28.4,255.63L28.74,220.74L28.95,421.41L29.14,278.94L29.15,310.5L29.16,295.23L29.67,500.95L29.8,455.72L29.82,446.91L29.98,473.18L30.08,274L30.6,336.14L30.61,373.24L31.02,455.78L31.18,276.57L31.38,446.68L31.4,431.81L31.53,269.19L32.12,516.88L32.14,498.44L32.57,275.34L32.99,300.68L33.01,323.58L33.12,454.38L33.63,272.01L33.73,325.42L33.75,368.72L33.96,267.14L34.53,514.08L34.54,517.68L34.56,519.19L34.6,468.28L34.62,460.67L34.83,488.97L35.01,277.16L35.25,355.11L35.27,314.32L35.55,445.25L36.05,251.05L36.07,251.73L36.24,453.25L36.78,391.09L36.79,375.44L36.97,506.01L37.44,265.67L37.55,317.58L37.56,329.74L38.14,254.79L38.36,471.87L38.37,471.45L38.39,471.13L38.4,450.03L38.55,346.09L38.74,533.73L39.04,525.21L39.05,521.09L39.24,363.68L39.36,533.02L39.68,495.95L39.69,506.7L39.72,513.54L39.81,330.93L39.82,311.82L39.91,306.68L40.01,396.92L40.03,434.15L40.42,469.95L40.61,294.12L40.78,462.57L40.79,445.79L41.27,284.36L41.48,466.83L41.56,377.1L41.58,380.14L41.87,528.01L42.26,306.41L42.3,322.91L42.32,311.62L42.38,307.03L42.39,326.42L42.4,346.05L42.51,472.04L43.07,294.44L43.13,340.69L43.14,389.36L43.67,290.94L43.91,469.3L43.93,462.88L44.3,520.95L44.71,299.33L44.8,301.9L44.81,297.51L45.13,283.26L45.29,465.85L45.54,336.92L45.55,321.2L45.86,286.79L45.99,461.96L46.16,301.23L46.18,302.76L46.2,293.14L46.35,470.71L46.54,364.1L46.55,306.83L46.71,529.84L47.25,300.55L47.28,342.4L47.29,337.16L47.38,476.85L47.6,290.91L47.93,304.02L47.94,290.84L48.29,282.48L48.79,474.07L48.8,467.36L48.81,452.88L48.99,290.76L49.18,531.38L49.42,478.71L49.44,492.33L49.45,498.7L49.67,287.48L49.89,312.95L49.9,298.78L50.16,467.58L50.38,270.21L50.47,420.22L50.48,449.16L50.51,465.02L50.73,282.35L50.95,302.07L50.96,288.85L51.16,425.93L51.18,450.48L51.43,297.53L51.57,524.5L51.93,470.55L51.95,425.07L52.25,470.16L52.47,277.91L52.72,302.69L52.73,345.75L53.17,279.14L53.3,458.8L53.5,287.27L53.51,285.54L54.05,527.95L54.37,470.49L54.38,421.65L54.89,275.16L55.04,477.28L55.15,299.43L55.17,343.2L55.25,284.62L55.38,476.46L55.94,302.13L55.95,287.88L56.49,530.05L56.78,498.46L56.79,493.38L57.34,281.89L57.46,459.91L57.47,463.03L57.53,356.15L57.54,319.67L57.66,260.71L57.82,460.73L58.11,379.71L58.13,423.42L58.28,285.35L58.89,531.31L58.92,522.11L58.94,514.86L59.66,253.79L59.82,327.95L59.84,344.86L60.01,281.53L60.6,502.65L60.62,501.15L60.63,489.22L60.82,313.34L61.3,533.62L61.32,532.58L61.33,531.53L61.42,465.13L61.49,467.54L61.5,429.11L61.65,514.17L62.21,272.62L62.27,328.25L62.29,384.78L62.35,472.16L62.55,261.36L63.04,468.59L63.06,466.84L63.24,271.67L63.4,477.94L63.69,475.49L63.71,500.67L63.75,530.93L64.3,269.6L64.33,300.57L64.35,293.38L64.43,470.52L64.65,266.94L65.14,465.63L65.16,449.27L65.35,272.15L65.84,475.93L65.91,396.91L65.93,388.22L66.04,291.09L66.19,526.24L66.58,377.1L66.59,334.87L66.87,468.98L67.09,283.94L67.2,464.41L67.22,468.67L67.42,287.38L67.52,424.85L67.54,452.54L67.67,287.05L68.28,474.39L68.29,467.67L68.31,451.91L68.64,531.73L69.16,298.01L69.18,305.45L69.19,323.82L69.31,472.17L69.86,282.99L70,458.56L70.02,458.51L70.1,281.29L70.35,477.64L70.74,436.64L70.76,426.41L70.92,297.92L71.06,524.99L71.55,315.23L71.57,315.26L71.61,292.49L71.67,338.11L71.68,387.09L71.74,460.66L72.31,274.63L72.45,448.97L72.47,432.19L72.89,271.07L73.13,460.59L73.22,382.06L73.24,370.05L73.31,393.86L73.34,353.22L73.35,296.36L73.51,511.4L73.93,281.11L74.01,290.09L74.02,278.2L74.03,274.41L74.18,464.41L74.47,378.44L74.48,422.12L74.53,462.45L74.74,272.52L75.12,298.03L75.14,290.75L75.32,275L75.98,523.02L75.99,503.33L76.46,269.89L76.88,309.05L76.89,324.52L77.31,456.61L77.43,282.06L77.67,450.24L77.69,432.6L77.78,281.48L78.41,515.33L78.43,492.04L79.24,278.03L79.25,292.18L79.27,279.34L79.75,448.41L79.85,272.97L79.92,285.22L79.94,277.2L80.1,461.7L80.2,274.47L80.26,287.93L80.27,288.23L80.28,281.36L80.46,465.15L80.75,463.93L80.76,489.05L80.85,526.76L81.26,275.6L81.27,315.79L81.29,288.36L81.59,264.92L81.84,456.52L82.02,290.62L82.04,298.71L82.18,458.08L82.63,277.49L82.76,292.2L82.78,319.31L83.11,299.42L83.27,513.09L83.37,461.12L83.39,463.6L83.43,436.34L83.45,352.54L83.58,481.77L84.03,263.85L84.2,327.66L84.21,374.62L84.85,290.13L84.97,458.09L84.98,456.48L85,441.39L85.07,292.84L85.71,532.69L85.72,528.92L85.74,507.05L86.2,278.07L86.58,310.25L86.59,308.51L87.06,482.07L87.25,290.68L87.3,328.43L87.32,322.01L87.51,302.86L88.14,534.21L88.17,508.07L88.19,490.71L88.45,496.06L89.03,286.92L89.04,313.26L89.06,307.76L89.15,451.73L89.25,282.14L89.86,447.45L89.87,429.51L89.94,275.58L90.52,497.98L90.54,506.42L90.58,517.64L90.76,365.14L90.77,342.22L90.89,485.79L91.07,295.4L91.57,460.97L91.58,461.99L91.7,279.74L91.89,406.22L91.9,432.42L91.93,445.32L92.09,280.43L92.36,283.22L92.38,268.33L93.02,526.28L93.18,442.03L93.19,380.72L93.32,487.09L93.83,277.42L93.95,317.05L93.96,365.7L94.37,445.04L94.54,253.2L94.71,431.24L94.73,430.18L94.87,249.39L95.38,484.24L95.4,498.89L95.45,519.69L95.83,329.47L95.85,308.81L96.11,450.78L96.61,263.31L96.63,262L96.74,347.39L96.76,389L96.96,243.29L97.15,433.94L97.51,424.81L97.53,422.97L97.54,425.3L97.72,310.28L97.73,290.49L97.89,505.56L98.38,268.03L98.44,304.52L98.46,294.63L98.66,253.75L98.93,481.36L99.27,439.77L99.28,409.53L99.75,266.99L99.95,452.53L100.02,373.78L100.04,364.68L100.17,307.18L100.25,465.79L100.27,484.87L100.34,517.19L100.79,282.42L100.86,347.47L100.88,295.25L100.98,451.93L101.49,273.03L101.69,443.01L101.7,429.21L102.18,266.11L102.39,449.89L102.47,352.38L102.49,352.65L102.78,503.77L103.18,253.64L103.2,290.67L103.21,258.36L103.23,236.08L103.76,444.44L103.92,287.11L103.94,288.31L103.95,287.83L103.97,306.21L103.98,336.38L104.11,451.85L104.63,259.84L104.69,347.17L104.71,293.69L105.17,514.99L105.53,466.55L105.55,428.45L105.95,290.24L106.24,486.19L106.29,448.62L106.3,433.68L106.55,476.75L107.06,265.91L107.17,307.23L107.19,336.5L107.49,296.69L107.65,500.88L107.95,458.06L107.97,438.33L108.45,234.55L108.75,240.32L108.77,280.46L108.8,212.78L109.33,414.27L109.52,248.31L109.54,278.59L110.09,501.79L110.35,478.88L110.36,485.6L110.38,488.4L110.43,410.32L110.45,363.69L110.74,472.22L111.17,279.44L111.23,279.93L111.25,282.03L111.26,281.49L111.28,301.15L111.29,332.24L111.42,444.07L111.93,257.61L112.03,312.96L112.04,308.37L112.36,302.28L112.51,507.28L112.84,435.16L112.86,402.52L113.16,433.34L113.26,256.36L113.63,261.29L113.64,302.74L113.86,424.35L114.38,214.55L114.39,222.36L114.41,252.17L114.94,479.3L115.16,311.92L115.18,326.85L115.25,427.83L115.76,189.56L115.93,381.78L115.95,390.19L116,311.56L116.02,254.7L116.05,208.73L116.64,422.75L116.76,259.58L116.77,298.83L116.8,251.05L117.38,492.16L117.4,484.43L117.86,217.16L118.25,291.5L118.27,329.6L118.38,395.78L118.54,192.43L119.02,303.61L119.03,351.38L119.24,232.58L119.82,484.92L119.85,460.63L119.86,443.89L120.28,199.46L120.75,279.03L120.76,307.34L120.99,211.21L121.51,412.43L121.53,412.34L121.54,399.5L121.67,234.93L121.91,418.71L122.15,364.31L122.17,402.26L122.25,472.42L122.72,208.96L122.91,387.18L122.92,385.97L123.07,185.86L123.23,338.83L123.24,362.14L123.27,374.88L123.41,186.01L123.86,270.11L123.88,254.93L124.7,517.03L124.75,476.68L124.76,478.72L124.81,504.31L125.27,325L125.4,408.24L125.42,367.48L125.62,307.07L126.05,440.32L126.18,330.11L126.2,316.4L126.23,318.39L126.24,328.55L126.31,312.58L127.11,508.97L127.13,516.46L127.14,526.21L127.61,336.23L127.68,362.88L127.69,328.11L127.79,442.7L128.3,261.17L128.35,326.89L128.36,368.87L128.48,412.39L128.98,237.18L129.11,309.02L129.13,335.04L129.43,298.91L129.58,461.8L129.9,406.88L129.91,390.54L130.72,193.8L130.74,197.67L131.07,196.1L131.27,383.31L131.4,250.37L131.42,231.44L132.01,485.01L132.2,372.61L132.22,325.62L132.3,439.28L132.81,203.55L132.91,289.85L132.93,271.92L133.36,389.17L133.51,197.67L133.71,379.71L133.73,367.85L133.86,181.58L134.42,441.8L134.44,448.21L134.45,459.56L134.9,171.03L135,257.27L135.02,236.53L135.25,168.63L135.8,388.17L135.83,355.5L135.84,321.76L135.94,226.04L136.5,412.03L136.58,339.65L136.6,336.1L136.89,471.61L137.28,227.82L137.29,223.56L137.54,371.82L137.68,164.63L138,235.79L138.02,187.47L138.24,352.2L138.73,148.45L138.76,178.92L138.77,218.05L139.32,439.22L139.54,300.1L139.56,317.8L139.63,385.05L140.12,155.36L140.32,355.24L140.34,345.56L140.47,150.79L141.02,364.37L141.12,205.06L141.14,249.68L141.17,197.24L141.76,462.45L141.83,410.93L141.85,412.88L142.19,207.88L142.21,180.55L142.22,179.4L142.25,220.68L142.27,275.13L142.41,365.25L142.91,153.64L143.01,249.89L143.02,227.26L143.25,139.97L143.82,355.69L143.83,353.61L143.85,359.63L144.05,270.81L144.2,428.94L144.63,278.3L144.65,260.78L144.85,378.07L145.07,343.1L145.08,296.09L145.2,387.85L145.33,228.14L145.34,205.29L145.36,203.3L145.39,243.96L145.4,287.8L145.53,378.06L146.04,173.79L146.14,283.52L146.15,266.88L146.62,459.92L146.81,310.56L146.82,301.22L146.92,409.92L147.08,185.17L147.34,244.46L147.36,217.45L147.78,165.66L147.97,393.25L148.08,208.15L148.1,253.62L148.13,199.19L148.71,405.33L148.82,342.05L148.84,346.77L148.89,275.82L149.05,469.38L149.23,369.87L149.24,301.68L149.36,403.91L149.52,149.6L149.69,350.36L149.71,358.25L149.72,359.98L149.76,287.49L149.78,223.41L150.21,133.61L150.42,352.56L150.53,208.4L150.55,162.61L150.56,139.61L151.14,383.66L151.23,314.65L151.24,308.57L151.33,246.78L151.43,402.99L151.45,414.15L151.49,445.27L151.9,173.4L151.91,170.45L152.3,138.99L152.51,363.42L152.65,182.58L152.67,187.49L153.55,409.88L153.56,404.74L153.58,404.62L153.93,475.43L154.39,200L154.42,206L154.43,240.95L154.59,389.78L154.74,185.09L155.17,285.03L155.19,269.06L155.28,396.9L155.44,213.5L155.71,247.85L155.73,232.74L155.78,228.17L155.93,362.46L155.94,391.66L156.2,271.4L156.36,488.99L156.7,440.79L156.71,405.03L156.83,223.6L157.36,436.52L157.48,273.6L157.49,319.45L157.71,436.19L158.22,249.31L158.26,283.98L158.28,302.67L158.29,274.2L158.8,487.12L159,329.65L159.02,344.52L159.1,445.41L159.61,211.94L159.79,407.32L159.8,408.05L159.86,316.33L159.87,269.41L159.97,192.75L160.45,401.47L160.47,427.77L161.08,298.28L161.25,491.07L161.27,469.32L162.05,235.94L162.12,274.68L162.14,297.79L162.58,417.92L162.76,210.7L162.87,317.56L162.89,357.49L163.09,208.52L163.64,481.59L163.67,480.49L163.69,482.07L164.48,236.96L164.56,269.26L164.57,294.39L164.67,417.83L164.83,224.38L165.3,289.86L165.31,332.52L165.53,227.03L166.12,487.33L166.14,467.84L166.86,252.42L166.99,274.94L167.01,299.03L167.3,248.94L167.46,427.73L167.73,319.53L167.75,360.65L167.91,262.27L168.52,512.65L168.53,511.7L168.55,509.26L168.56,511.48L168.7,425.04L168.72,340.4L169.07,297.34L169.26,501.05L169.4,397.15L169.42,320.86L169.55,479.26L169.76,267.96L169.95,339.75L169.97,296.08L170.24,438.64L170.36,254.17L170.6,437.43L170.62,431.7L171,491.02L171.45,260.4L171.47,261.52L171.49,272.31L171.63,435.34L172.14,241.75L172.21,271.02L172.23,292.05L172.33,425.88L172.55,246.35L172.95,314.68L172.97,349.3L173.24,272.41L173.39,500.41L173.74,465.5L173.75,442.08L174.29,248.4L174.53,261.42L174.55,307.68L174.64,251.44L175.11,443.06L175.3,277.89L175.32,276.62L175.33,258.36L175.87,504.93L175.97,457.25L175.98,458.19L176.14,468.82L176.72,243.07L176.78,306.93L176.8,356.58L176.86,435.2L177.41,234.6L177.55,428.46L177.57,427.09L177.65,247.69L178.23,492.66L178.25,500.89L178.26,504.65L178.46,319L178.64,393.58L178.65,347.63L178.94,431.78L179.12,231.95L179.42,299.93L179.44,276.5L179.84,249.33L179.99,437.57L180.19,266.76L180.21,259.35L180.71,505.82L181.03,476.2L181.05,469.69L181.5,252.6L181.84,265.18L181.86,314.18L181.93,263.06L182.09,477.52L182.61,303.14L182.63,280.09L182.99,262.25L183.13,512.87L183.28,441.53L183.29,433.82L183.47,488.35L184.03,243.1L184.09,310.94L184.11,355.08L184.16,450.16L184.73,243.74L184.87,436.02L184.89,419.05L185.08,260.86L185.59,506.2L185.61,499.33L185.63,485.58L186.46,237.87L186.47,250.01L186.48,281.74L186.6,441.39L187.17,244.12L187.31,435.55L187.33,417.04L187.4,245.82L188.05,512.52L188.07,496.1L188.91,247.72L188.92,274.67L189.04,442.2L189.25,245.05L189.59,262.27L189.6,244.85L190.49,502.77L190.5,483.47L190.99,254.63L191.4,313.51L191.42,360.12L191.47,439.65L192.02,245.36L192.18,434.83L192.2,420.61L192.27,257.02L192.89,519.79L192.92,519.02L192.94,501.46L193.78,258.57L193.79,286.08L193.91,451.29L194.13,252.5L194.5,303.38L194.52,292.36L194.82,265.08L195.36,512.23L195.37,495.34L195.85,232.59L196.27,295.33L196.29,348.29L196.45,248.78L196.69,448.42L197.04,440.78L197.06,439.89L197.26,259.62L197.71,483.44L197.72,498.66L197.75,514.46L197.96,318.15L198.13,403.34L198.14,355.38L198.43,447.62L198.65,258.73L198.91,311.78L198.93,284.91L199,261.66L199.48,452.99L199.67,292.53L199.68,295.51L199.7,276.53L200.19,519.03L200.2,523.53L200.38,414.74L200.39,342.45L200.45,401.38L200.46,432.36L200.52,490.47L201.06,266.71L201.1,284.61L201.12,306.57L201.22,457.36L201.78,271.91L201.84,311.46L201.86,359.98L202.07,272.43L202.63,515.62L202.64,509.78L202.65,500.53L202.67,502.92L202.73,430.88L202.8,446.38L202.81,414.21L202.96,476.91L203.41,269.51L203.58,306.31L203.6,356.84L203.66,446.66L204.1,250.55L204.35,434.94L204.37,431.23L204.47,249.99L205.05,507.01L205.06,509.18L205.09,505.19L205.11,507.95L205.12,484.54L205.51,261.02L205.96,269.81L205.98,274.23L206.09,445.12L206.54,252.6L206.79,440.99L206.8,436.74L206.95,248.43L207.15,451.82L207.43,422.57L207.44,454.41L207.5,501.18L207.99,256.67L208.18,436.5L208.19,432.29L208.53,432.34L208.69,230.17L208.83,389.12L208.85,414.5L209.04,236.12L209.59,437.33L209.6,431.46L209.62,417.43L209.93,505.44L210.38,258.49L210.44,267.56L210.46,263.62L210.62,443.31L210.72,245.53L211.02,324.55L211.04,279.97L211.07,248.85L211.66,444.56L211.78,259.26L211.79,304.68L211.82,262.4L212.39,496.5L212.4,500.18L212.82,255.32L213.02,429.04L213.04,441.32L213.05,444.38L213.15,263.74L213.21,263.95L213.23,264.51L213.33,300.29L213.34,350.76L213.59,228.55L214.13,456.98L214.14,459.43L214.33,298.41L214.46,476.78L214.73,416.85L214.75,451.26L214.81,497.15L215.33,249.04L215.49,443.98L215.5,443.94L215.94,252.77L216.16,412.97L216.17,428.67L216.2,432.82L216.24,335.36L216.26,289.95L216.53,434.97L216.69,237.09L216.98,337.49L217,338.76L217.27,501.71L217.69,240.3L217.71,276.06L217.72,240.12L217.75,214.88L217.93,426.47L218.43,282.76L218.45,285.56L218.62,461.12L219.03,358.13L219.04,318.46L219.07,281.06L219.33,461.01L219.61,434.71L219.62,465.55L219.71,526.18L220.17,265.75L220.19,263.17L220.3,353.41L220.32,395.49L220.46,253.85L220.71,452.65L221.07,444.76L221.09,428.12L221.51,268.29L221.77,452.29L221.84,363.92L221.86,354.07L221.99,309.69L222.15,518.98L222.31,432.18L222.32,365.94L222.44,480.31L222.99,255.34L223.07,304.79L223.09,351.86L223.25,252.97L223.84,442.68L223.86,438.98L223.87,420.99L224,249.25L224.52,478.28L224.54,488.24L224.58,505.86L224.77,346.88L224.93,415.69L224.94,356.82L225.23,424.56L225.39,218.64L225.7,250.08L225.71,299.88L226.03,258.09L226.29,474.59L226.31,479.8L226.86,315.7L227.02,535.8L227.06,483.03L227.08,463.17L227.32,484.86L227.83,248.45L227.95,295.32L227.96,341.86L228.02,433.62L228.53,233.38L228.73,423.43L228.74,410.4L228.87,239.21L229.4,453.58L229.41,467.54L229.47,490.57L229.83,303.19L229.85,277.66L229.95,237.23L230.47,457.13L230.57,271.81L230.59,314.74L230.8,438.44L231.31,235.37L231.35,268.82L231.37,300.73L231.75,293.25L231.91,489.45L232.17,438.84L232.18,446.81L232.2,449.62L232.24,390.99L232.25,345.43L232.56,410.4L232.7,204.06L233.02,267.65L233.04,237.25L233.05,218.74L233.65,460.17L233.69,414.79L233.7,404.69L233.83,319.16L233.95,474.43L234.17,361.79L234.18,308.38L234.33,492.89L234.79,208.19L234.86,326.65L234.88,268.37L234.98,406.01L235.14,201.13L235.47,218.52L235.49,184.68L236.01,397.99L236.17,222.79L236.18,199.94L236.23,234.06L236.24,269.33L236.3,258.11L236.76,455.04L237.05,407.79L237.07,413.89L237.13,318.92L237.14,258.43L237.18,210.51L237.76,413.85L237.78,411.85L237.87,248.24L238.46,439.75L238.48,439.08L238.62,266.84L239.17,472.4L239.19,475.42L239.2,489.12L239.68,213.5L239.87,388.78L239.88,373.92L240.22,382.44L240.36,170.14L240.56,380.62L240.58,366.6L240.72,155.31L241.26,382.62L241.33,312.57L241.35,303.72L241.49,300.55L241.65,480.21L241.84,332.19L241.85,320.13L241.94,445.56L242.39,210.47L242.41,197.3L242.65,382.01L242.8,161.36L243.14,178.83L243.16,178.22L244.07,454.47L244.1,433.31L244.12,415.2L244.38,417.06L244.55,156.86L244.94,265.49L244.96,311.32L245.09,359.14L245.58,137.77L245.71,221.52L245.73,269.56L245.87,150.89L246.52,445.97L246.54,429.85L246.99,128.96L247.37,240.45L247.38,285.58L247.61,190.39L247.87,389.77L248.12,278.99L248.13,270.07L248.37,212.54L248.95,450.68L248.97,432.32L248.99,411.51L249.25,415.15L249.77,168.31L249.8,213.59L249.82,264.6L250.31,375.31L250.45,179.37L250.56,278.33L250.57,258.49L250.74,234.98L251.38,480.59L251.41,455L251.43,437.76L251.6,310.54L252.09,450.69L252.18,436.05L252.19,427.22L252.54,279.3L252.73,414.22L252.75,417.89L252.83,314.96L253.09,451.66L253.4,426.37L253.41,444.32L253.69,339.16L253.83,499.54L254.01,406.63L254.02,367.74L254.04,337.87L254.53,523.98L254.73,392.43L254.75,410.11L254.82,502.74L255.36,287.33L255.5,419.22L255.52,426.45L255.53,427.06L255.56,407.32L255.57,380.9L255.69,259.84L256.27,474.47L256.28,461.28L256.3,443.86L256.73,216.86L257.11,263.98L257.13,296.65L257.62,397.69L257.76,208.7L257.86,285.78L257.88,272.32L258.11,224.42L258.71,464.68L258.72,450.35L259.5,170.07L259.56,267.53L259.58,317.99L259.71,381.02L260.21,156.63L260.33,240.7L260.34,287.42L260.55,172.28L261.14,451.31L261.17,423.54L261.19,407.61L261.43,413.52L261.95,186.98L262.07,272.71L262.08,315.34L262.14,375.63L262.64,131.98L262.84,359.29L262.85,350.38L262.98,174.67L263.48,388.95L263.49,412.12L263.58,463.9L263.98,209.75L264,243.55L264.01,197.56L264.23,357.74L264.72,141.75L264.75,148.19L264.77,185.51L264.93,334.94L265.42,108.22L265.52,226.26L265.54,199.32L266.01,427.61L266.36,321.8L266.38,270.39L266.67,380.17L267.16,182.77L267.18,184.64L267.35,379.75L267.83,257.19L267.84,220.84L267.86,202.96L268.36,412.52L268.38,427.49L268.45,452.32L268.9,258.23L269,291.78L269.02,280.92L269.1,382.37L269.6,166.98L269.8,356.24L269.81,345.7L269.95,156.16L270.5,369.07L270.51,368.29L270.53,358.79L270.74,267.95L270.87,445.19L271.16,391.29L271.18,399.33L271.34,161.37L271.48,329.4L271.5,354.05L271.54,375.6L272.03,152.04L272.25,362.36L272.27,341.1L272.38,168.13L272.96,400.68L273.02,306.07L273.03,304.3L273.31,465.89L273.69,231.51L273.7,202.33L273.77,165.78L273.96,377.92L274.27,355.48L274.28,381.02L274.47,199.07L274.66,398.83L274.75,228.04L274.76,206.54L274.82,184.35L274.96,339.02L274.98,368.81L275.17,155.36L275.75,446.05L275.77,422.6L275.79,407.97L276.21,186.94L276.6,256.98L276.62,309.15L276.75,407.29L277.27,196.07L277.37,262.3L277.38,300.85L277.6,168.47L278.18,483.89L278.2,476.7L278.21,456.28L278.66,191.81L279.11,281.51L279.13,321.64L279.28,229.1L279.88,420.57L279.89,419.05L279.91,399.87L279.98,236.88L280.62,487.77L280.63,484.95L280.65,463.5L281.37,242.23L281.47,260.94L281.49,284.76L281.79,227.09L281.97,432.11L282.23,274.89L282.24,291.25L282.48,223.77L283.06,484.15L283.07,482.2L283.08,464.06L283.87,218.98L283.98,279.65L284,328.59L284.23,223.61L284.78,460.12L284.8,474.21L284.81,479.4L284.98,337.53L285.3,378.51L285.32,322.43L285.49,489.54L285.96,191.18L286.07,272.57L286.09,318.61L286.65,196.58L286.84,402.74L286.85,401.02L286.87,385.53L286.96,193.97L287.55,439.4L287.62,356.6L287.64,343.4L287.65,343.16L287.67,361.72L287.77,265.95L287.83,404.09L287.84,436.67L287.94,483.65L288.35,232.27L288.36,276.2L288.38,246.23L288.58,420.75L289.09,210.42L289.13,237.52L289.15,253.83L289.28,417.88L289.45,205.19L289.86,270.65L289.87,294.59L289.99,431.32L290.2,284.13L290.25,385.54L290.26,424.77L290.38,502.04L290.86,264.44L290.92,288.99L290.93,286.39L291.02,433.14L291.55,247L291.73,422.67L291.74,404.67L292.18,237.26L292.42,433.55L292.51,341.87L292.53,342.06L292.82,494.87L293.22,258.83L293.24,302.83L293.25,273.15L293.45,421.49L293.96,231.3L294,256.83L294.02,245.65L294.66,226.16L294.86,426.75L294.87,421.07L294.89,409.25L295.21,477.65L295.64,250.03L295.73,253.52L295.74,270.18L295.76,267.58L295.83,353.72L295.85,385.43L296.05,228.91L296.3,455.82L296.61,417.6L296.63,370.49L296.76,206.48L297.3,424.16L297.38,334.03L297.4,339.28L297.5,275.88L297.66,484.76L298.12,300.61L298.14,284.6L298.2,265.63L298.28,401.81L298.3,425.69L298.33,440.78L298.78,264.66L298.88,274.64L298.89,253.76L299.24,249.4L299.37,435.68L299.57,274.52L299.59,253.96L300.1,500.7L300.41,461.57L300.43,456L300.98,228.14L301.27,232.88L301.28,234.03L301.81,438.28L301.86,328.16L301.88,283.64L302.02,246.62L302.5,496.63L302.52,500.42L302.62,411.3L302.69,419.26L302.71,372.24L302.84,471.22L303.42,242.29L303.47,303.03L303.49,354.21L303.55,437.38L303.75,234.93L304.24,423.93L304.26,421.26L304.46,237.12L304.94,488.11L304.95,491.54L305,492.45L305.03,453.14L305.04,431.96L305.27,459.95L305.84,219.48L305.91,302.2L305.93,346.67L306.08,238.73L306.68,465.08L306.69,464.68L306.71,453.19L306.9,264.95L307.39,512.96L307.43,505.43L307.45,494.24L308.29,243.62L308.3,269.99L308.64,236.68L308.77,441.06L308.97,241.08L308.99,230.84L309.83,501.29L309.84,500.08L309.86,495.38L309.87,498.25L310.01,392.7L310.03,300.9L310.16,466.15L310.73,224.39L310.75,270.74L310.77,266.34L311.07,220L311.55,430.05L311.57,426.92L311.58,406.2L311.77,233.84L312.26,501.18L312.28,500L312.29,494.18L312.35,423.42L312.36,408.94L312.6,464.92L312.81,226.58L312.99,352.9L313,299.34L313.16,219.89L313.64,428.5L313.76,230.06L313.77,279.72L313.84,213.1L314.35,450.63L314.45,353.34L314.47,376.44L314.55,262.17L314.74,509.77L315.08,396.97L315.09,333.36L315.38,438.66L315.58,223.49L315.87,263.3L315.89,251.5L315.95,224.69L316.02,334.6L316.03,382.08L316.18,235.7L316.79,446.42L316.8,440.74L316.82,426.67L317.14,509.78L317.67,246.23L317.69,231.95L317.82,431.75L318.03,227.33L318.37,248.27L318.38,228.29L318.51,432.11L319.02,246.13L319.04,248.02L319.08,236.34L319.57,499.73L319.76,383.45L319.77,311.8L319.91,474L320.12,240.54L320.31,311.75L320.33,273.4L320.47,233.88L320.6,432.02L321.07,255.14L321.08,300.94L321.52,228.57L321.66,429.79L321.79,365.26L321.81,368.23L321.86,260.34L322.02,494.02L322.2,393.88L322.21,311.11L322.34,465.95L322.56,240.29L322.75,317.4L322.76,274.3L322.91,235.71L323.04,426.92L323.34,390.36L323.36,416.64L323.39,436.68L323.84,225.51L324.11,432.25L324.13,417.83L324.44,507.33L324.97,225.82L324.98,219.7L325.01,232.57L325.02,251.36L325.04,248.64L325.07,333.21L325.08,378.21L325.13,431.89L325.69,194.91L325.72,224.31L325.74,219.82L326.04,205.59L326.53,436.07L326.55,430.75L326.56,417L326.74,254.1L326.88,497.5L327.16,398.66L327.17,429.36L327.21,461.6L327.45,239.64L327.75,248.79L327.77,256.38L327.78,225.7L327.91,431.41L328.51,272.93L328.52,275.03L328.71,240.31L329.33,511.97L329.36,506.45L329.38,488.12L330.11,246.81L330.22,252.92L330.23,255.85L330.35,439.68L330.8,242.14L330.88,248.22L330.9,254.03L331.16,224.56L331.41,438.54L331.55,357.68L331.57,358.9L331.61,276.78L331.8,508.49L332.07,480.95L332.09,483.59L332.65,229.78L332.73,337.75L332.74,385.49L332.78,435.13L333.02,221.98L333.49,429.14L333.51,411.71L333.58,236.64L334.23,504.56L334.25,481.89L334.97,246.61L335.07,270.66L335.09,249.96L335.22,431.41L335.34,241.96L335.51,340.77L335.52,387.44L335.57,428.18L336.02,223.53L336.16,269.61L336.18,264.66L336.48,259.43L336.64,491.87L336.99,438.32L337,389.18L337.15,217.63L337.31,430.32L337.77,235.01L337.79,285.88L337.89,233L338,430.98L338.54,274.25L338.56,287.35L338.58,254.09L339.09,508.96L339.28,325.28L339.29,345.82L339.4,473.42L339.83,262.61L339.85,246.38L339.87,290.63L340.02,287.76L340.03,336.55L340.19,243.06L340.79,440.73L340.8,438.38L340.82,417.99L340.9,251.66L341.5,508.41L341.54,478.05L341.56,473.94L342.34,216.41L342.38,245.59L342.4,255.39L342.53,420.46L343.05,196.3L343.14,255.15L343.15,268.4L343.38,179.75L343.96,486.05L343.98,478.96L343.99,456.27L344.37,238.36L344.88,286.48L344.89,303.85L345.41,243.71L345.66,437.52L345.68,435.21L345.69,419.69L345.78,277.09L346.39,486.32L346.4,490.82L346.78,301.11L346.79,277.25L347.05,436.55L347.16,244.08L347.37,416.98L347.39,432.37L347.4,437.85L347.63,244.27L347.84,270.52L347.85,253.46L347.87,253.94L347.88,301.5L347.98,245.62L348.46,442.3L348.59,369.09L348.61,373.21L348.68,286.76L348.72,379.79L348.74,416.9L348.84,519.7L349.33,249.35L349.49,433.8L349.5,430.65L349.95,242L350.16,403.3L350.17,418.76L350.19,423.47L350.26,273.64L350.27,256.7L350.3,236.39L350.53,420.6L350.85,403.97L350.87,423.38L351.11,272.59L351.27,519.16L351.61,448.02L351.62,414.9L352.27,438.38L352.39,242.02L352.4,287.39L352.42,259.02L352.62,430.79L353.07,228.96L353.16,243.11L353.17,266.61L353.2,244.56L353.71,521.5L353.87,419.07L353.88,368.16L354.01,454.1L354.17,210.92L354.64,273.13L354.65,324.64L354.81,220.54L355.06,421.17L355.42,418.45L355.44,400.29L355.51,222.55L356.13,498.1L356.15,504.77L356.16,513.58L356.55,223.27L356.6,243.81L356.61,226.99L356.63,222.46L356.76,360.16L356.77,389.77L357.15,421.53L357.34,222.2L357.51,381.56L357.52,361.29L357.6,218.6L358.19,416.99L358.21,419.03L358.6,489.05L359.06,252.28L359.08,254.16L359.09,277.48L359.24,425.11L359.76,215.22L359.83,249.2L359.84,270.95L359.93,412.78L360.05,223.89L360.08,239.16L360.09,215.46L360.11,215.21L360.12,218.47L360.13,242.96L360.44,218.6L361.02,484.47L361.03,482.52L361.85,218.38L361.95,277.23L361.96,312.67L362.37,415.88L362.54,211.57L362.73,405.37L362.75,388.84L362.88,188.64L363.47,459.99L363.48,439.97L363.5,418.13L363.76,418.88L363.95,191.98L364.31,242.72L364.33,283.46L364.46,409.55L364.98,190.89L365.07,275.27L365.08,275.32L365.89,506.81L365.91,501.17L365.92,473.38L366.72,154.2L366.83,275.4L366.85,318.04L367.05,174.68L367.59,399.03L367.62,381.66L367.63,354.01L367.69,212.72L368.31,479.8L368.33,490.13L369.14,147.63L369.27,258.76L369.29,312.6L369.5,141.7L370.04,376.72L370.05,360.47L370.07,336.15L370.18,187.82L370.76,465.89L370.79,441.41L370.81,425.92L371.08,429.06L371.58,145.53L371.63,241.83L371.65,287.07L371.78,372.39L371.92,134.35L372.39,285.54L372.4,311.88L372.62,212.48L373.2,469.45L373.22,465.68L373.23,446.42L373.67,154.75L374.06,222.52L374.07,261.84L374.55,398.05L374.72,189.23L374.81,254.14L374.83,249.62L375.06,172.43L375.64,448.2L375.65,446.57L376.1,146.99L376.57,225.38L376.58,248.79L376.65,367.9L376.81,148.5L377.35,359.45L377.36,352.15L377.49,175.04L377.73,381.08L377.96,272.94L377.97,305.03L378.09,427.67L378.54,258.75L378.76,399.52L378.77,402.72L379.13,443.08L379.58,204.67L379.61,217.12L379.63,236.79L379.93,186.49L380.18,362.19L380.39,272.41L380.41,291.37L380.52,414.55L380.97,253.07L381.19,386.07L381.21,393.96L381.42,321.65L381.54,422.73L381.55,435.76L381.57,452.32L382.02,248.11L382.11,293.5L382.12,266.93L382.13,262.09L382.54,413.75L382.56,422.35L382.82,304.82L382.96,477.01L383.15,343.66L383.16,297.25L383.27,419.4L383.43,189.62L383.66,305.6L383.67,246.04L384.31,348.26L384.45,141.47L384.48,149.71L384.5,183.85L384.8,121.39L385.05,364.87L385.28,340.74L385.3,382.74L385.4,447.69L385.85,180.9L385.96,258.56L385.98,273.23L386.05,375.9L386.22,157.42L386.75,367.26L386.76,354.49L387.24,119.66L387.44,342.02L387.46,343.21L387.49,344.23L387.5,311.01L387.51,285.8L387.83,417.58L388.28,87.84L388.34,209.43L388.36,268.41L388.49,304.4L388.98,46.36L389.12,190.22L389.14,224.43L389.33,47.65L389.92,314.8L389.94,287.62L390.27,429.42L390.72,90.91L390.76,144.42L390.78,208.44L390.92,301.01L391.42,39.52L391.52,160.66L391.53,134.56L391.76,43.01L392.36,322.25L392.37,288.04L392.39,262.14L392.71,400.72L393.16,49.48L393.2,108.22L393.21,176.36L393.36,264.89L393.87,30.91L393.94,178.13L393.95,134.26L394.06,236.18L394.56,28.2L394.68,134.26L394.69,162.75L395.14,374.87L395.48,265.57L395.49,237.17L395.8,279.25L395.94,40.81L396.29,42.14L396.3,48.89L397.19,390.28L397.23,370.37L397.25,344.48L397.56,461.54L398.04,161.1L398.06,163.64L398.07,207.75L398.22,359.27L398.73,123.55L398.81,205.01L398.83,196.06L399.26,344.28L399.38,136.05L399.41,138.73L399.42,112.9L399.58,305.26L399.6,324.19L399.84,238.8L400,427.29L400.35,345.38L400.36,292.92L400.67,355.29L400.81,127.99L401.13,195.67L401.15,164.61L401.16,143.36L401.7,398.24L401.87,206.17L401.89,216.11L402.44,467.4L402.67,341.58L402.68,363.39L402.74,417.79L402.97,264.16L403.45,400.93L403.47,387.77L403.79,392.91L404.29,159.68L404.31,166.48L404.87,455.52L405.19,399.29L405.21,380.37L405.34,159.02L405.99,179.41L406.01,230.38L406.22,387.92L406.73,136.33L406.77,193.05L406.79,249.57L406.8,201.6L407.31,441.94L407.53,271.82L407.54,284.58L407.77,141.83L408.31,386.46L408.34,368.7L408.35,337.45L408.47,183.97L408.66,396.99L409.12,200.32L409.14,251.47L409.17,204.7L409.75,497.59L409.82,418.82L409.83,428.81L410.05,453.54L410.17,224L410.2,233.62L410.21,211.52L410.23,210.38L410.25,245.79L410.27,275.53L410.4,410.72L410.91,185.57L411.02,256.88L411.04,302.55L411.1,391.37L411.6,145.2L411.81,385.87L411.82,383.39L412.02,221.13L412.08,348.57L412.1,382.25L412.2,445.79L412.65,181.48L412.85,388.84L412.86,369.13L413,171.37L413.53,385.26L413.65,180.29L413.66,229.75L414.04,166.34L414.24,393.22L414.36,312.78L414.37,311.94L414.46,228.17L414.5,326.33L414.52,358.41L414.62,450.09L415.08,135.05L415.27,362.05L415.29,360.4L415.43,129.41L415.97,407.29L415.98,405.76L416.43,186.19L416.62,349.73L416.64,378.47L416.9,270.51L417.07,486.22L417.39,433.22L417.4,386.74L417.71,424.51L418.17,215.79L418.2,231.7L418.22,213.1L418.35,316.38L418.36,363.72L418.56,201.85L419.12,479.34L419.16,448.71L419.17,416.92L419.32,302.28L419.46,497.54L419.93,401.69L419.94,402.79L420.03,279.04L420.09,387.08L420.1,413.54L420.14,437.73L420.26,225.94L420.64,247.45L420.65,233.2L420.67,233.36L420.68,231.99L420.7,244.25L420.84,422.13L420.94,230.34L421.42,254.47L421.44,284.12L421.45,282.3L421.51,406.89L421.52,424L421.54,427.62L421.64,332.85L421.74,338.37L421.75,257.2L421.94,489.56L422.33,248.98L422.35,244.85L422.58,425.64L422.8,221.58L423.09,235.76L423.1,235.36L423.12,234.24L423.16,267.44L423.18,293.8L423.63,478.12L423.68,383.09L423.7,335.95L423.84,266.15L424.34,505.22L424.37,501.64L424.38,501.22L425.18,219.63L425.26,267.03L425.28,263.54L425.54,212.65L426.08,438.17L426.09,399.78L426.16,229.87L426.77,494.79L426.8,491.65L426.82,494.04L427.67,213.72L427.69,245.23L428.37,215.46L428.5,422.72L428.51,419.65L428.53,400.46L428.6,226.16L429.22,493.48L429.25,491.63L429.27,471.54L430.11,219.35L430.12,250.73L430.14,275.62L430.24,423.25L430.46,216.82L430.54,385.29L430.56,412.33L430.79,224.91L431.3,445.39L431.31,440.89L431.33,425.42L431.65,504.51L432.2,225.57L432.21,250.95L432.33,437.21L432.54,210.31L432.86,244.79L432.88,231.58L432.89,209.23L433.37,430.33L433.6,257.07L433.62,286.36L433.94,264.64L434.02,454.11L434.04,477L434.08,507.52L434.63,230.59L434.66,273.22L434.68,266.88L434.76,435.12L434.98,213.79L435.47,428.41L435.49,407.74L435.66,206.1L436.17,433L436.24,340.39L436.26,326.56L436.37,259.8L436.53,490.44L436.92,278.67L436.94,257.48L437.42,215.83L437.55,426.73L437.66,237.24L437.68,280.6L437.77,220.11L438.24,428.53L438.45,226.02L438.46,221.57L438.97,501.23L439.3,465.71L439.32,437.43L439.51,223.59L440.1,234.53L440.11,281.06L440.2,224.71L440.68,465.28L440.85,287.82L440.87,285.25L440.9,231.36L441.39,506.59L441.54,446.37L441.55,445.67L441.72,480.09L442.29,224.96L442.33,274.2L442.35,296.03L442.62,220.72L442.77,453.17L443.12,432.96L443.13,429.41L443.32,228.8L443.48,442.7L443.75,414.16L443.77,450.04L443.83,511.76L444.38,225.33L444.51,436.93L444.52,434.39L444.86,438.65L445.07,219.02L445.18,409.92L445.19,427.02L445.2,434.29L445.42,223.17L445.68,273.7L445.7,252.48L445.71,240.27L446.23,484.8L446.25,497.78L446.26,501.81L446.47,311.35L446.64,385.52L446.66,323.6L446.95,429.44L447.41,226.62L447.42,277.01L447.44,252.51L447.64,423.02L447.86,219.15L448.19,251.64L448.21,229.02L448.7,507.38L449.06,435.86L449.08,379.83L449.25,226.76L449.37,432.21L449.85,229.62L449.86,275.52L449.95,214.96L450.43,440.85L450.61,259.28L450.63,267.14L450.64,240.48L451.18,508.24L451.35,311.02L451.37,332.79L451.47,472.84L451.92,233.53L452.02,245.36L452.04,223.13L452.62,220.1L452.86,436.8L452.88,428.43L452.89,409.73L453.08,236.33L453.56,498.23L453.57,505.63L453.76,393.79L453.78,304.17L453.91,467.35L454.12,229.06L454.31,312.45L454.33,269.53L454.6,441.8L454.82,225.85L455.07,237.76L455.08,284.28L455.17,228.4L455.65,450.54L455.76,349.02L455.78,367.37L455.86,275.69L456.02,509.81L456.4,330.49L456.42,280.72L456.46,235.99L456.69,438.11L457.15,246.12L457.17,293.21L457.39,436.33L457.84,227.25L457.92,255.71L457.94,262.53L457.95,237.61L458.45,498.61L458.6,460.19L458.62,449.94L458.76,469.89L459.32,222.47L459.4,285.13L459.42,339.04L459.48,436.29L460.06,224.98L460.17,428.42L460.19,424.61L460.27,229.97L460.87,508.2L460.88,511.72L460.95,463.82L460.97,439.93L461.22,482.92L461.66,237.5L461.82,270.12L461.84,293.24L462.03,237.11L462.26,436.66L462.61,429.79L462.62,423.55L462.77,226.6L462.94,426.93L463.25,402.71L463.26,435.18L463.33,491.47L463.77,229.02L464,436.03L464.01,434.22L464.35,435.84L464.58,234.23L464.67,420.19L464.68,426.88L464.7,427.62L464.72,402.4L464.74,350.29L464.93,226.55L465.39,440.66L465.49,346.36L465.51,346.62L465.78,500.45L466.2,259.74L466.22,305.22L466.23,282.29L466.55,239.09L466.78,445.19L467,259.39L467.02,253.82L467.58,249.73L467.84,459.07L467.86,453.61L468.06,294.31L468.19,516.34L468.47,430.51L468.48,462.92L468.51,488.94L468.97,233.51L468.99,231.54L469.22,419.24L469.41,213.98L469.74,243.29L469.76,237.66L470.02,225.95L470.28,418.8L470.47,336.4L470.48,286.59L470.66,510.66L471.08,235.82L471.22,280.39L471.24,298.54L471.66,435.12L471.77,236.31L472.01,426.87L472.02,420.62L472.11,230.14L472.72,444.45L472.74,439.85L472.76,413.94L473.09,519.06L473.51,256.66L473.56,261.97L473.57,263.25L473.63,253.57L473.66,282.08L473.67,304.26L473.75,482.17L474.19,229.87L474.46,428.98L474.47,406.34L474.89,234.83L475.15,447.48L475.22,352.82L475.24,341.8L475.31,380.34L475.34,360.56L475.36,304.65L475.53,520.78L475.95,236.46L476.09,288.01L476.11,307.86L476.28,231.5L476.53,437.24L476.88,436.38L476.89,432.69L476.98,247.67L477.23,437.99L477.53,398.27L477.54,427.43L477.81,296.57L477.97,528.72L478.3,450.73L478.31,412.65L478.62,442.79L479.08,212.01L479.11,225.91L479.13,204.56L479.14,203.57L479.18,267.77L479.24,266.61L479.26,316.47L479.82,174.68L480.02,410.89L480.04,411.45L480.24,267.55L480.4,495.1L480.58,346.32L480.59,299.66L480.71,429.72L480.87,189.81L481.14,220.37L481.16,199.85L481.21,190.14L481.4,408.42L481.48,247.01L481.49,222.41L481.56,185.22L481.75,404.08L482.24,208.97L482.26,193.74L482.85,481.58L483.03,373.43L483.04,327.96L483.14,457.24L483.59,243.77L483.61,240.19L484.19,428.49L484.35,206.84L484.36,205.17L484.38,205.37L484.39,234.06L484.69,197.27L484.9,412.86L485.17,381.8L485.19,415.98L485.29,482.9L485.75,173.14L485.91,376.27L485.93,384.99L485.94,387.04L485.99,298.95L486,238.68L486.29,375.3L486.43,120.89L486.75,229.86L486.77,192.52L486.78,175.43L486.97,393.44L487.44,307.53L487.45,326.28L487.73,473.31L488.09,258.01L488.1,228.5L488.19,168L488.68,391.16L488.7,409.54L488.71,414.65L488.89,214.72L489.13,257.15L489.15,237.61L489.22,199.94L489.77,432.33L489.86,328.18L489.87,327.77L490.15,491.28L490.52,264.39L490.54,234.26L490.63,171.4L491.15,383.49L491.29,214.88L491.31,194.81L491.32,193.47L491.38,282.74L491.42,261.69L491.44,291.38L491.66,191.75L492.21,437.21L492.22,436.87L492.24,450.83L492.58,490.34L493.06,173.08L493.16,246.98L493.18,278.48L493.25,390.26L493.74,146.01L493.93,366.79L493.95,367.3L494.44,140.73L494.64,376.26L494.66,374.7L494.7,327.52L494.72,307.68L494.88,275.13L495.02,470.76L495.32,421.78L495.34,418.59L495.5,145.43L496.18,164.58L496.19,164.05L496.33,310.01L496.34,343.74L496.53,149.65L497.08,378.45L497.09,376.43L497.11,381.9L497.46,446.16L497.92,132.56L497.95,136.13L497.96,174.22L498.27,105.84L498.47,350.82L498.73,239.96L498.75,266.07L499.31,158.27L499.52,382.8L499.53,381.03L499.76,261.99L499.89,438.85L500.08,314.81L500.1,262.59L500.21,343.67L500.36,79.72L500.84,222.11L500.85,266.11L501.05,107.16L501.6,349.39L501.62,334.74L501.75,135.99L502.3,436.24L502.31,440.47L502.33,458L502.75,202.37L502.78,203.06L502.79,176.49L502.81,175.93L502.82,179.81L502.84,212.51L503.34,371.11L503.5,167.34L503.59,235.36L503.61,227.43L503.84,150.6L504.39,362.87L504.4,362.66L504.42,371.47L504.53,265.06L504.78,444.98L505.19,303.67L505.2,331.09L505.23,311.28L505.43,451.82L505.74,428.22L505.75,450.18L506.01,359.73L506.17,507.5L506.36,384.6L506.38,349.4L506.48,460.11L506.55,363.75L506.56,341.99L507.07,312.97L507.16,449.61L507.17,457.64L507.22,473.94L507.39,388.11L507.41,353.47L507.52,448.61L508.01,284.59L508.14,318.54L508.16,355.14L508.45,345.81L508.61,478.28L508.94,460.84L508.96,453.51L509.51,315.92L509.65,478.44L509.71,408.18L509.73,415.13L509.86,306.57L509.96,421.89L510,364.89L510.02,307.98L510.31,355.9L510.8,120.08L510.81,133.62L510.83,151.87L511.35,349.5L511.49,127.51L511.6,249.15L511.61,239.66L512.09,428.29L512.28,294.12L512.29,256.82L512.39,350.06L512.52,106.95L512.54,81.16L512.74,290.49L512.86,143.26L512.87,91.41L512.89,64.66L513.44,329.93L513.45,320.35L513.79,332.84L513.93,100.42L514.12,301.58L514.13,309.51L514.18,316.3L514.19,284.62L514.53,404.09L514.98,78.39L515.02,132.54L515.03,192.74L515.32,113.76L515.53,343.23L515.8,249.21L515.82,286.23L516.22,350.62L516.37,136.15L516.59,347.97L516.6,345.58L516.96,420.85L517.41,82.82L517.46,143.65L517.47,201.02L517.76,72.88L517.96,304.83L518.21,215.34L518.22,198.28L518.46,141.21L519.01,373.81L519.06,331.33L519.08,310.12L519.4,439.3L519.85,118.11L519.89,171.81L519.91,225.31L520.2,87.58L520.38,323.18L520.66,227.81L520.67,245.17L521.24,138.22L521.44,352.51L521.46,352.43L521.47,346.37L521.49,348.67L521.54,278.26L521.66,305.18L521.68,267.88L521.83,428.72L522.28,91.41L522.43,240.17L522.44,275.69L522.63,72.48L523.18,314.61L523.2,299.7L523.21,266.6L523.33,77.51L523.89,340.6L523.91,335.27L523.92,335.43L523.94,314.69L524.27,441.65L524.72,255.35L524.74,253.68L524.78,295.64L524.79,322.68L524.92,375.22L525.42,154.73L525.55,240.75L525.56,280.93L525.76,132.86L526.32,360.61L526.33,352.27L526.35,339.91L526.55,254.7L526.69,443.14L526.95,361.67L526.97,381.69L527,400.46L527.16,133.11L527.59,243.1L527.61,242.54L527.71,383.38L527.75,286.98L527.77,225.49L528.06,359.55L528.2,123.52L528.55,137.41L528.56,144.33L529.13,460.4L529.46,375.96L529.48,349.37L529.94,91.93L530.26,162.69L530.28,118.31L530.29,94.61L530.84,344.2L531.01,153.32L531.03,200.28L531.57,440.59L531.78,279.67L531.8,295L531.87,383.6L532.03,136.27L532.57,354.04L532.58,353.7L533.07,118.23L533.23,325.95L533.25,343.27L533.26,348.83L533.42,111.5L533.81,266.83L533.83,247.78L534,411.39L534.47,106.29L534.58,205.46L534.6,240.77L534.81,111.61L535,353.01L535.37,351.43L535.38,333.51L535.7,354.88L535.86,114.84L536.13,281.45L536.15,272.8L536.24,315.79L536.28,245.54L536.31,302.47L536.32,333.06L536.44,454.16L536.9,186.12L537,245.57L537.02,263.38L537.09,384.98L537.6,135.36L537.79,360.53L537.8,359.52L537.95,157.5L538.14,380.18L538.43,314.42L538.44,352.13L538.72,266.4L538.85,465.94L539.21,409.94L539.22,359.81L539.53,408.31L539.99,183.36L540.02,191.73L540.04,166.23L540.15,255.04L540.17,296.47L540.38,179.78L540.63,454.7L540.95,441.68L540.96,436.17L541.33,454.07L541.73,220.66L541.85,250.93L541.86,276.52L541.96,412.71L542.05,240.57L542.07,219.85L542.3,402.17L542.43,215.82L542.46,229.51L542.47,205.2L542.49,204.04L542.53,244.25L542.54,231.09L542.56,259.43L542.66,397L542.83,182.13L542.99,384.6L543.01,387.83L543.17,175.83L543.33,369.1L543.34,384.89L543.59,242.35L543.76,454.49L543.91,373.46L543.92,298.73L544.05,414.55L544.57,171.42L544.68,259.01L544.69,299.57L544.92,171.61L545.46,388.14L545.47,371.03L545.6,181.56L546.14,464.97L546.16,467.58L546.2,471.34L546.21,453.22L546.23,431.1L546.49,439.96L546.6,244.26L547.01,357.54L547.03,352.22L547.18,436.45L547.63,223.41L547.79,278.45L547.81,292.81L548.04,212.83L548.59,481.84L548.61,481.11L548.64,483.62L549.01,249.7L549.03,225.29L549.27,409.77L549.43,205.78L549.55,284.6L549.56,328.76L549.72,221.23L550.36,454.67L550.38,461.93L550.88,294.16L551.04,492.53L551.14,429.77L551.16,437.59L551.36,463L551.45,270.3L551.46,252.07L551.48,248.07L551.65,352.39L551.67,393.26L551.71,435.84L552.28,226.18L552.42,416.61L552.43,399.12L552.86,228.16L553.12,432.47L553.19,355.95L553.2,345.83L553.28,371.36L553.32,258.57L553.36,345.94L553.38,376.22L553.46,481.66L554.02,234.52L554.13,429.47L554.15,430.96L554.71,228.71L554.77,302.62L554.78,344.82L555.06,233.67L555.55,436.25L555.57,429.62L555.58,415.96L555.76,265.84L555.9,492.7L556.22,452.1L556.23,451.76L556.45,234.29L556.52,354.31L556.54,391.82L556.58,427.74L557.15,227.17L557.29,415.03L557.31,392.54L557.79,208.67L557.99,420.28L558.06,337.44L558.08,321.21L558.15,352.12L558.18,313.02L558.19,246.02L558.35,478.07L558.87,244.68L559.03,434.53L559.05,414.63L559.22,226.06L559.71,446.72L559.83,253.22L559.85,301.69L559.93,242.97L560.43,456.17L560.56,383.36L560.57,390.47L560.63,278.75L560.69,402.34L560.7,433.02L560.77,510.78L561.22,251.29L561.31,253.74L561.32,233.52L561.46,436.74L561.67,230.14L562.01,257.12L562.02,237.91L562.5,466.55L562.88,456.14L562.89,441.03L563.06,267.19L563.21,489.17L563.49,410.44L563.5,436.17L563.53,457.88L564.07,218.39L564.09,227.89L564.11,223.76L564.41,216.53L564.94,432.85L564.95,427.89L565.04,235.91L565.63,499.92L565.65,503.85L565.83,382.77L565.85,318.29L565.98,479.98L566.55,233.51L566.57,280.23L566.59,277.98L566.68,443.43L566.89,229.95L567.39,439.6L567.4,420.75L567.59,239.32L568.08,512.91L568.1,510.52L568.98,235.21L569.04,302.05L569.05,355.77L569.33,227.09L569.81,446.95L569.82,446.04L569.84,426.23L570.03,244.06L570.52,511.33L570.56,504.46L570.58,488.42L571.07,244.42L571.42,252.07L571.43,277.03L571.55,450.44L572.1,237.75L572.11,239.45L572.13,261.26L572.45,240.22L572.96,499.78L572.97,501.94L573.74,223.85L573.91,292.67L573.93,349.87L574.09,222.47L574.68,442.94L574.7,438.58L574.71,418.93L574.78,241.42L575.39,496.14L575.44,488.32L575.45,471.54L576.17,236.81L576.28,240.56L576.29,248.8L576.52,224.34L576.77,439.67L576.94,250.26L576.96,246.48L576.99,237.53L577.12,442.11L577.41,344.13L577.42,380.32L577.68,275.9L577.83,514.85L578.19,451.2L578.21,401.75L578.61,247.75L578.86,444.74L578.97,257.59L578.99,306.13L579.21,444.24L579.42,242.78L579.74,265.5L579.76,267.33L579.77,256.46L580.26,510.82L580.29,506.02L580.31,511.35L581.05,242.12L581.18,257.83L581.19,288.44L581.21,286.17L581.24,353.78L581.25,394.71L581.64,440.91L581.8,238.51L582,434.93L582.02,410.88L582.09,246.3L582.74,498L582.76,473.6L583.5,233.98L583.59,260.56L583.6,247.31L583.73,430.01L584.25,233.2L584.33,285.23L584.34,277.42L584.59,220.08L585.18,481.19L585.2,452.02L585.47,456.83L585.63,217.47L586.04,238.84L586.05,250.52L586.33,211.04L586.86,420.54L586.88,416.67L586.89,395.37L586.96,233.14L587.57,492.52L587.59,491.91L587.62,492.28L588.08,239.6L588.23,413.21L588.24,424.61L588.26,425.67L588.28,398.81L588.3,351.4L588.36,228.11L588.95,433.59L589.07,251.34L589.08,299.64L589.4,249.27L589.66,449.69L589.76,351.97L589.78,368.57L589.86,287.59L590.02,493.46L590.4,336.72L590.42,291.95L590.69,436L591.16,241.63L591.18,260.49L591.2,243.38L591.23,241.76L591.32,305.5L591.33,353.16L591.85,254.08L592.1,450.92L592.11,445.34L592.32,282.33L592.48,503.42L592.72,415.03L592.74,445.52L592.78,470.08L592.95,216.81L593.48,432.06L593.49,428.18L593.93,241.19L594.17,443L594.29,261.46L594.3,308.97L594.33,276.45L594.85,497.26L594.87,504.72L595.1,352.66L595.23,516.85L595.39,439.37L595.4,431.8L595.56,484.46L596.01,256.53L596.19,310.14L596.2,359.69L596.45,245.99L596.97,453.7L596.99,448.95L597,450.13L597.35,518.83L597.77,263.2L597.81,274.13L597.83,275.22L597.88,265.9L597.97,427.95L597.99,440.79L598,442.1L598.04,381.98L598.06,326.41L598.35,430.59L598.54,208.58L598.81,217.73L598.83,263.86L598.86,210.41L599.41,424.02L599.55,353.65L599.57,360.02L599.62,294.79L599.74,473.6L599.76,481.61L599.78,492.88L599.84,412.04L599.86,399.77L600.09,453.88L600.25,213.07L600.51,254.01L600.52,232.23L600.79,404.88L600.94,186.75L601.12,389.52L601.13,394.23L601.18,347.38L601.19,294.21L601.29,178.48L601.84,430.36L601.9,376.56L601.92,359.18L602.22,494.63L602.64,262.74L602.71,273.78L602.73,298.06L602.87,439.54L602.99,246.9L603.37,268.95L603.38,252.64L603.41,255.05L603.42,276.05L603.57,430.39L603.73,237.4L604,248.98L604.02,226L604.08,221.5L604.24,415.66L604.25,432.27L604.5,300.22L604.66,505.11L604.82,418.03L604.83,358.28L604.96,462.99L605.47,221.76L605.59,276.34L605.6,324.2L605.66,416.28L606.11,199.78L606.35,412.55L606.37,410.03L606.46,226.94L607.06,484.93L607.08,484.09L607.44,504.41L607.63,324.78L607.78,439.05L607.79,413.14L608.09,428.52L608.28,211.29L608.56,233L608.57,270.22L608.89,207.67L609.18,419.77L609.27,345.2L609.28,350.53L609.37,287.07L609.54,494.91L609.72,362.92L609.73,323.22L609.83,456.18L610.02,236.36L610.24,311.73L610.26,261.14L610.36,199.06L610.88,400.88L611.02,230.52L611.04,213.99L611.17,323.51L611.18,359.96L611.33,224.67L611.98,498.07L612,478.01L612.01,458.73L612.27,461.35L612.73,228.16L612.82,255.7L612.84,277.47L612.97,418.93L613.49,193.76L613.58,269.68L613.59,267.82L613.84,207.74L614.42,480.8L614.43,460.31L614.45,440.34L614.72,484.84L615.21,240.05L615.27,283.14L615.29,291.98L615.4,418.83L615.5,221.08L616.03,291.26L616.04,323.76L616.2,226.4L616.84,492.04L616.85,491.67L616.87,471.66L617.33,201.1L617.69,242.02L617.71,274.77L617.84,406.25L618.35,179.94L618.45,273.95L618.46,273.13L618.7,196.8L619.29,480.74L619.3,462.34L619.32,443.54L620.03,221.02L620.15,275.44L620.16,300.82L620.28,411.12L620.78,176.57L620.9,304.48L620.91,335.64L621.07,234.35L621.71,500.18L621.73,495.07L621.74,473.26L622.13,236.08L622.63,294.12L622.64,298.12L622.71,415.3L623.23,202.32L623.42,396.31L623.44,375.66L623.51,197.88L624.09,486.52L624.13,465.62L624.15,478.05L624.34,385.54L624.35,339.66L624.45,445.57L624.96,217.55L625.09,310.14L625.11,355.76L625.26,211.62L625.5,412.2L625.87,382.1L625.89,354.57L625.95,215.63L626.6,499.05L626.61,483.53L626.63,465.75L626.7,469.82L627.41,194.64L627.45,269.53L627.47,308.06L627.74,151.96L627.95,395.19L628.22,288.89L628.24,329.8L628.44,175.6L629.02,455.47L629.04,457.98L629.49,173.55L629.89,255.3L629.91,301.02L630.38,386.21L630.53,164.81L630.66,246.88L630.67,287.6L630.83,184.72L631.47,466.24L631.49,445.14L631.5,425.71L631.76,443.88L632.27,240.83L632.39,278.06L632.4,296.44L632.62,244.62L633.18,470.62L633.2,481.48L633.21,487.86L633.42,353.63L633.73,362.24L633.75,331.55L633.91,466.63L634.36,279.03L634.49,314.45L634.5,347.74L634.56,411.56L635.05,273.98L635.27,406.25L635.29,412.09L635.49,339.04L635.59,435.84L635.61,444.82L635.65,477.05L636.19,348.87L636.2,337L636.34,478.16L636.81,246.41L636.97,384.07L636.98,393.29L637,396.59L637.06,288.74L637.07,263.06L637.33,376.37L637.84,178.8L637.85,181.38L637.87,185.92L638.19,177.91L638.42,371.26L638.65,305.07L638.67,328.51L638.78,436.04L639.23,155.85L639.42,339.3L639.43,343.46L639.93,104.81L640.06,213.35L640.07,254.79L640.48,351.98L640.62,130.76L640.85,345L640.87,338.95L641.22,429.48L641.67,114.34L641.68,116.19L641.7,125.21L641.87,328.57L642.02,106.79L642.46,218.52L642.48,195.61L642.71,114.23L643.29,351.43L643.31,351.94L643.65,415.67L644.1,81.61L644.13,111.48L644.15,177.88L644.45,138.54L644.65,357.32L644.9,258.02L644.92,245.12L644.99,357.99L645.5,88.81L645.7,351.09L645.71,351.74L645.8,275.44L646.09,438.72L646.34,358.44L646.35,381.08L646.38,397.58L646.54,181.15L646.8,250.33L646.82,231.92L647.42,371.71L647.6,165.21L647.61,168.2L647.93,142.92L648.48,406.83L648.5,415.82L648.53,437.39L648.98,203.89L648.99,205.98L649.01,212.34L649.53,349.82L649.67,107.13L649.76,243.97L649.77,221.21L650.22,333.7L650.37,110.48L650.5,210.22L650.51,251.12L650.8,242.23L650.96,407.61L651.28,342.74L651.3,305.23L651.41,110.74L651.62,350.03L652.09,124.78L652.11,92.98L652.31,330.2L652.37,185.93L652.38,155.22L652.46,87.75L652.99,324.62L653.01,335.24L653.24,261.69L653.38,431.33L653.73,338.14L653.75,278.84L654.05,350.06L654.2,122.45L654.5,130.65L654.52,177.1L654.75,328.12L655.24,75.43L655.27,111.92L655.28,167.59L655.82,438.13L656.08,377.88L656.1,397.02L656.13,409.24L656.29,160.48L656.58,191.65L656.59,184.65L656.63,156.45L657.17,405.5L657.34,210.83L657.36,211.77L657.68,199.07L657.91,405.91L658.14,343.91L658.16,367.99L658.26,467.57L658.72,156.05L658.91,377.03L658.92,374.81L659.07,130.89L659.56,340.19L659.58,363.2L659.77,188.31L660.32,417.15L660.35,417.01L660.36,391.82L660.69,482.73L661.16,179.59L661.17,179.81L661.19,187.38L661.35,398.87L661.85,125.97L661.94,218.17L661.96,205.37L662.04,360.99L662.2,105.07L662.52,168.02L662.54,118.8L662.55,90.97L663.13,433.65L663.2,368.61L663.22,379.34L663.43,402.55L663.59,166.95L663.83,326.52L663.84,281.33L663.88,183.06L664.48,390.55L664.6,205.67L664.61,247.73L664.64,201.27L665.19,473.91L665.31,373.16L665.32,376.5L665.41,299.35L665.45,379.87L665.47,407.28L665.57,493.02L666.03,215.6L666.22,407.39L666.23,403.87L666.73,164.08L666.89,362.59L666.9,376.91L666.92,381.46L666.99,227.02L667,202.98L667.26,387.24L667.42,151.68L667.6,367.83L667.61,378.49L667.63,383.72L667.83,252.56L667.84,235.62L668.02,444.35L668.47,151.39L668.66,367.47L668.67,366.59L669.16,97.13L669.35,351.99L669.37,351.84L669.51,105.78L670.03,366.23L670.05,378.28L670.27,254.26L670.45,434.05L670.61,311.89L670.63,306.74L670.74,417.11L671.25,177.83L671.35,257.17L671.37,268.77L671.44,398.79L671.95,155.25L672.14,366.88L672.15,373.21L672.3,124.86L672.46,331.25L672.47,350.7L672.72,211.01L672.89,417.74L673.21,347.33L673.22,316.19L673.54,345.43L673.69,94.5L673.99,139.99L674.01,181.52L674.04,110.82L674.59,397.54L674.73,250.03L674.75,253.04L675.33,445.57L675.47,367.74L675.49,294.55L675.62,406.87L675.78,195.66L675.92,375.72L675.94,403.9L676.07,220.76L676.31,449.45L676.69,406.35L676.7,362.27L677.11,224.44L677.37,435.27L677.4,417.22L677.42,404.4L677.76,504.12L678.17,247.65L678.21,260.33L678.23,260.13L678.4,433.49L678.62,235.71L678.69,346.27L678.71,390.23L678.75,429.71L679.31,229.32L679.46,421.36L679.47,398.47L679.55,229.76L680.16,490.5L680.17,490.27L680.19,484.5L680.34,395.54L680.36,331.32L680.48,471.12L680.94,238.94L680.98,264.04L681,251.06L681.06,240.46L681.07,262.72L681.08,285.78L681.1,284.05L681.11,303.61L681.13,350.68L681.3,230.36L681.88,433.77L681.9,429.36L682.1,237.23L682.58,494.52L682.59,497.91L682.66,436.04L682.68,412.6L682.91,466.2L683.49,229.79L683.51,251.71L683.52,273.69L683.54,272.25L683.55,294.18L683.56,346.04L683.62,430.11L684.19,206.68L684.33,418.06L684.35,397.19L684.43,210.63L685.04,488.77L685.07,483.73L685.09,467.89L685.35,468.68L685.58,227.08L685.91,230.57L685.93,221.38L686.75,463.2L686.77,462.34L686.78,451.31L686.97,259.97L687.48,483.64L687.49,478.43L688,219.91L688.1,384.26L688.12,411.89L688.49,433.49L688.7,213.72L688.86,424.16L688.87,401.21L689.41,217.41L689.55,434.06L689.63,344.13L689.64,331.84L689.71,354.96L689.74,297.48L689.76,240.48L689.9,479.69L690.45,203L690.57,417.64L690.58,420.25L690.64,290.85L690.66,245.03L690.93,418.9L691.15,194.27L691.4,208.17L691.41,259.89L691.5,184.64L691.99,425.64L692.12,334.93L692.13,340.17L692.15,343.05L692.18,279.67L692.19,209.4L692.34,472.32L692.86,239.04L692.87,219.14L692.89,192.92L693.02,425.26L693.6,226.89L693.61,252.11L693.63,249.53L693.66,326.81L693.67,372.76L693.93,208.13L694.43,430.34L694.44,425.15L694.46,408.35L694.79,480.26L695.22,211.58L695.3,224.03L695.31,207.36L695.46,419.09L695.67,190.59L695.76,375.71L695.77,407.15L696.02,200.37L696.15,429.69L696.25,214.86L696.27,214.65L696.37,203.28L696.86,429.83L697.04,348.49L697.05,297.82L697.21,481.21L697.76,209.24L697.81,251.84L697.82,277.34L698.46,206.98L698.59,421.72L698.6,418.34L698.81,212.98L699.26,398.26L699.27,416.24L699.5,241.48L699.65,476.02L699.84,370.43L699.85,285.17L699.98,447.76L700.55,220.99L700.68,424.95L700.69,420.91L701.02,434.05L701.24,229.15L701.34,415.93L701.36,431.52L701.37,432.17L701.4,408.83L701.42,359.46L701.59,225.7L702.08,488.31L702.14,458.53L702.16,433.46L702.42,463.43L702.98,226.06L703,247.18L703.01,274.07L703.11,436.44L703.2,255.22L703.21,235.18L703.33,228.47L703.37,278.75L703.39,303.72L703.58,228.87L704.16,447.94L704.17,450.09L704.37,268.13L704.46,439.99L704.48,466.23L704.56,500.33L705.07,220.91L705.09,232.55L705.2,437.46L705.77,210.18L705.91,427.3L705.93,407.94L706.12,206.4L706.61,436.6L706.68,346.11L706.7,334.35L706.81,247.82L706.96,486.56L707.14,391.41L707.16,300.7L707.29,459.27L707.51,232.13L707.71,270.46L707.72,254.78L707.99,430.48L708.2,226.23L708.3,406.55L708.32,422.8L708.33,428.13L708.55,215.45L708.75,260.09L708.77,243.55L708.9,223.75L709.38,481.19L709.39,485.27L709.84,241.47L710.03,390.17L710.05,412.95L710.07,427.01L710.29,227.37L710.63,252.46L710.64,228.54L710.99,224.61L711.48,434.18L711.5,431.1L711.51,414.29L711.83,478.52L712.38,235.57L712.39,245.01L712.51,425.97L712.61,223.03L713.03,251.94L713.05,248.22L713.21,423.59L713.31,225.92L713.61,307.72L713.63,262.74L713.66,229.61L714.24,474.87L714.25,480.4L714.27,485.22L714.45,404.16L714.47,316.5L714.48,314.97L714.54,407.62L714.56,435.17L714.6,462.27L715.06,234.57L715.29,434.3L715.31,429.64L715.64,434.46L716.11,225.98L716.12,271.49L716.14,251.25L716.17,238.6L716.66,456.98L716.67,472.88L716.7,488.59L716.92,309.77L717.09,343.43L717.11,286.39L717.62,229.08L717.73,430.96L717.86,283.73L717.88,263.41L718.08,431.62L718.54,224.85L718.63,254.58L718.65,249.21L718.66,234.58L719.17,480.13L719.27,422.41L719.28,426.18L719.31,415.58L719.33,388.98L719.47,442.11L719.94,227.62L720.08,273.57L720.1,296.16L720.27,228.41L720.86,431.4L720.88,427.59L720.98,239.9L721.57,485.96L721.59,486.61L722.13,244.86L722.23,420.65L722.24,433.88L722.26,439.42L722.34,259.5L722.36,244.07L722.56,394.81L722.58,425.35L722.65,459.53L723.18,246.01L723.31,433.5L723.33,414.97L723.53,250.48L724.04,486.8L724.05,477.1L724.07,452.95L724.52,219.07L724.92,250.37L724.94,275.61L725.04,430.31L725.13,265.49L725.14,245.93L725.32,300.91L725.33,346.29L725.85,235.65L726.1,432.49L726.11,426.71L726.13,424.99L726.48,481.41L726.9,263.56L726.93,285.64L726.94,274.87L727.01,256.96L727.13,448.41L727.23,295.22L727.24,287.91L727.48,436.52L727.71,235.96L727.97,257.99L727.98,241L728.01,240.4L728.03,261.37L728.06,226.54L728.54,427.8L728.67,352.18L728.68,355.36L728.75,267.92L728.81,405.12L728.83,433.37L728.91,487.89L729.45,228.39L729.57,421.13L729.58,417.37L730.25,449.83L730.38,214.84L730.39,264.21L730.41,244.95L730.48,220.65L731,424.79L731.09,351.16L731.1,358.15L731.12,360.88L731.17,288.99L731.19,264.01L731.35,486.09L731.89,236.62L731.97,407.84L731.99,419.18L732,421.04L732.06,307.6L732.07,263.24L732.35,417.86L732.47,222.48L732.65,377.26L732.67,411.91L732.81,239.05L733.41,434.32L733.42,430.95L733.44,431.1L733.79,495.07L734.21,238.64L734.23,259.61L734.25,244.53L734.28,243.35L734.29,264.17L734.31,263.01L734.32,228.65L734.55,224.47L734.83,455.52L735.16,418.23L735.18,383.71L735.6,230.95L735.84,427.94L735.93,326.86L735.95,325.21L736.24,476.66L736.61,233.31L736.63,206.28L736.69,188.31L736.87,410.13L737.19,377.78L737.21,392.64L737.22,394.76L737.28,296.35L737.29,240.86L737.38,181.96L737.57,389.5L737.89,378.06L737.9,393.78L737.92,399.15L738.01,237.79L738.02,221.27L738.19,286.32L738.21,315.71L738.51,280.66L738.67,476.87L738.98,413.34L738.99,394.7L739.12,179.75L739.66,408.13L739.77,219.21L739.79,264.83L739.85,226.24L740.35,429.3L740.53,262.52L740.54,268.58L740.6,260.41L741.09,494.08L741.43,422.57L741.44,384.39L741.92,194.56L742.14,438.37L742.15,435.58L742.17,416.96L742.44,445.05L742.95,226.69L742.99,262.89L743.01,287.03L743.04,250.74L743.53,475.48L743.85,416.2L743.86,395.45L744.34,142.44L744.65,190.65L744.66,237.05L744.88,393.7L745.05,152.25L745.4,206.14L745.42,219.66L745.97,473.72L746.23,402.18L746.24,422.92L746.27,440.14L746.45,223.8L746.82,331.22L746.84,323.38L746.97,403.54L747.13,178.01L747.59,274.61L747.61,311.22L747.78,225.12L748.39,466.47L748.4,477.63L748.87,178.06L749.33,247.2L749.35,287.14L749.4,385.74L749.93,159.9L750.11,366.8L750.13,350.24L750.26,173.63L750.83,411.13L750.84,422.51L750.85,423.53L750.9,367.25L750.91,352.94L751.14,392.82L751.25,165.67L751.26,162.01L751.3,158.04L751.84,392.59L752.01,200.45L752.03,202.36L752.19,390.15L752.7,152.5L752.78,230.13L752.8,233.28L753.28,472.65L753.62,378.9L753.64,324.87L753.93,379.13L754.1,131.93L754.42,148.93L754.44,120.03L754.45,119.09L754.48,161.95L754.49,207.26L754.78,148.78L755.32,381.11L755.34,383.58L755.58,260.53L755.71,428.01L755.99,370.01L756,387.44L756.02,393.67L756.1,208.36L756.12,182.33L756.38,341.96L756.52,100.87L756.68,312.36L756.7,335.91L756.87,170.36L757.41,382.2L757.45,340.52L757.47,293.44L757.58,189.42L758.15,424.4L758.19,379.65L758.21,356.2L758.47,395.58L758.63,182.38L759.02,245.29L759.03,277.34L759.16,377.97L759.66,166.46L759.79,233.5L759.8,273.33L760.01,195.48L760.6,442.24L760.61,426.26L760.63,408.5L760.69,409.65L761.06,201.2L761.51,248.1L761.53,268.78L761.75,235.29L762.3,375.33L762.31,374.95L762.33,369.88L762.44,276.49L762.98,423.47L762.99,432.67L763.04,463.38L763.22,328.87L763.24,293.57L763.34,409.4L763.49,221.35L763.75,275.41L763.76,244.26L764.18,155.25L764.39,366.56L764.54,179.68L764.56,193.12L765.1,385.26L765.34,285.69L765.36,312.38L765.47,429.35L765.92,129.03L766.11,331.98L766.13,336.27L766.63,135.2L766.78,297.16L766.79,315.51L766.97,128.54L767.17,337.2L767.24,191.67L767.26,163.89L767.31,112.81L767.56,330.31L767.82,323.76L767.84,342.54L767.91,400.37L768.36,95.45L768.56,319.62L768.58,308.3L768.91,317.64L769.05,85.92L769.4,104.34L769.42,108.07L770.35,406L770.36,390.73L771.14,72.97L771.2,197.16L771.22,236.25L771.49,112.82L771.69,335.23L771.96,230.79L771.97,258.43L772.19,157.56L772.75,404.78L772.77,407.39L772.78,418.69L773.25,120.31L773.33,198.26L773.35,195.15L773.58,130.77L774.12,339.26L774.13,339.07L774.15,326L774.62,112.07L774.84,331.93L774.91,250.6L774.93,239.09L775.22,390.71L775.6,162.93L775.61,143.4L775.67,112.82L775.87,329.53L776.07,216.57L776.09,250.95L776.22,329.95L776.71,93.08L776.84,206.92L776.86,245.95L777.06,103.12L777.65,413.44L777.67,403.9L778.1,131.45L778.51,218.38L778.52,247.83L778.66,335.06L779.15,50.4L779.28,193.25L779.29,240.51L779.5,85.5L780.08,388.74L780.09,376.53L780.11,355.41L780.54,29.7L780.93,118.39L780.95,199.41L781.24,39L781.44,297.22L781.7,192.39L781.72,226.89L781.93,86.95L782.51,405.93L782.53,397.67L782.98,180.3L783.35,213.23L783.37,238.48L783.53,320.69L783.67,92.97L784.01,94.63L784.02,69.13L784.06,135.62L784.08,205.25L784.37,75.78L784.6,343L784.8,248.02L784.82,266.96L784.95,417.28L785.41,119.7L785.6,340.17L785.62,339.43L786.46,65.2L786.47,70.74L786.49,84.9L787.01,368.55L787.28,329.24L787.3,355.83L787.39,419.31L787.86,189.46L788.05,385.88L788.07,366.35L788.39,369.69L788.56,113.62L788.88,170.41L788.89,150.85L789.08,380.19L789.17,214.76L789.18,199.5L789.2,200.14L789.21,247.53L789.24,210.46L789.76,454.79L789.78,462.16L789.82,469.75L790.01,298.82L790.17,360.69L790.18,315.25L790.47,395.03L790.98,162.93L791,166.11L791.52,379.04L791.61,193.34L791.62,170.11L791.68,148.9L791.84,351.59L791.85,369.85L792.1,236.85L792.26,443.52L792.43,318.44L792.45,284.73L792.56,409.32L793.07,178.37L793.17,242.86L793.19,263.35L793.26,388.57L793.77,175.99L793.96,387.96L793.97,383.83L794.11,182.42L794.67,449.95L794.68,450.57L794.69,454.84L794.88,284.44L795.06,297.25L795.07,247.28L795.35,377.82L795.51,162.82L795.81,186.42L795.83,237.32L796.39,398.1L796.55,187.61L796.58,198.44L796.59,224.77L796.62,220.14L796.64,250.65L796.75,390.18L796.94,304.98L796.96,246.58L797.15,437.64L797.48,333.61L797.49,286.65L797.6,160.14L798.13,390.71L798.25,198.74L798.26,245.99L798.29,199.65L798.86,437.56L798.87,445.76L798.89,449.88L799.03,379.85L799.05,314.91L799.39,266.21L799.58,456.69L799.65,422.56L799.67,436.31L799.87,441.58L799.93,309.77L799.94,260.98L800.22,398.73L800.32,204.81L800.54,383.77L800.55,397.7L800.57,400.8L800.61,332.02L800.63,289.15L800.76,201.45L801.28,411.76L801.35,361.69L801.37,343.3L801.48,264.47L801.97,476.57L802,476.46L802.02,477.89L802.76,212.51L802.87,219L802.89,235.43L803.35,429.23L803.7,427.57L803.72,424.82L803.92,239.87L804.4,483.66L804.41,487.97L804.6,404.76L804.61,320.87L804.76,490.87L805.18,259.2L805.19,240.5L805.31,233.58L805.38,332.68L805.4,373.49L805.66,209.65L806.14,416.91L806.15,412.58L806.17,389.42L806.25,215.06L806.89,472.97L806.91,448.78L807.75,212.32L807.76,231.77L807.78,256.65L807.88,418.84L807.99,217.4L808.08,229.55L808.09,208.54L808.44,204.91L808.94,423.1L808.95,418.37L808.97,403.57L809.3,485.63L809.73,238.69L809.79,250.43L809.81,251.95L809.97,419.83L810.18,211.75L810.26,333.32L810.27,376.45L810.53,208.74L811.01,429.48L811.02,427.06L811.04,409.64L811.13,242.94L811.74,496.49L811.76,486.42L811.78,471.69L812.62,211.57L812.63,241.05L812.97,211.63L813.1,430.67L813.3,226.79L813.32,206.23L814.16,483.72L814.17,483.32L814.19,476.47L814.58,263.05L814.59,240.13L814.71,221.43L814.78,339.76L814.79,377.52L815.39,209.89L815.53,427.51L815.55,424.16L815.56,401.21L815.75,219.04L816.25,436.52L816.3,371.06L816.32,355.38L816.59,496.68L817.13,202.17L817.16,235.81L817.17,251.47L817.27,424.37L817.39,221.72L817.45,234.41L817.46,225.01L817.62,427.84L817.83,203.79L817.93,375.17L817.94,403.63L817.97,425.72L818.19,212.67L818.46,245.54L818.48,235.66L818.54,210.36L818.59,283.01L818.61,321.15L818.88,237.73L819.03,485.31L819.38,453.84L819.39,428.03L819.93,202.15L820.18,216.67L820.19,265.06L820.28,208.25L820.76,450.05L820.91,284.74L820.93,287.05L820.97,232.36L821.05,360.61L821.06,396.95L821.32,253.58L821.47,484.3L821.81,450.58L821.83,425.51L822.15,425.88L822.37,182.54L822.61,210.24L822.63,261.96L822.71,192.48L822.84,420.89L823.39,234.49L823.41,205.49L823.9,482.43L824.25,444.84L824.26,421.56L824.8,201.13L825.06,260.66L825.08,238.39L825.15,194.79L825.28,415.08L825.83,228.57L825.85,207.52L826.34,479.82L826.69,441.27L826.7,419.24L827.02,419.58L827.24,198.28L827.48,219.68L827.5,269.04L827.59,198.53L827.72,418.18L828.25,235.7L828.27,235.33L828.28,205.48L828.78,477.55L828.99,306.81L829.01,328.51L829.09,444.51L829.33,207.11L829.65,221.16L829.66,221.23L830.15,407.24L830.37,192.67L830.4,243.78L830.41,250.92L830.72,198.38L831.21,469.71L831.26,460.67L831.27,440.15L832.11,169.82L832.14,205.51L832.15,218.35L832.24,411.25L832.46,174.51L832.95,405.25L832.97,385.72L833.15,195.57L833.65,475L833.69,467.99L833.71,446.38L834.55,200.67L834.56,214.45L834.9,193.48L835.37,412.66L835.39,407.73L835.4,386.06L835.59,206.12L836.1,470.73L836.11,463.26L836.13,464.53L836.14,440.3L836.16,417.19L836.42,433.43L836.98,203.55L837,210.52L837.01,237.66L837.33,199.49L837.46,412.92L837.53,254.72L837.55,245.05L837.68,223.15L837.81,425.42L838.2,401.28L838.22,386.5L838.52,474.55L838.97,235.2L839.01,245.03L839.03,236.81L839.09,215.65L839.2,411.27L839.3,221.12L839.32,211.82L839.9,407.75L840,195.74L840.06,197.39L840.07,197.14L840.12,184.03L840.16,225.08L840.17,263.11L840.36,202.71L840.97,467.22L840.99,464.71L841.86,218.21L841.91,290.06L841.93,338.7L841.99,424.98L842.2,214.5L842.68,415.91L842.7,414.1L842.8,220.69L843.39,483.36L843.41,484.01L844.31,205.64L844.35,277L844.37,326.29L844.42,420.4L845,199.97L845.13,402.69L845.15,383.59L845.28,205.79L845.83,461.42L845.87,457.02L845.89,436.72L846.69,175.86L846.74,194.64L846.76,221.69L847.02,191.65L847.21,400.8L847.41,226.62L847.43,213.94L847.44,207.31L847.56,407.7L847.89,405.02L847.9,413.05L847.92,414.98L847.98,349.62L847.99,331.98L848.14,245.57L848.3,465.92L848.57,410.33L848.59,416.96L848.6,418.32L848.64,351.14L848.66,303.79L848.77,175.25L849.3,403.96L849.41,209.58L849.43,254.48L849.46,205.8L849.99,421.08L850.18,252.07L850.2,265.44L850.22,233.57L850.73,461.37L850.93,295.44L850.95,304.67L851.04,407.55L851.56,183.38L851.73,388.49L851.75,386.46L852.24,169.33L852.43,386.6L852.54,184.75L852.56,228.09L852.59,180.96L853.17,469.29L853.25,398.1L853.27,411.96L853.47,431.26L853.56,241.51L853.57,220.41L853.7,212.83L853.78,354.64L853.79,380L853.82,401.19L853.98,188.8L854.31,230.66L854.33,212.26L854.4,209.45L854.52,388.56L854.57,286.04L854.59,234.48L854.69,147.48L855.23,387.08L855.31,299.14L855.33,299.95L855.6,464.03L856.02,210.48L856.04,254.34L856.05,222.87L856.26,393.12L856.43,176.93L856.79,182.36L856.81,213.25L857.07,198.31L857.3,394.87L857.36,288.75L857.37,243.16L857.4,213.7L857.66,420.39L857.92,363.87L857.94,397.45L858.04,488.27L858.58,243.78L858.69,424.57L858.71,420.97L859.56,193.15L859.58,193.77L859.85,181.79L860.42,465.04L860.43,472.03L860.48,477.19L860.55,392.83L860.62,416.39L860.64,393.54L860.78,443.34L861.25,204.02L861.41,271.87L861.42,314.34L861.64,181.93L861.87,430.38L862.19,423.86L862.2,409.39L862.33,219.92L862.57,426.73L862.8,368.94L862.81,397.74L862.93,485.05L863.39,216.96L863.41,218.61L863.57,403.01L864.09,149.79L864.15,220.7L864.16,190.51L864.97,405.49L865,387.97L865.02,372.57L865.36,473.21L865.77,229.27L865.81,241.77L865.83,243.77L865.87,286.25L865.89,276.22L865.9,229.9L866.47,211.51L866.7,412.8L866.71,408.98L866.73,388.24L867.21,198.25L867.41,410.94L867.5,310.53L867.51,307.65L867.8,468.62L868.18,244.06L868.19,222.38L868.28,213.64L868.4,347.21L868.41,375.77L868.96,209.6L869.18,435.21L869.19,430.41L869.21,410.81L869.48,430.4L869.6,256.94L869.98,358.6L869.99,365.16L870.08,304.96L870.16,464.23L870.18,488.87L870.19,501.54L870.7,226.71L870.76,279.99L870.77,234.49L870.88,407.62L871.05,201.62L871.46,261.52L871.47,226.58L872.02,178.64L872.28,411.85L872.3,405.94L872.51,275.96L872.66,477.54L872.91,364.03L872.92,398.3L872.96,431.9L873.49,161.42L873.67,411.07L873.69,413.36L873.7,420.12L873.91,200.06L874.08,202.34L874.09,171.5L874.17,122.91L874.37,385.34L874.67,353.74L874.69,376.61L874.95,286.72L875.1,470.04L875.43,403.21L875.44,368.79L875.86,173.98L876.1,391.05L876.21,201.6L876.23,245.51L876.44,392.78L876.95,146.12L877,191.28L877.01,226.09L877.04,218.9L877.53,453.9L877.81,395.58L877.82,407.52L877.84,410.36L877.88,350.89L877.89,301.98L878.18,378.48L878.69,144.79L878.71,145.05L879.23,364.95L879.29,272.94L879.3,228.37L879.4,171.27L879.59,375.28L879.88,359.26L879.9,384.39L879.97,433.94L880.43,143.13L880.62,353.63L880.64,351.31L881.14,127.97L881.43,150.76L881.45,198.84L881.82,126.84L882.06,356.45L882.17,270.23L882.19,272.34L882.24,277.45L882.26,245.59L882.27,242.49L882.4,421.26L882.87,130.04L882.96,223.98L882.97,208.66L883.07,348.43L883.12,262.63L883.13,212.53L883.41,344.1L883.91,76.26L883.94,92.53L883.96,132.1L884.26,73.02L884.49,322.31L884.72,208.15L884.74,230.14L885.16,362.04L885.3,156.54L885.52,344.23L885.54,323.74L885.67,140.85L886.2,368.42L886.31,203.74L886.32,229.25L886.7,175.95L886.93,360.76L887.03,294.18L887.05,294.51L887.13,278.12L887.64,482.08L887.97,428.1L887.99,405.49L888.44,229.13L888.77,235.2L888.79,220.26L889.37,415.43L889.55,332.26L889.57,305.76L889.58,290.81L890.08,458.26L890.29,343.26L890.31,365.41L890.38,424.98L890.89,218.27L891.06,370.8L891.08,373.73L891.57,151.15L891.74,291.05L891.76,306.25L892.02,267.25L892.16,428.98L892.51,312.41L892.53,256L892.82,354.51L893.31,156.09L893.32,161.68L893.51,346.06L893.66,138.6L893.93,185.06L893.95,162.73L894.01,128.95L894.22,345.45L894.48,304.8L894.5,331.69L894.6,410.37L895.05,129.71L895.24,322.5L895.25,323.46L895.6,331.59L895.75,117.52L895.88,215.3L895.89,253.76L896.09,90.69L896.66,344.9L896.69,343.11L896.7,313.4L897.04,415.35L897.49,143.47L897.53,191.37L897.54,236.5L897.69,346.53L897.83,113.29L898.17,116.78L898.18,89.64L898.39,335.9L898.52,165.16L898.53,142.19L898.59,228.24L898.6,260.73L898.88,151.01L899.1,350.81L899.33,263.14L899.34,292.43L899.47,418.28L899.92,131.02L899.94,131.36L900.11,341.61L900.29,126.82L900.53,195.99L900.55,173.11L900.82,325.96L900.98,115.07L901.32,123.73L901.33,125.21L901.91,409.63L902.21,355.49L902.23,337.15L902.71,101.52L903.01,119.9L903.03,157.74L903.26,295.23L903.75,60.85L903.78,115.98L903.8,160.58L904.35,392.62L904.59,344L904.61,374.98L904.65,409.23L905.23,243.83L905.29,321.21L905.3,348.92L905.33,369.12L905.51,167.89L905.81,213.65L905.83,174.78L906.19,137.94L906.41,346.39L906.52,285.74L906.54,283.41L906.62,243.11L906.77,420.71L906.94,309.84L906.96,254.77L907.06,360.45L907.58,141.58L907.7,224.25L907.71,254.84L907.93,122.23L908.12,352.51L908.49,329.34L908.51,303.79L908.64,130.13L909.2,420.25L909.23,386.49L909.25,365.17L909.67,91.65L910.09,177.97L910.1,188.55L910.21,333.97L910.26,241.35L910.28,184.86L910.55,328.59L910.71,74.28L911.06,79.29L911.08,84.14L911.64,400.48L911.93,349.13L911.95,352.1L912,249.66L912.02,183.48L912.11,82.09L912.66,327.32L912.76,138.77L912.77,189.45L913,342.85L913.5,123.42L913.53,140.73L913.54,184.42L914.08,400.74L914.35,315.85L914.37,329.1L914.4,340.78L914.89,107.74L914.9,107.7L915.24,104.72L915.44,337.27L915.51,169.39L915.53,149.11L915.59,145.04L915.77,369.27L915.88,167.26L915.89,161.1L915.93,141.92L916.51,414L916.66,300.81L916.67,290.9L916.98,124.93L917.18,350.32L917.43,238.53L917.44,262.44L917.67,170.31L917.86,378.54L918.23,365.5L918.24,347.21L918.37,127.99L918.95,431.9L918.96,431.78L918.98,415.15L919.25,426.52L919.79,190.95L919.85,233.55L919.86,242.51L919.95,389.19L920.11,162.61L920.52,216.2L920.53,206.88L921.39,458.11L921.4,456.22L921.42,430.81L922.2,166.22L922.27,197.68L922.29,223.04L922.39,375.38L922.55,159.73L922.79,278.92L922.81,230.32L922.91,160L923.45,380.1L923.53,278.02L923.55,269.33L923.82,425.31L924.23,159.49L924.24,146.03L924.48,344.77L924.65,113.08L924.97,131.82L924.98,107.2L925,105.2L925.04,169.07L925.06,160.18L925.07,184.56L925.1,200.16L925.11,243.35L925.33,96.91L925.88,372.23L925.91,357.16L925.93,345.32L926.27,449.11L926.72,205.56L926.74,203.91L926.82,250.84L926.84,274.51L927.26,393.76L927.43,158.97L927.61,371.21L927.62,368.7L928.12,141.36L928.28,349.91L928.29,367.89L928.52,255.85L928.71,439.55L929.03,369.46L929.04,327.53L929.35,360.25L929.86,122.87L929.87,122.93L930.41,347.95L930.48,176.82L930.49,150.58L930.55,130.37L930.68,257.09L930.7,294.22L930.96,200.97L931.15,416.98L931.47,369.62L931.48,342.68L931.84,398.53L932.25,180.16L932.26,226.08L932.28,194.11L932.48,366.84L932.99,147.23L933.03,191.11L933.05,180.57L933.58,431.46L933.89,400.66L933.9,377.59L934.57,384.65L934.69,185.36L934.71,207.63L934.73,187.57L934.79,181L934.84,253.59L934.86,300.79L935.08,174.08L935.63,395.72L935.64,390.64L935.83,238.79L935.98,459.3L936.28,418.88L936.29,423.78L936.31,424.54L936.32,416.94L936.34,393.32L936.77,191.12L937.01,398.77L937.12,206.22L937.14,256.83L937.57,193.41L937.7,402.02L937.9,202.97L937.92,204.26L938.43,488.78L938.75,451.26L938.76,446.07L939.31,197.42L939.56,234.49L939.57,286.81L939.66,206.76L940.14,442.5L940.15,444.1L940.36,239.59L940.5,463.38L940.78,427.58L940.79,457.54L940.86,499.67L941.05,303.44L941.37,314.16L941.39,308.86L941.88,485.39L942.1,266.27L942.12,323.2L942.14,347.34L942.24,484.23L942.79,259.01L942.92,458.88L942.94,459.8L943.14,270.85L943.29,488.39L943.56,408.29L943.58,436.21L943.62,457.28L944.18,200.78L944.2,220.07L944.31,422.15L944.88,190.96L945.03,409.44L945.04,389L945.23,191.86L945.74,472.38L945.76,466.12L945.78,449.4L946.62,195.74L946.64,218.16L946.75,420.65L947.32,173.1L947.43,402.29L947.45,407.28L947.66,171.25L947.75,342.06L947.77,375.19L948.01,198.51L948.17,464.67L948.52,403.31L948.53,346.7L948.71,176.41L949.19,402.65L949.3,205.49L949.32,257.29L949.4,187.07L949.88,407.6L950.1,196.98L950.12,223.26L950.59,465.59L950.94,427.71L950.96,403.72L951.28,407.81L951.49,186.87L951.74,210.5L951.75,253.66L951.97,406.11L952.19,186.07L952.29,389.79L952.31,404.08L952.54,197.06L952.68,417.06L952.86,338.36L952.87,291.78L953.03,473.47L953.58,204.53L953.63,253.77L953.64,283.71L953.71,410.57L954.28,173.3L954.41,405.04L954.42,401.58L954.63,179.66L954.76,401.8L955.08,385.35L955.09,404.22L955.32,229.63L955.47,469.16L955.83,407.29L955.84,355.38L956.15,406.79L956.37,178.76L956.61,204.53L956.63,255.06L956.71,166.2L956.84,402L957.38,231.51L957.4,227.74L957.41,187.49L957.9,467.63L958.12,292.81L958.14,314.91L958.24,431.81L958.8,186.15L958.82,205.79L959.28,399.66L959.5,186.4L959.63,395.37L959.64,393.47L959.85,194.14L960.28,417.79L960.3,439.6L960.34,467.4L960.86,209.41L960.88,208.59L961.24,175.25L961.37,397.67L961.62,230.52L961.63,241.31L961.93,185.88L962.43,412.2L962.44,408.2L962.46,389.99L962.78,467.34L963.33,201.77L963.34,213.95L963.46,407.69L963.68,187.98L963.97,222.83L963.98,223.52L964.02,181.69L964.15,408.34L964.46,356.23L964.47,390.34L964.62,205.34L964.86,424.07L965.05,311.64L965.07,237.94L965.21,475.95L965.78,206.78L965.88,408.48L965.89,412.65L966.13,201.38L966.18,318.76L966.2,364.39L966.59,412.02L966.81,188.9L966.95,407.24L966.97,386.85L967.16,197.88L967.65,474.54L967.69,469.62L967.71,441.32L968.21,203.98L968.52,223.31L968.53,229.07L968.68,403.14L968.9,190.4L969.27,228.48L969.29,238.08L969.49,209.33L970.09,465.75L970.11,462.63L970.13,462.71L970.98,188.57L971,195.68L971.81,417.31L971.83,412.8L971.84,394.59L972.03,213.52L972.55,478.13L972.57,477.85L972.58,453.15L973.09,198.46L973.42,208.9L973.44,195.94L973.55,409.6L974.23,388.15L974.25,393.17L974.32,240.27L974.33,220.66L974.36,195.99L974.61,413.74L974.89,387.31L974.9,422.16L974.97,474.18L975.52,220.5L975.64,416.95L975.65,413.06L975.87,213.05L975.99,420.36L976.31,399.67L976.32,414.37L976.34,416.35L976.38,356.41L976.39,307.43L976.57,231.65L977.05,465.26L977.06,458.45L977.08,458.08L977.42,484.81L977.84,224.99L977.92,230.56L977.93,245.53L978.08,428.45L978.31,205.07L978.38,363.73L978.39,395.24L978.41,421.8L978.66,204.27L979,209.38L979.02,235.19L979.24,211.06L979.48,410.66L979.69,260.24L979.7,251.52L979.86,479.86L980.4,213.18L980.48,375.43L980.5,402.9L980.51,407.12L980.74,203.67L980.92,286.37L980.93,245.58L980.98,199.17L981.21,405.93L981.5,346L981.51,376.36L981.56,414.08L981.79,207.32L982.12,254.2L982.14,229.69L982.3,469.05L982.72,193.13L982.92,370.57L982.93,384.88L982.95,387.36L982.99,337.69L983.01,283.47L983.14,189.29L983.64,388.25L983.76,203.8L983.78,250.43L983.99,393.11L984.15,193.22L984.5,302.88L984.51,304.49L984.53,304.9L984.54,297.62L984.56,255.87L984.73,456.34L985.21,184.79L985.31,251.06L985.33,295.62L985.85,187.02L986.08,395.66L986.1,391.01L986.11,372.05L986.53,209.86L986.78,414.36L986.86,333.93L986.88,323.55L986.89,323.13L986.95,351.59L986.98,333.54L986.99,283.1L987.17,479.05L987.71,204.79L987.75,266.69L987.76,308.42L987.82,397.13L987.94,177.54L988.53,390.04L988.55,373.06L988.63,214.45L989.26,451.13L989.3,354.99L989.32,340.39L989.61,486.52L990.14,207.88L990.17,239.76L990.19,272.52L990.26,400.04L990.77,178.48L990.95,389.6L990.97,385.68L991.07,179.11L991.68,413.38L991.69,406.83L992.04,488.95L992.52,187.81L992.53,191.17L992.55,229.31L992.81,193.04L993.39,399.27L993.4,394.29L993.85,194.08L994.04,350.06L994.06,382.8L994.32,261.99L994.48,487.25L994.81,418.79L994.83,379.25L995.13,396.78L995.3,162.72L995.59,214.82L995.61,260.55L995.94,222.5L996.22,447.38L996.29,362.19L996.31,367.63L996.41,273.12L996.93,476.17L997.07,393.13L997.09,376.05L997.22,429.57L997.73,173.42L997.86,266.2L997.87,316.42L998.09,183.36L998.26,379.46L998.64,358.84L998.65,326.86L998.79,171.93L999.34,420.06L999.35,432L999.39,384.91L999.41,361.13L999.66,361.54L1000.18,87.57L1000.28,177.28L1000.29,205.88L1000.51,134.38L1001.06,374.82L1001.09,353.98L1001.11,311.96L1001.21,179.61L1001.8,431.74L1001.83,406.4L1001.85,390.88L1002.08,421.05L1002.61,179.84L1002.72,238.55L1002.73,276.12L1002.79,377.56L1003.31,126.29L1003.48,331.04L1003.5,331.25L1003.64,131.11L1004.17,414.62L1004.18,424.48L1004.22,447.56L1004.62,220.03L1004.63,195.43L1004.88,368.96L1005.05,158.7L1005.18,305.98L1005.2,333.47L1005.22,357.94L1005.73,136.88L1005.93,338.49L1005.95,319.09L1006.08,136.91L1006.63,428.02L1006.65,430.72L1006.66,444.06L1007.14,195.01L1007.34,359.58L1007.36,332L1007.66,360.12L1007.83,140.93L1008.12,161.89L1008.14,206.36L1008.17,140.03L1008.72,378.35L1008.86,321.78L1008.88,322.79L1008.95,272.2L1009.01,374.17L1009.02,399.67L1009.1,447.41L1009.49,186.29L1009.5,158.37L1009.76,305.53L1009.92,50.04L1010.05,195.52L1010.07,236.41L1010.46,292.82L1010.6,47.6L1010.82,269.2L1010.84,258.15L1010.95,46.9L1011.55,399.76L1011.56,381.76L1011.58,363.01L1012,36.9L1012.4,213.27L1012.42,242.1L1012.55,337.51L1012.69,119.97L1013.16,231.08L1013.17,247.36L1013.35,194.32L1013.97,412.86L1013.98,412.6L1014,395.16L1014.19,289.98L1014.68,457.51L1014.72,416.04L1014.74,414.57L1014.77,432.83L1015.13,250.06L1015.39,311.1L1015.4,286.19L1015.68,357.74L1015.83,197.37L1016.04,349.43L1016.06,362.7L1016.1,314.29L1016.12,301.01L1016.27,228.79L1016.42,386.06L1016.87,297.6L1016.88,298.83L1016.96,286.04L1017,341.89" style="vector-effect: non-scaling-stroke; fill: none; stroke: rgb(99, 110, 250); stroke-opacity: 1; stroke-width: 2px; opacity: 1;"/></g><g class="points"/><g class="text"/></g></g></g><g class="overplot"/><path class="xlines-above crisp" d="M102,664.5H1120" style="fill: none; stroke-width: 1px; stroke: rgb(255, 255, 255); stroke-opacity: 1;"/><path class="ylines-above crisp" d="M102.5,100V664" style="fill: none; stroke-width: 1px; stroke: rgb(255, 255, 255); stroke-opacity: 1;"/><g class="overlines-above"/><g class="xaxislayer-above"><g class="xtick"><text text-anchor="middle" x="0" y="696.2" transform="translate(103,0)" style="font-family: 'Open Sans', verdana, arial, sans-serif; font-size: 26px; fill: rgb(42, 63, 95); fill-opacity: 1; white-space: pre;">2011</text></g><g class="xtick"><text text-anchor="middle" x="0" y="696.2" transform="translate(230.04000000000002,0)" style="font-family: 'Open Sans', verdana, arial, sans-serif; font-size: 26px; fill: rgb(42, 63, 95); fill-opacity: 1; white-space: pre;">2012</text></g><g class="xtick"><text text-anchor="middle" x="0" y="696.2" transform="translate(357.43,0)" style="font-family: 'Open Sans', verdana, arial, sans-serif; font-size: 26px; fill: rgb(42, 63, 95); fill-opacity: 1; white-space: pre;">2013</text></g><g class="xtick"><text text-anchor="middle" x="0" y="696.2" transform="translate(484.47,0)" style="font-family: 'Open Sans', verdana, arial, sans-serif; font-size: 26px; fill: rgb(42, 63, 95); fill-opacity: 1; white-space: pre;">2014</text></g><g class="xtick"><text text-anchor="middle" x="0" y="696.2" transform="translate(611.51,0)" style="font-family: 'Open Sans', verdana, arial, sans-serif; font-size: 26px; fill: rgb(42, 63, 95); fill-opacity: 1; white-space: pre;">2015</text></g><g class="xtick"><text text-anchor="middle" x="0" y="696.2" transform="translate(738.55,0)" style="font-family: 'Open Sans', verdana, arial, sans-serif; font-size: 26px; fill: rgb(42, 63, 95); fill-opacity: 1; white-space: pre;">2016</text></g><g class="xtick"><text text-anchor="middle" x="0" y="696.2" transform="translate(865.93,0)" style="font-family: 'Open Sans', verdana, arial, sans-serif; font-size: 26px; fill: rgb(42, 63, 95); fill-opacity: 1; white-space: pre;">2017</text></g><g class="xtick"><text text-anchor="middle" x="0" y="696.2" transform="translate(992.97,0)" style="font-family: 'Open Sans', verdana, arial, sans-serif; font-size: 26px; fill: rgb(42, 63, 95); fill-opacity: 1; white-space: pre;">2018</text></g><g class="xtick"><text text-anchor="middle" x="0" y="696.2" transform="translate(1120.01,0)" style="font-family: 'Open Sans', verdana, arial, sans-serif; font-size: 26px; fill: rgb(42, 63, 95); fill-opacity: 1; white-space: pre;">2019</text></g></g><g class="yaxislayer-above"><g class="ytick"><text text-anchor="end" x="96.8" y="9.1" transform="translate(0,602.51)" style="font-family: 'Open Sans', verdana, arial, sans-serif; font-size: 26px; fill: rgb(42, 63, 95); fill-opacity: 1; white-space: pre;">6k</text></g><g class="ytick"><text text-anchor="end" x="96.8" y="9.1" transform="translate(0,520.13)" style="font-family: 'Open Sans', verdana, arial, sans-serif; font-size: 26px; fill: rgb(42, 63, 95); fill-opacity: 1; white-space: pre;">8k</text></g><g class="ytick"><text text-anchor="end" x="96.8" y="9.1" transform="translate(0,437.76)" style="font-family: 'Open Sans', verdana, arial, sans-serif; font-size: 26px; fill: rgb(42, 63, 95); fill-opacity: 1; white-space: pre;">10k</text></g><g class="ytick"><text text-anchor="end" x="96.8" y="9.1" transform="translate(0,355.39)" style="font-family: 'Open Sans', verdana, arial, sans-serif; font-size: 26px; fill: rgb(42, 63, 95); fill-opacity: 1; white-space: pre;">12k</text></g><g class="ytick"><text text-anchor="end" x="96.8" y="9.1" transform="translate(0,273.01)" style="font-family: 'Open Sans', verdana, arial, sans-serif; font-size: 26px; fill: rgb(42, 63, 95); fill-opacity: 1; white-space: pre;">14k</text></g><g class="ytick"><text text-anchor="end" x="96.8" y="9.1" transform="translate(0,190.64)" style="font-family: 'Open Sans', verdana, arial, sans-serif; font-size: 26px; fill: rgb(42, 63, 95); fill-opacity: 1; white-space: pre;">16k</text></g><g class="ytick"><text text-anchor="end" x="96.8" y="9.1" transform="translate(0,108.26)" style="font-family: 'Open Sans', verdana, arial, sans-serif; font-size: 26px; fill: rgb(42, 63, 95); fill-opacity: 1; white-space: pre;">18k</text></g></g><g class="overaxes-above"/></g></g><g class="polarlayer"/><g class="ternarylayer"/><g class="geolayer"/><g class="funnelarealayer"/><g class="pielayer"/><g class="treemaplayer"/><g class="sunburstlayer"/><g class="glimages"/><defs id="topdefs-c5a562"><g class="clips"/></defs><g class="layer-above"><g class="imagelayer"/><g class="shapelayer"/></g><g class="infolayer"><g class="g-gtitle"><text class="gtitle" x="60" y="50" text-anchor="start" dy="0em" style="font-family: 'Open Sans', verdana, arial, sans-serif; font-size: 36px; fill: rgb(42, 63, 95); opacity: 1; font-weight: normal; white-space: pre;">South Demand outliers fixed</text></g><g class="g-xtitle"><text class="xtitle" x="611.5" y="737.903125" text-anchor="middle" style="font-family: 'Open Sans', verdana, arial, sans-serif; font-size: 31px; fill: rgb(42, 63, 95); opacity: 1; font-weight: normal; white-space: pre;">Date</text></g><g class="g-ytitle" transform="translate(19.3564453125,0)"><text class="ytitle" transform="rotate(-90,11.643749999999997,382)" x="11.643749999999997" y="382" text-anchor="middle" style="font-family: 'Open Sans', verdana, arial, sans-serif; font-size: 31px; fill: rgb(42, 63, 95); opacity: 1; font-weight: normal; white-space: pre;">Demand</text></g></g></svg>