<svg class="main-svg" xmlns="http://www.w3.org/2000/svg" xmlns:xlink="http://www.w3.org/1999/xlink" width="1200" height="750" style="" viewBox="0 0 1200 750"><rect x="0" y="0" width="1200" height="750" style="fill: rgb(255, 255, 255); fill-opacity: 1;"/><defs id="defs-f69fa2"><g class="clips"><clipPath id="clipf69fa2xyplot" class="plotclip"><rect width="1000" height="564"/></clipPath><clipPath class="axesclip" id="clipf69fa2x"><rect x="120" y="0" width="1000" height="750"/></clipPath><clipPath class="axesclip" id="clipf69fa2y"><rect x="0" y="100" width="1200" height="564"/></clipPath><clipPath class="axesclip" id="clipf69fa2xy"><rect x="120" y="100" width="1000" height="564"/></clipPath></g><g class="gradients"/></defs><g class="bglayer"><rect class="bg" x="120" y="100" width="1000" height="564" style="fill: rgb(229, 236, 246); fill-opacity: 1; stroke-width: 0;"/></g><g class="layer-below"><g class="imagelayer"/><g class="shapelayer"/></g><g class="cartesianlayer"><g class="subplot xy"><g class="layer-subplot"><g class="shapelayer"/><g class="imagelayer"/></g><g class="gridlayer"><g class="x"><path class="xgrid crisp" transform="translate(244.92000000000002,0)" d="M0,100v564" style="stroke: rgb(255, 255, 255); stroke-opacity: 1; stroke-width: 1px;"/><path class="xgrid crisp" transform="translate(370.16999999999996,0)" d="M0,100v564" style="stroke: rgb(255, 255, 255); stroke-opacity: 1; stroke-width: 1px;"/><path class="xgrid crisp" transform="translate(495.09,0)" d="M0,100v564" style="stroke: rgb(255, 255, 255); stroke-opacity: 1; stroke-width: 1px;"/><path class="xgrid crisp" transform="translate(620.01,0)" d="M0,100v564" style="stroke: rgb(255, 255, 255); stroke-opacity: 1; stroke-width: 1px;"/><path class="xgrid crisp" transform="translate(744.92,0)" d="M0,100v564" style="stroke: rgb(255, 255, 255); stroke-opacity: 1; stroke-width: 1px;"/><path class="xgrid crisp" transform="translate(870.18,0)" d="M0,100v564" style="stroke: rgb(255, 255, 255); stroke-opacity: 1; stroke-width: 1px;"/><path class="xgrid crisp" transform="translate(995.1,0)" d="M0,100v564" style="stroke: rgb(255, 255, 255); stroke-opacity: 1; stroke-width: 1px;"/></g><g class="y"><path class="ygrid crisp" transform="translate(0,607.44)" d="M120,0h1000" style="stroke: rgb(255, 255, 255); stroke-opacity: 1; stroke-width: 1px;"/><path class="ygrid crisp" transform="translate(0,550.14)" d="M120,0h1000" style="stroke: rgb(255, 255, 255); stroke-opacity: 1; stroke-width: 1px;"/><path class="ygrid crisp" transform="translate(0,492.84)" d="M120,0h1000" style="stroke: rgb(255, 255, 255); stroke-opacity: 1; stroke-width: 1px;"/><path class="ygrid crisp" transform="translate(0,435.54)" d="M120,0h1000" style="stroke: rgb(255, 255, 255); stroke-opacity: 1; stroke-width: 1px;"/><path class="ygrid crisp" transform="translate(0,378.24)" d="M120,0h1000" style="stroke: rgb(255, 255, 255); stroke-opacity: 1; stroke-width: 1px;"/><path class="ygrid crisp" transform="translate(0,320.94)" d="M120,0h1000" style="stroke: rgb(255, 255, 255); stroke-opacity: 1; stroke-width: 1px;"/><path class="ygrid crisp" transform="translate(0,263.63)" d="M120,0h1000" style="stroke: rgb(255, 255, 255); stroke-opacity: 1; stroke-width: 1px;"/><path class="ygrid crisp" transform="translate(0,206.32999999999998)" d="M120,0h1000" style="stroke: rgb(255, 255, 255); stroke-opacity: 1; stroke-width: 1px;"/><path class="ygrid crisp" transform="translate(0,149.03)" d="M120,0h1000" style="stroke: rgb(255, 255, 255); stroke-opacity: 1; stroke-width: 1px;"/></g></g><g class="zerolinelayer"/><path class="xlines-below"/><path class="ylines-below"/><g class="overlines-below"/><g class="xaxislayer-below"/><g class="yaxislayer-below"/><g class="overaxes-below"/><g class="plot" transform="translate(120, 100)" clip-path="url('#clipf69fa2xyplot')"><g class="scatterlayer mlayer"><g class="trace scatter trace169d46" style="stroke-miterlimit: 2; opacity: 1;"><g class="fills"/><g class="errorbars"/><g class="lines"><path class="js-line" d="M0,476.1L0.1,529.55L0.64,415.57L0.76,488.53L0.77,480.89L1.58,366.27L1.6,367.96L1.77,461.98L1.93,362.61L2.35,380.75L2.37,379.8L2.84,492.77L3.15,461.5L3.17,452.7L3.29,350.93L3.48,455.38L3.96,356.57L3.98,353.18L4.16,454.75L4.58,373.7L4.59,360.92L4.66,350.97L4.69,372.07L4.71,397.68L4.75,375.56L5.23,493.61L5.55,460.46L5.56,447.53L6.22,453.44L6.37,344.71L6.39,347.79L6.56,449.54L7.14,374.49L7.16,374.81L7.63,489.77L7.96,447.82L7.97,431.28L8.27,449.07L8.77,335.94L8.78,341.25L8.96,440.79L9.11,332.86L9.53,372.96L9.54,367.36L9.55,363.47L10.01,470.54L10.02,480.97L10.48,334.22L10.94,380.32L10.95,405.87L11.51,337.8L11.66,463.93L11.71,442.13L11.72,426.31L11.85,341L12.36,459.98L12.38,465.31L12.42,482.67L12.62,383.97L12.76,417.48L12.78,385.55L13.06,441.95L13.55,336.6L13.56,334.02L14.09,437.72L14.16,358.61L14.17,347.43L14.25,336.69L14.27,364.44L14.29,392.48L14.35,365.42L14.82,484.09L15.13,450.93L15.14,430.7L15.27,341.7L15.79,446.27L15.8,447.37L16.64,338.92L16.66,348.51L17.2,488.32L17.45,440.02L17.47,453.72L17.5,465L18,331.75L18.08,354.91L18.1,348.12L18.52,446.1L18.68,334.7L18.89,436.73L18.91,426.71L19.02,336.3L19.59,488.21L19.64,463.86L19.65,458.34L19.89,472.4L20.05,354.63L20.51,381.21L20.52,407.76L20.75,362.99L21.26,467.34L21.28,465.96L21.29,457.23L21.42,365.88L21.97,497.57L21.99,508.23L22.86,384.48L22.9,415.32L22.92,434.61L22.97,480.51L23.47,352.77L23.67,462.13L23.69,461.95L23.81,351.72L24.38,498.21L24.4,494.54L25.2,352.32L25.25,358.52L25.27,364.35L25.37,463.79L25.88,347.24L25.98,377.36L26,402.15L26.21,347.11L26.78,500.81L26.79,497.5L27.59,357.75L27.69,381.4L27.71,407.72L27.76,466.21L28.26,347.13L28.46,457.51L28.48,449.03L28.61,342.53L29.16,482.46L29.18,493.58L29.65,343.66L30.09,376.95L30.1,401.22L30.33,349.47L30.84,464.2L30.87,454.36L30.89,440.34L31,349.15L31.57,496.27L31.61,472.1L31.63,465.07L31.87,484.95L32.37,355.17L32.48,383.57L32.5,414.58L32.56,470.18L33.07,356.33L33.25,466.42L33.27,456.69L33.4,355.43L33.97,506.88L33.98,504.36L34,491.42L34.77,351.55L34.87,365.92L34.88,382.24L34.95,462.29L35.46,341.3L35.65,455.48L35.66,446.38L35.79,344.63L36.32,476.68L36.33,479.99L36.36,492.98L36.52,436.18L36.53,383.47L36.59,414.22L36.61,432.01L36.66,475.91L36.83,348.59L37.36,460.9L37.38,451.43L37.56,356.26L38.07,511.67L38.09,510.25L38.59,380.81L38.86,482.54L38.87,483.78L38.92,448.53L38.93,401.14L39.06,493.85L39.13,401.59L39.14,383.47L39.27,356.15L39.4,471.45L39.71,463.12L39.73,472.17L39.96,357.58L40.08,476.63L40.17,385.81L40.18,376.24L40.2,375.87L40.21,387.29L40.23,379.73L40.24,371.93L40.3,357.72L40.36,394.58L40.37,421.4L40.64,356.8L41.15,510.07L41.17,508.77L41.67,360.79L42.02,374.33L42.04,382.84L42.14,481.43L42.35,360.93L42.42,423.53L42.44,451.03L42.48,479.16L43.04,356.35L43.19,472.29L43.21,471.97L43.38,360.76L43.55,509.23L44.03,372.06L44.05,373.45L44.53,477.45L44.75,352.64L44.79,373.27L44.8,389.92L45.09,356.85L45.57,479.89L45.59,477.59L45.6,475.81L45.77,363.57L45.96,511.39L46.47,379L46.49,386.06L46.5,385.55L46.52,403.26L46.53,434.93L46.59,485.96L47.14,363.47L47.29,483.88L47.3,472.79L47.49,362.02L47.96,484.57L48.07,429.01L48.08,434.97L48.13,439.29L48.16,411.75L48.17,360.62L48.34,520.32L48.98,484.54L49,483L49.54,353.65L49.82,378.17L49.84,378L49.88,354.24L49.98,469.28L50,477.89L50.22,362.59L50.37,484.44L50.54,432.28L50.55,405.96L50.57,361.29L50.75,516.24L51.29,383.93L51.31,403.96L51.38,487.53L51.59,357.31L52.08,480.86L52.09,470.56L52.28,358.42L52.4,481.53L52.86,429.09L52.88,435.05L52.96,360.97L53.03,454.42L53.05,476.97L53.15,519.38L53.65,363.49L53.79,483.14L53.8,472.47L54.12,490L54.33,358.53L54.62,379.47L54.63,378.15L54.8,484.61L55.01,360.2L55.13,477.64L55.14,482.79L55.16,483.66L55.2,469.18L55.21,448.3L55.36,360.77L55.54,520.17L56.04,364.28L56.06,380.42L56.17,489.62L56.38,364.52L56.71,377.99L56.73,359.97L57.2,486.53L57.57,483.28L57.58,483.05L57.75,358.68L57.94,516.36L58.45,374.73L58.47,381.4L58.48,379.99L58.54,472.66L58.55,481.28L58.57,484.05L58.65,392.09L58.66,382.55L58.69,394.16L58.78,356.92L58.82,377.76L58.84,394.38L59.12,361.15L59.59,500.24L59.62,493.55L59.63,484.42L60.15,368.57L60.32,516.73L60.33,518.73L61.17,362.33L61.23,400.4L61.25,433.35L61.3,488.41L61.86,358.23L62,481.83L62.02,473.64L62.54,361.03L62.73,515.6L62.74,505.3L62.76,493.17L63.01,505.59L63.57,365.03L63.61,380.75L63.63,398.16L63.7,488.4L63.91,361.83L64.4,483.04L64.41,474.93L64.6,366.46L65.07,510.66L65.08,513.48L65.12,522.72L65.27,450.39L65.28,393.12L65.41,506L65.62,364.69L65.88,401.48L65.89,391.46L66.09,484.06L66.31,360.1L66.39,451.58L66.41,470.18L66.65,363.18L66.78,483.36L67.16,479.37L67.18,470.64L67.33,363.52L67.52,514.93L67.96,382.91L67.98,383.64L68.15,481.89L68.36,359.74L68.45,449.74L68.46,466.69L68.49,479.77L68.7,355.4L69,370.64L69.02,372.58L69.05,357.6L69.17,478.27L69.72,415.1L69.73,366.66L69.92,514.66L70.34,393.53L70.36,387.04L70.4,390.06L70.42,365.92L70.46,380.81L70.47,399.16L70.54,484.19L71.1,356.48L71.24,478.12L71.26,468.41L71.44,357.61L71.57,475.5L72.03,422.58L72.04,427.7L72.13,360.83L72.2,440.58L72.21,462.26L72.31,504.84L72.81,360.78L72.84,375.27L72.85,374.13L73.5,355L73.62,476.13L73.65,464.72L73.67,446.84L73.84,359.49L74.32,479.18L74.42,425.5L74.44,429.99L74.48,433.68L74.51,418.58L74.52,362.05L74.61,462.66L74.62,478.37L74.69,510.7L75.16,362.85L75.19,373.61L75.21,360.52L75.55,357.2L75.68,469.77L75.83,367.02L75.85,366.59L75.88,375.03L75.89,357.65L75.93,365.78L75.95,381.47L76.23,358.43L76.36,472.72L76.72,470.03L76.73,470.6L76.75,470.86L76.76,457.75L76.92,360.19L77.09,507.83L77.53,384.87L77.55,377.86L77.59,388.37L77.6,363.63L77.66,386.98L77.67,415.92L77.73,470.14L78.29,347.67L78.44,454.46L78.46,437.27L78.63,353.7L78.76,470.05L79.21,411.43L79.23,417.81L79.28,421.03L79.3,408.54L79.31,362.56L79.38,437.54L79.4,458.28L79.5,506.21L80,364.74L80.15,465.46L80.17,447.44L80.47,475.49L80.68,356.66L80.95,371.67L80.97,363.48L81.02,354.6L81.08,380.55L81.1,410.96L81.37,357.35L81.88,506.28L81.89,503.31L82.68,343.89L82.79,375.85L82.81,407.39L83.08,359.17L83.55,477.02L83.58,464.68L83.59,449.97L84.12,363.18L84.26,505.5L84.28,515.36L85.07,359.38L85.19,386.17L85.2,412.69L85.3,484.43L85.82,358.16L85.97,459.35L85.99,446.37L86.51,357.11L86.67,504.7L86.73,468.01L86.74,463.33L86.79,469.53L86.83,444.75L86.84,390.86L86.86,388.13L86.93,466.96L86.94,480.27L86.97,489.15L87.2,362.69L87.4,376.11L87.41,364.64L87.47,355.04L87.58,376.68L87.6,408.35L87.87,356.54L88.34,470.2L88.35,468.04L88.37,460.54L88.91,360.93L89.07,510.43L89.08,504.35L89.59,362.33L89.98,383.23L89.99,416.15L90.05,471.7L90.56,352.2L90.76,451.2L90.78,437.64L90.89,345.99L91.46,508.1L91.51,476.65L91.52,468.02L91.76,490.45L92.33,358.23L92.38,378.87L92.39,410.85L92.45,466.43L92.96,345.8L93.15,458.18L93.16,453.3L93.29,339.83L93.84,490.45L93.86,500.89L94.39,360.62L94.77,384.27L94.79,417.86L94.84,471.02L95.34,347.9L95.54,461.48L95.56,458.4L95.7,343.21L96.25,499.09L96.28,477.54L96.3,465.96L96.55,476.67L96.72,344.4L97.15,366.15L97.17,376.9L97.28,486.5L97.74,349.24L97.94,454.49L97.95,451.85L98.08,345.27L98.31,465.12L98.58,455.25L98.59,469.81L98.66,500.96L99.12,369.65L99.16,393.93L99.18,380.7L99.19,369L99.63,476.9L99.9,386.31L99.92,414.1L99.98,479.18L100.49,373.68L100.69,477.24L100.7,476.37L100.9,374.14L101.06,510.99L101.34,490.2L101.36,487.85L102.2,350.45L102.21,352.05L102.39,460.25L102.88,343.64L102.94,377.07L102.96,363.28L103.46,496.43L103.78,457.44L103.8,437.26L103.91,374.08L104.47,497.67L104.54,455.55L104.55,455.06L104.6,458.73L104.64,440.73L104.65,404.93L104.77,491.38L105.28,366.55L105.39,404.22L105.41,431.31L105.69,368.98L105.85,504.1L106.16,470.29L106.18,452.21L106.48,464.53L106.65,348.82L106.96,355.33L106.98,344.08L107.18,452L107.33,336.97L107.46,409.22L107.48,429.38L107.66,335.94L108.25,493.43L108.26,482.58L108.27,471.72L108.92,479.68L109.12,374.47L109.14,402.99L109.16,426.48L109.22,482.06L109.73,359.06L109.91,464.06L109.93,455.18L110.07,355.43L110.61,492.84L110.63,505.44L111.1,349L111.24,440.04L111.26,450.91L111.27,454.51L111.44,342.24L111.75,361.81L111.77,352.01L111.95,458.14L112.13,345.39L112.25,419.35L112.27,440.22L112.47,335.78L113.04,490.7L113.05,480.67L113.07,469.58L113.32,473.6L113.84,338.95L113.94,361.63L113.95,387.96L114.18,338.38L114.71,454.92L114.72,446L114.86,352.23L115.4,485.9L115.42,499.17L115.48,465.71L115.49,459.75L115.53,462.35L115.6,422.73L115.62,396.49L115.72,476.67L116.23,336.47L116.35,382.02L116.36,412.56L116.4,451.02L116.57,329.03L117.12,440.44L117.13,430.17L117.26,343.73L117.81,495.02L117.86,469.58L117.87,459.3L118.11,473.81L118.63,333.26L118.74,376.05L118.76,409.36L118.97,332.67L119.48,451.52L119.51,444.82L119.53,438.72L119.65,344.62L120.22,484.86L120.27,448.51L120.28,447.12L120.42,382.89L120.52,468.09L120.58,394.46L120.6,369.5L120.87,447.53L121.02,329.41L121.37,331.54L121.38,335.82L121.89,440.73L122.14,364.91L122.15,362.26L122.62,506.7L122.96,464.2L122.98,436.9L123.26,468.58L123.75,375.57L123.76,374.72L123.89,429.23L123.9,449L124.19,383.85L124.29,470.94L124.53,390.78L124.55,392.31L124.86,381.79L125.02,523.84L125.34,487.72L125.36,475.31L125.66,475.69L126.14,360.62L126.16,358.28L126.34,458.78L126.5,354.21L126.76,375.09L126.77,361.96L126.8,367.09L126.81,358.62L126.83,350.43L127.06,461.37L127.23,415.37L127.24,395.55L127.41,490.84L127.87,349L127.98,388.39L128,414.43L128.55,347.94L128.74,455.37L128.75,448.1L128.77,437.88L128.89,342.9L129.45,452.87L129.52,404.6L129.54,409.81L129.65,364.49L129.81,488.68L130.18,371L130.19,358.86L130.26,344.06L130.45,448.47L130.56,354.67L130.58,342.46L130.61,334.28L130.79,444.71L131.3,338.29L131.32,354.07L131.62,341.64L131.85,446.58L132.07,383.62L132.09,401.83L132.2,487.26L132.66,329.38L132.84,435.98L132.86,430.38L132.99,325.75L133.19,435.93L133.67,335.77L133.69,334.88L134.21,457.34L134.41,410.94L134.43,396.04L134.6,493.43L135.05,337.89L135.17,375.61L135.18,405.07L135.24,448.1L135.74,324.39L135.94,429.75L135.95,416.2L136.27,429.81L136.41,314.58L136.61,429.74L136.62,429.69L136.64,431.72L136.71,384.95L136.82,388.82L136.84,353.12L136.94,447.7L136.95,453.05L136.99,473.76L137.17,410.26L137.18,373.13L137.29,442.4L137.79,301L137.92,373.62L137.94,395.59L137.98,416.64L138.14,299.43L138.68,408.4L138.69,393.04L138.81,310.41L139.3,432.86L139.32,446.15L139.39,474.9L139.85,325.58L140.03,436.41L140.05,427.08L140.37,435.77L140.53,318.96L140.84,332.63L140.86,321.32L140.87,320.06L141,390.24L141.02,411.61L141.22,324.93L141.79,478L141.81,462.37L141.83,455.92L142.09,462.07L142.33,383.55L142.58,424.78L142.6,426.58L142.77,452.59L142.91,345.69L142.93,342.62L143.11,433.48L143.18,346.79L143.2,333.82L143.45,428.61L143.61,318.59L143.72,363.07L143.74,388.36L144.02,348.28L144.17,477.02L144.49,437.19L144.51,424.59L144.81,430.48L144.98,307.24L145.29,311.22L145.31,302.02L145.44,362.94L145.45,391.58L145.99,306.5L146.22,436.92L146.23,420.71L146.56,474.62L147.02,304.94L147.05,314.79L147.06,345.23L147.22,423.91L147.36,303.57L147.76,355.46L147.77,332.25L147.8,327.69L147.9,425.35L147.97,333.75L147.99,322.33L148.02,331.58L148.03,316.24L148.05,306.53L148.23,424.97L148.3,348.24L148.32,329.52L148.39,306.95L148.94,462.1L148.96,475.08L149.41,309.66L149.59,425.39L149.6,430.14L149.66,387.65L149.67,352L149.76,307.38L149.94,434.97L150.44,314.89L150.46,316.5L151.35,487.18L151.4,463.19L151.41,455.21L151.65,465.1L151.82,338.03L151.98,442.66L152,446.79L152.04,423.04L152.05,397.6L152.34,440.78L152.84,314.15L152.85,314.35L152.87,321.11L153.41,446.85L153.66,431.88L153.68,448.72L153.75,483.11L154.22,318.54L154.41,435.68L154.42,427.53L154.55,325.62L155.08,454.61L155.2,359.95L155.22,348.97L155.57,334.2L155.8,451.79L155.89,399.48L155.9,400.43L155.95,405.63L155.96,398.3L155.97,351.75L156.15,486.39L156.62,328.08L156.7,345L156.72,359.9L156.79,445.14L157.29,319.02L157.49,436.27L157.5,429.42L157.63,334.59L157.87,477.8L158.14,467.29L158.16,472.37L158.2,475.28L158.36,412.56L158.37,360.95L158.54,487.94L159,336.06L159.11,365.46L159.13,391.85L159.18,448.04L159.68,324.17L159.88,436.77L159.9,428.28L160.21,439.28L160.37,318.06L160.67,382.62L160.68,388.56L160.77,336.54L160.84,406.2L160.85,425.53L160.94,476.61L161.39,337.47L161.61,440.07L161.62,424.34L162.08,331.41L162.26,451.2L162.42,332.73L162.43,334L162.76,333.4L162.99,464.23L163.15,402.65L163.16,354.59L163.33,490.41L163.7,387.78L163.72,370.04L163.97,456.77L164.49,335.47L164.5,338.1L164.53,330.2L165,451.54L165.17,342.87L165.19,348.21L165.21,338.86L165.73,489.71L166.07,464.69L166.08,441.5L166.24,359.72L166.41,497.31L166.87,365.51L166.88,364.4L166.93,347.36L166.98,380.91L167,411.02L167.05,471.95L167.27,343.67L167.75,468.78L167.77,467.71L167.82,418.93L167.84,411.21L167.91,420.09L167.94,397.26L167.95,343.18L168.12,498.99L168.59,359.71L168.61,361.68L168.98,344.67L169.11,469.01L169.24,372.4L169.25,363.58L169.45,465.59L169.66,338.5L170.01,341.07L170.02,355.43L170.35,338.45L170.52,493.64L170.85,467.01L170.86,441.66L171.03,342.03L171.5,471.61L171.63,380.74L171.65,372.11L171.72,342.78L172.19,476.74L172.4,351.57L172.42,366.23L172.74,354.15L172.93,510.19L173.24,481.74L173.26,458.38L173.56,478.45L173.77,345.91L174.04,375.15L174.06,368.33L174.11,341.94L174.17,383.58L174.18,415.23L174.24,475.69L174.8,341.53L174.95,469.78L174.97,467.17L175.14,342.96L175.31,505.76L175.8,358.76L175.81,355.22L175.95,469.71L176.17,335.81L176.55,358.79L176.57,374.7L176.85,341.14L176.98,470.89L177.34,470.71L177.35,469.4L177.54,347.67L177.72,504.23L177.95,444.18L177.96,465.2L178.01,487.93L178.22,342.5L178.53,349.37L178.55,348.35L178.56,337.71L179.08,478.15L179.26,373.83L179.27,385.12L179.37,484.45L179.59,357.1L179.92,399.94L179.93,350.21L180.12,508.07L180.74,476.23L180.76,475.45L180.96,343.55L181.58,364.52L181.6,365.21L181.64,345.96L181.71,412.07L181.73,442.14L182.33,349.78L182.51,509.4L182.53,497.03L183.35,341.44L183.38,365.55L183.4,362.12L183.48,466.38L184.04,336L184.19,449L184.21,429.07L184.38,342.89L184.91,508.3L184.92,495.2L184.94,481.8L185.19,492.26L185.75,349.7L185.79,371.25L185.81,390.03L185.88,477.07L186.09,344.2L186.58,473.28L186.59,463.82L186.78,347.54L187.3,509.11L187.33,481.98L187.35,473.29L187.59,493.15L188.14,345.88L188.2,385.48L188.22,416.62L188.27,472.08L188.49,345.17L188.97,467.35L188.99,458.43L189.17,351.33L189.7,507.72L189.71,496.67L189.73,483.87L189.98,501.25L190.54,350.88L190.58,371.37L190.6,386.76L190.67,475.37L190.88,344.72L191.37,466.82L191.38,459.16L191.57,350.08L192.04,495.51L192.05,498.81L192.09,511.27L192.22,466.38L192.24,436.89L192.38,495.4L192.94,348.97L192.99,386.94L193.01,417.92L193.28,348.44L193.41,476.62L193.76,474.01L193.78,466.57L193.96,352.7L194.49,513.26L194.5,500.02L194.52,486.23L194.78,495.09L195.33,345.1L195.37,368.17L195.39,376.89L195.8,470.54L196.02,345.51L196.16,465.32L196.17,457.66L196.7,349.4L196.8,474.42L196.81,486.38L196.87,509.11L197.04,381.62L197.24,401.7L197.26,383.46L197.51,475.21L197.73,350.01L198.01,368.7L198.03,367.07L198.07,349.42L198.13,377.97L198.14,410.32L198.41,348.33L198.9,471.51L198.91,470.67L198.92,469.87L199.1,352.67L199.27,505.63L199.81,366.51L199.82,364.77L199.91,471.67L200.46,346.71L200.49,362.52L200.51,358.99L200.81,347.41L201.28,469.47L201.31,468.71L201.32,468.32L201.49,350.22L201.66,505.8L202.13,360.75L202.15,362.75L202.3,466.92L202.52,345.68L202.89,365.93L202.9,362.47L202.99,468.16L203.2,347.73L203.57,367.65L203.59,365.5L203.89,352.16L204.06,502.24L204.39,476.13L204.4,454.4L204.7,466.69L204.91,348.93L205.18,361.86L205.2,351.59L205.26,346.61L205.34,436.42L205.36,455.02L205.38,467.9L205.6,350.93L206.11,466.8L206.13,451.67L206.28,354.59L206.45,502.9L206.91,363.32L206.92,364.11L207.1,470.9L207.31,351.89L207.52,373.65L207.54,362.43L207.57,376.93L207.61,360.22L207.64,373.62L207.65,350.56L207.78,470.4L207.98,376.41L207.99,353.99L208.07,410.86L208.08,439.25L208.69,351.91L208.85,506.51L208.86,501.06L208.88,485.31L209.32,351.37L209.72,355.46L209.73,359.93L209.78,407.13L209.79,437.46L210.33,345.86L210.56,479.51L210.58,471.82L211.09,358.15L211.25,499.18L211.33,455.67L211.35,456.52L211.4,428.87L211.42,375.9L211.54,474.51L212.04,333.9L212.16,357.93L212.17,388.95L212.39,332.18L212.91,452.18L212.94,443.49L212.96,430.06L213.07,334.52L213.64,494.39L213.7,455.19L213.71,449.57L213.76,453.37L213.8,430.84L213.81,377.96L213.94,467.97L214.1,322.99L214.25,431.69L214.27,442.03L214.28,446.36L214.45,320.41L214.77,335.83L214.78,326.52L214.81,332.81L214.82,351.3L214.84,339.64L215.31,451.11L215.54,356.23L215.55,363.94L215.64,451.58L215.65,456.74L215.69,460.7L215.71,441.72L215.72,419.93L216.04,504.28L216.51,352.6L216.56,354.2L216.58,354.95L216.89,345.97L217.02,460.81L217.16,365.2L217.18,358.83L217.23,354.01L217.29,381L217.31,410.16L217.36,475.92L217.92,360.91L218.06,471.55L218.08,473.76L218.09,475.09L218.25,408.34L218.26,360.65L218.43,511.28L218.83,360.32L218.85,357.3L219.07,461.65L219.57,332.82L219.59,332.09L220.1,450L220.24,341.98L220.26,333.75L220.83,493.54L221,402.26L221.01,389L221.13,467.14L221.21,354.58L221.23,341.79L221.3,334.12L221.33,359.54L221.4,354.08L221.41,384.41L221.47,447.61L221.63,329.23L222.18,441.16L222.2,428.55L222.31,340.22L222.88,488.87L222.95,422.43L222.97,426.02L223.01,429.24L223.04,419.07L223.05,375.94L223.22,509.35L223.75,353.15L223.79,374.52L223.81,403.91L223.87,462.55L224.36,342.45L224.56,452.69L224.58,452.33L224.71,334.58L225.26,463.79L225.35,394.66L225.36,401.56L225.46,348.99L225.52,417.18L225.55,442.75L225.63,492.53L226.09,330.2L226.29,434.22L226.3,420.64L226.62,448.68L227.12,324.37L227.13,330.86L227.27,497.35L227.46,325.91L227.84,399.02L227.86,364.61L228.03,480.13L228.49,314.1L228.6,364.89L228.61,393.91L228.83,305.6L229.36,433.24L229.38,416.56L229.4,400.01L229.51,329.42L230.04,478.78L230.14,419.5L230.15,423.43L230.27,372.17L230.32,446.89L230.34,462.83L230.42,498.54L230.88,336.99L231.07,455.59L231.08,445.44L231.39,453.04L231.55,332.75L231.72,445.77L231.74,449.58L231.78,427.33L231.79,408.62L232.25,334.96L232.44,449.62L232.54,391.53L232.55,396.93L232.66,355.2L232.82,488.74L232.99,400.11L233.01,377.72L233.11,463.3L233.28,336.49L233.53,362.94L233.55,349.28L233.56,347.55L233.75,430.4L233.76,450.03L233.96,357.92L234.18,482.42L234.36,398.41L234.37,377.99L234.47,480.57L234.65,376.73L235.04,397.96L235.06,374.81L235.2,506.82L235.67,345.7L235.86,455.88L235.87,450.53L236.2,454.59L236.36,331.98L236.49,407.93L236.5,432.49L236.54,450.69L236.7,324.26L237.26,445.62L237.27,435.02L237.61,484.19L238.05,347.78L238.07,344.38L238.24,454.72L238.31,384.47L238.32,362.76L238.58,453.69L238.75,332.25L238.95,438.84L238.97,431.08L239.09,322.57L239.65,451.65L239.72,395.6L239.74,401.81L239.85,359.34L239.99,484.7L240.16,427.58L240.18,401.18L240.29,465.11L240.81,317.76L240.93,391.47L240.95,414.01L240.99,432.18L241.48,300.83L241.69,413.87L241.7,410.43L241.82,300.57L242.39,457.98L242.4,461.58L242.86,302.32L243.33,378.21L243.34,399.82L243.54,307.34L244.07,429.11L244.1,417.1L244.11,394.08L244.23,322.71L244.78,472.93L244.81,458.53L244.83,445.71L245.08,454.36L245.6,311.37L245.7,333.59L245.71,352.31L245.94,313.47L246.12,429.15L246.48,418.95L246.5,417.76L246.61,331.59L247.19,470.99L247.22,448.58L247.24,441.27L247.39,373.83L247.88,485.35L247.94,460.46L247.95,462.85L247.98,468.77L248.34,340.12L248.56,415.63L248.58,386.55L248.68,346.48L249.23,452.26L249.3,411.36L249.32,413.63L249.43,368.18L249.59,482.53L249.76,417.83L249.78,388.57L249.92,480.11L250.12,382.61L250.25,476.98L250.26,491.59L250.27,501.36L250.73,362.16L250.94,438.39L250.96,426.03L251.42,347.29L251.63,450.65L251.71,398.25L251.73,401.1L251.83,357.34L251.89,409.5L251.9,427.02L251.99,474.07L252.44,314.89L252.64,418.37L252.66,412.27L252.78,310.38L253.31,427.98L253.44,336.65L253.45,327.66L253.47,326.49L253.5,348.78L253.51,373.7L253.81,345.05L254.02,450.23L254.21,391.02L254.22,368.35L254.31,462.4L254.32,470.41L254.38,488.77L254.54,434.78L254.55,417.27L254.67,464.55L255.18,333.27L255.29,380.3L255.31,409.08L255.37,446.13L255.86,326.77L256.06,433.59L256.08,422.33L256.21,327.89L256.78,483.14L256.79,474.18L256.81,463.89L257.06,464.87L257.58,334.72L257.66,358.7L257.68,355.17L257.76,444.01L258.26,312.57L258.45,426.53L258.46,421.99L258.6,318.38L259.12,457.11L259.13,462.21L259.17,479.31L259.37,378.32L259.53,381.87L259.54,358.74L259.81,438.85L260.31,318.89L260.33,321.06L260.34,337.82L260.5,431.64L261,309.05L261.08,347.2L261.1,341.95L261.57,466.24L261.9,418.73L261.91,404.19L262.37,324.22L262.55,438.02L262.68,335.52L262.69,326.67L262.71,323.8L262.84,401.99L262.85,422.27L262.88,438.11L263.05,330.64L263.48,358.01L263.49,356.11L263.96,475.41L264.31,447.8L264.32,429.88L264.65,446.7L265.1,320.7L265.12,322.45L265.13,339.19L265.29,420.14L265.45,298.1L265.87,337.15L265.89,331.33L266.35,460.31L266.69,415.5L266.7,385.5L266.8,293.16L267,417.7L267.49,294.67L267.5,296.03L267.69,417.91L267.83,294.34L268.26,332.55L268.27,328.25L268.74,470.01L269.08,418.04L269.1,387.95L269.54,295.43L269.72,424.43L269.85,326.37L269.87,314.8L269.88,303.91L270.41,432.04L270.59,326.71L270.61,352.32L270.98,334.68L271.14,476.36L271.46,433.6L271.48,420.45L271.94,297.36L272.12,424.28L272.26,306.89L272.28,297.36L272.48,419.26L272.88,336.07L272.89,315.25L272.96,290.67L273.52,451.38L273.53,465.4L273.72,348.64L273.8,422.97L273.82,432.53L273.83,438.76L274.33,292.58L274.35,294.11L275.2,434.38L275.21,433.8L275.23,424.76L275.36,314.95L275.93,473.03L275.94,470.61L276.33,337.38L276.84,366.38L276.85,395.2L276.91,453.05L277.48,332.68L277.62,432.55L277.64,416.71L277.77,321.19L278.32,479.89L278.37,453.95L278.38,443.49L278.62,461.28L279.12,325.1L279.24,351.72L279.25,379.72L279.48,329.6L280.03,484.4L280.05,485.02L280.56,356.68L280.72,496.3L280.82,455.91L280.83,457.55L280.9,370.76L280.98,441.67L280.99,455.88L281.02,465.7L281.18,318.63L281.57,329.16L281.59,329.37L282.22,319.03L282.39,439.68L282.42,428.98L282.43,411.22L282.54,328.27L283.11,477.33L283.16,450.35L283.17,441.7L283.41,459.6L283.57,330.75L283.74,443.26L283.76,446.58L283.83,363.62L283.84,345.5L283.91,330.31L284.1,447.63L284.43,443.95L284.44,447.88L284.51,364.44L284.53,347.56L284.78,442.77L284.94,323.16L285.24,382.99L285.25,389.54L285.34,338.29L285.5,476.29L285.51,485.63L285.67,424.23L285.68,372.53L285.7,371.76L285.72,390.27L285.74,405.95L285.81,473.16L286.37,340.48L286.51,453.83L286.52,444.48L286.84,457.77L287.05,336.98L287.34,344.59L287.35,345.61L287.39,339.37L287.91,500.33L288.23,469.91L288.25,447.46L288.76,340.75L288.89,463.66L289.03,359.13L289.05,352.08L289.1,337.49L289.16,371.94L289.18,401.34L289.23,462.27L289.45,336.15L289.95,460.7L289.96,461.9L290.13,339.89L290.3,495.75L290.77,351.86L290.79,350.84L291.16,332.43L291.33,482.34L291.66,457.44L291.67,435.98L291.84,328.54L292.36,458.36L292.43,396.02L292.44,400.5L292.5,406.12L292.51,387.35L292.53,335.99L292.7,492.87L293.37,454.31L293.38,435.63L293.9,338.84L294.02,464.58L294.18,357.13L294.19,357.05L294.22,357.91L294.24,336.63L295.09,502.46L295.11,500.05L295.12,483.94L295.95,327.77L296.01,364.93L296.02,391.74L296.08,455.89L296.29,327.55L296.78,453.85L296.79,444.52L296.98,341.95L297.49,503.94L297.5,503.64L297.52,489.86L298.34,334.64L298.36,348.63L298.37,357.05L298.47,459.3L298.69,333.93L298.76,400.88L298.77,431.03L299.03,335.25L299.51,466.37L299.54,461.43L299.56,450.74L299.71,339.91L299.9,504.55L300.34,362.61L300.36,362.97L300.53,465L300.74,332.29L300.81,402.92L300.83,430.66L301.08,333.3L301.55,475.84L301.58,469.28L301.6,458.96L301.77,346.61L302.28,502.61L302.34,466.03L302.35,459.6L302.39,463.59L302.42,452.9L302.44,418.77L302.58,485.59L302.79,339L303.19,379.11L303.21,412.87L303.61,471.97L303.82,336.98L303.96,465.53L303.98,456.43L304.16,339.91L304.69,502.39L304.72,476.88L304.73,466.81L304.98,487.91L305.19,337.87L305.29,453.03L305.3,462.33L305.32,466.96L305.52,347.65L305.53,336.83L305.66,463.3L305.87,334.49L306.2,353.41L306.22,337.72L307.09,500.89L307.1,487.37L307.93,328.48L307.94,342.05L307.96,350.88L307.97,350.61L307.98,368.73L308,397.91L308.06,461.34L308.27,329.42L308.75,457.3L308.77,446.26L309.3,339.63L309.48,501.01L309.5,489.62L310.32,337.67L310.34,348.86L310.35,356.93L310.37,355.82L310.38,374.56L310.39,405.26L310.45,463.78L310.66,329.64L311.16,445.27L311.18,425.42L311.35,332.43L311.88,499.47L311.89,487.04L311.91,472.9L312.16,487.35L312.38,341.42L312.75,359.63L312.76,359.3L313.06,340.71L313.19,470.69L313.56,457.94L313.57,438.15L313.75,344.44L314.24,499.56L314.26,505.73L314.27,507.68L314.42,430.03L314.43,375.63L314.56,491.68L314.77,347.6L315.14,367.59L315.16,368.42L315.24,467.52L315.8,335.99L315.94,461.09L315.96,453L316.14,335.72L316.67,499.68L316.68,485.66L316.7,472L316.95,483.44L317.51,336.76L317.55,351.53L317.57,367.09L318.19,331.84L318.32,454.83L318.34,453.83L318.35,445.02L318.88,335.2L318.99,472.29L319.01,479.05L319.06,490.9L319.22,364.79L319.41,413.45L319.42,380.43L319.56,328.4L320.03,466.18L320.18,359.99L320.19,354.81L320.25,333.92L320.3,373.31L320.32,401.9L320.59,333.62L321.07,469.1L321.09,467.37L321.1,466.84L321.27,343.72L321.46,504.77L321.72,474.15L321.73,482.11L321.74,486L321.96,336.18L322.17,369.85L322.19,358.42L322.3,327.58L322.43,463.29L322.63,357.75L322.64,329.47L322.77,460.43L322.99,328.41L323.19,378.01L323.2,362.58L323.33,334.19L323.83,489.25L323.84,496.38L323.86,496.92L323.87,484.16L323.88,470.13L324.14,478.26L324.35,335.18L324.75,360.72L324.77,391.11L324.82,456.42L325.38,325.4L325.52,448.46L325.54,438.61L325.72,329.82L326.25,496.3L326.27,482.36L326.54,483.31L327.09,321.47L327.12,333.89L327.14,335.09L327.43,328.82L327.91,458.97L327.93,447.45L327.95,428.87L328.12,333.49L328.65,498.71L328.68,470.08L328.69,458.72L328.93,484.36L329.49,332.91L329.54,361.8L329.56,393.44L329.62,458.27L330.17,326.28L330.31,449.38L330.33,438.11L330.51,326.41L331.03,489.71L331.04,486.24L331.06,472.37L331.54,329.76L331.9,333.11L331.91,340.4L331.95,395.34L331.97,425.16L332.57,337.4L332.7,459.3L332.72,446.93L332.74,431.43L332.92,336.23L333.42,500.98L333.48,455.97L333.49,450.51L333.54,456.09L333.57,447.32L333.58,427.18L333.72,475.89L334.28,330.04L334.34,360.33L334.35,390.13L334.62,333.33L335.09,455.87L335.11,454.89L335.12,444.79L335.32,343.77L335.83,494.3L335.85,481.65L336.63,329.61L336.7,338.6L336.72,337.82L337.15,448.33L337.32,322.62L337.52,438.04L337.53,424.82L337.64,317.17L338.21,486.4L338.27,444.21L338.29,438.88L338.31,441.97L338.37,417.52L338.39,362.85L338.51,459.42L338.69,318.62L338.81,404.28L338.83,424.52L339.41,321.23L339.54,444.97L339.57,435.13L339.58,419.81L339.76,324.29L340.27,450.86L340.34,379.98L340.35,385.21L340.45,329.94L340.51,396.7L340.53,418.41L340.61,477.73L341.08,320.67L341.28,431.85L341.3,417.5L341.35,329.75L341.94,454.08L342.05,344.64L342.07,358.95L342.16,330.18L342.66,458.79L342.78,399.22L342.79,401.11L342.81,402.4L342.82,389.66L342.84,341.19L342.85,340.6L342.88,376.05L342.89,394.2L343.01,491.99L343.52,326.51L343.66,444.29L343.68,438.07L343.88,322.49L344.33,443.54L344.49,323.93L344.5,323.96L344.55,322.8L344.69,437.81L344.83,329.63L344.85,330.46L345.4,494.26L345.74,448.55L345.76,415.68L346.04,461.39L346.27,338.36L346.51,359.78L346.53,351.83L346.74,456.39L346.96,331.89L347.26,351.41L347.27,367.74L347.3,337.9L347.8,502.11L348.01,384.52L348.03,398.18L348.1,466.65L348.27,318.35L348.78,439.75L348.8,439.74L348.95,324.37L349.12,444.54L349.42,407.89L349.44,430.51L349.62,328.09L350.21,492.66L350.22,481.83L350.24,468.28L350.66,313.94L351.09,336.14L351.11,338.91L351.19,431.18L351.69,304.35L351.88,426.12L351.89,418.17L352.03,313.64L352.57,456.12L352.59,468.46L352.6,471.67L352.97,357.08L352.99,343.94L353.24,442.37L353.4,328.86L353.52,374.03L353.53,403.38L354.09,324.78L354.27,443.47L354.29,436.04L354.3,423.33L354.43,333.9L354.98,487.22L355.03,461.12L355.04,451.06L355.28,460.18L355.46,327.85L355.9,351.09L355.91,377.98L356.15,334.56L356.31,450.21L356.68,438.98L356.7,424.3L356.82,325.07L357.39,479.14L357.42,454.1L357.44,443.43L357.68,447.74L358.19,295.45L358.31,342.66L358.32,376.11L358.54,307.42L359.09,456.09L359.12,436.81L359.13,419.96L359.29,349.77L359.75,463.18L359.76,465.97L359.79,478.31L360.23,323.57L360.25,318.84L360.42,436.19L360.5,336.1L360.52,320.52L360.59,301.66L360.77,428.45L361.09,414.23L361.1,420.88L361.12,421.77L361.14,406.99L361.16,383.69L361.27,295.3L361.83,439.04L361.9,379.83L361.91,384.54L362.03,345.75L362.16,466.62L362.17,476.7L362.19,477.74L362.23,444.16L362.24,438.11L362.29,442.72L362.34,416.53L362.36,387.72L362.47,460.16L362.98,315.93L363.1,363.93L363.11,398.21L363.17,439.74L363.67,305.66L363.87,419.42L363.88,412.4L364.01,301.79L364.55,463.22L364.57,475.04L364.58,475.52L364.62,441.96L364.64,436.11L364.77,368.29L364.87,454.2L364.92,409.44L364.94,375.93L365.22,419.68L365.72,282.71L365.74,287.67L366.05,284.72L366.25,423.49L366.49,336.46L366.51,336.88L366.98,469.3L367.31,421.96L367.32,395.39L367.43,291.5L367.96,422.48L368.08,326.09L368.09,319.62L368.12,307.2L368.65,431.79L368.82,325.4L368.83,340.89L368.87,338.52L369.37,469.47L369.67,444.28L369.69,435.28L369.83,309.72L370.37,427.53L370.39,421.4L370.51,313.52L370.7,433.43L371.17,336.42L371.18,331.39L371.2,331.14L371.21,337.3L371.23,349.37L371.28,343.73L371.77,469.74L372.04,451.49L372.05,457.82L372.07,459.97L372.14,390.6L372.15,378.55L372.31,357.29L372.44,459.43L372.68,421.66L372.7,433.76L372.8,491.53L373.34,335.77L373.35,336.12L373.59,334.13L374.16,459.34L374.19,441.49L374.21,432.45L374.72,348.34L374.83,446.89L374.99,413.08L375.01,415.64L375.19,480.23L375.75,330.96L375.76,344.3L375.78,368.7L375.99,324.47L376.56,459.44L376.57,453.03L376.59,443.56L377.36,293.56L377.46,312.86L377.47,330.1L377.54,405.99L378.04,283.35L378.24,393.31L378.26,388.97L378.37,282.53L378.96,448.74L378.97,442.73L378.98,435.35L379.75,283.47L379.87,330.32L379.88,363.32L380.1,283.01L380.62,405.68L380.65,390.59L380.67,373.92L380.78,285.17L381.35,456.6L381.39,427.39L381.41,421.79L381.44,422.17L381.48,416.48L381.49,411.65L381.65,423L382.15,271.78L382.28,345.51L382.29,367.59L382.33,390.84L382.83,261.23L382.93,293.44L382.95,303.31L383.18,266.2L383.73,437.46L383.75,447.43L384.55,262.46L384.65,290.82L384.66,304.15L384.73,383.24L384.89,257.86L385.43,376.81L385.44,368.2L385.57,264.06L385.8,394.76L386.07,393.35L386.09,402.08L386.14,435.37L386.6,255.89L386.67,300.6L386.68,287.37L386.78,374.7L386.96,262.8L387.1,362.34L387.11,368.73L387.13,372.87L387.28,248.92L387.53,307.69L387.54,282.01L387.63,248.59L388.2,378.95L388.25,335.76L388.27,340.43L388.31,344.08L388.32,347.85L388.54,428.27L388.91,292.67L388.92,275.34L389.18,374.04L389.34,251.11L389.45,301.48L389.46,330.59L389.68,257.84L390.21,390.62L390.23,366.68L390.25,354.51L390.36,279.83L390.92,458.83L390.96,434.52L390.98,428.6L391.22,438.72L391.72,295.72L391.83,332.36L391.85,360.41L391.92,417.62L392.42,293.11L392.6,410.5L392.62,402.2L392.74,282.29L393.27,430.94L393.29,436.42L393.31,454.32L393.73,295.79L393.74,308.91L393.76,294.65L393.96,407.24L394.46,274.56L394.48,281.5L394.5,312.9L394.8,277.8L395.37,426.99L395.38,415.99L395.55,328.91L395.71,465.43L396.15,382.06L396.17,377.77L396.24,345.62L396.4,442.21L396.57,366.18L396.58,339.19L396.71,430.91L397.14,309.74L397.17,321.46L397.18,308.01L397.19,297.98L397.76,429.34L397.85,377.1L397.86,379.54L397.91,384.93L397.94,351.66L397.95,325.2L398.11,472.9L398.56,289.7L398.76,413.14L398.78,405.53L398.9,287.86L399.43,414.59L399.59,291.91L399.6,291.25L399.93,278.93L400.16,413.73L400.32,366.19L400.33,331.6L400.5,448.49L400.96,275.18L401.07,310.44L401.09,337.12L401.3,279.56L401.84,406.35L401.86,399.19L401.87,388.49L401.98,281.81L402.56,417.96L402.61,358.76L402.63,361.2L402.74,317.19L402.91,465.73L403.33,334.87L403.34,325.33L403.54,433.83L404.04,307.8L404.08,332.97L404.1,319.53L404.22,424.68L404.72,294.12L404.82,321.36L404.84,335.45L405.14,315.58L405.29,459.66L405.62,426.5L405.64,407.25L405.93,421.7L406.09,290.62L406.43,292.07L406.45,292.93L406.98,421.08L407.16,329.81L407.18,317.75L407.19,312.73L407.66,451.1L407.67,454.61L407.69,466.64L408.13,301.67L408.15,291.59L408.34,418.14L408.49,289.25L408.74,337.34L408.76,314.77L408.83,294L409.37,422.18L409.51,297.62L409.53,299.31L410.08,461.72L410.4,445.02L410.41,434.21L410.73,441.85L411.23,321.87L411.24,323.25L411.28,318.5L411.81,475.06L411.95,426.3L411.97,371.29L412.14,472.32L412.31,343.59L412.39,430.19L412.41,446.46L412.48,480.82L413.01,346.49L413.15,439.88L413.16,421.79L413.68,313.37L413.81,433.84L413.96,325.38L413.98,325.31L414.02,318.54L414.53,448.03L414.69,386.47L414.7,333.12L414.88,488.81L415.26,366.38L415.28,352.7L415.39,329.14L415.46,400.56L415.47,428.82L415.73,324.97L416.24,477.67L416.26,476.31L416.27,461.8L416.54,474.46L416.76,331.28L417.13,363.82L417.14,379.91L417.27,490.2L417.78,318.7L417.81,337.66L417.83,335.97L417.91,445.45L418.47,314.61L418.63,430.14L418.64,411.33L418.81,314.64L419.3,449.81L419.38,396.15L419.4,396.91L419.5,336.64L419.67,492.62L420.07,357.03L420.08,353L420.31,457.02L420.52,323.42L420.81,340.75L420.82,340.03L420.85,338.37L420.87,319.13L420.99,452.34L421.21,315.84L421.71,450.08L421.72,449.75L421.89,325.66L422.08,487.05L422.55,340.51L422.56,341.16L422.7,451.31L423.26,315.8L423.3,340.84L423.32,357.79L423.6,317.4L424.09,448.36L424.1,447.96L424.12,445.98L424.29,331.99L424.47,488.08L424.94,341.97L424.96,338.39L424.97,320.72L425.44,458.47L425.7,346.94L425.71,365.29L426,321.24L426.48,468.04L426.51,464.85L426.53,452.3L426.68,336.29L426.85,499.64L427.32,351.47L427.34,352.01L427.5,461.7L427.71,324.06L427.82,455.62L427.84,460.8L428.05,320.81L428.14,423.27L428.15,443.17L428.18,458.7L428.39,316.53L428.69,332.92L428.71,339.72L428.74,319.16L429.18,455.17L429.19,466.47L429.26,489.29L429.63,358.75L429.65,345.48L429.76,321.19L429.85,414.68L429.86,433.29L430.11,323.53L430.23,452.02L430.42,344.5L430.43,343.11L430.92,457.01L431.13,324.03L431.16,355.18L431.17,352.67L431.47,328.04L431.66,494.93L431.97,466.45L431.99,442.65L432.16,328.35L432.63,459.9L432.77,352.41L432.79,346.84L432.81,348.5L432.83,346.33L432.84,326.04L433.31,477.87L433.71,464.15L433.73,440.06L433.87,337.49L434.06,502.8L434.51,387.42L434.53,407.7L434.68,470.46L435.24,327.33L435.25,337.79L435.27,350.29L435.37,461.54L435.45,362.86L435.47,34.45L436.22,463.65L436.25,400.01L436.27,355.44L436.45,495.98L436.94,352.37L436.95,331.98L437.08,463.73L437.63,323.78L437.66,346.93L437.68,346.54L437.98,321.36L438.46,461.9L438.48,460.85L438.49,459.5L438.85,494.82L439.35,329.36L439.36,337.18L439.37,346.6L439.82,462.77L440.03,345.55L440.04,360.51L440.06,354.69L440.16,462.7L440.37,329.53L440.67,352.21L440.69,358.28L440.71,334.12L440.77,372.9L440.79,397.95L441.07,352.49L441.24,505.77L441.56,471.68L441.57,447.22L441.87,464L442.08,330.21L442.35,358.54L442.37,352.1L442.43,327.83L442.48,365.85L442.5,398.31L442.77,328.67L443.25,463.03L443.27,461.93L443.28,459.39L443.45,342.34L443.64,504.3L443.89,475.02L443.91,482.49L443.92,485.99L444.14,334.49L444.34,382.65L444.35,366.26L444.61,463.85L444.82,327.63L444.94,454.69L444.95,458.11L445.02,375.23L445.04,360.11L445.16,325.25L445.65,465.8L445.73,404.47L445.75,405.48L445.85,345.28L446.03,499.93L446.4,375.04L446.42,362.42L446.45,374.61L446.52,360.95L446.53,337.34L446.66,468.92L446.86,363.39L446.87,335.59L447,470.56L447.2,361.36L447.22,332.25L447.35,468.77L447.89,361.95L447.9,335.84L448.43,500.39L448.57,429.39L448.59,368L448.71,481.07L448.93,331.68L449.16,349.53L449.17,349.91L449.27,334.54L449.74,464.6L449.91,347.02L449.93,350.08L449.96,332.49L450.81,501.01L450.82,500.22L450.84,485.07L451.11,485.23L451.67,323.54L451.68,329.66L451.69,339.47L451.71,338.59L451.72,358.64L451.74,390.49L452.01,328.66L452.48,462.83L452.49,461.31L452.51,451.26L452.69,338.97L453.21,501.86L453.23,486.17L453.25,473.2L453.51,485.51L454.06,331.04L454.1,345.67L454.12,365.75L454.19,460.66L454.75,327.02L454.89,453.46L454.9,443.03L455.09,328.15L455.56,477.54L455.57,480.87L455.6,491.73L455.76,422.7L455.77,365.22L455.79,365.48L455.8,376.74L455.9,471.97L456.12,323.92L456.37,346.99L456.39,339.12L456.46,322.26L456.93,457.26L457.11,343.61L457.13,351.23L457.14,329.26L457.66,461.7L457.86,363.43L457.87,383.42L458,497.5L458.51,332.47L458.65,454.42L458.67,443.54L458.98,449.34L459.2,323.22L459.47,345.99L459.48,336.3L459.54,330.66L459.59,360.84L459.61,389.9L459.88,341.16L460.39,502.9L460.41,497.82L461.21,326.18L461.26,327.22L461.28,336.38L461.38,449.89L461.55,318.13L461.86,325.87L461.88,315.15L461.89,314.16L461.99,351.44L462,378.17L462.22,320.75L462.79,492.55L462.8,485.71L462.82,471.19L463.6,321.39L463.67,335.2L463.69,334.71L464.12,446.56L464.27,321.02L464.49,437L464.5,422.72L464.61,325.25L465.18,484.89L465.24,444.04L465.26,437.82L465.48,471.85L465.58,346.95L465.6,344.01L465.83,456.79L466.33,324.44L466.34,324.3L466.51,448.62L466.68,323.52L466.95,325.44L466.97,325.72L467.01,320.3L467.58,491.75L467.75,368.18L467.77,367.07L467.88,463.76L468.38,311.6L468.45,323.38L468.46,330.87L468.48,328.94L468.51,372.76L468.52,401.52L468.72,309.94L469.25,451.4L469.29,433.95L469.31,402.84L469.41,343.89L469.98,508.46L470.03,467.7L470.05,464.44L470.28,485.17L470.39,354.84L470.42,358.05L470.43,349.85L470.45,349.53L470.46,351.41L470.47,366.69L470.62,460.25L471.13,322.62L471.23,351.02L471.25,381.59L471.3,446.7L471.8,301.59L472.02,441.33L472.03,443.96L472.37,484.02L472.83,299.08L472.84,301.02L472.86,311.41L473.38,424.26L473.51,291.46L473.61,322.21L473.63,332.74L474.2,283.68L474.42,435.84L474.44,416.1L474.78,466.94L475.22,326.08L475.24,322.94L475.75,444.87L475.84,354.13L475.85,340.5L476.09,445.22L476.26,319.68L476.38,364.71L476.39,392.15L476.61,312.47L477.18,480.34L477.19,469.59L477.21,458.47L477.46,466.25L477.98,315.24L478.08,344.41L478.09,368.55L478.16,440.2L478.66,300.23L478.85,425.74L478.86,417.2L479,303.25L479.5,441.05L479.52,449.04L479.57,473.14L479.94,339.23L479.96,322.21L480.03,300.63L480.21,423.74L480.5,388.93L480.51,408.21L480.56,426.58L480.71,302.57L481.11,340.73L481.13,333.85L481.4,304.87L481.61,433.29L481.8,355.49L481.81,341.91L481.97,471.34L482.42,310.44L482.48,356.15L482.5,335.66L482.61,433.84L482.77,306.72L483.01,357.92L483.02,335.02L483.45,306.42L483.62,432.8L483.64,433.85L483.74,328.94L484.01,473.81L484.29,471.26L484.31,478.82L484.35,495.16L484.75,342.95L484.76,337.11L485.01,447.68L485.16,318.36L485.48,326.3L485.49,314.65L485.5,312.53L485.66,429.6L485.68,435.76L485.69,437.35L485.82,345.71L485.83,336.47L485.85,334.94L485.89,372.39L485.96,368.05L485.98,392.87L486.19,308.04L486.76,468.78L486.77,458.64L487.56,302.51L487.67,359.84L487.69,386.84L487.9,301.47L488.43,429.9L488.44,422.42L488.46,412.39L488.58,312.76L489.16,475.79L489.18,453.25L489.2,442.4L489.44,448.6L489.95,296.25L490.07,348.19L490.08,378.54L490.3,297.5L490.82,428.01L490.85,411.35L490.87,389.2L490.98,317.81L491.54,474.89L491.59,440.07L491.61,434.82L491.64,435.6L491.71,415.12L491.72,394.66L491.85,441.34L492.35,293.87L492.48,376.63L492.49,397.51L492.88,419.87L493.03,298.3L493.25,405.58L493.26,382.03L493.38,298.71L493.95,467.7L493.96,457.99L494.75,318.26L494.85,344.1L494.86,364.94L494.93,438.15L495.43,305.3L495.62,424.55L495.63,419.41L495.77,318.82L495.99,433.66L496.24,396.49L496.26,413.3L496.34,462.26L496.8,340.45L497.01,431L497.03,416.38L497.14,360.62L497.71,498.84L497.75,470.75L497.77,465.51L497.81,478L498.15,371.7L498.17,370.07L498.6,351.98L498.74,466.9L498.89,416.33L498.91,399.42L499.04,436.22L499.19,335.99L499.66,380.61L499.68,401.44L499.95,365.05L500.11,477.92L500.45,443.7L500.46,418.88L500.66,356.53L501.13,464.92L501.19,436.38L501.2,435.21L501.29,420.04L501.3,403.97L501.43,439.72L501.93,294.17L502.06,358L502.07,379.92L502.12,405.12L502.62,281.22L502.83,389.62L502.84,373.08L502.94,277.43L503.53,437.38L503.54,429.48L503.56,419.6L504.33,252.31L504.44,303.26L504.46,327.63L504.67,260.55L504.86,382.74L505.23,370.32L505.24,353.03L505.34,259.94L505.92,427.21L505.97,403.93L505.98,398.74L506.08,387.89L506.1,373.62L506.22,393.18L506.37,257.16L506.85,333.42L506.87,352.25L507.07,257.61L507.59,398.81L507.62,382.42L507.64,366.56L507.75,282.36L508.32,452.79L508.36,425.13L508.38,420.51L508.78,274.19L508.92,372.19L508.93,385.78L508.96,395.33L509.12,268.86L509.42,294.18L509.43,279.97L509.46,266.96L509.65,393.34L509.97,390.14L509.99,390.93L510.15,275.97L510.64,406.43L510.66,414.71L510.72,448.95L511.17,283.98L511.37,393.48L511.39,379.11L511.51,269.67L512.04,408.45L512.17,313.99L512.19,303.19L512.2,299.56L512.38,414.16L512.67,376.89L512.68,397.97L512.96,340.93L513.11,461.4L513.43,422.18L513.44,400.14L513.75,408.59L514.25,273.61L514.27,275.53L514.44,394.91L514.59,259.75L515.02,318.92L515.04,316.49L515.51,448.61L515.86,413.6L515.88,399.12L516.19,430.86L516.65,315.31L516.68,329.77L516.69,352.16L516.83,414.41L516.96,303.26L516.98,294.58L516.99,293.23L517.12,364.81L517.13,385.84L517.33,295.69L517.89,456.36L517.93,429.02L517.95,421.74L518.19,426.63L518.69,281L518.82,348.72L518.83,370.39L518.89,407.83L519.37,275.08L519.59,399.18L519.6,392.29L519.71,277.18L520.28,467.53L520.33,439.45L520.34,432.07L520.6,437.75L521.08,281.36L521.21,340.73L521.23,369.26L521.28,411.2L521.77,277.07L521.98,400.27L522,391.1L522.11,283.76L522.68,461.77L522.72,437.02L522.74,428.2L522.98,436.25L523.48,298.19L523.59,334.97L523.61,353.64L523.66,417.66L523.82,289.16L524.36,413.2L524.38,405.95L524.51,285.61L525.05,439.98L525.06,444.68L525.08,458.58L525.53,283.19L525.62,321.01L525.63,317.89L525.87,293.51L526.07,419.7L526.3,324.11L526.32,319.88L526.9,297.5L527.13,429.2L527.14,416.82L527.47,471.99L527.94,321.34L527.96,326.35L527.97,348.14L528.11,439.05L528.61,303.19L528.73,341.27L528.74,366.26L528.8,428.36L528.95,295.95L529.51,427.75L529.53,432.43L529.87,464.47L530.34,307.47L530.35,312.03L530.37,337.15L530.52,425.52L530.67,293.56L531.11,325.46L531.12,337.96L531.35,317.75L531.59,474.23L531.93,457.03L531.95,434.27L532.26,470.12L532.72,309.37L532.75,317.64L532.76,337.53L533.06,321.93L533.25,437.68L533.5,338.54L533.52,353.71L533.59,439.3L534.09,317.37L534.3,437.54L534.32,441.88L534.66,477.28L535.11,315.21L535.14,322.3L535.16,342.44L535.3,434.48L535.81,305.26L535.9,330.94L535.91,344.27L536.48,307.25L536.71,440.76L536.73,427.57L536.88,332.2L537.05,471.91L537.51,335.64L537.52,337.5L537.57,335.15L537.74,451.04L538.1,387.67L538.11,351.26L538.19,319.93L538.72,442.85L538.87,327.38L538.88,319.03L539.46,489.34L539.61,427.47L539.62,375.12L539.75,471.81L539.91,334.32L540.16,366.9L540.18,349.82L540.25,322.95L540.78,450.93L540.93,345.06L540.95,346.47L541.5,490.42L541.66,409.01L541.67,362.15L541.85,499.49L542.26,347.84L542.27,358.56L542.29,348.35L542.36,332.33L542.83,452.04L543.04,337.54L543.06,350.77L543.39,341.05L543.87,466.06L543.9,465.67L543.91,453.98L544.24,498.79L544.75,335.64L544.77,345.91L545.1,330.88L545.57,462.11L545.6,447.26L545.61,427.47L545.78,338.71L546.27,464.44L546.35,411.89L546.37,411.54L546.47,351.2L546.65,499.91L547.01,382.77L547.02,368.56L547.28,460.66L547.49,338.14L547.61,454.5L547.62,457.96L547.69,375.34L547.71,360.94L547.96,457.67L548.18,332.07L548.46,341.66L548.48,344.6L548.52,337.46L549.05,495.32L549.36,462.44L549.37,439.65L549.67,454.49L549.89,331.64L550.17,335.11L550.19,336.21L550.23,328.93L550.37,452.8L550.77,373.22L550.79,360.53L550.91,339.38L551.4,487.43L551.41,489.31L551.44,497.43L551.81,369.24L551.83,357.1L552.07,460.31L552.28,338.08L552.36,404.23L552.37,428.99L552.63,340.66L553.11,481.48L553.14,464.95L553.15,444.92L553.65,351.38L553.84,502.97L553.87,479.82L553.88,469.3L554.12,484.69L554.68,336.85L554.74,370.01L554.75,399.64L554.81,458.36L555.36,331.08L555.51,456.51L555.52,445.49L555.71,336.16L556.23,497.92L556.25,485.68L556.26,472.21L556.52,477.46L557.08,343.04L557.12,362.86L557.13,380.41L557.2,468.06L557.76,334.41L557.9,462.64L557.92,453.12L558.1,349.85L558.63,510.04L558.64,498.99L558.66,487.56L558.91,495.9L559.47,346.34L559.5,371.32L559.51,370.28L560.16,350.72L560.28,478.66L560.31,467.72L560.33,447.45L560.5,353.25L561.02,515.4L561.05,492.09L561.07,480.36L561.31,497.21L561.87,351.13L561.92,388.3L561.94,418.98L561.99,475.51L562.55,346L562.69,467.1L562.71,456.83L562.89,346.12L563.42,509.76L563.43,498.06L563.45,486.63L563.71,497.04L564.26,349.54L564.3,368.18L564.32,382.54L564.6,344.08L565.07,472.86L565.09,472.06L565.1,463.44L565.29,350.85L565.75,484.66L565.76,491.45L565.82,505.85L565.97,384.45L566.17,396.44L566.19,377.03L566.44,464.7L566.66,341.96L566.96,349.23L566.97,351.28L567,340.33L567.47,465.32L567.56,372.31L567.57,362.89L567.68,348.87L568.21,510.15L568.35,439.67L568.37,387.08L568.5,490.2L568.71,348.82L568.98,363.33L569,357.63L569.05,347.53L569.11,380.26L569.12,406.93L569.52,470.56L569.74,346.42L569.89,456.99L569.91,440.86L570.08,345.54L570.61,507.87L570.64,481.96L570.65,470.54L570.89,494.09L571.45,344.21L571.51,376.03L571.52,407.72L571.79,340.73L571.92,467.76L572.28,463L572.29,452.92L572.48,346.51L573,506.32L573.02,493.14L573.84,340.33L573.87,356.52L573.89,354.7L573.97,462.84L574.19,338.85L574.67,457.14L574.69,444.67L574.81,337.57L575.4,495.51L575.41,480.84L575.43,467.74L575.68,479.93L575.86,342.13L576.28,356.19L576.3,371.23L576.88,341.57L577.05,463.64L577.07,462.84L577.08,451L577.21,346.37L577.74,481.58L577.75,485.59L577.79,496.71L577.92,449.84L577.94,431.17L578.08,475.76L578.59,336.41L578.69,366.97L578.71,396.61L578.94,335.46L579.45,456.6L579.46,455.85L579.48,445.52L579.61,347.31L580.18,497.09L580.2,481.98L580.22,469.06L580.48,475.63L580.97,340.74L581.07,353.33L581.09,367.41L581.33,335.02L581.84,456.63L581.86,454.48L581.87,444.45L582,347.3L582.51,477.87L582.53,484.2L582.57,501.77L582.76,378.98L582.94,384.58L582.96,363.54L583.37,326.48L583.56,452.5L583.71,339.11L583.73,339.42L583.9,455.99L584.07,337.27L584.38,348.08L584.4,339.91L584.97,497.31L585.12,443.77L585.14,392.68L585.22,460.31L585.24,476.28L585.31,501.31L585.78,348.97L585.85,361.61L585.87,361.52L585.95,457.69L586.51,335.62L586.66,440.29L586.68,424.57L586.79,337.78L587.36,498.92L587.41,471.73L587.42,461.04L587.66,479.23L588.16,339.77L588.28,363.23L588.29,392.58L588.35,454.86L588.85,309.78L589.05,434.26L589.06,429.07L589.19,304.92L589.7,449.24L589.72,457.18L589.76,483.94L590.2,320.97L590.21,310.21L590.24,320.21L590.26,344.45L590.4,437.1L590.91,296.52L591.01,335.5L591.03,359.97L591.24,285.62L591.8,433.72L591.81,440.37L592.15,480.38L592.61,327.28L592.65,355.36L592.67,344.87L592.8,442.75L592.95,324.66L593.11,428.51L593.12,440.32L593.14,445.27L593.3,322.6L593.54,395.38L593.55,360.89L593.98,306.16L594.19,440.53L594.21,446.21L594.55,482.63L595.01,328.9L595.03,336.5L595.05,356.63L595.53,442.97L595.7,312.82L595.8,344.98L595.82,373.3L596.05,306.86L596.59,441.61L596.6,447.89L596.79,344.91L596.95,479.7L597.27,477.59L597.29,486.9L598.09,300.62L598.2,335.26L598.21,362.72L598.77,286.09L599,432.45L599.01,416.01L599.36,474.12L599.81,323.23L599.83,325.59L599.84,345.17L599.98,431.46L600.5,288.86L600.58,331.74L600.6,327.75L600.84,297.47L601.39,437.23L601.41,434.85L601.42,415.71L601.75,482.17L602.21,324.78L602.24,344.32L602.25,364.92L602.39,435.26L602.55,313.86L602.99,349.76L603.01,369.27L603.23,316.08L603.76,437.79L603.78,437.4L603.79,442.15L603.99,355.95L604.15,476.08L604.42,459.48L604.43,465.25L604.49,478.34L604.65,423.6L604.66,390.21L604.79,453.22L605.29,306.58L605.4,364.04L605.42,391.75L605.63,312.82L606.19,443.97L606.2,436.7L606.54,483.41L607,316.56L607.01,319.18L607.03,338.24L607.18,428.44L607.68,293.35L607.77,335.59L607.78,331.96L608.03,290.62L608.58,428.24L608.6,421.6L608.61,401.46L608.94,464.6L609.39,312.83L609.41,317.91L609.58,431.57L610.08,298.05L610.16,333.92L610.18,332.47L610.42,289.66L610.98,440.49L610.99,434.22L611.33,483.55L611.79,318.82L611.82,338.3L611.83,359.61L611.98,434.73L612.13,318.18L612.26,393.62L612.27,411.84L612.32,429.15L612.8,307.41L612.82,303.55L613.37,435.25L613.56,362.77L613.57,348.91L613.73,470.46L614.17,324.86L614.19,322.62L614.37,436L614.53,315.01L614.8,322.79L614.81,318.1L614.87,307.37L615.4,428.66L615.55,314.03L615.57,322.93L616.13,466.44L616.38,430.35L616.4,439.97L616.42,447.55L616.92,321.51L616.99,347.27L617.01,345.18L617.05,388.52L617.07,408.47L617.11,427.97L617.27,297.18L617.81,410.44L617.82,404.85L617.95,296.93L618.49,443.15L618.51,458.1L618.52,462.46L618.91,314.83L618.92,309.73L619.16,409.64L619.32,286.71L619.65,301.43L619.66,298.98L619.85,411.66L620,294L620.25,354.79L620.26,329.13L620.33,303.32L620.92,456.32L620.94,433.81L620.96,424.03L621.22,437.74L621.71,322.82L621.83,349L621.84,372L622.06,325.26L622.63,470.91L622.66,456.16L622.67,449.97L623.16,363.56L623.31,465.03L623.54,383.29L623.55,401.93L623.61,437.59L623.77,344.29L624.32,427.13L624.34,420.35L624.55,352.33L625.02,473.54L625.07,451.93L625.08,446.56L625.22,389.64L625.37,463.63L625.52,415.02L625.54,396.03L625.71,470.79L626.16,334.52L626.29,389.44L626.31,409.39L626.35,433.62L626.85,317.86L627.06,409.95L627.08,395.84L627.19,308.47L627.76,422.79L627.83,380.46L627.85,384.7L627.95,347.83L628.05,430.97L628.06,436.8L628.1,457.53L628.47,333.82L628.49,319.73L628.74,404.29L628.9,298.16L629.03,362.36L629.04,382.88L629.24,292.61L629.77,408.83L629.8,393.14L629.81,379.11L629.93,307.01L630.48,457.34L630.5,466.58L631.3,318.86L631.41,361.33L631.43,385.28L631.83,430.71L631.98,318.33L632.18,423.08L632.2,412.26L632.32,321.1L632.89,469.11L632.91,460.93L633.69,290.39L633.79,324.62L633.81,340.77L634.04,300.04L634.56,414.9L634.58,408.51L634.59,396.72L634.72,298.4L635.23,432.2L635.25,436.95L635.29,459.57L635.66,327.55L635.68,313.23L635.93,407.23L636.09,288.6L636.2,337.21L636.22,361.68L636.43,281.75L636.96,404.27L636.97,399.39L636.99,386.28L637.1,286.66L637.67,443.91L637.69,457.29L638.58,337.25L638.6,346.54L638.61,364.67L638.67,406.18L639.17,275.07L639.37,394.89L639.38,382.46L639.51,285.91L639.74,411.95L640,390.69L640.01,404.83L640.08,447.79L640.52,274.51L640.74,394.49L640.75,377.69L641.07,402.73L641.22,266.78L641.38,384.84L641.39,393.31L641.41,395.63L641.46,332.2L641.48,307.45L641.56,270.11L642.13,404.88L642.19,359.21L642.21,360.07L642.32,333.81L642.38,394.18L642.39,407.55L642.46,451.52L642.91,297.54L642.92,286.86L642.95,296.98L642.96,328.36L643.46,406.32L643.6,278.29L643.62,280.69L643.8,399.86L643.95,270.96L644.37,314.26L644.39,308.9L644.86,447.86L645.2,402.25L645.22,375.58L645.31,298.17L645.86,424.12L645.97,329.46L645.99,314.95L646.2,422.76L646.68,296.51L646.71,310.77L646.73,337.63L646.76,323.23L647.25,466.65L647.45,356.79L647.47,361.31L647.55,432.89L648.05,279.32L648.14,316.88L648.15,310.03L648.41,283.47L648.59,408.39L648.79,329.07L648.81,315.77L649.08,298.79L649.31,429.51L649.48,351.15L649.49,333.48L649.65,469.65L650.11,300.99L650.16,343.51L650.18,327.54L650.29,427.52L650.45,292.53L650.73,309.4L650.75,309.3L650.98,420.65L651.13,286.14L651.46,290.39L651.48,280.68L652.05,460.39L652.39,406.73L652.4,377.76L652.7,407.49L652.84,281.61L653.19,283.86L653.2,288.03L653.77,457.36L654.11,446.1L654.13,424.77L654.44,472.79L654.9,292.95L654.93,301.07L654.94,330.1L655.44,416.21L655.58,286.33L655.68,315.34L655.7,328.15L655.92,282.8L656.49,430.73L656.51,420.01L656.84,461.18L657.29,286.18L657.31,286.84L657.32,295.95L657.49,411.96L657.64,276.99L658.06,318.59L658.08,309.14L658.32,272.89L658.89,420.21L658.9,409.86L658.92,386.85L659.25,453.34L659.69,291.41L659.72,303.23L659.73,329.66L659.87,417.2L660.03,290.43L660.17,381.59L660.19,400.52L660.23,418.3L660.72,283.49L660.93,405.81L660.94,397.12L661.06,282.76L661.61,441.97L661.63,455.94L661.64,456.1L661.66,444.16L662.43,275.74L662.54,315.95L662.56,341.29L662.77,276.75L663,428.9L663.34,422.33L663.35,404.05L663.45,327.87L664.04,466.01L664.07,444.72L664.08,437.48L664.48,292.96L664.94,342.82L664.95,370.23L665.11,325.97L665.69,451.96L665.72,441.51L665.74,424.42L665.91,345.22L666.43,505.21L666.46,480.62L666.48,471.71L666.72,483.82L667.28,338.76L667.33,368.59L667.35,400.3L667.4,458.11L667.96,331.68L668.1,446.07L668.12,436.17L668.24,331.86L668.82,484.36L668.84,469.92L668.86,458.01L669.11,466.93L669.61,329.57L669.71,341.21L669.73,356.55L670.01,324.91L670.48,443.83L670.5,443.38L670.51,435.33L670.7,338.2L671.17,476.16L671.18,480.14L671.23,492.38L671.37,414.99L671.38,372.39L671.51,470.18L671.67,336.7L672,344.76L672.01,337.18L672.07,330.16L672.19,447.55L672.29,343.85L672.31,343.82L672.54,450.99L672.75,331.32L673.05,335.85L673.06,343.36L673.08,343.56L673.09,332.19L673.61,484.71L673.93,449.32L673.95,427.72L674.12,335.22L674.59,458.57L674.72,366.18L674.73,357.55L674.8,343.27L674.98,470.41L675.22,419.27L675.23,439.76L675.49,348.62L676.02,494.06L676.03,483.54L676.04,470.62L676.3,472.24L676.86,326.97L676.91,358.83L676.93,389.36L676.99,451.07L677.54,326.8L677.68,441.7L677.7,430.81L677.88,333.86L678.41,482.52L678.43,471.61L678.91,329.86L679.28,343.97L679.3,342.26L679.6,327.51L680.07,455.92L680.09,445.8L680.11,426.06L680.28,339.55L680.81,503.33L680.82,490.58L680.84,476.7L681.09,490.15L681.31,342.54L681.68,353.44L681.69,353.72L681.78,465.08L682.33,334.05L682.49,452.1L682.5,432.22L682.68,338.88L683.17,490.85L683.19,497.67L683.2,499.75L683.35,416.09L683.36,369.14L683.49,481.76L684.04,335.08L684.17,460.35L684.19,459.21L684.39,334.12L684.86,464.93L684.97,367.48L684.99,379.66L685.07,346.03L685.58,501.64L685.6,503.85L686.44,340.05L686.47,358.75L686.48,360.08L686.57,465.29L686.78,338.32L687.15,357.99L687.17,359.65L687.47,342.01L687.99,499.14L688.01,487.05L688.84,338.41L688.85,349.07L688.86,358.17L688.88,358.34L688.89,371.31L688.96,462.37L689.52,338.69L689.68,448.19L689.69,431.8L689.86,339.52L690.36,492.11L690.38,497.47L690.39,500.22L690.55,378.34L690.73,424.62L690.75,392.96L691.02,458.35L691.23,330.34L691.52,339.72L691.53,340.03L691.57,332.35L691.7,454.88L692.12,377.62L692.13,360.7L692.26,334.05L692.77,495.19L692.79,498.71L693.63,338.13L693.64,345.94L693.66,355.37L693.7,403.79L693.71,430.05L693.76,463.17L693.97,335.97L694.47,453.11L694.48,438.04L694.65,340.25L695.17,497.43L695.18,499.9L696.02,337.16L696.08,366.93L696.09,398.13L696.37,332.66L696.84,457.34L696.86,446.51L696.88,430.67L697.05,337.98L697.58,498.3L697.61,473.93L697.62,463.72L697.86,482.74L698.42,338.24L698.48,363.78L698.49,396.7L698.76,336.37L699.23,458.62L699.25,457.74L699.26,447.72L699.79,342.69L699.97,490.53L700,464.91L700.02,454.79L700.26,471.12L700.76,334.78L700.87,355.5L700.89,384.81L701.16,337.52L701.63,455.8L701.66,445.63L701.67,428.95L701.84,344.34L702.37,497.03L702.4,466.36L702.41,453.76L702.65,472.76L703.21,333.05L703.27,358.83L703.28,389.65L703.35,449.69L703.5,322.59L704.05,431.25L704.07,415.96L704.18,328.52L704.76,485.22L704.79,459.8L704.81,447.8L705.05,475.03L705.28,344.34L705.65,353.3L705.66,370.25L705.73,462.57L706.3,339.94L706.45,445.56L706.46,430.96L706.58,338.98L707.13,483.62L707.15,495.6L708,327.23L708.06,356.38L708.07,384.49L708.34,338.3L708.81,450.52L708.84,439.59L708.86,425.54L708.97,337.32L709.54,495.48L709.58,466.7L709.6,457.1L709.84,476.25L710.4,343.91L710.45,364.41L710.47,389.35L710.57,468.4L711.1,343.07L711.24,441.91L711.25,431.05L711.37,345.26L711.92,479.42L711.94,491.6L712.75,316.24L712.86,369.9L712.88,397.91L713.08,320.05L713.61,441.23L713.63,431.87L713.65,420.92L713.76,331.89L714.33,482.7L714.39,439.49L714.4,431.63L714.46,435.72L714.49,415.58L714.5,376.67L714.52,375.14L714.57,416.76L714.59,434.22L714.63,459.38L714.79,325.8L715.33,448.94L715.35,441.47L715.66,448.13L716.16,329.1L716.17,331.45L716.19,343.11L716.23,336.35L716.73,491.81L717.01,469.31L717.03,472.08L717.53,336.42L717.66,389.65L717.67,417.27L717.71,449.67L718.21,326.61L718.43,437.41L718.44,426.75L718.55,334.6L719.12,494.5L719.17,464.53L719.18,456.99L719.42,470.28L719.65,346.01L719.72,420.75L719.74,440.35L719.77,453.88L719.99,336.83L720.48,444.66L720.49,431.95L721.02,341.71L721.18,465.67L721.25,398.12L721.26,401.83L721.32,406.63L721.33,399.83L721.35,356.88L721.52,495.22L721.98,339.88L722.09,359.34L722.1,388.43L722.32,330.64L722.55,473.98L722.87,449.22L722.89,435.6L723.02,320.48L723.57,449.94L723.64,380.66L723.66,383.29L723.76,338.88L723.89,454.69L723.9,457.02L723.93,476.48L724.37,300.39L724.39,298.09L724.57,415.37L724.73,288.53L725.04,296.69L725.06,283.53L725.07,280.82L725.26,401.75L725.53,347.82L725.54,370.27L725.75,310.38L726.33,478.41L726.35,458.45L726.37,448.13L726.61,448.37L726.78,307.99L727.22,344.99L727.24,364.83L727.47,305.93L727.99,427.18L728.01,420.81L728.02,414.02L728.15,336.11L728.66,468.57L728.68,474.2L728.72,489.7L728.91,385.85L729.06,417.92L729.08,387.99L729.52,317.09L729.73,454.09L729.8,413.63L729.82,413.04L729.88,414.46L729.9,404.33L729.92,372.76L730.05,439.38L730.2,322.91L730.66,376.94L730.67,400.39L730.96,356.56L731.12,482.84L731.44,430.81L731.46,410.2L731.76,432.39L731.91,306.65L732.24,310.02L732.26,305.85L732.44,426.46L732.6,296.7L733,344.54L733.01,334.74L733.51,479.54L733.85,437.91L733.87,409.94L734.18,466.79L734.65,316.87L734.67,321.96L735,319.78L735.49,446.77L735.51,453.66L735.75,368.55L735.89,496.95L736.24,444.49L736.25,422.18L736.55,443.4L736.71,319.02L737.03,322.84L737.05,319.33L737.23,433.72L737.32,329.87L737.33,322.82L737.73,307.81L737.95,437.04L738.13,365.08L738.15,347.61L738.3,465.43L738.76,291.89L738.95,413.23L738.96,406.59L739.1,296L739.29,426.14L739.59,419.77L739.6,431.8L739.63,438.6L739.79,328.34L740.04,349.28L740.06,333.93L740.13,315.58L740.34,437.14L740.61,430.34L740.63,442.68L740.7,472.44L741.16,322.57L741.23,341.07L741.24,338.35L741.34,434.22L741.41,342.98L741.43,325.88L741.68,425.84L741.84,292.35L742.01,411.65L742.03,413.25L742.37,414.04L742.51,302.75L742.68,408.55L742.7,416.35L742.94,345.52L743.09,457.44L743.42,416.66L743.44,395.01L743.89,291.77L744.08,417.94L744.21,323.22L744.22,312.98L744.24,311.11L744.35,363.73L744.36,388.54L744.58,338.07L745.13,454.39L745.15,445.66L745.16,426.27L745.49,477.29L745.95,330.04L745.98,349.21L745.99,367.76L746,368.05L746.02,347.94L746.03,346.1L746.13,436.72L746.19,378.43L746.2,357.13L746.47,432.12L746.63,323.21L746.83,421.75L746.85,419.37L746.97,321.77L747.54,443.48L747.6,403.33L747.62,402.39L747.73,351.66L747.87,462.45L747.89,468.99L748.68,314.01L748.8,343.6L748.81,363.67L749.03,323.4L749.58,416.38L749.6,409.78L749.61,387.74L749.81,349.31L750.27,457.68L750.28,467.95L751.08,296.91L751.21,354.04L751.22,375.41L751.27,401.45L751.76,292.67L751.98,394.03L751.99,382.1L752.11,296.31L752.68,441.07L752.69,434.1L752.71,425.24L753.13,274.5L753.58,304.58L753.59,316.94L753.8,274.13L754.35,399.29L754.36,395.06L754.37,389.58L754.5,295.01L755.03,419.32L755.04,423.1L755.07,444.98L755.53,285.13L755.6,324.5L755.61,319.6L755.63,319.93L755.64,336.01L755.71,399.33L756.21,289.21L756.41,393.44L756.43,384.58L756.56,293.06L757.13,413.09L757.18,368.52L757.2,370.09L757.31,340.5L757.45,443.23L757.47,453.8L758.27,276.01L758.38,328.7L758.4,352.93L758.95,286.82L759.14,399.5L759.15,393.21L759.17,382.61L759.29,292.51L759.86,445.38L759.88,439.76L760.32,275.14L760.75,318.5L760.76,316.72L761.01,283.29L761.53,397.83L761.55,390.77L761.56,375.72L761.69,285.03L762.19,403.42L762.2,412.85L762.26,441.79L762.62,339.06L762.63,313.74L763.06,274.28L763.24,397.4L763.4,275.91L763.41,280.1L763.59,397.63L763.74,278.89L764.17,318.05L764.18,317.28L764.66,443.86L764.98,384.09L765,370.12L765.3,396.06L765.78,266.83L765.8,265.34L765.98,387.1L766.14,258.67L766.55,306.11L766.57,305.28L766.58,304.26L766.64,369.02L766.65,377.19L766.89,312.13L767.04,431.94L767.21,359.14L767.22,329.19L767.24,327.38L767.31,379.81L767.32,389.14L767.35,396.97L767.49,247.96L767.75,306.39L767.76,284.65L768.04,382.65L768.18,254.45L768.36,381.3L768.38,383.56L768.52,250.19L769.02,373.12L769.03,384L769.28,328.14L769.43,444.3L769.79,417.69L769.8,393.67L770.12,427.78L770.57,293.02L770.66,312.08L770.67,307.45L770.92,270.28L771.12,393L771.2,283.19L771.22,282.8L771.26,269.62L771.83,438.28L772.03,340.14L772.04,343.84L772.13,410.37L772.28,273.12L772.54,317.23L772.56,295.68L772.83,390.98L773.31,259.76L773.33,261.48L773.34,271.14L773.65,264.49L773.88,404.44L774.11,344.15L774.12,358.66L774.22,434.98L774.68,280.99L774.89,391.46L774.91,382.57L775.21,403.38L775.36,275.89L775.69,285.34L775.71,276.68L775.91,396.62L775.96,320.06L775.98,300.86L776.05,283.49L776.59,447.05L776.61,450.85L776.62,462.43L777.08,314.15L777.3,408.31L777.32,381.72L777.62,423.05L777.76,298.93L778.09,306.09L778.1,296.04L778.22,331.58L778.23,356.11L778.44,289.22L779.02,453.94L779.04,438.98L779.06,429.16L779.47,298.24L779.91,323.39L779.93,338.12L780.16,306.53L780.68,428.09L780.71,421.28L780.73,411.82L780.84,317.4L781.41,476.73L781.45,449.1L781.47,441.75L781.71,451.79L782.21,302.52L782.32,338.48L782.34,363.49L782.39,421.44L782.89,297.88L783.09,417.65L783.11,409.36L783.24,299.8L783.79,446.76L783.81,458.91L783.99,351.69L784.09,427.48L784.11,432.16L784.16,379.63L784.18,343.07L784.46,413.91L784.61,291.18L784.93,312.07L784.95,303.75L785.53,470.06L785.69,379.04L785.7,375.25L786.03,345.08L786.2,472.56L786.36,415.4L786.37,364.94L786.46,423.2L786.47,435.56L786.5,447.19L786.66,314.3L786.93,336.45L786.94,323.9L787,316.04L787.11,347.81L787.13,375.89L787.69,317.17L787.9,442.5L787.91,448.56L788.08,340.7L788.17,413.56L788.18,427.82L788.43,339.4L788.6,476.21L788.93,447.51L788.94,428.87L789.24,442.97L789.4,319.39L789.72,328.67L789.74,320.54L789.8,318.86L789.9,415.99L789.91,427.55L790.14,322.07L790.28,439.79L790.47,357.24L790.48,338.04L791.34,500.52L791.36,483.19L791.38,469.37L791.64,474.15L792.19,329.25L792.23,346.51L792.25,361.07L792.32,447.59L792.53,325.56L793.02,444.58L793.03,443.54L793.05,444.04L793.06,433.48L793.08,412.42L793.22,333.14L793.4,480.77L793.87,339.4L793.89,345.4L794.03,446.87L794.59,322.46L794.63,340.12L794.64,354.18L794.93,327.23L795.41,451.53L795.44,450.29L795.46,439.31L795.78,482.74L796.24,332.12L796.26,332.74L796.43,440.7L796.64,317.19L796.91,338.69L796.93,331.28L796.94,331.11L796.95,334.16L796.97,333.45L796.98,319.15L797.81,448.87L797.84,446.33L797.85,436.58L798.19,481.76L798.69,323.08L798.71,333.79L798.82,450.38L799.04,318.56L799.36,340.19L799.38,321.85L799.51,448.54L800.23,446.03L800.25,435.7L800.4,336.63L800.59,483.7L801.03,346.46L801.05,346.61L801.09,331.44L801.22,458.36L801.36,351.66L801.37,344.47L801.43,331.77L801.49,369.54L801.5,398.86L801.56,455.3L801.77,329.37L802.27,439.11L802.29,419.82L802.46,332.64L802.99,490.78L803.01,467.05L803.03,455.02L803.27,466.56L803.83,322.19L803.88,354.24L803.9,383.11L803.96,445.61L804.51,315.91L804.65,437.95L804.67,427.62L804.85,323.24L805.38,492.93L805.4,481.6L806.22,324.67L806.25,342.19L806.27,343.23L806.57,325.8L807.04,462.46L807.06,457.24L807.08,446.88L807.25,336.27L807.78,490.15L807.83,445.48L807.85,445.37L808.06,471.78L808.22,345.15L808.26,345.51L808.28,330.13L808.62,326.46L809.09,457.01L809.12,443.98L809.13,422.83L809.3,327.01L809.79,460.68L809.87,407.57L809.89,405.69L809.99,341.86L810.17,495.39L810.54,375.66L810.56,362.83L810.8,461.82L811.01,330.54L811.1,430.19L811.11,447.27L811.14,460.4L811.36,327.58L811.64,348.88L811.66,348.7L811.7,327.15L811.83,457.03L812.01,356.48L812.03,351.82L812.04,330.8L812.57,496.98L812.75,397.91L812.77,407.22L812.85,481.33L813.41,341.05L813.55,467.41L813.57,457.21L813.88,464.06L814.09,333.43L814.35,369.59L814.37,361.01L814.44,336.58L814.92,490.16L814.94,491.99L814.96,500.15L815.41,359.98L815.42,359.58L815.45,361.97L815.46,338.91L815.51,358.1L815.52,374.31L815.59,460.33L816.15,332.53L816.29,456.79L816.3,447.37L816.49,331L816.97,461.23L817,458.99L817.02,451.81L817.17,346.29L817.36,495.08L817.8,353.06L817.82,352.93L817.86,335.27L817.93,402.82L817.94,429.62L818.33,465.26L818.54,333.07L818.7,449.23L818.71,433.46L818.89,332.61L819.37,461.62L819.46,409.26L819.47,407.62L819.57,346.37L819.76,496.26L820.13,380.09L820.14,368.1L820.17,375.04L820.25,335.48L820.31,372.33L820.33,400.96L820.38,458.45L820.94,328.94L821.08,456.17L821.1,447.02L821.28,329.55L821.77,460.39L821.87,406.56L821.88,411.27L821.97,345.72L822.15,494.74L822.29,426.26L822.31,372.22L822.44,479.17L822.99,338.38L823.02,350.87L823.04,354.98L823.12,461.7L823.33,334.02L823.82,455.08L823.83,445L824.02,340.21L824.5,484.33L824.52,486.23L824.55,495.08L825.05,341.22L825.07,349.48L825.09,353.22L825.17,459.26L825.73,325.92L825.87,447.83L825.89,437.18L826.07,330.02L826.56,451.99L826.66,396.65L826.67,399.92L826.71,403.24L826.74,391.08L826.76,345.91L826.93,486.55L827.37,351.99L827.38,343.94L827.44,337L827.54,437.29L827.56,448.4L827.78,337.85L827.91,452.87L828.04,359.07L828.05,350.96L828.25,451.27L828.47,328.48L828.57,433.74L828.58,443.64L828.6,447.13L828.71,339.66L828.74,343.04L828.75,334.65L828.81,331.07L828.87,363.06L828.88,386.28L829.15,339.42L829.32,485.38L829.65,456.33L829.67,435.97L830.19,335.95L830.31,460.42L830.45,357.76L830.46,350.36L830.51,359.88L830.52,336.17L830.56,350.22L830.58,365.37L830.65,457.32L830.86,335.48L831.35,455.7L831.36,454.83L831.38,457.34L831.53,393.62L831.55,347.18L831.72,492.61L831.88,426.19L831.89,374.29L832.02,470.63L832.23,336.38L832.25,334.99L832.36,450.83L832.87,320.56L832.92,324.8L832.93,327.18L833.39,445.17L833.54,337.91L833.56,338.35L833.62,336.12L834.12,489.99L834.44,452.92L834.46,437.61L834.76,447.91L834.93,331.85L835.24,339.89L835.26,330.01L835.27,328.86L835.38,381.87L835.4,408.52L836.01,344.77L836.17,462.16L836.18,448.18L836.51,484.24L836.98,316.28L837.04,326.4L837.05,331.78L837.08,347.19L837.1,373.37L837.17,435.32L837.32,309.93L837.85,430.89L837.87,423.99L838.01,303.2L838.56,439.11L838.62,383.36L838.64,383.48L838.75,339.64L838.91,481.3L839.29,347.37L839.31,333.17L839.55,436.71L839.71,313.45L839.83,373.73L839.85,399.69L839.89,434.48L840.39,304.68L840.6,422.51L840.62,413.02L840.73,309.92L841.3,476.68L841.34,449.57L841.36,440.84L841.6,453.43L842.12,316.22L842.21,348.1L842.23,370.89L842.46,310.22L842.98,434.52L843,428.78L843.01,416.24L843.13,326.61L843.68,476.37L843.7,488.68L844.57,330.69L844.6,341.15L844.61,360.26L845.02,448.85L845.2,317.29L845.38,433.76L845.39,429.97L845.52,301.77L846.02,439.62L846.04,451.52L846.09,479.19L846.54,317.98L846.55,306.68L846.75,426.52L846.89,292.44L847.15,340L847.16,320L847.23,285.84L847.46,443.06L847.76,428.34L847.78,429.57L847.92,314.98L848.15,440.35L848.3,382.81L848.32,347.2L848.5,470.43L848.96,318.7L849.06,342.33L849.07,359.62L849.15,427.15L849.64,295.57L849.84,407L849.86,396.93L849.99,294.25L850.54,419.42L850.61,371.51L850.63,376.02L850.74,340.59L850.9,459.02L851.24,399.25L851.26,371.87L851.54,434.76L852.04,309.82L852.05,311.99L852.23,424.54L852.72,304.67L852.91,424.45L852.92,422.37L852.94,424.25L853.01,371.47L853.11,372.39L853.12,343.93L853.29,460.51L853.75,313.86L853.85,338.09L853.87,359.52L854.09,313.37L854.65,457.3L854.66,458.71L855.12,340.78L855.55,361.96L855.56,376.23L855.69,466.38L856.15,324.55L856.23,343.29L856.25,349.79L856.49,327.43L856.67,437.63L857.03,426.69L857.05,413.13L857.52,308.33L857.73,430.18L857.8,381.62L857.82,384.82L857.93,353.53L858.07,478.62L858.44,376.39L858.46,350.42L858.88,307.41L859.1,447.91L859.18,392.76L859.2,387.47L859.41,424.21L859.57,286.42L860.01,341.31L860.03,356.74L860.32,344.78L860.48,463.97L860.81,434.85L860.82,420.05L861.12,434.33L861.28,309.2L861.62,315.45L861.64,316.96L862.15,429.8L862.31,308.48L862.39,339.14L862.41,340.48L862.88,463.38L863.19,422.96L863.21,410.32L863.68,295.48L863.85,419.91L864,305.13L864.02,301.55L864.55,424.05L864.62,345.79L864.63,332.06L864.7,322.29L864.83,386.6L864.85,405.34L865.12,344.05L865.27,468.45L865.6,414.35L865.62,393.04L866.07,288.98L866.26,412.62L866.4,296.07L866.41,291.75L866.6,410.35L866.74,298.7L866.76,294.68L867.31,421.53L867.5,356.18L867.51,335.16L867.67,453.31L868.05,310.01L868.07,307.16L868.11,293.03L868.65,415.76L868.8,302L868.81,296.87L868.99,408.4L869.12,299.25L869.14,288.33L869.34,403.97L869.49,284.54L869.64,376.42L869.65,390.21L869.91,327.4L870.06,440.97L870.39,405.62L870.41,385.5L870.71,406.96L870.86,289.24L871.18,308.94L871.19,299.83L871.21,296.41L871.36,395.7L871.38,403.25L871.55,310.8L871.73,411.21L871.85,335.88L871.86,331.71L871.89,326.25L872.1,424.09L872.36,390.53L872.37,407.86L872.65,358.12L872.8,471.46L873.14,427.64L873.16,401.14L873.44,418.56L873.94,322.34L873.96,325.63L874.51,433.81L874.78,426.99L874.8,435.21L875.04,350.42L875.2,474.78L875.53,428.16L875.54,418.8L876,316L876.32,320.92L876.34,318.16L876.52,413.79L876.6,347.65L876.61,332.95L876.68,311.3L876.91,415.76L877.15,392.78L877.17,410.08L877.25,458.13L877.71,321.25L877.91,412.52L877.92,403.71L878.24,412.07L878.73,292.84L878.75,298.51L878.76,319.07L879.06,297.38L879.59,422.84L879.6,427.29L879.65,446.74L879.8,397.05L879.82,383.23L879.93,418.75L880.45,281.22L880.57,351.36L880.59,372.13L880.63,394.82L881.13,263.93L881.33,372L881.34,366.5L881.46,268.28L881.7,395.87L881.97,394.79L881.99,403.79L882.04,433.69L882.5,264.73L882.57,310.31L882.58,302.36L882.68,379.92L882.84,256.65L883,366.29L883.01,375.1L883.03,378.67L883.15,271.58L883.17,258.63L883.18,256.4L883.37,378.42L883.57,331.58L883.58,337.65L883.85,281.96L884.1,399.36L884.31,348.59L884.32,362.04L884.44,441.49L884.89,276.58L885.09,387.31L885.11,374.78L885.42,406.3L885.92,288.9L885.94,291.69L886.26,290.57L886.49,403.67L886.73,387.52L886.75,403.48L886.83,449.13L887.29,304.89L887.49,402.98L887.5,385.44L887.82,404.56L887.97,287.85L888.13,389.57L888.15,396.81L888.16,398.83L888.3,276.6L888.32,272.94L888.64,271.68L889.23,442.44L889.27,418.5L889.29,413.47L889.32,414.14L889.39,399.47L889.4,380.77L889.53,420.28L890.1,338.86L890.14,360.3L890.16,380.19L890.56,415.31L890.71,300L890.91,398.62L890.93,382.28L891.05,293.23L891.6,438.52L891.61,449.85L892.41,283.62L892.54,338.55L892.55,365.47L892.75,274.24L893.29,400.37L893.32,385.72L893.34,359.25L893.44,288.42L894.01,454.37L894.06,417.42L894.08,411.03L894.15,407.63L894.16,398.98L894.31,421.6L894.81,282.04L894.93,346.28L894.95,372.16L895,408.19L895.49,268.57L895.7,385.59L895.72,378.02L895.83,263.73L896.4,439.4L896.45,415.72L896.46,407.74L897.2,258.85L897.33,324.47L897.34,348.6L897.54,264.42L898.08,400.38L898.11,383.04L898.13,358.21L898.23,281.33L898.8,444.61L898.85,409.25L898.87,402.57L899.11,409.81L899.17,324.07L899.18,300.72L899.45,392.58L899.94,253.86L899.97,265.12L899.98,296.59L900.01,288.86L900.05,301.1L900.07,323.73L900.62,261.58L900.85,405.75L900.87,393.73L901.19,443.58L901.65,265.63L901.66,268L901.68,276.92L901.99,263.72L902.19,394.31L902.43,316.73L902.45,326.21L902.88,406.57L903.02,272.37L903.23,404.38L903.25,411.13L903.59,449.47L904.05,298.07L904.07,307.41L904.09,328.81L904.23,414.04L904.73,288.02L904.84,324.62L904.86,347.95L905.07,301L905.31,452.52L905.64,446.93L905.66,435.59L905.98,459.35L906.44,297.41L906.47,304.96L906.48,327.33L906.64,409.59L906.78,287.57L907.23,318.24L907.24,329.74L907.47,293.45L908.02,420.23L908.04,424.93L908.38,457.93L908.84,296.75L908.87,305.3L908.88,328.51L909.04,419.35L909.18,295.43L909.62,317.95L909.64,331.66L910.21,296.41L910.42,418.69L910.43,421.9L910.61,327.64L910.79,464.93L911.26,337.66L911.28,347.95L911.76,445.61L911.97,324.36L912.02,341.17L912.03,355.85L912.6,316.69L912.83,458.54L912.84,455.02L912.86,439.05L913.17,477.4L913.69,322.96L913.7,327.83L913.81,430.56L914.33,299.91L914.36,321.48L914.37,305.57L915,295.03L915.23,426.65L915.24,417.42L915.4,320.54L915.58,462.97L916.02,338.79L916.04,339.61L916.25,458.33L916.71,310.51L916.72,311.2L916.89,426.34L917.05,305.52L917.31,351.84L917.32,333.64L917.39,303.13L917.91,440.3L917.92,447.74L917.98,465.55L918.42,321.05L918.43,320.68L918.95,440.4L919.02,365.1L919.03,350.1L919.29,438.02L919.5,318.13L919.63,435.45L919.65,434.97L919.79,320.62L920.33,461.38L920.34,464.65L920.37,473.49L920.77,335.76L920.79,348.03L920.8,338.33L921,434.44L921.21,319.33L921.31,421.75L921.33,430.71L921.34,435.3L921.56,315.05L921.84,324.9L921.86,325.13L921.9,315.58L922.03,436.29L922.23,331.38L922.24,317.7L922.77,482.74L923.1,440.12L923.11,418.92L923.4,462.2L923.61,329.36L923.9,357.39L923.91,356.47L923.95,333.67L924.02,404.63L924.04,429.47L924.29,335.82L924.81,476.65L924.82,471.13L925.16,506.45L925.66,356.57L925.68,365.72L926.35,355.23L926.52,493.87L926.53,493.24L926.55,478.32L926.83,484.63L927.03,350.7L927.33,417.54L927.35,414L927.56,491.71L928.06,342.23L928.1,359.78L928.12,377.49L928.19,462.45L928.74,332.14L928.89,451.75L928.9,440.05L929.09,329.31L929.57,453.58L929.67,395.72L929.68,399.57L929.73,401.07L929.74,398.35L929.76,371.62L929.96,487.81L930.45,327.95L930.51,358.76L930.53,387.02L930.58,445.35L930.8,319.04L931.28,441.78L931.3,430.74L931.48,326.22L931.97,451.81L932.07,390.39L932.08,394.83L932.17,331.3L932.35,486.57L932.69,410.74L932.71,383.28L933.19,328.51L933.32,456.56L933.48,348.46L933.49,348.49L933.53,328.81L933.59,368.08L933.61,396.25L933.66,454L933.88,325.7L934.38,450.17L934.39,446.98L934.75,483.49L935.25,329.89L935.26,338.64L935.37,449.57L935.59,321.66L936.09,435.2L936.1,416.68L936.27,323.93L936.76,452.21L936.84,393.65L936.86,391.25L936.96,333.41L937.14,487.09L937.56,416.76L937.57,373.9L937.77,450.61L937.98,320.43L938.34,333.09L938.35,342.23L938.45,447.46L938.53,372.86L938.54,358.2L938.67,321.81L939.15,450.39L939.25,395.1L939.27,398.7L939.35,331.39L939.54,486.59L939.68,412.54L939.7,366.66L939.82,469.45L940.38,336.05L940.52,457.23L940.54,447.33L940.72,328.24L940.85,457.38L941.34,357.16L941.35,351.72L941.41,329.43L941.45,356.25L941.46,370.41L941.75,335.55L941.93,489.12L942.25,457.33L942.26,439.38L942.56,450.95L942.78,327.12L943.07,340.73L943.09,343.77L943.25,446.67L943.46,321.98L943.74,333.69L943.76,335.07L943.8,323.45L944.33,485.36L944.66,435.6L944.67,412.55L945.17,326.36L945.3,449.4L945.46,344.35L945.47,343.61L945.51,324.21L945.64,449.48L945.78,350.29L945.8,343.8L945.86,324.55L945.91,361.91L945.93,388.33L946.2,328.14L946.71,479L946.73,481.76L947.57,328.17L947.58,334.07L947.6,342.88L947.69,448.53L947.91,328.22L948.09,396.03L948.11,370.93L948.25,328.92L948.74,449.51L948.84,390.92L948.85,394.95L948.94,332.98L949.02,435.81L949.04,452.35L949.12,482.93L949.62,332.49L949.76,447.83L949.78,435.71L950.09,447.49L950.3,323.78L950.56,355.77L950.58,345.93L950.65,323.1L951.16,451.25L951.26,401.3L951.27,403.04L951.29,404.08L951.32,389.1L951.33,339.75L951.52,488.94L951.87,384.12L951.89,367.13L952.14,450.47L952.36,326.29L952.64,344.57L952.66,343.72L952.7,326.98L952.83,446.12L952.97,351.42L952.99,343.44L953.03,348.68L953.04,327.71L953.09,342.31L953.1,360.42L953.38,331.82L953.88,475.74L953.9,484.03L953.94,458.4L953.95,446.31L954.2,466.13L954.75,327.03L954.81,358.36L954.82,387L955.22,447.99L955.44,324.03L955.59,429.09L955.61,413.82L955.72,322.21L956.31,483.08L956.34,458.62L956.35,448.91L956.59,472.75L957.16,333.46L957.21,364.42L957.22,393.83L957.28,451.46L957.83,326.82L957.98,441.25L957.99,431.61L958.12,326.37L958.69,478.96L958.7,477.49L959.56,334.27L959.6,362.52L959.62,389.79L959.9,336.87L960.39,457.04L960.4,467.63L960.93,354.38L961.08,489.67L961.17,444.73L961.18,446.68L961.2,447.25L961.23,439.37L961.24,422.89L961.38,464.68L961.95,327.72L962,351.14L962.01,380.67L962.07,440.58L962.58,322.19L962.78,426.32L962.8,411.6L962.97,330.46L963.48,481.67L963.52,451.36L963.54,440.82L963.78,457.67L964.35,318.27L964.39,345.83L964.41,371.59L964.64,309.46L965.15,434.85L965.18,424.08L965.19,412.57L965.31,315.13L965.86,460.83L965.88,474.52L966.33,298.18L966.79,335.39L966.8,359.65L967.02,291.78L967.54,420.45L967.57,414.8L967.59,404.79L967.7,306.22L968.27,467.41L968.33,431.93L968.34,425.47L968.39,428.24L968.43,406.02L968.44,363.38L968.57,441L968.73,307.14L968.89,405.19L968.9,417.7L968.91,422.79L969.07,294.54L969.4,299.61L969.41,289.45L969.56,379.97L969.57,397.38L969.75,302.87L970.33,442.2L970.34,425.97L970.35,405.78L970.67,479.92L971.14,318.96L971.22,324.55L971.24,342.32L971.31,426.18L971.81,297.1L972.01,415.71L972.02,412.24L972.15,309.34L972.38,454.36L972.65,420.87L972.66,431.2L972.91,340.7L973.06,466.3L973.23,367.75L973.25,361.89L973.36,439.54L973.88,302.92L973.9,330.62L973.92,322.25L974.06,418.31L974.55,290.22L974.65,329.07L974.66,340.55L974.89,308.38L975.46,482.42L975.47,476.09L975.49,465.29L976.26,303.72L976.36,321.25L976.37,337.65L976.78,423.94L976.94,315.05L977.16,419.56L977.17,405.98L977.28,303.2L977.85,471.51L977.9,443.3L977.91,436.29L978.15,450.66L978.67,306.2L978.78,363.77L978.8,389.53L979,296.8L979.57,453.01L979.58,444.32L979.59,431.47L980.09,342.9L980.26,465.26L980.34,426.79L980.35,427.47L980.45,365.3L980.55,441.95L980.62,372.58L980.64,349.65L980.89,426.66L981.41,312.87L981.42,315.38L981.93,430.75L982.19,353.09L982.2,358.99L982.5,336.22L982.66,463.06L982.97,419.56L982.99,408.42L983.46,271.53L983.8,272.98L983.82,280.49L984.01,414.03L984.61,380.5L984.63,398.07L984.9,340.61L985.06,457.5L985.38,410.9L985.4,393L985.51,321.49L986.03,428.93L986.17,334.77L986.18,322.66L986.37,424.69L986.54,297.93L986.68,388.59L986.7,402.93L986.88,295.37L987.45,451.99L987.48,431.69L987.49,421.48L987.75,435.36L988.25,311.19L988.36,359.18L988.38,384.9L988.44,422.71L988.93,287.11L989.13,396.59L989.15,389.54L989.28,288.02L989.85,450.31L989.86,442.35L989.88,431.45L990.13,433.62L990.65,302.61L990.75,322.95L990.76,343.71L990.83,413.08L991.33,285.6L991.53,399.91L991.54,391.67L991.67,306.37L992.19,450.86L992.2,457.21L992.23,471.45L992.41,394.27L992.43,366.8L992.53,438.13L993.04,277.05L993.17,347.9L993.18,369.78L993.23,395.81L993.73,260.19L993.94,379.97L993.95,359.02L994.05,263.4L994.64,429.96L994.65,420.66L994.67,410.47L995.09,250.2L995.54,293.54L995.55,307.39L995.96,379.97L996.12,268.55L996.34,375.59L996.35,361.86L996.45,289.57L997.03,428.79L997.08,402.68L997.09,397.52L997.11,398.21L997.19,386.01L997.21,369.54L997.23,343.47L997.72,469.44L997.93,379.48L997.95,392.47L998.02,442.2L998.52,332.49L998.7,419.77L998.72,417.26L998.84,333.86L999.09,426.16L999.24,377.73L999.26,362.59L999.29,337.64L999.43,445.05L999.99,385.51L1000,405.13" style="vector-effect: non-scaling-stroke; fill: none; stroke: rgb(99, 110, 250); stroke-opacity: 1; stroke-width: 2px; opacity: 1;"/></g><g class="points"/><g class="text"/></g><g class="trace scatter traceb4b390" style="stroke-miterlimit: 2; opacity: 1;"><g class="fills"/><g class="errorbars"/><g class="lines"/><g class="points"><path class="point" transform="translate(0.1,529.55)" d="M5,0A5,5 0 1,1 0,-5A5,5 0 0,1 5,0Z" style="opacity: 1; stroke-width: 0px; fill: rgb(239, 85, 59); fill-opacity: 1;"/><path class="point" transform="translate(435.47,34.45)" d="M5,0A5,5 0 1,1 0,-5A5,5 0 0,1 5,0Z" style="opacity: 1; stroke-width: 0px; fill: rgb(239, 85, 59); fill-opacity: 1;"/><path class="point" transform="translate(435.48,125.59)" d="M5,0A5,5 0 1,1 0,-5A5,5 0 0,1 5,0Z" style="opacity: 1; stroke-width: 0px; fill: rgb(239, 85, 59); fill-opacity: 1;"/></g><g class="text"/></g></g></g><g class="overplot"/><path class="xlines-above crisp" d="M119,664.5H1120" style="fill: none; stroke-width: 1px; stroke: rgb(255, 255, 255); stroke-opacity: 1;"/><path class="ylines-above crisp" d="M119.5,100V664" style="fill: none; stroke-width: 1px; stroke: rgb(255, 255, 255); stroke-opacity: 1;"/><g class="overlines-above"/><g class="xaxislayer-above"><g class="xtick"><text text-anchor="middle" x="0" y="696.2" transform="translate(120,0)" style="font-family: 'Open Sans', verdana, arial, sans-serif; font-size: 26px; fill: rgb(42, 63, 95); fill-opacity: 1; white-space: pre;">2011</text></g><g class="xtick"><text text-anchor="middle" x="0" y="696.2" transform="translate(244.92000000000002,0)" style="font-family: 'Open Sans', verdana, arial, sans-serif; font-size: 26px; fill: rgb(42, 63, 95); fill-opacity: 1; white-space: pre;">2012</text></g><g class="xtick"><text text-anchor="middle" x="0" y="696.2" transform="translate(370.16999999999996,0)" style="font-family: 'Open Sans', verdana, arial, sans-serif; font-size: 26px; fill: rgb(42, 63, 95); fill-opacity: 1; white-space: pre;">2013</text></g><g class="xtick"><text text-anchor="middle" x="0" y="696.2" transform="translate(495.09,0)" style="font-family: 'Open Sans', verdana, arial, sans-serif; font-size: 26px; fill: rgb(42, 63, 95); fill-opacity: 1; white-space: pre;">2014</text></g><g class="xtick"><text text-anchor="middle" x="0" y="696.2" transform="translate(620.01,0)" style="font-family: 'Open Sans', verdana, arial, sans-serif; font-size: 26px; fill: rgb(42, 63, 95); fill-opacity: 1; white-space: pre;">2015</text></g><g class="xtick"><text text-anchor="middle" x="0" y="696.2" transform="translate(744.92,0)" style="font-family: 'Open Sans', verdana, arial, sans-serif; font-size: 26px; fill: rgb(42, 63, 95); fill-opacity: 1; white-space: pre;">2016</text></g><g class="xtick"><text text-anchor="middle" x="0" y="696.2" transform="translate(870.18,0)" style="font-family: 'Open Sans', verdana, arial, sans-serif; font-size: 26px; fill: rgb(42, 63, 95); fill-opacity: 1; white-space: pre;">2017</text></g><g class="xtick"><text text-anchor="middle" x="0" y="696.2" transform="translate(995.1,0)" style="font-family: 'Open Sans', verdana, arial, sans-serif; font-size: 26px; fill: rgb(42, 63, 95); fill-opacity: 1; white-space: pre;">2018</text></g><g class="xtick"><text text-anchor="middle" x="0" y="696.2" transform="translate(1120.01,0)" style="font-family: 'Open Sans', verdana, arial, sans-serif; font-size: 26px; fill: rgb(42, 63, 95); fill-opacity: 1; white-space: pre;">2019</text></g></g><g class="yaxislayer-above"><g class="ytick"><text text-anchor="end" x="113.8" y="9.1" transform="translate(0,607.44)" style="font-family: 'Open Sans', verdana, arial, sans-serif; font-size: 26px; fill: rgb(42, 63, 95); fill-opacity: 1; white-space: pre;">40k</text></g><g class="ytick"><text text-anchor="end" x="113.8" y="9.1" transform="translate(0,550.14)" style="font-family: 'Open Sans', verdana, arial, sans-serif; font-size: 26px; fill: rgb(42, 63, 95); fill-opacity: 1; white-space: pre;">50k</text></g><g class="ytick"><text text-anchor="end" x="113.8" y="9.1" transform="translate(0,492.84)" style="font-family: 'Open Sans', verdana, arial, sans-serif; font-size: 26px; fill: rgb(42, 63, 95); fill-opacity: 1; white-space: pre;">60k</text></g><g class="ytick"><text text-anchor="end" x="113.8" y="9.1" transform="translate(0,435.54)" style="font-family: 'Open Sans', verdana, arial, sans-serif; font-size: 26px; fill: rgb(42, 63, 95); fill-opacity: 1; white-space: pre;">70k</text></g><g class="ytick"><text text-anchor="end" x="113.8" y="9.1" transform="translate(0,378.24)" style="font-family: 'Open Sans', verdana, arial, sans-serif; font-size: 26px; fill: rgb(42, 63, 95); fill-opacity: 1; white-space: pre;">80k</text></g><g class="ytick"><text text-anchor="end" x="113.8" y="9.1" transform="translate(0,320.94)" style="font-family: 'Open Sans', verdana, arial, sans-serif; font-size: 26px; fill: rgb(42, 63, 95); fill-opacity: 1; white-space: pre;">90k</text></g><g class="ytick"><text text-anchor="end" x="113.8" y="9.1" transform="translate(0,263.63)" style="font-family: 'Open Sans', verdana, arial, sans-serif; font-size: 26px; fill: rgb(42, 63, 95); fill-opacity: 1; white-space: pre;">100k</text></g><g class="ytick"><text text-anchor="end" x="113.8" y="9.1" transform="translate(0,206.32999999999998)" style="font-family: 'Open Sans', verdana, arial, sans-serif; font-size: 26px; fill: rgb(42, 63, 95); fill-opacity: 1; white-space: pre;">110k</text></g><g class="ytick"><text text-anchor="end" x="113.8" y="9.1" transform="translate(0,149.03)" style="font-family: 'Open Sans', verdana, arial, sans-serif; font-size: 26px; fill: rgb(42, 63, 95); fill-opacity: 1; white-space: pre;">120k</text></g></g><g class="overaxes-above"/></g></g><g class="polarlayer"/><g class="ternarylayer"/><g class="geolayer"/><g class="funnelarealayer"/><g class="pielayer"/><g class="treemaplayer"/><g class="sunburstlayer"/><g class="glimages"/><defs id="topdefs-f69fa2"><g class="clips"/><clipPath id="legendf69fa2"><rect width="147" height="47" x="0" y="0"/></clipPath></defs><g class="layer-above"><g class="imagelayer"/><g class="shapelayer"/></g><g class="infolayer"><g class="legend" pointer-events="all" transform="translate(130, 105.64)"><rect class="bg" shape-rendering="crispEdges" width="147" height="47" x="0" y="0" style="stroke: rgb(68, 68, 68); stroke-opacity: 1; fill: rgb(255, 255, 255); fill-opacity: 1; stroke-width: 0px;"/><g class="scrollbox" transform="translate(0, 0)" clip-path="url('#legendf69fa2')"><g class="groups"><g class="traces" transform="translate(0, 23.400000000000002)" style="opacity: 1;"><text class="legendtext user-select-none" text-anchor="start" x="40" y="10.14" style="font-family: 'Open Sans', verdana, arial, sans-serif; font-size: 26px; fill: rgb(42, 63, 95); fill-opacity: 1; white-space: pre;">Outliers</text><g class="layers" style="opacity: 1;"><g class="legendfill"/><g class="legendlines"/><g class="legendsymbols"><g class="legendpoints"><path class="scatterpts" transform="translate(20,0)" d="M5,0A5,5 0 1,1 0,-5A5,5 0 0,1 5,0Z" style="opacity: 1; stroke-width: 0px; fill: rgb(239, 85, 59); fill-opacity: 1;"/></g></g></g><rect class="legendtoggle" pointer-events="all" x="0" y="-18.400000000000002" width="141.5625" height="36.800000000000004" style="cursor: pointer; fill: rgb(0, 0, 0); fill-opacity: 0;"/></g></g></g><rect class="scrollbar" rx="20" ry="3" width="0" height="0" x="0" y="0" style="fill: rgb(128, 139, 164); fill-opacity: 1;"/></g><g class="g-gtitle"><text class="gtitle" x="60" y="50" text-anchor="start" dy="0em" style="font-family: 'Open Sans', verdana, arial, sans-serif; font-size: 36px; fill: rgb(42, 63, 95); opacity: 1; font-weight: normal; white-space: pre;">All Regions Demand outliers</text></g><g class="g-xtitle"><text class="xtitle" x="620" y="737.903125" text-anchor="middle" style="font-family: 'Open Sans', verdana, arial, sans-serif; font-size: 31px; fill: rgb(42, 63, 95); opacity: 1; font-weight: normal; white-space: pre;">Date</text></g><g class="g-ytitle" transform="translate(18.8876953125,0)"><text class="ytitle" transform="rotate(-90,12.112499999999997,382)" x="12.112499999999997" y="382" text-anchor="middle" style="font-family: 'Open Sans', verdana, arial, sans-serif; font-size: 31px; fill: rgb(42, 63, 95); opacity: 1; font-weight: normal; white-space: pre;">Demand</text></g></g></svg>