<svg class="main-svg" xmlns="http://www.w3.org/2000/svg" xmlns:xlink="http://www.w3.org/1999/xlink" width="1200" height="750" style="" viewBox="0 0 1200 750"><rect x="0" y="0" width="1200" height="750" style="fill: rgb(255, 255, 255); fill-opacity: 1;"/><defs id="defs-ee00e8"><g class="clips"><clipPath id="clipee00e8xyplot" class="plotclip"><rect width="1017" height="564"/></clipPath><clipPath class="axesclip" id="clipee00e8x"><rect x="103" y="0" width="1017" height="750"/></clipPath><clipPath class="axesclip" id="clipee00e8y"><rect x="0" y="100" width="1200" height="564"/></clipPath><clipPath class="axesclip" id="clipee00e8xy"><rect x="103" y="100" width="1017" height="564"/></clipPath></g><g class="gradients"/></defs><g class="bglayer"><rect class="bg" x="103" y="100" width="1017" height="564" style="fill: rgb(229, 236, 246); fill-opacity: 1; stroke-width: 0;"/></g><g class="layer-below"><g class="imagelayer"/><g class="shapelayer"/></g><g class="cartesianlayer"><g class="subplot xy"><g class="layer-subplot"><g class="shapelayer"/><g class="imagelayer"/></g><g class="gridlayer"><g class="x"><path class="xgrid crisp" transform="translate(272.81,0)" d="M0,100v564" style="stroke: rgb(255, 255, 255); stroke-opacity: 1; stroke-width: 1px;"/><path class="xgrid crisp" transform="translate(442.16,0)" d="M0,100v564" style="stroke: rgb(255, 255, 255); stroke-opacity: 1; stroke-width: 1px;"/><path class="xgrid crisp" transform="translate(611.51,0)" d="M0,100v564" style="stroke: rgb(255, 255, 255); stroke-opacity: 1; stroke-width: 1px;"/><path class="xgrid crisp" transform="translate(780.86,0)" d="M0,100v564" style="stroke: rgb(255, 255, 255); stroke-opacity: 1; stroke-width: 1px;"/><path class="xgrid crisp" transform="translate(950.67,0)" d="M0,100v564" style="stroke: rgb(255, 255, 255); stroke-opacity: 1; stroke-width: 1px;"/></g><g class="y"><path class="ygrid crisp" transform="translate(0,611.79)" d="M103,0h1017" style="stroke: rgb(255, 255, 255); stroke-opacity: 1; stroke-width: 1px;"/><path class="ygrid crisp" transform="translate(0,528.38)" d="M103,0h1017" style="stroke: rgb(255, 255, 255); stroke-opacity: 1; stroke-width: 1px;"/><path class="ygrid crisp" transform="translate(0,444.97)" d="M103,0h1017" style="stroke: rgb(255, 255, 255); stroke-opacity: 1; stroke-width: 1px;"/><path class="ygrid crisp" transform="translate(0,361.55)" d="M103,0h1017" style="stroke: rgb(255, 255, 255); stroke-opacity: 1; stroke-width: 1px;"/><path class="ygrid crisp" transform="translate(0,278.14)" d="M103,0h1017" style="stroke: rgb(255, 255, 255); stroke-opacity: 1; stroke-width: 1px;"/><path class="ygrid crisp" transform="translate(0,194.72)" d="M103,0h1017" style="stroke: rgb(255, 255, 255); stroke-opacity: 1; stroke-width: 1px;"/><path class="ygrid crisp" transform="translate(0,111.31)" d="M103,0h1017" style="stroke: rgb(255, 255, 255); stroke-opacity: 1; stroke-width: 1px;"/></g></g><g class="zerolinelayer"/><path class="xlines-below"/><path class="ylines-below"/><g class="overlines-below"/><g class="xaxislayer-below"/><g class="yaxislayer-below"/><g class="overaxes-below"/><g class="plot" transform="translate(103, 100)" clip-path="url('#clipee00e8xyplot')"><g class="scatterlayer mlayer"><g class="trace scatter trace30d90d" style="stroke-miterlimit: 2; opacity: 1;"><g class="fills"/><g class="errorbars"/><g class="lines"><path class="js-line" d="M0,459.5L0.14,535.8L0.41,383.51L0.64,385.62L0.66,367.17L1.01,451.23L1.2,289.49L1.39,370.23L1.41,401.48L1.47,427.74L1.66,267.4L2.03,306.98L2.05,289.76L2.13,265.02L2.22,368.31L2.32,366.87L2.34,395.4L2.4,418.61L2.59,243.12L3.04,356.07L3.05,354.68L3.19,305.62L3.38,470.57L3.63,355.91L3.65,313.84L3.79,424.51L3.98,209.5L4.31,339.47L4.33,284.14L4.72,388.33L4.91,199.19L5.08,278.48L5.1,323.59L5.37,201.52L5.64,391.09L5.8,285.32L5.82,256.47L5.84,237.3L6.11,422.27L6.46,359.52L6.48,395.06L6.63,494.08L7.13,287.1L7.15,266.79L7.19,298.53L7.21,262.11L7.23,239.53L7.25,237.32L7.29,280.34L7.31,329.44L7.5,406.5L7.69,209.06L8.02,327.51L8.04,273.4L8.43,397.02L8.62,203.11L8.78,261.5L8.8,279.16L9.09,186.81L9.38,388.31L9.57,342.33L9.59,348.01L9.69,305.91L9.74,390.14L9.76,408.34L9.88,468.3L10.15,306.2L10.34,333.18L10.36,266.43L10.75,361.83L10.94,173.7L11.1,262.07L11.12,277.85L11.41,199.9L11.68,396.01L11.83,287.54L11.85,251.36L11.87,231.83L12.14,409.94L12.51,323.59L12.53,366.78L12.93,311.11L13.13,480.5L13.3,424.07L13.32,415.56L13.53,418.93L14.19,169.64L14.25,213.27L14.27,270.22L14.46,363.97L14.65,167.33L15,256.82L15.02,229.68L15.39,356.46L15.58,153.27L15.66,272.13L15.68,328.85L15.74,252.82L16.35,430.92L16.37,447.71L17.44,160.26L17.5,218.46L17.51,270.09L17.71,362.67L17.9,155.63L18.23,285.79L18.25,227.98L18.37,168.14L18.64,371.92L18.91,292.99L18.93,342.9L18.98,287.27L19.58,460.98L19.6,459.21L19.62,471.23L20.24,184.6L20.49,372.8L20.51,363.62L20.96,366.25L21.15,158.52L21.3,233.07L21.32,265.69L21.42,355.45L21.61,144.68L22.04,222.82L22.06,176.06L22.08,152.17L22.41,367.11L22.7,303.27L22.72,327.34L22.87,437.29L23.45,284.75L23.47,267.01L23.53,298.85L23.55,329.79L23.62,294.5L24.2,395.69L24.26,327.07L24.28,281.05L24.65,385.78L24.86,182.19L25.03,270.9L25.05,313.16L25.32,178.92L25.61,383.51L25.81,350.15L25.83,352.76L25.9,293.82L25.94,346.07L25.96,411.12L26.1,468.67L26.37,307.97L26.58,326.47L26.6,260.84L26.72,190.45L26.97,395.14L27.34,269.73L27.35,308L27.64,170.69L27.9,401.15L28.07,259.76L28.09,225.86L28.11,204.64L28.36,403.57L28.75,318.72L28.77,358.39L29.13,282.24L29.35,478.25L29.54,400.64L29.56,395.02L29.75,411.95L30.43,141.67L30.47,157.44L30.49,208.61L30.89,138.23L31.16,359.95L31.24,229.28L31.26,201.27L31.36,144.32L31.63,364.63L31.96,249.82L31.98,256.44L32.38,252.84L32.59,453.84L32.77,389.43L32.79,388.55L33.02,396.02L33.21,145.07L33.41,296.4L33.43,326.85L33.68,143.68L33.95,370.95L34.1,242.89L34.12,208.98L34.14,187.82L34.41,385.06L34.76,291.03L34.78,329.23L35.07,226.14L35.34,418L35.53,351.83L35.55,354.61L35.63,272.16L35.71,392.54L35.73,426.5L35.84,484.37L36.38,237.52L36.4,231.39L36.73,397.65L36.92,190.36L37.21,379.13L37.23,350.95L37.39,202.88L37.64,404.85L37.99,287.65L38.01,303.93L38.32,233.99L38.59,428.96L38.8,375.79L38.82,376.54L38.88,277.77L39.05,489.28L39.07,490.52L39.09,498.11L39.34,333.1L39.55,413.08L39.57,371.8L39.71,229.36L39.96,423.05L40.33,325.72L40.35,367.54L40.42,444.98L41.04,271.13L41.06,311.81L41.08,282.68L41.35,435.37L41.56,255.4L41.74,347.13L41.76,393.12L42.12,285.04L42.34,496.21L42.53,431.41L42.55,416.85L42.74,453.97L42.98,227.62L43.36,236.92L43.38,280.1L43.67,416.14L43.9,198.12L44.08,351.96L44.1,380.64L44.27,253.82L44.68,493.66L44.87,440.05L44.89,381.2L45.37,304.98L45.55,494.94L45.57,494.61L45.6,500.21L45.84,345.88L46.05,405.86L46.07,362.59L46.45,429.32L46.67,241.86L46.82,303.42L46.84,346.54L47.38,426.14L47.52,225.35L47.54,227.83L48.06,214.09L48.33,417.71L48.35,412.88L48.37,403.02L48.6,299.99L48.85,491.1L48.99,448.36L49.01,449.71L49.24,460.81L49.45,260.49L49.63,363.06L49.64,399.35L49.7,434.99L49.92,242.89L50.26,286.91L50.28,269.92L50.38,230.15L50.63,425.41L51,296.46L51.02,339.66L51.31,232.83L51.6,439.25L51.79,397.3L51.81,392.62L51.85,303.35L52.1,496.43L52.43,444.83L52.45,459.85L52.47,467.74L52.7,264.48L52.72,264.39L52.74,263.1L52.8,285.47L52.82,306.79L53.09,258.55L53.41,430.4L53.43,428.41L53.67,255.03L53.88,436.07L54.23,312.66L54.25,326.51L54.48,268.53L54.83,457.63L55.02,387.21L55.04,387.52L55.1,297.66L55.29,522.07L55.46,470.99L55.48,475.58L55.54,433.35L55.56,347.64L56.02,304.04L56.28,510.32L56.33,450.11L56.35,442.8L56.66,488.25L56.78,299.32L56.8,280.74L56.82,281.64L56.84,325.08L57.13,455.27L57.42,266.84L57.51,362.83L57.53,402.66L57.59,447.12L57.74,260.32L58.25,376.71L58.27,379.32L58.34,269.91L58.48,472.97L58.5,486.46L58.6,500.17L58.81,319.91L59.02,448.12L59.04,398.85L59.45,443.78L59.66,256.16L59.81,306.97L59.83,353.32L59.91,436.11L60.12,247.74L60.55,303.91L60.57,274.22L60.66,252.41L60.84,433.24L61.22,356.65L61.24,395.3L61.59,278.79L61.79,509.67L62.02,464.87L62.04,423.12L62.23,480.99L62.52,260.71L62.81,279.68L62.83,263.47L62.98,254.48L63.08,363.22L63.1,405.71L63.45,257.56L63.62,444.48L63.74,290.71L63.76,276.23L63.78,276.48L63.8,322.42L63.91,259.92L64.09,451.6L64.47,364.56L64.49,404.61L64.84,279.16L65.09,514.25L65.26,453.86L65.28,411.7L65.46,477.68L65.77,259.46L66.04,293.25L66.06,279.28L66.41,443.64L66.7,248.08L66.77,307.72L66.79,355.32L66.87,439.89L67.14,240.5L67.51,308.15L67.53,286.62L67.62,261.92L67.82,450.52L68.15,369.05L68.16,396.89L68.28,513.96L68.84,293.06L68.86,271.22L69.02,249.83L69.09,311.4L69.11,356.81L69.19,440.18L69.42,237.82L69.83,306.66L69.85,282.93L70.12,442.62L70.39,255.41L70.5,361.85L70.52,406.53L70.72,261.53L71.06,452.76L71.24,384.14L71.26,387.71L71.28,388.88L71.3,379.03L71.32,339.77L71.34,275.09L71.55,515.15L72.07,304.35L72.09,283.78L72.44,455.06L72.59,258.73L72.79,298.7L72.8,314.32L73.04,268.28L73.38,486.49L73.58,412.05L73.6,413.87L73.83,484.46L74.12,270.19L74.22,370.82L74.23,418.58L74.58,268.5L74.78,522.29L74.99,442.24L75.01,421.09L75.22,497.45L75.51,259.26L75.8,284.75L75.82,266.42L75.97,249.11L76.07,362.5L76.09,411.72L76.15,458.78L76.44,254.45L76.73,284.4L76.75,266.6L76.9,249.76L77.56,455.84L77.62,415.17L77.64,388.64L77.83,278.83L78.04,515.53L78.37,404.17L78.39,434.93L78.47,491.48L78.74,259.05L79.03,294.94L79.05,278.31L79.2,243.81L79.4,449.9L79.76,302.11L79.78,347.14L79.86,447.52L80.15,250.14L80.5,304.03L80.52,281.32L80.61,267.29L80.81,456.5L81.12,339.57L81.14,367.79L81.33,521.93L81.81,312.23L81.83,291.95L82.18,459L82.47,253.79L82.55,312.54L82.57,361.47L82.64,450.72L82.93,251.08L83.28,315.91L83.3,290.75L83.4,250.88L83.57,452.24L83.94,327.98L83.96,369.63L84.33,276.85L84.58,512.06L84.73,464.52L84.75,455.7L84.96,484.54L85.25,260.78L85.56,266.43L85.58,267.53L85.89,448.15L86.18,259.41L86.39,428.64L86.41,381.18L86.63,251.4L86.82,446.42L87.17,325.28L87.19,335.9L87.57,299.68L87.79,529.29L88,468.68L88.02,423.61L88.21,505.56L88.5,280.7L88.79,289.49L88.81,275.82L88.97,264.77L89.06,370.72L89.08,415.64L89.14,459.93L89.43,258.63L89.72,280.12L89.74,264.25L90.07,460.3L90.34,296.39L90.36,271.37L91.07,521.64L91.25,455.17L91.27,410.82L91.46,488.35L91.73,238.47L92.04,261.19L92.06,241.36L92.39,453.92L92.66,274.4L92.68,255.24L92.85,457.02L93.41,299.33L93.43,280.26L93.61,265.84L93.8,468.2L93.97,401.33L93.99,403.07L94.01,405.57L94.05,371.27L94.07,283.56L94.26,523.9L94.78,362.8L94.8,319.48L95.17,456.22L95.46,264.94L95.54,314.6L95.56,364.32L95.93,267.9L96.1,461.51L96.27,330.09L96.29,301.08L96.39,268.68L96.56,461.65L96.93,326.71L96.95,370.92L97.32,289.52L97.53,533.08L97.74,463.55L97.76,422.91L97.96,499.6L98.25,278.52L98.54,293.64L98.55,276.94L98.67,273.02L98.88,466.08L99,299.92L99.02,282.57L99.04,280.27L99.06,323.04L99.25,318.34L99.27,369.12L99.35,460.39L99.64,278.29L99.99,321.47L100,296.78L100.02,278.81L100.29,465.42L100.64,394L100.66,433.01L100.76,525.07L101.32,298.62L101.34,282.45L101.36,279.63L101.38,323.27L101.57,316.98L101.59,365.67L102.13,455.24L102.27,270.16L102.31,314.35L102.32,292.41L102.6,449.28L102.73,256.66L102.98,347.88L103,395.98L103.21,256.09L103.54,454.98L103.74,386.54L103.75,391.04L103.77,392.48L103.79,375.89L103.81,289.48L103.83,288.73L103.85,330.48L104.01,518.55L104.55,310.71L104.57,287.17L104.61,267.25L104.91,456.75L105.28,312.61L105.3,363.62L105.38,453.68L105.98,258.73L106.02,305.9L106.04,278.83L106.31,449.5L106.52,254.5L106.69,354.23L106.71,402.42L107.06,294.21L107.25,510.45L107.49,450.65L107.51,425.86L107.68,481.02L107.91,262.85L108.26,285.66L108.28,270.11L108.63,440.74L108.84,236.02L108.99,299.61L109.01,352.72L109.3,242.04L109.55,443.11L109.73,296.92L109.75,263.2L109.77,242.31L110.04,445.8L110.37,368.54L110.39,393.27L110.5,514.76L111.06,285.99L111.08,265.21L111.1,264.69L111.12,310.11L111.41,451.85L111.55,251.57L111.8,361.54L111.82,408.73L111.87,448.48L112.01,254.93L112.45,280.79L112.47,262.66L112.74,409.53L112.76,436.57L112.8,453.12L112.94,264.52L113.38,367.57L113.4,357.49L113.42,356.17L113.5,384.81L113.54,369.68L113.56,294.07L113.58,283.06L113.79,509.44L114.1,387.48L114.12,418.41L114.19,471.03L114.35,261.48L114.77,287.4L114.79,270.02L114.81,270.27L114.83,317.7L115.12,441.78L115.37,234.37L115.53,383.17L115.55,412.53L115.8,243.13L116.11,468.17L116.3,412.69L116.32,394.82L116.36,305.11L117,506.37L117.02,504.12L117.04,505.66L117.29,338.89L117.4,475.28L117.42,481.11L117.48,455.21L117.5,408.72L117.69,255.12L117.91,452.53L118.27,304.43L118.29,354.81L118.37,449.7L118.97,257.98L119.01,307.68L119.03,279.49L119.3,443.41L119.51,243.02L119.68,343.12L119.7,385.05L120.07,292.72L120.28,510.99L120.48,437.5L120.5,410.22L120.69,466.41L120.92,220.53L121.31,231.58L121.33,279.13L121.37,222.8L121.62,434.47L122,390.85L122.02,426.17L122.08,469.88L122.39,302.77L122.66,307.67L122.68,287.55L122.91,338.07L122.93,379.97L123.32,304.1L123.53,535.76L123.72,468.53L123.74,446.88L123.92,490.13L124.54,260L124.56,266.6L124.87,461.3L125.37,436.46L125.39,410.31L125.79,455.09L125.93,274.62L126.16,323.9L126.18,368.63L126.57,316.54L126.78,528.47L126.97,460.19L126.99,440.58L127.17,489.32L127.78,265.03L127.8,264.57L128.25,259.11L128.58,448.86L128.62,424.32L128.64,397.01L129.04,451.22L129.25,255.34L129.39,306.33L129.41,309.69L129.81,298.72L130.03,515.19L130.22,447.04L130.24,434.28L130.43,468.61L131.05,231.66L131.07,275.84L131.11,224.34L131.38,425.97L131.75,358.37L131.77,398.55L131.96,264.29L132.35,502.66L132.54,444.79L132.56,429.97L133.06,322.62L133.26,532.25L133.28,532.34L133.91,270.44L134.13,447.15L134.14,450.05L134.2,409.37L134.22,353.54L134.61,442.03L134.82,250.39L134.98,296.29L135,353.04L135.07,435.97L135.29,239.27L135.71,293.96L135.73,264.74L135.75,245.17L136.02,441.38L136.35,347.5L136.37,378.73L136.54,499.7L137.04,284.11L137.06,257.1L137.18,243.16L137.32,358.41L137.33,400.79L137.53,270.62L137.88,465.84L137.99,279.19L138.01,278.18L138.32,446.91L138.55,251.48L138.82,416.6L138.84,378.22L139,241.28L139.27,446.74L139.6,328.48L139.62,359.17L139.79,498.57L140.29,265.34L140.31,238.6L140.41,215.19L140.58,367.28L140.6,395.94L140.66,418.52L140.85,209.58L141.18,324.07L141.2,272.4L141.32,224.44L141.57,424.43L141.9,296.71L141.92,314.76L141.94,314.61L141.96,343.83L142.36,326.13L142.52,483.37L142.71,403.53L142.73,404.3L142.81,369.3L142.83,315.22L143.02,502.05L143.54,267.9L143.56,242.21L143.64,213.75L143.83,363.67L143.85,391.71L143.89,414.08L144.1,206.61L144.45,275.69L144.47,250.32L144.56,189.95L144.82,402.24L145.18,284.97L145.2,313.2L145.26,405.96L145.49,205.41L145.94,323.24L145.96,321.7L146.07,274.25L146.15,382.88L146.17,409.09L146.27,463.73L146.56,312.07L146.75,325.89L146.77,264.63L146.83,216.11L147.14,412.1L147.48,304.52L147.5,299.76L147.74,254.31L148.12,442.38L148.28,369.1L148.3,372.08L148.39,302.56L148.53,448.24L148.62,330.51L148.64,308.09L148.74,273.15L149.01,434.08L149.34,322.68L149.36,352.31L149.51,498.24L150.04,259.53L150.06,239.54L150.07,239.7L150.09,285.84L150.4,396.63L150.62,180.02L150.79,330.34L150.81,361.62L150.87,390.21L151.06,175.23L151.41,252.24L151.43,225.9L151.54,160.22L151.8,373.59L152.14,271.79L152.16,292.26L152.78,489.22L152.97,427.8L152.99,415.81L153.17,454.13L153.84,187.54L153.9,225.24L153.92,271.86L154.11,389.77L154.31,166.34L154.64,295.85L154.66,244.67L154.79,183.41L155.04,390.03L155.39,256.2L155.41,274.78L156.01,463.15L156.2,402.94L156.22,392.53L156.42,425.26L156.65,161.79L156.84,341.52L156.86,362.63L156.9,372.97L157.09,180.13L157.11,182.95L157.17,271.78L157.19,318.2L157.36,366.62L157.56,148.05L158,156.21L158.02,142.44L158.08,187.2L158.1,241.12L158.41,155.74L158.79,371.77L158.85,309.12L158.87,294.55L159.08,284.97L159.28,454.54L159.51,369.29L159.53,321.6L159.68,400.9L159.9,133.53L160.34,205.37L160.36,205.72L160.61,370.92L160.69,245.7L160.71,215.51L160.73,195.73L161.07,397.64L161.35,289.63L161.36,338.03L161.73,218.17L162,413.19L162.12,315.15L162.14,314.87L162.33,283.69L162.51,459.31L162.95,406.63L162.97,383.78L163.61,173.37L163.76,273.36L163.78,318.56L164.05,186.75L164.32,382.99L164.44,204.7L164.46,204.58L164.52,184.58L165.29,442.93L165.31,434.03L165.33,405.57L165.75,489.6L166.04,317.41L166.1,382.77L166.12,411.69L166.51,330.59L166.7,459.32L166.87,423.47L166.89,418.54L167.3,285.76L167.51,397.03L167.53,413.55L167.69,321.88L168.03,460.3L168.13,363.67L168.15,349.31L168.23,341.46L168.32,392.01L168.4,367.69L168.42,409.78L168.83,346.39L169.02,508.79L169.19,447.8L169.21,439.22L169.29,345.08L169.46,488.17L169.85,483.31L169.87,494.56L169.95,533.53L170.22,400.33L170.43,418.84L170.45,395.16L170.8,463.13L171.05,293.9L171.2,384.11L171.22,411.78L171.28,435.4L171.49,266.06L171.9,362.16L171.92,363.88L172.04,349.69L172.06,317.8L172.07,311.2L172.27,483.4L172.62,420.27L172.64,435.23L172.67,443L172.89,222.54L173.2,339.95L173.21,288.99L173.6,400.77L173.81,215.05L173.95,271.18L173.97,294.74L174.07,405.66L174.26,214.28L174.7,268.62L174.72,230.2L174.76,238.67L174.78,269.09L175.52,473.49L175.59,409.35L175.61,416.76L175.63,420.67L175.77,351.17L175.79,303.14L175.9,420.55L176.13,197L176.44,305.57L176.46,251.5L176.58,175.16L176.85,388.77L177.2,243.48L177.22,268.25L177.31,369.21L177.53,161.55L177.93,227.57L177.95,189.96L177.97,177.39L178.24,384.38L178.45,332.09L178.47,339.05L178.57,287.35L178.67,423.22L178.69,435.17L178.76,459.95L179.01,343.12L179.03,308.93L179.15,421.68L179.38,201.6L179.69,316.86L179.71,263.3L180.1,383.32L180.29,175.27L180.46,258.49L180.48,302.4L180.75,136.59L181.03,366.77L181.14,189.01L181.16,194.41L181.22,179.81L182.01,472.7L182.03,456.83L182.05,438.83L182.63,170.08L182.86,361.46L182.88,365.2L183.54,146.48L183.6,190.79L183.62,249.01L183.81,342.11L184.02,127.04L184.35,205.54L184.37,171.18L184.47,112.53L184.79,332.14L184.97,322.58L184.99,326.49L185.01,327.26L185.03,325.58L185.05,286.66L185.07,277.85L185.26,435.95L185.57,349.13L185.59,382.32L185.65,419.72L185.88,216.39L186.21,258.53L186.23,235.8L186.59,377.02L186.79,188.01L186.94,266.85L186.96,295.79L187.04,387.49L187.27,204.43L187.68,263.38L187.69,226.57L187.71,208.46L188,387.28L188.31,309.42L188.33,337.48L188.51,460.97L189.03,292.76L189.05,286.94L189.11,264.43L189.38,390.14L189.86,375.84L189.88,350.08L190.3,363.68L190.5,161.07L190.65,265.34L190.67,284.5L190.96,181.47L191.23,376.67L191.43,307.12L191.45,309.72L191.56,274.27L191.74,453.75L192.2,367.81L192.22,315.68L192.35,166.35L192.62,383.29L192.97,244.18L192.99,283.33L193.28,156.9L193.55,381.75L193.71,229.9L193.73,195.41L193.75,173.2L194.02,382.54L194.36,275.91L194.38,310.91L194.77,271.72L194.98,474.72L195.16,388.29L195.18,385.93L195.39,399.28L195.6,170.81L195.81,363.58L195.83,381.28L195.85,385.63L195.93,297.93L195.95,244.18L196.07,200.37L196.32,404.62L196.66,260.49L196.68,271.11L196.78,406.8L196.99,189.62L197.38,190.13L197.4,183.71L197.46,160.26L198.23,454.63L198.25,450.45L198.27,430.87L198.85,192.24L199.06,375.19L199.08,390.82L199.1,391.93L199.14,375.16L199.16,345.84L199.56,415.38L199.8,213.23L199.93,272.83L199.95,324.17L200.03,402.14L200.63,187.88L200.65,182.4L200.71,173.54L201.48,492.94L201.5,485.66L201.52,464.98L202.12,197.17L202.33,394.53L202.35,402.44L202.43,313.26L202.44,259.56L202.56,206.67L202.81,414.18L203.16,291.7L203.18,301.65L203.74,428.82L203.88,242.81L203.91,282.49L203.93,261.4L203.95,244.02L204.22,429.42L204.55,343.18L204.57,369.82L204.73,496.87L205.25,277.37L205.27,261.6L205.29,260.42L205.31,305.41L205.6,432.47L205.73,248.22L205.98,353.67L206,396.74L206.29,232.89L206.52,440.51L206.64,263.81L206.66,245.75L206.68,244.37L206.7,295.39L206.99,432.27L207.2,229.53L207.39,376.61L207.41,405.66L207.76,287.58L207.97,493.2L208.17,437.92L208.19,418.1L208.38,467.65L208.98,227.01L209,227.06L209.02,277.14L209.06,224.69L209.31,426.66L209.69,340.08L209.71,381.57L209.98,230.91L210.31,488.39L210.49,445.68L210.51,432.47L211.01,295.07L211.22,498.66L211.24,495.2L211.84,196.53L212.05,387.74L212.07,400.16L212.09,405.07L212.19,261.09L212.21,232.73L212.56,410.41L212.77,202L212.9,266.13L212.92,273.93L213.17,199.36L213.48,433.38L213.66,288.97L213.68,261.46L213.7,243.03L213.97,447.88L214.3,346.41L214.31,378.52L214.49,492.7L214.99,263.3L215.01,239.01L215.03,238.14L215.05,282.62L215.34,429L215.47,228.94L215.73,347.17L215.75,386.79L216.02,216.01L216.27,426.1L216.44,274.52L216.46,238.34L216.5,210.72L216.73,417L217.12,349.55L217.14,384.81L217.5,290.66L217.74,511.32L217.91,454.07L217.93,424.6L218.12,470.39L218.37,270.72L218.7,281.51L218.72,263.53L219.05,439.14L219.3,253.06L219.55,412.72L219.57,369.62L219.98,427.66L220.13,243.2L220.33,295.23L220.35,308.42L220.73,278.82L220.98,504.06L221.16,449.3L221.18,415.62L221.37,474.5L221.6,257.34L221.95,270.57L221.97,253.02L221.99,251.82L222.01,296.76L222.3,429.37L222.51,237.17L222.69,347.7L222.7,392.19L222.76,431.64L222.98,233.22L223.34,258.93L223.36,240.42L223.38,240.99L223.4,285.68L223.44,231.95L223.71,435.08L224.06,381.94L224.08,414.58L224.17,486.62L224.72,293.36L224.73,272.25L225.08,430.78L225.3,234.74L225.43,307.72L225.45,320.97L225.62,464.51L226.15,235.71L226.17,231.33L226.24,212.03L226.96,432.46L226.98,429.51L227.23,282.3L227.44,493.82L227.6,453.28L227.62,459.37L227.85,482.25L228.16,271.93L228.25,371.74L228.27,409.82L228.33,449.28L228.62,271.91L228.91,284.51L228.93,270.94L228.97,320.58L229.08,259.91L229.16,305.35L229.18,357.57L229.55,255.49L229.72,444.12L229.9,314.66L229.92,287.1L230.01,260.1L230.19,451.04L230.53,372.96L230.55,399.59L230.69,509.96L231.23,295.22L231.25,274.64L231.4,244.83L231.52,398.16L231.54,425.35L231.58,440.24L231.87,233.96L232.1,367.46L232.12,319.21L232.2,235.56L232.51,444.23L232.87,317.98L232.89,343.78L233.26,252.68L233.45,449.69L233.65,378.46L233.67,378.22L233.72,270.98L233.84,461.71L233.86,482.85L233.92,509.68L234.19,314.24L234.44,348.73L234.46,304.53L234.83,453.86L235.12,248.29L235.19,309.8L235.21,361.62L235.29,445.84L235.56,240.83L235.89,248.89L235.91,251.54L236.04,240.95L236.68,433.36L236.72,426.54L236.74,409.46L236.97,247.54L237.22,501.61L237.49,369.97L237.51,396.13L237.59,468.7L237.9,242L238.15,309.44L238.17,274.17L238.34,225.19L238.54,443.16L238.87,308.8L238.89,309.02L239.29,294.33L239.47,473.9L239.58,331.67L239.6,317.69L239.64,345.44L239.74,297L239.76,271.23L240.41,522.38L240.61,471.27L240.63,466.81L240.86,495.4L241.15,264.24L241.26,403.6L241.28,433L241.32,450.06L241.61,249.64L241.86,321.47L241.88,283.92L242.25,449.57L242.54,236.69L242.6,278.28L242.62,294.46L243,249.84L243.2,444.37L243.39,383.16L243.41,386.31L243.47,258.52L243.53,357.24L243.54,386.21L243.66,510.56L244.22,280.35L244.24,264.08L244.28,306.33L244.4,241.95L244.47,302.06L244.49,351.26L244.86,230.16L245.03,435.31L245.17,241.98L245.19,241.99L245.32,225.72L245.96,438.42L246,414.27L246.02,362.81L246.25,239.73L246.44,445.84L246.77,358.76L246.79,389.66L246.91,510.45L247.45,287.36L247.47,266.37L247.82,433.22L248.11,225.6L248.18,293.65L248.2,338.14L248.57,231.19L248.75,436.85L248.92,286.19L248.94,260.81L249.02,218.73L249.21,436.86L249.58,313.04L249.6,350.03L249.96,268.42L250.21,519.15L250.37,464.94L250.39,448.03L250.6,486.47L250.87,234L251.2,245.8L251.22,247.58L251.34,229.26L251.99,440.4L252.03,415.08L252.05,364.67L252.13,241.62L252.46,442.45L252.8,297.85L252.82,311.76L253.21,272.97L253.4,519.16L253.62,454.63L253.64,437.28L253.85,484.76L254.14,237.82L254.43,257.88L254.45,245.52L254.6,233.14L254.7,341.1L254.72,386.51L255.07,234.12L255.24,440.5L255.36,262.61L255.38,247.04L255.4,247.31L255.41,295.04L255.53,235.84L255.7,436.29L256.09,339.53L256.11,384.26L256.46,261.15L256.65,508.98L256.88,434.91L256.9,391.23L257.1,482.93L257.39,246.52L257.68,264.06L257.7,247.73L257.85,239.78L257.95,349.63L257.97,395.23L258.02,440.41L258.31,239.82L258.62,258.26L258.64,261.3L259.24,234.4L259.44,438.16L259.46,432.32L259.47,419.44L259.71,266.57L259.92,503.2L260.09,454.22L260.11,453.52L260.34,474.77L260.63,246.27L260.77,422.67L260.79,435.36L260.81,441.43L260.92,263.01L260.94,249.56L261.1,241.63L261.74,445.14L261.79,380.58L261.81,330.38L262.2,429.88L262.34,231.3L262.57,293.72L262.59,336.12L262.95,265.21L263.15,516.68L263.38,422.21L263.4,388.17L263.59,481.15L263.86,225.41L264.19,226.76L264.21,229.66L264.52,436.78L264.81,200.32L265.02,410.92L265.04,372.27L265.27,211.12L265.47,425.97L265.8,276.77L265.82,295.31L266.2,260.25L266.4,506.72L266.61,457.47L266.63,446.39L266.84,470.37L267.15,245.6L267.44,246.4L267.46,249.23L267.59,231.49L267.77,439.8L268.27,417.28L268.29,372.28L268.52,240.12L268.7,438.23L269.06,311.33L269.08,349.67L269.45,275.46L269.66,521.37L269.88,462.31L269.89,430.59L270.09,487.34L270.38,262.75L270.67,269.09L270.69,254.12L270.71,252.87L270.73,300.72L271.02,448.18L271.15,256.23L271.4,350.27L271.42,392.95L271.48,440.4L271.77,247.16L272.06,264.22L272.08,243.08L272.1,230.33L272.43,447.02L272.62,365.14L272.64,366.38L272.7,283.21L272.85,500.7L272.87,508.55L272.95,517.86L273.14,425.2L273.16,336.13L273.34,492.64L273.64,255.02L273.76,433.68L273.78,447.81L273.8,452.16L273.88,328.95L273.9,283.1L274.26,443.56L274.57,227.72L274.63,273.23L274.65,328.7L274.73,440.44L275.04,236.41L275.38,276.45L275.4,263.82L275.5,249.24L275.6,382.47L275.62,415.75L275.95,275.22L276.2,513.87L276.37,443.6L276.39,413.37L276.58,477.87L276.89,253.11L277.16,268.52L277.18,252.66L277.2,252.97L277.22,300.78L277.51,439.8L277.67,247.96L277.9,348.02L277.92,395.27L277.98,436.52L278.23,238.86L278.54,271.01L278.56,251.39L278.57,229.29L278.92,437.23L279.25,334.77L279.27,362.29L279.41,501.02L279.95,264.61L279.97,237.28L280.08,223.32L280.2,284.39L280.22,339.13L280.3,438.69L280.43,223.84L280.93,292.43L280.95,273.76L281.07,238.88L281.22,439.36L281.59,279.2L281.61,320.45L281.82,246.11L282.17,457.77L282.38,389.12L282.4,388.83L282.46,286.07L282.67,518.32L283,426.11L283.02,456.12L283.08,482.34L283.23,269.15L283.62,325.51L283.64,283.11L284.01,441.62L284.14,249.07L284.35,273.31L284.37,295.31L284.61,253.58L284.93,449.24L285.11,302.04L285.13,276.73L285.15,262.92L285.46,487.61L285.73,340.84L285.75,372.82L285.88,517.77L286.42,296.06L286.44,271.35L286.79,438.61L287,222.08L287.16,280.12L287.18,330.56L287.25,428.71L287.47,212.13L287.89,263.88L287.91,226.92L288.18,419.02L288.4,184.96L288.57,310.75L288.59,356.89L288.96,266.7L289.17,495.12L289.36,427.36L289.38,398.04L289.57,460.15L289.71,244.31L290.17,251.59L290.19,256.48L290.5,445.37L290.81,252.24L290.99,438.71L291.01,419.17L291.1,249.73L291.43,445.99L291.78,318.94L291.8,335.35L292.2,295.67L292.42,499.96L292.59,450.61L292.61,437.27L292.82,474.35L293.42,250.1L293.44,251.77L293.46,298.05L293.75,446.32L294.06,250.29L294.14,339.72L294.16,390.49L294.21,443.16L294.52,251.66L294.85,308.62L294.87,284.63L294.99,263.27L295.16,450.83L295.49,358.29L295.51,387.53L295.66,529.2L296.19,279.56L296.21,259.74L296.24,302.25L296.32,255.44L296.44,300.94L296.46,347.72L296.53,442.21L297.15,247.99L297.17,294.27L297.19,268.67L297.46,431.76L297.62,242.31L297.83,301.73L297.85,342.94L298.06,246.11L298.45,449.49L298.62,388.57L298.64,385.81L298.7,278.97L298.91,528.65L299.22,390.96L299.24,425.55L299.32,483.44L299.63,260.46L299.88,293.2L299.9,278.97L300.25,446.86L300.56,243.14L300.61,290.39L300.63,344.94L300.71,439.17L301.31,234.8L301.35,279.11L301.37,251L301.39,236.37L301.7,488.32L301.87,429.59L301.89,422.65L302.16,531.03L302.41,320.77L302.55,460.99L302.57,462.77L302.78,216.52L303.03,418.37L303.05,413.98L303.16,216.8L303.49,418.02L303.8,249.04L303.82,276.26L303.96,429.43L304.11,230.66L304.34,328.06L304.36,375.73L304.56,228.3L304.92,442.96L305.08,350.29L305.1,351.96L305.19,269.06L305.27,394.97L305.31,445.07L305.43,523.01L305.91,285.07L305.93,245.6L306.05,228.21L306.3,423.42L306.61,266.71L306.63,287.81L306.74,429.79L306.99,227.95L307.26,337.52L307.28,297.54L307.34,224.3L307.69,400.45L308.02,294.63L308.04,296.28L308.46,286.58L308.67,498.16L308.87,420.99L308.89,404.74L309.06,442.33L309.68,252.96L309.7,296.41L309.99,423.71L310.22,220.88L310.4,365.96L310.41,397.18L310.45,420.94L310.69,220.87L311.01,280.8L311.03,261.53L311.13,224.3L311.46,472.3L311.63,407.23L311.65,404.63L311.71,314.43L311.9,493.53L312.35,430.99L312.37,384.56L312.77,422.1L313,224.08L313.14,283.67L313.16,319.55L313.49,225.15L313.7,424.07L313.87,275.58L313.89,246.77L314.16,415.49L314.38,193.97L314.55,290.14L314.57,340.09L314.96,267.24L315.17,468.73L315.34,401.6L315.36,390.85L315.56,427.11L315.81,197.34L316.27,219.36L316.29,248.72L316.48,417.67L316.7,200.56L317.03,316.14L317.05,267.84L317.18,196.24L317.47,443.84L317.76,319.13L317.78,341.7L318.21,310.36L318.4,516.15L318.59,439.49L318.61,426.65L318.8,458.06L319.5,159.09L319.54,199.32L319.56,242.59L319.73,387.38L319.95,179.83L320.29,226.89L320.31,203.75L320.33,186.33L320.66,407.01L320.95,277.51L320.97,290.51L321.05,317.59L321.07,365.26L321.45,301.05L321.65,499.26L321.84,426.51L321.86,412.36L322.05,437.68L322.73,152.44L322.79,197.46L322.81,241.74L323,379.42L323.21,146.43L323.54,219.81L323.56,193.12L323.66,155.42L323.93,384.42L324.2,273.84L324.22,309.51L324.24,279.82L324.86,464.59L324.87,464.77L324.89,474.71L325.18,311.01L325.38,347.7L325.4,303.46L325.78,354.03L325.98,150.31L326.15,260.41L326.17,315.59L326.25,380.03L326.44,138.99L326.81,185.5L326.83,167.82L327.64,414.25L327.72,348.91L327.74,326.92L328.14,478.32L328.43,276.81L328.47,316.06L328.49,355.9L328.55,406.86L328.76,159.65L329.13,211.4L329.15,192.52L329.22,183.95L329.48,401.7L329.57,255.54L329.59,231.47L329.94,406.02L330.17,194.56L330.31,255.71L330.33,282.46L330.42,398.78L330.62,177.55L331.08,320.55L331.1,323.19L331.22,279.69L331.39,456.8L331.64,366.73L331.66,315.07L331.81,398.17L332.01,151.79L332.47,153.55L332.49,155.51L332.74,375.48L332.9,214.63L332.92,180.61L332.96,153.31L333.21,366.23L333.59,289.39L333.61,328.06L333.86,180.19L334.17,388.83L334.33,304.33L334.35,305.97L334.46,257.07L334.66,436.01L334.89,360.22L334.91,322.7L335.06,414.54L335.26,264.96L335.66,319.42L335.68,342.22L335.86,311.52L335.89,350.66L335.91,368.19L336.05,451.62L336.34,287.87L336.53,317.06L336.55,283.15L336.96,344.48L337.11,191.78L337.29,246.69L337.31,286.28L337.71,263.08L337.9,422.72L338.08,363.95L338.1,360.8L338.33,398.07L338.5,259.21L338.72,343.69L338.74,363.9L339.1,328.66L339.3,460.97L339.51,405.76L339.53,393.49L339.7,423.29L339.9,254.18L340.32,298.44L340.34,290.55L340.36,282.93L340.63,437.4L340.84,380.39L340.86,379.41L340.94,329.57L340.96,311.61L341.15,485.98L341.65,266.62L341.67,238.89L342.02,373.58L342.23,156.86L342.39,234.84L342.41,282.99L342.68,157.76L342.95,355.59L343.1,216.75L343.12,172.58L343.41,336.17L343.61,125.86L343.78,251.63L343.8,289.22L344.4,456.28L344.61,390.07L344.63,377.33L344.79,416.93L345.48,174.06L345.5,162.35L346.2,374.84L346.26,296.79L346.28,239.14L346.66,357.82L346.86,124.11L347.03,223.85L347.05,263.23L347.45,238.85L347.65,425.79L347.84,349.74L347.86,340.57L348.05,342.82L348.25,91.89L348.44,232.01L348.46,265.7L348.52,311.18L348.73,71.03L349.08,116.61L349.1,90.87L349.14,124.11L349.18,49.88L349.23,118.15L349.25,183.95L349.45,273.35L349.64,51.19L349.97,201.87L349.99,132.52L350.1,55.98L350.43,321.72L350.62,319.57L350.64,316.6L350.7,279.6L350.74,327.7L350.76,364.81L350.9,437.79L351.17,277.96L351.36,285.59L351.38,213.82L351.77,307.75L351.96,61.38L352.13,149.26L352.15,199.45L352.23,282.37L352.42,42.96L352.85,128.53L352.87,72.42L352.89,46.49L353.16,294.52L353.49,224.52L353.51,215.26L353.52,199.84L354.12,389.21L354.14,408.72L354.74,53.04L355.26,118.01L355.28,185.49L355.48,264.95L355.67,28.2L356,191.77L356.02,119.85L356.15,28.64L356.41,241.34L356.75,133.8L356.77,138.89L357.39,382.54L357.62,308.01L357.64,252.57L357.8,311.31L358.45,44.27L358.49,54.1L358.51,99.62L358.92,45.61L359.19,292.34L359.27,161.12L359.29,134.37L359.38,113.02L359.65,355.14L359.9,236.39L359.92,269.56L360.62,470.31L360.74,406.7L360.75,411.52L360.87,314.64L360.89,300.14L361.03,416.14L361.26,166.07L361.55,329.08L361.57,273.6L361.97,358.13L362.17,128.05L362.32,210.19L362.34,251.15L362.88,351.57L363.02,141.87L363.04,140.71L363.09,117.26L363.87,435.63L363.89,432.8L363.91,416.02L364.49,134.22L364.72,353.05L364.74,359.63L364.76,362.72L364.81,272.99L364.83,208.18L364.95,132.54L365.2,358.19L365.55,230.04L365.57,242.72L365.8,189.06L366.13,406.21L366.3,265.48L366.32,233.57L366.34,207.92L366.65,420.21L366.96,348.31L366.98,381.54L367.12,476.24L367.66,284.14L367.68,282.82L367.83,270.43L368.45,410.35L368.49,395.61L368.51,371.05L368.91,400.82L369.13,172.74L369.28,244.36L369.3,283.86L369.59,164.63L369.86,390.8L370.07,333.77L370.09,334.52L370.13,311.44L370.15,250.79L370.36,464.21L370.85,299.51L370.87,235.7L370.98,163.97L371.25,383.71L371.6,246.71L371.62,290.33L371.91,178.13L372.16,395.76L372.3,185.6L372.32,182.6L372.62,389.01L372.84,140.99L373.09,365.76L373.11,371.62L373.4,229.41L373.46,308.82L373.48,352.83L373.61,450.46L374.15,155.48L374.17,153.65L374.23,146.56L374.94,394.28L374.98,376.3L375,344.65L375.16,189.24L375.41,404.94L375.76,258.5L375.78,275.12L376.01,200.89L376.36,418.58L376.55,364.21L376.57,371.26L376.59,372.68L376.61,366.08L376.63,321.33L376.86,506.81L377.42,229.77L377.44,270.69L377.73,418.85L377.96,193.44L378.13,354.25L378.15,388.25L378.19,409.41L378.41,190.86L378.73,286.68L378.75,234.41L379.12,391.81L379.33,149.98L379.47,238.39L379.49,247.61L379.89,226.86L380.13,454.36L380.3,404.66L380.32,382.23L380.51,421.03L380.72,186.72L381.11,190.31L381.13,189.5L381.19,176.47L381.9,393.07L381.94,372.87L381.96,334.42L382.37,395.73L382.58,171.38L382.72,246.12L382.74,258.15L383.14,233.99L383.35,458.71L383.51,392.58L383.53,390.28L383.61,263.69L383.72,389.36L383.74,400.05L383.76,405.14L383.84,298.43L383.86,233.3L384.22,369.56L384.44,133.99L384.59,231.11L384.61,279.09L384.82,190.17L385.15,415.37L385.33,262.8L385.35,225.42L385.62,403.04L385.77,191.48L386.04,386.19L386.06,404.12L386.1,410.29L386.22,313.99L386.35,343.58L386.37,282.14L386.39,276.86L386.49,434.16L386.51,456.84L386.62,495.3L387.12,273.56L387.14,253.67L387.16,249.92L387.38,307.17L387.39,354.69L387.47,432.81L388.07,225.55L388.09,221.46L388.61,207.34L388.94,476.87L388.96,462.29L389.35,488.33L389.62,309.03L389.71,426.25L389.73,458.25L389.81,506.76L390.1,344.79L390.43,409.7L390.45,410.81L390.56,285.51L390.64,394.91L390.66,421.7L390.72,446.2L390.87,231.73L391.26,311.99L391.28,264.28L391.32,232.23L391.65,430.4L392,277.41L392.01,298.5L392.25,236.5L392.58,435.96L392.77,362.66L392.79,369.14L392.87,263.39L392.96,418.17L392.98,450.64L393.12,498.68L393.33,319.41L393.58,340.59L393.6,292.98L393.97,433.96L394.26,227.32L394.33,296.9L394.35,341.94L394.57,229.83L394.97,475.71L395.13,427.68L395.15,419.9L395.36,487.1L395.65,272.45L395.82,471.46L395.84,473.76L396.11,282.32L396.25,483.94L396.27,500.8L396.31,514.54L396.58,323.65L396.79,443.38L396.81,391.15L397.22,430.76L397.43,225.35L397.58,285.16L397.6,335.07L397.68,423.78L397.91,218.27L398.32,267.61L398.34,240.88L398.38,218.93L398.63,446.65L398.97,300.22L398.99,343.62L399.36,272.73L399.55,503.98L399.79,462.97L399.81,422.23L399.98,471.49L400.29,228.77L400.58,256.14L400.6,239.07L400.64,285.83L400.75,219.36L400.81,272.37L400.83,291.45L400.93,427.63L401.22,221.67L401.56,276.31L401.58,247.94L401.68,221.12L401.85,431L402.22,306.4L402.24,350.19L402.61,259.57L402.82,502.66L403.03,441.75L403.05,402.11L403.23,470.02L403.54,238.09L403.83,253.98L403.85,233.35L403.87,233.84L403.88,284.62L404.17,431.54L404.46,222.49L404.56,348.94L404.58,393.1L404.91,230.69L405.1,448.12L405.22,252.47L405.24,233.99L405.59,453.95L405.82,366.53L405.84,320.16L405.86,261.46L406.05,513.82L406.59,303.15L406.61,282.79L406.96,445.67L407.25,215.91L407.33,282.03L407.35,338.07L407.71,214.81L407.89,434.33L408.08,269.26L408.1,254.71L408.18,218.31L408.27,338.02L408.29,389.65L408.64,233.05L408.83,449.43L409.01,365.24L409.03,368.93L409.1,270.92L409.22,462.79L409.24,485.97L409.3,516.87L409.57,308.57L409.82,348.61L409.84,296.52L410.21,443.56L410.5,219.43L410.57,286.16L410.59,343.09L410.96,222.1L411.13,441.91L411.31,272.71L411.33,247.27L411.4,211.64L411.6,435.98L411.97,301.14L411.98,338.53L412.35,266.02L412.56,499.57L412.76,429.47L412.78,415.86L412.99,465.75L413.28,226.15L413.59,232.82L413.61,236.09L413.74,221.5L413.92,435.06L414.42,408.43L414.44,359.18L414.85,436.88L415.14,227.31L415.21,302.45L415.23,339.68L415.6,251.26L415.81,510.5L416.01,442.48L416.03,430.35L416.24,480.52L416.53,229.35L416.8,268.21L416.82,257.63L417.17,443.54L417.46,230.49L417.51,280.26L417.53,304.02L417.92,248.09L418.09,474.1L418.27,320.34L418.29,297.58L418.38,237.22L418.52,437.62L418.54,460.85L418.58,475.05L418.83,336.53L418.85,251.62L419.04,515.93L419.6,270.93L419.62,251.39L419.64,252.28L419.66,293.76L419.95,451.84L420.24,230.74L420.34,350.05L420.36,397.72L420.68,226.44L420.88,461.84L421.05,288.08L421.07,264.25L421.15,228.88L421.34,441.37L421.71,306.07L421.73,342.29L422.1,287.46L422.29,521.16L422.5,437.79L422.52,424.6L422.73,487.66L423.02,231.11L423.33,245.43L423.35,249.95L423.66,447.13L423.95,224.73L424.16,418.39L424.18,367.57L424.42,228.93L424.59,437.29L424.94,297.05L424.96,313.31L425.34,267.01L425.54,511.09L425.75,444.94L425.77,437.7L425.98,484.11L426.27,242.25L426.58,247.36L426.6,244.06L426.91,436.04L427.06,232.42L427.41,404.35L427.43,359.05L427.66,224.86L427.84,428.03L428.2,294.27L428.22,339.97L428.61,282.16L428.78,516.73L429,456.51L429.02,451.56L429.23,484.14L429.52,232.56L429.85,238.81L429.87,287.48L430.16,437.81L430.45,220.62L430.54,337.67L430.56,385.68L430.78,229.48L431.08,449.36L431.2,252.81L431.22,235.95L431.24,236.65L431.26,287.75L431.37,246.45L431.57,447.21L431.9,350.49L431.92,383.14L432.09,517.6L432.59,274.34L432.61,257.14L432.77,239.62L432.86,349.6L432.88,395.2L432.94,445.97L433.23,228.89L433.52,250.01L433.54,230.24L433.56,230.45L433.58,274.54L433.85,431.71L434,225.82L434.26,345.49L434.27,399.81L434.62,242.25L434.8,447.34L435.01,388.44L435.03,393.82L435.09,267.11L435.18,417.38L435.2,465.91L435.3,514.95L435.55,310.95L435.8,335.86L435.82,284.36L436.01,234.89L436.19,443.67L436.56,292.17L436.58,351.7L436.65,450.32L436.94,231.64L437.31,265.02L437.33,252.67L437.41,234.23L437.48,294.53L437.5,343.43L437.79,241.02L438.04,459.17L438.26,385.87L438.28,391.97L438.3,392.19L438.32,367.47L438.33,282.11L438.55,519.19L439.07,287.21L439.09,264.31L439.13,241.91L439.44,446.58L439.8,287.82L439.82,341.21L440.36,444.78L440.52,238.56L440.54,286.47L440.56,259.6L440.83,438.99L440.96,233.06L441.2,286.74L441.21,335.77L441.58,267.78L441.78,507.85L442.01,458.56L442.03,428.85L442.2,478.76L442.82,229.94L442.84,228.76L442.94,228.21L443.15,444.74L443.65,417.76L443.67,368.14L443.92,230.77L444.08,436.78L444.44,295.22L444.46,342.23L444.83,284.46L445.02,521.13L445.26,460.83L445.27,430.08L445.47,491.96L445.62,253.61L446.05,261.98L446.07,243.43L446.09,243.91L446.11,291.76L446.4,444.11L446.55,243.05L446.78,349.45L446.8,395.6L446.86,445.11L447.07,244.07L447.44,255.5L447.46,234.44L447.48,234.66L447.5,281.73L447.54,232.4L447.77,435.26L448.16,375.2L448.17,410.74L448.29,500.62L448.81,285.73L448.83,259.99L448.87,234.85L449.18,444.48L449.53,276.68L449.55,297.39L449.64,444.28L450.26,237.36L450.28,291.65L450.3,268.43L450.42,232.35L450.57,437.48L450.94,309.08L450.96,343.63L451.34,272.49L451.56,509.71L451.75,447.84L451.77,420.25L451.94,496.33L452.56,245.28L452.58,245.05L452.89,453.75L453.39,427.48L453.41,387.1L453.82,453.5L453.95,255.82L454.17,305.41L454.19,320.11L454.59,300.97L454.77,525.8L455,467.95L455.02,442.05L455.19,498.06L455.81,239.4L455.83,237.41L456.14,427.48L456.39,219.63L456.64,399.3L456.66,358.87L457.07,425.78L457.2,231.74L457.43,283.05L457.45,315.98L457.84,274.73L458.05,520.05L458.25,428.16L458.27,411L458.46,465.53L458.61,241.74L459.04,269.29L459.06,252.18L459.1,292.91L459.23,250.5L459.27,280.19L459.29,299.71L459.39,443.55L459.99,235.98L460.02,285.24L460.04,261.35L460.1,246.03L460.31,446.9L460.68,318.91L460.7,356.6L461.09,296.48L461.3,528.55L461.49,461.91L461.51,439.92L462.17,491.2L462.31,248.04L462.33,241.25L462.77,235.71L463.1,444.99L463.12,437.33L463.14,414.41L463.56,439.24L463.7,240.73L463.91,299.9L463.93,315.74L464.34,296.38L464.55,530.29L464.74,443.38L464.76,409.88L464.95,475.17L465.55,237.36L465.57,239.01L465.88,445.7L466.39,422.93L466.4,391.07L466.48,253.74L466.81,446.46L467.16,298.31L467.18,316.03L467.58,303.26L467.78,528.7L467.99,480.17L468.01,454.05L468.2,491.02L468.82,238.57L468.84,285.02L469.13,431L469.36,209.08L469.52,323.41L469.54,369.92L469.59,418.97L469.81,192.6L470.17,223.39L470.19,195.72L470.27,179.82L470.41,265.63L470.43,277.22L470.83,273.87L471.04,504.29L471.2,425.49L471.22,427.57L471.45,438.09L471.66,195.14L471.84,326.68L471.86,363.93L472.13,195.49L472.38,416.51L472.49,228.16L472.51,204.51L472.53,204.68L472.55,252.36L472.59,190.5L472.84,412.13L473.23,311.85L473.25,352.59L473.46,191.86L473.83,425.5L474,361.62L474.02,362.34L474.08,278.42L474.31,490.6L474.6,367.06L474.62,394.96L474.7,465.96L474.85,252.68L475.28,267.22L475.3,249.79L475.39,242.76L475.55,329.93L475.57,380.6L475.84,237.85L476.09,436.84L476.21,253.64L476.23,235.21L476.32,210.7L476.52,391.32L476.53,409.54L476.55,414.73L476.65,260.72L476.67,237.54L476.77,202.7L477.04,421.01L477.29,362.6L477.31,353.85L477.35,292.97L477.56,491.93L477.95,446.26L477.97,442.46L478.64,141.42L478.78,223.72L478.8,255.69L478.89,382.98L479.09,125.35L479.51,235.7L479.53,197.89L479.55,180.58L479.8,401.35L480.17,269.8L480.19,289.15L480.81,482.23L481,415.62L481.02,396.59L481.19,453.46L481.43,173.06L481.87,207.72L481.89,210.26L482.12,422.82L482.22,265.48L482.24,245.87L482.59,419.1L482.8,205.41L482.93,295.97L482.95,301.03L483.18,223L483.53,440.73L483.73,362.35L483.75,365.51L483.84,299.87L483.94,448.63L483.96,467.53L484.04,500.43L484.33,315.56L484.5,385.85L484.52,331.35L484.67,176.5L484.91,390.21L485.27,265.96L485.29,289.9L485.6,198.85L485.85,398.02L486.01,248.81L486.03,216.35L486.05,197.11L486.32,403.82L486.66,300.16L486.68,328.6L487.09,312.89L487.28,499.48L487.46,428.95L487.48,421.54L487.69,435.13L487.92,178.2L488.15,397.41L488.17,398.13L488.83,150.8L488.98,240.17L489,268.05L489.29,151.47L489.54,377.01L489.72,213.48L489.74,171.76L489.76,145.45L490.03,383.95L490.36,292.56L490.38,321.75L490.53,479.64L491.05,222.7L491.07,193.79L491.17,150.2L491.42,363.69L491.69,258.14L491.71,285.99L491.88,401.43L492.54,154.48L492.56,155.72L492.58,165.14L493.01,157.62L493.31,389.66L493.39,294.66L493.41,289.79L493.78,454.73L494.07,265.85L494.22,368.86L494.24,341.7L494.67,354.27L494.86,110.12L495.02,209.43L495.04,235.03L495.33,160.09L495.58,383.55L495.77,192.41L495.79,167.3L495.87,255.95L495.89,303.51L496.25,163.2L496.56,392.48L496.62,318.75L496.64,306.96L496.66,305.86L496.68,321.68L496.81,315.13L496.83,272.9L496.85,268.24L496.95,408.04L496.97,419.6L497.03,447.34L497.3,268.85L497.32,230.38L497.36,252.99L497.37,292.54L497.45,350.95L497.65,83.67L498.01,155.55L498.03,135.68L498.05,136.06L498.07,183.42L498.11,107.42L498.38,341.02L498.77,267.04L498.79,304.24L499.04,135.25L499.31,356.74L499.46,202.17L499.48,163.22L499.5,140.65L499.77,378.12L500.1,282.02L500.12,306.9L500.27,466.72L500.8,228.66L500.82,209.71L500.91,181.09L500.97,265.38L500.99,312.22L501.38,176.01L501.63,378.73L501.76,193.26L501.78,233.07L502.09,366.22L502.28,155.44L502.48,286.5L502.5,324.72L502.75,179.3L503.06,379.11L503.19,279.43L503.21,271.35L503.46,424.26L503.48,432.73L503.54,453.54L503.79,354.43L503.81,336.39L504.08,310.44L504.41,460.46L504.47,410.26L504.49,365.7L504.55,329.4L504.88,474.5L505.2,380.84L505.22,411.22L505.4,516.85L505.67,356.75L505.9,371.28L505.92,349.25L506.31,456.53L506.6,319.86L506.63,368.56L506.65,396.9L506.79,482.86L507.33,310.74L507.35,325.53L507.7,426.58L507.85,291.12L508.03,325.5L508.05,362.56L508.43,353.12L508.64,487.26L508.84,453.93L508.86,441.07L509.05,470.64L509.38,344.92L509.5,456.94L509.51,461.28L509.55,463.98L509.57,460.89L509.59,432.9L510.04,487.42L510.31,313.38L510.37,383.22L510.38,408.76L510.44,430.16L510.66,211.94L510.96,311.63L510.98,248.63L511.37,333.64L511.56,124.54L511.72,228.91L511.74,240.72L512.03,142.9L512.3,356.86L512.45,202.12L512.47,156.37L512.49,132.06L512.8,359.37L513.11,285.46L513.13,303.78L513.28,436.64L513.77,211.52L513.79,172.51L514.15,297.1L514.35,68.42L514.52,182.05L514.54,215.36L514.81,121.18L515.08,337.03L515.24,197.1L515.26,153.32L515.55,339.99L515.74,104.63L515.93,236.89L515.95,269.26L516.34,250.08L516.53,412.13L516.75,340.02L516.76,332.5L516.94,357.05L517.13,82.32L517.6,118.13L517.62,128.71L518.33,357.19L518.39,279.93L518.41,223.77L518.79,357.99L518.99,140.81L519.14,228.53L519.16,238.51L519.78,429.11L519.97,355.06L519.99,346.21L520.19,362.1L520.38,86.8L520.63,303.09L520.65,310.17L520.84,76.74L521.11,311.62L521.37,162.27L521.38,211.59L521.77,145.94L522.04,354.99L522.12,222.53L522.14,201.3L522.24,181.74L522.51,381.47L522.74,329.34L522.76,329.25L522.83,282.2L522.89,362.43L522.91,388.83L523.03,447.79L523.3,271.8L523.49,293.45L523.51,230.46L523.9,328.24L524.09,91.62L524.25,211.9L524.27,230.94L524.57,137.67L524.83,348.08L525,169.47L525.02,143.3L525.08,188.15L525.1,241.14L525.48,142.91L525.75,359.91L525.85,301.15L525.87,287.5L526.08,258.78L526.14,339.95L526.16,367.34L526.28,437.07L526.55,254.31L526.74,267.19L526.76,202.32L527.15,321.34L527.34,76.34L527.51,201.8L527.53,240.89L527.8,103.27L528.07,321.53L528.19,122.85L528.21,131.45L528.27,81.43L529.02,347.84L529.06,342.61L529.08,321.6L529.31,294.8L529.52,450.17L529.81,319.93L529.83,342.73L529.91,415.23L530.14,259.82L530.55,305.23L530.57,290.35L530.84,380.7L531.05,159.62L531.24,287.42L531.26,320.32L531.51,137.48L531.79,354.89L531.86,208.95L531.88,188.04L531.98,166.55L532.25,368.1L532.48,308.67L532.5,308.45L532.56,260.85L532.66,398.59L532.67,413.79L532.75,451.67L533.02,291.3L533.22,355.23L533.24,295L533.37,137.73L533.64,371.24L533.99,250.86L534.01,297.21L534.11,391.16L534.3,129.43L534.67,189.95L534.69,165.84L534.76,128.02L535.03,364.66L535.28,212.54L535.3,268.61L535.32,236.73L535.94,438.15L535.96,446.92L536,469.15L536.1,384.62L536.15,390.31L536.17,386.62L536.41,402.82L536.5,231.62L536.52,201.87L536.89,351.75L537.08,96.04L537.24,199.48L537.26,228L537.35,347.33L537.55,98.75L537.97,185.01L537.99,141.34L538.01,113.83L538.28,351.48L538.63,240.9L538.65,267.14L539.03,246.99L539.25,449.09L539.44,374.57L539.46,362.83L539.65,391.38L539.87,140.93L540.33,141.05L540.35,143.19L540.58,361.45L540.68,198.86L540.7,173.32L541.05,360.15L541.26,122.66L541.39,210.15L541.41,221.64L541.51,356.17L541.72,115.85L542.17,264.69L542.19,264.02L542.28,205.14L542.5,419.53L542.73,304.64L542.75,242.56L542.9,368.9L543.02,153.39L543.04,129.47L543.11,110.57L543.19,242.73L543.27,210.99L543.29,246.75L543.58,115.96L543.83,360.41L544,194.22L544.02,150.81L544.04,125.02L544.29,359.33L544.68,261.14L544.7,301.43L544.76,362.31L544.97,119.23L545.45,316.14L545.47,322.72L545.53,251.58L545.67,437.71L545.69,446.34L545.74,462.83L545.99,292.88L546.21,359.11L546.23,308.65L546.61,392.79L546.83,154.4L546.98,250.42L547,295.4L547.08,382.92L547.29,140.01L547.68,171.45L547.7,173.03L547.75,162.43L548.49,410.53L548.53,396.51L548.55,377.79L548.78,272.7L548.95,474.76L549.3,367.96L549.32,394.86L549.4,444.31L549.65,216.47L549.94,299.91L549.96,246.62L550.32,399.05L550.54,171.27L550.69,261.2L550.71,303.15L551,184.99L551.33,463.38L551.5,404.36L551.52,392.96L552.03,268.06L552.24,461.23L552.26,462.74L552.8,226.38L553.07,402.46L553.09,417.29L553.11,420.86L553.19,310.22L553.21,263.1L553.55,410.18L553.8,209.56L553.94,278.49L553.96,321.97L554.04,404.96L554.27,187.37L554.64,195.22L554.66,193.14L554.71,180.99L555.45,453.24L555.47,454.52L555.51,463.17L555.72,305.45L555.74,291.43L555.89,422.73L556.11,177.7L556.43,280.62L556.45,231.54L556.59,176.52L556.82,386.62L557.17,251.29L557.19,262.43L557.5,183.84L557.77,395.98L557.92,242.9L557.94,208.61L557.96,186.79L558.23,413.78L558.56,343.95L558.58,374.04L558.75,480.23L559.26,277.18L559.28,254.92L559.29,250.29L559.62,443.36L559.64,441.36L559.87,341.4L559.89,283.36L560.07,444.9L560.2,233.17L560.59,363.02L560.61,316.85L561,427.61L561.21,218.46L561.36,298.12L561.38,336.82L561.75,271.42L562,492.67L562.16,437L562.18,429.73L562.39,454.37L562.6,217.97L562.99,220.31L563.01,219.35L563.06,211.32L563.76,423.39L563.82,397.86L563.84,353.1L563.92,231.92L564.32,470.7L564.57,366.76L564.59,379.06L565,300.82L565.21,501.69L565.38,449.94L565.4,445.19L565.64,471.79L565.79,254.14L566.06,425.7L566.08,440.34L566.1,444.29L566.18,324.18L566.2,274.58L566.56,425.93L566.85,231.98L566.91,275.2L566.93,292.94L567.03,428.86L567.63,233.99L567.67,289.26L567.69,262.52L567.78,242.05L567.97,440.87L568.32,383.91L568.34,414.26L568.44,490.68L568.98,286.79L569,266.88L569.35,439.34L569.64,235.32L569.71,300.13L569.73,348.81L570.1,234.54L570.28,434.58L570.41,248.2L570.43,247.84L570.57,239.56L571.22,444.69L571.24,437.98L571.26,424.15L571.49,272.14L571.69,501.86L572.03,389.52L572.05,416.29L572.11,460.75L572.42,240.19L572.67,316.09L572.69,270.7L573.06,429.69L573.35,232.98L573.41,287.89L573.43,303.33L573.52,426.43L574.12,215.66L574.14,215.44L574.2,214.25L574.95,487.04L574.99,482.97L575.01,466.14L575.38,467.09L575.65,250.71L575.79,406.21L575.8,431.35L575.84,446.68L576.11,231.85L576.37,371.45L576.38,316.41L576.58,242.31L576.77,455.3L577.12,303.16L577.14,323.8L577.53,256.98L577.72,464.87L577.91,398.34L577.93,400.19L577.99,285.21L578.12,495.09L578.14,509.35L578.18,520.17L578.43,408.01L578.45,325.54L578.61,485.84L578.92,239.41L579.17,322.49L579.19,280.9L579.38,235.99L579.55,443.6L579.9,302.8L579.92,322.47L580.31,283.38L580.48,475.38L580.66,343.81L580.68,324.25L580.97,470.34L581.24,273.5L581.29,370.73L581.31,398.42L581.43,498.29L581.97,291.95L581.99,272.13L582.34,429.58L582.57,224.09L582.71,290.15L582.73,340.26L583.03,222.21L583.27,422.26L583.44,275.45L583.46,248.26L583.54,228.65L583.73,441.25L584.1,318.5L584.12,356.09L584.48,271.71L584.68,513.15L584.91,446.9L584.93,390.54L585.12,488.99L585.41,255.6L585.7,276.63L585.72,261.86L585.76,315.45L585.88,239.4L585.95,306.59L585.97,360.6L586.05,451.97L586.34,235.79L586.65,236.71L586.67,238.87L586.79,236.62L587.46,464.11L587.5,446.94L587.52,435.19L587.73,276.5L587.93,522.33L588.27,402.27L588.29,437.33L588.37,495.76L588.66,254.58L588.93,289.12L588.95,270.81L589.3,451.61L589.59,232.9L589.65,281.84L589.67,305.95L590.05,247.62L590.23,455.53L590.4,307.83L590.42,284.54L590.52,250.08L590.71,465.75L591.02,353.8L591.04,375.5L591.17,520.73L591.73,291.56L591.75,271.63L591.91,250.45L592,374.46L592.02,421.4L592.08,459.45L592.35,252.54L592.64,288.53L592.66,279.58L593.01,449.34L593.28,243.69L593.38,312.19L593.4,358.39L593.74,246.19L593.96,462.49L594.15,394.21L594.17,395.27L594.23,274.92L594.44,511.22L594.77,389.24L594.79,421.33L594.87,481.48L595.16,238.73L595.41,304.61L595.43,265.27L595.79,446.95L595.93,228.22L596.14,284.55L596.16,300.5L596.39,244.21L596.72,451.47L596.9,299.71L596.92,278.62L596.99,264.49L597.21,457.9L597.55,388.07L597.57,420.68L597.67,505.35L598.21,292.28L598.23,272.48L598.58,444.47L598.71,242.74L598.93,292.62L598.94,311.07L599.18,230.11L599.51,448.16L599.68,293.34L599.7,266.35L599.8,243.47L599.97,450.63L600.34,320.65L600.36,351.42L600.72,282.33L600.92,524.29L601.15,457.29L601.17,419.5L601.36,488.67L601.61,258.04L601.94,270.84L601.96,253.81L602.25,434.81L602.27,452L602.29,453.29L602.33,429.24L602.35,386.42L602.75,452.79L603.04,248.79L603.12,309.88L603.14,358.77L603.35,250.5L603.7,474.06L603.89,400.41L603.91,401.25L603.97,294.93L604.07,434.33L604.09,470.96L604.22,520.75L604.44,339.67L604.69,363.91L604.71,313.83L605.07,449.67L605.21,248.12L605.44,308.74L605.46,361.19L605.83,246.71L606,449.42L606.14,249.23L606.16,247.15L606.21,244.46L606.95,454.01L606.99,435.53L607.01,421.08L607.22,286.2L607.47,507.23L607.76,387.33L607.78,423.16L607.86,478.25L608.01,247.86L608.42,275.96L608.44,259.71L608.48,239.88L608.78,438.38L609.13,286.49L609.15,300.43L609.25,436.72L609.85,236.04L609.87,233.31L609.93,225.8L610.72,490.2L610.74,460.67L611.1,465.54L611.32,223.15L611.53,407.57L611.55,418.32L611.57,421.71L611.65,308.9L611.67,263.13L612.03,428.36L612.25,216.64L612.4,288.54L612.42,337.53L612.71,218.78L612.96,428.79L613.13,282.72L613.15,255.31L613.17,240.52L613.44,438.1L613.75,330.98L613.77,359.66L613.91,501.68L614.45,293.28L614.47,273.81L614.82,433.98L614.95,233.93L615.18,311.01L615.2,357.71L615.42,241.89L615.74,442.01L615.88,252.03L615.9,257.45L616.34,255.36L616.69,458.31L616.71,452.09L616.73,439.72L616.96,294.17L617.17,502.63L617.5,404.07L617.52,436.53L617.58,481.61L617.75,261.1L618.14,323.5L618.16,281.12L618.53,443.05L618.68,247.62L618.88,298.12L618.9,312.3L619.01,458.62L619.61,260.23L619.63,307.41L619.65,282.41L619.67,268.92L619.92,459.55L620.27,356.33L620.29,387.68L620.44,512.72L620.96,280L620.98,255.07L621.08,222.48L621.31,437.35L621.62,271.88L621.64,301.03L621.66,298.25L621.7,357.3L621.72,398.19L621.93,252.65L622.24,443.06L622.36,266.08L622.38,247.17L623.19,461.63L623.28,390.53L623.3,381.21L623.32,380.4L623.38,408.14L623.4,411.21L623.48,316.15L623.57,468.42L623.59,493.1L623.94,360.05L624.12,526.32L624.25,433.17L624.27,442.23L624.33,447.85L624.39,345.58L624.41,335.86L624.56,493.52L625.14,281L625.16,262.71L625.18,262.9L625.2,310.59L625.49,451.63L625.74,252.03L625.87,374.24L625.89,413.48L626.09,260.86L626.44,462.37L626.63,400.36L626.65,402.68L626.73,298.62L626.88,512.98L626.9,516.73L626.94,528.33L627.01,452.04L627.03,442.01L627.32,489.12L627.5,269.46L627.56,280.53L627.58,281.63L627.65,272.2L627.75,413.18L627.77,436.29L627.81,450.63L627.96,256.76L628.33,373.52L628.35,318.67L628.52,214.16L628.74,429.62L629.1,285.98L629.12,329.91L629.35,216.32L629.68,432.31L629.88,361.06L629.9,367.51L629.97,301.45L630.11,474.57L630.13,482.52L630.19,502.04L630.44,328.5L630.65,403.89L630.67,340.53L631.06,421.43L631.27,205.39L631.42,275.78L631.44,322.01L631.52,412.93L631.73,192.05L632.12,197.16L632.14,196.84L632.2,183.67L632.93,438.74L632.97,430.86L632.99,412.5L633.22,305.87L633.43,503.81L633.74,399.96L633.76,432.04L633.84,484.03L633.99,269L634.4,292.51L634.42,274.98L634.46,252.96L634.77,444.04L635.13,313.51L635.15,359.47L635.23,438.76L635.44,243.33L635.81,255.06L635.83,231.79L635.91,227.23L636.06,320.89L636.08,359.94L636.47,306.95L636.68,514.43L636.87,447.93L636.89,426.25L637.09,471.78L637.69,237.24L637.71,233.88L638.01,424.48L638.25,209.02L638.48,411.87L638.5,407.62L638.61,205.24L638.94,420.7L639.25,280.61L639.27,309.24L639.46,442.4L639.72,300.46L639.77,382.66L639.79,414.79L640.18,351.08L640.39,513.72L640.55,437.19L640.57,438.84L640.8,469.34L640.95,260.12L641.2,394.42L641.22,420.62L641.26,436.87L641.51,216.89L641.8,328.22L641.82,281.46L642.19,410.71L642.33,213.24L642.54,282.84L642.56,291.58L643.2,504.1L643.37,444.43L643.39,433.66L643.58,464.88L644.28,204.52L644.3,207.53L644.72,206.46L644.97,408.89L645.07,255.1L645.09,238.95L645.13,217.82L645.44,417.52L645.77,273.61L645.79,300.51L645.83,323.31L645.84,367.79L646.23,297.04L646.44,507.3L646.62,447.26L646.64,432.24L646.83,470.12L647.45,233.99L647.55,239.46L647.56,261.87L647.76,427.16L647.99,220.84L648.3,315.87L648.32,265.67L648.45,199.15L648.71,406.8L649.03,294.2L649.05,293.48L649.69,489.81L649.88,420.42L649.9,405.45L650.1,493.9L650.75,246.02L650.77,247.5L651.01,427.06L651.14,226.81L651.53,361.2L651.55,317.1L651.93,425.55L652.07,232.2L652.3,308.41L652.32,331.59L652.73,304.98L652.92,501.2L653.11,438.28L653.13,421.33L653.33,465.98L653.58,206.58L654.04,216.76L654.06,248.02L654.25,414.32L654.49,195.64L654.81,250.65L654.83,228.55L654.93,185.15L655.18,400.07L655.53,285.51L655.55,283.98L656.19,489.75L656.38,421.77L656.4,403.21L656.57,449.75L657.17,226.75L657.25,236.99L657.27,236.66L657.29,236.86L657.31,255.82L657.5,419.25L657.71,203.84L658.04,304.55L658.06,249.38L658.18,181.74L658.43,419.48L658.72,311.28L658.74,338.39L658.76,304.27L659.38,496.44L659.4,496.52L659.42,509.43L659.71,341.68L659.9,344.97L659.92,287.44L659.98,242L660.29,434.42L660.65,304.83L660.67,335.23L660.75,423.49L661.35,221.71L661.37,220.12L661.81,203.32L662.16,417.86L662.2,410.2L662.22,390.58L662.47,300.54L662.59,495.6L662.97,356.47L662.99,391.39L663.07,454.14L663.22,242.33L663.65,257.44L663.67,235.88L663.75,223.23L663.92,317L663.94,363.19L664.15,217.23L664.46,420.34L664.58,248.29L664.6,235.71L664.69,217.35L664.93,406.84L665.22,283.35L665.23,315.77L665.25,290.92L665.85,466.13L665.87,477.43L665.93,508.29L666.16,414.3L666.18,361.89L666.32,462.22L667.01,200.03L667.03,205.25L667.05,233.95L667.46,156.82L667.73,403.12L667.81,255.21L667.82,232.32L668.17,397.83L668.39,180.75L668.52,272.04L668.54,267.07L669.18,466.7L669.37,389.96L669.39,381.24L669.56,418.52L669.78,178.68L669.97,334.35L669.99,365.53L670.05,390.39L670.26,181.35L670.59,254.92L670.61,229.18L670.98,394.03L671.17,169.83L671.32,237.91L671.34,252.94L671.58,189.99L671.94,409.98L672.14,357.42L672.16,353.37L672.21,325.12L672.43,475.06L672.79,449.92L672.81,452.42L672.89,384.5L672.91,333.82L673.3,428.67L673.49,246.81L673.66,303.13L673.68,343.16L673.95,250.65L674.26,433.26L674.44,368.58L674.46,368.36L674.49,348.98L674.75,496.96L675.07,416.77L675.09,443.91L675.19,475.98L675.48,323.35L675.79,410.52L675.81,407.69L675.83,408.02L675.87,396.37L675.89,384.45L676.08,440.66L676.27,285.49L676.49,387.76L676.5,408.56L676.54,419.7L676.74,281.47L677.08,343.69L677.1,316.71L677.2,280.38L677.51,420.24L677.8,352.8L677.82,381.41L677.99,486.01L678.26,371.27L678.59,410.55L678.61,410.21L678.69,383.13L678.71,356.22L678.92,487.13L679.19,324.65L679.31,437.33L679.33,439.1L679.98,217.92L680.16,287.71L680.18,330.42L680.24,384.06L680.45,195.36L680.82,226.58L680.84,207.74L680.87,240.81L680.89,204.2L680.91,184L680.99,261.33L681.01,303.72L681.38,183.1L681.67,375.79L681.69,378.89L681.96,293L681.98,286.81L682.17,444.49L682.65,251.44L682.67,220.47L683.04,350.74L683.23,132.54L683.41,212.66L683.43,254.38L683.7,109.08L683.97,335.42L684.12,209.71L684.14,170.35L684.43,359.37L684.62,135.35L684.8,229.71L684.82,263.6L685.22,255.21L685.42,437.84L685.61,360.53L685.63,350.11L685.71,262.77L685.77,340.13L685.78,357.72L685.82,368.53L686,146.68L686.02,118.72L686.07,169.45L686.09,234.62L686.29,335.66L686.48,111.08L686.83,210.36L686.85,182.52L686.94,114.9L687.21,336.01L687.56,213.63L687.58,226.87L687.87,137.6L688.2,359.33L688.34,283.43L688.36,285.03L688.47,242.69L688.66,423.86L689.11,314.06L689.13,275.31L689.26,85.58L689.53,329.89L689.88,249.69L689.9,269.48L690.19,170.68L690.44,365.45L690.62,225.14L690.64,181.55L690.93,344.81L691.12,92.87L691.31,284.96L691.33,317.64L691.53,281.86L691.91,447.2L692.13,388.24L692.14,376.36L692.3,405.55L692.51,186.38L692.96,223.58L692.98,204.06L693.05,283.81L693.07,322.04L693.44,176.53L693.69,379.35L693.85,197.07L693.87,239.55L694.16,371.54L694.37,147.67L694.58,326.65L694.6,350.57L694.97,280.67L695.16,445.85L695.35,375.03L695.37,365.07L695.57,391.2L695.76,209.4L696.24,248.11L696.26,258.69L696.49,357.17L696.69,111.42L697.02,267.81L697.04,204.33L697.42,340.85L697.62,114.82L697.77,210.83L697.79,215.81L698.41,415.7L698.6,352.98L698.62,342.48L698.81,366.34L699.01,115.08L699.2,291.47L699.22,325.15L699.28,357.39L699.49,140.83L699.82,206.26L699.84,173.4L700.21,337.31L700.4,91.8L700.55,194.98L700.57,205.18L700.86,96.55L701.15,347.93L701.35,277.99L701.37,289.22L701.44,267.93L701.64,439.71L702.1,345.35L702.12,285.3L702.53,357.42L702.72,126.93L702.87,217.7L702.89,254.04L702.99,353.22L703.18,108.97L703.57,120.87L703.59,113.13L704.11,79.33L704.42,353.23L704.44,340.7L704.46,307.88L704.67,255.43L704.88,446.61L705.17,315.17L705.19,329.65L705.29,417.35L705.5,165.45L705.85,243.74L705.87,220.24L705.97,161.36L706.22,383.69L706.57,265.39L706.59,276.81L706.68,413.56L707.3,206.16L707.32,254.02L707.34,225.45L707.36,204.53L707.67,413.97L707.96,321.14L707.98,351.19L708.13,476.42L708.63,248.29L708.65,217.37L709,384.74L709.21,135.48L709.37,227.32L709.39,265.13L709.6,168L709.93,387.5L710.1,249.65L710.12,216.4L710.14,193.62L710.39,401.02L710.76,304.96L710.78,325.15L711.17,277.52L711.38,491.77L711.57,421.66L711.59,406.08L711.79,446.45L712.4,184.27L712.44,185.8L712.46,158.3L712.5,167.34L712.52,213.8L712.71,391.14L712.93,130.5L713.26,272.09L713.27,205.24L713.66,353.85L713.85,95.06L714.01,203.62L714.03,235.93L714.63,442.07L714.84,369.99L714.86,324.5L715.03,410.58L715.25,171.99L715.65,191.92L715.67,245.79L715.71,190.18L715.96,397.21L716.35,323.39L716.37,350.06L716.64,206.75L716.97,462.39L717.16,407.56L717.18,367.54L717.37,482.84L717.66,306.07L717.8,481.16L717.82,488.65L717.88,502.19L718.09,428.52L718.11,374.53L718.28,463.81L718.9,205.35L718.92,249.41L719.21,400.72L719.42,169.09L719.62,342.1L719.63,370.11L719.89,161.87L720.14,395.07L720.21,293.45L720.23,235.59L720.35,156.53L720.62,391.51L720.93,274.07L720.95,301.91L721.14,452.9L721.63,230.53L721.65,204.9L721.99,375.05L722.21,117.84L722.38,243.75L722.4,291.01L722.67,101.3L722.92,359.38L723.04,167.4L723.06,139.79L723.13,110.06L723.25,231.12L723.29,220.1L723.31,256.46L723.6,138L723.89,389.74L724.08,316.82L724.1,321.53L724.14,260.41L724.27,396.57L724.29,412.26L724.39,442.48L724.62,313.56L724.84,359.15L724.85,311.75L725.24,408.19L725.45,183.02L725.61,275.1L725.63,314.07L725.71,406.77L725.92,166.62L726.32,199.87L726.34,225.58L726.65,380.86L726.85,129.38L727.04,308.79L727.06,338.37L727.41,216.62L727.64,425.96L727.79,336.82L727.81,338.09L728.04,368.94L728.24,102.7L728.41,247.14L728.43,291.52L728.51,352.73L728.7,98.63L729.07,168.76L729.09,145.68L729.11,144.7L729.13,186.75L729.17,115.16L729.47,368.62L729.8,325.37L729.82,356.55L730.09,256.13L730.36,428.06L730.54,341.76L730.56,342.41L730.6,343.55L730.62,334.95L730.63,266.78L730.67,296.77L730.69,317.56L730.89,454.14L731.37,256.34L731.39,227.06L731.49,201.07L731.74,426.45L732.07,304.59L732.08,305.54L732.2,458.06L732.36,257.07L732.74,323.54L732.76,272.76L733.13,432.98L733.26,230.22L733.48,278.6L733.5,297.77L733.88,266.91L734.13,513.43L734.29,463.83L734.31,451.35L734.52,479.49L735.14,243.53L735.16,291.44L735.45,438.07L735.74,237.73L735.83,345.52L735.85,386.72L735.91,435.18L736.2,235.16L736.49,248.96L736.51,235.6L736.76,345.85L736.78,393.19L737.13,278.56L737.32,499.63L737.56,444.32L737.57,403.47L737.75,480.01L737.92,249.87L738.35,261.45L738.37,244.9L738.39,245.84L738.41,291.7L738.7,440.95L738.85,236.21L739.08,354.38L739.1,392.49L739.45,237.13L739.62,442.19L739.74,262.23L739.76,245.3L739.91,243.16L739.99,311.94L740.01,355.62L740.38,279.61L740.57,507.14L740.78,436.3L740.8,422.87L741,475.03L741.62,249.91L741.63,250.75L741.94,438.49L742.23,220.64L742.43,428.81L742.45,406.76L742.7,212.23L742.87,429.38L743.22,288.73L743.24,304.56L743.63,265.49L743.84,497.88L744.03,429.71L744.05,411.33L744.24,477.54L744.55,232.89L744.88,236.21L744.9,288.39L745.02,227.11L745.19,442.42L745.58,360.89L745.6,402.71L745.95,280.4L746.12,471.99L746.29,328.49L746.31,308.03L746.41,266.19L746.6,471.67L746.91,343.99L746.93,362.44L747.09,492.68L747.61,276.8L747.63,257.77L747.78,225.63L747.98,436.44L748.34,291.97L748.36,345.2L748.44,441.91L748.71,219.36L749.08,280.82L749.1,260.22L749.37,432.23L749.66,223.1L749.73,289.3L749.75,337.41L750.12,246.46L750.31,488.69L750.53,420.74L750.55,401.09L750.76,459.87L751.05,208.5L751.36,217.27L751.38,221.12L751.69,427.13L751.98,199.66L752.19,400.84L752.21,349.02L752.44,189.91L752.62,421.97L752.98,263.14L753,317.44L753.37,214.99L753.56,481.22L753.78,418.62L753.79,398.31L754.01,453.23L754.3,198.3L754.57,252.37L754.59,235.19L754.94,430.29L755.23,210.42L755.28,255.62L755.3,276.96L755.69,213.69L755.86,434.14L756.04,271.21L756.06,249.82L756.15,227.07L756.35,438.72L756.66,297.72L756.67,325.55L756.83,489.27L757.37,247.98L757.39,221.1L757.43,268.1L757.54,201.52L757.62,265.16L757.64,329.18L758.01,195.94L758.18,432.48L758.36,262.83L758.38,240.57L758.47,205.84L758.65,438.06L759.01,274.22L759.03,328.57L759.4,211.09L759.59,438.19L759.79,362.42L759.81,364.59L759.86,237.65L760.04,487.17L760.06,490.23L760.14,465.5L760.15,439.51L760.48,460.44L760.79,214.82L760.91,383.06L760.93,408.77L761.26,212.72L761.43,429.24L761.51,298.17L761.53,259.07L761.72,212.53L761.89,429.99L762.24,259.83L762.26,278.39L762.65,220.36L762.84,434.16L763.02,351.5L763.04,354.88L763.11,247.47L763.31,484.97L763.56,378.04L763.58,291.71L763.75,456.36L764.04,229.93L764.29,309.88L764.31,270.01L764.5,226.72L764.64,436.87L765.03,284.56L765.05,306.05L765.14,442.47L765.43,234.98L765.78,294.68L765.8,271.99L765.9,231.49L766.09,449.19L766.4,325.18L766.42,352.19L766.55,497.41L767.11,267.54L767.13,243.97L767.29,235.6L767.37,303.63L767.38,355.9L767.75,231.85L767.93,444.9L768.06,241.09L768.08,239.54L768.22,234.29L768.39,444.37L768.89,421.96L768.91,378.07L768.99,248.43L769.34,458.72L769.67,351.16L769.69,378.5L769.86,509.58L770.4,250.25L770.42,296.44L770.71,445.92L771,218.51L771.1,345.57L771.12,391.98L771.17,443.67L771.46,215.78L771.75,241.57L771.77,226.49L771.93,211.94L772.02,329.86L772.04,382.04L772.39,219.65L772.59,445.06L772.78,372.99L772.8,374.91L772.86,253.89L773.05,495.64L773.07,494.03L773.11,494.47L773.32,307.44L773.44,441.33L773.46,459.28L773.49,468.01L773.78,238L774.02,372.15L774.04,320.42L774.42,438.86L774.71,232.03L774.79,294.83L774.81,347.06L774.89,436.48L775.18,221.11L775.52,283.67L775.54,257.12L775.64,229.52L775.83,440.56L776.14,326.7L776.16,355.08L776.32,494.46L776.84,290.73L776.86,272.45L777.21,435.35L777.5,233.18L777.57,286.75L777.59,346.31L777.82,233.18L778.13,435.49L778.27,239.6L778.29,237.68L778.42,230.38L779.08,442.6L779.1,439.48L779.12,422.47L779.35,270.45L779.54,487.5L779.89,379.5L779.91,406.36L779.99,461.98L780.28,241.48L780.55,268.26L780.57,246.81L780.59,228.79L780.92,428.1L781.27,260.66L781.28,286.01L781.38,431.88L781.52,231.71L782.02,286.04L782.04,266.74L782.15,247.02L782.33,441.77L782.66,347.96L782.68,379.32L782.79,494.29L783.35,274.18L783.37,251.31L783.39,245.31L783.62,366.26L783.64,401.89L783.7,447.48L783.86,240.47L784.28,260.68L784.3,237.14L784.32,235.99L784.34,285.37L784.63,442.89L784.78,236.8L785.02,355.91L785.03,396.01L785.25,231.77L785.58,451.22L785.73,346.04L785.75,352.04L785.85,293.07L786.04,497.7L786.29,409.99L786.31,330.66L786.48,476.63L786.79,235.61L786.91,416.98L786.93,434.4L786.95,438.13L787.03,318.67L787.05,270.62L787.26,234.91L787.41,439.34L787.78,295.49L787.8,349.44L787.88,440.01L788.48,234.14L788.5,230.63L789.31,485.19L789.33,489.13L789.54,396.83L789.56,315.37L789.58,311.29L789.67,428.75L789.69,444.09L789.73,450.63L789.85,260.37L789.87,242.87L789.89,241.79L789.91,286.19L790.2,430.94L790.35,233.43L790.58,350.79L790.6,393.03L790.8,234.24L791.12,437.54L791.22,280.38L791.24,263.59L791.59,439.79L791.74,245.87L791.94,290.88L791.96,310.65L792.34,283.52L792.56,495.69L792.75,441.41L792.77,433.11L792.98,473.08L793.58,250.09L793.6,251.86L793.62,301.04L793.75,262.02L793.97,468.28L794.28,373.78L794.3,412.4L794.37,468.24L794.68,252.05L795.01,303.73L795.03,284.88L795.15,256.58L795.32,454.3L795.65,347.48L795.67,377.4L795.82,495.89L796.34,260.65L796.36,241.2L796.46,224.78L796.69,422.05L797,256.48L797.02,282.03L797.08,350.99L797.1,393.75L797.16,438.68L797.29,251.98L797.74,264.77L797.76,246.09L797.93,241.63L798.01,341.11L798.03,387.48L798.24,241.56L798.57,440.89L798.76,362L798.78,364.87L798.82,352.52L798.84,292.69L798.86,271.87L799.07,490.43L799.42,446.02L799.44,461.5L799.48,470.76L799.63,269.83L799.67,292.19L799.69,281.28L799.79,263.15L799.84,327.27L799.86,373.76L799.94,457.01L800.54,249.45L800.56,246.09L800.87,435.01L801.18,232.34L801.37,402.58L801.39,373.39L801.49,237.94L801.82,436.15L802.14,344.91L802.16,379.81L802.32,497L802.84,270.32L802.86,252.2L803.03,234.22L803.13,387.18L803.15,411.97L803.19,429.38L803.5,225.51L803.73,310.25L803.75,265.48L804.1,458.45L804.27,220.49L804.46,247.33L804.48,283.72L804.71,231.41L805.1,433.09L805.26,368.38L805.28,367.78L805.35,270.28L805.53,488.08L805.55,488.37L805.57,495.17L805.82,336.36L806.01,425.76L806.03,393.89L806.44,429.3L806.74,229.24L806.8,289.85L806.82,344.41L807.05,228.23L807.36,439.62L807.54,293.71L807.56,274.11L807.83,442.2L808.14,246.05L808.19,305.83L808.21,348.43L808.6,271.03L808.81,504.27L808.99,438.93L809.01,431.99L809.22,457.73L809.84,230.25L809.86,275.71L809.9,235.69L810.21,464.22L810.51,361.78L810.53,393.71L810.61,452.61L810.75,239.81L811.17,275.39L811.19,256.91L811.23,236.8L811.56,436.29L811.87,307.63L811.89,337.36L812.08,485.61L812.56,269.56L812.58,239.19L812.68,193.63L812.93,418.25L813.3,275.77L813.32,310.98L813.4,402.68L813.61,187.2L814.03,239.21L814.05,207.26L814.07,189.61L814.32,407.13L814.69,292.88L814.71,322.64L815.12,287.14L815.33,485.83L815.5,410.85L815.52,398.43L815.71,427.62L815.93,184.96L816.14,387.46L816.16,404.47L816.18,408.75L816.26,306.16L816.28,258.34L816.33,224.27L816.64,416.22L816.99,285.63L817.01,297.56L817.24,240.94L817.57,437.66L817.74,299.48L817.76,277.03L817.78,265.82L818.05,439.83L818.38,327.71L818.4,365.25L818.56,503.26L819.08,269.97L819.1,246.8L819.43,409.69L819.66,199.96L819.77,273.67L819.79,290.02L820.35,453.61L820.51,247.87L820.53,292.29L820.55,265.82L820.82,439.25L821.03,232.49L821.21,327.02L821.22,370.91L821.61,283.18L821.8,484.43L821.98,413.87L822,406.29L822.21,427.55L822.89,147.17L822.95,202.09L822.96,242.23L823.27,193.14L823.6,401.61L823.7,239.77L823.72,212.09L823.83,157.12L824.07,384.76L824.41,280.9L824.43,288.62L825.05,482.64L825.25,420.87L825.26,408.07L825.46,448.64L825.69,229.57L825.92,419.72L825.94,425.5L825.98,427.84L826.25,268.33L826.33,369.14L826.35,388.89L826.39,411.58L826.6,183.2L826.93,303.21L826.95,245.32L827.06,197.26L827.31,415.53L827.66,283.48L827.68,293.58L828.11,289.47L828.3,486.6L828.49,413.9L828.51,398.2L828.71,429.78L828.92,183.25L829.42,194L829.44,224.99L829.63,393.55L829.87,186.05L830.19,238.98L830.21,216.5L830.33,164.86L830.56,375.62L830.91,257.05L830.93,257.85L831.35,251.55L831.57,431.82L831.74,371.05L831.76,365.33L831.95,400.73L832.17,162.98L832.4,378.12L832.42,383.53L832.46,366.41L832.48,338.14L832.63,193.66L832.88,400.49L833.23,260.87L833.25,268.78L833.35,398.02L833.95,183.61L833.96,178.09L834.02,157.36L834.8,481.56L834.83,460.65L834.85,438.08L835.2,439.13L835.43,195.41L835.63,363.13L835.65,379.82L835.67,386.86L835.8,182.3L835.82,174.5L836.13,363.05L836.36,123.53L836.63,334.13L836.65,315.61L836.81,153.6L837.06,369.26L837.41,263.62L837.42,265.71L838.04,436.35L838.22,362.73L838.24,357.78L838.45,401.59L838.68,149.38L838.89,336.5L838.91,345.16L838.93,349.22L838.99,265.23L839.01,199.77L839.13,105.08L839.4,358.22L839.71,258.75L839.73,245.24L840.07,194.8L840.31,389.97L840.38,300.08L840.4,249.31L840.54,194.75L840.79,389.45L841.12,269.09L841.14,293.77L841.29,432.7L841.83,215.38L841.85,210.39L841.93,187.62L842.64,385.68L842.68,359.09L842.7,316.59L843.11,368.55L843.3,171.5L843.46,220.46L843.48,239.39L843.77,200.89L844.08,404.97L844.25,319.05L844.27,318.77L844.35,296.25L844.52,428.96L844.54,445.89L844.56,450.77L844.81,329.54L844.83,291.3L844.85,290.83L844.87,309.83L844.96,401.98L845.18,206.68L845.58,252.05L845.6,226.97L845.62,210.66L845.89,375.37L846.26,289.32L846.28,323.73L846.55,241.83L846.82,383.01L846.99,291.35L847.01,282.92L847.34,428.92L847.57,321.75L847.59,305.32L847.81,472.18L848.06,335.96L848.08,300.22L848.21,417.51L848.31,301.82L848.33,276.43L848.68,373.93L848.87,173.81L849.06,271.35L849.08,315.04L849.33,160.16L849.6,374.13L849.76,233.42L849.78,201.28L849.8,180.77L850.07,373.4L850.42,273.8L850.44,296.37L850.86,270.68L851.05,437.72L851.19,353.1L851.21,352.74L851.32,260.76L851.46,376.14L851.52,310.34L851.54,239.78L851.65,133.6L851.92,343.45L852.29,236.66L852.31,277.01L852.39,343.18L852.6,139.85L853.01,199.63L853.03,158.97L853.32,344.4L853.51,117.18L853.7,234.55L853.72,272.7L854.11,243.36L854.3,408.37L854.49,322.32L854.51,315.41L854.71,333.15L854.9,99.59L855.07,215.86L855.09,257.93L855.17,326.6L855.36,109.25L855.75,133.45L855.77,128.86L855.83,89.95L856.56,336.81L856.6,302.11L856.62,265.36L856.76,119.39L857.09,343.79L857.36,247.72L857.38,272.82L857.55,414.06L858.07,150.35L858.09,141.82L858.42,320L858.61,76.83L858.92,274.89L858.94,237.21L859.08,117.19L859.35,342.4L859.68,236.58L859.7,236.64L860,162.49L860.28,367.26L860.47,306.98L860.49,306.47L860.6,263.98L860.66,352.38L860.68,377.52L860.8,426.92L861.07,259.26L861.26,272.09L861.28,208.67L861.42,124.77L861.67,334.54L862.02,222.81L862.03,249.43L862.34,142.95L862.58,346.49L862.75,197.29L862.77,155.58L863.06,335.01L863.25,116.42L863.43,214.3L863.45,251.61L863.85,216.37L864.04,398.59L864.24,330.26L864.26,322.25L864.32,238.1L864.41,336.85L864.43,347.59L864.45,351.77L864.51,265.61L864.53,199.34L864.64,117.18L864.91,336.63L865.26,202.93L865.28,229.3L865.38,337.06L865.59,116.89L866,173.85L866.02,124.88L866.04,97.2L866.31,322.44L866.67,225.07L866.69,265.79L867.08,253.54L867.29,421.6L867.49,347.55L867.51,331.41L867.68,373.75L867.89,136.05L868.39,145.95L868.41,181.58L868.63,342.23L868.82,78.92L869.15,229.98L869.17,167.98L869.28,53.97L869.55,329.31L869.9,195.82L869.92,210.01L870.52,396.59L870.71,303.04L870.73,300.91L870.95,327.26L871.14,33.01L871.66,122.83L871.68,204.87L872.07,42.43L872.34,303.91L872.47,95.4L872.49,143.94L872.53,75.53L872.78,323.99L873.19,268.38L873.21,298.22L873.56,225.58L873.77,414L873.98,342.35L874,323.96L874.19,366.89L874.39,185.52L874.77,230.65L874.79,221.44L875.12,327.68L875.32,97.09L875.62,292.53L875.64,244.08L875.78,72.94L876.05,310.78L876.4,206.58L876.42,238.12L877.02,425.49L877.23,362.09L877.25,339.22L877.42,388.44L878.08,121.14L878.1,94.17L878.37,336.99L878.45,177.46L878.47,148.89L878.83,317.43L879.03,68.96L879.18,183.26L879.2,217.92L879.41,128.15L879.76,376.15L879.99,302.03L880.01,304.22L880.05,239.66L880.26,427.55L880.63,408.51L880.65,423.43L880.67,426.52L880.73,366.75L880.75,315.73L881.13,396.6L881.37,162.39L881.5,249.99L881.52,287.83L881.6,377.3L881.83,117.99L882.2,153.19L882.22,153.69L883.01,421.66L883.05,415.24L883.07,396.61L883.3,275.14L883.51,478.62L883.82,362.84L883.84,391.59L883.9,436.95L884.13,204.65L884.46,293.6L884.48,242.8L884.85,394.13L885.06,167.93L885.21,257.88L885.23,301.34L885.54,172.88L885.77,386.77L885.91,175.2L885.93,171.5L885.99,153.72L886.76,452.06L886.78,451.16L886.8,429.88L887.38,186.45L887.59,379.11L887.61,393.59L887.63,397.76L887.71,292.62L887.73,240.6L888.09,396.42L888.31,182.97L888.44,254.33L888.46,273.65L888.77,181.15L889.02,395.8L889.16,196.97L889.18,194.44L889.23,187.66L890.01,463.52L890.03,461.2L890.05,438.09L890.65,177.79L890.84,366.09L890.86,381.14L890.88,385.53L890.96,277.24L890.97,226.48L891.09,167.82L891.34,377.03L891.67,258.94L891.69,261.42L892.02,197.79L892.27,406.07L892.35,297.82L892.37,246.75L892.48,192.92L892.75,398.05L893.06,289.47L893.08,314.37L893.28,446.11L893.76,236.1L893.78,212.06L893.87,165.1L894.13,382.11L894.47,251.09L894.49,271.28L894.74,204.19L895.05,405.73L895.23,259.36L895.25,231.45L895.27,215.79L895.59,458.5L895.85,336.75L895.87,349.12L896.27,272.51L896.52,465.4L896.66,448.21L896.68,444.42L896.91,450.09L897.06,217.44L897.35,402.97L897.37,406.7L897.51,210.33L897.76,327.98L897.78,367.17L897.84,408.8L898.09,206.93L898.4,245.62L898.42,229.03L898.44,207.91L898.78,419.9L899.07,282.94L899.09,319.61L899.52,271.18L899.77,486.87L899.91,427.96L899.93,426.96L900.16,445.38L900.45,226.94L900.62,411.37L900.64,406.86L900.76,218.13L901.09,427.53L901.43,287.85L901.45,309.84L901.55,437.59L901.84,242.56L902.19,304.91L902.21,278.81L902.3,245.84L902.5,446.61L902.81,332.96L902.83,360.86L903.23,327.86L903.42,500L903.6,425.65L903.62,427.76L903.68,376.98L903.69,300.18L903.85,459.47L904.16,239.47L904.39,348.75L904.41,305.3L904.62,215.24L904.8,421.84L905.16,296.86L905.18,340L905.42,220.71L905.74,429.45L905.92,351.57L905.94,356.02L905.96,358.45L906,327.77L906.01,252.92L906.27,481.88L906.73,318.96L906.75,275.51L907.12,420.73L907.41,217.94L907.48,290.63L907.5,338.77L907.58,427.07L907.87,214.12L908.18,222.3L908.2,221.38L908.33,210.44L908.99,431.38L909.01,426.6L909.03,411.61L909.26,260.96L909.48,494.7L909.78,368.04L909.8,387.99L909.9,470.89L910.19,227.95L910.46,265.74L910.48,252.46L910.83,425.43L911.12,214.32L911.18,272.35L911.2,295.24L911.56,224.5L911.76,437.85L911.93,286.34L911.95,265.94L912.05,250.02L912.24,449.74L912.55,342.71L912.57,364.08L912.72,505.7L913.26,275.16L913.28,257.29L913.44,232.28L913.52,320.61L913.53,361.03L913.61,444.75L913.9,217.18L914.21,240.95L914.23,238.86L914.54,439.05L914.83,211.78L915.04,401.56L915.06,357.7L915.29,224.4L915.49,436.15L915.8,326.54L915.82,350.17L915.95,492.77L916.49,289L916.51,269.31L916.86,433.61L917.15,216.44L917.23,291.63L917.25,341.05L917.59,215.48L917.79,435.85L917.96,288.14L917.98,267.68L918.08,224.74L918.25,441.93L918.62,305.42L918.64,348.55L919.01,262.13L919.2,505.89L919.41,433.14L919.43,416.05L919.64,465.61L919.91,207.66L920.24,227.87L920.26,227.46L920.57,436.19L920.84,209.3L921.07,407.58L921.09,361.93L921.5,427.3L921.79,215.96L921.87,289.52L921.89,328.15L922.25,243.67L922.45,494.37L922.68,419.91L922.7,370.42L922.87,467.2L923.18,215.1L923.47,248.23L923.49,234.4L923.53,280.01L923.65,207.65L923.7,257.79L923.72,283.98L924.11,213.82L924.3,443.67L924.5,365.04L924.52,368.83L924.75,458.67L925.04,238.23L925.13,368.11L925.15,404.9L925.5,259.72L925.69,493.36L925.91,430.61L925.93,416.02L926.12,467.32L926.43,210.29L926.76,216.22L926.78,264.44L926.89,187.79L927.07,430.71L927.45,331.05L927.47,378.09L927.53,429.14L927.82,202.57L928.11,241.76L928.13,222.72L928.15,222.32L928.17,266.71L928.29,211.02L928.48,433.23L928.81,343.31L928.83,372.97L928.94,491.46L929.5,261.49L929.52,240.14L929.68,214.88L929.75,291.02L929.77,345L929.85,427.01L930.14,206.61L930.45,223.1L930.47,220.27L930.61,200.19L930.78,423.26L931.28,391.53L931.3,344.95L931.53,213.08L931.73,433.89L932.04,313.38L932.06,339.82L932.19,488.82L932.77,235.26L932.79,231.09L933.1,427.82L933.39,203.72L933.6,404.02L933.62,350.62L933.85,203.97L934.03,426.4L934.39,279.56L934.41,329.02L934.78,211.01L934.97,432.12L935.17,359.63L935.19,364.04L935.24,251.32L935.34,409.28L935.36,440.69L935.44,486.52L935.71,294.06L935.96,318.04L935.98,273.83L936.35,419.39L936.64,201.75L936.71,280.3L936.73,329.22L937.1,201.03L937.27,415.32L937.45,268.03L937.47,241.26L937.56,198.04L937.74,417.05L938.11,286.92L938.13,328.48L938.49,244.5L938.69,478.58L938.9,428.05L938.92,414.05L939.11,448.05L939.42,200.67L939.75,212.81L939.77,258.3L939.88,174.91L940.06,419.38L940.45,315.69L940.46,364.61L940.81,187.17L940.99,416.05L941.1,230.43L941.12,225.12L941.14,225.5L941.16,271.27L941.28,200.98L941.47,426.61L941.82,360.65L941.84,398.5L941.93,483.94L942.49,262.67L942.51,244.34L942.55,282.52L942.67,212.11L942.73,268.87L942.75,287.24L942.84,423.34L943.13,206.14L943.48,270.03L943.5,240.19L943.6,198.86L943.77,414.44L944.14,287.19L944.16,330.94L944.52,211.67L944.7,424.05L944.91,355.33L944.93,357.64L944.99,245.41L945.08,400.14L945.1,433.28L945.2,479.61L945.45,287.47L945.7,308.76L945.72,268.14L946.09,417.52L946.38,209.06L946.44,253.54L946.46,281.93L946.84,204.94L947.02,421.07L947.19,280.82L947.21,261.43L947.31,228.91L947.48,433.73L947.85,290.38L947.87,334.53L948.24,252.19L948.43,483.49L948.66,427.03L948.68,393.89L948.85,458.22L949.18,221.32L949.45,249.12L949.47,226.85L949.8,414.32L950.09,203.49L950.15,235.8L950.17,264.63L950.56,189.3L950.73,421.22L950.9,255.69L950.92,231.23L951.02,214.78L951.19,421.62L951.21,424.66L951.48,252.47L951.58,393.28L951.6,424.28L951.7,476.06L952.22,293.04L952.24,269.57L952.59,428.58L952.88,223.91L952.95,296.67L952.97,345.91L953.05,433.28L953.34,220.15L953.65,230.81L953.67,230.05L953.82,220.96L954.44,429.79L954.48,423.4L954.5,406.28L954.73,252.67L954.94,493.06L955.25,359.47L955.27,388.81L955.35,473.88L955.68,225.14L955.93,264.17L955.95,249.38L956.14,211.18L956.3,428.64L956.66,279.66L956.68,332.04L956.76,420.84L957.07,205.43L957.36,218.57L957.38,213.71L957.44,211.32L958.17,470.19L958.23,465.73L958.25,445.18L958.93,210.93L959.04,391.88L959.06,406.27L959.08,408.96L959.14,343.81L959.16,300.04L959.31,181.02L959.55,400.12L959.91,275.63L959.93,319.79L960.16,210.12L960.47,415.79L960.65,271.31L960.67,241.63L960.78,222.08L960.96,423.16L961.3,355.34L961.32,391.59L961.46,474.75L961.96,258.2L961.98,235.17L962.1,180.4L962.33,399.78L962.68,248.37L962.7,278.88L963.01,211.34L963.28,429.1L963.47,352.73L963.49,351.96L963.53,340.63L963.55,281.34L963.72,429.34L964.03,239.46L964.17,419.16L964.18,426.03L964.2,429.16L964.34,341.41L964.44,350.83L964.46,336.22L964.71,470.14L965.21,249.2L965.23,230.63L965.58,398.04L965.81,188.64L965.94,266.9L965.96,306.77L966.04,396.34L966.27,179.3L966.64,191.29L966.66,189.21L966.72,174.41L967.45,414.39L967.49,402.91L967.51,379.27L967.72,266.56L967.95,478.15L968.26,357.54L968.28,389.28L968.36,439.65L968.67,218.46L968.92,250.9L968.94,233.05L969.04,194.13L969.29,404.18L969.64,253.03L969.66,271.54L969.75,396.41L969.98,152.28L970.35,178.93L970.37,173.82L970.43,152.45L971.2,472.83L971.24,442.59L971.26,423.24L971.61,433.94L971.84,206.87L972.03,384.12L972.05,399.22L972.07,401.03L972.13,346.98L972.15,294.84L972.3,182.11L972.54,393.24L972.9,258.05L972.92,304.39L973.15,203.75L973.46,402.8L973.64,270.82L973.66,248.36L973.68,234.95L973.95,428.64L974.26,310.22L974.28,340.43L974.45,497.37L974.97,283.11L974.99,262.53L975.17,249.8L975.24,348.03L975.26,385.46L975.32,432.88L975.63,232.25L975.9,253.77L975.92,232.25L976.09,220.9L976.17,332.25L976.19,370.55L976.25,413.5L976.48,198.53L976.81,235.08L976.83,211.76L976.87,187.03L977.23,415.33L977.49,283.11L977.5,321.33L977.7,486.16L978.2,282.61L978.22,258.16L978.57,412.42L978.72,209.54L978.94,278.24L978.95,321.25L979.24,187.16L979.55,438.76L979.71,354.38L979.73,355.69L979.81,275.95L979.9,391.18L979.92,415.3L980.17,225.64L980.48,435.06L980.54,358.51L980.56,344.23L980.73,286.54L980.81,405.7L980.85,440.12L980.97,494.12L981.45,289.15L981.47,266.66L981.82,411.04L982.07,186.63L982.2,276.66L982.22,326.93L982.28,388.69L982.51,154.62L982.92,248.77L982.94,226.83L982.96,219.46L983.21,403.65L983.23,400.47L983.36,211.01L983.69,413.55L983.71,407.19L984,292.9L984.21,482.12L984.33,427.89L984.35,435.66L984.37,437.42L984.43,396.32L984.44,361.15L984.6,456.25L985.22,224.87L985.24,267.54L985.53,409.56L985.68,217.12L985.91,332.69L985.93,373.92L985.99,420.96L986.24,214.8L986.57,233.69L986.59,212.29L986.67,203.69L986.82,289.7L986.84,315.56L987.25,270.51L987.46,477.48L987.63,406.18L987.65,388.39L987.85,439.59L988.54,215.53L988.56,218.17L989.01,215.19L989.3,443.65L989.41,375.48L989.43,376.54L989.47,379.08L989.53,358.04L989.55,334.14L989.7,438.77L989.86,263.13L990.28,351.43L990.3,339.48L990.4,376.72L990.5,311.75L990.53,369.04L990.55,401L990.65,510.81L991.21,262.01L991.23,239.99L991.33,232.52L991.5,363.25L991.52,393.63L991.56,415.7L991.79,207.11L992.1,294.04L992.12,246.35L992.49,403.85L992.72,184.78L992.85,255.84L992.87,289.93L993.09,183.84L993.43,419.99L993.63,341.79L993.65,343.66L993.67,344.38L993.72,327.87L993.74,282.38L993.94,486.51L994.42,324.74L994.44,270.31L994.81,395.4L995.04,166.4L995.17,254.58L995.19,285.75L995.33,428.36L995.87,148.93L995.89,143.69L995.95,127.4L996.68,399.08L996.74,379.11L996.76,346.42L996.99,293.28L997.18,478.91L997.49,331.46L997.51,366.05L997.59,436.97L997.84,185.17L998.15,228.63L998.17,207.35L998.21,179.12L998.52,398.93L998.87,247.85L998.89,266.17L998.98,400.68L999.58,182.22L999.6,175.46L999.66,150.91L1000.43,462.58L1000.47,437.9L1000.49,417.54L1000.84,418.48L1001.09,183.03L1001.26,352.94L1001.28,374.62L1001.3,386.2L1001.52,158.6L1001.84,292.23L1001.86,234.13L1001.98,149.56L1002.23,367.51L1002.58,246.18L1002.6,251.55L1002.93,176.37L1003.18,382.96L1003.37,302.09L1003.39,302.62L1003.43,303.55L1003.47,299.07L1003.49,261.38L1003.68,442.36L1003.95,277.91L1003.97,267.49L1004.09,382.92L1004.3,147.88L1004.61,316.38L1004.63,264.76L1005.01,355.62L1005.25,132.53L1005.38,209.41L1005.4,238.1L1005.71,143.75L1005.96,351.27L1006.12,195.56L1006.14,156.26L1006.15,131.38L1006.46,363.89L1006.81,334.53L1006.83,361.91L1006.93,429.52L1007.43,207.68L1007.45,177.99L1007.55,134.62L1007.82,355.77L1008.15,215.5L1008.17,217.53L1008.26,351.38L1008.49,108.65L1008.88,113.75L1008.9,154.07L1009.21,313.88L1009.4,76.89L1009.6,233.24L1009.62,268.99L1010,196.21L1010.18,369.09L1010.39,343.16L1010.41,335.74L1010.6,369.55L1010.79,161.45L1011.01,337.49L1011.03,357.81L1011.07,365.41L1011.2,176.73L1011.22,212.89L1011.24,171.86L1011.28,145.57L1011.53,348.68L1011.9,270.92L1011.92,311.61L1011.99,376.02L1012.19,181.66L1012.61,224.92L1012.63,199.23L1012.65,181.12L1012.96,368.26L1013.25,288.92L1013.27,308.81L1013.91,491.11L1014.1,442.93L1014.12,427.52L1014.31,459.19L1014.97,234.96L1015.05,275.57L1015.07,301.57L1015.24,383.51L1015.43,225.98L1015.82,287.99L1015.84,279.45L1016.69,456.71L1016.73,417.53L1016.75,397.82L1016.94,312.43L1017,395.86" style="vector-effect: non-scaling-stroke; fill: none; stroke: rgb(99, 110, 250); stroke-opacity: 1; stroke-width: 2px; opacity: 1;"/></g><g class="points"/><g class="text"/></g></g></g><g class="overplot"/><path class="xlines-above crisp" d="M102,664.5H1120" style="fill: none; stroke-width: 1px; stroke: rgb(255, 255, 255); stroke-opacity: 1;"/><path class="ylines-above crisp" d="M102.5,100V664" style="fill: none; stroke-width: 1px; stroke: rgb(255, 255, 255); stroke-opacity: 1;"/><g class="overlines-above"/><g class="xaxislayer-above"><g class="xtick"><text text-anchor="middle" x="0" y="696.2" transform="translate(103,0)" style="font-family: 'Open Sans', verdana, arial, sans-serif; font-size: 26px; fill: rgb(42, 63, 95); fill-opacity: 1; white-space: pre;">2012</text></g><g class="xtick"><text text-anchor="middle" x="0" y="696.2" transform="translate(272.81,0)" style="font-family: 'Open Sans', verdana, arial, sans-serif; font-size: 26px; fill: rgb(42, 63, 95); fill-opacity: 1; white-space: pre;">2013</text></g><g class="xtick"><text text-anchor="middle" x="0" y="696.2" transform="translate(442.16,0)" style="font-family: 'Open Sans', verdana, arial, sans-serif; font-size: 26px; fill: rgb(42, 63, 95); fill-opacity: 1; white-space: pre;">2014</text></g><g class="xtick"><text text-anchor="middle" x="0" y="696.2" transform="translate(611.51,0)" style="font-family: 'Open Sans', verdana, arial, sans-serif; font-size: 26px; fill: rgb(42, 63, 95); fill-opacity: 1; white-space: pre;">2015</text></g><g class="xtick"><text text-anchor="middle" x="0" y="696.2" transform="translate(780.86,0)" style="font-family: 'Open Sans', verdana, arial, sans-serif; font-size: 26px; fill: rgb(42, 63, 95); fill-opacity: 1; white-space: pre;">2016</text></g><g class="xtick"><text text-anchor="middle" x="0" y="696.2" transform="translate(950.67,0)" style="font-family: 'Open Sans', verdana, arial, sans-serif; font-size: 26px; fill: rgb(42, 63, 95); fill-opacity: 1; white-space: pre;">2017</text></g><g class="xtick"><text text-anchor="middle" x="0" y="696.2" transform="translate(1120.02,0)" style="font-family: 'Open Sans', verdana, arial, sans-serif; font-size: 26px; fill: rgb(42, 63, 95); fill-opacity: 1; white-space: pre;">2018</text></g></g><g class="yaxislayer-above"><g class="ytick"><text text-anchor="end" x="96.8" y="9.1" transform="translate(0,611.79)" style="font-family: 'Open Sans', verdana, arial, sans-serif; font-size: 26px; fill: rgb(42, 63, 95); fill-opacity: 1; white-space: pre;">6k</text></g><g class="ytick"><text text-anchor="end" x="96.8" y="9.1" transform="translate(0,528.38)" style="font-family: 'Open Sans', verdana, arial, sans-serif; font-size: 26px; fill: rgb(42, 63, 95); fill-opacity: 1; white-space: pre;">8k</text></g><g class="ytick"><text text-anchor="end" x="96.8" y="9.1" transform="translate(0,444.97)" style="font-family: 'Open Sans', verdana, arial, sans-serif; font-size: 26px; fill: rgb(42, 63, 95); fill-opacity: 1; white-space: pre;">10k</text></g><g class="ytick"><text text-anchor="end" x="96.8" y="9.1" transform="translate(0,361.55)" style="font-family: 'Open Sans', verdana, arial, sans-serif; font-size: 26px; fill: rgb(42, 63, 95); fill-opacity: 1; white-space: pre;">12k</text></g><g class="ytick"><text text-anchor="end" x="96.8" y="9.1" transform="translate(0,278.14)" style="font-family: 'Open Sans', verdana, arial, sans-serif; font-size: 26px; fill: rgb(42, 63, 95); fill-opacity: 1; white-space: pre;">14k</text></g><g class="ytick"><text text-anchor="end" x="96.8" y="9.1" transform="translate(0,194.72)" style="font-family: 'Open Sans', verdana, arial, sans-serif; font-size: 26px; fill: rgb(42, 63, 95); fill-opacity: 1; white-space: pre;">16k</text></g><g class="ytick"><text text-anchor="end" x="96.8" y="9.1" transform="translate(0,111.31)" style="font-family: 'Open Sans', verdana, arial, sans-serif; font-size: 26px; fill: rgb(42, 63, 95); fill-opacity: 1; white-space: pre;">18k</text></g></g><g class="overaxes-above"/></g></g><g class="polarlayer"/><g class="ternarylayer"/><g class="geolayer"/><g class="funnelarealayer"/><g class="pielayer"/><g class="treemaplayer"/><g class="sunburstlayer"/><g class="glimages"/><defs id="topdefs-ee00e8"><g class="clips"/></defs><g class="layer-above"><g class="imagelayer"/><g class="shapelayer"/></g><g class="infolayer"><g class="g-gtitle"><text class="gtitle" x="60" y="50" text-anchor="start" dy="0em" style="font-family: 'Open Sans', verdana, arial, sans-serif; font-size: 36px; fill: rgb(42, 63, 95); opacity: 1; font-weight: normal; white-space: pre;">South Demand outliers fixed</text></g><g class="g-xtitle"><text class="xtitle" x="611.5" y="737.903125" text-anchor="middle" style="font-family: 'Open Sans', verdana, arial, sans-serif; font-size: 31px; fill: rgb(42, 63, 95); opacity: 1; font-weight: normal; white-space: pre;">Date</text></g><g class="g-ytitle" transform="translate(19.3564453125,0)"><text class="ytitle" transform="rotate(-90,11.643749999999997,382)" x="11.643749999999997" y="382" text-anchor="middle" style="font-family: 'Open Sans', verdana, arial, sans-serif; font-size: 31px; fill: rgb(42, 63, 95); opacity: 1; font-weight: normal; white-space: pre;">Demand</text></g></g></svg>