<svg class="main-svg" xmlns="http://www.w3.org/2000/svg" xmlns:xlink="http://www.w3.org/1999/xlink" width="1200" height="750" style="" viewBox="0 0 1200 750"><rect x="0" y="0" width="1200" height="750" style="fill: rgb(255, 255, 255); fill-opacity: 1;"/><defs id="defs-e90213"><g class="clips"><clipPath id="clipe90213xyplot" class="plotclip"><rect width="1017" height="564"/></clipPath><clipPath class="axesclip" id="clipe90213x"><rect x="103" y="0" width="1017" height="750"/></clipPath><clipPath class="axesclip" id="clipe90213y"><rect x="0" y="100" width="1200" height="564"/></clipPath><clipPath class="axesclip" id="clipe90213xy"><rect x="103" y="100" width="1017" height="564"/></clipPath></g><g class="gradients"/></defs><g class="bglayer"><rect class="bg" x="103" y="100" width="1017" height="564" style="fill: rgb(229, 236, 246); fill-opacity: 1; stroke-width: 0;"/></g><g class="layer-below"><g class="imagelayer"/><g class="shapelayer"/></g><g class="cartesianlayer"><g class="subplot xy"><g class="layer-subplot"><g class="shapelayer"/><g class="imagelayer"/></g><g class="gridlayer"><g class="x"><path class="xgrid crisp" transform="translate(230.04000000000002,0)" d="M0,100v564" style="stroke: rgb(255, 255, 255); stroke-opacity: 1; stroke-width: 1px;"/><path class="xgrid crisp" transform="translate(357.43,0)" d="M0,100v564" style="stroke: rgb(255, 255, 255); stroke-opacity: 1; stroke-width: 1px;"/><path class="xgrid crisp" transform="translate(484.47,0)" d="M0,100v564" style="stroke: rgb(255, 255, 255); stroke-opacity: 1; stroke-width: 1px;"/><path class="xgrid crisp" transform="translate(611.51,0)" d="M0,100v564" style="stroke: rgb(255, 255, 255); stroke-opacity: 1; stroke-width: 1px;"/><path class="xgrid crisp" transform="translate(738.55,0)" d="M0,100v564" style="stroke: rgb(255, 255, 255); stroke-opacity: 1; stroke-width: 1px;"/><path class="xgrid crisp" transform="translate(865.93,0)" d="M0,100v564" style="stroke: rgb(255, 255, 255); stroke-opacity: 1; stroke-width: 1px;"/><path class="xgrid crisp" transform="translate(992.97,0)" d="M0,100v564" style="stroke: rgb(255, 255, 255); stroke-opacity: 1; stroke-width: 1px;"/></g><g class="y"><path class="ygrid crisp" transform="translate(0,650.86)" d="M103,0h1017" style="stroke: rgb(255, 255, 255); stroke-opacity: 1; stroke-width: 1px;"/><path class="ygrid crisp" transform="translate(0,568.87)" d="M103,0h1017" style="stroke: rgb(255, 255, 255); stroke-opacity: 1; stroke-width: 1px;"/><path class="ygrid crisp" transform="translate(0,486.88)" d="M103,0h1017" style="stroke: rgb(255, 255, 255); stroke-opacity: 1; stroke-width: 1px;"/><path class="ygrid crisp" transform="translate(0,404.9)" d="M103,0h1017" style="stroke: rgb(255, 255, 255); stroke-opacity: 1; stroke-width: 1px;"/><path class="ygrid crisp" transform="translate(0,322.90999999999997)" d="M103,0h1017" style="stroke: rgb(255, 255, 255); stroke-opacity: 1; stroke-width: 1px;"/><path class="ygrid crisp" transform="translate(0,240.93)" d="M103,0h1017" style="stroke: rgb(255, 255, 255); stroke-opacity: 1; stroke-width: 1px;"/><path class="ygrid crisp" transform="translate(0,158.94)" d="M103,0h1017" style="stroke: rgb(255, 255, 255); stroke-opacity: 1; stroke-width: 1px;"/></g></g><g class="zerolinelayer"/><path class="xlines-below"/><path class="ylines-below"/><g class="overlines-below"/><g class="xaxislayer-below"/><g class="yaxislayer-below"/><g class="overaxes-below"/><g class="plot" transform="translate(103, 100)" clip-path="url('#clipe90213xyplot')"><g class="scatterlayer mlayer"><g class="trace scatter trace419147" style="stroke-miterlimit: 2; opacity: 1;"><g class="fills"/><g class="errorbars"/><g class="lines"><path class="js-line" d="M0,436.89L0.1,526.95L0.3,348.58L0.62,371.25L0.64,321.97L0.74,468.09L1.35,252.81L1.38,312.45L1.39,360.1L1.44,423.01L1.96,224.97L2.15,401.43L2.16,388.14L2.29,226.82L2.52,402.63L2.8,386.16L2.81,409.9L2.89,450.38L3.26,240.41L3.28,218.88L3.35,194.65L3.89,389.45L3.94,270.43L3.96,242.45L4.05,200.98L4.58,389.84L4.73,203.26L4.74,202.77L5.32,456.61L5.5,348.67L5.51,290.34L5.61,418.57L6.12,182.7L6.25,281.56L6.26,332.6L6.31,387.85L6.47,185.04L7.02,369.33L7.03,357.77L7.16,180.63L7.4,368.68L7.67,365.68L7.69,386.67L7.76,432.6L8.22,181.43L8.41,373.41L8.43,364.67L8.76,370.15L9.27,160.51L9.28,168.48L9.46,351.55L9.6,154.51L10.04,228.3L10.05,229.64L10.2,417.89L10.66,157.94L10.85,355.8L10.86,341.9L11.36,160.63L11.53,359.05L11.69,175.38L11.7,172.59L12.24,362.29L12.44,305.9L12.46,288.14L12.63,417.02L13.08,160.45L13.21,242.96L13.23,293.49L13.27,353.19L13.79,151.88L13.98,342.13L13.99,324.02L14.13,152.8L14.68,351.6L14.69,349.57L14.71,345.12L14.91,220.2L14.98,342.31L15,367.39L15.07,420.76L15.53,160.74L15.73,335.72L15.75,291.01L16.23,164.69L16.42,363.03L16.53,201.15L16.55,187.13L16.58,168.81L17.11,371.08L17.21,287.89L17.23,292.88L17.34,218.3L17.42,377.72L17.43,394.02L17.49,434.98L17.87,239.14L17.88,199.02L18.14,355.12L18.3,150.13L18.5,352.23L18.52,335.25L18.66,155.09L19.19,362.26L19.33,175.64L19.35,165.5L19.48,260.15L19.49,303.75L19.77,204.64L19.93,433.27L20.27,357.88L20.29,315.42L20.39,194L20.93,402.88L21.06,206.07L21.07,226.06L21.16,214.07L21.2,263.45L21.22,315.83L21.51,223.81L21.99,425.53L22,422.24L22.2,253.64L22.36,486.84L22.73,438.14L22.74,405.93L23.06,462.24L23.52,243.44L23.54,243.63L23.55,240.25L23.71,417.69L24.22,199.91L24.28,223L24.29,197.87L24.8,460.67L24.97,291.4L24.99,266.14L25.1,435.31L25.34,204.6L25.55,216.76L25.57,212.45L25.68,199.89L26.15,411.08L26.31,205.36L26.32,203.32L26.5,407.86L26.58,233.19L26.6,210.26L26.66,196.16L26.83,389.81L26.84,400.44L26.86,402.58L26.92,333.78L26.93,305.63L27.08,218.05L27.24,463.54L27.5,395.55L27.51,423.43L27.54,443.63L27.77,224.2L28.02,250.71L28.03,241.26L28.24,421.74L28.47,205.3L28.53,303.56L28.54,357.01L28.58,410.51L29.09,182.59L29.29,392.54L29.31,388.69L29.51,199.25L29.67,446.59L29.83,339.75L29.85,257.09L29.98,405.45L30.14,166.96L30.6,232.46L30.61,280.5L30.85,188.42L31.37,408.61L31.38,405.97L31.4,381.53L31.53,194.78L32.11,452.58L32.12,446.3L32.14,424.46L32.41,449.4L32.63,208.13L32.99,208.31L33.01,219.89L33.11,424.27L33.33,206.63L33.36,218.23L33.37,216.37L33.46,419.92L33.69,207.14L34.17,408.71L34.18,403.87L34.2,406.33L34.23,321.71L34.25,372.26L34.27,314.27L34.37,218.42L34.54,472.07L34.79,370.83L34.81,408.45L34.85,450.47L35.41,181.98L35.55,396.05L35.56,394.06L36.11,166.35L36.4,172.35L36.42,174.19L36.46,172.8L36.98,443.18L37.31,389.35L37.33,353.41L37.5,179.15L37.98,391.55L38.11,224.77L38.13,221.08L38.2,191.09L38.3,368.95L38.31,391.99L38.55,224.54L38.72,471.27L38.88,376.55L38.9,275.61L39.07,453.12L39.24,234.98L39.39,444.92L39.4,445.7L39.42,464.05L39.84,225.77L39.9,233L39.91,213.64L39.94,190.12L40.42,424.74L40.61,230.04L40.62,230.85L40.77,433.1L41.33,198.07L41.36,233.24L41.37,235.05L41.68,207.87L41.85,479.24L42.19,421.1L42.2,377.58L42.38,202.84L42.85,440.64L42.98,270.38L43,262.29L43.2,436.72L43.77,196.3L43.78,221.69L43.8,236.4L43.81,234.56L43.85,353.84L43.87,390.18L44.12,211.78L44.29,481.54L44.62,429.52L44.64,386.16L45.16,201.47L45.29,433.23L45.42,253.97L45.44,241.08L45.51,190.64L45.64,429.31L45.99,422.51L46,419.89L46.2,210.67L46.65,441.04L46.67,457.96L46.73,483.38L47.23,256.11L47.25,221.34L47.38,454.22L47.94,215.81L48.09,448.02L48.1,421.29L48.29,213.48L48.42,447.27L48.87,332.7L48.89,335.43L48.99,214.22L49.16,503.84L49.57,286.23L49.58,276.9L49.82,446.05L50.03,202.22L50.24,309.42L50.25,283.08L50.73,193.6L50.86,439.44L51,265.55L51.02,258.97L51.08,211.28L51.12,259.75L51.13,292.56L51.43,214.79L51.6,497.55L51.93,450.94L51.95,401.73L52.25,458.69L52.47,203.47L52.74,281.52L52.76,273.7L52.77,274.13L52.79,267.2L52.8,242.85L52.95,449.53L53.17,206.65L53.54,252.35L53.56,253.66L53.86,215.38L54.05,502.67L54.37,454.03L54.38,406.91L54.56,218.15L55.04,455.59L55.2,269.14L55.21,269.43L55.25,204.75L55.38,444.09L55.69,398.51L55.7,430.11L55.73,447.78L55.95,209.55L56.28,294.01L56.3,217.23L56.49,507.6L57.12,460.26L57.14,454.3L57.69,210.57L57.95,290.79L57.97,285.78L58.04,215L58.17,455.19L58.49,421.12L58.5,440.48L58.73,210.05L58.92,496.68L59.07,351.49L59.08,261.28L59.21,480.11L59.43,214.02L59.76,240.98L59.78,198.44L60.6,469.45L60.63,451.95L60.65,429.4L61.17,219.6L61.36,498.35L61.39,452.3L61.4,436.05L61.65,487.79L61.87,233.89L61.95,415.56L61.97,445.35L62,462.88L62.21,218.41L62.55,255.73L62.56,204.85L62.69,450.18L62.91,199.91L63.24,248.96L63.26,208.49L63.8,492.99L64.11,453.28L64.13,406.89L64.43,456.85L64.65,224.21L64.9,281.99L64.91,290.43L65,213.65L65.13,450.72L65.42,341.7L65.43,393.24L65.7,223.55L66.23,508.47L66.25,482.96L66.52,486.06L67.09,207.6L67.1,224.21L67.12,238.25L67.22,441.32L67.35,277.07L67.36,259.93L67.44,198.97L67.51,326.66L67.52,377.71L67.57,439.19L67.78,207.52L68.29,430.91L68.31,426.79L68.67,488.6L69.18,210.39L69.19,224.56L69.31,434.36L69.52,199.84L69.86,240.52L69.87,189.27L70,424.79L70.22,188.28L70.52,236.54L70.54,237.23L70.57,209.6L70.63,271.84L70.64,315.91L70.92,224.72L71.1,495.19L71.42,446.97L71.44,407.46L71.74,448.31L71.96,206.11L72.22,273.12L72.24,259.55L72.31,196.05L72.44,435.4L72.77,422.89L72.79,429.34L73,203.51L73.09,350.35L73.11,387.77L73.35,214.17L73.54,475.44L73.86,423.1L73.87,375.35L74.4,200.58L74.53,424.38L74.67,258.43L74.69,249.74L74.74,201.46L74.82,329.98L74.83,381.48L75.09,212.39L75.22,442.27L75.61,427.79L75.63,409.07L75.79,216.47L75.96,484.08L76.43,221.18L76.44,219.54L76.48,205.79L76.6,407.1L76.62,413.97L76.83,196.9L77.25,309.54L77.27,358.35L77.53,201.16L77.66,420.52L78.02,411.92L78.04,412.71L78.05,412.52L78.07,388.24L78.24,206.83L78.4,474.34L78.85,253.49L78.86,243.99L78.91,259.18L78.92,207.66L78.98,259.05L78.99,311.03L79.05,413.02L79.62,174.32L79.76,399L79.78,375.13L79.97,188.25L80.1,408.62L80.55,293.36L80.56,295.37L80.66,212.39L80.85,472.47L81.27,272.43L81.29,264.53L81.49,438.56L81.71,212.29L81.82,425.22L81.84,430.35L82.4,189.72L82.47,300.34L82.49,354.19L82.75,197.87L83.27,474.97L83.29,468.72L84.08,175.14L84.14,177.9L84.16,191.44L84.62,423.31L84.85,220L84.87,229.92L85.2,220.76L85.33,436.46L85.51,340.33L85.52,324.18L85.71,492.94L86.24,206.26L86.27,215.47L86.29,251.91L86.58,207.74L87.06,435.09L87.07,428.93L87.09,406.9L87.27,197.37L87.8,413.33L87.87,309.27L87.88,311.74L87.99,206L88.04,332.93L88.06,372.59L88.14,466.96L88.71,211.38L88.81,412.94L88.83,390.1L89.01,192.13L89.49,419.37L89.62,247.89L89.64,239.89L89.73,210.52L89.84,420.91L90.22,416.61L90.23,422.45L90.42,212.54L90.58,485.86L91.07,226.43L91.09,253.84L91.23,418.03L91.8,192.31L91.84,207.47L91.86,239.83L91.93,407.4L92.44,180.75L92.63,384.9L92.64,387.47L92.67,393.16L92.71,300.48L92.73,289.52L92.84,206.95L93.02,477.96L93.18,352.37L93.19,268.86L93.21,265.03L93.26,376.11L93.28,413.19L93.32,458.28L93.9,202.49L94.02,414.66L94.03,411.02L94.24,188.51L94.69,373.74L94.7,390.64L94.87,176.03L95.11,401.4L95.27,285.74L95.28,201.33L95.29,194.71L95.45,460.25L95.71,394.5L95.73,420.34L95.76,435.76L95.99,208.1L96.31,251L96.32,216.28L96.38,260.05L96.4,324.27L96.45,423.42L96.98,199.7L97.15,408.84L97.17,405.48L97.32,189.74L97.53,408.93L97.82,397L97.83,419.58L97.89,461.87L98.08,263.58L98.25,317.29L98.27,261.74L98.37,182.07L98.93,444.64L98.99,352.39L99.01,348.9L99.06,356.57L99.09,339.54L99.11,259.83L99.24,426.3L99.75,186.94L99.86,233.91L99.88,278.56L100.17,221.48L100.34,468.9L100.66,421.15L100.67,375.48L100.88,233.87L101.33,447.31L101.46,272.36L101.47,267.05L101.57,238.08L101.68,448.53L101.97,318.88L101.98,374.68L102.27,239.53L102.76,488.2L102.78,490.04L103.59,195.22L103.63,248.99L103.65,218.96L103.76,407.64L104.29,180.09L104.39,223.61L104.4,266.91L104.62,178.24L105.21,450.9L105.23,434.88L105.5,450.36L105.75,242.8L106.04,265.83L106.06,279.76L106.1,247.93L106.24,471.63L106.78,262.42L106.79,232.52L106.9,429.1L107.14,230.39L107.46,316.57L107.48,258.01L107.64,474.32L108.19,216.71L108.22,247.96L108.23,300.01L108.29,411.57L108.81,187.39L108.98,386.57L109,385.9L109.49,163.86L109.78,274.31L109.8,273.42L109.93,214.62L110.09,443.85L110.48,256.36L110.49,260.09L110.62,231.9L110.77,424.57L110.94,317.42L110.96,270.67L111.07,443.64L111.67,213.21L111.7,245.23L111.71,297.44L111.93,217.65L112.51,482.97L112.52,473.62L113.34,182.58L113.44,217.28L113.45,268.99L113.7,200.08L113.86,404.22L114.23,378.75L114.25,351.5L114.38,180.84L114.94,453.31L114.97,431.96L114.99,410.85L115.25,437.12L115.77,203.14L115.86,215.85L115.87,233.53L115.95,405.74L116.45,177.81L116.66,394.28L116.67,374.37L116.8,215.89L117.32,439.2L117.34,449.83L117.38,474.15L117.77,241.91L117.79,217.47L117.86,192.17L117.99,333.85L118,371.73L118.21,181.31L118.38,393.51L118.51,201.34L118.53,182.11L118.56,171.94L118.73,381.24L119.03,315.18L119.05,354.48L119.24,195.2L119.82,469.03L119.83,462.57L119.85,438.38L120.12,442.66L120.63,167.78L120.67,198.3L120.69,240.52L120.82,375.69L120.96,180.3L120.98,167.48L121.51,386.2L121.57,305.5L121.59,251.43L121.67,190.45L122.25,435.18L122.3,383.72L122.31,367.32L122.37,379.24L122.47,258.8L122.5,318.19L122.52,362.88L122.56,421.81L123.07,173.53L123.27,376.09L123.28,363.81L123.41,175.55L123.62,371.95L123.91,284.06L123.92,327.52L124.21,213.56L124.7,474.01L124.75,436.26L124.76,429.67L124.81,456.96L124.91,304.44L125.07,345.04L125.08,306.36L125.34,420.14L125.59,241.38L125.87,248.41L125.88,248.92L126.4,436.91L126.62,324.97L126.63,268.58L126.76,448.88L126.78,458.38L126.79,459.56L126.87,391.63L126.92,391.97L126.94,378.65L126.98,243.35L127.14,519.03L127.69,272.39L127.71,284.18L127.78,445.06L128.3,223.7L128.48,410L128.49,409.92L128.98,204.29L129.17,406.01L129.19,409.76L129.4,290.21L129.42,240.51L129.58,459.68L130.01,224.1L130.03,220.08L130.04,219.26L130.09,273.43L130.1,280.16L130.56,413.85L130.75,219.97L130.84,238.12L130.85,280.27L130.93,413.32L131.42,196.7L131.62,391.28L131.64,390.74L131.67,378.56L131.68,342.65L132.01,444.94L132.46,191.24L132.51,212.84L132.52,247.89L132.65,385.78L132.83,184.48L133.09,218.56L133.1,204.09L133.16,180.43L133.35,378.94L133.44,218.98L133.45,199.77L133.52,177.13L134.06,386.05L134.26,287.35L134.28,266.91L134.45,446.29L134.9,169.14L135.03,240.86L135.05,296.09L135.09,363.37L135.25,159.28L135.81,336.27L135.83,307.74L135.94,169.1L136.5,405.08L136.58,297.25L136.6,298.05L136.73,229.01L136.79,364.37L136.8,400.03L136.89,460.2L137.35,196.93L137.54,395.68L137.55,378.89L137.87,392.32L138.38,159.64L138.4,156.57L138.57,356.09L138.73,144.46L139.15,273.3L139.16,197.67L139.27,380.21L139.28,388.68L139.32,420.46L139.53,217.25L139.69,218.72L139.7,178.98L139.98,327.74L140.47,108.34L140.48,108.35L140.66,315.9L140.82,108.08L141.14,146.46L141.15,129.23L141.17,116.68L141.38,337.07L141.64,272.46L141.66,315.34L141.76,416.78L142.21,165.62L142.41,365.34L142.43,341.92L142.75,366.73L142.92,152.63L143.21,176.88L143.22,188.53L143.27,157.51L143.44,358.44L143.76,324.65L143.78,348.98L144.04,212.75L144.2,429.21L144.54,386.45L144.56,359.45L144.89,393.53L145.37,184.07L145.39,205.63L145.53,346.72L146.04,141.07L146.12,181.24L146.14,185.92L146.47,184.69L146.62,419.21L146.79,265.49L146.81,212.3L146.92,373.79L147.08,127.43L147.36,158.03L147.37,135.3L147.4,147.96L147.43,116.21L147.44,112.45L147.62,329.69L147.76,120.82L147.78,109.72L147.79,105.63L147.98,321.01L148.26,204.92L148.27,254.44L148.47,106.6L149.05,411.4L149.08,382.3L149.1,366.99L149.36,382.74L149.87,125.57L149.98,172.89L150,218.63L150.4,341.53L150.56,131.16L150.77,338.53L150.78,319.67L150.91,123.11L151.46,398.01L151.48,403.49L151.49,423.4L151.95,139.66L152.17,332.37L152.19,308.16L152.49,357.01L152.65,126.65L152.98,141.74L153,132.26L153.16,327.23L153.17,344.34L153.2,350.42L153.29,173.64L153.3,174.72L153.35,171.57L153.93,450.89L154.1,270.46L154.12,241.82L154.23,421.18L154.75,167.69L154.8,194.64L154.81,169.48L154.9,345.89L154.91,365.01L154.93,371.74L155.04,158.38L155.06,167.67L155.07,154.7L155.28,352.93L155.44,124.4L155.57,226.02L155.58,283.46L155.78,159.46L156.36,430.64L156.38,422.04L156.84,130.36L157.22,188.67L157.23,167.58L157.25,158.25L157.36,355.39L157.65,283.76L157.67,334.42L157.71,391.56L158.22,169.13L158.42,386.25L158.44,382.54L158.45,383.2L158.47,357.26L158.48,318.18L158.8,445.03L159.28,158.3L159.29,165.26L159.31,204.79L159.45,376.98L159.96,145.95L160.06,159.27L160.08,183.67L160.31,147.71L160.86,416.61L160.87,409.89L160.89,415.19L161.24,442.42L161.7,167.51L161.76,169.59L161.77,177.88L161.89,378.65L161.99,168.85L162.02,180.17L162.03,167.47L162.24,373.89L162.4,151.96L162.53,252.55L162.54,307.25L162.93,363.56L163.09,141.23L163.16,162.45L163.18,170.28L163.5,159.02L163.67,419.85L164.01,371.91L164.02,332.24L164.54,171.32L164.67,394.18L164.82,187.59L164.83,175.32L164.86,177.84L164.88,206.88L164.89,163.74L165.02,394.88L165.63,194.8L165.64,219.92L165.93,201.3L166.11,452.66L166.44,407.13L166.46,369.75L166.76,409.09L166.98,171.06L167.25,189.87L167.27,177.88L167.33,153.05L167.46,384.29L167.75,267.9L167.76,321.1L168.02,167.81L168.56,443.81L168.57,423.73L169.07,214.3L169.21,454.72L169.23,453.33L169.24,466.99L169.55,469.52L170.11,183.16L170.16,217.18L170.17,258.55L170.81,186.1L170.95,463.56L170.97,463.72L170.98,474.99L171.47,230.65L171.49,232.37L171.5,194.45L171.85,189.26L171.98,431.4L172.16,228.75L172.17,225.49L172.19,226.76L172.2,182.61L172.24,218.11L172.26,251.19L172.33,425.25L172.55,175.08L173.03,410.12L173.04,412.47L173.23,254.06L173.24,173.54L173.42,456.04L173.9,224.11L173.91,211.51L173.94,183.13L174.07,429.63L174.36,334.53L174.38,388.97L174.64,186L175.11,449.74L175.13,445.7L175.14,419.47L175.33,204.95L175.83,487.49L175.84,486.39L175.85,493.82L175.87,495.63L175.91,431.88L175.93,419.6L175.97,426.7L176.03,254.52L176.1,400.91L176.12,435.45L176.16,483.66L176.72,191.68L176.87,441.94L176.88,416.64L177.07,180.7L177.2,444.72L177.7,236.54L177.71,227.18L177.74,228.76L177.77,175.26L177.81,223.07L177.83,257.86L178.12,182.57L178.29,485.17L178.61,460.47L178.62,429.54L179.16,166.68L179.45,201.26L179.47,203.46L179.51,164.1L179.55,208.95L179.57,246.23L179.86,177.81L179.99,429.23L180.34,422.61L180.35,424.11L180.55,187.82L180.74,475.89L180.97,366.72L180.99,408.06L181.03,454.37L181.6,165.77L181.73,403.77L181.74,398.93L181.95,180.53L182.39,431L182.41,445.51L182.42,451.64L182.64,213.59L182.96,334.18L182.98,288.06L182.99,200.34L183.18,486.05L183.73,232.93L183.74,271.03L183.82,439.56L184.03,185.73L184.53,429.57L184.54,403.04L184.73,186.83L184.86,436.58L185.31,321.63L185.32,322.67L185.43,197.39L185.5,367.5L185.51,410.61L185.61,491.08L186.11,235.17L186.12,195.06L186.25,430.8L186.47,174.48L186.8,191.63L186.82,170.74L187.17,166.16L187.64,412.3L187.66,415.01L187.86,178.12L188.05,478.43L188.3,419.47L188.31,445.29L188.34,462.16L188.56,191.82L188.78,274.58L188.79,257.7L188.91,191.71L189.04,437.49L189.23,242.31L189.24,233.67L189.25,180.93L189.39,438.16L189.98,235.63L189.99,241.69L190.3,191.69L190.49,484.92L190.81,431.2L190.82,391.44L191.13,428.63L191.34,180.31L191.63,235.39L191.65,234.61L191.69,177.22L191.75,271.15L191.76,315.79L191.82,424.37L192.04,182.04L192.55,416.26L192.56,410.61L192.74,196.97L192.92,482.47L193.17,438.62L193.18,463.76L193.21,484.29L193.43,253.01L193.69,276.59L193.71,262.71L193.91,435.32L194.13,180.35L194.21,362.47L194.23,398.23L194.48,188.46L194.95,431.73L194.98,425.6L195,417.55L195.17,197.89L195.36,492.12L195.87,211.17L195.88,227.03L196,440.58L196.22,196.13L196.48,267.6L196.49,253.08L196.56,194.07L196.62,276.76L196.64,333.01L196.91,196.76L197.4,443.4L197.42,439.02L197.61,201.8L197.8,496.07L198.07,465.7L198.09,471.08L198.65,179.26L198.74,354.73L198.75,391.22L198.78,419.97L199,179.63L199.33,229.27L199.35,177.73L200.23,479.97L200.25,452.17L200.52,454.23L201.09,186.58L201.1,200.73L201.12,212.55L201.22,426.59L201.44,183.34L201.67,230.19L201.68,228.05L201.78,183.16L202.28,419.86L202.45,315L202.47,296.11L202.48,192.67L202.65,476.84L203.22,224.5L203.23,259.36L203.31,428.74L203.87,184.49L204.02,413.94L204.03,386.95L204.22,186.53L204.7,421.4L204.8,302.02L204.82,303.96L204.92,189.93L205.09,479.47L205.47,289.39L205.48,257.72L205.74,414.66L205.96,178.21L206.09,413.4L206.11,408.96L206.44,420.68L206.66,185.32L206.93,226.99L206.95,218.68L206.99,248.97L207.01,193.67L207.06,244.32L207.08,294.16L207.35,195.34L207.53,474.07L207.85,452.5L207.86,428.2L208.4,188.1L208.67,226.88L208.69,214.59L208.75,181.45L208.88,421.38L209.17,309.4L209.18,358.52L209.79,194.7L209.96,472.72L209.98,465.11L209.99,437.64L210.27,455.87L210.83,200.21L210.88,229.65L210.89,260.82L211.18,196.96L211.31,430.92L211.67,421.36L211.69,395.04L212.23,200.25L212.4,484.37L212.41,472.41L212.43,444.05L212.7,450.73L212.92,194.94L213.27,202.8L213.28,206.75L213.3,206.33L213.31,217.36L213.33,242.68L213.4,421.68L213.62,186.79L214.1,411.01L214.11,413.22L214.14,430.74L214.15,414.66L214.17,383L214.68,206.46L214.84,467.43L214.92,374.93L214.94,376.97L215,329.53L215.01,232.37L215.03,230.61L215.05,261.86L215.07,294.48L215.14,424.52L215.66,160.16L215.84,379.74L215.85,375.07L216,159.34L216.19,380.63L216.52,375.63L216.53,384.96L216.59,289.82L216.61,240.07L216.69,175.49L217.27,456.84L217.3,419.53L217.32,399L217.58,411.98L218.1,140.13L218.2,184.85L218.22,238.67L218.45,135.5L218.97,377.01L218.98,375.47L219,355.9L219.09,174.32L219.69,460.44L219.71,477.8L220.58,174.72L220.62,218.71L220.64,243.96L220.93,206.4L221.06,453.67L221.42,433.31L221.44,415.7L221.97,210.66L222.15,492.97L222.17,445.69L222.19,421.32L222.45,454.55L222.97,177.26L223.06,190.7L223.07,209.8L223.15,383.57L223.32,151.23L223.86,370.23L223.87,360.38L224,160.49L224.23,388.1L224.51,376.15L224.52,399.78L224.58,448.53L224.97,200.91L224.99,177.57L225.05,163.9L225.19,308.8L225.21,346.11L225.23,374.36L225.76,146.85L225.96,347.93L225.97,324.51L226.09,173.11L226.66,442.45L226.67,446.38L227.02,484.74L227.48,225.15L227.5,224.92L227.55,197.81L227.61,295.93L227.63,350.8L227.67,412.41L228.25,176.24L228.38,393L228.4,385.49L228.53,176.44L229.09,408.81L229.16,279.64L229.18,278.45L229.3,199.28L229.47,453.99L229.83,256.38L229.85,217.95L230.27,158.79L230.46,372.96L230.61,161.06L230.63,158.82L230.79,355.03L230.8,367.32L230.88,230.43L230.89,197.9L231.15,374.59L231.31,146.1L231.6,261.88L231.62,258.97L231.75,190.27L231.91,415.24L232.08,267.32L232.09,234.79L232.2,389.1L232.27,229.19L232.28,184.55L232.56,340.26L233.05,104.67L233.07,105.53L233.08,117.07L233.65,401.3L233.89,367.21L233.91,398.44L234.18,247.51L234.34,471.8L234.66,412.91L234.68,374.6L234.98,410.22L235.44,194.45L235.47,197.55L235.49,185.07L235.68,395.59L236.1,238.88L236.11,205.21L236.14,185.42L236.39,393.89L236.68,359.22L236.69,396.37L236.76,457.9L237.24,184.64L237.26,187.67L237.76,432.2L238.08,412.82L238.1,435.24L238.46,464.24L238.71,262.36L238.85,459.91L238.87,438.17L239.2,503.76L239.66,226.78L239.68,222.51L239.85,418.56L240.08,285.3L240.1,246.84L240.2,419.36L240.27,275.53L240.29,241.77L240.55,408.54L240.72,185.15L241.04,216.02L241.06,200.02L241.09,181.54L241.1,211.7L241.11,251.24L241.14,206.19L241.29,383.85L241.54,309.05L241.55,347.07L241.94,446.04L242.12,215.05L242.3,411.52L242.32,387.33L242.64,417.37L243.1,188.38L243.12,198.08L243.13,184.06L243.16,168.06L243.7,398.03L243.72,395.52L243.74,374.36L244.07,449.35L244.54,175.18L244.55,172.73L244.67,255.13L244.68,310.86L244.73,383.84L245.23,134.15L245.44,345.96L245.45,330.56L245.78,337.54L245.93,110.49L246.1,301.21L246.12,310.63L246.36,179.45L246.52,390.42L246.86,343.29L246.87,292.39L247.16,344.58L247.32,119.03L247.67,122.24L247.68,122.93L248.02,121.13L248.22,345.29L248.34,180.48L248.35,164.72L248.37,157L248.57,363.51L248.58,361.03L248.6,360.43L248.95,426.31L249.41,172.99L249.42,173.47L249.44,178.66L249.6,363.13L250.11,140.18L250.19,179.93L250.21,180.74L250.31,351.44L250.47,138.96L250.77,172.38L250.79,160.87L250.8,155.72L251.03,355.65L251.28,257.55L251.3,297.02L251.6,244.17L252.09,446.5L252.11,436.36L252.54,171.21L253.01,189.02L253.02,220.41L253.34,205.34L253.83,426.45L253.85,410.78L254.37,239.14L254.53,458.99L254.6,409.98L254.62,419.85L254.63,423.87L254.91,250.3L254.92,226.67L254.98,197.63L255.05,269.65L255.11,247.17L255.12,291.82L255.67,196.09L255.91,381.52L255.92,369.59L256.27,412.29L256.73,130.86L256.76,173.13L256.78,222.46L257.07,110.66L257.27,323.67L257.5,183.22L257.52,177.01L257.76,165.06L257.97,379.24L258.08,230.37L258.1,210.51L258.11,205.72L258.31,398.68L258.59,320.38L258.6,366.6L258.71,456.91L259.17,201.81L259.24,223.59L259.26,223.01L259.34,397.77L259.87,194.8L259.94,213.37L259.95,216.5L260.21,184.66L260.39,392.08L260.48,219.03L260.49,196.41L260.55,175.2L261.14,443.65L261.32,337.62L261.33,285.48L261.43,428.59L261.95,196.62L262.07,269.19L262.08,325.43L262.13,391.01L262.65,153.26L262.84,347.05L262.85,335.87L263,154.2L263.49,366.5L263.51,390.44L263.58,432.95L264.03,191.35L264.12,216.24L264.13,212.11L264.56,389.95L264.74,178.31L264.83,204.79L264.84,213.51L264.91,378.79L265.42,154.95L265.62,361.33L265.64,358.8L265.86,200.19L266.01,412.33L266.28,368.24L266.29,386.59L266.31,394.41L266.46,171.95L266.55,203.98L266.57,202.49L267,385.57L267.18,175.66L267.23,231.67L267.25,196.12L267.35,382.22L267.52,185.63L267.84,187.88L267.86,178.44L268.45,429.07L268.63,314.24L268.64,257.42L268.65,257.16L268.67,279.24L268.76,410.45L269.34,203.15L269.44,358.31L269.45,360L269.96,110.3L270.09,242.34L270.1,281.86L270.29,99.86L270.87,390.16L270.9,356.25L270.92,339.58L271.18,348.4L271.34,91.37L271.8,159.09L271.82,206.52L271.89,319.51L272.4,94.47L272.58,315.18L272.6,301.2L272.73,96.37L273.25,359.96L273.27,374.64L273.31,409.98L273.7,162.69L273.72,130.41L273.79,108.46L273.92,257.87L273.93,291.93L274.12,93.84L274.31,334.63L274.53,182.65L274.54,145.66L274.66,341.18L274.75,162.6L274.76,145.76L274.82,139.46L274.93,201.08L274.95,241.57L275.17,161.06L275.73,415.46L275.75,436.63L276.56,91.94L276.67,180.1L276.69,225.32L276.75,334.69L276.91,97.73L277.44,320.63L277.46,321.48L277.6,91.47L278.15,366.51L278.17,371.46L278.18,394.45L278.65,115.14L278.88,284.52L278.89,241.97L278.99,92.69L279.55,325.46L279.66,163.86L279.68,150.87L279.88,361.97L280.04,134.88L280.18,280.96L280.2,315.87L280.46,160.53L280.62,413.35L280.95,372.6L280.97,333.73L281.16,180.84L281.62,401.81L281.75,214.48L281.76,208.79L281.85,171.81L281.92,333.67L281.94,369.91L281.97,394.96L282.48,151.77L282.68,364.98L282.69,359.65L282.71,361.13L282.72,333.78L282.74,290.03L283.06,433.7L283.53,162.81L283.55,166.27L283.59,161.95L284.06,379.56L284.3,185.28L284.32,194.78L284.64,188.68L285.1,455.86L285.14,451.98L285.16,425.69L285.49,468.7L285.96,160.77L285.97,161.34L286.36,156.82L286.49,377.17L286.56,224.42L286.58,197.33L286.84,382.12L287.06,154.12L287.33,183.03L287.35,174.63L287.42,171.25L287.46,218.92L287.48,257.33L287.77,172.45L287.93,432.4L288.25,408.6L288.26,382.67L288.8,177.28L288.93,397.96L289.06,215.98L289.07,209.61L289.28,397.36L289.49,166.71L289.58,327.3L289.6,361.29L289.84,154L290.36,446.43L290.38,445.05L290.39,422.48L290.67,449.45L291.23,188.96L291.28,220.64L291.29,251.08L291.71,427.33L291.93,179.47L292.08,409.97L292.09,383.57L292.28,180.48L292.8,478.01L292.82,471.23L293.32,188.5L293.64,238.86L293.66,239.68L293.8,427.5L294.37,172.93L294.41,213.86L294.42,250.31L294.71,180.15L295.24,472.86L295.25,467.85L296.11,160.62L296.15,214.72L296.17,240.62L296.28,441.31L296.8,159.83L296.95,399.53L296.96,375.73L297.15,159.13L297.64,441.92L297.66,442.33L297.67,460.05L298.2,181.55L298.35,396.43L298.37,356.2L298.54,180.13L299.02,434.3L299.15,248.98L299.17,242.44L299.24,175.4L299.37,425.58L299.72,423.37L299.73,426.43L299.94,183.42L300.01,350.14L300.02,396.76L300.11,482.56L300.62,204.37L300.63,165.63L300.76,414.73L300.98,157.86L301.31,186.13L301.33,149.57L302.17,427.21L302.18,421.22L302.2,413.36L302.37,196.06L302.55,485.19L303.02,217.67L303.04,214.11L303.07,176.61L303.14,306.61L303.16,364.1L303.2,418.9L303.76,171.07L303.91,410.57L303.92,383.23L304.11,179.23L304.61,437.62L304.69,317.77L304.71,318.85L304.81,193.25L305,494.41L305.36,304.67L305.37,269.89L305.64,429.01L305.85,169.8L306.19,178.24L306.2,166.38L306.68,445.38L306.88,240.42L306.9,197.31L307.43,481.96L307.74,450.54L307.75,420.11L307.94,179.17L308.42,438.43L308.55,263.85L308.56,260.11L308.64,186.09L308.72,381.29L308.74,416.77L308.77,440.34L308.99,178.44L309.49,422.31L309.51,412.75L309.68,191.07L309.87,478.94L310.33,231.1L310.35,228.96L310.51,427.65L311.07,175.48L311.09,194.75L311.1,212.42L311.2,417.55L311.39,221.72L311.41,211.51L311.77,179.8L311.91,411.63L312.13,215.09L312.15,249.78L312.31,480.18L312.81,158.66L312.94,405.19L312.96,400.63L313.29,418.13L313.51,156.35L313.76,222.79L313.77,239.37L313.86,166.44L313.93,298.45L313.94,355.22L314.55,174.81L314.74,468.94L314.76,445.19L315.03,457.6L315.6,174.37L315.61,194.22L315.63,207.02L315.73,416.76L315.95,155.9L316.15,259.4L316.16,230.55L316.31,162.59L316.42,402.74L316.74,376.84L316.76,402.25L316.99,175.89L317.18,466.81L317.5,426.79L317.51,377.77L317.69,184.35L318.17,426.19L318.31,248.01L318.32,241.5L318.34,241.75L318.35,235.9L318.37,230.05L318.38,180.92L318.51,432.03L319.11,227.9L319.12,234.32L319.43,197.93L319.62,495.1L319.93,449.57L319.95,413.27L320.12,203.87L320.6,442.51L320.75,247.66L320.76,240.3L320.82,186.14L320.88,261.36L320.89,315.38L320.95,432.01L321.52,185.97L321.67,424.16L321.69,416.64L322.05,485.25L322.56,183.48L322.57,195.37L322.69,410.57L322.91,180.1L323.15,238.5L323.17,242.6L323.26,171.68L323.73,413.1L323.95,182.73L323.97,192.93L324.3,180.17L324.49,459.85L324.79,429.05L324.81,403.59L325,172.79L325.47,438.03L325.59,257.94L325.6,264.79L325.82,435.32L326.04,193.69L326.13,375.92L326.14,409.18L326.39,200.91L326.53,444.15L326.72,295.88L326.74,204.26L326.92,500.23L327.43,183.51L327.45,195.67L327.79,172.14L327.91,433.19L328.27,422.23L328.29,398.62L328.48,166.23L328.97,415.67L329.06,304.62L329.07,304.61L329.13,318.34L329.16,287.34L329.17,193.14L329.36,471.89L329.72,283.98L329.74,260.8L329.87,181.23L330.35,410.68L330.51,209.28L330.52,204.8L330.56,167.88L330.62,225.65L330.64,287.77L330.7,410.24L331.26,160.02L331.41,402.98L331.42,397.09L331.59,285.05L331.61,191.43L331.8,475.3L331.94,355.19L331.96,255.41L332.09,463.28L332.3,172.16L332.52,231.67L332.54,208.03L332.65,156.71L332.78,398.79L333.06,255.9L333.07,308.59L333.35,177.9L333.48,427.02L333.86,414.87L333.87,414.04L334.05,186.28L334.23,482.62L334.52,465.36L334.54,459.77L335.09,175.02L335.36,224.41L335.38,213.07L335.44,171.39L335.51,291.8L335.52,340.04L335.92,404.45L336.13,161.59L336.29,395.87L336.31,396.75L336.48,177.45L336.66,463.44L337.12,207.75L337.13,206.26L337.16,223.43L337.18,180.24L337.66,424.22L337.74,256.59L337.76,235.83L337.87,186.91L337.93,253.51L337.95,309.33L338.35,430.1L338.57,178.95L338.71,417.92L338.73,412.96L338.74,416.17L338.9,285.06L338.92,187.06L339.09,482.93L339.25,345.16L339.27,229.98L339.4,443.2L339.61,166.84L339.92,194.54L339.93,189.17L339.96,165.4L340.44,415.41L340.61,221.98L340.63,218.13L340.66,183.78L341.18,459.36L341.35,222.01L341.37,221.48L341.53,490.35L342.06,174.42L342.17,397.6L342.18,403.02L342.22,347.98L342.24,305.31L342.76,161.77L342.88,397.01L343.01,202.67L343.02,190.01L343.11,167.71L343.22,400.34L343.53,319.35L343.54,358.5L343.81,177.63L343.96,458.4L344.3,385.54L344.31,355.45L344.83,147.39L344.97,376.92L345.1,205.33L345.11,199.26L345.18,152.02L345.31,393.26L345.62,325.92L345.63,363.72L345.66,392.79L345.82,157.24L346.21,259.32L346.23,168.61L346.24,162.13L346.4,432.17L346.66,344.06L346.68,373.75L346.89,153.6L347.4,409.47L347.43,381.27L347.45,354.05L347.75,417.15L347.98,178.73L348.23,220.68L348.24,213.78L348.33,179.83L348.49,412.59L348.74,331.3L348.75,370.14L348.84,461.43L349.36,153.75L349.5,384.74L349.52,365.37L349.72,151.71L350.19,390.54L350.32,194.23L350.33,183.07L350.4,151.54L350.55,379.28L350.82,266.44L350.84,317.53L351.11,184.27L351.27,475.62L351.61,428.01L351.62,392.96L351.93,434.7L352.16,197.64L352.42,232.84L352.43,224.72L352.46,223.71L352.48,250.3L352.64,419.92L352.85,176.12L353.23,215.06L353.25,247.54L353.55,234.89L353.71,487.63L354.03,426.38L354.04,413.08L354.25,156.73L354.86,184.44L354.87,176.88L354.91,203.01L354.93,170.25L354.97,186.51L354.99,217.72L355.29,169.35L355.77,413.45L355.78,421.04L355.99,192.86L356.04,339.45L356.07,388.88L356.16,465.5L356.61,146.05L356.63,143.99L357.16,364.36L357.22,229.85L357.23,192.94L357.5,362.9L357.67,121.99L358,145.82L358.02,147.93L358.6,420.74L358.9,410.09L358.92,387.51L359.06,180.36L359.58,395.5L359.71,210.16L359.73,200.67L359.83,186L359.93,394.27L360.25,371.49L360.27,392.39L360.44,197.36L360.67,435.19L360.85,324.61L360.86,256.69L361.02,467.2L361.48,172.64L361.6,212.91L361.61,259.73L361.92,187.39L362.37,412.93L362.4,382.57L362.41,338.21L362.61,190L362.72,415.56L363.09,406.57L363.11,406.16L363.46,455.4L363.93,118.9L363.95,123.46L363.96,161.93L364.27,106.39L364.47,339.86L364.7,177.23L364.72,179.52L364.98,162.85L365.2,405.65L365.56,387.57L365.57,354.48L366.2,431.45L366.37,177.33L366.4,208.5L366.41,244.62L366.54,385.15L366.72,139.53L367.17,173.89L367.18,219.67L367.4,109.82L367.95,373.5L367.98,368.53L367.99,345.93L368.33,442.93L368.78,196.21L368.81,199.93L368.82,204.86L368.88,190.95L368.98,405.48L369.21,231.76L369.23,189.57L369.33,406.74L369.85,147.64L369.91,220.25L369.92,167.42L369.97,224.63L369.98,274.95L370.18,125.56L370.76,442.99L370.79,417.11L370.81,394L371.07,413.16L371.59,125.36L371.68,153.45L371.69,165.8L372.27,83.76L372.46,355.88L372.49,334.36L372.51,310.84L372.64,148.14L373.2,430.28L373.24,377.23L373.26,360.01L373.51,396.92L373.68,123.82L374.14,223.98L374.16,280.56L374.38,158.97L374.9,386.62L374.93,369.4L374.94,348.69L375.06,191.25L375.62,424.63L375.64,440.83L376.12,171.96L376.25,318.16L376.26,359.22L376.64,393.87L376.81,171.79L376.87,246.83L376.88,196.21L376.93,252.08L376.94,318.94L376.99,390.22L377.16,184.71L377.71,384.59L377.73,389.48L377.93,223.76L378.07,440.12L378.54,264.27L378.55,262.41L378.6,297.94L378.61,282.15L378.63,234.47L378.68,334.2L378.7,378.72L378.97,248.92L379.13,483.97L379.45,419.26L379.47,409.58L379.68,200.6L380.25,285.57L380.26,285.81L380.31,289.66L380.35,264.53L380.37,204.38L380.52,414.75L381.06,219.2L381.08,215.34L381.57,449.45L381.9,378.71L381.92,349.89L382.38,154.25L382.67,251.93L382.69,257.69L382.8,197.36L382.96,397.42L383.15,231.75L383.16,216.71L383.27,358.59L383.4,137.63L383.41,129.11L383.43,124.58L383.56,248.34L383.57,288.69L383.61,326.81L384.12,97.48L384.32,293.73L384.34,281.13L384.47,92.79L385.04,312.59L385.09,222.75L385.11,218.78L385.24,166.51L385.4,373.91L385.75,259.19L385.76,197.66L386.05,318.26L386.21,86.14L386.53,104.31L386.54,86.53L386.56,85.12L386.57,97.23L386.59,139.68L386.91,104.83L387.08,324.34L387.34,173.82L387.36,185.8L387.83,417.48L388.15,355.14L388.17,326.92L388.49,330.04L388.98,90L388.99,88.01L389.18,307.28L389.34,82L389.62,99.2L389.63,103.47L389.68,79.86L390.27,379.03L390.44,278.43L390.46,208.45L390.57,328.64L391.08,68.78L391.2,147.24L391.21,210.2L391.27,286.88L391.78,65.14L391.98,265.54L392,240.64L392.11,66.85L392.69,341.83L392.71,354.91L393.17,51.93L393.62,95.13L393.63,133.43L393.71,258.12L394.21,44.83L394.4,255.86L394.42,243.12L394.56,48.87L395.13,325.47L395.14,346.01L395.96,48.76L396.07,147.36L396.09,199.79L396.65,60.31L396.83,279.26L396.85,264.06L396.87,221.27L396.98,69.34L397.54,372.99L397.55,378.93L397.56,400.52L398.04,135.57L398.26,300.14L398.28,256.89L398.57,356.92L399.03,135.04L399.04,148.92L399.06,136.86L399.26,334.18L399.42,103.18L399.74,227.67L399.75,231.23L399.84,154.32L399.94,347.95L399.96,360.46L400,397.99L400.42,114.84L400.45,115.5L400.47,105.71L400.52,174.85L400.58,162.16L400.6,213.97L400.65,321.98L401.18,74.32L401.36,298.84L401.38,279.68L401.52,67.92L402.06,327.16L402.08,329.85L402.28,173.88L402.44,414.93L402.81,328.34L402.83,300.07L403.13,385.77L403.67,148.98L403.68,152.84L403.7,151.85L403.71,179.66L403.73,228L403.96,124.24L404.5,361.35L404.51,357.65L404.53,363.47L404.7,219.45L404.71,173.87L404.87,443.02L405.32,123.65L405.34,112.43L405.35,111.91L405.37,121.11L405.38,169.75L405.44,125.48L405.51,322.48L405.53,331.36L405.54,332.72L405.58,246.07L405.6,183.9L405.69,101.63L406.22,328.21L406.35,134.77L406.37,123.1L406.57,324.72L406.73,85.79L407.05,212.85L407.06,216.32L407.12,230.25L407.14,174.88L407.15,133.12L407.31,379.34L407.76,82.56L407.77,73.71L407.98,297.52L408.12,80.1L408.14,81.21L408.33,301.4L408.49,80.66L408.8,87.6L408.82,74.77L408.83,74.59L408.85,87.98L409.17,76.42L409.4,320.82L409.62,194.88L409.63,230.55L409.76,408.64L410.28,157.66L410.41,371.5L410.43,343.68L410.75,369.4L410.98,140.54L411.24,156.9L411.26,147.42L411.33,137.09L411.39,247.2L411.4,303.06L411.6,127.66L412.18,410.89L412.2,405.24L413,111L413.05,129.33L413.07,123.94L413.18,346.35L413.34,112.06L413.73,172.11L413.75,138.39L413.76,135.5L413.84,293L413.85,328.08L414.04,136.63L414.27,369.77L414.43,267.97L414.45,185.47L414.62,433.27L415.08,128.53L415.19,153.23L415.2,189.04L415.27,353.52L415.79,106.17L415.97,344.61L415.98,341.04L416.32,349.51L416.48,119L416.64,306.47L416.65,328.89L416.88,147.77L417.06,399.66L417.39,356.52L417.4,316.43L417.71,391.53L417.93,158.45L418.17,182.73L418.19,201.22L418.27,152.31L418.77,406.79L418.78,413.11L419.32,193.09L419.49,445.56L419.52,415.34L419.54,396.38L419.84,439.72L420.36,146.3L420.41,176.37L420.42,212.65L420.71,144.88L421.19,399.48L421.2,395.79L421.22,369.78L421.41,167.58L421.93,478.47L421.94,470.46L421.96,443.31L422.23,452.31L422.8,170.71L422.81,188.32L422.83,201.94L423.15,171.72L423.32,444.97L423.48,305.23L423.5,212.33L423.84,172.79L424.34,450.85L424.35,449.86L424.37,463.27L424.51,364.07L424.52,311.88L424.67,433.25L425.24,144.82L425.28,182.53L425.29,222.57L425.37,394.51L425.58,144.79L426.08,384.36L426.09,359.16L426.28,168.15L426.42,406.19L426.71,393.58L426.73,424.06L426.8,476.24L427.32,175.49L427.47,421.91L427.48,393.01L427.8,420.66L428.02,157.54L428.31,213.77L428.32,209.01L428.34,209.45L428.35,206.17L428.37,152.09L429.21,452.57L429.22,451.86L429.25,462.02L429.4,312.79L429.41,233L429.54,447.98L429.76,164.2L430.08,205.65L430.09,205.72L430.24,416.95L430.8,145.32L430.83,185.84L430.85,192.83L431.15,143.42L431.67,460.63L431.69,462.48L432.2,161.02L432.54,167.92L432.56,191.17L433.24,169.56L433.37,440.89L433.39,435.37L433.4,407.56L433.59,184.17L434.11,486.46L434.13,485.45L434.14,457.77L434.63,175.57L434.98,178.46L435,206.99L435.11,435.54L435.33,166.19L435.66,200.2L435.68,155.87L436.56,469.56L436.58,442.66L437.07,158.34L437.43,186.62L437.45,195.98L437.55,412.55L437.75,209.01L437.77,168.32L438.24,425.14L438.46,163.68L438.62,416.32L438.64,412.06L438.81,172.2L439,476.96L439.51,173.36L439.52,193.45L440.2,165.2L440.35,434.12L440.38,431.71L440.39,429.87L440.68,458.75L440.9,198.54L441.17,341L441.19,344.47L441.25,194.39L441.3,339L441.32,374.46L441.43,494.12L441.59,240.72L442.07,445.64L442.09,442.37L442.64,168.78L442.91,221.82L442.93,212.75L442.99,152.6L443.06,299.69L443.07,364.05L443.33,163.31L443.87,480.89L443.89,453.59L444.16,463.3L444.73,173.71L444.74,194.75L444.76,203.7L444.86,425.44L445.07,160.43L445.39,203.99L445.41,209.81L445.42,155.14L445.92,425.87L446.15,230.1L446.16,270.73L446.31,476.61L446.81,171.8L446.96,408.64L446.97,389.46L447.51,219L447.64,438.35L447.77,245.47L447.79,228.84L447.86,177.25L447.99,427.67L448.28,321.26L448.29,368.85L448.57,221.89L448.74,503.52L449.06,447.53L449.08,396.45L449.38,441L449.6,174.92L449.87,242.81L449.89,236.48L449.92,236.12L449.93,236.44L449.95,171.73L450.79,436.76L450.8,430.74L450.82,419.98L451.18,496.9L451.69,186.98L451.7,200.38L451.72,214.38L451.82,439.95L452.04,173.71L452.37,235.67L452.38,168.72L452.51,427.6L452.73,163.14L453.05,241.81L453.07,232.86L453.08,184.95L453.62,489.03L453.8,305.22L453.82,326.4L453.91,481.39L454.47,189.18L454.6,452.91L454.62,449.34L454.82,183.58L454.95,450.75L455.44,245.28L455.46,237.79L455.52,188.18L455.59,321.75L455.6,372.58L455.86,202.41L456.04,487.74L456.37,427.8L456.39,378.84L456.56,174.61L457.04,436L457.17,258.05L457.18,248.85L457.39,436.81L457.6,177.57L457.68,316.97L457.69,371.56L457.95,191.01L458.47,492.15L458.49,490.12L458.5,459.24L458.78,470.32L459.34,162.06L459.39,193.34L459.4,237.74L459.69,174.22L460.17,441.28L460.2,413.49L460.21,372.9L460.39,197.61L460.87,477L460.88,482.7L460.91,491.93L460.94,459.24L460.95,435.55L461.22,473.02L461.78,178.48L461.82,210.93L461.84,253.89L461.91,430.31L462.48,169.2L462.61,419.65L462.62,414.46L462.83,167.96L463.27,418.44L463.29,441.52L463.35,473.25L463.81,182.36L463.83,180.4L463.87,157.19L463.94,286.33L463.96,344.09L464.22,154.78L464.7,428.92L464.72,397.31L464.74,358.3L464.91,180.83L465.41,434.82L465.49,314.22L465.51,312.94L465.61,210.56L465.78,485.15L466.15,338.46L466.16,280L466.44,414.22L466.65,160.67L466.94,188.03L466.96,187.75L467,159.88L467.07,292.49L467.09,340.15L467.35,185.17L467.84,430.84L467.86,425.98L467.87,431.87L468.06,211.29L468.22,495.4L468.71,216.19L468.73,244.5L468.87,421.69L469.44,159.33L469.48,189.58L469.5,223.93L469.74,145.35L470.28,407.22L470.29,403.1L470.31,410.39L470.48,199.89L470.5,192.02L470.66,468.63L471.18,164.04L471.29,382.98L471.31,390.09L471.48,167.07L471.61,337.59L471.63,372.85L472.01,403.55L472.22,161L472.37,385.5L472.38,364.01L472.51,169.26L473.02,392.81L473.03,413.36L473.4,446.54L473.5,230.76L473.51,222.27L473.98,188.68L474.09,414.71L474.19,200.08L474.21,190.35L474.31,162.95L474.44,402.04L474.93,175.48L474.95,165.57L475.53,467.66L475.69,329.09L475.7,242.56L475.79,378.84L475.8,408.7L475.83,427.16L476.01,150.52L476.25,222.93L476.27,183.2L476.69,139.38L476.88,380.37L476.99,199.86L477.01,211.74L477.04,185.22L477.59,427.34L477.6,431.31L477.62,436.8L477.69,320.01L477.78,320.27L477.79,232.44L477.81,222.12L477.97,501.04L478.21,394L478.23,429.07L478.27,470.14L478.85,184.7L478.97,416.36L478.98,411.79L479.49,159.77L479.62,310.55L479.63,353.58L479.66,386.26L479.84,134.55L480.23,198.75L480.24,180.21L480.4,453.13L480.88,105.09L480.92,151.55L480.94,142.85L481.07,342.83L481.23,104.5L481.49,146.01L481.5,127.01L481.56,106.22L481.77,344.24L481.9,119.16L481.91,99.86L481.92,98.01L482.04,210.54L482.06,259.17L482.26,83.65L482.85,412.48L482.87,397.1L483.32,170.04L483.69,221.65L483.71,251.1L484.19,399.93L484.36,175.21L484.46,215.65L484.48,253.68L484.69,153.66L485.26,435.75L485.27,442.45L485.29,446.94L485.45,341.9L485.46,289.87L485.58,445.14L485.75,196.14L486.2,237.77L486.22,291.55L486.28,411.45L486.8,137.01L486.97,358.13L486.99,358.64L487.13,134.88L487.68,401.9L487.7,407.85L487.73,430.34L488.19,138.44L488.39,336.42L488.41,304.67L488.87,131L489.06,354.9L489.2,157L489.22,140.59L489.23,139.44L489.26,186.79L489.28,225.17L489.41,370.22L489.57,126.86L490.02,228.52L490.03,262.06L490.16,428.93L490.63,172.38L490.81,390.7L490.83,368.67L491.15,379.44L491.64,158.01L491.66,143.74L492.24,457.87L492.42,311.97L492.44,277.78L492.58,496.12L493.06,212.83L493.24,419.08L493.25,417.34L493.76,169.19L493.93,393.18L493.95,394.11L494.44,156.27L494.66,361.29L494.67,362.59L495.03,422.53L495.48,162.87L495.53,201.33L495.54,234.57L495.67,380.17L496.19,146.95L496.3,201.91L496.31,245.11L496.54,160.25L497.08,405.09L497.11,400.89L497.12,377.88L497.46,460.99L497.94,166.45L497.95,169.03L497.96,200.28L498.11,378.89L498.65,142.7L498.69,222.21L498.7,167.07L498.72,166.45L498.73,179.08L498.75,223.33L498.96,148.54L499.52,414.55L499.53,409.81L499.54,411.34L499.89,462.63L500.37,185.94L500.4,216.13L500.41,249.84L500.55,373.69L500.71,148.13L500.89,364.97L500.91,363.57L501.75,141.49L501.76,142.93L501.78,163.17L502.33,429.96L502.63,424.02L502.65,422.03L503.5,168.98L503.52,175.25L503.69,381.43L503.85,146.26L504.27,196.36L504.29,201.39L504.77,413.1L505.1,361.89L505.11,343.81L505.23,179.66L505.78,408.29L505.8,406.84L505.81,408.4L505.87,322.59L505.98,336.63L506,309.84L506.17,483.84L506.72,219.26L506.75,257.41L506.77,300.33L507.06,215.73L507.22,416.6L507.52,366.52L507.54,358.5L507.59,233.31L507.61,208.21L507.67,177.77L507.87,350.74L508.14,234.2L508.16,273.34L508.45,228.49L508.61,439.07L508.93,372.74L508.94,375.85L509.16,206.11L509.59,364.78L509.61,372.2L509.65,404.47L509.86,238.3L510,306.01L510.02,244.62L510.31,350.79L510.8,100.85L510.81,100.57L511,317.45L511.16,93.27L511.41,179.25L511.42,138.25L511.49,81.54L512.03,295.21L512.05,304.87L512.09,354.41L512.52,61.23L512.54,52.51L512.55,49.89L512.61,205.07L512.68,188.2L512.7,223.27L513.09,266.02L513.25,46.37L513.45,252.73L513.47,237.59L513.6,46.53L514.16,276.04L514.22,186.88L514.24,185.18L514.53,336.04L514.89,139.82L514.9,93.22L514.98,42.7L515.53,251.43L515.54,241.01L515.56,222.22L515.69,34.45L516.22,304.19L516.32,129.8L516.34,132.41L516.37,97.99L516.96,397.51L516.99,362.76L517.01,349.03L517.76,89.28L517.89,189.84L517.9,242.31L518.31,310.24L518.47,84.71L518.66,289.27L518.67,275.27L518.8,76.47L519.02,307.35L519.31,302.24L519.33,325.32L519.4,389.43L519.85,111.82L520.05,324.85L520.07,307.27L520.21,86.4L520.73,337.8L520.85,160.47L520.86,177.68L520.91,150.28L521.08,351.92L521.39,297.36L521.4,335.07L521.68,210.09L521.83,424.86L522.15,366L522.17,313.12L522.47,350.25L522.98,103.25L523,99.28L523.18,311.06L523.24,174.67L523.26,133.92L523.34,70.61L523.92,307.37L523.97,236.4L523.98,232.99L524.08,259.01L524.1,239.93L524.11,191.15L524.27,385.02L524.79,283.84L524.81,230.98L524.97,370.81L525.36,208.8L525.37,208.3L525.45,165.02L525.56,284.18L525.58,321.43L525.61,348.47L526.11,127.31L526.33,327.5L526.35,322.08L526.36,321.66L526.37,287.81L526.69,397.4L527.17,89.99L527.19,102.92L527.2,160L527.36,307.68L527.51,84.85L527.91,164.6L527.93,133.34L528.06,315.6L528.11,171.18L528.13,133.32L528.2,84.68L528.78,341.25L528.84,234.67L528.85,235.74L528.97,179.92L529.1,394.95L529.11,400.1L529.13,424.16L529.59,129.25L529.65,204.46L529.67,155.04L529.78,350.91L529.96,113.59L530.2,185.86L530.22,145.51L530.48,332.77L530.65,93.84L530.99,99.86L531,107.04L531.57,413.77L531.86,379.38L531.87,384.64L532.03,155.79L532.17,298.88L532.19,333.26L532.22,358.45L532.73,125.28L532.93,350.33L532.94,330.2L533.42,127.79L533.61,356.42L533.63,359.29L533.65,363.4L533.7,266.89L533.71,253.59L533.8,275.53L533.83,208.99L533.84,182.17L534,421.69L534.47,123.88L534.48,127.82L534.67,354.84L534.87,176.64L534.89,158.81L535,361.36L535.16,152.37L535.57,173.55L535.58,164.31L535.86,150.37L536.09,372.13L536.25,282.94L536.26,215.43L536.28,200.07L536.44,440.02L536.74,422.17L536.76,416.08L537.58,165.54L537.6,155.03L537.79,380.83L537.86,226.03L537.87,190.56L538.29,135.63L538.48,361.4L538.5,363.92L538.72,179.43L538.83,389.62L538.85,395.12L538.87,417.32L539.03,308.77L539.05,239.58L539.18,396.83L539.69,122.71L539.8,193.84L539.82,243.66L540.05,145.51L540.6,415.07L540.62,444.47L541.15,226.05L541.22,362.19L541.24,388.45L541.31,438.2L541.78,157.49L541.98,379.62L541.99,355.14L542.31,406.82L542.53,192.33L542.67,401.84L542.69,378.39L543.01,402.33L543.23,183.42L543.47,285.42L543.49,288.07L543.57,203.6L543.75,458.12L544.11,311.63L544.12,260.46L544.4,394.01L544.92,153.29L544.94,159.44L544.97,155.48L545.44,379.72L545.69,202.23L545.71,203.81L546.01,184.54L546.18,436.84L546.52,395.75L546.53,384.5L546.88,399.02L547.34,174.9L547.36,176.47L547.37,181.4L547.88,402.77L548.04,174.87L548.08,216.49L548.1,182.44L548.62,479.57L548.95,424.03L548.97,383.2L549.27,424.19L549.49,185.45L549.75,232.57L549.77,223.44L549.84,196.26L549.97,424.72L550.26,346.04L550.27,390.93L550.88,250.17L551.06,495.1L551.07,490.34L551.09,463.45L551.58,181.43L551.94,211.14L551.96,228.63L551.97,228L551.99,264.56L552,319.07L552.28,208.85L552.75,452.36L552.77,448.14L552.78,421.66L552.97,233.18L553.46,493.16L553.48,493.17L553.49,505.25L554,232.78L554.02,198.64L554.36,190.41L554.84,452.2L554.87,415.66L554.89,369.04L555.06,209.26L555.55,454.72L555.64,349.76L555.65,348.36L555.71,362.48L555.74,302.83L555.76,236.72L555.93,502.07L556.45,214.91L556.58,450.3L556.6,443.59L556.93,444.77L557.15,202.08L557.41,257.34L557.42,246.1L557.5,198.31L557.6,418.43L557.61,434.36L557.63,439.74L557.71,267.12L557.73,245.37L557.84,207.41L557.92,331.53L557.93,378.55L558.19,221.41L558.38,495.25L558.7,434.65L558.71,387.7L559.02,425.92L559.24,182.18L559.53,207.77L559.54,208.87L559.58,178.45L559.67,358.13L559.69,392.34L559.93,185.67L560.41,445.02L560.45,432.83L560.47,417.63L560.63,230.42L560.82,487.74L561.25,257.95L561.27,249.13L561.32,211.82L561.38,282.11L561.4,338.51L561.67,208.09L562.17,462.62L562.18,460.73L562.37,257.29L562.5,481.64L562.59,332.87L562.6,313.58L562.63,316.31L562.67,305.01L562.69,306.26L562.7,289.61L563.06,232.06L563.25,506.37L563.43,297.89L563.44,320.65L563.54,488.34L563.76,217.44L564.02,258.05L564.04,245.93L564.24,440.98L564.46,200.6L564.56,413.23L564.57,431.86L564.59,437.37L564.67,267.61L564.69,241.74L564.81,190.42L564.94,432.48L565.24,372.66L565.25,406.89L565.5,219.18L565.69,491.58L566.01,425.74L566.02,377.93L566.2,217.52L566.68,458.9L566.82,260.53L566.84,250.96L566.89,205.1L566.97,340.15L566.98,393.85L567.24,195.4L567.73,471.37L567.75,466.45L567.76,458.72L567.94,245.19L568.13,519.37L568.37,465.12L568.39,489.83L568.42,502.46L568.63,228.93L568.91,270.63L568.92,260.86L568.97,251.79L568.98,214.32L569.46,466.73L569.66,265.58L569.68,224.9L570.56,529.55L570.58,505.91L570.85,508L571.42,220.25L571.43,238.71L571.45,259.04L571.55,464.86L571.77,214.56L571.98,283.81L572,263.07L572.11,211.46L572.19,344.06L572.2,391.48L572.46,211.56L573,516.03L573.01,494.47L573.03,474.62L573.29,507.6L573.85,222.16L573.88,254.32L573.9,262.09L574.2,207.94L574.68,462.67L574.7,461.67L574.71,441.9L574.9,221.65L575.42,502.87L575.44,510.64L576.29,201.16L576.31,220.56L576.99,204.04L577.12,437.55L577.13,433.92L577.15,412.26L577.33,211.2L577.86,498.48L577.87,507.66L578.38,215.29L578.77,258.99L578.79,291.15L579.21,457.18L579.42,214.78L579.57,448.03L579.58,422.56L579.77,205.04L580.26,490.56L580.28,489.95L580.31,503.78L580.47,283.24L580.67,327.87L580.69,297.49L580.95,452.63L581.16,207.81L581.45,233.97L581.47,232.18L581.51,197.98L581.64,449.51L582.06,298.88L582.08,268.4L582.21,209.15L582.72,486.19L582.73,499.01L582.74,501.15L582.89,373.18L582.9,274.75L583.03,478.99L583.25,215.39L583.51,244.23L583.53,231.43L583.73,439.8L583.95,196.11L584.27,224.09L584.28,254.57L584.43,434.47L584.64,198.68L585.02,260.16L585.04,289.94L585.18,485.33L585.69,215.13L585.83,434.95L585.85,407.8L586.17,443.24L586.38,205.19L586.63,240.33L586.65,251.09L586.73,203.77L586.86,442.19L587.34,328.13L587.36,333.44L587.43,218.16L587.6,485.88L587.97,344.77L587.98,292.93L588.26,423.74L588.47,191.36L588.75,211.68L588.76,196.86L588.82,187.6L588.88,252.19L588.89,308.57L589.17,209.14L589.66,432.99L589.68,428.21L589.69,430.57L590.04,489.86L590.56,212.19L590.58,221.26L590.59,236.23L590.69,427.78L590.91,212.09L591.11,282.64L591.13,255.56L591.26,199.01L591.74,429.37L591.88,242.87L591.9,235.91L591.95,216.93L592.1,441.68L592.29,321.8L592.3,231.82L592.37,372.22L592.39,410.69L592.48,499.97L592.94,195.44L593.14,416.11L593.16,393.25L593.29,182.52L593.82,425.45L593.95,240.5L593.97,226.44L594.04,207.82L594.56,430.37L594.58,409.82L594.75,254.2L594.91,494.48L595.33,392.67L595.35,388.22L595.56,461.24L595.68,233.46L595.71,240.5L595.72,232.67L595.74,230.77L595.84,278.4L595.85,331.31L596.26,432.26L596.48,191.89L596.62,410.83L596.64,385.35L596.83,199.74L597.35,492.55L597.36,484.3L597.38,463.4L597.65,475.06L598.23,212.43L598.25,228.36L598.35,426.49L598.52,170.39L598.57,186.25L598.58,187.15L598.7,399.05L598.87,151.11L599.13,193.65L599.15,161.85L599.2,139.68L599.39,364.78L599.41,371.57L599.62,204.58L599.78,457.2L599.94,346.93L599.96,267.15L600.09,420.18L600.6,137.77L600.71,210.49L600.73,262.59L600.79,375.91L601.31,104.95L601.48,336.49L601.5,337.98L601.6,129.49L601.87,375.94L602.13,348.62L602.15,377.26L602.22,449.27L602.7,182.06L602.89,390.19L602.9,370.28L603.22,402.72L603.38,179.61L603.54,370.84L603.56,392.54L603.57,401.13L604.03,161.42L604.05,173.31L604.06,153.67L604.08,140.35L604.31,388.85L604.54,293.99L604.56,324.51L604.66,455.13L605.12,198.51L605.32,398.53L605.34,383.53L605.66,411.41L606.17,151.48L606.18,147.53L607.09,447.5L607.11,433.38L607.12,413.15L607.44,461.5L607.91,162.6L608.02,212.61L608.04,263.63L608.09,371.54L608.6,102.08L608.8,320.69L608.82,322.64L608.95,92.63L609.18,360.41L609.41,264.26L609.43,291.16L609.54,440.69L610.01,182.49L610.21,352.53L610.23,320.46L610.55,336.37L610.69,110.12L611.04,125.85L611.05,132.26L611.98,461.95L612,443.96L612.01,425.07L612.27,428.08L612.79,164.4L612.88,209.35L612.89,219.32L613.14,183.71L613.66,390.74L613.69,373.49L613.71,356.45L613.84,191.27L614.42,442.4L614.43,424.77L614.45,408.76L614.77,444.57L615.23,172.22L615.33,217.97L615.35,261.98L615.58,146.51L615.77,374.92L616.11,369.61L616.13,348.07L616.26,167.41L616.82,447.84L616.84,461.39L616.85,466.8L617.22,265.24L617.23,229.04L617.49,379.16L618,120.59L618.03,135.33L618.04,178.09L618.55,338.15L618.7,115.1L618.8,213.09L618.81,215.06L619.13,213.13L619.29,417.56L619.62,336.46L619.64,301.29L620.1,160.62L620.28,385.09L620.41,177.24L620.42,158.43L620.64,350.51L620.78,121.18L620.96,321.31L620.97,334.79L621.22,233.81L621.36,382.8L621.54,312.55L621.55,280.57L621.71,468.4L622.19,188.97L622.29,248.75L622.31,292.59L622.36,394.52L622.87,178.41L623.06,383.01L623.08,380.99L623.23,156.96L623.8,384.66L623.86,281.22L623.87,277.81L623.97,291.06L623.99,254.75L624,229.48L624.15,433.83L624.61,192L624.63,193.31L624.8,395.45L624.97,180.72L625.28,190.92L625.29,177.3L625.31,164.22L625.51,383.76L625.8,325.46L625.82,361.21L626,169.54L626.58,426.77L626.6,424.46L626.61,407.59L626.89,407.75L627.41,188.8L627.51,242.6L627.53,283.53L627.59,394.45L627.76,157.09L628.28,354.08L628.3,354.59L628.44,145.71L628.98,386.79L628.99,397.37L629.04,427.98L629.21,312.33L629.22,258.19L629.33,382.82L629.83,115.08L629.96,213.44L629.98,261.13L630.38,340.17L630.53,134.77L630.75,326.8L630.76,320.31L630.88,136.22L631.44,374.33L631.46,396.23L631.47,400.43L631.67,246.55L631.83,273.36L631.85,232.59L632.12,355.73L632.28,168.88L632.62,176.31L632.63,173.75L633.21,421.75L633.57,374.13L633.59,342.94L633.91,413.87L634.37,206.85L634.39,210.24L634.4,232.03L634.46,211.8L634.91,369.28L635.14,238.85L635.16,231.67L635.49,222.79L635.65,430.88L635.82,345.18L635.84,286.01L636.19,250.34L636.34,428.58L636.45,376.33L636.46,374.24L636.65,414.18L636.72,255.49L636.74,228.57L636.81,205.69L636.85,274.76L636.92,265.93L636.94,313.14L637,385.55L637.5,176.03L637.69,358.35L637.71,346.72L638.19,143.13L638.39,337.16L638.4,338.73L638.62,209.48L638.78,401.45L638.97,243.53L638.98,235.96L639.07,350.93L639.14,221.23L639.16,184.91L639.23,150.39L639.78,340.41L639.91,156.94L639.93,146.52L639.94,143.37L640.1,321.57L640.12,330.01L640.13,332.9L640.26,171.77L640.27,155.56L640.83,371.35L641.03,295.07L641.04,282.15L641.22,446.55L641.68,210.16L641.78,248.38L641.8,294.76L642.03,211.9L642.55,399.84L642.57,397.93L642.58,380.93L643.06,192.86L643.26,396.11L643.29,386.02L643.31,381.08L643.65,442.67L644.12,166.49L644.13,171.81L644.31,348.93L644.47,111.89L644.87,225.74L644.89,192.38L645.16,138.16L645.34,347.68L645.55,234.47L645.57,240.4L645.58,195.62L646.09,406.84L646.31,220.67L646.32,242.45L646.39,349.98L646.89,81.4L647.09,299.59L647.11,288.08L647.25,76.94L647.79,311.04L647.9,134.45L647.92,112.53L647.93,96.73L648.5,372.13L648.51,382.38L648.53,403.46L649.08,222.95L649.22,363.55L649.24,343.89L650.02,99.04L650.06,157.29L650.08,207.68L650.37,131.49L650.57,342.46L650.79,249.56L650.8,197.26L650.96,401.88L651.31,238.62L651.33,178.53L651.41,91.92L651.96,324.27L652.09,100.38L652.11,85.36L652.12,84.73L652.14,95.86L652.15,144.16L652.31,315.31L652.8,85.58L652.89,169.16L652.91,160.93L653.38,394.16L653.56,267.23L653.57,227.73L653.69,364.59L653.76,198.45L653.78,165.67L654.04,333.55L654.55,108.97L654.56,111.12L655.1,324.83L655.24,97.65L655.31,145.27L655.33,150.72L655.37,206.62L655.39,245.85L655.66,165.14L655.82,387.14L656.15,322.33L656.17,300.41L656.23,151.1L656.82,377.78L656.94,175.63L656.95,187.4L657.17,359.07L657.34,152.69L657.5,339.52L657.52,345.82L657.68,133.67L657.88,357.34L657.9,357.93L658.1,189.51L658.26,428.97L658.61,321.11L658.62,275.22L658.91,343.6L659.07,113.7L659.39,137.34L659.4,116.97L659.42,101.42L659.62,326.67L659.91,266.29L659.93,301.79L660.11,140.24L660.69,431.01L660.72,403.99L660.74,386.3L661,405.25L661.51,135.84L661.61,174.52L661.62,205.54L662.04,370.89L662.2,135.15L662.41,362.24L662.42,341.52L662.55,128.66L663.12,399.23L663.13,424.04L663.94,98.12L664.06,173.95L664.07,215.51L664.29,102.17L664.87,407.02L664.89,404.3L664.9,384.66L665.41,213.38L665.57,433.99L665.65,355.91L665.67,358.36L665.68,359.16L665.73,327.14L665.74,254.1L665.87,376.2L666.39,107.98L666.51,226.12L666.52,278.31L666.58,342.85L667.07,104.17L667.29,314.54L667.31,297.93L667.42,117.39L668,418.9L668.03,390.18L668.05,368.81L668.82,111.26L668.92,156.25L668.93,183.52L669.02,344.94L669.51,104.32L669.71,328.56L669.73,309.87L669.86,109.22L670.41,376.36L670.42,382.66L670.44,408.63L670.9,110.99L670.99,170.72L671.01,164.01L671.09,342.32L671.6,107.39L671.8,338L671.82,318.97L671.95,106.9L672.53,351.88L672.59,242.03L672.6,242.28L672.7,179.64L672.88,415.83L673.24,274.7L673.25,208.85L673.53,336.25L674.04,102.6L674.05,107.81L674.27,366.64L674.78,227.97L674.79,187.54L675.33,427.2L675.65,359.33L675.66,330.87L675.78,121.24L676.31,359.65L676.43,193.54L676.44,212.65L676.53,196.44L676.63,382.2L676.65,399.34L676.88,213.94L677.01,440.59L677.21,266.79L677.23,236.05L677.75,519.11L678.08,459.27L678.1,418.88L678.4,448.71L678.62,211.27L678.89,237.21L678.91,225.9L678.97,205.23L679.02,269.74L679.04,318.41L679.1,426.83L679.31,198.56L679.81,418.17L679.82,417.08L679.84,416.59L679.85,395.44L680.19,471.01L680.65,206.85L680.68,215.64L680.69,224.6L680.84,405.4L681.4,174.77L681.45,204.26L681.46,237.62L681.75,182.42L682.24,427.31L682.27,420.18L682.29,403.23L682.64,487.58L683.1,215.23L683.11,218.42L683.14,208.32L683.27,419.25L683.43,225.88L683.45,226.37L683.49,198.71L683.97,432.58L684.06,260.41L684.07,242.07L684.19,207.44L684.27,367.9L684.29,403.24L684.54,194.84L685.06,468.06L685.07,467.51L685.09,441.61L685.36,441.93L685.58,210.97L685.93,217.24L685.94,236.06L686.28,218.1L686.45,451.11L686.6,352.46L686.61,306.33L686.75,452.22L686.97,222.7L687.36,306.16L687.38,341.42L687.51,499.06L688.02,203.52L688.15,426.97L688.16,423.71L688.36,179.35L689,211.27L689.02,210.5L689.06,185.33L689.12,248.62L689.13,295.89L689.41,197.42L689.93,458.27L689.95,465.28L690.45,199.53L690.8,203.51L690.82,218.88L691.15,200.43L691.28,432.91L691.47,265.07L691.48,254.11L691.5,215.68L691.99,456.23L692.21,266.51L692.22,302.14L692.38,526.41L692.89,233.28L692.9,252.6L692.92,265.41L693.02,472.55L693.25,232.49L693.57,252.43L693.59,206.52L693.72,458.87L693.93,202.7L694.44,449.43L694.46,444.13L694.63,222.91L694.82,510.23L695.33,223.93L695.34,237.64L695.46,455.26L695.67,215.69L695.99,253.33L696.01,243.95L696.37,205.84L696.5,455.77L696.75,265.72L696.76,276.97L697.07,226.13L697.25,514.08L697.57,458.06L697.59,411.25L697.89,458.12L698.11,212.96L698.37,273.32L698.39,265.53L698.46,209.45L698.59,456.55L698.89,398.84L698.91,432.04L699.15,217.58L699.69,505.89L699.71,482.52L699.98,484.78L700.55,200.06L700.56,218.53L700.58,232.86L700.68,443.24L700.89,202.51L701.18,250.9L701.2,249.16L701.24,205.97L701.33,380.39L701.34,413.75L701.59,210.86L701.76,458.11L701.92,315.87L701.94,237.17L702.13,506.35L702.63,204.07L702.66,232.24L702.68,240.25L702.77,436.1L702.98,185.92L703.48,423.32L703.49,400.72L703.81,423.29L704.03,188.77L704.26,311.27L704.27,308.29L704.32,324.02L704.36,287.3L704.37,217.11L704.56,497.06L705.01,273.14L705.03,274.18L705.07,221.63L705.14,354.72L705.16,395.79L705.55,453.43L705.77,206.91L705.91,440.61L705.93,417.26L706.12,209.67L706.61,450.44L706.7,343.9L706.71,340.65L706.77,348.87L706.8,305.58L706.81,219.99L707,501.29L707.43,257.48L707.45,246.12L707.51,211.22L707.61,411.9L707.62,429.43L707.64,439.84L707.86,199.22L708.06,294.05L708.07,259.94L708.2,192.51L708.33,434.01L708.65,410.65L708.67,430.03L708.68,439.22L708.9,205.73L709.23,301.85L709.25,220.42L709.44,500.15L709.93,266.99L709.94,215.84L710,270.91L710.02,332.05L710.64,202.44L710.77,441.01L710.78,435.41L710.8,409.63L710.99,206.44L711.12,437.59L711.57,323.82L711.58,318.51L711.61,320.09L711.67,296.47L711.68,208.85L711.87,481.54L712.24,302.4L712.25,269.13L712.51,419.67L712.73,200.13L713,246.78L713.02,239.06L713.08,210L713.16,369.35L713.18,407.52L713.42,212.88L713.92,446.31L713.93,441.74L713.95,440.99L714.31,499.33L714.82,217.03L714.83,222.86L714.95,427.69L715.16,197.87L715.38,247.41L715.4,218.08L715.51,179.99L715.64,402.19L715.96,369.81L715.98,389.72L716.21,189.81L716.75,462.03L716.76,440.53L716.77,416.16L717.02,470.3L717.6,222.67L717.64,250.03L717.66,286.03L717.73,452.51L718.3,207.68L718.43,432.98L718.44,428.94L718.66,210.75L718.82,434.45L719.09,431.02L719.11,453.42L719.17,493.41L719.63,198.34L719.67,237.49L719.69,190.63L719.82,408.6L720.04,179.69L720.25,244.34L720.27,226.17L720.39,204.66L720.52,417.6L720.79,258.11L720.81,311.53L721.08,205.33L721.59,473.37L721.6,493.35L722.13,214.97L722.24,417.23L722.26,424.51L722.47,204.73L722.65,434.95L722.89,347.9L722.91,391.27L722.95,439.99L723.17,212.36L723.66,429.9L723.68,426.34L723.87,223.93L724.04,484.57L724.37,410.65L724.39,378.93L724.69,397.22L724.87,161.89L725.17,193.09L725.19,178.18L725.2,167.13L725.39,394L725.72,391.85L725.74,403.36L725.79,315.2L725.81,270.59L726.3,209.92L726.48,465.33L726.49,453.29L726.51,425.29L726.78,426.73L726.94,180.32L727.32,220.76L727.33,251.98L727.82,428.06L728.04,205.35L728.09,227.35L728.1,257.95L728.33,200.02L728.88,469.03L728.9,470.46L728.91,491.56L729.45,228.69L729.59,413.2L729.61,384.31L729.91,433.5L730.09,205.69L730.39,224.23L730.41,208.32L730.42,195.24L730.99,420.29L731,430.79L731.35,495.62L731.77,239.66L731.84,243.52L731.86,263.87L732.23,217.02L732.35,440.78L732.61,248.74L732.63,286.35L733.05,458.79L733.28,227.35L733.39,448.56L733.41,449.27L733.63,230.28L733.79,499.5L733.96,296.66L733.97,283.06L734.09,457.31L734.58,222.85L734.6,211.87L734.71,266.76L734.73,314.71L734.83,455.84L735.31,179.87L735.48,390.22L735.5,387.67L735.64,188.71L735.87,407.86L736.15,359.62L736.16,394.43L736.24,454.31L736.64,168.39L736.66,172.84L736.89,343.96L737.4,98.7L737.41,109.47L737.43,153.73L737.73,117.57L737.93,336.46L738.19,220.79L738.21,256.02L738.51,251.72L738.67,456.3L738.99,390.03L739.01,358.22L739.14,157.57L739.66,371.76L739.8,158.26L739.82,164.61L739.83,149.64L740.37,366.12L740.53,216.53L740.54,230.91L741.11,488.95L741.43,425.41L741.44,390.34L741.92,189.26L742.14,415.85L742.18,359.6L742.2,341.39L742.6,188.56L742.79,392.04L742.99,250.91L743.01,271.03L743.04,233.86L743.55,478.17L743.73,291.57L743.75,299.95L743.84,446.67L744.36,179.49L744.43,209.38L744.44,211.21L744.53,393.9L744.71,164.18L745,181.9L745.01,187.55L745.39,138.3L745.62,381.64L745.68,297.13L745.69,298.75L745.82,257.93L745.88,383.5L745.89,416.37L745.98,466.77L746.5,292.76L746.52,273.42L746.66,465.02L747.14,202.26L747.33,416.96L747.34,393.5L747.48,191.81L748,441.94L748.01,453.31L748.26,286.81L748.4,519.83L748.58,387.33L748.59,349.39L748.71,476.41L749.22,206.62L749.35,306.05L749.36,348.89L749.4,415.25L749.93,194.71L750.11,403.32L750.13,383.83L750.26,179.24L750.84,452.59L750.85,447.94L750.87,426.9L751.3,139.86L751.7,196.62L751.71,234.18L751.74,198.59L752.19,425.63L752.39,260.68L752.41,280.46L752.54,422.98L752.71,208.12L753.15,259.71L753.16,293.68L753.29,446.93L753.74,211.21L753.94,410.19L753.96,392.11L754.28,398.87L754.8,159.55L754.81,168.4L755.13,153.48L755.71,424.41L755.73,425.63L756.52,154.27L756.57,195.02L756.58,230.21L756.73,371.5L756.87,179.58L757,278.06L757.02,325.86L757.22,239.14L757.77,436.69L757.79,431.97L757.8,435.79L758.15,468.14L758.61,201.44L758.66,239.14L758.67,265.98L758.71,221.91L758.74,282.75L758.76,329.05L758.82,400.9L759.32,190.38L759.51,378.95L759.53,368.24L759.67,192.01L760.22,379.47L760.24,396.72L760.44,226.75L760.6,440.67L760.85,336.97L760.86,365.91L760.9,398.36L761.38,168.67L761.4,160.18L761.41,159.75L761.43,169.42L761.44,201.8L761.75,167.58L761.95,329.08L762.18,203.3L762.2,193.76L762.25,293.86L762.27,314.79L762.88,215.91L763.04,425.94L763.07,397.97L763.08,384.72L763.14,390.96L763.83,128.79L763.98,251.26L763.99,286.14L764.04,325.58L764.53,118.2L764.62,177.72L764.63,169.06L764.65,166.95L764.68,241.19L764.69,275.23L764.88,109.28L765.47,372.85L765.49,358.47L765.92,87.64L766.33,191.92L766.34,197.69L766.62,82.41L766.82,297.65L767.08,185.32L767.1,218.1L767.33,153.72L767.89,382.85L767.91,397.5L768.36,131.83L768.76,229.22L768.78,231.33L768.91,327.46L769.07,141.89L769.52,199.57L769.53,233.38L769.77,185.57L770.35,421.45L770.36,404.63L770.37,386.08L771.16,115.79L771.27,207.07L771.29,255.32L771.35,329.19L771.85,131.16L772.04,322.92L772.06,308.48L772.19,133.19L772.78,390.24L772.8,377.03L773.23,104.5L773.64,205.42L773.65,206.35L773.78,319.16L773.94,119.45L774.39,176.48L774.41,219.68L774.62,129.88L775.19,371.65L775.2,378.6L775.22,396.32L775.65,128.8L775.67,112.71L775.73,202.47L775.74,206.19L776.03,109.41L776.22,330.24L776.48,162.52L776.49,209.14L776.57,331.33L777.07,116.83L777.26,317.42L777.28,319.24L777.5,178.6L777.65,386.18L777.94,336.32L777.96,336.75L778.8,79.14L778.81,79.93L778.83,91.27L779,293.61L779.5,74.42L779.58,136.33L779.6,136.5L780.08,366.44L780.42,275.35L780.44,222.45L780.54,55.38L781.09,289.56L781.19,91.37L781.21,102.53L781.44,288.1L781.58,51.33L781.95,94.16L781.96,116.65L782.51,393.2L782.8,368.78L782.82,377.32L782.86,379.87L782.93,270.49L782.95,270.8L782.96,263.41L783.05,209.78L783.15,349.24L783.17,359.72L783.21,378.75L783.4,192.89L783.6,212.96L783.62,189.21L783.88,304.95L784.02,100.92L784.15,215.26L784.17,257.08L784.37,100.57L784.95,376.85L784.96,372.34L785.76,91.21L785.88,157.23L785.89,198.98L786.3,315.23L786.47,81.71L786.66,295.89L786.68,279.31L786.81,63.42L787.34,325.53L787.36,334.9L787.39,366.84L787.76,168.99L787.78,130.98L787.85,88.31L788.39,325.63L788.53,110.92L788.55,101.34L788.73,321.02L788.91,84.94L789.15,158.39L789.17,120.94L789.24,83.93L789.79,399.67L789.81,401.34L789.82,419.07L790.29,183.17L790.52,337.7L790.53,297.08L790.82,381.61L791.33,146.74L791.34,148.15L791.52,360.83L791.68,131.25L792.04,248.03L792.06,251.3L792.1,170.94L792.17,314.73L792.19,344.31L792.26,412.33L792.72,153.21L792.93,356.96L792.94,332.76L793.07,165.7L793.61,393.76L793.72,192.34L793.74,206.04L793.77,178.32L794.32,403.36L794.42,296.5L794.43,297.93L794.54,215.66L794.59,339.02L794.61,376.05L794.69,461.75L795.17,178.5L795.35,380.31L795.36,375.31L795.87,132.76L796.22,139.89L796.23,148.37L796.55,146.12L797.13,421.94L797.15,417.68L797.94,125.03L798,144.69L798.02,154.92L798.87,438.66L798.92,391L798.93,371.55L799.39,217.65L799.57,447.78L799.67,376.43L799.68,380.49L799.87,407.68L800.03,178.66L800.18,329.49L800.19,360.7L800.44,185.16L800.57,400.73L800.77,231.18L800.79,185.99L801.13,182.51L801.63,410.68L801.66,408.94L801.67,389.7L801.83,218.47L802,459.02L802.45,229.05L802.47,218.16L802.51,239.94L802.53,200.06L802.57,226.47L802.58,258.99L802.66,419.44L803.22,168.65L803.35,385.34L803.37,380.45L803.57,176.2L804.06,435.05L804.12,371.08L804.14,343.22L804.27,237.91L804.76,495.92L804.77,493.63L804.79,506.31L805.31,205.58L805.43,425.82L805.44,436.81L805.66,197.01L805.75,364.07L805.76,399.53L805.79,425.07L806.01,185.32L806.51,403.68L806.53,399.65L806.7,205.34L806.88,467.59L807.36,228.08L807.37,232.45L807.53,424.88L807.75,198.96L808.05,219.91L808.07,226.12L808.09,188.89L808.57,429.19L808.7,250.28L808.72,237.01L808.79,203.69L808.94,431.61L809.21,356.98L809.23,392.55L809.31,470.14L809.84,192.83L809.98,412.9L809.99,383.49L810.18,181.87L810.66,424.13L810.79,243.69L810.81,235.81L810.88,183.76L811.01,414.87L811.34,409.53L811.36,419.68L811.37,419.91L811.39,413.39L811.4,402.77L811.58,204.86L811.76,464.59L812.03,432.55L812.04,447.1L812.05,451.74L812.26,220.67L812.27,186.07L812.4,430.22L812.62,178.98L812.92,229.01L812.94,230.43L812.97,187.24L813,222L813.01,231.21L813.1,426.98L813.66,189.71L813.82,414.4L813.84,409.13L814.01,207.86L814.2,474.89L814.66,239.18L814.68,243.51L814.71,200.02L814.75,244.34L814.77,284.45L814.84,441.72L815.4,198.51L815.53,436.63L815.55,431.98L815.75,199.06L816.25,442.93L816.33,333.86L816.35,329.66L816.39,335.9L816.42,326.1L816.43,285.36L816.64,482.96L817.14,191.87L817.19,225.71L817.2,261.49L817.27,416.33L817.84,166.4L817.99,403.32L818,375.65L818.19,162.78L818.68,428.65L818.75,341.06L818.77,326.97L818.88,218.13L818.94,354.69L818.96,390.54L819.07,499.29L819.58,195.49L819.71,431.8L819.73,427L819.93,184.38L820.42,435.08L820.49,372.03L820.51,351.59L820.76,447.62L820.97,207.32L821.09,438.44L821.1,448.86L821.12,451.7L821.19,370.38L821.2,352.79L821.32,219.62L821.42,440.56L821.44,459.63L821.51,487.86L822,238.7L822.02,200.58L822.84,446.59L822.87,412.38L822.89,364.46L823.06,193.33L823.19,448.07L823.64,334.62L823.66,331.63L823.76,214.63L823.83,388.91L823.84,421.52L823.95,495.96L824.44,251.91L824.45,205.57L824.58,453.97L824.8,199.66L825.02,282.64L825.03,262.91L825.15,192.09L825.22,343.26L825.24,388.04L825.5,190.73L825.99,445.75L826.01,438.93L826.19,223.44L826.38,500.92L826.64,471.07L826.66,482.67L826.67,487.31L826.88,269.05L826.89,224.01L827.02,468.65L827.59,205.63L827.73,452.14L827.75,429.73L827.93,202.69L828.43,452.75L828.51,346.94L828.53,344.13L828.57,351.72L828.62,296.87L828.63,228.77L828.82,512.63L829.33,215.02L829.46,453.7L829.47,448.12L829.8,450.84L830.02,203.29L830.14,441.15L830.15,448.53L830.21,351.34L830.23,309.47L830.37,198.74L830.86,449.59L830.95,345.22L830.97,343.22L831.07,225.82L831.14,389.55L831.15,423.18L831.26,498.71L831.7,259.35L831.75,264.61L831.76,210.29L832.24,464.71L832.39,278.04L832.4,273.76L832.44,265.1L832.46,214.18L832.59,457.78L832.81,210.69L833.31,447.11L833.33,438.51L833.69,501.99L834.2,207.82L834.21,217.97L834.23,236.19L834.33,444.8L834.9,195.21L835.05,418.8L835.07,386.75L835.24,196.66L835.74,449.47L835.82,347.23L835.84,344.18L835.94,226.38L836.13,498.94L836.27,364.18L836.29,270.96L836.42,485.23L836.98,216.12L837.11,455.03L837.13,450.38L837.33,204.81L837.94,270.24L837.96,261.63L838.03,220.51L838.17,446.96L838.43,355.85L838.45,395.7L838.56,502.13L839.07,218.8L839.2,448.57L839.22,446.18L839.77,189.56L840.04,240.37L840.06,230.4L840.12,208.5L840.17,277.5L840.19,320.28L840.46,210.95L840.96,474.05L840.97,473.53L840.99,483.36L841.02,452.11L841.03,424.79L841.29,463.24L841.51,208.38L841.87,220.74L841.89,230.14L842.2,201.48L842.33,431.71L842.54,230.89L842.55,196.45L842.68,425.72L843.2,313.07L843.22,307.44L843.25,216.14L843.42,478.61L843.97,234.24L843.99,253.16L844.42,453.48L844.64,212.46L844.79,444.29L844.8,415.63L844.99,214.18L845.12,448.08L845.57,331.94L845.58,328.53L845.64,335.06L845.67,315.14L845.68,232.14L845.86,501.91L846.02,366.5L846.03,274.57L846.16,470.7L846.38,212.5L846.6,275.48L846.61,247.01L846.86,429.38L847.08,188.15L847.16,355.18L847.18,390.94L847.43,204.77L847.92,431.78L847.93,424.46L847.95,424.24L848.12,227.76L848.3,493.68L848.77,228.54L848.79,232.36L848.95,430.86L849.51,201.56L849.53,205.25L849.54,221.34L849.69,438.96L850.06,332.39L850.08,297.79L850.21,224.04L850.73,479.68L850.75,464.59L851.56,164.85L851.6,177.32L851.62,180.23L851.73,395.91L852.25,147.38L852.28,202.04L852.3,167.49L852.36,220.25L852.37,251.28L852.59,145.48L853.15,439.47L853.17,462.92L853.65,165.88L854.08,196.19L854.1,228.81L854.17,388.89L854.34,158.56L854.88,383.02L854.89,365.21L855.02,171.76L855.26,398.34L855.53,387.16L855.55,407.52L855.6,453.81L856.08,189.21L856.13,196.47L856.14,190.05L856.26,400.98L856.47,184.36L856.66,298.13L856.68,249.87L857.11,165.71L857.3,395.33L857.43,214.05L857.45,202.33L857.52,192.72L857.66,401.51L857.94,358.04L857.95,396.77L858.04,480.04L858.46,203.5L858.55,241.72L858.56,200.15L858.64,307.83L858.65,352.7L858.91,201.3L859.39,437.92L859.4,434.63L859.42,414.63L859.9,140.66L860.2,279.63L860.22,284.81L860.32,216L860.48,462.68L860.85,247.55L860.87,207.37L861.13,369.81L861.64,103.7L861.65,107.44L861.67,130.11L861.87,386.16L862.43,200.18L862.45,216.13L862.75,205.85L862.93,437.49L863.25,387.68L863.26,349.93L863.57,382.04L864.09,141.36L864.1,143.24L864.12,179.99L864.28,349.5L864.44,114.89L864.87,207.88L864.89,221.9L865.2,211.18L865.36,411.87L865.68,373.01L865.7,332.56L866,400.35L866.5,185.84L866.51,164.97L866.52,157.36L866.71,369.61L867.02,333.27L867.03,356.27L867.22,158.99L867.41,375.24L867.61,268.19L867.63,218.62L867.8,422.09L868.26,182.32L868.37,219.26L868.38,264.69L868.6,182.19L869.18,437.36L869.19,434.12L869.21,410.09L869.5,430.28L869.73,216.57L869.99,295.1L870.01,293.57L870.06,225.95L870.24,427.32L870.48,373.9L870.5,402.04L870.53,423.29L870.69,207.85L871.11,234.45L871.12,215.42L871.22,411.32L871.47,209.73L871.66,246.73L871.67,223.36L871.92,391.87L872.08,162.99L872.22,296.41L872.24,332.63L872.51,253.32L872.66,471.95L872.99,406.35L873.01,375.15L873.49,179.55L873.7,408.89L873.76,312.67L873.78,305.57L874.01,375.29L874.17,120.43L874.63,218.44L874.65,253.26L874.95,219.56L875.11,424.65L875.43,401.77L875.44,390.29L875.75,410.33L875.92,178.52L876.3,220.31L876.31,245.58L876.79,403.86L876.97,187.22L877.05,221.11L877.07,231.26L877.39,210.61L877.55,426.7L877.85,381.55L877.87,360.21L878,155.79L878.53,378.59L878.66,208.94L878.68,194.03L878.71,180.11L879.23,397.97L879.4,221.16L879.42,227.52L879.48,226.05L879.97,457.47L880.27,411.39L880.29,409.81L880.78,153.4L881.13,168.64L881.14,164.73L881.33,371.84L881.4,210.39L881.42,190.96L881.49,162.68L881.68,358.88L881.95,258.74L881.97,300.14L882.26,216.09L882.4,429.99L882.72,389.58L882.74,368.63L882.87,145.43L883.41,379.32L883.55,187.59L883.56,176.29L883.58,170.33L883.72,334.91L883.74,359.68L883.75,378.91L884.26,136.94L884.48,348.25L884.49,355.26L884.84,405.21L885.3,131.32L885.35,178.34L885.36,220.74L885.38,222.67L885.41,167.07L885.44,213.95L885.45,262.79L885.51,336.78L885.67,121.43L886.2,329.41L886.22,319.44L886.35,167.97L886.9,363.81L886.91,363.3L886.93,372.79L887.13,214.75L887.28,406.36L887.61,395.93L887.63,420.79L887.64,429.99L888.1,198.06L888.16,248.68L888.18,200.46L888.29,351.03L888.44,177.66L888.6,303.85L888.61,323.51L888.8,186.52L888.99,343.89L889.21,252.74L889.22,211.68L889.25,219.18L889.26,243.14L889.92,221.75L890.08,457.7L890.09,446.21L890.11,425.62L890.89,177.86L890.96,192.68L890.98,188.54L891.42,370.61L891.57,186.64L891.79,361.45L891.8,362.16L892.01,215.15L892.14,400.8L892.15,413.5L892.16,423.28L892.61,205.18L892.69,245.24L892.7,201.87L892.73,223.93L892.74,269.15L892.8,376.67L893.32,144.33L893.51,339.75L893.53,326L893.67,131.75L894.21,344.13L894.3,260.88L894.31,256.53L894.35,261.68L894.43,245.34L894.44,201.26L894.6,400.62L894.98,194.77L894.99,169.91L895.06,129.86L895.12,213.36L895.18,206.52L895.2,257.25L895.25,326.19L895.76,90.94L895.95,290.99L895.96,281.96L896.44,65.22L896.63,274.02L896.65,281.18L896.88,167.23L897.04,361.9L897.21,257.35L897.23,198.2L897.34,304.79L897.85,49.03L897.98,186.52L897.99,223.78L898.2,53.4L898.73,270.69L898.75,262.06L898.76,241.35L898.88,99.66L899.4,334.8L899.42,349.79L899.47,382.21L899.91,116.18L899.92,103.67L899.94,102.27L899.97,148.7L899.98,191.62L900.01,147.4L900.1,298.21L900.11,310.22L900.13,311.32L900.14,294.75L900.16,262.89L900.27,149.97L900.46,357.73L900.92,173.33L900.94,181.01L901.32,142.56L901.52,344.28L901.65,253.39L901.66,255.25L901.75,207L901.81,317.19L901.82,346.43L901.91,409.92L902.37,181.75L902.43,233.62L902.45,190.59L902.55,371.87L902.72,169.06L902.97,234.11L902.98,201.42L903.24,344.67L903.75,101.46L903.78,119.16L903.8,152.08L903.85,147L904.35,389.14L904.56,233.09L904.58,254.39L904.67,347.92L904.88,194.82L905.36,331.61L905.38,310.13L905.68,355.67L906.2,138.38L906.22,153.13L906.77,399.77L907.04,358.49L907.06,370.41L907.07,375.26L907.23,130.4L907.48,248.05L907.49,195.54L907.93,104.24L908.12,323.68L908.28,110.48L908.29,112.32L908.86,362.21L909.03,225.08L909.05,179.08L909.2,417.17L909.67,142.87L909.87,352.45L909.89,327.42L910.21,349.94L910.71,97.33L910.73,99.95L911.06,87.5L911.64,383.87L911.67,351.13L911.68,332L911.95,338.38L912.45,75.33L912.58,195.74L912.6,240.07L912.8,86.07L913.35,339.48L913.37,315.3L913.38,291L913.5,129.87L914.05,384.3L914.06,387.47L914.08,406.65L914.5,113.17L914.51,124.25L914.53,103.73L914.73,312.58L915.24,59.22L915.27,76.27L915.28,129.91L915.44,310.08L915.6,68.64L915.75,252.17L915.76,275.5L915.93,66.79L916.51,396.17L916.56,344.6L916.57,329.58L916.83,339.38L917.33,66.15L917.46,190.32L917.47,232.95L917.67,111.31L918.21,343.18L918.24,318.28L918.25,293.27L918.37,96.75L918.94,375.84L918.95,397.8L919.78,117.4L919.88,185.52L919.89,225.48L920.11,112.84L920.69,401L920.7,397.62L920.72,373.19L921.23,191.89L921.39,414.58L921.47,340.28L921.49,344.6L921.5,346.4L921.56,223.59L921.58,222.25L921.69,367.71L921.85,133.65L922.18,134.87L922.2,123.02L922.33,235.3L922.34,280.23L922.74,361.21L922.89,144.02L923.11,329.45L923.13,300.53L923.24,148.31L923.82,425.14L923.84,422.14L924.64,153.09L924.69,170.79L924.71,172.88L925,152.47L925.17,369.74L925.32,178.08L925.33,165.2L925.49,342.37L925.51,361.23L925.52,370.8L925.68,140.26L926.07,260.93L926.09,189.53L926.56,431.03L926.64,278.02L926.65,248.71L926.91,415.58L927.13,197.52L927.23,392.21L927.25,410.47L927.48,195.64L927.61,418.18L927.7,258.48L927.71,235.79L927.83,187.77L927.96,406.26L928.26,349.32L928.28,382.7L928.52,228.89L928.7,468.21L929.03,406.36L929.04,372.8L929.35,398.06L929.87,166.92L929.88,174.99L929.9,201.22L930.04,378.97L930.55,155.38L930.65,198.52L930.67,228.33L930.96,184.42L931.13,440.03L931.47,405.55L931.48,393.31L931.83,430.21L932.29,178.46L932.31,179.37L932.48,385.3L932.7,164.15L932.97,176.98L932.99,161.56L933.1,225.98L933.12,258.82L933.39,182.22L933.57,438.71L933.89,409.85L933.9,382.61L934.09,180.33L934.57,410.24L934.71,221.91L934.73,210.64L934.79,188.7L934.84,253.35L934.86,310.01L934.92,412.42L935.48,181.7L935.61,397.68L935.63,400.21L935.83,197.2L936,449.45L936.27,398.82L936.28,422.95L936.31,439.21L936.53,182.53L936.86,212.6L936.88,175.95L937.22,169.81L937.7,402.32L937.72,398.13L937.73,369.57L937.92,170.73L938.41,453.24L938.43,452.54L938.62,266.47L938.75,482.32L938.93,275.29L938.95,263.66L939.09,466.61L939.31,207.82L939.69,248.73L939.7,265.55L940.01,218.23L940.49,471.67L940.52,466L940.53,462.41L940.89,510L941.4,235.24L941.41,250.69L941.43,268.31L941.75,235.01L941.88,488.91L942.26,484.3L942.27,490.38L942.31,435.79L942.33,414.51L942.59,484.07L943.14,229.89L943.15,259.8L943.17,289L943.33,488.46L943.84,226.05L943.97,453.48L943.98,449.17L944.53,208.69L944.82,251.36L944.84,247.6L944.88,205.01L944.94,274.86L944.95,325.56L945.23,205.97L945.76,482.06L945.78,456.47L946.05,456.98L946.62,174.17L946.64,187.39L946.97,174.29L947.45,428.83L947.48,397.76L947.49,353.84L947.66,206.71L948.13,461.23L948.14,473.37L948.2,483.13L948.26,377.71L948.33,436.34L948.35,341.66L948.49,469.9L949.06,199.21L949.1,240.78L949.11,282.83L949.19,443.7L949.75,185.71L949.9,424.88L949.91,408.43L950.1,192.53L950.57,444.84L950.58,458.78L950.64,469.68L950.8,249.95L951,302.54L951.01,272.94L951.28,423.11L951.49,177.65L951.62,419.66L951.64,415.63L951.97,421.59L952.19,182.2L952.45,248.48L952.46,236.95L952.54,191.59L952.68,428.91L952.94,335.1L952.96,369.15L953.07,477.19L953.58,199.02L953.71,428.59L953.73,423.89L953.93,178.92L954.55,224.38L954.57,216.17L954.58,215.86L954.61,221.79L954.63,180.02L955.51,478.6L955.52,453.26L955.8,461.84L956.37,216.07L956.41,258.03L956.42,298.41L956.5,449.3L957.06,198.1L957.21,439.71L957.22,415.38L957.41,197.7L957.92,473.57L957.93,477.75L957.95,484.04L958.09,339.59L958.11,256.93L958.24,459.86L958.8,190.6L958.92,417.38L958.93,426.57L958.99,339.23L959.01,298.91L959.28,422.25L959.5,178.77L959.79,210.09L959.8,211.58L959.85,178.47L960.38,473.74L960.53,345.59L960.54,260.85L960.67,457.32L960.89,198.95L961.21,243.5L961.22,244.23L961.37,434.09L961.59,185.59L961.96,226.11L961.98,236.47L962.28,189.42L962.79,455.53L962.81,465.38L962.82,469.55L962.98,242.31L963.17,342.24L963.18,294.73L963.33,188.99L963.81,426.87L963.95,253.48L963.97,241.59L964.15,427.87L964.37,198.69L964.44,318.73L964.46,366.61L965.07,199.59L965.21,459.36L965.23,457.98L965.24,463.32L965.26,465.33L965.3,404.53L965.31,389.16L965.42,250.23L965.5,414.89L965.52,441.51L965.55,453.29L965.76,204.84L966.05,245.59L966.07,241.72L966.11,200.86L966.23,421.71L966.24,427.23L966.46,187.86L966.55,359.57L966.56,396.4L966.81,187.08L966.94,426.57L967.14,267.84L967.16,207.5L967.69,489.44L967.84,369.85L967.85,279.68L967.98,472.19L968.2,206.05L968.4,293.74L968.42,270.3L968.55,194.43L968.68,431.06L969.17,255.36L969.19,246.73L969.24,194.69L969.32,318.51L969.33,365.77L969.59,204.74L970.11,478.28L970.13,475.63L970.14,452.46L970.42,459.86L970.98,196.06L971.03,225.12L971.04,265.48L971.11,426.65L971.68,176.01L971.83,401.1L971.84,373.54L972.43,128.78L972.55,467.17L972.57,470.04L972.86,473.61L973.07,215.98L973.39,241.34L973.41,257.38L973.55,433.38L974.12,184.99L974.16,214.25L974.17,251.15L974.46,187.81L974.99,460.69L975,454.91L975.51,207.07L975.9,235.96L975.92,273.78L976.57,210.21L976.7,433.76L976.71,432.22L976.92,232.42L977.08,457.13L977.23,311.97L977.25,233.94L977.42,482.25L977.58,344.86L977.6,259.32L977.73,446.18L977.96,200.84L978.18,226.49L978.19,220.03L978.42,406.51L978.64,184.85L978.87,217.07L978.89,207.94L978.99,182.01L979.48,406.83L979.67,270.62L979.69,205.36L979.86,467.12L980.37,244.2L980.38,202.07L980.43,226.01L980.44,265.79L980.51,414.08L981.08,159.81L981.21,388.68L981.22,386.13L981.56,395.3L981.79,174.77L981.9,387.67L981.92,391.67L981.95,395.17L981.99,289.81L982.01,269.84L982.14,201.2L982.22,386.33L982.24,407.48L982.3,455.44L982.76,141.75L982.77,146.15L982.79,160.11L982.95,367.38L983.46,124.57L983.53,148.71L983.54,154.68L983.8,132.84L983.99,365.35L984.07,226.18L984.08,194.22L984.15,169.15L984.7,418.01L984.72,424.85L984.73,443.34L985.2,171.39L985.41,356.88L985.43,332.02L985.73,358.24L985.89,110.92L986.21,177.19L986.23,165.03L986.24,150.6L986.79,396.3L986.81,394.7L986.82,397.93L987.17,464.29L987.65,189.03L987.66,192.84L987.68,227.02L987.82,380.07L988.34,136.53L988.43,166.86L988.45,193L988.68,162.83L988.91,414.43L989.24,405.67L989.26,404.4L989.61,428.55L990.07,186.31L990.08,186.22L990.26,378.91L990.4,183.93L990.42,168.57L990.61,367.27L990.77,147.93L990.9,248.88L990.91,293.99L991.11,124.69L991.68,397.04L991.69,394.35L992.04,475.71L992.52,193.3L992.53,200.91L992.55,236.97L992.69,395.27L992.87,158.28L993.3,207.42L993.32,236.7L993.74,385.82L993.9,165.84L994.09,377.58L994.1,377.99L994.32,205.06L994.48,448.82L994.65,295.18L994.67,282.62L994.78,431.38L994.94,218.65L995,220.6L995.01,205.05L995.13,405.35L995.28,197.11L995.29,181.91L995.3,179.22L995.44,326.89L995.45,358.35L995.64,131.21L996.22,408.58L996.23,391.21L996.75,212.99L996.93,426.44L997,355.05L997.02,354.55L997.22,409.29L997.33,217.31L997.36,222.22L997.38,211.05L997.44,255.94L997.47,203.36L997.49,230.4L997.51,282.7L997.57,394.4L998.09,190.08L998.28,383.93L998.29,359.28L998.51,209.78L998.97,406.04L999.06,296.67L999.08,291.08L999.13,296.11L999.18,280.54L999.19,241.31L999.35,449.1L999.83,146.03L999.93,197.33L999.95,237.68L1000.02,353.5L1000.51,101.61L1000.71,324.94L1000.73,328.02L1001.21,190.59L1001.44,389.29L1001.47,342.9L1001.48,316.7L1001.79,427.38L1002.25,204.05L1002.29,233.8L1002.31,258.9L1002.79,410.09L1003.03,206.8L1003.06,238.63L1003.08,285.73L1003.14,403.11L1003.64,154.63L1003.83,351.79L1003.85,354.59L1004.08,217.86L1004.24,408.54L1004.47,310.03L1004.48,372.56L1004.53,401.08L1005.05,175.16L1005.11,224.56L1005.12,182.25L1005.22,379.78L1005.4,154.01L1005.63,276.07L1005.64,224.97L1005.75,125.3L1005.93,344.82L1006.31,334.59L1006.33,323.11L1006.51,193.43L1006.66,407.14L1007.12,197.21L1007.14,192.85L1007.27,321.29L1007.28,358.35L1007.31,389.97L1007.81,133.96L1007.82,122.76L1007.83,120.26L1007.95,231.57L1007.97,280.26L1008.18,119.63L1008.72,383.01L1008.73,379.28L1008.75,382.18L1009.1,465.64L1009.57,157.81L1009.6,190.66L1009.62,223.35L1009.63,223.72L1009.65,170.93L1009.75,360.21L1009.91,121.01L1010.05,251.66L1010.07,290.36L1010.11,329.99L1010.6,73.61L1010.82,292.41L1010.84,281.12L1010.95,81.05L1011.53,352.5L1011.58,311.11L1011.59,293.99L1011.85,304.74L1012.36,50.63L1012.49,175.15L1012.5,215.12L1012.9,271.5L1013.06,68.32L1013.26,250.77L1013.27,246.14L1013.39,100.09L1013.94,315.35L1013.95,323.73L1014.19,204.24L1014.68,436.22L1014.78,414.29L1014.8,413.87L1015.56,215.85L1015.61,275.76L1015.62,314.37L1015.91,214.82L1016.42,409.49L1016.43,390.83L1016.96,226.65L1017,344.58" style="vector-effect: non-scaling-stroke; fill: none; stroke: rgb(99, 110, 250); stroke-opacity: 1; stroke-width: 2px; opacity: 1;"/></g><g class="points"/><g class="text"/></g><g class="trace scatter tracea5cedd" style="stroke-miterlimit: 2; opacity: 1;"><g class="fills"/><g class="errorbars"/><g class="lines"/><g class="points"><path class="point" transform="translate(514.98,42.7)" d="M5,0A5,5 0 1,1 0,-5A5,5 0 0,1 5,0Z" style="opacity: 1; stroke-width: 0px; fill: rgb(239, 85, 59); fill-opacity: 1;"/><path class="point" transform="translate(515.67,35.01)" d="M5,0A5,5 0 1,1 0,-5A5,5 0 0,1 5,0Z" style="opacity: 1; stroke-width: 0px; fill: rgb(239, 85, 59); fill-opacity: 1;"/><path class="point" transform="translate(515.69,34.45)" d="M5,0A5,5 0 1,1 0,-5A5,5 0 0,1 5,0Z" style="opacity: 1; stroke-width: 0px; fill: rgb(239, 85, 59); fill-opacity: 1;"/><path class="point" transform="translate(570.56,529.55)" d="M5,0A5,5 0 1,1 0,-5A5,5 0 0,1 5,0Z" style="opacity: 1; stroke-width: 0px; fill: rgb(239, 85, 59); fill-opacity: 1;"/></g><g class="text"/></g></g></g><g class="overplot"/><path class="xlines-above crisp" d="M102,664.5H1120" style="fill: none; stroke-width: 1px; stroke: rgb(255, 255, 255); stroke-opacity: 1;"/><path class="ylines-above crisp" d="M102.5,100V664" style="fill: none; stroke-width: 1px; stroke: rgb(255, 255, 255); stroke-opacity: 1;"/><g class="overlines-above"/><g class="xaxislayer-above"><g class="xtick"><text text-anchor="middle" x="0" y="696.2" transform="translate(103,0)" style="font-family: 'Open Sans', verdana, arial, sans-serif; font-size: 26px; fill: rgb(42, 63, 95); fill-opacity: 1; white-space: pre;">2011</text></g><g class="xtick"><text text-anchor="middle" x="0" y="696.2" transform="translate(230.04000000000002,0)" style="font-family: 'Open Sans', verdana, arial, sans-serif; font-size: 26px; fill: rgb(42, 63, 95); fill-opacity: 1; white-space: pre;">2012</text></g><g class="xtick"><text text-anchor="middle" x="0" y="696.2" transform="translate(357.43,0)" style="font-family: 'Open Sans', verdana, arial, sans-serif; font-size: 26px; fill: rgb(42, 63, 95); fill-opacity: 1; white-space: pre;">2013</text></g><g class="xtick"><text text-anchor="middle" x="0" y="696.2" transform="translate(484.47,0)" style="font-family: 'Open Sans', verdana, arial, sans-serif; font-size: 26px; fill: rgb(42, 63, 95); fill-opacity: 1; white-space: pre;">2014</text></g><g class="xtick"><text text-anchor="middle" x="0" y="696.2" transform="translate(611.51,0)" style="font-family: 'Open Sans', verdana, arial, sans-serif; font-size: 26px; fill: rgb(42, 63, 95); fill-opacity: 1; white-space: pre;">2015</text></g><g class="xtick"><text text-anchor="middle" x="0" y="696.2" transform="translate(738.55,0)" style="font-family: 'Open Sans', verdana, arial, sans-serif; font-size: 26px; fill: rgb(42, 63, 95); fill-opacity: 1; white-space: pre;">2016</text></g><g class="xtick"><text text-anchor="middle" x="0" y="696.2" transform="translate(865.93,0)" style="font-family: 'Open Sans', verdana, arial, sans-serif; font-size: 26px; fill: rgb(42, 63, 95); fill-opacity: 1; white-space: pre;">2017</text></g><g class="xtick"><text text-anchor="middle" x="0" y="696.2" transform="translate(992.97,0)" style="font-family: 'Open Sans', verdana, arial, sans-serif; font-size: 26px; fill: rgb(42, 63, 95); fill-opacity: 1; white-space: pre;">2018</text></g><g class="xtick"><text text-anchor="middle" x="0" y="696.2" transform="translate(1120.01,0)" style="font-family: 'Open Sans', verdana, arial, sans-serif; font-size: 26px; fill: rgb(42, 63, 95); fill-opacity: 1; white-space: pre;">2019</text></g></g><g class="yaxislayer-above"><g class="ytick"><text text-anchor="end" x="96.8" y="9.1" transform="translate(0,650.86)" style="font-family: 'Open Sans', verdana, arial, sans-serif; font-size: 26px; fill: rgb(42, 63, 95); fill-opacity: 1; white-space: pre;">20k</text></g><g class="ytick"><text text-anchor="end" x="96.8" y="9.1" transform="translate(0,568.87)" style="font-family: 'Open Sans', verdana, arial, sans-serif; font-size: 26px; fill: rgb(42, 63, 95); fill-opacity: 1; white-space: pre;">25k</text></g><g class="ytick"><text text-anchor="end" x="96.8" y="9.1" transform="translate(0,486.88)" style="font-family: 'Open Sans', verdana, arial, sans-serif; font-size: 26px; fill: rgb(42, 63, 95); fill-opacity: 1; white-space: pre;">30k</text></g><g class="ytick"><text text-anchor="end" x="96.8" y="9.1" transform="translate(0,404.9)" style="font-family: 'Open Sans', verdana, arial, sans-serif; font-size: 26px; fill: rgb(42, 63, 95); fill-opacity: 1; white-space: pre;">35k</text></g><g class="ytick"><text text-anchor="end" x="96.8" y="9.1" transform="translate(0,322.90999999999997)" style="font-family: 'Open Sans', verdana, arial, sans-serif; font-size: 26px; fill: rgb(42, 63, 95); fill-opacity: 1; white-space: pre;">40k</text></g><g class="ytick"><text text-anchor="end" x="96.8" y="9.1" transform="translate(0,240.93)" style="font-family: 'Open Sans', verdana, arial, sans-serif; font-size: 26px; fill: rgb(42, 63, 95); fill-opacity: 1; white-space: pre;">45k</text></g><g class="ytick"><text text-anchor="end" x="96.8" y="9.1" transform="translate(0,158.94)" style="font-family: 'Open Sans', verdana, arial, sans-serif; font-size: 26px; fill: rgb(42, 63, 95); fill-opacity: 1; white-space: pre;">50k</text></g></g><g class="overaxes-above"/></g></g><g class="polarlayer"/><g class="ternarylayer"/><g class="geolayer"/><g class="funnelarealayer"/><g class="pielayer"/><g class="treemaplayer"/><g class="sunburstlayer"/><g class="glimages"/><defs id="topdefs-e90213"><g class="clips"/><clipPath id="legende90213"><rect width="147" height="47" x="0" y="0"/></clipPath></defs><g class="layer-above"><g class="imagelayer"/><g class="shapelayer"/></g><g class="infolayer"><g class="legend" pointer-events="all" transform="translate(113.17, 105.64)"><rect class="bg" shape-rendering="crispEdges" width="147" height="47" x="0" y="0" style="stroke: rgb(68, 68, 68); stroke-opacity: 1; fill: rgb(255, 255, 255); fill-opacity: 1; stroke-width: 0px;"/><g class="scrollbox" transform="translate(0, 0)" clip-path="url('#legende90213')"><g class="groups"><g class="traces" transform="translate(0, 23.400000000000002)" style="opacity: 1;"><text class="legendtext user-select-none" text-anchor="start" x="40" y="10.14" style="font-family: 'Open Sans', verdana, arial, sans-serif; font-size: 26px; fill: rgb(42, 63, 95); fill-opacity: 1; white-space: pre;">Outliers</text><g class="layers" style="opacity: 1;"><g class="legendfill"/><g class="legendlines"/><g class="legendsymbols"><g class="legendpoints"><path class="scatterpts" transform="translate(20,0)" d="M5,0A5,5 0 1,1 0,-5A5,5 0 0,1 5,0Z" style="opacity: 1; stroke-width: 0px; fill: rgb(239, 85, 59); fill-opacity: 1;"/></g></g></g><rect class="legendtoggle" pointer-events="all" x="0" y="-18.400000000000002" width="141.5625" height="36.800000000000004" style="cursor: pointer; fill: rgb(0, 0, 0); fill-opacity: 0;"/></g></g></g><rect class="scrollbar" rx="20" ry="3" width="0" height="0" x="0" y="0" style="fill: rgb(128, 139, 164); fill-opacity: 1;"/></g><g class="g-xtitle"><text class="xtitle" x="611.5" y="737.903125" text-anchor="middle" style="font-family: 'Open Sans', verdana, arial, sans-serif; font-size: 31px; fill: rgb(42, 63, 95); opacity: 1; font-weight: normal; white-space: pre;">Date</text></g><g class="g-ytitle" transform="translate(19.3564453125,0)"><text class="ytitle" transform="rotate(-90,11.643749999999997,382)" x="11.643749999999997" y="382" text-anchor="middle" style="font-family: 'Open Sans', verdana, arial, sans-serif; font-size: 31px; fill: rgb(42, 63, 95); opacity: 1; font-weight: normal; white-space: pre;">Demand</text></g></g></svg>