<svg class="main-svg" xmlns="http://www.w3.org/2000/svg" xmlns:xlink="http://www.w3.org/1999/xlink" width="1200" height="750" style="" viewBox="0 0 1200 750"><rect x="0" y="0" width="1200" height="750" style="fill: rgb(255, 255, 255); fill-opacity: 1;"/><defs id="defs-131c98"><g class="clips"><clipPath id="clip131c98xyplot" class="plotclip"><rect width="1017" height="564"/></clipPath><clipPath class="axesclip" id="clip131c98x"><rect x="103" y="0" width="1017" height="750"/></clipPath><clipPath class="axesclip" id="clip131c98y"><rect x="0" y="100" width="1200" height="564"/></clipPath><clipPath class="axesclip" id="clip131c98xy"><rect x="103" y="100" width="1017" height="564"/></clipPath></g><g class="gradients"/></defs><g class="bglayer"><rect class="bg" x="103" y="100" width="1017" height="564" style="fill: rgb(229, 236, 246); fill-opacity: 1; stroke-width: 0;"/></g><g class="layer-below"><g class="imagelayer"/><g class="shapelayer"/></g><g class="cartesianlayer"><g class="subplot xy"><g class="layer-subplot"><g class="shapelayer"/><g class="imagelayer"/></g><g class="gridlayer"><g class="x"><path class="xgrid crisp" transform="translate(230.04000000000002,0)" d="M0,100v564" style="stroke: rgb(255, 255, 255); stroke-opacity: 1; stroke-width: 1px;"/><path class="xgrid crisp" transform="translate(357.43,0)" d="M0,100v564" style="stroke: rgb(255, 255, 255); stroke-opacity: 1; stroke-width: 1px;"/><path class="xgrid crisp" transform="translate(484.47,0)" d="M0,100v564" style="stroke: rgb(255, 255, 255); stroke-opacity: 1; stroke-width: 1px;"/><path class="xgrid crisp" transform="translate(611.51,0)" d="M0,100v564" style="stroke: rgb(255, 255, 255); stroke-opacity: 1; stroke-width: 1px;"/><path class="xgrid crisp" transform="translate(738.55,0)" d="M0,100v564" style="stroke: rgb(255, 255, 255); stroke-opacity: 1; stroke-width: 1px;"/><path class="xgrid crisp" transform="translate(865.93,0)" d="M0,100v564" style="stroke: rgb(255, 255, 255); stroke-opacity: 1; stroke-width: 1px;"/><path class="xgrid crisp" transform="translate(992.97,0)" d="M0,100v564" style="stroke: rgb(255, 255, 255); stroke-opacity: 1; stroke-width: 1px;"/></g><g class="y"><path class="ygrid crisp" transform="translate(0,556.8)" d="M103,0h1017" style="stroke: rgb(255, 255, 255); stroke-opacity: 1; stroke-width: 1px;"/><path class="ygrid crisp" transform="translate(0,482.94)" d="M103,0h1017" style="stroke: rgb(255, 255, 255); stroke-opacity: 1; stroke-width: 1px;"/><path class="ygrid crisp" transform="translate(0,409.08)" d="M103,0h1017" style="stroke: rgb(255, 255, 255); stroke-opacity: 1; stroke-width: 1px;"/><path class="ygrid crisp" transform="translate(0,335.22)" d="M103,0h1017" style="stroke: rgb(255, 255, 255); stroke-opacity: 1; stroke-width: 1px;"/><path class="ygrid crisp" transform="translate(0,261.36)" d="M103,0h1017" style="stroke: rgb(255, 255, 255); stroke-opacity: 1; stroke-width: 1px;"/><path class="ygrid crisp" transform="translate(0,187.5)" d="M103,0h1017" style="stroke: rgb(255, 255, 255); stroke-opacity: 1; stroke-width: 1px;"/><path class="ygrid crisp" transform="translate(0,113.64)" d="M103,0h1017" style="stroke: rgb(255, 255, 255); stroke-opacity: 1; stroke-width: 1px;"/></g></g><g class="zerolinelayer"><path class="yzl zl crisp" transform="translate(0,630.66)" d="M103,0h1017" style="stroke: rgb(255, 255, 255); stroke-opacity: 1; stroke-width: 2px;"/></g><path class="xlines-below"/><path class="ylines-below"/><g class="overlines-below"/><g class="xaxislayer-below"/><g class="yaxislayer-below"/><g class="overaxes-below"/><g class="plot" transform="translate(103, 100)" clip-path="url('#clip131c98xyplot')"><g class="scatterlayer mlayer"><g class="trace scatter trace6dcae2" style="stroke-miterlimit: 2; opacity: 1;"><g class="fills"/><g class="errorbars"/><g class="lines"><path class="js-line" d="M0,475.28L0.1,487.96L0.64,466.44L0.75,479.68L0.77,479.61L0.78,483.17L1.02,464.14L1.51,476.4L1.52,470.27L1.84,481.11L2.06,463.92L2.29,465.47L2.31,464.67L2.73,460.22L2.89,484.32L3.05,479.56L3.06,468.14L3.22,481.82L3.8,462.65L3.81,464.4L3.83,468.05L3.93,480.3L4.5,462.36L4.61,479.56L4.63,479.79L5.16,459.84L5.32,483.68L5.37,481.23L5.38,480.48L5.79,460.49L5.99,477.02L6,479.69L6.13,461.43L6.71,480.04L6.79,465.12L6.8,467.12L6.83,464.06L7.06,480.49L7.35,477.98L7.37,478.69L7.6,462.57L7.76,486.28L8.11,482.63L8.12,477.21L8.45,480.31L8.57,462.65L8.9,464.15L8.92,463.17L9.27,462.29L9.5,478.99L9.67,466.98L9.69,465.18L10.04,459.61L10.2,483.42L10.51,478.49L10.53,480.28L10.54,480.53L10.59,464.44L10.6,462.85L10.66,462.36L10.69,465.82L10.7,471.37L10.89,479.48L11.01,460.64L11.47,463.42L11.49,467.16L11.7,459.84L11.85,521.4L12.28,482.83L12.3,479.74L12.47,462.56L12.63,486.64L13.08,464.43L13.1,462.58L13.44,462.01L13.68,479.36L13.78,464.33L13.79,462.91L14.14,461.22L14.36,479.89L14.53,472.06L14.55,465.83L14.91,461.68L15.07,484.68L15.11,482.14L15.13,481.34L15.42,482.29L15.88,462.35L16,465.93L16.01,469.29L16.23,461.74L16.46,480.37L16.78,476.37L16.79,478.34L16.92,462.03L17.16,481.15L17.32,473.97L17.33,462.98L17.34,461.44L17.49,485.09L18.06,463.62L18.07,465.85L18.19,479.06L18.65,460.48L18.85,476.62L18.87,478.54L19,460.01L19.58,480.41L19.59,477.45L19.61,473.59L19.77,460.12L19.93,484.27L20.4,463.95L20.42,466.36L20.62,479.85L21.09,460.59L21.16,462.56L21.17,464.06L21.32,478.98L21.43,460.24L21.9,464.4L21.91,467.44L22.2,462.97L22.36,484.38L22.74,480.07L22.75,478.72L23.06,483.56L23.25,466.84L23.33,477.05L23.35,478.02L23.41,482.68L23.81,461.93L23.86,462.2L23.87,460.59L24.1,477.06L24.19,464.32L24.2,462.68L24.45,480.35L24.64,459.47L24.76,476.48L24.77,477.19L24.8,483.32L25.26,459.6L25.49,478.16L25.51,472.87L25.96,459.02L26.19,478.09L26.26,460.88L26.28,462.62L26.31,458.23L26.89,479.68L26.97,471.18L26.99,471.52L27.03,473.37L27.06,459.94L27.08,459.16L27.24,482.57L27.9,474.72L27.92,476.8L28.05,458.94L28.28,477.54L28.32,462.3L28.34,460.46L28.41,459.56L28.98,478.1L29.08,461.41L29.09,459.75L29.32,479.59L29.48,468.74L29.5,457.72L29.67,482.28L30.14,461.88L30.15,461.27L30.37,478.45L30.83,458.11L30.9,462.03L30.92,462.6L31.06,477.52L31.18,457.21L31.64,461.95L31.66,464.95L31.93,457.91L32.11,480.82L32.44,477.51L32.46,478.03L32.92,457.14L33.22,459.37L33.24,460.77L33.28,456.38L33.85,476.29L33.98,459.92L33.99,463.19L34.37,460.18L34.54,485.11L34.89,480.99L34.91,475.61L35.01,461.87L35.24,479.16L35.66,463.6L35.68,465.35L36.28,478.99L36.4,460.48L36.43,463.77L36.44,464.93L36.81,457.28L36.98,482.89L37.1,479.76L37.11,479.59L37.31,480.08L37.85,461.81L37.87,463.81L37.88,465.23L38.08,461.1L38.37,483.31L38.59,468.3L38.61,471.38L38.72,489.31L39.24,462.96L39.39,481.53L39.4,483.86L39.42,486.36L39.94,461.7L40.11,479.28L40.13,473.95L40.46,478.27L40.68,460.45L40.88,463L40.9,464.67L40.98,460.09L41.51,481.81L41.61,471.83L41.62,472.05L41.65,472.48L41.66,466.37L41.68,458.47L41.85,485.89L42.52,476.48L42.54,477.3L42.72,462.29L43.25,479.3L43.26,474.9L43.27,468.41L43.77,461.56L43.93,478.98L43.94,480.89L44.12,457.98L44.29,484.55L44.78,465.2L44.8,464.16L44.99,479.26L45.51,461.07L45.55,463.86L45.57,466.25L45.86,462.99L46.03,481.05L46.36,480.7L46.38,482.85L46.55,460.62L46.73,485.94L47.18,465.04L47.19,463.54L47.25,462.53L47.34,473.24L47.35,475.87L47.6,460.77L47.77,479.16L47.97,466.72L47.99,464.25L48.29,463.38L48.8,480.46L48.81,482.36L48.99,459.45L49.16,487.6L49.64,465.83L49.66,467.37L50.19,481.2L50.38,463.58L50.4,465.95L50.41,467.46L50.55,481.41L50.73,462.46L51.13,466.3L51.15,470.85L51.43,459L51.6,485.68L51.93,481.7L51.95,481.41L52.12,462.54L52.72,466.01L52.73,467.54L52.99,480.52L53.17,462.78L53.48,466.07L53.5,465.07L53.86,459.16L54.04,486.09L54.24,467.21L54.25,469.12L54.37,481.8L54.56,463.76L55.05,479.55L55.07,480.4L55.08,480.72L55.25,463.03L55.46,469.38L55.47,466.61L55.95,461.95L56.12,481.23L56.27,473.84L56.28,467.61L56.3,458.29L56.47,484.71L57.02,467.68L57.04,466.13L57.34,462.69L57.52,480.76L57.84,478.34L57.85,479.31L57.86,479.96L58.04,463.47L58.37,465.44L58.39,463.04L58.73,458.73L58.91,484.71L59.24,482.18L59.26,482.63L59.78,462.23L60.02,465.3L60.04,467.08L60.13,462.8L60.65,486.46L60.72,477.68L60.74,478.07L60.82,469.07L60.98,483.71L61,486.1L61.17,462.04L61.34,487.22L61.82,465.05L61.84,466.06L62.21,461.92L62.39,480.66L62.55,466.46L62.56,463.78L63.26,462.78L63.43,482.68L63.45,480.17L63.61,460.17L63.78,486.45L64.23,466.54L64.25,464.85L64.3,462.98L64.83,480.94L64.98,467.55L65,463.35L65.35,462.26L65.52,479.77L65.81,477.54L65.83,478.49L66.04,460.17L66.22,487.95L66.38,476.46L66.39,466.58L66.57,483.01L66.74,464.18L67.01,468.82L67.03,467.43L67.09,464.77L67.26,481.29L67.3,468.21L67.32,467.01L67.44,464.3L67.61,482.01L68.06,467.35L68.07,466.02L68.48,459.78L68.65,487.35L68.81,474.68L68.83,466.23L68.96,483.45L69.03,472.37L69.05,469.47L69.52,463.65L69.7,481.2L69.81,463.93L69.83,464.38L70.39,480.73L70.57,462.81L70.58,464.75L70.6,466.71L70.92,459.86L71.1,485.45L71.31,470.2L71.32,472.94L71.44,482.29L71.96,463.03L72.09,478.69L72.11,478.64L72.48,480.81L72.66,462.95L72.83,480.13L72.84,474.43L73.35,458.57L73.53,485.13L73.54,483.87L73.56,482.69L74.4,461.93L74.41,463.97L74.43,466.16L74.57,480.71L75.03,460.32L75.15,464.26L75.17,469.12L75.79,458.81L75.96,485.16L75.98,484.55L76.77,462.64L76.8,465.19L76.82,467.28L76.99,479.32L77.18,461.14L77.57,464.27L77.59,466.47L78.05,481.58L78.23,459.35L78.37,480.83L78.38,482.83L78.4,486.16L78.92,463.92L79.1,479.05L79.11,473.4L79.44,478.95L79.62,462.06L79.86,464.03L79.88,465.67L79.97,461.96L80.49,481.48L80.57,472.36L80.59,472.9L80.63,473.98L80.65,469.96L80.66,458.58L80.84,483.84L81.21,468.12L81.23,465.32L81.3,462.71L81.87,478.77L81.98,464.34L82,462.68L82.21,478.46L82.69,461.88L82.74,466.05L82.75,461.37L83.1,458.83L83.27,485.1L83.59,479.81L83.61,480.21L84.08,460.5L84.23,473.02L84.24,475.11L84.3,477.85L84.43,459.79L84.71,462.6L84.72,461.07L84.78,459.94L85.36,479.93L85.51,473.22L85.52,468.2L85.53,457.86L85.71,484.03L86.27,463.81L86.29,466.63L86.52,461.19L86.75,483L87.06,479.25L87.07,478.96L87.09,480.81L87.56,459.9L87.65,464.81L87.67,462.32L87.97,456.62L88.14,483.28L88.48,480.21L88.49,478.86L88.9,458.83L89.26,461.27L89.28,463.19L89.3,459.31L89.87,478.3L90.02,461.5L90.03,464.63L90.41,458.7L90.58,484.77L90.93,480.95L90.94,475.13L91.26,481.17L91.45,462.54L91.71,465.35L91.73,463.26L91.96,480.08L92.44,459.87L92.47,463.55L92.48,464.94L92.84,457.22L93.02,483.53L93.22,465.99L93.24,467.28L93.35,480.85L93.84,458.99L94.02,475.23L94.03,475.15L94.18,458.53L94.4,478.57L94.76,476.6L94.77,470.58L95.28,457.36L95.45,483.37L95.48,480.64L95.5,479.13L95.79,480.83L95.92,458.79L96.34,463.19L96.35,464.62L96.48,479.12L96.96,457.92L97.08,462.42L97.09,467.76L97.72,457.17L97.89,482.83L97.9,481.55L97.92,479.72L98.22,480.69L98.7,457.13L98.77,461.8L98.79,463.39L98.93,479.48L99.4,457.68L99.51,462.61L99.53,466.43L99.98,478.67L100.15,455.63L100.3,475.11L100.31,474.92L100.34,480.46L100.81,457.49L100.89,461.85L100.91,459.7L101.15,457.25L101.72,478.12L101.73,476.59L101.91,461.85L102.41,482.08L102.49,470.59L102.5,471.37L102.6,459.19L102.78,484.95L103.15,467.49L103.17,464.39L103.46,481.98L103.94,457L103.95,458.52L104.29,456.94L104.5,477.5L104.72,464.58L104.74,461.3L105.04,456.28L105.21,481.94L105.55,479.18L105.56,476.21L105.68,456.11L106.26,481.8L106.3,476.66L106.32,476L106.43,463.74L106.59,480.86L106.62,471.56L106.64,464.87L106.72,460.12L107.29,480.68L107.36,470.06L107.37,471.07L107.48,459.57L107.64,484.42L108.01,472.11L108.03,465.97L108.46,458.55L108.68,479.15L108.78,464.88L108.8,462.23L108.81,459.51L109.03,478.21L109.54,462.92L109.55,464.98L109.91,459.17L110.09,483.74L110.29,466.56L110.3,468.05L110.42,482.58L110.96,462L111.1,477.11L111.12,479.42L111.59,456.09L111.91,459.72L111.93,457.11L111.94,455.76L112.16,478.44L112.49,477.52L112.51,481.74L112.52,482.76L112.99,458.61L113.07,463.75L113.09,461.53L113.2,477.97L113.34,455.72L113.87,472.94L113.89,473.25L114.03,455.12L114.6,479.12L114.63,473.81L114.64,469.77L114.79,456.09L114.96,481.06L115.44,457.39L115.45,460.96L115.99,476.86L116.12,455.85L116.19,460.47L116.21,462.02L116.34,477.71L116.82,455.18L116.93,462.51L116.95,466.12L117.22,457.84L117.4,481.26L117.73,480.24L117.74,477.89L118.21,456.91L118.43,477.99L118.51,460.04L118.53,461.08L118.77,478.66L119.25,456.51L119.27,457.96L119.28,461.9L119.67,455.43L119.83,480.71L120.02,461.27L120.04,462.47L120.17,478.31L120.3,457.28L120.69,466.94L120.7,460.88L120.99,458.95L121.21,478.79L121.25,463.47L121.27,461.22L121.56,478.55L121.69,458.61L121.88,474.27L121.89,474.97L122.11,458.26L122.27,482.3L122.62,477.67L122.63,470.06L122.95,478.35L123.08,456.44L123.41,458.91L123.43,457.86L123.99,476.64L124.17,470.28L124.18,462.75L124.36,479.66L124.55,459.15L124.6,473.23L124.62,474.73L124.7,484.71L125.27,461.16L125.36,474.4L125.37,474.57L125.39,477.89L125.87,458.64L126.1,475.7L126.11,469.77L126.31,458.87L126.79,479.93L126.84,473.94L126.85,473.18L126.98,459.68L127.11,478.19L127.13,482.85L127.14,485.08L127.61,459.95L127.84,476.01L127.85,469.63L128.3,457.53L128.52,476.34L128.62,461.94L128.64,459.44L128.65,457.58L129.23,476.86L129.33,468.82L129.35,468.84L129.42,456.62L129.58,480.26L129.94,468.81L129.95,462.39L130.26,474.86L130.39,456.59L130.59,472.77L130.61,475.53L131.09,456.39L131.3,474.13L131.32,473.6L131.43,455.43L132.01,480.42L132.06,477.24L132.07,476.79L132.16,477.32L132.48,457.2L132.68,471.65L132.7,474.26L132.83,454.72L133.33,469.5L133.35,470.71L133.52,458.26L133.74,475.24L133.78,462.59L133.8,460.2L134.1,476.95L134.29,458.73L134.36,471.88L134.38,473.54L134.45,481.92L134.91,459.35L135.15,476.36L135.16,469.98L135.61,458.09L135.83,476.43L135.94,459.06L135.96,457.74L136.31,457.68L136.54,477.14L136.7,471.19L136.71,459.99L136.73,456.96L136.89,481.24L137.45,459.08L137.47,461.15L137.7,456.07L138.26,474.97L138.28,475.12L138.74,456.64L138.98,476.57L139.03,466.64L139.05,467.57L139.16,457.58L139.32,480.53L139.74,459.02L139.76,459.54L140.02,472.94L140.14,453.73L140.5,455.53L140.51,459.63L140.7,472.41L140.83,452.7L141.25,459.78L141.27,461.16L141.6,456.61L141.76,480.37L141.99,465.94L142.01,469.38L142.09,476.01L142.22,455.9L142.77,472.48L142.79,473.59L142.92,456.15L143.15,475.36L143.18,463.84L143.2,460.98L143.27,458.45L143.5,475.58L143.82,474.7L143.83,476.89L144.04,461.38L144.54,484.53L144.59,479.36L144.6,478.33L144.7,481.2L144.72,472.46L144.89,483.75L145.46,461.85L145.47,463.87L145.49,468.3L145.57,476.55L146.05,457.45L146.24,473.53L146.26,473.81L146.47,457.79L146.62,482.06L146.98,471.58L146.99,464.44L147.31,476.25L147.78,455.77L147.79,456.12L148.01,475.52L148.47,455.25L148.52,466.36L148.53,460.26L148.58,458.17L148.69,475.5L148.71,477.88L149.05,480.45L149.52,453.7L149.53,453.98L150.1,474.59L150.27,458.82L150.29,459.19L150.56,454.93L151.14,476.42L151.16,472.57L151.33,455.64L151.49,480.57L151.94,457.56L151.95,455.53L152,464.54L152.09,464.16L152.1,467.93L152.3,454.47L152.53,476.13L152.87,473.26L152.88,473.98L153,453.55L153.58,475.23L153.64,464.52L153.65,465.02L153.75,454.98L153.93,478.11L154.3,464.04L154.32,460.74L154.62,475.66L155.09,454.54L155.1,454.75L155.12,458.19L155.32,474.96L155.78,454.27L155.87,460.78L155.88,457.77L156.19,454.47L156.36,479.56L156.54,460.75L156.55,460.82L156.71,476.16L156.83,455.23L157.16,458.19L157.18,456.56L157.19,456.38L157.32,467.36L157.34,469.91L157.41,474.83L157.89,454.45L158.1,473.46L158.12,467.28L158.63,453.55L158.8,478.62L158.84,475.18L158.86,474.33L159.13,475.82L159.61,453.71L159.71,457.61L159.73,460.03L159.96,455.57L160.19,475.94L160.51,474.11L160.53,477.76L160.54,482.37L161.06,458.4L161.28,477.84L161.29,477.21L161.38,477.53L161.41,461.6L161.53,475.43L161.54,475.94L161.57,477.23L161.7,455.66L161.95,468.5L161.96,461.19L162.28,474.83L162.4,454.44L162.6,472.47L162.61,474.19L162.63,474.61L162.66,461.4L162.67,458.03L162.98,473.95L163.09,453.8L163.28,470.23L163.3,470.55L163.5,453.56L163.67,478.81L164.04,468.48L164.05,460.51L164.37,473.62L164.48,453.25L164.8,457.92L164.82,455.39L164.83,453.38L165.06,473.85L165.54,456.57L165.56,460L165.93,456.61L166.11,479.83L166.31,460.58L166.33,461.54L166.44,475.39L166.92,452.38L167.12,470.49L167.14,472.65L167.27,452.68L167.5,473.54L167.59,457.2L167.6,454.66L167.62,452.67L167.85,473.63L168.17,471.71L168.18,474.3L168.37,453.18L168.55,478.75L168.89,476.94L168.91,471L169.24,479.78L169.65,455.11L169.66,456.12L169.68,458.03L169.71,453.72L170.29,474.46L170.42,457.75L170.43,461.22L170.81,455.49L170.98,480.87L171.14,469.54L171.16,459.94L171.32,477.51L171.79,455.58L171.98,473.16L172,473.62L172.03,475.52L172.14,455.28L172.72,474L172.74,468.01L173.24,454L173.42,479.77L173.48,474.82L173.49,474.5L173.55,476.05L173.59,459.9L173.78,469.05L173.8,461.32L174.11,473.26L174.24,454.23L174.56,455.12L174.58,452.82L175.16,474.05L175.27,456.62L175.29,457.27L175.68,455.66L175.85,481.51L176.06,464.43L176.07,465.52L176.19,477.63L176.32,457.94L176.67,458.15L176.68,458.1L177.25,476.71L177.45,462.87L177.46,460.33L178.12,456.07L178.29,481.41L178.32,479L178.33,477.85L178.64,479.09L178.75,458.37L178.91,473.26L178.93,474.37L179.1,458.18L179.33,476.76L179.42,461.37L179.44,459.58L179.68,479.59L179.8,457.31L180.16,458.6L180.18,462.23L180.21,459.59L180.36,477.15L180.38,479.56L180.55,457.65L180.73,483.44L181.19,458L181.21,458.06L181.54,457.21L181.77,475.9L181.97,463.48L181.99,460.38L182.12,479.51L182.8,476.17L182.82,478.5L182.99,456.96L183.16,482.64L183.61,462.41L183.63,460.38L183.86,476L183.98,458.75L184.14,472.45L184.15,473.94L184.32,458.57L184.56,476.5L184.72,462.51L184.73,459.85L185.25,478.74L185.43,455.99L185.54,475.74L185.56,476.72L185.6,483.4L185.77,461.35L185.99,461.54L186.01,459.69L186.41,457.48L186.64,476.07L186.75,459.5L186.76,457.76L186.77,455.51L186.99,475.58L187.47,461.31L187.49,463.34L187.69,479.38L187.86,456.78L187.98,475.66L187.99,477.01L188.04,484.14L188.21,463.53L188.41,468.36L188.43,465.1L189.08,478.92L189.2,461.26L189.21,460.92L189.6,460.45L189.78,478.14L189.89,461.61L189.91,461.96L190.3,457.37L190.47,484.52L190.66,463.95L190.68,465.99L190.82,481.57L191.34,461.04L191.47,476.39L191.49,476.4L191.52,478.14L191.98,461.11L192,460.57L192.04,460.3L192.56,478.64L192.72,465.58L192.74,455.48L192.91,481.63L193.59,475.45L193.61,476.55L194.3,477.16L194.36,459.37L194.37,460.27L194.39,461.44L194.43,457.97L195,477.41L195.08,468.36L195.1,468.93L195.17,456.21L195.35,483.05L195.72,467.97L195.74,464.65L196.16,459.49L196.39,476.38L196.51,459.75L196.52,459.53L196.85,458.68L197.09,476.49L197.27,461.59L197.29,463.43L197.61,456.18L197.78,483.86L198.01,468.9L198.03,472.45L198.13,479.43L198.61,459.36L198.78,475.07L198.8,474.97L198.96,459.65L199.17,477.21L199.33,464.2L199.35,459.65L200.04,457.13L200.22,483.96L200.23,482.99L201.04,461.06L201.13,462.25L201.15,465.01L201.26,478.03L201.78,460.66L201.91,476.54L201.93,476.4L202.07,460.49L202.31,480.23L202.47,469.02L202.48,458.07L202.65,484.47L203.06,459.77L203.08,460.37L203.35,476.15L203.47,458.08L203.81,458.69L203.83,458.5L204.39,475.89L204.6,464.3L204.61,461.59L204.92,456.97L205.09,483.17L205.44,478.68L205.45,472.63L205.9,459.6L206.14,476.79L206.22,464.28L206.24,462.7L206.61,459.91L206.82,476.7L206.98,463.46L206.99,465.58L207.35,456.62L207.53,482.66L207.73,465.83L207.74,467.42L207.86,479.64L208.4,459.51L208.43,463.57L208.44,460.95L208.7,459.04L209.25,477.06L209.27,476.78L209.79,459.5L209.96,483.5L210.01,479.6L210.02,478.79L210.3,479.66L210.43,459.53L210.59,473.41L210.6,474.71L210.65,476.15L210.72,459.78L210.76,460.51L210.78,457.9L210.79,457.63L210.94,472.63L210.95,473.89L210.99,475.74L211.12,456.41L211.44,460.32L211.46,458.72L211.47,456.85L212.05,477.78L212.15,468.52L212.17,468.44L212.23,455.61L212.4,481.86L212.79,461.09L212.81,459.62L213.23,457.37L213.43,476.07L213.47,463.4L213.49,460.18L213.56,458.9L213.78,476.52L214.11,474.98L214.13,478.3L214.66,457.34L214.84,481.99L214.87,479.05L214.88,477.65L215.65,456.17L215.76,460.63L215.78,464.96L215.87,475.91L216.36,454.71L216.55,473.51L216.56,476.07L217.1,454.07L217.16,462.73L217.17,466.38L217.27,480.36L217.74,455.62L217.95,475.23L217.97,474.36L218.43,453.91L218.65,474.43L218.74,456.02L218.75,457.53L218.78,453.22L219,473.75L219.33,470.94L219.35,474.11L219.54,454.69L219.71,478.47L219.87,468.29L219.88,458.96L220.04,477.41L220.17,455.91L220.45,457.6L220.46,455.8L220.74,474.59L220.87,452.26L220.88,452.26L221.44,474.73L221.65,462.51L221.67,459.62L221.97,455.76L222.15,482.05L222.49,476.85L222.51,469.91L222.62,456.06L222.83,476.81L223.26,458.39L223.28,460.25L223.6,456.4L223.87,476.6L224.02,458.81L224.03,462.04L224.41,456.52L224.58,481.95L224.89,477.55L224.9,477.53L224.92,480.37L225.34,457.46L225.61,476.73L225.63,474.23L226.09,454.93L226.32,477.58L226.38,470.28L226.39,470.11L226.47,472.63L226.48,468.39L226.84,455.17L227.02,480.82L227.22,463.44L227.24,464.82L227.35,479.38L227.83,454.11L228,470.9L228.02,471.69L228.18,454.16L228.74,475.9L228.76,473.69L228.77,467.33L229.28,453.84L229.47,480.78L229.48,479.69L229.5,477.85L229.8,478.95L230.28,450.67L230.4,457.53L230.41,460.66L230.63,451.27L231.12,529.55L231.21,479.57L231.22,471.62L231.33,455.84L231.91,481.08L231.95,477.82L231.96,476.12L232.08,461.39L232.21,476.4L232.22,476.25L232.24,479.58L233.07,450.69L233.08,451.79L233.65,478.37L233.85,461.62L233.86,461.96L234.17,455.14L234.34,478.82L234.69,478.66L234.7,470.23L235.15,452.97L235.37,476.31L235.47,458.72L235.49,456.34L235.5,454.71L236.07,476.66L236.21,456.83L236.23,459.84L236.6,457.02L236.78,481.27L237.05,474.07L237.07,475.11L237.11,479.05L237.24,454.49L237.49,466.72L237.5,458.98L237.81,475.37L237.94,451.82L238.14,470.87L238.16,475.66L238.5,476.41L238.62,456.93L238.63,455.25L239.04,453.37L239.21,478.45L239.37,470.43L239.39,459.03L239.55,477.04L239.58,467.34L239.59,458.83L239.9,474.57L240.03,451.14L240.37,452.12L240.39,453.22L240.59,474L240.72,451.55L241.14,457.59L241.16,458.9L241.48,453.06L241.65,477.72L241.88,461.55L241.9,464.94L241.98,475.79L242.46,451.83L242.65,469.36L242.67,470.09L242.68,473.83L243.16,451.14L243.39,471.8L243.41,465.35L243.51,453.26L244.09,479.52L244.13,475.38L244.15,474.59L244.42,477.37L244.55,451.53L244.75,469.73L244.77,473.53L245.25,451.05L245.55,453.49L245.57,455.36L245.81,473.58L245.94,450.85L246.28,463.26L246.29,463.02L246.36,451.77L246.52,476.32L246.89,466.32L246.9,457.93L247.21,473.02L247.68,449.26L247.7,450.24L247.9,472.05L248.45,455.11L248.47,456.88L248.8,452.1L248.96,476.77L249.19,461.37L249.21,464.57L249.29,476.47L249.77,449.57L249.96,468.12L249.98,468.58L250.12,450.13L250.34,473.07L250.72,465.98L250.73,458.85L250.82,452.27L251.4,477.54L251.43,474.4L251.44,473.02L251.59,457.75L252.08,478.68L252.09,480.08L252.9,452.12L253.04,458.65L253.05,462.27L253.67,452.67L253.83,477.22L253.85,476.09L253.86,475.13L254.02,458.03L254.18,478.21L254.5,474.15L254.51,478.89L254.53,481.55L254.99,456.12L255.09,456.34L255.11,457.69L255.23,472.79L255.34,454.22L255.89,469.02L255.91,472.92L256.11,452.48L256.27,477.65L256.62,474.12L256.63,467.47L256.95,472.08L257.08,450.92L257.4,454.57L257.42,453.04L257.78,449.76L258.01,470.73L258.15,456.02L258.17,463.05L258.55,454.3L258.71,477.37L258.92,460.62L258.94,462.01L259.04,474.43L259.17,453.08L259.69,468.47L259.71,469.35L259.75,473.21L259.87,451.23L260.11,465.19L260.13,458.23L260.56,451.88L260.79,472.94L260.85,463.02L260.87,463.92L261.14,478.78L261.55,454.28L261.56,455.1L261.58,456.46L262.19,474.55L262.3,452.33L262.33,456.41L262.35,463.33L262.88,473.4L263,451.81L263.11,456.74L263.13,459.84L263.42,453.52L263.58,477.01L263.91,473.94L263.93,474.23L264.39,450.04L264.7,453.68L264.71,455.56L264.74,449.35L264.97,471.04L265.45,451.78L265.46,455.65L265.86,453.38L266.01,476.36L266.2,456.76L266.22,457.89L266.36,472.9L266.48,449.18L266.74,456.45L266.75,452.58L266.83,447.65L267.06,470.22L267.35,464.95L267.36,465.83L267.41,470.58L267.47,451.84L267.49,454.84L267.51,451.9L267.52,449.35L268.1,472.35L268.2,465.11L268.22,465.46L268.29,454.79L268.45,476.93L268.97,467.62L268.99,464.12L269.15,476.48L269.61,456.74L269.67,460.9L269.68,458.32L269.84,470.46L269.9,450.82L269.95,451.31L269.96,448.84L270.54,471.91L270.7,465.44L270.71,454.31L270.73,451.2L270.87,475.68L271.44,455.03L271.45,456.19L271.92,471.39L272.03,450.95L272.25,470.67L272.27,471.78L272.73,449.33L272.96,471.82L273.03,461.27L273.05,462.54L273.15,451.87L273.28,469.7L273.3,472.63L273.31,476.11L273.77,449.97L274.02,463.85L274.03,456.24L274.35,469.77L274.47,446.76L274.69,468.56L274.7,469.41L274.82,447.92L275.4,471.75L275.46,461.84L275.47,462.18L275.59,451.95L275.75,475.62L276.14,454.5L276.15,452.76L276.21,449.58L276.36,460.45L276.37,464.84L276.91,447.3L277.14,469.9L277.15,463.55L277.25,447.57L277.83,470.04L277.91,458.91L277.92,460.09L277.98,463.44L278.01,451.6L278.02,450.24L278.18,474.33L278.59,449.18L278.62,451.12L278.63,448.33L278.88,467.72L278.99,445.3L279.2,463.7L279.21,465.94L279.23,467.02L279.34,445.11L279.62,449.22L279.63,447.69L279.69,446.23L280.27,470.26L280.43,463.87L280.44,451.91L280.46,451.41L280.56,467.25L280.58,467.47L280.62,475.05L281.01,452.12L281.02,450.78L281.08,447.97L281.66,469.76L281.71,453.45L281.72,451.84L282.01,470.55L282.13,449.22L282.39,455.75L282.4,452.2L282.48,449.33L282.71,470.59L282.95,458.77L282.97,461.54L283.06,475.1L283.62,451.15L283.75,469.04L283.77,462.09L283.87,447.98L284.1,468.87L284.52,454.34L284.53,455.82L284.66,452.32L284.8,475.28L285.07,469.58L285.09,471.35L285.32,453.88L285.49,477.51L285.65,468.98L285.67,456.78L285.84,472.99L285.96,449.33L286.2,462.65L286.22,455.06L286.54,468.86L286.65,447L286.97,451.9L286.99,449.99L287.35,446.85L287.58,469.14L287.68,459.46L287.7,459.53L287.75,447.81L287.93,473.2L288.32,451.08L288.33,448.93L288.39,447.33L288.54,458.91L288.55,461.58L288.62,467.81L289.09,445.8L289.18,453.2L289.19,449.17L289.78,446.41L290.02,468.83L290.03,464.94L290.36,473.12L290.83,445.33L290.84,446.05L290.86,449.86L291.18,445.66L291.41,467.24L291.61,453.03L291.63,448.6L292.45,473.89L292.47,470.94L292.48,466.34L292.63,451.14L292.8,479.16L293.29,457.76L293.31,458.46L293.61,454.36L293.84,474.11L294.06,456.23L294.08,458.86L294.19,474.18L294.66,455.83L294.86,470.19L294.87,473.36L295.06,452.83L295.24,479.08L295.59,475.31L295.6,469.3L296.05,455.5L296.28,480.82L296.34,475.32L296.35,474.26L296.43,474.71L296.44,468.64L296.46,459.99L296.6,475.73L296.75,454.46L296.99,468.07L297.01,461.23L297.5,450.73L297.67,479.98L297.72,475.58L297.73,472.86L298.02,477.1L298.15,453.71L298.3,467.77L298.31,469.38L298.37,473.37L298.49,451.53L298.73,465.82L298.75,458.32L298.83,450.15L299.41,471.2L299.5,457.05L299.52,455.49L299.94,452.71L300.11,478.31L300.17,473.49L300.18,473.39L300.28,457.33L300.44,475.66L300.49,461.63L300.5,457.95L300.81,471.36L300.92,453.07L301.1,471L301.11,471.64L301.15,473.31L301.17,467.47L301.18,460.69L301.5,472.63L301.62,453.49L301.92,456.42L301.94,459.17L302.37,454.29L302.53,476.66L302.55,480.08L303.36,453.39L303.46,455.52L303.47,457.93L303.59,473.02L304.05,451.79L304.26,469.41L304.27,470.62L304.4,451.73L304.63,473.31L304.78,466.18L304.79,458.81L304.81,451.73L304.98,477.8L305.53,459.82L305.55,456.98L306.14,451.87L306.37,475.21L306.39,472.31L306.55,454.31L307.07,475.41L307.16,465.3L307.17,465.96L307.24,452.01L307.38,471.34L307.39,472.12L307.42,478.26L307.88,451.83L308.12,471.69L308.13,465.57L308.23,451.87L308.81,472.38L308.88,456.39L308.9,458.47L309.28,453.65L309.51,474.62L309.61,466.31L309.62,466.72L309.68,452.71L309.86,480.42L310.01,466.7L310.03,457.61L310.2,476.03L310.73,455.65L310.75,459.31L310.77,456.32L311.07,455.31L311.25,473.18L311.57,471L311.58,471.82L311.71,455.31L311.94,474.98L312.09,466.43L312.1,460.57L312.12,452.03L312.29,479.16L312.86,455.36L312.87,458.17L313.1,452.61L313.68,473.47L313.7,467.44L314.16,454.52L314.38,474.78L314.45,466.36L314.47,467.35L314.55,453.9L315.08,481.82L315.22,470.65L315.24,467.8L315.42,476.11L315.6,456.82L316,459.47L316.02,463.06L316.12,473.19L316.64,454.68L316.79,470.14L316.8,471.72L316.99,453.18L317.16,480.53L317.53,471.77L317.54,464.81L317.63,456.46L317.86,474.8L318.31,460.12L318.32,459.12L318.56,475.25L318.69,457.45L318.72,461.11L318.73,457.68L319.25,476.42L319.41,462.06L319.43,452.52L319.6,480.38L320.28,473.68L320.3,474.64L320.76,456.48L320.99,475.13L321.07,460.41L321.08,461.84L321.52,456.92L321.69,476.04L321.79,466.88L321.81,467.13L321.86,453.08L322.04,480.7L322.41,464.3L322.43,460.98L322.73,475.22L322.85,456.18L323.2,456.57L323.21,456.62L323.43,474.04L323.91,455.43L323.94,459.96L323.95,455.88L324.3,452.01L324.47,479.46L324.63,467L324.65,457.04L324.82,475.81L325,453.61L325.26,458.57L325.27,456.35L325.52,472.26L325.65,453.84L325.85,471.54L325.87,472.33L325.98,453.77L326.56,476.7L326.62,466.44L326.63,466.97L326.74,454.74L326.91,480.71L327.29,463.05L327.3,459.33L327.61,473.21L327.72,454.58L327.9,472.15L327.91,472.5L327.95,474.21L328.08,455.32L328.33,463.27L328.35,459.28L328.77,455.4L328.98,473.53L329,476.25L329.17,453.88L329.35,480.68L329.82,454.38L329.84,456.89L330.39,473.57L330.51,454.85L330.59,459.9L330.61,457.03L330.91,454.78L331.09,473.8L331.39,471.82L331.41,472.04L331.61,451.39L331.78,480.14L332.13,474.73L332.15,468.27L332.59,452.2L332.83,473.35L332.91,456.2L332.93,456.51L332.94,453.19L333.52,473.07L333.67,455.96L333.68,457.44L333.87,474.52L334.05,451.84L334.16,471.56L334.18,472.65L334.22,478.84L334.39,458.38L334.61,459.46L334.63,457.64L335.03,455.27L335.25,474.08L335.28,468.07L335.29,461.8L335.73,454.56L335.94,473.05L335.96,473.24L336.48,451.49L336.66,479.62L336.7,475.28L336.71,474.6L336.99,475.62L337.13,454.31L337.26,466.7L337.28,469.14L337.82,450.86L337.84,518.72L338.05,474.04L338.06,467.38L338.16,455.95L338.74,476.17L338.8,465.32L338.82,465.57L338.92,454.51L339.09,481.04L339.5,458.02L339.51,458.41L339.77,474.28L339.9,452.93L340.22,457.15L340.24,454.8L340.27,452.08L340.47,471.92L340.96,454.95L340.98,458.53L341.01,456.04L341.53,480.51L341.83,475.56L341.85,475.45L341.86,476.91L341.99,455.26L342.57,473.53L342.59,467.43L343.04,455.01L343.25,473.86L343.34,456.07L343.36,457.55L343.79,451.39L343.96,478.82L344.04,472.01L344.05,471.92L344.11,472.45L344.12,466.78L344.14,455.73L344.3,474.82L344.76,451.73L344.78,449.61L345.34,471.55L345.41,453.06L345.43,453.89L345.82,450.91L346.05,472.86L346.2,464.89L346.21,460.2L346.4,477.38L346.87,449.79L346.97,452.72L346.98,455.06L347.08,471.54L347.56,447.62L347.78,470.38L347.79,469.05L347.91,447.85L348.49,472.14L348.55,460.11L348.56,460.73L348.66,450.39L348.84,477.59L349.2,466.45L349.21,459.11L349.52,472.99L350,449.07L350.01,449.1L350.03,453.12L350.22,471.96L350.35,449.21L350.78,456.04L350.8,452.21L351.1,448.67L351.27,474.51L351.43,462.93L351.45,454.72L351.46,454.44L351.59,470.49L351.61,473.32L351.74,449.83L352.4,455.42L352.42,453.52L352.78,451.04L353,472.55L353.14,453.7L353.16,457.43L353.19,455.66L353.71,478.85L354.06,474.56L354.07,467.27L354.52,450.46L354.74,472.22L354.84,454.56L354.86,453.19L355.44,472.47L355.57,449.94L355.6,454.43L355.61,456.2L355.97,449.88L356.16,475.42L356.35,455.57L356.36,457.12L356.49,475.52L356.9,452.18L356.92,450.11L357.19,472.27L357.34,446.93L357.6,453.27L357.61,451.92L357.67,449.23L357.89,471.54L358,451.08L358.02,448.99L358.6,475.83L358.93,474.66L358.95,472.52L359.41,447.39L359.71,450.89L359.73,452.61L359.76,447.18L360.32,471.92L360.47,451.27L360.48,454.81L360.51,453.06L361.03,477.02L361.37,475.74L361.38,473.01L362.19,450.11L362.21,451.21L362.76,473.17L362.89,448.44L362.96,454.26L362.98,455.9L363.3,449.66L363.47,475.87L363.7,459.3L363.72,461.76L363.8,474.44L364.28,447.33L364.47,465.73L364.49,466.49L364.63,446.13L365.21,474.91L365.24,469.8L365.25,467.8L365.54,475.81L365.73,453.85L365.83,468.12L365.85,469.62L365.92,476.9L366.37,449.03L366.46,455.76L366.47,452.65L366.59,472.4L367.07,449.79L367.15,456.65L367.17,452.99L367.28,472.27L367.76,449.25L367.99,470.78L368.01,466.48L368.17,449.6L368.34,474.02L368.79,450.15L368.81,447.71L369.16,447.5L369.37,471.02L369.56,452.07L369.58,453.26L370.07,473.29L370.2,449.55L370.43,471.26L370.45,467.53L370.62,449.57L370.78,475.88L371.23,449.89L371.24,447.22L371.46,469.73L371.5,452.45L371.52,449.31L371.81,468.63L371.94,444.22L372.29,445.2L372.3,445.88L372.64,445.76L372.85,469.58L373.03,460.6L373.04,448.36L373.22,475.23L373.59,454.8L373.61,450.77L373.9,470.11L374.38,444.88L374.39,445.16L374.4,450.88L374.59,469.23L374.72,445.65L375.14,451.61L375.16,453.13L375.49,448.76L375.65,474.19L375.88,457.9L375.9,461.31L375.99,472.8L376.12,449.81L376.65,466.19L376.67,466.7L376.81,452.29L377.38,472.38L377.41,466.28L377.42,459.65L377.74,474.94L377.93,451.22L378.06,470.72L378.07,474.99L378.09,476.42L378.55,456.54L378.6,463.6L378.61,456.44L378.65,453.48L378.77,474.9L379.07,470.72L379.09,471.97L379.13,479.99L379.58,454.46L379.6,452.9L380.05,451.18L380.18,473.16L380.34,464.39L380.35,451.42L380.37,449.31L380.52,475.7L381.02,458.19L381.03,463.27L381.09,451.95L381.57,478.87L381.79,459.31L381.8,461.46L381.9,475.84L382.38,451.1L382.47,455.38L382.48,450.98L382.8,448.49L382.96,473.99L383.14,456.36L383.15,453.11L383.29,471.74L383.77,450.01L383.86,455.6L383.87,452.16L383.99,471.01L384.12,449.61L384.56,455.57L384.57,451.58L384.82,449.8L385.05,471.54L385.21,464.34L385.22,453.73L385.4,475.83L385.86,449.71L385.93,455.51L385.95,456.84L386.08,469.7L386.56,447.68L386.69,455.9L386.7,460.05L386.79,468.61L387.25,445.21L387.34,452.85L387.36,448.63L387.67,447.38L387.83,471.97L388.18,470.33L388.2,463.4L388.65,446.88L388.88,468.94L388.95,449.48L388.97,451.39L389.34,445.73L389.57,468.27L389.7,447.92L389.72,451.95L390.11,448.47L390.27,473.36L390.47,454.3L390.49,454.94L390.6,469.81L391.08,448.17L391.3,467.59L391.31,468.23L391.43,447.02L392.08,450.64L392.1,453.06L392.13,448.53L392.71,473.88L392.78,469.87L392.79,469.98L392.87,469.04L392.88,457.86L393.05,470.87L393.52,448.84L393.63,453.84L393.65,458.3L393.75,469.52L394.21,447.73L394.43,467.99L394.45,468.86L394.56,449.11L395.14,475.06L395.19,471.65L395.2,471.11L395.48,471.53L395.59,450.13L395.61,447.91L395.96,446.91L396.19,468.09L396.27,451.42L396.29,448.96L396.65,444.91L396.88,466.94L397.01,448.05L397.03,452.01L397.42,450.52L397.56,473.86L397.78,455.96L397.8,457.71L397.91,470.61L398.38,446.56L398.57,463.92L398.58,464.15L398.73,448.56L399.31,468.86L399.32,463.1L399.33,456.29L399.65,470.43L399.84,448.71L399.97,467.12L399.99,470.09L400,473.76L400.47,449.18L400.71,461.53L400.73,454.23L400.81,445.68L401.05,468.02L401.48,450.3L401.5,447.82L401.51,446.37L402.09,469.28L402.15,461.19L402.16,461.51L402.28,450.75L402.44,474.65L402.95,469.32L402.96,460.56L403.13,473.47L403.7,453.54L403.71,454.69L403.73,457.89L403.83,468.55L404.05,447.97L404.51,465.85L404.53,468.59L404.87,472.57L405.34,446.92L405.35,447.57L405.69,447.23L405.92,468.82L406.09,452.26L406.11,452.73L406.38,449.71L406.96,470.52L406.98,466.59L407.14,450.01L407.31,474.3L407.75,454.33L407.76,452.58L408.06,449.27L408.35,468.56L408.49,452.57L408.5,455L408.7,468.44L408.82,446.09L409.22,450.74L409.24,451.64L409.57,447.89L409.75,472.88L410.09,468.84L410.11,462.17L410.21,446.61L410.44,468.35L410.86,448.53L410.88,449.93L410.91,445.69L411.49,466.89L411.62,449.03L411.63,452.71L412.01,448.76L412.18,474.4L412.4,458.26L412.42,460.17L412.53,471.56L413,447.81L413.18,465.13L413.2,465.29L413.23,467.83L413.69,446.47L413.92,466.92L413.94,460.45L414.45,446.59L414.62,472.56L414.68,468.06L414.69,467.27L414.76,468.72L414.78,463.1L414.79,452.48L414.97,470.39L415.01,451.26L415.03,450.47L415.32,468.18L415.43,447.34L415.75,452.31L415.77,450.32L416.36,468.48L416.48,448.13L416.5,452.52L416.52,455.3L416.88,450.31L417.06,473.58L417.26,454.71L417.27,455.53L417.4,469.17L417.87,447.91L417.94,452.72L417.96,452.4L418.16,449.45L418.45,469.26L418.69,456.08L418.71,459.33L418.8,475.79L419.32,451.38L419.51,474.27L419.52,473.09L419.84,473.56L420.03,452.54L420.13,464.31L420.14,465.03L420.19,468.84L420.65,446.39L420.74,452.3L420.75,448.68L420.88,466.01L421.35,445.1L421.44,452.11L421.45,448.16L421.75,446.14L422.28,472.66L422.29,465.83L422.31,458.96L422.39,452.44L422.97,471.69L423.06,457.6L423.07,456.37L423.15,454.06L423.32,477.78L423.58,467.19L423.6,469.25L424.19,450.6L424.37,477.66L424.39,475.23L424.41,473.71L424.7,473.87L425.18,452.64L425.28,453.44L425.29,455.75L425.53,451.41L425.76,470.24L426.09,469.11L426.11,469.29L426.63,446.38L426.8,473.87L426.85,471.05L426.86,470.03L426.92,473.93L426.96,463.28L426.98,455.87L427.15,473.17L427.32,453.4L427.7,457.34L427.72,454.2L427.85,470.82L428.37,452.49L428.51,466.95L428.53,468.33L428.66,450.9L428.89,471.69L429.05,455.87L429.06,447.43L429.24,476.01L429.73,452.76L429.75,452.31L429.93,469.11L430.05,449.04L430.47,453.8L430.49,455.1L430.98,469.44L431.09,450.27L431.22,456.66L431.24,460.05L431.5,447.49L431.67,475.33L432.02,472.07L432.04,465.29L432.14,449.57L432.37,470.33L432.79,450.61L432.81,452.95L433.18,449.83L433.41,471.41L433.55,452.85L433.56,455.03L433.94,450.59L434.11,478.68L434.18,472.59L434.2,472.12L434.44,475.09L434.57,451.77L434.78,469.36L434.79,470.94L434.82,464.61L434.84,457.74L434.92,449.24L435.15,470.45L435.6,452.33L435.62,451.36L435.97,450.62L436.2,472.12L436.34,465.24L436.36,458.8L436.37,450.02L436.55,476.81L437.11,453.51L437.13,455.11L437.36,451.98L437.59,471.06L437.92,470.49L437.94,471.54L438.46,453.86L438.64,473.56L438.69,462.82L438.71,463.38L438.81,450.46L438.98,477.63L439.37,459.08L439.39,456.7L439.45,454.31L440.03,472.61L440.04,466.22L440.06,459.51L440.14,453.71L440.72,474.27L440.81,459.51L440.83,457.13L441.07,476.94L441.25,452.5L441.39,473.97L441.41,476.18L441.42,479.85L441.59,457.78L442.14,471.74L442.16,469.3L442.46,475.03L442.64,454.58L442.86,457.24L442.87,34.45L443.51,474.35L443.65,469.89L443.67,462.42L443.86,477.65L444.32,451.82L444.42,455.13L444.44,456.54L444.67,451.54L444.9,472.88L445.22,469.42L445.23,470.12L445.36,452.24L445.94,474.84L445.96,471.06L445.97,466.53L446.12,451.71L446.29,478.86L446.79,456.73L446.8,457.64L447.34,472.86L447.45,454.39L447.55,456.03L447.57,457.55L447.68,472.25L448.15,452.29L448.34,467.12L448.35,467.69L448.55,453.63L448.73,478.1L449.08,473.36L449.09,467.28L449.43,470.9L449.54,454.25L449.87,456.05L449.89,454.74L450.12,470.79L450.25,453.68L450.5,459.06L450.51,456.14L450.82,473.28L450.99,451.59L451.09,469.52L451.11,471.2L451.17,479.08L451.63,454.48L451.72,459.07L451.73,456.62L451.86,471.76L452.33,454.33L452.56,471L452.57,465.6L453.02,453.03L453.25,474.85L453.31,463.35L453.33,463.6L453.43,452.42L453.6,478.07L453.96,467.75L453.98,461.16L454.41,454.84L454.65,472.08L454.73,458.53L454.75,456.71L455.34,472.24L455.46,453.71L455.49,456.17L455.5,457.79L455.86,451.74L456.04,478.21L456.15,471.12L456.17,471.26L456.37,473.81L456.85,451.21L456.95,454.32L456.97,456.09L457.43,472.48L457.56,453.33L457.75,471.13L457.76,471.97L457.78,472.33L457.81,460.32L457.82,457.06L458.13,474.6L458.3,451.7L458.42,472.57L458.43,473.52L458.47,479.79L458.65,458.67L458.84,470.02L458.85,463.08L459.16,472.67L459.63,451.78L459.65,452.13L459.66,454.1L459.85,471.06L460,453.05L460.42,458.37L460.43,455.43L460.74,451.86L460.91,479.03L461.26,473.01L461.27,466.87L461.59,471.38L461.72,453.21L462.04,455.67L462.06,454.19L462.65,469.94L462.77,452.03L462.8,455.88L462.81,458.57L463.17,451.23L463.35,477.95L463.55,458.46L463.56,459.85L463.68,473.56L464.16,451.75L464.25,457.6L464.26,455.01L464.39,470.17L464.86,451.13L464.94,456.76L464.96,454.08L465.2,450.67L465.78,478.25L465.8,476.84L465.81,474.56L466.6,447.42L466.71,452.81L466.73,456.88L466.83,467.71L467.29,445.13L467.49,464.21L467.51,465.8L467.58,450.14L467.87,472.57L468.19,471.31L468.21,474.65L468.22,477.73L468.7,455.15L468.92,470.5L468.93,464.67L469.25,470.76L469.67,451.03L469.71,453.26L469.73,451.55L470.31,471.82L470.45,464.48L470.47,460.16L470.48,450.78L470.66,477.39L471.22,455.3L471.24,456.9L471.34,471.11L471.83,449.83L472.01,466.14L472.02,466.09L472.16,449.62L472.74,471.71L472.76,467.22L472.77,462.48L473.09,474.79L473.56,446.74L473.59,449.55L473.6,453.91L474.12,469.6L474.25,448.91L474.33,455.1L474.34,456.91L474.47,470.3L474.6,448.23L475.08,457.45L475.09,461.5L475.36,448.56L475.53,474.96L475.88,470.75L475.89,463.9L475.99,446.73L476.21,469.99L476.67,449.51L476.69,446.74L477.25,468.42L477.37,452.89L477.39,451.53L477.97,477.57L478.13,468.92L478.14,459.71L478.3,476.07L478.43,454.15L478.71,454.64L478.72,452.65L479.13,450.57L479.34,472.33L479.39,456.99L479.4,453.28L479.69,471.92L479.82,449.23L480.02,466.64L480.04,470.34L480.11,457.55L480.21,457.89L480.23,449.19L480.4,475.11L481.08,468.46L481.1,466.58L481.43,469.65L481.56,446.73L481.87,448.07L481.88,450.16L482.13,468.48L482.26,444.97L482.46,464.86L482.48,469.36L482.66,447.63L482.85,472.95L483.11,463.71L483.13,465.55L483.19,472.37L483.66,446L483.9,468.4L483.91,463.01L484.36,448.49L484.58,468.99L484.69,449.91L484.71,448.47L485.29,474.91L485.45,464.95L485.46,455.18L485.62,473.86L485.75,448.57L486,460.75L486.01,453.2L486.1,445.9L486.32,468.99L486.65,467.17L486.67,471.08L486.8,447.22L487.36,472.38L487.38,472.15L487.73,475.56L488.19,447.89L488.2,449L488.76,469.87L488.89,446.38L488.97,454.41L488.99,451.15L489.23,446.01L489.45,469.84L489.81,468.21L489.83,463.9L489.99,447.29L490.16,472.82L490.61,447.93L490.63,445.64L490.97,445.55L491.19,468.7L491.22,459.02L491.24,451.17L491.34,443.38L491.89,468.35L492,445.97L492.02,444.33L492.6,472.68L492.9,467.5L492.92,467.94L492.93,470.84L493,449.53L493.64,468.73L493.66,462.95L494.11,450.19L494.32,470.36L494.41,452.11L494.43,454.08L494.86,449.9L495.03,474.65L495.09,468.89L495.11,468.11L495.18,468.27L495.21,453.62L495.32,467.24L495.34,468.12L495.37,472.32L495.5,445.69L495.75,461.26L495.76,453.26L496.06,469.5L496.19,445.23L496.51,450.96L496.53,447.96L496.89,444.93L497.11,469.48L497.22,457.65L497.24,457.48L497.3,448.53L497.47,472.61L497.73,463.17L497.75,465.53L497.8,471.53L497.94,445.02L498.37,453.79L498.38,450.29L498.5,468.81L498.98,444.87L499.07,452.87L499.08,449.08L499.33,444.57L499.54,467.61L499.72,461.14L499.73,449.74L499.75,448.92L499.91,472.69L500.02,467.83L500.04,468.04L500.24,472.04L500.47,453.61L500.62,461.12L500.63,453.33L500.72,446.33L500.94,468.57L501.27,464.72L501.29,467.23L501.42,446.83L501.63,468.46L501.69,450.71L501.71,448.97L501.76,447.38L502.34,473.87L502.5,466.59L502.52,454.57L502.68,470.75L502.75,448.15L503.27,453.55L503.29,457.06L503.5,451.22L504.07,471.23L504.08,470.09L504.62,451.43L504.78,474.07L504.81,471.26L504.82,469.44L505.11,473.37L505.35,452.22L505.45,466.2L505.46,470.51L505.59,451.45L505.8,466.86L505.81,471.25L506.01,456.53L506.17,477.58L506.62,457.45L506.64,456.26L507.06,450.36L507.22,475.25L507.38,468.59L507.39,456.62L507.55,471.17L508.03,450.11L508.14,451.9L508.16,455.12L508.45,454.6L508.61,476.57L508.94,471.99L508.96,471.7L509.49,451.09L509.65,475.17L509.71,471.44L509.73,470.91L509.8,471.54L509.81,470.07L509.83,458.05L509.99,472.12L510.47,446.99L510.58,449.88L510.6,453.39L511.16,447.73L511.38,467L511.39,466.81L511.51,446.55L512.09,471.78L512.12,469.15L512.13,468.5L512.28,452.7L512.41,465.29L512.42,468.13L512.55,445.15L512.76,462.3L512.77,465.53L512.79,465.71L512.8,458.78L512.9,443.2L513.12,465.36L513.55,446.84L513.57,448.41L513.6,443.31L514.18,466.79L514.29,455.68L514.31,456.3L514.37,445.41L514.53,470.31L514.98,447.83L514.99,442.98L515.22,465.36L515.34,442.52L515.67,443.81L515.69,441.91L516.27,466.07L516.37,446.53L516.38,444.8L516.96,472.21L517.14,456.2L517.15,453.55L517.31,469.04L517.34,453.04L517.35,448.92L517.66,466.26L517.77,443.47L517.98,462.36L517.99,465.68L518.01,466.56L518.12,442.41L518.38,450.14L518.4,446.94L518.82,441.96L519.05,466.25L519.21,458.53L519.22,448.57L519.4,469.44L519.86,444.75L519.94,451.98L519.95,452.48L520.21,442.31L520.44,464.41L520.69,452.32L520.7,456.15L520.91,445.54L521.49,467.56L521.5,464.58L521.52,460.51L521.83,470.24L522.3,444.34L522.31,445.03L522.33,447.16L522.65,442.2L522.88,465.79L523.08,450.77L523.1,446.7L523.34,442.71L523.92,467.28L523.94,464.84L523.95,461.39L524.11,449.43L524.27,470.62L524.6,468.32L524.62,471.33L524.97,471.34L525.43,451.96L525.45,452.88L525.66,466.35L525.78,444.69L526.19,453.83L526.2,452.81L526.55,449.05L526.69,473.48L527.04,470.1L527.06,463.96L527.52,448.83L527.74,469.32L527.82,453.01L527.84,450.6L528.09,467.66L528.55,443.85L528.58,448.89L528.59,454.92L528.97,447.36L529.13,472.04L529.26,466.74L529.27,467.14L529.48,468.13L529.94,446.55L530.06,450.74L530.07,453.3L530.64,445.71L530.87,468.67L530.88,462.37L530.99,449.65L531.57,473.64L531.59,471.34L531.61,470.62L532.04,447.51L532.23,464.8L532.25,466.93L532.26,467.95L532.73,444.57L532.81,452.45L532.83,448.19L533.42,444.68L533.65,467.59L533.67,464.48L533.68,460.44L534,471.26L534.47,442.5L534.5,446.44L534.51,453.42L534.7,465.36L535.16,443.06L535.26,447.69L535.28,449.06L535.86,444.93L536.09,467.25L536.11,463.93L536.26,448.43L536.44,473.15L536.89,449.6L536.9,448.21L537.13,468.11L537.19,448.97L537.21,448.57L537.25,446.69L537.48,468.23L537.93,447.79L537.95,445.41L537.96,445L538.16,465.99L538.18,467.64L538.29,444.48L538.87,471.8L538.93,466.66L538.95,465.38L539.22,467.87L539.34,444.87L539.56,465.7L539.57,466.54L539.69,442.88L539.92,467.4L540.34,450.37L540.35,452.03L540.38,450.49L540.6,469.47L540.62,474.72L541.14,449.72L541.3,469.18L541.31,472.3L542.12,440.6L542.25,448.39L542.27,452.84L542.47,444.07L542.7,466.57L543.05,466.5L543.07,459.91L543.17,446.22L543.75,473.09L543.79,469.03L543.81,467.42L544.1,468.16L544.21,445.7L544.41,463.12L544.43,465.21L544.56,445.44L544.79,467.54L545.14,467.02L545.15,459.91L545.6,443.91L545.84,467.05L545.91,455.39L545.92,456.84L545.98,459.79L546,456.1L546.01,445.99L546.18,471.77L546.89,467.34L546.91,465.07L547.23,466.42L547.29,444.44L547.72,450.33L547.74,452.01L548.04,446.99L548.27,468.39L548.4,458.86L548.42,460.65L548.45,446.97L548.62,472.16L549.17,454.73L549.19,450.87L549.32,467.74L549.43,444.59L550.01,467.53L550.03,461.06L550.13,446.97L550.36,475L550.77,462.17L550.78,461.77L550.85,464.18L550.87,457.62L550.88,450.5L551.06,474.75L551.52,449.14L551.54,449.67L551.75,468.4L552.22,445L552.3,452.56L552.32,448.72L552.91,444L553.15,468.38L553.16,465.21L553.17,461.53L553.49,473.87L553.96,447.68L553.99,450.5L554,452.4L554.19,468.77L554.31,446.37L554.45,459.27L554.46,461.91L554.54,468.11L554.65,445.99L555.09,456.17L555.1,451.95L555.35,448.14L555.58,469.21L555.74,456.15L555.76,448.83L555.93,473.56L556.39,448.49L556.58,463.76L556.6,464.13L556.63,467.33L556.74,448.19L557.32,467.28L557.34,461.61L557.44,448.29L558.02,469.48L558.09,459.3L558.1,460.28L558.16,462.46L558.18,455.69L558.19,448.63L558.37,474.08L558.82,449.87L558.83,448.43L559.06,466.98L559.18,448.02L559.51,448.96L559.53,447.34L559.76,468.04L560.31,454.36L560.32,449.91L560.63,448.45L560.8,474.5L561.15,469.38L561.16,463.18L561.61,448.79L561.85,467.28L561.93,452.84L561.95,451.11L561.96,450.24L562.19,470.57L562.51,466.86L562.53,468.2L563.06,450.49L563.24,475.64L563.3,470.8L563.31,469.83L563.33,469.62L563.35,471.18L563.38,470.45L563.4,462.03L563.59,471.45L564.07,449.83L564.15,451.51L564.17,453.66L564.28,469.09L564.75,448.7L564.95,464.87L564.96,465.99L565.1,450.32L565.33,471.21L565.49,456.56L565.5,448.97L565.68,474.59L566.14,447.74L566.24,450.47L566.26,452L566.49,447.45L566.72,468.23L567.05,467.63L567.07,468.87L567.18,450.49L567.76,472.39L567.82,461L567.84,461.79L567.94,450.54L568.11,475.84L568.55,458.49L568.56,457.05L568.59,455.82L568.81,472.17L569.08,468.37L569.1,469.55L569.16,476.21L569.56,456.48L569.72,459.06L569.74,460.67L570.2,474.74L570.37,451.8L570.53,474.44L570.55,478.44L571.01,457.6L571.23,470.53L571.24,472.26L571.36,456.1L571.94,472.83L572.01,458.98L572.03,460.78L572.35,455.24L572.64,473.42L572.72,465.21L572.74,464.88L572.81,452.71L572.98,477.84L573.14,467.27L573.16,457.81L573.33,474.29L573.85,455.69L573.88,459.32L573.9,456.56L574.38,471.5L574.49,453.43L574.72,471.34L574.74,466.09L575.25,451.81L575.42,477.72L575.46,474L575.48,473.08L575.77,473.66L576.23,452.65L576.33,455.87L576.35,457.4L576.6,454.67L576.81,472.96L577.13,471.87L577.15,472.95L577.68,454.09L577.86,480.31L577.9,475.69L577.92,474.37L578.21,475.32L578.67,455.49L578.79,457.7L578.8,461.3L579.03,455.18L579.25,471.7L579.57,469.52L579.58,470.29L579.71,456.16L579.95,475.14L580.1,463.43L580.12,454.19L580.29,478.85L580.66,468.66L580.67,462.09L581.34,471.98L581.45,455.56L581.47,455.92L581.69,472.41L581.8,455.65L582.24,461.24L582.25,458.03L582.56,453.89L582.73,480.82L583.08,474.7L583.09,468.51L583.43,472.83L583.54,454.01L583.86,458.63L583.88,456.55L584.12,471.16L584.59,453.17L584.62,456.18L584.63,458.35L584.99,452.25L585.17,478.49L585.37,461.57L585.38,462.13L585.5,474.18L585.63,455.18L586.02,459.58L586.04,456.03L586.21,472.28L586.67,454.82L586.86,471L586.88,470.93L587.02,455.38L587.25,474.07L587.41,461.83L587.43,454.41L587.6,478.22L588.15,459.51L588.17,456.93L588.3,471.61L588.41,453.59L588.99,471.57L589.01,465.69L589.46,451.73L589.69,472.96L589.76,461.67L589.78,462.84L589.86,451.78L590.04,477.36L590.4,467L590.42,459.69L590.74,469.94L590.85,448.22L591.18,450.15L591.2,448.08L591.43,469.36L591.81,455.85L591.82,452.53L591.9,449.75L592.13,471.06L592.4,467.14L592.42,468.75L592.48,476.49L592.88,452.99L593.17,469.75L593.19,464.65L593.52,470.78L593.64,450.88L593.95,455.53L593.97,453.42L594.33,449.15L594.56,471.12L594.68,461.54L594.69,461.82L594.74,450.22L595.26,477.98L595.42,468.18L595.43,458.32L595.59,473.11L595.62,465.83L595.64,458.02L596.07,447.76L596.3,469.03L596.41,449.61L596.42,447.78L597,472.06L597.16,459.76L597.17,450.2L597.35,474.92L597.78,453.23L597.8,450.84L597.81,449.37L598.38,469.46L598.52,451.22L598.54,453.53L599.07,469.84L599.2,449.9L599.29,457.2L599.31,453.51L599.61,451.21L599.78,476.33L600.13,472.51L600.15,465.54L600.47,470.14L600.6,447.82L600.9,449.35L600.92,451.41L601.51,468.03L601.64,446.61L601.67,451.15L601.68,454.59L602.05,448.62L602.22,475.04L602.31,468.8L602.32,468.25L602.35,468.82L602.38,463.94L602.39,455.36L602.55,472.55L602.68,448.56L602.96,451.13L602.97,449.27L603.03,447.25L603.19,463.01L603.21,464.67L603.25,469.72L603.73,446.98L603.83,451.29L603.85,452.23L604.08,448.21L604.66,473.76L604.67,472.42L605.47,444.28L605.59,450.66L605.6,454.05L605.76,447.29L606.03,470.59L606.38,468.8L606.4,467.53L606.51,448.33L607.09,475.25L607.14,472L607.15,471.24L607.27,456.25L607.41,470.94L607.43,475.57L607.44,475.95L607.63,456.65L607.8,463.11L607.82,455.18L608.25,446.54L608.47,468.32L608.57,451.45L608.59,449.19L608.95,446.11L609.17,468.77L609.28,457.33L609.3,457.67L609.36,446.69L609.54,472.24L609.98,453.97L609.99,451.28L610.23,468.26L610.36,445.01L610.56,464.79L610.57,468.67L611.05,442.7L611.2,456.01L611.21,458.63L611.4,443.37L611.98,472.23L612.02,468.38L612.04,467.2L612.31,470.6L612.44,445.92L612.65,464.09L612.66,468.37L612.79,444.16L613.01,468.58L613.34,463.65L613.36,468.05L613.49,443.61L614.05,469.04L614.07,469.31L614.24,450.03L614.75,475.23L614.82,468.33L614.84,467.82L614.91,468.97L614.92,465.4L614.94,456.34L615.1,470.83L615.58,443.79L615.71,453.73L615.72,457.84L615.79,468.22L616.27,442.25L616.36,452.47L616.38,448.48L616.68,447.4L616.85,471.58L617.01,462.7L617.03,452.89L617.19,469.68L617.32,443.99L617.59,448.01L617.61,447.2L617.67,444.42L617.88,467.77L617.94,449.16L617.96,448.02L618.23,467.02L618.36,441.73L618.68,447.41L618.7,444L618.71,441.74L619.29,471.05L619.33,467.62L619.35,466.67L619.62,469.02L619.75,441.64L619.96,462.16L619.97,466.66L620.1,441.77L620.32,466.7L620.6,455.11L620.61,457.54L620.8,441.12L621.36,467.23L621.39,463.32L621.41,458.96L621.73,470.92L622.19,440.96L622.2,442.16L622.22,445.59L622.41,466.06L622.89,439.8L622.97,449.55L622.99,445.37L623.1,466.04L623.23,440.16L623.67,453.81L623.68,448.96L623.99,447.6L624.16,473.06L624.35,453.34L624.37,453.99L624.5,470.79L624.63,443.84L624.87,458.09L624.89,449.81L625.19,466.56L625.32,440.66L625.66,441.54L625.67,439.22L626.25,465.03L626.41,456.05L626.43,445.65L626.6,468.4L626.99,446.72L627.01,444.7L627.06,441.39L627.28,466.41L627.66,456.57L627.67,448.5L627.76,439.8L628.32,465.21L628.34,464.31L628.46,440.79L629.04,468.24L629.08,465.45L629.09,464.68L629.37,468.72L629.5,443.74L629.67,459.46L629.69,460.62L629.72,466.46L629.85,442.14L630.28,451.3L630.3,446.78L630.4,459.91L630.41,465.04L630.54,442.48L630.75,459.68L630.76,464.84L630.89,445.01L631.12,467.43L631.44,464.05L631.46,469.87L631.47,471.31L631.94,447.74L632.17,467.68L632.18,461.59L632.63,449.02L632.86,469.05L632.92,457.84L632.94,458.77L633.05,458.56L633.21,475.67L633.72,465.87L633.73,455.3L633.91,474.55L634.37,452.38L634.49,452.92L634.5,455.58L635.17,451.07L635.3,470.59L635.32,466.79L635.49,456.46L635.65,475.29L636.07,463.75L636.08,463.92L636.11,463.64L636.16,466.63L636.17,455.45L636.34,472.56L636.81,446.15L636.92,450.57L636.94,453.36L637.04,469.23L637.16,447.26L637.72,467.04L637.74,468.33L637.85,448.91L638.43,470.3L638.49,460.66L638.51,461.88L638.62,453.33L638.78,475.99L639.17,454.12L639.19,452.19L639.48,468.42L639.59,447.17L639.85,452.12L639.87,449.25L639.94,445.98L640.17,466.64L640.51,465.5L640.52,466.95L640.64,447.48L641.22,471.3L641.23,470.85L641.25,469.44L641.68,451.58L641.88,465.59L641.9,468.87L641.91,469.65L642.03,448.62L642.46,456.09L642.48,453.37L643.07,453.16L643.31,472.65L643.32,469.94L643.33,466.58L643.65,475.71L644.12,451.52L644.15,454.84L644.16,461.34L644.35,471.59L644.47,449.65L644.93,453.69L644.94,456.95L645.16,449.96L645.74,474.68L645.76,471.48L645.77,467.41L646.09,476.03L646.55,451.96L646.58,454.55L646.6,459.4L646.79,470.17L647.25,448.91L647.35,451.52L647.37,453.68L647.6,447.01L648.18,469.5L648.19,467.09L648.37,451.47L648.87,474.93L648.93,467.19L648.95,467.48L649.09,456.7L649.21,470.46L649.22,474.14L650.03,442.84L650.18,454.37L650.19,456.91L650.38,442.05L650.96,470.13L651.01,467.8L651.02,467.07L651.31,467.5L651.43,444.67L651.64,464.88L651.66,465.97L652.12,444.82L652.43,448.64L652.44,450.89L652.47,446.43L653.04,465.93L653.05,469.23L653.38,472.89L653.86,445.15L653.96,448.11L653.98,450.83L654.55,445.06L654.78,466.22L654.79,459.99L654.89,443.55L655.47,465.69L655.53,456.27L655.55,456.63L655.66,446.44L655.82,469.8L656.2,451.24L656.21,447.17L656.52,465.49L656.63,441.06L656.81,457.51L656.82,458.91L656.87,464.03L656.89,450.75L656.91,446.93L656.98,441.34L657.56,464.63L657.68,441.74L657.69,441.58L658.26,471.05L658.45,451.6L658.46,451.76L658.48,451.33L658.58,463.99L658.59,466.07L658.61,467.29L658.72,440.88L659,446.24L659.01,443.24L659.04,445.25L659.07,440.01L659.1,444.74L659.11,454.1L659.65,463.95L659.77,440.44L659.88,445.42L659.9,448.2L660.11,440.84L660.69,470.69L660.71,470.09L661.51,443.33L661.62,448.53L661.64,451.73L661.85,442.87L662.43,467.01L662.45,460.19L662.55,442.26L663.13,470.23L663.19,466.27L663.2,464.84L663.28,465.55L663.59,439.66L663.81,459.73L663.83,462.28L663.94,439.72L664.52,463.01L664.6,446.48L664.61,448.33L664.64,446.44L664.87,470.89L665.2,467.84L665.22,470.22L665.58,471.21L665.99,445.42L666.03,446.05L666.05,446.81L666.38,443.9L666.61,465.29L666.81,452.79L666.83,449.13L666.96,467.45L667.07,445.79L667.52,449.79L667.54,450.39L667.83,448.36L668,472.38L668.35,468.92L668.37,462.25L668.7,466.61L668.82,444.59L669.13,448.97L669.15,446.14L669.4,465.48L669.86,442.59L669.89,447.06L669.9,451.81L669.96,445.62L670.44,470.7L670.57,466.19L670.58,466.31L670.79,467.49L670.9,445.52L671.35,449.75L671.37,450.49L671.48,466.86L671.6,444.7L672.15,463.53L672.17,465.04L672.3,447.14L672.88,473.62L672.93,469.63L672.95,469.04L673.22,469.71L673.34,449.58L673.56,466.83L673.57,467.85L674.04,446.64L674.27,469.99L674.31,464.12L674.33,462.83L674.62,468.35L674.73,449.69L674.94,463.52L674.95,466.67L675.14,449.83L675.31,473.52L675.67,461.78L675.69,454.54L676.01,466.01L676.47,440.24L676.49,441.21L676.7,464.05L676.82,439.95L677.26,451.75L677.27,447.67L677.4,466.55L677.56,454.46L677.57,445.18L677.75,471.93L678.11,460.09L678.13,452.05L678.21,444.08L678.79,466.02L678.89,447.86L678.91,446.67L679.14,465.44L679.2,445.87L679.23,447.1L679.24,444L679.26,442.18L679.49,463.41L679.79,460.9L679.81,461.53L680.01,446.54L680.19,471.84L680.55,462.97L680.56,455.15L680.88,466.9L681.35,445.68L681.36,446.05L681.37,448.88L681.58,466.4L681.69,444.85L682.01,447.29L682.03,444.77L682.04,443.29L682.61,467.98L682.62,472.19L682.72,467.26L682.77,468.07L682.78,461.13L682.97,468.63L683.43,443.73L683.55,449.97L683.56,453.15L683.67,466.09L683.78,444.5L684.36,466.04L684.38,459.71L684.48,445.93L685.06,473.35L685.1,469.05L685.12,467.74L685.52,443.53L685.99,450.39L686,454.17L686.22,448.98L686.45,470.68L686.78,468.77L686.8,470.43L687.32,448.4L687.49,472.51L687.55,468.64L687.57,467.47L687.84,467.48L687.96,449.74L688.12,461.79L688.13,463.39L688.31,447.38L688.54,467.52L688.57,454.62L688.58,451.13L688.89,466.74L689,445.29L689.21,461.14L689.22,462.56L689.29,447.26L689.93,472.57L689.99,468.39L690,467.91L690.39,445.25L690.61,464.51L690.63,466.06L691.09,442.44L691.4,445.18L691.41,446.94L691.44,442.75L692.02,466.85L692.12,456.6L692.13,456.8L692.19,446.39L692.37,471.64L692.53,461.01L692.54,452.54L692.71,468.88L692.83,448.66L693.12,450.4L693.14,450.35L693.41,468.34L693.53,449.17L693.9,453.34L693.92,454.42L694.46,469.01L694.63,447.74L694.67,454.01L694.69,456.3L694.8,473.86L695.27,450.19L695.48,467.09L695.5,468.7L695.62,448.1L696.2,469.03L696.27,454.95L696.28,457.02L696.31,454.14L696.54,474.67L696.88,470.92L696.89,474.18L697.07,451.89L697.24,477.01L697.73,456.25L697.75,456.34L697.94,472.24L698.4,453.51L698.5,454.59L698.52,455.57L698.63,470.92L698.75,451.6L699.3,467.64L699.31,469.6L699.5,451.72L699.68,476.16L700.04,466.22L700.05,459.39L700.37,470.61L700.49,453.19L700.82,454.27L700.84,452.53L701.07,469.32L701.18,450.43L701.45,455.75L701.46,452.56L701.53,449.36L702.1,471.06L702.11,475.1L702.58,451.28L702.72,461.76L702.74,464.18L702.81,468.67L703.27,448.79L703.5,468.63L703.52,462.55L703.97,448.29L704.2,470.62L704.27,457.97L704.29,458.91L704.37,448.52L704.55,474.86L704.94,452.26L704.95,449.89L705.01,447.41L705.59,466.9L705.64,452.33L705.65,450.65L705.71,449.57L705.94,467.96L705.97,456.16L705.98,452.52L706.06,448.86L706.29,469.24L706.58,464.61L706.59,465.82L706.64,471.31L706.8,459.54L706.81,450.43L706.99,475.49L707.43,454.2L707.45,452.52L707.68,469.88L708.15,450.95L708.19,456.28L708.2,452.52L708.38,469.25L708.49,451.05L708.93,456.82L708.94,453.77L709.25,451.29L709.42,477.04L709.77,472.11L709.78,466.69L710.12,469.46L710.23,450.53L710.58,450.79L710.6,450.88L710.93,450.57L711.16,469.63L711.36,457.95L711.38,454.91L711.68,450.93L711.86,476.42L712.21,472.05L712.22,465.68L712.32,449.39L712.55,469.72L713,450L713.02,448.25L713.37,448.06L713.6,468.26L713.64,453.1L713.66,451.3L713.71,449.12L714.29,475.66L714.45,465.83L714.47,455.27L714.64,470.84L715.11,445.37L715.19,452.51L715.21,448.71L715.34,466.87L715.45,444.57L716.03,466.36L716.05,460.39L716.15,448.44L716.73,476.01L716.77,471.8L716.79,470.72L717.19,446.64L717.66,452.9L717.67,456.46L717.89,450.12L718.47,469.46L718.49,463.63L718.59,451.13L719.17,477.21L719.21,473.08L719.23,472.38L719.5,473.19L719.63,450.64L719.83,466.29L719.85,467.91L719.86,468.47L720.27,449.92L720.3,452.5L720.31,450.76L720.33,449.52L720.56,468.07L720.83,462.98L720.85,464.5L721.02,450.15L721.26,470.99L721.41,460.28L721.43,451.93L721.6,475.79L722.07,451.17L722.24,465.3L722.26,466.13L722.42,450.55L722.65,472.47L722.81,463.79L722.82,454.83L722.98,470.28L723.05,450.89L723.08,452.86L723.1,450.57L723.11,448.86L723.69,470.33L723.78,460.71L723.79,461.25L723.87,451.05L723.97,465.9L723.98,467.29L724.04,475.15L724.21,456.41L724.42,457.57L724.43,454.13L724.72,469.06L724.85,448.88L725.06,464.57L725.07,467L725.08,467.29L725.14,449.92L725.19,450.19L725.2,448.75L725.42,468.13L725.53,448.62L725.55,446.88L725.9,445.34L726.13,468.03L726.29,456.85L726.3,448.75L726.48,472.75L726.93,448.45L726.94,446.41L727.16,466.82L727.29,443.4L727.55,450.14L727.56,446.59L727.64,441.78L727.87,463.96L728.14,458.03L728.16,459.75L728.33,445.63L728.91,471.84L728.97,467.71L728.99,467.05L729.25,468.99L729.38,445.48L729.58,461.73L729.59,465.41L729.72,444.15L729.88,458.75L729.9,460.48L730.29,466.63L730.42,446.22L730.65,465.76L730.67,459.18L730.77,445.18L731.35,472.32L731.39,470.54L731.41,470.6L731.49,470.78L731.81,449.03L732,462.43L732.02,462.55L732.03,466.48L732.51,442.17L732.74,462.89L732.76,456.57L732.86,441.91L733.44,466.34L733.51,454.59L733.52,456.13L733.58,459.06L733.6,454.5L733.61,446.94L733.79,471.59L734.16,453.35L734.18,449.96L734.25,445.46L734.47,466.82L734.8,464.1L734.82,469.71L734.83,471.19L735.29,444.24L735.53,464.75L735.54,458.07L735.64,445.5L736.24,471.63L736.27,468.79L736.28,467.65L736.57,468.62L737.05,442.67L737.16,449.25L737.18,452.67L737.74,440.59L737.96,465.54L737.98,464.13L738.09,442.87L738.67,472.01L738.72,468.82L738.73,468.11L739.01,470.6L739.14,444.64L739.34,462.95L739.35,467.23L739.83,442.69L740.01,459.95L740.02,461.08L740.18,442.06L740.4,466.88L740.44,452.8L740.46,449.05L740.53,442.83L741.09,468.21L741.11,469.29L741.92,443.98L742.02,450.55L742.04,451.52L742.15,468.39L742.62,443.66L742.83,465.97L742.85,464.55L742.97,444.1L743.55,469.88L743.59,467.38L743.6,466.7L743.7,462.59L743.72,454.05L743.88,469.54L743.91,459.54L743.92,451.49L744.23,466.77L744.71,442.93L744.72,444.22L744.92,465.47L745.05,442.72L745.49,451.17L745.5,447.68L745.81,446.76L745.98,471.28L746.14,462.62L746.16,453.63L746.32,470.79L746.45,447.71L746.84,460.48L746.85,452.43L746.9,452.11L746.97,462.3L746.98,463.97L747.01,469.41L747.04,459.36L747.05,451.43L747.14,442.89L747.36,466.89L747.69,462.05L747.71,466.8L747.84,442.39L748.37,463.36L748.39,464.9L748.42,471.96L748.88,446.4L749.13,459.43L749.14,452.05L749.45,467.78L749.93,440.15L749.94,441.42L749.96,444.91L750.27,441.55L750.51,465.73L750.71,449.1L750.72,449.9L750.85,470.75L751.28,444.83L751.29,447.18L751.3,444.26L751.54,465.35L751.67,440.92L751.87,459.71L751.88,464.22L752.01,439.46L752.23,464.35L752.54,457.47L752.55,458.6L752.71,442.69L752.94,464.9L753.1,456.51L753.12,445.74L753.29,469.12L753.67,449.22L753.68,445.04L753.97,464.06L754.1,439.11L754.29,456.99L754.31,458.11L754.45,438.71L755.02,463.53L755.05,456.71L755.06,449.56L755.15,442.32L755.73,468.7L755.74,467.86L755.76,466.4L756.19,440.19L756.66,448.02L756.67,450.73L756.76,465.29L756.89,442.71L757.45,465.18L757.47,465.83L757.58,448.78L758.16,475.13L758.21,470.97L758.22,470.25L758.27,470.38L758.32,467.19L758.34,456.35L758.5,470.5L758.92,450.01L759.09,452.54L759.11,455.49L759.21,468L759.32,448.51L759.89,466.54L759.9,466.63L760.12,449.82L760.6,473.1L760.61,472.65L760.63,471.73L761.41,445.36L761.54,451.84L761.56,454.94L761.76,448.84L761.99,467.43L762.34,466.53L762.35,462.52L762.56,450.3L763.04,473.21L763.05,472.55L763.07,471.95L763.43,451.84L763.44,449.64L763.5,446.81L763.7,459.31L763.72,463.8L763.73,464.01L763.76,450.62L763.78,447.25L764.08,462.91L764.2,442.88L764.4,458.4L764.41,462.93L764.43,463.48L764.49,445.48L764.52,447.38L764.53,445.13L764.54,442.92L765.12,465.56L765.23,456.06L765.24,456.62L765.31,448.33L765.47,469.31L765.85,450.31L765.86,446.91L766.17,462.22L766.28,440.3L766.47,457.97L766.49,458.35L766.52,462.43L766.98,441.12L767.23,455.98L767.24,449.21L767.33,441.21L767.56,463.37L767.89,463.19L767.91,466.48L767.92,466.71L768.08,454.85L768.1,451.24L768.26,464.58L768.37,441.29L768.69,446.79L768.71,443.94L769.3,461.05L769.42,441.89L769.43,442.92L769.45,446.11L769.77,441.7L770,464.17L770.2,446.94L770.22,447.03L770.35,467.37L770.81,440.76L771.04,463.96L771.06,456.7L771.51,440.05L771.74,462.48L771.82,445.28L771.84,442.15L771.85,440.11L772.43,464.03L772.51,456.24L772.52,456.66L772.58,459.54L772.61,449.41L772.62,447.28L772.78,468.89L773.16,449.18L773.17,445.46L773.25,440.5L773.48,462.25L773.8,456.28L773.81,459.25L773.94,439.09L774.17,461.19L774.28,441.11L774.29,439.32L774.64,439.12L774.87,462.88L775.04,448.21L775.06,445.58L775.22,467.8L775.68,438.55L775.78,442.46L775.8,443.08L776.03,437.67L776.26,460.51L776.58,454.81L776.6,457.89L776.73,439.48L777.31,462.96L777.34,457.43L777.35,455.87L777.65,470.05L778.12,444.82L778.15,448.72L778.16,455.92L778.7,464.17L778.81,443.22L778.93,446.97L778.95,450.2L779.05,464.53L779.51,440.23L779.71,456.35L779.73,459.46L779.93,445.77L780.08,467.85L780.44,458.05L780.45,450.09L780.54,442.54L780.77,464.2L781.22,444.74L781.24,444.5L781.25,444.19L781.44,460.39L781.45,462.59L781.47,463.75L781.58,440.26L781.86,445.02L781.87,443.41L781.93,441.6L782.51,467.99L782.69,452.42L782.7,450.78L782.86,467.92L783.06,456.04L783.08,452.7L783.21,466.1L783.77,447.41L783.8,450.52L783.82,453.76L784.37,443.04L784.6,466.13L784.62,462.63L784.95,468.3L785.41,439.86L785.43,441.28L785.65,460.19L786.11,438.92L786.18,446.7L786.2,446.84L786.46,440.47L786.69,460.95L786.94,447.42L786.95,450.28L787.23,443.49L787.39,466.47L787.73,463.43L787.75,456.83L788.2,441.32L788.43,461.71L788.5,443.78L788.52,445.73L788.55,441.79L789.13,462.09L789.26,444.78L789.27,448.91L789.65,445.62L789.82,468.01L790.01,450.36L790.03,450.46L790.17,463.53L790.63,437.43L790.78,448.09L790.79,450.4L790.98,440.96L791.21,461.58L791.42,447.82L791.43,443.61L791.68,442.52L791.91,464.07L792.07,455.74L792.08,444.94L792.26,466.59L792.62,455.53L792.64,447.36L792.95,460.21L793.07,437.78L793.4,440.46L793.42,439.32L794,463.14L794.2,450.05L794.22,446.56L794.52,446.28L794.69,470.1L795.04,468.2L795.06,462.32L795.39,464.77L795.51,443.95L795.81,447.05L795.83,449.05L796.44,464.59L796.55,441.47L796.58,446.83L796.59,451.31L796.96,444.57L797.13,468.45L797.26,463.12L797.28,463.4L797.48,463.75L797.94,441.88L798.06,443.15L798.07,445.81L798.29,439.99L798.87,471.47L798.93,470.65L798.94,469.93L799.02,470.81L799.05,457.88L799.06,457.52L799.09,457.34L799.22,471.53L799.38,459.22L799.39,449.62L799.57,470.75L799.93,458.81L799.94,450.81L800.26,462.98L800.38,439.79L800.73,441.85L800.74,442.53L801.31,468.42L801.51,449.14L801.53,447.79L801.83,443.42L802,467.41L802.18,449.26L802.19,449.62L802.35,465.29L802.4,448.3L802.41,446.43L802.7,463.48L802.82,442.88L802.98,455.57L802.99,457.2L803.05,462.85L803.51,441.27L803.74,461.7L803.76,456.45L803.86,445.62L804.44,469.98L804.48,468.17L804.5,468.18L804.61,453.33L804.77,469.84L804.79,474.61L805.6,446.5L805.73,452.06L805.75,455.74L806.3,445.61L806.53,467.39L806.54,464.63L806.88,470.75L807.34,446.06L807.36,447.04L807.37,449.28L807.44,448.5L807.57,465.1L807.62,449.46L807.63,448.02L807.92,464.93L808.04,443.07L808.31,445.73L808.33,443.87L808.38,442.33L808.97,467.41L809.11,458.15L809.12,452.54L809.31,470.38L809.78,439.82L809.89,444.35L809.91,447.68L810.01,462.19L810.13,438.4L810.69,459.3L810.71,461.21L810.82,442.58L811.4,466.68L811.46,456.82L811.47,456.69L811.58,447.39L811.75,470.57L811.91,460.19L811.92,452.65L812.1,465.98L812.21,444.77L812.55,445.59L812.56,444.04L812.79,464.7L813.17,451.89L813.19,448.83L813.26,446.1L813.82,464.11L813.84,467.06L814.01,446.9L814.19,470.85L814.62,454.92L814.64,453.87L814.88,469.01L815.35,449.67L815.4,450.64L815.42,452.29L815.58,465.76L816.04,446L816.13,451.55L816.14,448.44L816.27,467.43L816.43,453.31L816.45,446.42L816.62,472.06L817.27,462.77L817.29,463.2L817.32,465.9L817.78,446.48L818.01,465.51L818.03,460.39L818.48,444.81L818.71,466.89L818.78,456.11L818.8,456.77L818.86,460.12L818.87,454.78L819.06,470.82L819.52,446.29L819.62,450.24L819.64,450.97L820.1,465.86L820.22,447.47L820.42,463.5L820.44,465.09L820.45,468.2L820.91,449.76L821.16,464.86L821.18,460.74L821.32,447.32L821.5,472.19L821.97,450.04L821.99,452.42L822.19,467.32L822.31,447.82L822.74,454.07L822.76,451.6L823,449.83L823.58,473.5L823.61,469.52L823.63,467.85L823.93,475.12L824.4,452.7L824.5,453.04L824.51,454.09L824.74,450.98L824.98,469.2L825.32,468.28L825.34,463L825.85,452.02L826.02,469.62L826.09,461.01L826.11,461.87L826.19,450.18L826.37,475.14L826.76,458.4L826.77,456.93L826.83,456.59L826.99,466.68L827.01,468.35L827.41,471.36L827.59,454.28L827.61,457.54L827.63,454.55L828.28,452.77L828.46,471.08L828.47,468.46L828.63,450.77L828.8,475.47L829.3,455.77L829.31,455.4L829.67,452.58L829.85,468.94L830.04,455.26L830.05,456.61L830.31,452.9L830.54,468.76L830.78,455.34L830.79,458.46L831.07,450.76L831.24,475.68L831.59,471.16L831.6,465.8L832.05,452.5L832.28,469.76L832.37,456.52L832.39,454.93L832.63,467.84L832.85,451.98L833.13,455.6L833.14,455.45L833.5,449.74L833.68,475.42L833.87,456.84L833.88,458.3L834.02,470.68L834.2,453.29L834.53,457.64L834.55,454.63L834.72,469.8L835.24,452.74L835.34,463.62L835.36,464.79L835.48,454.24L835.77,471.3L835.92,460.13L835.94,451.69L836.11,476.23L836.79,468.89L836.81,469.78L837.58,451.66L837.59,453.09L837.61,451.26L837.97,448.42L838.2,470.45L838.29,461.68L838.3,461.86L838.35,463.15L838.36,459.55L838.38,450.11L838.55,473.91L839.25,468.45L839.26,463.03L839.59,467.56L839.71,449.64L840.03,451.6L840.04,449.09L840.06,447.2L840.29,466.48L840.62,465.1L840.64,468.09L840.81,449.22L840.99,473.27L841.42,455.17L841.44,453.27L841.45,451.43L842.03,469.03L842.18,453.7L842.19,455.88L842.38,467.03L842.84,447.56L842.94,450.83L842.96,452.2L843.25,449.29L843.42,473.58L843.74,466.69L843.76,467.78L843.77,468.25L843.89,448.29L844.15,453.41L844.16,451.18L844.23,449.07L844.47,466.74L844.73,460.61L844.74,462.73L844.81,466.76L844.93,449.59L845.37,455.14L845.38,452.27L845.68,449.86L845.86,474.01L846.21,468.47L846.22,462.46L846.67,448.85L846.9,467.62L847,451.07L847.02,449.38L847.25,466.08L847.37,446.44L847.63,453.54L847.64,451.44L847.72,448.6L847.93,466.03L847.95,467.96L848.12,448.97L848.3,473.17L848.74,453.02L848.76,451.6L848.98,466.81L849.09,451L849.11,449.23L849.69,470.56L849.89,454.24L849.9,453.97L850.15,452.91L850.38,470.19L850.54,458.58L850.56,450.47L850.73,473.27L851.38,464.72L851.4,464.8L851.54,449.36L851.76,467.9L852.12,466.73L852.14,461.54L852.18,451.34L852.82,470.44L852.88,460.54L852.89,461.56L852.99,451.31L853.17,475.27L853.53,463.97L853.55,457.85L853.63,451.19L854.2,469.17L854.31,453.36L854.33,451.74L854.68,450.9L854.89,468.28L855.01,452.59L855.02,451.47L855.43,451.23L855.6,474.64L855.81,458.45L855.82,458.68L855.94,471.33L856.36,450.58L856.4,450.7L856.42,449.18L856.63,467.79L856.76,449.08L857.08,451.02L857.1,448.85L857.46,447.46L857.69,468.33L857.77,458.64L857.78,458.83L857.87,449.27L857.98,463.77L858,464.93L858.04,473.31L858.5,445.02L858.52,445.4L858.85,443.37L859.07,465.07L859.29,451.45L859.3,447.92L859.55,445.5L859.77,465.26L859.88,448.58L859.9,447.04L860.3,446.45L860.48,470.48L860.69,454.07L860.71,455.08L860.81,468.47L861.29,445.18L861.48,461.53L861.49,462.14L861.64,446.19L861.87,467.96L862.23,460.57L862.25,454.5L862.74,446.76L862.93,470.39L862.94,469.25L862.96,467.96L863.74,444.94L863.84,448L863.86,449.4L864.31,466.8L864.44,446.59L864.65,465.59L864.67,464.22L864.78,444.38L865.36,470.34L865.41,466.48L865.42,465.75L865.52,460.32L865.54,451.71L865.7,468.41L865.83,445.23L866.15,449.66L866.16,447L866.18,444.92L866.39,466.77L866.73,461.15L866.74,465.36L867.22,441.75L867.42,458.49L867.44,463.54L867.45,463.8L867.51,452.03L867.61,452.14L867.63,444.28L867.8,468.2L868.26,439.19L868.48,462.93L868.5,461.69L868.61,439.21L869.19,466.49L869.25,461.56L869.27,460.93L869.53,466.49L869.66,447.26L869.86,461.21L869.87,466.59L869.92,459.03L869.93,457.91L870.06,448.15L870.21,463.71L870.22,469.81L870.24,470.16L870.4,460.84L870.41,452.29L870.57,468.54L870.6,458.74L870.61,451.04L870.7,440.5L871.27,465.96L871.28,465.37L871.61,467.01L872.09,443.51L872.11,444.81L872.67,470.07L872.86,449.5L872.88,450.55L872.89,450.35L872.99,461.32L873.01,465.4L873.14,440.47L873.7,467.87L873.72,469.19L874.18,444.87L874.56,449.88L874.57,453.55L874.94,447.56L875.11,471.15L875.24,463.87L875.25,464.44L875.44,468.65L875.92,441.69L876.04,446.89L876.05,449.97L876.14,464.69L876.62,438.69L876.85,461.73L876.86,456.05L876.97,443.26L877.53,470.47L877.55,471.37L878.36,438.93L878.47,446.32L878.49,448.83L878.58,464.56L878.71,440.18L879.27,463.51L879.29,463.55L879.4,441.53L879.98,469.2L880.03,466.89L880.04,465.77L880.32,466.01L880.79,435.75L880.94,448.23L880.95,450.86L881.01,461.01L881.14,437.15L881.59,442.99L881.61,443.27L882.42,466.61L882.45,465.5L882.46,464.74L882.88,440.09L883.09,458.02L883.1,463.47L883.13,456.51L883.14,448.8L883.23,439.45L883.45,462.82L883.78,458.53L883.8,463.63L883.93,441.08L884.42,452.58L884.43,454.8L884.7,446.73L884.86,468.59L885.07,452.75L885.09,453.42L885.19,467.09L885.32,443.54L885.86,458.49L885.87,459.51L886.25,464.96L886.36,445.21L886.61,458.64L886.62,451.77L886.71,447.38L886.94,466.54L887.26,463.41L887.28,469.19L887.48,452.48L887.64,472.54L887.99,467.75L888,461.65L888.34,465.41L888.45,445.19L888.79,445.57L888.8,443.82L889.38,464.05L889.54,459.02L889.55,448L889.57,445.92L890.08,469.32L890.09,469.1L890.11,467.94L890.89,440.98L891.03,448.08L891.05,450.26L891.24,441.52L891.82,463.44L891.83,461.04L891.85,457.5L892.16,468.78L892.63,443.01L892.64,443.43L892.66,446.68L892.98,442.27L893.21,462.83L893.41,451.85L893.43,446.9L893.56,463.31L893.67,444.13L893.99,446.21L894.01,444.05L894.02,442.15L894.6,466.8L894.64,465.11L894.66,464.97L895.06,443.16L895.28,462.79L895.3,463.85L895.41,443.1L896.07,444.89L896.08,446.4L896.11,442.32L896.69,463.81L896.79,454.47L896.81,455.17L897.04,468.34L897.44,445.05L897.46,444.98L897.5,441.79L898.08,462.8L898.18,444.96L898.2,443.41L898.55,440.79L898.78,462.23L898.82,444.89L898.84,442.95L899.47,468.82L899.65,454.81L899.66,451.97L899.82,465.55L899.88,445.18L899.91,446.96L899.92,443.86L900.17,462.96L900.29,440.08L900.5,461.13L900.52,463.2L900.98,439.78L901.3,445.19L901.32,442.38L901.33,440.46L901.91,467.99L901.94,466.2L901.95,465.55L902.37,443.68L902.58,457.52L902.59,460.39L902.61,462.5L902.72,440.97L903.3,461.82L903.32,455.01L903.42,442.76L904,465.2L904.06,458.46L904.07,459.07L904.19,448.44L904.32,464.06L904.33,467.77L904.35,472.23L904.91,453.6L905.07,467.78L905.09,466.81L905.39,468.31L905.85,446.44L905.99,451.96L906,455.37L906.2,447.17L906.77,471.76L906.78,470.64L906.8,468.91L907.58,442.55L907.71,448.02L907.73,452.22L907.81,463.43L907.93,440.65L908.51,461.42L908.52,455.4L908.62,441.55L909.2,468.91L909.23,467.5L909.25,466.83L909.55,467.78L910.02,440.02L910.16,451.66L910.18,454.95L910.36,441.35L910.94,463.1L910.96,457.33L911.06,443.02L911.64,470.31L911.68,468.06L911.7,467.67L912.11,441.7L912.58,445.88L912.6,449.39L912.69,461.86L912.8,438.12L913.38,460.27L913.4,453.69L913.5,439.24L914.08,466.56L914.12,464.18L914.14,463.51L914.54,439.22L915.02,446.44L915.03,449.73L915.12,461.62L915.24,438.43L915.82,458.52L915.83,454.05L915.93,439.03L916.51,466.26L916.54,464.65L916.56,464.08L917.33,438.47L917.46,445.74L917.47,449.06L917.67,438.52L917.7,525.74L917.92,455.27L917.94,448.09L918.37,440.59L918.6,462.58L918.67,453.88L918.69,455.14L918.78,447.74L918.95,469.91L919.31,458.5L919.33,451.6L919.76,442.96L919.99,463.8L920.08,449.14L920.1,446.95L920.11,445.35L920.7,469.9L920.72,469.43L920.75,470.02L920.85,466.03L920.86,456.39L921.04,470.87L921.21,449.1L921.36,463.18L921.37,466.75L921.39,470.57L921.85,442.94L922.08,461.99L922.1,456.04L922.43,461.37L922.55,440.02L922.85,440.56L922.87,442.56L922.89,438.29L923.47,463.76L923.56,454.25L923.58,454.42L923.65,444.25L923.82,467.88L924.21,448.56L924.23,447.18L924.29,445L924.5,464.61L924.52,465.97L924.64,445L925.29,448.17L925.3,449.38L925.33,445.63L925.56,463.41L925.9,463.23L925.91,466.42L926.09,444.99L926.26,470.35L926.75,449.03L926.77,450.32L927.3,466.66L927.42,446.54L927.52,448.27L927.54,449.94L927.77,443.54L928.35,469.66L928.36,468.55L928.7,470.58L929.16,447.42L929.23,451.18L929.25,451.71L929.51,444.08L929.74,465L929.99,451.85L930,455.45L930.55,443.92L930.78,465.79L930.8,462.65L930.96,444.84L931.13,469.3L931.57,452.51L931.58,451.75L931.7,451.01L931.78,462.13L931.8,463.22L931.83,471.6L932.29,443.81L932.52,463.01L932.54,456.63L932.64,442.62L933.22,465.48L933.29,455.12L933.31,455.91L933.39,444.71L933.57,469.61L933.73,457.09L933.74,449.79L933.92,466.29L934.13,447.4L934.31,448.81L934.32,446.78L934.38,444.99L934.55,459.91L934.57,460.76L934.61,463.9L934.66,450.62L934.67,448.76L934.73,446.54L934.86,452.99L934.87,456.3L935.08,444.35L935.66,465.75L935.67,463L935.69,458.5L936,469.57L936.47,444.88L936.48,445.45L936.5,447.5L936.82,443.69L937.05,463.64L937.25,449.77L937.27,446.51L937.51,443.73L937.75,464.35L937.8,447.54L937.82,447.71L938.27,443.39L938.44,468.48L938.6,455.04L938.62,446.93L938.79,462.51L938.91,441.83L939.35,447.01L939.37,448.03L939.49,464.12L939.6,444.58L940.15,459.27L940.17,461.02L940.3,450.1L940.89,474.28L940.95,469.95L940.96,469.48L941.01,469.91L941.02,469.54L941.04,461.83L941.23,470.56L941.75,454.31L941.79,455.27L941.81,456.56L942.1,454.03L942.27,474.15L942.6,470.33L942.62,472.59L943.14,449.33L943.37,469.83L943.39,468.17L944.13,450.03L944.23,452.28L944.24,453.27L944.36,467.38L944.82,447.89L945.01,460.76L945.03,461.3L945.58,447.5L945.75,472.38L945.82,467.45L945.84,467.35L945.9,467.59L945.91,461.03L946.1,467.52L946.56,447.2L946.66,450.89L946.68,451.81L946.79,466.03L946.91,449.16L947.46,462.83L947.48,464.1L947.61,446.68L948.19,471.5L948.24,467.07L948.26,466.1L948.33,470.31L949,449.16L949.11,453.36L949.13,456.5L949.58,467.5L949.71,450.04L949.9,463.1L949.91,464.52L950.45,449.66L950.62,473.96L950.7,470.98L950.71,470.6L950.74,471.13L950.78,463.84L950.8,455.77L950.97,469.74L951.45,450.52L951.52,454.53L951.54,451.59L952.13,450.03L952.36,467.42L952.38,462.48L952.89,447.51L953.06,472.66L953.1,469.61L953.12,468.89L953.41,469.29L953.87,447.2L953.94,452.92L953.96,454.36L954.1,467.43L954.57,449L954.7,453.98L954.71,457.22L955.32,447.71L955.5,472.95L955.55,470.52L955.57,469.54L955.96,449.98L956.18,463.68L956.19,465.98L956.54,467.13L956.66,449.4L956.99,451.43L957,449.87L957.22,463.18L957.24,465.22L957.76,447.98L957.93,473.05L957.96,471.11L957.98,469.93L958.74,450.64L958.86,452.52L958.87,455.33L958.98,466.74L959.44,449.97L959.67,466.67L959.69,462.11L960.19,448.76L960.37,473.41L960.41,469.59L960.43,468.85L960.83,451.65L961.01,462.39L961.02,463.27L961.06,466.25L961.09,455.43L961.11,452.78L961.41,465.24L961.88,449.56L961.89,449.9L962.46,466.96L962.62,456.92L962.63,448.29L962.81,470.73L963.31,453.93L963.33,451.28L963.62,448.18L963.85,465.4L964.08,451.32L964.1,454.4L964.31,447.8L964.89,467.66L964.91,465.39L965.24,471.98L965.71,445.89L965.72,446.45L966.05,445.22L966.29,463.33L966.47,450.88L966.49,451.57L966.98,464.16L967.1,445.54L967.23,452.15L967.24,455.19L967.5,445.07L967.69,468.43L968.03,464.19L968.04,458.26L968.14,443.22L968.72,465.06L968.79,450.54L968.81,452.26L969.07,463.25L969.19,445.78L969.56,450.07L969.58,452.51L969.94,448.2L970.11,471.25L970.32,455.09L970.33,454.97L970.46,466.22L970.58,449.14L970.9,452.91L970.91,450.6L971.16,465.44L971.27,448.36L971.49,463.56L971.51,464.95L971.97,446.6L972.2,466.73L972.26,456.86L972.28,457.43L972.38,447.22L972.55,471.6L972.94,452.37L972.96,450.59L973.36,448.26L973.59,465.12L973.7,451.73L973.71,449.72L973.94,466.38L974.31,460.47L974.32,454.5L974.81,447.91L974.99,472.03L975,471.08L975.02,469.48L975.45,446.09L975.65,461.68L975.67,463.74L975.8,443.99L976.03,464.45L976.13,446.82L976.15,444.46L976.73,467.37L976.94,453.16L976.96,453.6L977.25,449.02L977.42,472.17L977.76,467.75L977.77,468.46L978.24,445.81L978.57,447.83L978.58,445.51L978.73,455.39L978.74,457.71L978.93,445.78L979.16,463.67L979.32,452.77L979.34,449.41L979.69,446.24L979.86,470.42L980.16,462.36L980.18,462.02L980.21,464.98L980.32,443.28L980.9,463.67L980.92,458.31L981.37,443.82L981.6,463.27L981.67,447.05L981.69,449.04L981.72,444.09L982.3,470.07L982.38,465.11L982.4,464.32L982.64,464.99L983.11,441.22L983.22,446.75L983.24,449.34L983.46,443.92L984.02,463.39L984.04,463.51L984.15,441.85L984.73,468.4L984.78,466.02L984.79,465.72L985.54,441.95L985.66,446.28L985.68,449.84L985.78,463.63L986.24,438.93L986.46,460.48L986.47,460.93L986.59,440.69L987.17,469.47L987.18,468.96L987.21,469.13L987.28,467.32L987.31,467.54L987.33,461.92L987.5,465.92L988,442.25L988.08,444.96L988.1,445.42L988.68,439.6L988.89,462.96L988.91,465.1L989.43,446.04L989.61,466.6L989.66,462.73L989.68,462.23L989.76,456.4L989.78,446.99L989.94,461.71L990.4,439.53L990.42,437.61L990.98,462.04L991.2,447.72L991.21,442.88L991.23,442.61L991.26,448.8L991.27,452.52L991.46,438.49L991.69,462.04L991.85,449.98L991.87,442.12L992.04,464.82L992.74,462.31L992.75,456.13L993.07,461.96L993.55,437.72L993.56,438.96L993.9,436.32L994.13,461.29L994.33,445.57L994.35,445.43L994.48,465.11L994.87,442.85L994.88,440.53L994.94,437.32L995.09,448.08L995.1,450.7L995.29,439.06L995.51,462.47L995.73,448.4L995.74,444.04L995.86,462.21L995.99,439.27L996.19,457.46L996.2,464.26L996.22,465.83L996.44,447.78L996.73,454.01L996.74,445.05L996.93,467.47L997.39,437.71L997.48,448.61L997.49,444.34L997.6,456.12L997.61,461.3L997.96,462.86L998.09,439.31L998.23,451.63L998.25,454.52L998.79,439.47L999.02,462.88L999.03,459.82L999.05,455.94L999.37,467.17L999.83,439.07L999.86,443.6L999.87,448.26L1000.05,462L1000.53,436.96L1000.64,442.69L1000.66,445.1L1000.76,463.9L1001.22,441.37L1001.45,463.22L1001.47,460.13L1001.8,467.09L1002.27,438.17L1002.28,438.76L1002.48,460.27L1002.61,435.75L1003.05,447.09L1003.06,442.08L1003.08,441.89L1003.11,448.06L1003.12,450.4L1003.18,459.14L1003.31,436.18L1003.74,447.5L1003.76,442.59L1003.77,442.12L1003.89,459.01L1004.19,455.64L1004.21,456.79L1004.57,465.82L1004.7,442.94L1004.95,457.29L1004.96,451.04L1005.27,464.15L1005.4,443.49L1005.6,458.88L1005.62,464.27L1006.09,440.29L1006.3,454.75L1006.31,461.59L1006.33,462.06L1006.38,450.26L1006.49,452.79L1006.5,442.65L1006.69,464.45L1007.04,455.22L1007.05,447.2L1007.14,440.53L1007.36,461.29L1007.83,440.84L1007.85,442.09L1008.18,439.65L1008.4,459.9L1008.62,449.45L1008.63,445.53L1008.94,445.14L1009.11,466.57L1009.31,451.87L1009.33,452.08L1009.79,467.15L1009.92,446.68L1009.94,447.28L1010.14,465.76L1010.62,444.8L1010.69,450.78L1010.71,451.49L1010.97,443.98L1011.2,462.58L1011.45,451.55L1011.46,453.74L1011.55,466.08L1012.01,446.45L1012.24,463.7L1012.26,457.25L1012.71,444.15L1012.94,465.14L1013.01,446.4L1013.03,447.46L1013.4,442.85L1013.64,463.93L1013.75,453.92L1013.77,454.61L1013.82,446.4L1013.98,467.18L1014.51,455.33L1014.52,454L1014.68,471.7L1015.14,445.26L1015.23,451.07L1015.25,446.67L1015.38,464.16L1015.61,444.15L1015.69,456.2L1015.71,462.17L1015.84,444.01L1016.07,463.83L1016.23,456.39L1016.25,445.32L1016.26,444.26L1016.77,466.41L1016.88,455.86L1016.9,456.42L1016.93,460.81L1016.96,451.38L1017,455.2" style="vector-effect: non-scaling-stroke; fill: none; stroke: rgb(99, 110, 250); stroke-opacity: 1; stroke-width: 2px; opacity: 1;"/></g><g class="points"/><g class="text"/></g><g class="trace scatter trace8f738f" style="stroke-miterlimit: 2; opacity: 1;"><g class="fills"/><g class="errorbars"/><g class="lines"/><g class="points"><path class="point" transform="translate(11.83,500.09)" d="M5,0A5,5 0 1,1 0,-5A5,5 0 0,1 5,0Z" style="opacity: 1; stroke-width: 0px; fill: rgb(239, 85, 59); fill-opacity: 1;"/><path class="point" transform="translate(11.85,521.4)" d="M5,0A5,5 0 1,1 0,-5A5,5 0 0,1 5,0Z" style="opacity: 1; stroke-width: 0px; fill: rgb(239, 85, 59); fill-opacity: 1;"/><path class="point" transform="translate(11.86,511.14)" d="M5,0A5,5 0 1,1 0,-5A5,5 0 0,1 5,0Z" style="opacity: 1; stroke-width: 0px; fill: rgb(239, 85, 59); fill-opacity: 1;"/><path class="point" transform="translate(11.88,502.21)" d="M5,0A5,5 0 1,1 0,-5A5,5 0 0,1 5,0Z" style="opacity: 1; stroke-width: 0px; fill: rgb(239, 85, 59); fill-opacity: 1;"/><path class="point" transform="translate(11.89,490.45)" d="M5,0A5,5 0 1,1 0,-5A5,5 0 0,1 5,0Z" style="opacity: 1; stroke-width: 0px; fill: rgb(239, 85, 59); fill-opacity: 1;"/><path class="point" transform="translate(231.11,511.54)" d="M5,0A5,5 0 1,1 0,-5A5,5 0 0,1 5,0Z" style="opacity: 1; stroke-width: 0px; fill: rgb(239, 85, 59); fill-opacity: 1;"/><path class="point" transform="translate(231.12,529.55)" d="M5,0A5,5 0 1,1 0,-5A5,5 0 0,1 5,0Z" style="opacity: 1; stroke-width: 0px; fill: rgb(239, 85, 59); fill-opacity: 1;"/><path class="point" transform="translate(231.14,527.81)" d="M5,0A5,5 0 1,1 0,-5A5,5 0 0,1 5,0Z" style="opacity: 1; stroke-width: 0px; fill: rgb(239, 85, 59); fill-opacity: 1;"/><path class="point" transform="translate(231.15,516.15)" d="M5,0A5,5 0 1,1 0,-5A5,5 0 0,1 5,0Z" style="opacity: 1; stroke-width: 0px; fill: rgb(239, 85, 59); fill-opacity: 1;"/><path class="point" transform="translate(231.17,496.7)" d="M5,0A5,5 0 1,1 0,-5A5,5 0 0,1 5,0Z" style="opacity: 1; stroke-width: 0px; fill: rgb(239, 85, 59); fill-opacity: 1;"/><path class="point" transform="translate(337.83,517.11)" d="M5,0A5,5 0 1,1 0,-5A5,5 0 0,1 5,0Z" style="opacity: 1; stroke-width: 0px; fill: rgb(239, 85, 59); fill-opacity: 1;"/><path class="point" transform="translate(337.84,518.72)" d="M5,0A5,5 0 1,1 0,-5A5,5 0 0,1 5,0Z" style="opacity: 1; stroke-width: 0px; fill: rgb(239, 85, 59); fill-opacity: 1;"/><path class="point" transform="translate(337.86,502.38)" d="M5,0A5,5 0 1,1 0,-5A5,5 0 0,1 5,0Z" style="opacity: 1; stroke-width: 0px; fill: rgb(239, 85, 59); fill-opacity: 1;"/><path class="point" transform="translate(442.87,34.45)" d="M5,0A5,5 0 1,1 0,-5A5,5 0 0,1 5,0Z" style="opacity: 1; stroke-width: 0px; fill: rgb(239, 85, 59); fill-opacity: 1;"/><path class="point" transform="translate(442.88,148.01)" d="M5,0A5,5 0 1,1 0,-5A5,5 0 0,1 5,0Z" style="opacity: 1; stroke-width: 0px; fill: rgb(239, 85, 59); fill-opacity: 1;"/><path class="point" transform="translate(917.7,525.74)" d="M5,0A5,5 0 1,1 0,-5A5,5 0 0,1 5,0Z" style="opacity: 1; stroke-width: 0px; fill: rgb(239, 85, 59); fill-opacity: 1;"/><path class="point" transform="translate(917.72,521.45)" d="M5,0A5,5 0 1,1 0,-5A5,5 0 0,1 5,0Z" style="opacity: 1; stroke-width: 0px; fill: rgb(239, 85, 59); fill-opacity: 1;"/><path class="point" transform="translate(917.73,507.03)" d="M5,0A5,5 0 1,1 0,-5A5,5 0 0,1 5,0Z" style="opacity: 1; stroke-width: 0px; fill: rgb(239, 85, 59); fill-opacity: 1;"/><path class="point" transform="translate(917.75,493.44)" d="M5,0A5,5 0 1,1 0,-5A5,5 0 0,1 5,0Z" style="opacity: 1; stroke-width: 0px; fill: rgb(239, 85, 59); fill-opacity: 1;"/></g><g class="text"/></g></g></g><g class="overplot"/><path class="xlines-above crisp" d="M102,664.5H1120" style="fill: none; stroke-width: 1px; stroke: rgb(255, 255, 255); stroke-opacity: 1;"/><path class="ylines-above crisp" d="M102.5,100V664" style="fill: none; stroke-width: 1px; stroke: rgb(255, 255, 255); stroke-opacity: 1;"/><g class="overlines-above"/><g class="xaxislayer-above"><g class="xtick"><text text-anchor="middle" x="0" y="696.2" transform="translate(103,0)" style="font-family: 'Open Sans', verdana, arial, sans-serif; font-size: 26px; fill: rgb(42, 63, 95); fill-opacity: 1; white-space: pre;">2011</text></g><g class="xtick"><text text-anchor="middle" x="0" y="696.2" transform="translate(230.04000000000002,0)" style="font-family: 'Open Sans', verdana, arial, sans-serif; font-size: 26px; fill: rgb(42, 63, 95); fill-opacity: 1; white-space: pre;">2012</text></g><g class="xtick"><text text-anchor="middle" x="0" y="696.2" transform="translate(357.43,0)" style="font-family: 'Open Sans', verdana, arial, sans-serif; font-size: 26px; fill: rgb(42, 63, 95); fill-opacity: 1; white-space: pre;">2013</text></g><g class="xtick"><text text-anchor="middle" x="0" y="696.2" transform="translate(484.47,0)" style="font-family: 'Open Sans', verdana, arial, sans-serif; font-size: 26px; fill: rgb(42, 63, 95); fill-opacity: 1; white-space: pre;">2014</text></g><g class="xtick"><text text-anchor="middle" x="0" y="696.2" transform="translate(611.51,0)" style="font-family: 'Open Sans', verdana, arial, sans-serif; font-size: 26px; fill: rgb(42, 63, 95); fill-opacity: 1; white-space: pre;">2015</text></g><g class="xtick"><text text-anchor="middle" x="0" y="696.2" transform="translate(738.55,0)" style="font-family: 'Open Sans', verdana, arial, sans-serif; font-size: 26px; fill: rgb(42, 63, 95); fill-opacity: 1; white-space: pre;">2016</text></g><g class="xtick"><text text-anchor="middle" x="0" y="696.2" transform="translate(865.93,0)" style="font-family: 'Open Sans', verdana, arial, sans-serif; font-size: 26px; fill: rgb(42, 63, 95); fill-opacity: 1; white-space: pre;">2017</text></g><g class="xtick"><text text-anchor="middle" x="0" y="696.2" transform="translate(992.97,0)" style="font-family: 'Open Sans', verdana, arial, sans-serif; font-size: 26px; fill: rgb(42, 63, 95); fill-opacity: 1; white-space: pre;">2018</text></g><g class="xtick"><text text-anchor="middle" x="0" y="696.2" transform="translate(1120.01,0)" style="font-family: 'Open Sans', verdana, arial, sans-serif; font-size: 26px; fill: rgb(42, 63, 95); fill-opacity: 1; white-space: pre;">2019</text></g></g><g class="yaxislayer-above"><g class="ytick"><text text-anchor="end" x="96.8" y="9.1" transform="translate(0,630.66)" style="font-family: 'Open Sans', verdana, arial, sans-serif; font-size: 26px; fill: rgb(42, 63, 95); fill-opacity: 1; white-space: pre;">0</text></g><g class="ytick"><text text-anchor="end" x="96.8" y="9.1" transform="translate(0,556.8)" style="font-family: 'Open Sans', verdana, arial, sans-serif; font-size: 26px; fill: rgb(42, 63, 95); fill-opacity: 1; white-space: pre;">10k</text></g><g class="ytick"><text text-anchor="end" x="96.8" y="9.1" transform="translate(0,482.94)" style="font-family: 'Open Sans', verdana, arial, sans-serif; font-size: 26px; fill: rgb(42, 63, 95); fill-opacity: 1; white-space: pre;">20k</text></g><g class="ytick"><text text-anchor="end" x="96.8" y="9.1" transform="translate(0,409.08)" style="font-family: 'Open Sans', verdana, arial, sans-serif; font-size: 26px; fill: rgb(42, 63, 95); fill-opacity: 1; white-space: pre;">30k</text></g><g class="ytick"><text text-anchor="end" x="96.8" y="9.1" transform="translate(0,335.22)" style="font-family: 'Open Sans', verdana, arial, sans-serif; font-size: 26px; fill: rgb(42, 63, 95); fill-opacity: 1; white-space: pre;">40k</text></g><g class="ytick"><text text-anchor="end" x="96.8" y="9.1" transform="translate(0,261.36)" style="font-family: 'Open Sans', verdana, arial, sans-serif; font-size: 26px; fill: rgb(42, 63, 95); fill-opacity: 1; white-space: pre;">50k</text></g><g class="ytick"><text text-anchor="end" x="96.8" y="9.1" transform="translate(0,187.5)" style="font-family: 'Open Sans', verdana, arial, sans-serif; font-size: 26px; fill: rgb(42, 63, 95); fill-opacity: 1; white-space: pre;">60k</text></g><g class="ytick"><text text-anchor="end" x="96.8" y="9.1" transform="translate(0,113.64)" style="font-family: 'Open Sans', verdana, arial, sans-serif; font-size: 26px; fill: rgb(42, 63, 95); fill-opacity: 1; white-space: pre;">70k</text></g></g><g class="overaxes-above"/></g></g><g class="polarlayer"/><g class="ternarylayer"/><g class="geolayer"/><g class="funnelarealayer"/><g class="pielayer"/><g class="treemaplayer"/><g class="sunburstlayer"/><g class="glimages"/><defs id="topdefs-131c98"><g class="clips"/><clipPath id="legend131c98"><rect width="147" height="47" x="0" y="0"/></clipPath></defs><g class="layer-above"><g class="imagelayer"/><g class="shapelayer"/></g><g class="infolayer"><g class="legend" pointer-events="all" transform="translate(113.17, 105.64)"><rect class="bg" shape-rendering="crispEdges" width="147" height="47" x="0" y="0" style="stroke: rgb(68, 68, 68); stroke-opacity: 1; fill: rgb(255, 255, 255); fill-opacity: 1; stroke-width: 0px;"/><g class="scrollbox" transform="translate(0, 0)" clip-path="url('#legend131c98')"><g class="groups"><g class="traces" transform="translate(0, 23.400000000000002)" style="opacity: 1;"><text class="legendtext user-select-none" text-anchor="start" x="40" y="10.14" style="font-family: 'Open Sans', verdana, arial, sans-serif; font-size: 26px; fill: rgb(42, 63, 95); fill-opacity: 1; white-space: pre;">Outliers</text><g class="layers" style="opacity: 1;"><g class="legendfill"/><g class="legendlines"/><g class="legendsymbols"><g class="legendpoints"><path class="scatterpts" transform="translate(20,0)" d="M5,0A5,5 0 1,1 0,-5A5,5 0 0,1 5,0Z" style="opacity: 1; stroke-width: 0px; fill: rgb(239, 85, 59); fill-opacity: 1;"/></g></g></g><rect class="legendtoggle" pointer-events="all" x="0" y="-18.400000000000002" width="141.5625" height="36.800000000000004" style="cursor: pointer; fill: rgb(0, 0, 0); fill-opacity: 0;"/></g></g></g><rect class="scrollbar" rx="20" ry="3" width="0" height="0" x="0" y="0" style="fill: rgb(128, 139, 164); fill-opacity: 1;"/></g><g class="g-xtitle"><text class="xtitle" x="611.5" y="737.903125" text-anchor="middle" style="font-family: 'Open Sans', verdana, arial, sans-serif; font-size: 31px; fill: rgb(42, 63, 95); opacity: 1; font-weight: normal; white-space: pre;">Date</text></g><g class="g-ytitle" transform="translate(19.3564453125,0)"><text class="ytitle" transform="rotate(-90,11.643749999999997,382)" x="11.643749999999997" y="382" text-anchor="middle" style="font-family: 'Open Sans', verdana, arial, sans-serif; font-size: 31px; fill: rgb(42, 63, 95); opacity: 1; font-weight: normal; white-space: pre;">Demand</text></g></g></svg>