<svg class="main-svg" xmlns="http://www.w3.org/2000/svg" xmlns:xlink="http://www.w3.org/1999/xlink" width="1200" height="750" style="" viewBox="0 0 1200 750"><rect x="0" y="0" width="1200" height="750" style="fill: rgb(255, 255, 255); fill-opacity: 1;"/><defs id="defs-f98638"><g class="clips"><clipPath id="clipf98638xyplot" class="plotclip"><rect width="999" height="564"/></clipPath><clipPath class="axesclip" id="clipf98638x"><rect x="121" y="0" width="999" height="750"/></clipPath><clipPath class="axesclip" id="clipf98638y"><rect x="0" y="100" width="1200" height="564"/></clipPath><clipPath class="axesclip" id="clipf98638xy"><rect x="121" y="100" width="999" height="564"/></clipPath></g><g class="gradients"/></defs><g class="bglayer"><rect class="bg" x="121" y="100" width="999" height="564" style="fill: rgb(229, 236, 246); fill-opacity: 1; stroke-width: 0;"/></g><g class="layer-below"><g class="imagelayer"/><g class="shapelayer"/></g><g class="cartesianlayer"><g class="subplot xy"><g class="layer-subplot"><g class="shapelayer"/><g class="imagelayer"/></g><g class="gridlayer"><g class="x"><path class="xgrid crisp" transform="translate(245.79000000000002,0)" d="M0,100v564" style="stroke: rgb(255, 255, 255); stroke-opacity: 1; stroke-width: 1px;"/><path class="xgrid crisp" transform="translate(370.91999999999996,0)" d="M0,100v564" style="stroke: rgb(255, 255, 255); stroke-opacity: 1; stroke-width: 1px;"/><path class="xgrid crisp" transform="translate(495.72,0)" d="M0,100v564" style="stroke: rgb(255, 255, 255); stroke-opacity: 1; stroke-width: 1px;"/><path class="xgrid crisp" transform="translate(620.51,0)" d="M0,100v564" style="stroke: rgb(255, 255, 255); stroke-opacity: 1; stroke-width: 1px;"/><path class="xgrid crisp" transform="translate(745.3,0)" d="M0,100v564" style="stroke: rgb(255, 255, 255); stroke-opacity: 1; stroke-width: 1px;"/><path class="xgrid crisp" transform="translate(870.43,0)" d="M0,100v564" style="stroke: rgb(255, 255, 255); stroke-opacity: 1; stroke-width: 1px;"/><path class="xgrid crisp" transform="translate(995.22,0)" d="M0,100v564" style="stroke: rgb(255, 255, 255); stroke-opacity: 1; stroke-width: 1px;"/></g><g class="y"><path class="ygrid crisp" transform="translate(0,616.04)" d="M121,0h999" style="stroke: rgb(255, 255, 255); stroke-opacity: 1; stroke-width: 1px;"/><path class="ygrid crisp" transform="translate(0,530.55)" d="M121,0h999" style="stroke: rgb(255, 255, 255); stroke-opacity: 1; stroke-width: 1px;"/><path class="ygrid crisp" transform="translate(0,445.05)" d="M121,0h999" style="stroke: rgb(255, 255, 255); stroke-opacity: 1; stroke-width: 1px;"/><path class="ygrid crisp" transform="translate(0,359.56)" d="M121,0h999" style="stroke: rgb(255, 255, 255); stroke-opacity: 1; stroke-width: 1px;"/><path class="ygrid crisp" transform="translate(0,274.06)" d="M121,0h999" style="stroke: rgb(255, 255, 255); stroke-opacity: 1; stroke-width: 1px;"/><path class="ygrid crisp" transform="translate(0,188.57)" d="M121,0h999" style="stroke: rgb(255, 255, 255); stroke-opacity: 1; stroke-width: 1px;"/><path class="ygrid crisp" transform="translate(0,103.08)" d="M121,0h999" style="stroke: rgb(255, 255, 255); stroke-opacity: 1; stroke-width: 1px;"/></g></g><g class="zerolinelayer"/><path class="xlines-below"/><path class="ylines-below"/><g class="overlines-below"/><g class="xaxislayer-below"/><g class="yaxislayer-below"/><g class="overaxes-below"/><g class="plot" transform="translate(121, 100)" clip-path="url('#clipf98638xyplot')"><g class="scatterlayer mlayer"><g class="trace scatter trace1f6a21" style="stroke-miterlimit: 2; opacity: 1;"><g class="fills"/><g class="errorbars"/><g class="lines"><path class="js-line" d="M0,270.12L0.21,318.1L0.63,251.82L0.78,310.68L0.8,300.45L0.97,252.33L1.47,311.85L1.55,272.86L1.57,259.98L1.65,248.11L2.15,306.67L2.31,266.69L2.32,260.57L2.68,248.86L2.85,316.48L2.95,301.94L2.96,313.18L3.7,244.82L3.76,258.83L3.78,269.47L4.2,298.19L4.39,245.44L4.54,294.13L4.56,286.6L4.73,243.56L5.26,311.1L5.29,307.92L5.3,307.51L5.38,308.11L6.03,249.81L6.14,254.2L6.15,264.1L6.44,248.86L6.94,295.4L6.95,290.57L6.97,276.65L7.46,249.87L7.64,319.77L7.66,313.24L7.68,310.6L7.81,250.01L8.5,266.81L8.52,268.38L8.65,311.12L9.1,252.06L9.3,291.65L9.32,291.56L9.87,251.61L10.03,312.23L10.07,304.19L10.09,302.08L10.17,319.62L10.47,252.15L10.66,286.12L10.67,289.13L10.7,296.21L10.88,251L11.31,284.74L11.33,286.4L11.38,297.1L11.5,251.35L11.55,265.57L11.57,246.67L12.25,242.37L12.42,316.72L12.45,310.91L12.46,304.04L13.21,238.63L13.33,253.47L13.35,265.98L13.62,240.2L14.12,290.51L14.13,282.95L14.64,236.74L14.84,312.57L14.86,304.81L14.99,236.86L15.4,275.29L15.41,280.95L16.03,250.97L16.17,298.84L16.18,289.72L16.2,270.54L16.35,250.67L16.87,300.74L16.91,283.91L16.92,287.22L17.04,247.98L17.19,317.54L17.55,272.22L17.56,267.61L17.84,293.61L18.32,236.86L18.35,245.84L18.36,254.49L18.43,234.69L18.52,284.68L18.83,275.54L18.85,280.58L19.07,239.6L19.62,310.32L19.67,306.33L19.69,305.67L19.7,306.46L19.76,259.81L19.94,277.02L19.96,265.87L20.26,302.05L20.73,246.17L20.74,251.22L21.05,244.06L21.28,302.39L21.47,244.62L21.48,246.78L21.82,239.66L21.98,311.14L22.14,273.68L22.15,250.71L22.66,315.49L22.81,305.94L22.82,281.36L22.99,313.02L23.45,241.76L23.58,267.91L23.59,284.8L23.68,318.66L24.2,236.64L24.33,287.17L24.35,290.54L24.37,313.25L24.89,232.28L25.07,255.01L25.09,247.15L25.16,235.53L25.37,300.73L25.39,308.02L25.91,232.57L26.17,241.49L26.18,234.73L26.25,224.58L26.41,299.72L26.58,240.92L26.6,223.66L26.77,311.24L27.41,271.46L27.42,270.23L27.55,228.84L28.12,289L28.14,287.43L28.15,258.24L28.46,281.85L28.65,226.77L28.89,264.67L28.9,265.82L28.99,228.33L29.16,307.78L29.43,275.16L29.45,278.78L29.49,285.01L29.67,226.34L29.99,246.03L30,234.61L30.47,285.94L30.63,224.29L30.74,232.46L30.76,242.74L31.4,213.89L31.54,300.45L31.55,304.93L32.08,226.41L32.45,228.65L32.47,241.97L32.91,286.39L33.02,221.26L33.23,278.2L33.25,281.97L33.65,330.82L33.78,223.83L33.98,300.98L33.99,299.09L34.46,222.69L34.84,235.82L34.86,244.97L34.96,279.73L35.14,219.83L35.63,275.7L35.64,273.26L35.83,227.24L35.98,291.26L36.28,276.52L36.3,280.92L36.44,311.53L36.51,229.64L36.82,244.67L36.84,231.01L37.01,291.28L37.25,224.59L37.49,243.75L37.51,251.64L37.54,232.56L38.05,306.12L38.26,248.22L38.28,256.62L38.73,309.35L38.9,229.73L39.03,276.67L39.05,276.62L39.06,284.04L39.25,222.68L39.76,266.4L39.77,249.14L40.22,226.38L40.43,276.92L40.56,233.26L40.57,238.52L40.97,220.05L41.13,296.3L41.28,239.27L41.3,231.54L41.68,223.96L41.8,281.78L41.95,236.91L41.97,222.25L41.98,220.27L42.14,277.24L42.47,269.53L42.48,273.42L43.01,223.39L43.16,278.21L43.22,269.98L43.24,270.38L43.35,221.39L43.52,299.86L43.86,272.47L43.88,252.53L44.05,221.5L44.19,278.88L44.63,244.23L44.65,234.53L44.72,229.58L44.87,279.31L45.2,275.56L45.22,281.3L45.74,216.14L45.91,286.7L45.94,281.63L45.96,280.43L46.47,221.39L46.8,232L46.81,236.37L46.92,280.95L47.11,226.72L47.61,274L47.62,267.98L48.14,223.9L48.32,305.28L48.34,304.07L48.65,352.28L49.16,220.99L49.2,227.92L49.22,237.07L49.43,219.16L50,278.17L50.02,272.01L50.53,221.04L50.7,304.07L50.76,290.62L50.77,290.16L51.48,218.97L51.6,223.97L51.61,235.78L52.24,219.33L52.4,272.91L52.41,268.05L52.58,216.41L53.09,300.99L53.14,291.71L53.15,291.75L53.53,219.38L53.76,296.17L53.96,242.19L53.98,242.57L54.1,295.9L54.29,216.89L54.69,254.03L54.7,263.82L54.92,220.23L55.13,292.73L55.3,230.43L55.32,215.16L55.49,301.35L56.13,280.93L56.14,281.37L56.16,290.64L56.68,216.94L56.85,279.32L56.87,258.34L57.05,222.9L57.18,285.79L57.61,264.66L57.62,265.42L57.64,265.97L57.68,264.16L57.69,228.19L57.71,216.59L57.92,294.92L58.42,230.94L58.44,231.41L58.68,224.37L59.23,298.23L59.25,305.56L59.76,234.78L60.05,273.09L60.06,279.84L60.1,225.22L60.27,304.79L60.81,236.51L60.83,238.68L61.06,236.4L61.58,289.21L61.61,286.27L61.63,296.56L62.14,243.31L62.38,274.95L62.4,280.1L62.5,233.45L62.67,308.59L62.97,285.29L62.98,286.39L63.12,237.88L63.68,301.08L63.71,270.12L63.72,258.24L64.02,297.84L64.13,231.55L64.48,238.96L64.49,255.02L64.55,237.94L65.06,308.94L65.17,296.73L65.19,297.86L65.57,239.43L65.96,243.91L65.97,253.53L66.07,295.22L66.54,236.51L66.75,288.29L66.77,282.86L67.28,234.51L67.45,306.25L67.51,291.34L67.52,291.56L67.54,292.53L67.6,283.13L67.61,255.02L68.12,294.42L68.25,235.51L68.36,250.25L68.38,259.44L68.58,239.04L69.15,294.01L69.16,288.32L69.18,263.11L69.68,230.15L69.83,311.59L69.85,307.64L70.7,234.12L70.74,237.99L70.76,246.03L70.97,234.89L71.54,291.54L71.56,288.35L72.07,217.51L72.24,298.69L72.31,280.31L72.32,286.44L72.37,290.07L73.02,228.37L73.12,234.99L73.14,236.88L73.38,219.42L73.59,289.94L73.91,260.64L73.92,264.02L74.46,218.9L74.65,299.56L74.69,288.16L74.7,281.82L74.73,294.6L75.09,219.71L75.34,244.97L75.36,240.63L75.39,244.28L75.4,231.08L75.42,218.67L75.43,217.54L75.63,276.57L75.64,286.6L75.99,290.27L76.1,225.84L76.3,279.53L76.31,283.15L76.44,227.84L77.04,315.94L77.08,295.52L77.1,295.17L77.35,298.21L77.88,227.17L77.94,246.09L77.95,255.26L78.17,217.8L78.72,290.72L78.74,280.94L78.75,251.04L78.85,217.99L79.43,303.78L79.45,301.51L79.46,301.98L79.86,213.4L80.07,271.91L80.09,280.74L80.56,212.54L80.77,284.69L80.9,221.57L80.91,232.88L81.24,218.87L81.46,288.6L81.64,224.54L81.66,226.94L81.81,294.13L82.27,207.4L82.5,275.85L82.51,252.3L82.6,207.22L82.82,285.54L83.28,226.76L83.29,228.75L83.51,288.87L83.69,224.23L84.01,268.94L84.02,238.93L84.23,306.94L84.72,219.18L84.76,226.68L84.78,233.37L85,216.98L85.23,286.84L85.56,285.7L85.57,280.19L85.74,219.34L86.24,284.1L86.34,254.56L86.36,252.04L86.43,206.91L86.61,291.62L87.01,235.97L87.03,235.67L87.05,208.14L87.61,286.98L87.78,222.56L87.8,215.87L87.95,285.15L88.07,213.44L88.65,277.29L88.66,263.92L88.82,216.25L88.99,300.61L89.45,230.82L89.46,249.01L89.66,286.64L90.12,210.31L90.22,223.93L90.23,226.28L90.46,200.8L91.03,287.51L91.04,283.74L91.06,272.08L91.21,218.87L91.4,298.2L91.86,229.4L91.87,242.69L92.4,283.6L92.53,207.71L92.62,215.71L92.64,227.21L92.74,286.37L92.85,206.35L93.41,272.75L93.42,288.18L93.61,216.38L93.78,302.02L94.08,274.29L94.09,277.96L94.23,220.89L94.79,290.74L94.8,279.48L94.82,259.5L95.13,291.42L95.6,210.76L95.62,231.08L96,219.67L96.17,291.62L96.36,227.8L96.37,227.8L96.5,286.72L96.68,223.41L96.88,236.44L96.9,232.47L96.96,217.06L97.18,282.29L97.62,227.63L97.64,218.76L97.65,214.95L98.21,282.47L98.27,254.8L98.28,262.48L98.39,217.4L98.55,271.11L98.57,285.78L98.61,292.89L98.78,224.59L99.26,270.24L99.28,248.95L99.36,219.38L99.59,286.64L100,256.23L100.02,263.09L100.27,302L100.46,240.57L100.6,283.12L100.62,296.69L100.96,301.19L101.49,224.73L101.54,233.35L101.56,245.57L101.76,216.28L101.98,292.93L102.34,269.93L102.35,246.73L102.44,211.47L102.67,289.21L103.08,258.35L103.1,260.09L103.2,227.37L103.35,301.13L103.78,249.8L103.79,237.37L104.15,219.94L104.39,292.13L104.41,289.08L104.42,291.08L104.68,300.12L104.85,224.8L105.08,277.49L105.09,254.21L105.59,220.24L105.77,299.76L105.8,296.64L105.82,292.63L106.27,224.66L106.4,274.1L106.41,281.77L106.77,293.71L106.96,228.52L107.13,281.2L107.14,261.23L107.28,215.81L107.45,295.1L107.78,271.19L107.8,284.11L107.98,230.32L108.17,304.69L108.55,257.73L108.57,278.03L108.82,299.75L109.28,222.69L109.33,231.21L109.35,227.97L109.38,219.66L109.85,291.91L110.06,235.97L110.08,240.55L110.37,227.38L110.55,301.14L110.87,293.35L110.89,280.95L111.33,221.2L111.56,291.67L111.64,250.16L111.66,233.48L112.04,213.72L112.24,292.28L112.38,249.77L112.4,255.95L112.43,234.39L112.97,308.67L113.15,248.41L113.17,257.46L113.27,294.87L113.72,213.46L113.92,265.81L113.94,269.77L114.06,216.22L114.63,289.74L114.66,249.37L114.68,239.32L114.82,220.94L114.98,291.83L115.3,286.79L115.32,306.65L115.85,223.49L115.97,271.31L115.99,278.48L116.46,212.46L116.69,293.6L116.71,267.72L116.73,259.47L116.8,246.94L116.84,265.84L116.86,247.37L116.87,231.21L116.9,230.59L116.91,236.11L116.93,250.11L117.55,217.74L117.71,291.71L117.73,293.39L117.91,230.26L118.02,272.44L118.04,275.73L118.05,287.61L118.17,216.06L118.75,261.38L118.77,240.8L118.92,210.32L119.42,289.96L119.53,222.1L119.55,223.18L119.95,217.68L120.12,300.14L120.3,236.14L120.32,238.99L120.45,295.13L120.9,219.73L121.1,267.52L121.12,270.68L121.24,221.1L121.47,289.92L121.84,250.88L121.86,255.13L122.01,227.35L122.53,301.02L122.55,300.28L122.57,301.54L122.58,303.42L122.95,235.42L123.01,245.15L123.02,229.41L123.37,228.34L123.52,302.05L123.62,241.28L123.64,232.34L123.87,285.38L124.05,221.51L124.38,246.91L124.39,226.8L124.53,272.78L124.55,288.4L124.75,239.11L124.96,312.3L125.08,243.89L125.09,245.14L125.23,291.7L125.76,225.57L125.87,266.27L125.89,268.72L125.92,297.59L126.13,229.98L126.43,251.33L126.44,235.87L126.71,231.96L126.94,291.9L127.1,273.61L127.11,232.84L127.13,226.53L127.3,302.19L127.78,257.47L127.8,256.12L128.15,228.74L128.31,287.56L128.55,251.39L128.57,265.66L129.11,225.26L129.34,293.63L129.35,292.51L129.52,222.02L129.69,299.58L130.1,269.96L130.12,264.9L130.32,295.3L130.49,226.52L130.9,232.79L130.92,233.64L131.57,231.17L131.73,288.57L131.74,284.08L131.76,273.76L131.91,232.62L132.18,316L132.54,243.15L132.56,250.36L133.1,281.57L133.21,224.21L133.27,243.6L133.28,226.31L133.55,224.33L133.78,276.19L133.95,243.27L133.97,222.31L134.31,219.95L134.48,310.88L134.81,290.28L134.82,276.52L135.15,277.79L135.26,220.76L135.58,247.21L135.59,236.67L135.83,283.43L136.29,212.69L136.33,242.55L136.34,245.44L136.36,220.31L136.87,294.9L137.09,233.53L137.1,239.21L137.31,216.1L137.88,276.38L137.9,271.45L137.91,248.06L138.57,273.99L138.69,218.91L138.71,227.69L138.75,219.19L139.26,291L139.46,235.32L139.48,240.1L139.78,228.98L139.93,278.59L140.25,274.97L140.26,272.27L140.62,288.93L140.8,232.42L140.97,279.84L140.99,263.59L141.15,235.44L141.66,294.65L141.7,292.2L141.72,291.39L141.83,235.57L142.27,278.84L142.28,280.91L142.34,301.57L142.53,244.27L142.75,247.33L142.77,237.27L143.01,274.95L143.2,224.32L143.51,244.58L143.52,237.86L143.54,220.76L144.04,290.07L144.25,232.19L144.27,242.09L144.89,209.53L145.03,273.34L145.05,269.32L145.06,257.71L145.16,205.85L145.39,274.4L145.83,226.69L145.85,218.95L146.27,218.77L146.43,299.21L146.59,246.83L146.6,225.24L146.63,224.59L146.66,232.64L146.67,242.57L146.76,284.45L146.94,217.1L147.19,239.2L147.2,229.74L147.23,220.25L147.78,271.66L147.93,231.08L147.94,240.44L148.13,278.04L148.33,221.28L148.64,230.11L148.65,211.09L148.75,261.26L148.77,264.79L148.82,300.2L148.98,245.47L148.99,224.26L149.09,276.3L149.19,237.31L149.21,230.27L149.28,215.38L149.44,259.62L149.45,262.34L149.49,270.69L149.54,230.61L149.55,227.03L149.62,221.74L150.18,284.79L150.28,228.79L150.29,220.69L150.86,284.91L151.03,240.28L151.05,221.69L151.23,292.95L151.66,228.24L151.67,228.14L151.73,221.78L152.23,275.19L152.4,238.02L152.41,228.6L152.43,227.5L152.53,259.27L152.54,262.73L152.7,218.08L152.91,283.73L152.95,241.61L152.97,234.07L153.44,224.29L153.61,291.77L153.75,264.63L153.77,239.11L153.94,274.25L154.49,214.86L154.52,226.05L154.54,239.17L154.96,272.73L155.09,221.03L155.32,262.7L155.33,242.39L155.83,213.68L155.99,276.65L156,283.2L156.17,215.31L156.59,243.66L156.6,251.22L156.79,213.7L157.01,275.06L157.11,225.32L157.13,216.08L157.71,283.78L157.88,228.48L157.9,227.66L158.23,217.91L158.43,286.15L158.54,267.16L158.55,239.53L158.72,281.29L159.25,218.96L159.29,224.42L159.31,236.93L159.75,268.97L159.86,212.17L160.08,257.61L160.09,266.1L160.43,268.67L160.62,209.46L160.76,260.61L160.78,273.51L160.8,280.64L161.17,221.13L161.47,258.64L161.49,238.81L161.93,204.92L162.14,267.37L162.26,210.05L162.27,222.64L162.6,206.79L162.97,272.41L162.98,261.1L163,231.03L163.21,303.62L163.62,217.93L163.74,227.91L163.75,236.34L163.97,207.34L164.54,273.16L164.55,266.57L164.56,243.17L164.88,273.1L164.99,213.09L165.29,243.34L165.31,245.3L165.41,207.14L165.58,293.58L166.1,223.85L166.12,223.16L166.13,222.76L166.17,247.6L166.19,253.27L166.26,295.18L166.7,211.83L166.94,271.3L166.96,243.13L167.04,211.61L167.27,290.56L167.7,253.73L167.71,252.41L167.8,211.89L167.94,264.9L167.96,284.33L167.97,292.67L168.41,211.64L168.65,263.25L168.67,240.13L168.98,290.49L169.44,210.83L169.45,209.65L170.01,286.07L170.18,215.5L170.19,205.93L170.36,295.96L170.86,213.56L170.88,208.71L171.37,289.53L171.55,229.67L171.56,221.25L171.72,294.38L172.21,248.76L172.23,231.08L172.24,227.76L172.74,302.27L172.76,307.06L173.27,221.36L173.65,240.48L173.67,254.49L173.77,295.22L173.95,218.89L174.45,290.19L174.47,283.51L174.98,211.54L175.15,304.53L175.21,289.83L175.22,288.89L175.82,293.49L175.95,213.41L176.05,230.4L176.06,248.02L176.63,207.87L176.84,291.72L176.86,282.37L176.96,219.45L177.54,315.62L177.6,304.99L177.61,298.1L177.87,299.59L177.98,218.07L178.17,277.91L178.18,281.76L178.21,294.81L178.31,221.34L178.33,211.88L178.34,210.63L178.53,278.98L178.54,278.76L178.55,291.7L178.67,224.46L178.91,295.5L179.35,226.41L179.37,228.16L179.42,226.06L179.94,306.88L180.14,248.63L180.15,253.2L180.26,298.51L180.79,227.25L180.95,296.75L180.96,287.85L181.06,233.33L181.63,304.77L181.75,233.58L181.76,234.83L182.16,225.16L182.33,312.48L182.51,247.64L182.53,249.28L182.66,299.36L182.79,232.45L183.18,234.53L183.2,238.87L183.21,238.45L183.24,257.65L183.26,267.97L183.68,301.99L183.81,229.47L184.02,295.13L184.04,289.26L184.55,235.47L184.72,322.14L184.78,312.54L184.79,308.11L185.24,247.83L185.38,299.55L185.39,313.16L185.92,238.53L186.2,252.54L186.22,256.59L186.42,306.74L186.6,239.94L186.93,249.3L186.94,236.5L187.12,315.6L187.8,296.56L187.81,274.39L188.13,302.59L188.31,236.34L188.61,247.05L188.63,257.93L188.81,307.43L189.34,230.55L189.38,250.63L189.4,260.65L189.52,308.53L189.95,240.42L190.18,296.52L190.19,290.24L190.65,226.26L190.86,297.4L190.98,229.52L190.99,240.33L191.2,293.56L191.32,231.64L191.53,279.48L191.55,292L191.73,231.49L191.94,309.45L192.04,291.87L192.06,257.5L192.23,297.17L192.69,228.85L192.81,253.49L192.83,265.97L192.91,300.16L193.1,227.17L193.61,289.08L193.63,267.62L193.78,232.33L194.3,311.26L194.34,307.06L194.35,306.17L194.37,308.87L194.47,242.53L194.71,257.23L194.72,247.76L194.75,233.28L195.31,294.4L195.45,249.04L195.46,261.65L195.78,236.4L195.99,298.16L196.22,246.29L196.23,255.06L196.72,311.75L196.86,233.84L197.03,303.26L197.04,281.99L197.36,299.06L197.54,228.78L197.84,237.13L197.86,253.3L198.04,295.47L198.23,226.08L198.61,239.23L198.63,247.37L198.91,232.01L199.08,307.99L199.41,294.5L199.42,286.78L199.75,291.36L199.88,223.14L200.21,229.76L200.22,230.3L200.44,293.62L200.62,229.56L200.95,239.17L200.96,227.8L201.5,302.7L201.82,285.25L201.83,259.64L201.93,224.62L202.49,289.15L202.56,266.34L202.57,269.89L202.83,288.64L202.96,221.57L203.37,232.32L203.38,231.58L203.51,291.98L203.68,244.38L203.7,228.6L203.88,301.56L204.32,226.24L204.47,265.68L204.48,269.88L204.54,291.31L204.67,224.57L204.98,238.08L204.99,225.82L205.14,256.97L205.15,263.75L205.69,223.46L205.91,295.16L205.93,280.34L205.95,271.07L206.28,303.2L206.7,221.65L206.73,234.14L206.75,251.54L206.93,286.02L207.39,207.44L207.5,229.48L207.52,238.08L207.74,214.18L208.3,286.41L208.31,283.4L208.66,312.91L209.11,213.06L209.13,222.12L209.14,240.1L209.45,209.69L209.67,286.84L209.89,219.23L209.91,232.18L210.12,213.04L210.69,289.04L210.71,287.65L211.05,298.03L211.5,217.73L211.52,227.59L211.72,282.94L212.19,217.14L212.26,224.48L212.27,222.47L212.4,281.13L212.52,211.29L212.73,258.94L212.74,275.51L212.86,208.55L213.41,265.62L213.43,284.07L213.47,289.16L213.9,218.34L214.13,274.97L214.14,250.16L214.57,210.69L214.79,285.81L214.92,219.08L214.94,229.15L215.32,219.43L215.62,307.9L215.69,230.54L215.71,233.91L215.83,295.78L216.28,214.86L216.5,289.98L216.52,275.5L216.85,279.81L216.96,209.93L217.29,216.92L217.3,210.51L217.87,281.45L218.04,235.47L218.06,225.42L218.23,293.34L218.68,224.07L218.91,273.87L218.93,248.03L219.01,216.67L219.58,285.03L219.71,227.73L219.72,233.86L219.92,281.85L220.15,221.85L220.44,234.38L220.45,222.65L220.51,231.54L220.52,241.71L220.64,295.54L221.15,217.1L221.16,211.57L221.22,242.29L221.23,248.01L221.5,218.78L221.63,285.67L221.8,232.77L221.82,229.87L221.97,292.77L222.19,228.24L222.2,228.1L222.84,224.04L223.03,293.38L223.06,292.25L223.07,293.33L223.09,293.86L223.16,281.41L223.17,244.47L223.68,289.23L223.87,221.65L223.93,230.28L223.94,248.78L224.03,288.88L224.48,216.93L224.72,264.96L224.74,242.25L224.82,212.75L225.42,291.87L225.44,291.12L226.32,218.87L226.33,231.16L226.89,213.95L227.03,467.03L227.13,275.78L227.15,249.93L227.23,220.03L227.82,306.69L227.84,302.76L227.86,301.54L228.14,302.34L228.6,217.23L228.73,236.14L228.74,249.75L228.94,220.53L229.52,298.63L229.57,290.25L229.58,290L229.62,278.77L229.67,289.29L229.68,252.4L230.19,305.75L230.38,226.08L230.44,241.52L230.45,252.26L230.54,296.63L230.99,212.37L231.23,276.76L231.25,249.59L231.33,217.37L231.56,290.74L232.02,220.77L232.03,222.37L232.6,304.01L232.79,237.05L232.8,239.64L232.93,302.16L233.06,230.31L233.3,258.87L233.31,245.15L233.39,231.79L233.6,278.72L233.61,292.78L233.96,296.47L234.41,222.95L234.43,227.02L234.44,239.81L234.84,222.95L235,298.62L235.18,234.45L235.19,230.69L235.32,292.98L235.44,217.99L236.01,289.98L236.02,274.56L236.35,296.48L236.8,213.75L236.82,222.21L237.42,299.68L237.57,241.68L237.59,241.57L237.72,304.19L237.83,222.48L238.26,237.78L238.27,236.89L238.39,282.04L238.4,294.17L238.51,230.71L239.08,301.46L239.15,267.23L239.17,273.51L239.61,240.01L239.8,318.11L239.88,296.56L239.9,299.28L239.95,245.21L240.11,301.55L240.42,294.32L240.44,295.78L240.45,307.14L240.91,231.68L241.15,283.62L241.16,261.67L241.25,230.28L241.48,288.81L241.76,274.61L241.78,279.82L242,235.47L242.16,303.19L242.52,282.82L242.53,259.57L242.96,223.93L243.19,292.79L243.31,229.29L243.33,241.65L243.53,293.98L244.06,229.2L244.07,232.53L244.08,233.06L244.21,283.55L244.4,224.53L244.51,273.32L244.53,277.62L244.9,299.29L245.08,236.07L245.25,283.53L245.27,261.3L245.71,221.81L245.92,292.14L246.05,236.6L246.06,245.94L246.11,236.95L246.61,296.61L246.78,248.01L246.79,227.56L247.7,317.18L247.72,319.83L248.16,237.43L248.56,259.73L248.57,271.73L248.66,303.35L248.87,241.51L249.17,266.24L249.18,242.39L249.7,316.11L249.85,274.74L249.87,252.67L250.04,319.29L250.45,274.41L250.47,267.49L250.71,300.98L251.24,244.22L251.25,246.85L251.39,303.9L251.58,237.21L251.9,274.49L251.92,246.66L252.08,294.81L252.19,229.1L252.65,240.32L252.66,251.36L252.87,242.53L253.44,298.08L253.46,290.33L253.97,239.63L254.14,315.46L254.2,301.99L254.21,301.97L254.28,302.08L254.3,279.98L254.31,248.18L254.33,246.59L254.45,293.14L254.47,305.48L254.92,239.37L255.25,252.37L255.27,241.02L255.49,301.82L255.61,233.52L256.01,261.41L256.02,243.29L256.05,242.43L256.11,266.06L256.12,271.1L256.18,289.55L256.35,254.02L256.36,228.84L256.53,315.49L256.89,255.55L256.9,242.91L256.99,222.45L257.2,280.68L257.53,270.56L257.55,283.7L257.66,225.21L258.23,286.93L258.34,237.23L258.36,240.48L258.76,226.75L258.93,305.89L259.1,233.67L259.11,232.79L259.13,232.6L259.14,235.68L259.16,243.49L259.26,282.32L259.37,221.09L259.94,277.13L259.95,269.76L260.62,275.97L260.74,220.04L260.75,228.9L261.15,227.42L261.32,306.08L261.49,234.82L261.51,232.69L261.65,285.8L261.76,223.2L261.85,228.91L261.86,227.33L261.91,248.17L261.92,254.16L262.56,227.23L262.67,283.68L262.69,276.15L262.7,258.6L263.13,227.78L263.36,282.75L263.44,260.03L263.46,255.37L263.51,270.48L263.53,252.05L263.54,230.88L263.71,293.33L264.28,250.27L264.3,258.55L264.4,294.65L264.6,244.43L265.07,293.92L265.08,279.29L265.41,280.61L265.54,224.27L265.85,259.55L265.87,260.75L265.95,228.72L266.09,303.92L266.46,240.07L266.48,227.09L266.49,214.79L267.1,287.12L267.23,225.2L267.25,230.4L267.45,292.56L267.92,203.14L267.99,222.34L268,219.78L268.02,219.23L268.03,232.83L268.04,242.36L268.32,214.75L268.49,296.17L268.83,282.2L268.84,254.47L269.16,286.04L269.28,210.43L269.63,215.39L269.64,231.21L269.84,270.48L270.07,215.75L270.38,224.83L270.4,222.55L270.52,280.82L270.69,241.27L270.71,218.87L270.88,298.11L271.32,215.23L271.39,220.87L271.41,221.03L271.55,262.86L271.76,201.09L272.13,212.26L272.15,230.18L272.23,273.05L272.69,212.37L272.8,213.76L272.82,203.88L273.27,297.98L273.61,275.85L273.63,244.66L273.94,265.45L274.07,200.88L274.4,203.54L274.41,209.11L274.44,226.55L274.51,203.66L274.54,223.97L274.56,236.83L274.74,205.78L275.31,287.75L275.34,262.05L275.35,253.53L275.52,198.93L275.67,288.33L275.99,261.62L276.01,258.76L276.19,203.74L276.69,279.58L276.76,244.02L276.78,236.24L277.02,271.55L277.49,207.22L277.55,210.41L277.56,211.8L277.65,246.98L277.66,250.7L277.89,205.79L278.07,294.01L278.4,264.97L278.42,244.48L278.73,271.91L278.84,206.1L279.18,214.27L279.2,211.6L279.64,209.65L279.77,294.75L279.97,229.26L279.98,230.35L280.28,223.28L280.45,314.89L280.75,267.02L280.77,266.99L280.78,279.19L280.97,206.63L281.49,236.76L281.51,225.41L281.59,205.07L282.15,269.99L282.26,213.95L282.28,217.15L282.68,210.07L282.85,286.9L283.03,223.65L283.05,224.97L283.63,209.59L283.86,277.16L283.87,272.02L283.89,248.25L284.54,279.94L284.66,209.71L284.67,212.06L284.68,218.77L285.07,206.27L285.24,295.24L285.42,217.06L285.44,216.32L285.57,267.23L285.68,197.83L286.11,218.6L286.12,214.64L286.25,268.62L286.42,219.91L286.44,217.26L286.48,210.28L286.93,273.4L287.16,219.52L287.18,228.24L287.46,217.04L287.63,296.21L287.96,285.79L287.97,271.5L288.3,273.26L288.52,210.23L288.76,210.74L288.77,211.54L288.99,279.8L289.1,205.07L289.5,225.15L289.51,222L289.56,220.44L289.68,270.74L289.83,245.13L289.84,223.21L290.03,301.69L290.47,206.9L290.58,211.38L290.6,218.77L290.78,194.39L291.05,300.72L291.38,270.89L291.39,246.15L291.51,207.67L292.06,282.36L292.08,280.11L292.42,301.56L292.86,205.79L292.87,201.76L293.09,270.19L293.6,215.23L293.62,211.36L294.11,274.19L294.27,238.25L294.29,221.53L294.3,221.04L294.38,253.52L294.4,258.85L294.64,214.83L294.81,305.82L295.11,254.33L295.13,252.04L295.14,252.99L295.37,207.88L295.57,228.44L295.58,216.76L295.61,207.1L296.19,276.37L296.22,253.51L296.24,262.27L296.25,277.92L296.39,200.42L296.98,248.12L296.99,257.63L297.02,226.38L297.03,215.08L297.21,306.7L297.56,248.1L297.58,236.87L298,213.58L298.22,277.3L298.33,227.34L298.35,232.36L298.56,275.79L298.67,212.99L298.93,239.75L298.94,231.05L299.24,279.54L299.43,215.99L299.53,259.73L299.54,264.8L299.6,299.03L300.01,229.03L300.03,219.99L300.27,284.39L300.38,207.86L300.6,264.85L300.61,277.85L300.74,205.49L300.95,277.97L301.41,214.05L301.42,216.98L301.82,204.14L301.95,343.42L302.15,233.82L302.16,212.2L302.45,209.38L302.66,295.02L303.02,288.38L303.03,265.19L303.69,297.59L303.8,225.14L303.82,228.88L303.83,241.28L304.21,218.99L304.39,303.98L304.57,235.77L304.58,235.16L304.71,296.04L304.83,222.51L305.25,242.62L305.27,241.57L305.4,298.77L305.53,232.12L305.82,248.3L305.84,235.14L305.85,223.35L306.42,294.58L306.56,263.14L306.58,265.5L306.78,304.67L307.23,220.13L307.33,232.94L307.35,245.17L307.45,295.22L307.9,224.72L308.13,293.5L308.15,286.52L308.64,222.82L308.83,292.77L308.9,277.88L308.92,273.19L309.17,308.29L309.61,226.21L309.73,237.89L309.74,249.63L309.84,298.35L310.3,227.9L310.54,285.96L310.55,262.3L310.64,223.43L311.22,294.92L311.25,281.47L311.27,277.08L311.32,271.86L311.35,282.05L311.37,286.27L311.39,237.52L311.57,305.98L312.12,253.51L312.13,260.55L312.69,240.63L312.92,302.35L312.93,294.94L312.95,272.62L313.37,231.81L313.6,297.54L313.7,265.48L313.72,260.81L313.79,220.21L313.97,312.98L314.39,229.31L314.4,216.47L314.53,239.93L314.73,153.64L314.74,140.16L314.97,218.32L315.18,149.03L315.2,142.94L315.5,133.58L315.65,235.69L316.02,212.44L316.04,204.52L316.35,252.59L316.79,150.77L316.82,161.42L316.84,188.53L317.02,227.92L317.48,152.89L317.61,163.08L317.62,181.44L317.83,145.93L318.4,228.77L318.42,213.8L318.74,250.68L319.2,155.96L319.22,166.55L319.54,156.62L319.76,235.17L319.97,171.71L319.98,170.32L320.21,147.89L320.44,218.73L320.81,204.7L320.82,200.33L320.85,204.53L320.9,185.17L320.94,194.18L320.95,163.44L320.97,138.8L321.18,239.66L321.69,149.03L321.71,162.62L321.81,215.37L321.94,107.69L322.12,186.59L322.14,191.66L322.26,120.92L322.83,215.11L322.86,183.18L322.88,169.09L322.96,120.3L323.53,241.92L323.56,236.15L323.57,234.54L324.31,105.53L324.46,147.41L324.47,157.23L324.88,222.55L325.01,103.8L325.07,123.13L325.08,123.26L325.24,207.28L325.34,91.57L325.71,170.03L325.73,176.1L325.95,233.85L326.37,111.8L326.49,132.29L326.51,150.61L326.95,210.13L327.06,100.59L327.29,197.88L327.31,145.71L327.46,90.38L327.98,213.1L328.02,187.07L328.03,185.27L328.15,137.82L328.36,242.38L328.67,178.48L328.69,161.59L329,209.62L329.44,111.72L329.47,131.72L329.49,143.68L329.56,108.81L329.67,232.34L330.24,126.53L330.26,135.5L330.55,125.55L330.71,224.97L331.05,194.33L331.07,155.22L331.72,195.97L331.84,93.11L331.85,111.81L331.94,103.38L332.41,205.64L332.61,128.19L332.62,121.36L332.63,120.65L332.69,162.52L332.71,168.6L333.1,232.6L333.32,131.96L333.45,203.72L333.46,165.95L333.65,114.05L334.12,216.72L334.23,121.93L334.24,124.5L334.46,198.32L334.69,116.9L335.01,149.88L335.03,146.74L335.17,228.67L335.7,146.03L335.84,208.24L335.85,183.91L336.17,210.94L336.3,104.98L336.67,140.06L336.68,151.23L336.85,215.68L337.32,104.85L337.44,121.72L337.45,132.52L337.72,111.38L337.89,217.48L338.23,198.36L338.25,158.22L338.56,194.54L338.69,84.68L339.02,94.64L339.03,90.29L339.59,200.68L339.81,129.23L339.83,138.65L340.11,136.82L340.28,231.55L340.63,213.1L340.64,172.56L340.74,101.98L341.3,219.08L341.42,108.67L341.44,118.58L341.64,220.26L341.77,107.81L342.19,129.98L342.21,128.95L342.72,229.4L343.02,203.62L343.03,167.07L343.35,218.5L343.48,109.44L343.82,111.7L343.83,127.2L344.03,210.61L344.16,107.69L344.57,126.82L344.59,123.96L344.71,206.6L344.9,121.64L345.04,190.45L345.06,215.64L345.11,225.12L345.51,120.45L345.75,214.89L345.77,178.45L345.87,107.96L346.42,220.13L346.54,118.04L346.55,121.75L346.88,120.85L347.12,225.09L347.31,147.67L347.32,149.54L347.51,226.65L347.62,164.48L347.63,145.88L347.79,209.32L347.91,114.21L347.92,110.67L348.48,228.09L348.67,136.33L348.69,130.58L348.7,129.62L348.79,189.41L348.8,200.33L348.82,224.75L348.93,113.04L349.53,195.04L349.54,185.21L349.69,154.98L349.87,251.68L350.23,187.46L350.24,169.86L350.54,208.68L350.67,102.62L350.85,185.23L350.87,192.16L350.88,213.69L351,104.41L351.6,161.89L351.61,144.22L351.69,105.5L351.91,204.9L352.24,189.64L352.25,211.97L352.59,221.98L352.71,129.79L352.95,205.55L352.96,171.81L353.62,212.35L353.73,114.29L353.75,120.97L353.76,135.88L353.83,125.27L354.32,236.3L354.52,152.08L354.53,154.84L354.84,147.45L355.33,238.27L355.34,234.49L355.36,201.26L355.67,224.74L355.8,126.27L356.14,146.75L356.15,156.67L356.35,222.47L356.47,113.39L356.87,145.93L356.88,131.74L356.89,130.95L356.98,173.26L356.99,182.31L357.07,227.95L357.48,140.71L357.49,127.17L357.83,122.84L358.06,218.3L358.11,158.1L358.12,147.34L358.18,113.59L358.76,218.43L358.92,174.43L358.93,156.99L358.95,155.33L359.06,207.78L359.07,209.48L359.1,244.32L359.27,145.11L359.79,207.03L359.8,177.4L359.9,126.73L360.46,230.99L360.54,182.66L360.56,167.31L360.8,218.01L360.91,116.99L361.32,146.31L361.34,145.56L361.48,217.24L361.67,140.15L361.81,198.62L361.82,219.81L361.84,230.64L362.28,115.84L362.39,122.59L362.41,132.71L362.62,111.72L363.19,212.36L363.21,208.59L363.65,131.26L363.87,216.17L363.97,170.34L363.99,165.02L364.06,121.95L364.23,235.4L364.64,137.37L364.66,115.54L364.67,100.81L364.9,204.87L365.38,133.64L365.4,150.49L365.58,203.52L365.8,104.88L366.15,122.71L366.17,133.19L366.47,111.26L366.68,218.88L366.95,207.09L366.97,192.52L367.41,89.52L367.64,195.46L367.74,104.16L367.75,91.6L367.98,197.54L368.43,97.78L368.45,96.9L369.02,209.09L369.2,128.33L369.22,126.72L369.46,103.85L369.69,202.09L369.77,151.83L369.79,140.13L369.9,115.9L370.37,195.84L370.53,160.3L370.54,149.48L370.6,131.69L370.71,206.61L371.28,146.04L371.3,155.04L371.58,116.22L371.74,226.03L372.09,217.76L372.11,205.86L372.45,240.36L372.88,133.66L372.89,142.6L372.91,157.39L373.32,133.49L373.46,210.28L373.65,146.1L373.66,146.36L373.8,225.2L374.26,144.74L374.3,157.89L374.32,139.23L374.36,135.12L374.47,216.06L374.76,200.15L374.77,201.44L374.84,232.34L375.04,147.35L375.2,162.07L375.21,158.86L375.5,185.84L375.71,107.57L375.83,160.08L375.84,179.71L376.05,118.99L376.2,216.32L376.35,173.39L376.37,139.5L376.53,195.05L376.75,116.2L377.11,129.53L377.12,142.06L377.32,111.69L377.89,209.08L377.91,202.93L377.92,176.2L378.43,126.68L378.59,213.94L378.6,222.65L378.62,229.51L379.03,139.73L379.1,143.47L379.12,143.59L379.26,212.07L379.39,129.44L379.84,156L379.86,169.81L379.94,211.83L380.4,110.63L380.63,189.31L380.64,192.97L381.06,209.51L381.44,119.97L381.45,130.08L381.47,147.17L381.54,113.2L381.64,169.08L381.65,188.48L382,189.1L382.11,109.83L382.32,160.99L382.34,179.04L382.45,97.94L382.68,195.05L383.01,186.04L383.02,203.65L383.22,140.82L383.38,223.29L383.56,150.27L383.58,153.88L383.7,210.99L383.83,128.92L383.9,138.73L383.92,132.69L384.05,197.53L384.26,127.83L384.36,168.85L384.37,175.02L384.39,196.21L384.94,112.2L385.1,156.62L385.12,140.46L385.2,109.11L385.78,235.16L385.8,231.59L385.81,232.18L385.91,207.97L385.93,180.74L386.1,208.61L386.65,111.61L386.68,138.07L386.7,150.93L386.78,204.61L386.91,107.34L387.47,185.52L387.48,180.88L387.69,122.58L388.21,217.78L388.22,213.88L388.23,215.97L388.55,132.08L388.58,146.42L388.59,133.91L388.61,118.75L389.18,190.32L389.32,141.77L389.33,158.62L389.4,120.32L389.52,208.22L390.09,130.38L390.1,135.56L390.4,132.47L390.6,236.05L390.88,196.66L390.9,171.61L391.1,112.99L391.55,188.78L391.67,127.9L391.68,130.89L392.11,117.14L392.25,194.21L392.41,145.15L392.42,119.02L392.47,118L392.99,243.63L393.11,146.23L393.12,140.03L393.15,135.33L393.22,185.23L393.24,188.07L393.26,204.77L393.36,135.18L393.38,119.98L393.61,207.35L393.73,119.03L394.13,123.89L394.15,123.83L394.65,187.14L394.76,108.33L394.89,123.99L394.9,130.9L395.19,126.99L395.39,220.12L395.74,186.32L395.76,179.95L396.03,215.76L396.55,105.95L396.57,109.21L396.58,126.11L396.68,206.38L397.24,120.84L397.35,171.95L397.37,189.45L397.38,190.05L397.54,166.56L397.55,145.77L397.57,145.55L397.58,147.72L397.59,153.73L397.72,231.23L398.12,146.82L398.14,151.46L398.15,138.6L398.26,117.48L398.75,204.69L398.88,156.93L398.89,169.33L399.08,202.01L399.53,115.37L399.67,144.7L399.69,147.81L399.97,117.8L400.13,211.31L400.46,199.01L400.47,159.95L400.79,187.08L401,95.8L401.21,154.88L401.23,146.15L401.47,194.56L401.92,115.01L401.98,136.6L402,124.39L402.02,117.6L402.14,168.19L402.15,185.61L402.17,186.16L402.18,171.73L402.2,163.55L402.34,118.91L402.55,216.71L402.98,138.91L402.99,151.58L403.18,198.99L403.31,123.63L403.51,183.04L403.52,195.99L403.75,117.67L404.18,172.87L404.19,176.67L404.75,127.45L404.92,212.83L404.94,205.14L404.96,200.32L404.97,204.43L405.46,116.38L405.6,155.64L405.61,138.16L405.69,109.35L405.91,200.82L406.24,188.59L406.26,199.32L406.33,139.71L406.34,148.03L406.36,132.41L406.73,107.62L406.95,190.73L407.08,157.79L407.1,162.73L407.32,208.51L407.74,92.31L407.85,100.67L407.87,111.02L408.18,98.78L408.65,190.19L408.66,184.77L408.68,163.74L409.08,120.76L409.35,202.34L409.42,170.5L409.43,166.11L409.49,174.96L409.5,143.51L409.52,124.33L409.63,185.97L409.65,193.43L409.69,223.82L410.14,121.27L410.23,132.33L410.24,129.27L410.36,206.79L410.91,106.13L411.06,184.82L411.07,165.18L411.11,133.09L411.43,224.1L411.78,193.73L411.8,189.9L412.08,228.63L412.28,139.5L412.4,192.99L412.41,210.66L412.62,141.77L412.75,214.87L412.79,154.16L412.81,136.43L412.97,106.65L413.44,196.96L413.52,132.64L413.54,115.25L413.55,99.21L414.13,197.92L414.23,176.7L414.25,180.63L414.48,233.43L414.93,128.81L414.95,131.18L415.14,211.99L415.6,113.64L415.69,129.37L415.7,126.72L415.83,203.18L415.84,217.41L415.97,220.26L416.36,122.16L416.48,180.67L416.5,186.52L416.7,123.6L416.87,228.01L417.22,172.44L417.24,151.36L417.42,117.45L417.88,217.99L418.01,129.51L418.02,135.09L418.34,122.56L418.91,225.45L418.92,218.85L418.93,203.75L419.28,259.92L419.8,137.8L419.83,147.75L419.85,159.3L420.27,204.66L420.5,118.73L420.63,202.82L420.64,180.6L420.73,108.15L421.3,207.28L421.38,174.98L421.4,170.93L421.67,237.08L422.1,119.36L422.2,123L422.21,121.65L422.44,108.38L422.67,196.98L423.02,193.16L423.04,167.27L423.22,119.28L423.71,205.64L423.76,178.98L423.78,184.95L423.88,142.11L424.05,247.05L424.36,199.64L424.38,213.41L424.49,111.87L425,182.03L425.02,192.65L425.06,203.93L425.17,111.14L425.76,196.03L425.77,167.21L425.86,124.7L426.1,216.09L426.41,208.95L426.43,229.58L426.46,240.18L426.9,101.31L427.13,200.27L427.14,168.02L427.24,99.66L427.45,208.25L427.91,109.14L427.92,109.95L428.26,105.17L428.88,236.51L428.92,229.56L428.93,220.16L429.28,107.89L429.49,186.37L429.5,205.83L429.52,205.15L429.53,176.51L429.63,115.84L430.19,229.54L430.26,176.12L430.27,184.8L430.53,232.04L430.66,134.98L431.01,188.09L431.03,197.81L431.23,242.58L431.67,135.83L431.78,142.19L431.8,152.3L432.13,151.2L432.6,240.29L432.62,229.38L432.64,227.34L432.94,233.48L433.14,152.9L433.15,151.77L433.45,144.09L433.64,238.76L433.96,216.31L433.98,188.51L434.29,219.64L434.4,137.21L434.76,151.75L434.78,160.23L435.09,142.18L435.32,222.22L435.52,149.58L435.53,150.8L436.07,240.68L436.17,189.41L436.19,168.85L436.68,227.97L436.81,143.9L436.94,164.2L436.95,168.91L437.03,218.84L437.5,132.16L437.72,206.2L437.74,185.65L438.25,148.77L438.42,239.17L438.45,235.92L438.46,232.72L438.52,212.81L438.55,213.98L438.56,185.27L438.86,130.85L439.23,232.12L439.33,150.76L439.35,166.77L439.53,135.33L439.76,213.19L440.12,207.3L440.13,185.42L440.22,149.96L440.46,227.29L440.77,215.1L440.79,234.77L440.82,249.32L441.36,137.84L441.48,209.13L441.5,184.37L441.6,132.69L442.17,219.82L442.27,137.93L442.28,139.29L442.62,128.96L442.85,220.8L443.01,167.12L443.02,143.6L443.19,235.78L443.35,196.2L443.37,168.55L443.54,212.48L443.65,124.67L444.12,160.27L444.13,171.14L444.21,217.05L444.68,132.13L444.75,139.58L444.76,134.42L444.78,133.48L444.82,164.26L444.83,175.32L445.12,152.1L445.6,257.16L445.67,229.27L445.69,223.1L445.72,229.49L445.73,220.38L445.74,186.9L445.92,223.47L446.14,129.08L446.51,150.56L446.53,160.66L446.73,120.86L447.3,208.09L447.31,183.25L447.41,129.93L447.98,240.78L448,244.26L448.42,114.05L448.91,152.15L448.92,167.26L449.01,220.13L449.22,137.49L449.69,218.52L449.7,186.76L449.8,124.02L450.37,242.16L450.39,244.99L450.83,124.39L451.03,207.36L451.04,221.25L451.09,159.19L451.1,146.02L451.4,217.21L451.51,104.24L451.71,190.28L451.73,210.3L451.76,178.65L451.77,156.01L451.84,109.52L452.43,219.11L452.48,212.43L452.5,206.13L452.78,240.82L453.21,98.21L453.35,144.15L453.37,152.04L453.57,101.1L454.12,210.47L454.13,209.94L454.15,189.71L454.25,105.5L454.82,215.85L454.9,180.58L454.92,173.44L455,134.03L455.19,235.29L455.53,144.92L455.55,128.73L455.96,94.59L456.19,205.19L456.27,123.57L456.29,106.01L456.3,101.3L456.51,205.88L456.84,183.88L456.86,198.49L456.98,95.6L457.21,200.91L457.48,172.47L457.5,181.53L457.63,234.03L457.74,162.07L457.91,178.4L457.92,152.74L458.24,210.68L458.68,95.5L458.71,106.77L458.72,129.23L458.78,99.4L458.84,137.21L458.85,148.05L459.02,78.58L459.61,204.3L459.63,185.46L459.65,182.42L459.79,139.62L459.99,235.11L460.32,155.76L460.33,145.23L460.4,117.89L460.6,189.99L460.62,206.1L460.96,207.38L461.43,88.33L461.44,97.13L461.46,123.72L461.53,96.44L461.64,197.76L461.97,185.5L461.98,215.72L462.17,124.6L462.31,183.2L462.33,210.88L462.4,224.95L462.78,79.59L463.02,182.58L463.04,145.02L463.12,83.17L463.69,204.27L463.79,125.01L463.81,104.1L464.04,219.26L464.56,127.31L464.58,128.44L464.75,272.23L464.89,157.21L464.9,136.84L465.06,206.75L465.52,93.48L465.65,121L465.66,135.89L465.87,92.1L466.09,205.96L466.44,200.65L466.46,166.39L466.54,94.39L467.13,227.23L467.18,221.27L467.2,218.34L467.21,220.75L467.53,128.36L467.54,134.67L467.55,120.1L467.92,88.89L468.14,218.78L468.28,115.48L468.3,140.07L468.37,107.35L468.82,233.15L469.01,149.86L469.02,150.5L469.05,140.77L469.18,225.99L469.46,203.63L469.48,207.16L469.55,257.02L469.96,113.69L470.2,214.85L470.22,177.52L470.53,216.38L470.99,104.17L471,107.69L471.02,121.51L471.12,118.55L471.57,213.78L471.77,130.19L471.79,131.44L471.96,247.59L472.6,211L472.61,175.03L472.71,108.76L472.92,226.04L473.39,141.59L473.41,145.79L473.61,219.49L473.72,134.75L474.16,158.05L474.18,161.02L474.36,243.4L474.75,136.66L474.76,111.96L475.1,98.99L475.33,218.29L475.53,141.96L475.55,134.49L475.79,130.05L476.02,227.86L476.26,147.15L476.27,158.25L476.54,133.26L476.79,242.01L477.06,214.48L477.07,184.61L477.38,209.53L477.85,101.27L477.87,105.33L477.95,98.76L478.41,204.43L478.62,126.14L478.64,125.21L479.11,227.25L479.32,124.29L479.45,198.02L479.46,158.25L479.78,208.36L479.89,104.38L480.25,110.22L480.26,122.65L480.46,220.44L480.57,101.59L481,124.25L481.02,119.17L481.03,113.56L481.56,234.57L481.57,236.49L482.4,94.02L482.47,153.07L482.48,158.74L482.64,103.86L483.2,213.5L483.22,166.36L483.24,157.34L483.31,111.21L483.95,241.59L483.97,239.22L484.68,112.34L484.81,133.73L484.82,149.81L485.02,136.49L485.59,236.35L485.6,222.92L485.62,193.43L486.12,138.89L486.32,238.02L486.33,232.56L486.34,230.61L487.08,100.63L487.21,138.9L487.23,152.5L487.3,215.01L487.53,103.1L488,200.88L488.01,165.87L488.11,112.64L488.68,224.34L488.69,228.94L489.14,100.56L489.59,115.15L489.61,128.52L489.82,95.96L490.03,203.54L490.39,198.56L490.4,168L490.49,127.01L491.07,228.09L491.09,228.31L491.14,231.93L491.23,190.88L491.24,165.86L491.4,233.87L491.57,186.16L491.59,162.64L491.86,110.08L492.09,217.87L492.33,157.69L492.34,167.67L492.43,221.93L492.88,130.48L492.98,137.95L493,133.83L493.31,128.36L493.54,234.12L493.81,212.29L493.82,176.33L493.92,115.86L494.48,214.26L494.61,134.24L494.62,144.74L494.71,130.02L495.16,214.36L495.36,156.67L495.38,152.31L495.7,142.69L495.86,240.46L496.1,159.23L496.12,167.64L496.42,119.61L496.54,224.33L496.9,201.74L496.91,193.07L497.07,161.21L497.24,238.84L497.26,249.93L497.34,256.78L498.1,123.46L498.21,168.66L498.23,177.58L498.27,213.63L498.81,119.81L498.97,161.18L498.98,158.32L499.05,133.45L499.25,183.65L499.26,204.89L499.46,159.26L499.68,238.18L499.69,244.71L500.18,145.82L500.28,195.42L500.29,217.81L500.49,148.94L500.65,243.19L500.82,172.62L500.83,171.13L500.97,230.2L501.43,130.05L501.57,162.25L501.59,181.34L501.66,220.36L501.79,127.15L502.1,139.1L502.11,118.05L502.13,116.72L502.17,157.79L502.27,156.53L502.29,168.08L502.47,137.68L503.11,239.39L503.13,236.93L503.17,245.61L503.2,214.05L503.21,187.05L503.5,117.79L503.71,222.15L503.98,166.09L503.99,176.26L504.39,232.31L504.61,144.86L504.62,141.47L504.86,125.63L505.09,221.6L505.25,181.01L505.26,152.02L505.28,148.63L505.46,243.98L505.48,245.77L506.23,136.76L506.36,165.61L506.37,173.65L506.44,212.33L506.91,121.42L507.14,190.37L507.16,167.09L507.19,150.51L507.83,247.27L507.84,246.09L507.86,241.94L507.87,243.08L507.98,201.03L508,170.62L508.15,220.58L508.62,114.44L508.77,158.31L508.78,165.95L508.84,202.29L509.31,102.98L509.54,183.15L509.55,155.21L509.65,100.64L510.26,232.57L510.28,236.49L510.33,248.92L510.65,157.64L510.66,144.28L510.69,150L510.7,164.64L510.9,217.88L511.35,138.28L511.43,154.95L511.44,147.51L511.57,201.24L511.8,120.92L511.9,189.76L511.92,204.84L512.03,124.15L512.27,212.02L512.4,188.05L512.41,196.33L512.63,248.83L513.05,121.03L513.18,142L513.2,155.65L513.28,207.53L513.75,113.47L513.98,200.06L513.99,165.42L514.42,98.8L514.66,201.27L514.72,180.16L514.74,185.99L514.85,133.93L515.06,233.1L515.48,187.05L515.49,199.77L515.83,232.97L516.25,149.46L516.26,160.98L516.27,169.14L516.82,120.57L517.06,210.86L517.07,204.07L517.09,186.83L517.24,137.95L517.5,252.75L517.86,153.4L517.87,173.99L518.4,229.05L518.52,135.36L518.58,150.93L518.6,150.74L518.74,216.22L519.21,127.87L519.34,157.11L519.35,164.7L519.62,133.79L519.78,253.51L520.12,217.88L520.13,184.26L520.46,222.92L520.9,127.32L520.92,127.39L520.93,142.55L521.13,211.93L521.25,127.19L521.67,145.76L521.69,142.53L521.7,139.98L521.83,222.57L522.14,210.81L522.16,226.53L522.17,239.33L522.63,115.82L522.86,197.91L522.87,164.73L523.53,208.34L523.64,109.06L523.65,100.11L524.61,240.07L524.62,230.01L524.64,227.36L525.35,127.72L525.49,153.99L525.51,165.86L525.58,213.13L525.8,129.79L526.27,195.17L526.29,172.03L526.79,140.47L526.96,238.62L526.97,234.53L526.99,230.96L527.07,237.4L527.17,158.87L527.31,178.57L527.33,159.9L527.97,219.07L528.1,115.43L528.11,126.22L528.31,207.98L528.44,103.41L528.85,123.68L528.87,116.78L528.88,114.22L529.01,205.12L529.31,185.8L529.32,194.41L529.35,229.33L529.79,107.59L530.04,194.52L530.05,153.43L530.38,214.41L530.48,105L530.8,148.46L530.82,131.05L530.93,127.97L531.03,186.71L531.05,213.33L531.08,233.42L531.65,135.32L531.8,216.59L531.82,213.72L532.2,93.82L532.4,155.1L532.41,181.23L532.54,89.16L533.1,196.27L533.18,142.33L533.2,131.83L533.23,114.88L533.8,203.71L533.91,165.92L533.92,173.42L533.98,126.26L534.11,177.28L534.12,208.3L534.25,218.3L534.67,122.7L534.68,118.76L534.69,118.05L534.76,164.41L534.78,173.26L534.94,120.71L535.15,212.03L535.25,136.35L535.26,120.86L535.49,211.39L535.69,141.97L535.71,133.06L535.72,128.22L535.83,210.43L536.4,143.95L536.42,153.76L536.53,234.19L537.07,137.77L537.09,134.67L537.22,213.98L537.67,108.2L537.9,195.52L537.91,162.41L538,118.44L538.58,213.75L538.63,176.47L538.64,178.67L538.92,240.6L539.35,138.14L539.37,120.24L539.59,209.8L539.71,104.6L539.92,180.66L539.94,204.21L540.06,113.91L540.28,206.05L540.59,196.16L540.61,204.01L541.15,156.25L541.32,254.34L541.37,251.59L541.39,251.12L541.77,118.32L542.26,157.72L542.27,168.6L542.67,215.75L542.8,140.02L543.03,207.05L543.04,171.63L543.24,136.28L543.71,236.51L543.73,228.08L543.81,241.27L544.51,109.26L544.64,140.44L544.65,156.25L544.72,205.04L544.84,97.63L545.26,131.15L545.28,119.9L545.52,110.35L545.76,204.35L545.98,135.62L545.99,149.67L546.1,243.12L546.56,103.03L546.75,161.59L546.76,164.47L547.13,197.45L547.34,118.95L547.5,143.71L547.51,131.83L547.57,102.9L547.79,172.6L547.8,196.49L547.91,114.52L548.16,204.17L548.43,170.38L548.44,183.89L548.5,236.76L548.94,111.34L549.18,198.72L549.2,165.93L549.85,205L549.98,101.83L549.99,112.11L550.32,107.5L550.55,207.83L550.76,135.92L550.78,140.53L550.89,235.54L551.33,115.85L551.57,205.57L551.59,169.37L551.67,97.51L552.26,219.21L552.32,202.98L552.33,195.44L552.7,126.66L552.94,223.9L553.11,147.5L553.13,155.21L553.31,242.87L553.5,151.63L553.63,207.06L553.64,169.32L554.3,212.93L554.41,101.7L554.42,102.99L554.64,216.84L555.19,127.73L555.21,125.59L555.68,237.73L556.02,225.6L556.03,189.33L556.13,98.19L556.35,212.55L556.83,110.13L556.85,131.27L556.92,102.49L557.37,213.92L557.61,143.08L557.63,153.69L557.9,152.43L558.13,251.29L558.41,224.49L558.43,189.69L559.08,226.71L559.2,127.92L559.21,125L559.42,216.84L559.55,121.65L559.98,146.49L559.99,141.24L560.51,248.63L560.66,165.39L560.68,163.18L560.81,223.93L560.88,171.51L560.89,154.19L561.26,126.93L561.49,222.39L561.62,153.33L561.63,174.14L561.83,238.9L562.05,139.37L562.26,154.69L562.27,135.98L562.29,135.21L562.3,152.33L562.32,173.14L562.39,152.58L562.93,251.17L562.94,246.23L562.96,241.01L563.31,150.61L563.78,169.58L563.8,179.99L563.88,224.83L564.34,122.81L564.57,213.3L564.58,184.65L564.68,122.06L565.26,246.77L565.28,246.31L565.29,247.05L565.39,220.19L565.41,185.07L565.59,217.83L566.05,122.01L566.16,138.7L566.18,147.1L566.28,218.05L566.39,118.04L566.96,207.81L566.97,181.64L567.07,133.3L567.64,243.09L567.66,251.7L567.67,254.92L568.07,151.63L568.09,137.38L568.33,208.37L568.54,117L568.81,159.63L568.83,166.86L569.01,220.68L569.13,124.39L569.58,142.43L569.6,150.65L570.05,249.7L570.39,194.5L570.41,170.66L570.72,213.18L571.18,117.54L571.19,122.66L571.21,146.82L571.4,204.83L571.5,113.07L571.95,143.61L571.96,141.16L572.46,255.96L572.59,193.34L572.6,164.73L572.77,227.91L572.89,112.65L573.09,187.23L573.1,208.85L573.11,212.48L573.56,104.2L573.57,102.51L573.78,203.5L573.91,94.04L574.32,127.51L574.34,118.02L574.35,114.52L574.48,214.69L574.81,208.84L574.82,226.11L574.84,233.24L575.25,125.2L575.27,99.25L575.28,96.06L575.51,212.64L575.81,166.09L575.82,175.37L575.96,106.49L576.53,213.03L576.56,161.96L576.58,149.57L576.65,115.62L576.69,161.02L576.8,158.99L576.82,175.37L576.87,223.12L577.05,121.66L577.19,187.42L577.2,213.1L577.23,233.38L577.67,92.04L577.9,199.86L577.91,169.22L578.24,207.58L578.68,89.33L578.71,94.4L578.73,123.72L579.03,94.26L579.27,214.2L579.48,128.45L579.5,134.35L579.62,223.79L580.07,83.34L580.29,198.95L580.31,167.55L580.64,215.08L580.85,74.29L581.09,80.51L581.11,92.7L581.43,82.33L581.66,212.4L581.86,127.09L581.88,128.17L582.03,225.18L582.46,88.03L582.54,95.6L582.56,92L582.69,191.82L583.13,78.34L583.36,189.28L583.37,182.44L583.47,77.05L584.05,202.81L584.11,168.67L584.13,170.21L584.23,108.9L584.75,217.38L584.85,184.65L584.87,185.74L585.07,193.31L585.19,81.92L585.49,121.73L585.51,101.36L585.75,186.09L585.86,66.26L586.25,109.95L586.26,117.04L586.32,86.13L586.8,208.17L587.02,103.6L587.03,117.61L587.46,188.45L587.59,69.23L587.67,91.77L587.69,88.78L587.82,197.65L588.27,69.4L588.5,182.06L588.51,144.63L588.6,64.23L589.2,208.36L589.21,207.96L589.62,69.86L589.84,149.89L589.85,178.9L590.19,179.27L590.65,60.32L590.66,61.59L590.68,71.29L591.01,60.49L591.23,184.54L591.43,101.58L591.45,102.28L591.62,211.86L592,92.23L592.02,75.32L592.25,180.54L592.36,68.71L592.55,138.73L592.56,146.98L592.7,62.21L592.94,201.86L593.3,152.52L593.31,131.32L593.4,78.48L593.63,188.37L593.94,160.9L593.96,186.77L594.01,201.98L594.51,63.67L594.65,169.82L594.67,130.33L594.87,63.23L595.34,177.37L595.47,83.89L595.48,96.32L595.55,62.42L596.02,191.77L596.19,103.75L596.21,105.94L596.23,104.59L596.32,144.89L596.33,158.23L596.41,211.45L596.92,101.62L597.06,143.74L597.08,123.41L597.37,183.42L597.83,63.66L597.86,80.51L597.87,104.84L597.89,105.43L597.92,84.2L597.93,71.41L598.06,184.51L598.29,61.86L598.54,129.5L598.56,138.85L598.78,219.1L599.21,60.39L599.31,79.29L599.33,70.78L599.44,188.93L599.9,50.88L600.14,179.87L600.15,140.46L600.35,67.49L600.82,191.74L600.86,167.35L600.88,168.8L601.02,107.45L601.19,222.39L601.21,226.77L601.22,245.7L601.72,100.37L601.9,133.06L601.92,134.48L601.95,90L602.52,207.47L602.66,119.06L602.67,150.96L602.74,105.44L602.87,209.15L603.16,162.92L603.17,171.81L603.39,120.76L603.56,228.69L603.94,223.37L603.96,209.15L603.97,222.14L604.34,89.25L604.64,121.79L604.65,122.51L604.68,80.56L605.25,207.9L605.38,122.85L605.39,131.04L605.82,112.71L605.95,208.23L606.12,120.46L606.14,116.75L606.39,73.53L606.62,193.04L606.88,106.76L606.89,120.74L607.3,212.27L607.53,84.79L607.66,185.29L607.67,142.05L607.76,72.51L608.34,207.07L608.36,209.59L608.9,70.21L609.27,103.86L609.28,109.91L609.47,67.47L610.04,200.9L610.07,163.61L610.08,149.82L610.39,194.96L610.59,97.1L610.72,191.24L610.74,200.58L610.78,204.62L610.96,95.24L611.11,114.45L611.12,100.64L611.18,55.08L611.24,104.92L611.33,102.08L611.35,117.49L611.98,71.88L612.09,186.77L612.12,144.69L612.13,127.11L612.43,193.06L612.56,77.61L612.75,136.83L612.76,149.4L613.16,202.32L613.34,96.94L613.49,142.32L613.5,115.88L613.8,187.52L614.26,58.38L614.28,73.72L614.3,104.28L614.37,52.28L614.47,128.68L614.48,160.21L614.71,71.62L614.83,167.28L615.14,132.72L615.15,136.4L615.39,98.72L615.54,210.48L615.88,154.27L615.89,137.81L616.08,87.55L616.18,160.86L616.19,190L616.21,195.92L616.42,82.94L616.62,117.66L616.63,91.52L616.76,67.17L616.88,178.08L617.35,97.14L617.36,110.56L617.45,90.96L617.93,205.68L618.1,119.74L618.12,107.82L618.24,184.95L618.37,68.75L618.84,123.94L618.86,131.02L619.38,103.38L619.61,209.44L619.64,175.21L619.65,155.3L619.84,101.36L620.31,198.43L620.34,196.17L620.35,198.85L620.37,203.16L620.52,113.64L620.82,150.36L620.84,141.71L621.34,203.43L621.55,115.56L621.59,138.34L621.61,143.82L621.86,137.18L622.36,234.96L622.4,201.54L622.42,201.21L622.57,133.63L622.67,183.89L622.69,210.09L622.7,226.81L623.27,112.94L623.4,174.97L623.42,157.83L623.73,190.7L623.94,95.23L624.14,185.03L624.16,181.88L624.26,134.03L624.55,244.62L624.78,212.19L624.8,211.2L624.9,223.78L624.91,199.82L624.93,168.1L625.14,238.21L625.65,114.94L625.69,144.64L625.71,158.93L625.77,209.4L626.34,103.54L626.46,188.62L626.48,161.19L626.68,119.33L627.15,216.84L627.2,193.88L627.22,198.76L627.55,233.54L628.05,93.04L628.06,97.59L628.07,111.62L628.39,97.34L628.52,195.66L628.86,193.3L628.87,163.07L629.2,189.99L629.41,99.02L629.61,168.67L629.63,162.39L629.95,207.35L630.44,82.16L630.45,89.01L630.47,101L630.59,211.52L631.28,164.04L631.29,157.84L631.48,123.08L631.93,220.88L632.09,187.59L632.11,154.32L632.33,237.75L632.83,102.66L632.87,133.7L632.89,146.65L633.07,133.22L633.64,210.48L633.66,188.79L633.67,174.93L633.99,224.47L634.2,129.17L634.3,183.07L634.31,207.42L634.51,145.27L634.71,233.87L635.01,209.97L635.03,183.63L635.22,124.47L635.68,210.47L635.82,146.65L635.84,163.61L635.91,132.49L636.36,213.65L636.58,151.81L636.59,145.53L636.72,225.25L636.88,196.55L636.89,153.24L636.92,139.14L637.12,237.51L637.63,152.23L637.65,161.56L637.8,226.84L638.3,116.31L638.43,198.04L638.44,161.9L638.53,95.65L639.11,192.18L639.17,173.82L639.19,169.5L639.5,215.76L639.9,89.57L640.04,120.15L640.05,120.91L640.14,184.01L640.25,79.2L640.82,175.48L640.84,145.85L641.04,84.86L641.51,199.84L641.56,172.76L641.58,178.31L641.88,219.61L642.29,79.45L642.43,126.94L642.45,135.07L642.73,101.76L643.19,195.68L643.22,157.19L643.23,137.63L643.3,96.91L643.86,180.32L643.87,197.41L644.26,236.29L644.43,124.49L644.44,118.02L644.57,189.82L644.66,100.78L644.67,83.74L644.78,81.09L644.91,181.88L645.17,134.42L645.18,144.83L645.28,335.51L645.35,123.56L645.37,120.29L645.47,110.93L645.58,195.84L645.68,121.69L645.7,100.59L645.94,193.75L646.15,91.53L646.22,147.42L646.24,154.64L646.48,117.04L646.65,227.97L646.96,194.27L646.98,159.17L647.42,94.69L647.65,191.79L647.73,146.25L647.75,133.76L647.76,133.57L647.78,138.56L647.79,159.57L647.86,114.61L647.96,179.75L647.97,194.7L647.99,195.48L648,163.63L648.2,97.84L648.67,208.83L648.72,185.92L648.73,187.08L648.89,129.47L649.07,223.4L649.38,151.41L649.4,140.31L649.7,201.92L649.81,97.04L649.98,162.31L650,169.41L650.38,197.65L650.48,89.58L650.58,99.64L650.6,93.29L651.44,226.51L651.45,226.88L652.29,82.12L652.35,123.39L652.36,143.81L652.53,94.02L653.17,234.92L653.19,233.41L653.2,223.24L653.33,128.87L653.84,233.22L653.91,221.8L653.93,222.54L654.26,86.27L654.73,117.79L654.74,129.09L655.15,194.27L655.28,78.78L655.51,186.99L655.52,154.39L655.72,108.29L655.85,218.86L656.19,216.57L656.21,220.93L656.62,92.26L656.64,71.08L656.86,174.03L656.99,61.77L657.15,137.64L657.16,145.88L657.22,176.87L657.32,70.99L657.65,90.7L657.66,71.37L657.68,69.55L657.82,116.94L657.83,126.22L658.02,67.01L658.66,229.56L658.73,217.62L658.74,173.1L658.92,197.16L659.03,95.26L659.51,141.54L659.53,147.46L659.94,197.59L660.07,85.76L660.3,187.94L660.31,149.02L660.4,94.9L660.98,207.02L661,206.64L661.01,204.6L661.02,204.86L661.07,190.64L661.08,182.31L661.09,193.59L661.54,96.89L661.75,113.1L661.76,93.99L662.11,85.38L662.35,205.58L662.52,126.2L662.53,124.68L662.8,97.29L663.03,208.77L663.26,120.31L663.27,130.93L663.42,220.1L663.83,87.18L664.04,172.76L664.06,171.76L664.51,63.78L664.74,190.26L664.81,141.79L664.83,118.21L664.96,101.1L665.43,212.89L665.54,167.35L665.55,175.32L665.57,176.66L665.58,139.97L665.6,126.95L665.81,227.73L665.95,149.67L665.97,144.56L666.09,209.06L666.21,117.7L666.69,152.63L666.71,164.12L666.79,224.32L667.23,111.2L667.48,199.59L667.49,165.81L667.58,90.71L668.19,216.83L668.2,216.07L668.6,95.6L668.8,164.38L668.82,172.31L668.96,102.72L669.51,202.08L669.54,160.9L669.56,145.56L669.97,98.34L670.21,208.2L670.27,177.14L670.28,177.71L670.55,218.86L671,70.91L671.14,110.3L671.15,121.27L671.34,71.2L671.57,193.42L671.92,186.04L671.94,152.75L672.04,76.62L672.61,204.03L672.68,168.27L672.69,156.54L672.96,214.01L673.39,73.97L673.5,82.08L673.52,90.71L673.73,90.59L674.34,209.02L674.36,208.29L674.66,211.55L674.77,118.85L675.24,133.58L675.25,143.09L675.35,219.42L675.78,88.69L675.88,113.64L675.9,109.46L676.35,226.21L676.72,177.18L676.74,152.28L676.81,105.55L677.39,213.32L677.46,185L677.48,178.03L677.78,239.43L678.18,114.13L678.29,115.02L678.3,122.77L678.76,216.81L678.86,102.14L679.1,211.56L679.12,177.04L679.2,108.22L679.44,219.61L679.86,192.5L679.87,181.46L680.18,241.38L680.58,127L680.64,154.54L680.65,152.76L680.8,219.78L680.91,113.9L681.39,140.24L681.41,152.73L681.49,214.46L681.61,100.75L682.19,199.29L682.21,187.11L682.56,236.03L682.96,103.76L683.06,120.31L683.08,117.18L683.3,98.84L683.55,213.72L683.9,183.79L683.92,165.69L684.33,105.13L684.57,216.53L684.64,189.9L684.66,194.16L684.91,235.8L685.35,109.16L685.43,134.82L685.44,130.46L685.71,103.37L685.94,208.64L686.18,126.99L686.2,138.66L686.39,101.57L686.96,207.29L686.98,199.36L686.99,185.14L687.14,127.88L687.32,225.61L687.61,178.05L687.62,185.15L687.76,116.94L687.99,221.41L688.36,172.16L688.38,170.33L688.55,127.85L688.67,211.76L688.76,135.42L688.77,110.01L688.79,104.28L689.02,200.95L689.3,165.46L689.32,172.93L689.56,141.48L689.74,233.27L690.04,211.11L690.06,178.15L690.73,206.05L690.84,100.08L690.85,112.31L691.18,103.29L691.41,208.02L691.59,122.93L691.61,117.18L691.62,112.67L692.11,225.49L692.12,224.6L692.14,221.87L692.53,94.01L692.75,176.22L692.76,194.98L692.88,97.25L693.12,202.72L693.29,138.35L693.3,134.82L693.33,112.3L693.8,207.83L694.03,140.01L694.04,148.47L694.49,237.25L694.7,135.43L694.83,207.31L694.84,176.56L695.28,93.54L695.51,203.32L695.64,112.01L695.65,133.89L695.73,97.69L695.85,197.53L696.38,126.99L696.4,118.54L696.41,110.06L696.89,226.78L697.12,137.9L697.14,141.07L697.22,212.38L697.68,79.2L697.89,191.21L697.91,200.06L698.02,77.72L698.59,202.35L698.67,136.11L698.69,112.01L698.7,108.56L698.93,212.16L699.24,172.16L699.26,196.48L699.29,215.82L699.71,82L699.97,159.48L699.99,137.4L700.3,186.89L700.4,77.7L700.77,89.78L700.78,120.39L701.08,78.36L701.32,190.41L701.52,118.03L701.54,112.99L701.69,215.42L701.87,113.37L701.88,106.23L701.89,105.67L701.94,139.48L701.95,147.92L702.01,195.45L702.22,77.31L702.44,88.71L702.45,63.13L702.69,181.17L702.79,56.37L702.98,132.72L702.99,141.69L703.03,184.1L703.15,60.38L703.56,99.52L703.58,88.06L703.59,80.3L704.1,216.32L704.29,101.77L704.3,112.51L704.62,70.53L705.09,191.39L705.1,155.09L705.43,212.26L705.88,85.18L705.9,92.19L706.51,215.58L706.65,116.18L706.67,109.51L706.79,186.66L706.89,69.04L706.99,89.46L707.01,81.93L707.14,185.25L707.69,60.22L707.82,179.83L707.83,141.75L707.92,50.3L708.5,200.82L708.53,185.06L708.55,183.77L708.72,122.7L708.86,220.25L709.2,164L709.22,150.81L709.4,95.71L709.87,205.56L709.89,205.88L709.91,207.33L710.09,101.4L710.19,167.12L710.2,194.39L710.21,197.94L710.43,82.56L710.74,127.03L710.75,115.77L711.11,101.94L711.27,212.77L711.28,209.39L711.3,207.02L711.68,60.37L712.19,111.25L712.21,122.47L712.48,60.71L712.95,183.11L712.96,150.4L712.98,135.44L713.05,77.67L713.66,213.81L713.68,216.45L714.09,70.99L714.57,121.27L714.59,133.72L714.64,196.11L714.77,67.81L715.34,195.01L715.36,160.29L715.56,103.18L716.07,211.24L716.08,209.78L716.92,76.81L716.98,121.54L716.99,132.66L717.05,181.85L717.15,74.43L717.61,121.8L717.62,120.85L718.08,211.56L718.25,130.25L718.26,129.66L718.29,124.27L718.46,230.18L718.73,174.03L718.75,200.41L718.85,107.41L718.86,86.06L719.09,191.91L719.2,74.69L719.37,129.08L719.39,139.45L719.66,75.38L720.11,196.15L720.14,158.12L720.16,136.95L720.24,78.68L720.84,210.73L720.85,212.86L720.87,214.81L720.94,182.84L720.95,184.73L720.97,144.77L721.14,194.81L721.37,73.29L721.72,90.63L721.74,105.68L721.85,200.46L722.39,76.3L722.52,181.28L722.54,148.41L722.74,81.31L723.26,200.76L723.28,198.93L723.66,55.31L724.15,90.35L724.16,105.88L724.23,182.86L724.46,63.86L724.93,172.97L724.94,135.28L725.04,76.97L725.61,209.55L725.63,212.62L725.67,217.21L725.7,199.18L725.71,223.85L725.73,250.45L726.18,123.12L726.37,132.07L726.38,106.52L726.97,182.75L727.08,71.03L727.11,108.99L727.12,132.49L727.19,93.92L727.29,163.6L727.31,187.91L727.55,91.79L728.02,214.55L728.03,218.27L728.05,221.79L728.23,123.14L728.36,155.49L728.38,141.86L728.68,198.32L728.79,92.5L728.99,153.33L729,172.5L729.03,213.38L729.47,68.67L729.72,165.03L729.73,134.82L729.83,67.71L730.43,201.79L730.44,199.85L730.46,203.52L730.47,204.63L730.57,135.36L730.58,129.93L730.73,193.1L730.96,75.3L731.34,113.48L731.35,123.96L731.41,181.81L731.87,65.09L731.94,88.59L731.95,83.09L731.98,65L732.09,174.38L732.66,95.22L732.68,100.43L733.35,78.6L733.49,196.66L733.52,190.12L733.53,191.18L734.03,58.29L734.29,124.82L734.3,147.57L734.37,115.89L734.47,174.53L734.49,198.87L734.62,89.98L735.13,142.21L735.14,147.62L735.23,206L735.73,93.68L735.74,84.14L735.86,179.03L735.97,60.69L736.24,104.59L736.25,95.62L736.43,56.9L736.51,128.37L736.53,143.79L736.88,181.87L737.01,66.17L737.27,145.52L737.28,142.35L737.41,84.59L737.62,192.95L737.78,96.85L737.79,88.73L737.91,178.7L738.01,72.31L738.02,50.68L738.05,67.64L738.06,94.58L738.25,170.89L738.36,45.05L738.76,112.39L738.78,91.88L739.27,186.75L739.39,69.67L739.42,97.74L739.43,145.97L739.5,80.81L740.02,216.51L740.1,195.14L740.12,207.86L740.76,69.23L740.88,85.25L740.9,100.54L741.21,81.86L741.34,185.34L741.68,175.51L741.7,146.72L741.78,93.07L742.39,207.5L742.41,210.58L742.81,111.83L743.02,176.55L743.04,204.07L743.15,92.53L743.7,172.32L743.72,191.84L743.95,130.52L744.06,199.63L744.29,145.69L744.3,146.81L744.62,140.42L744.89,233.07L744.92,200.72L744.93,174.62L745.31,152.62L745.43,222.76L745.51,183.72L745.53,165.81L745.78,216.54L746,126.65L746.27,170.8L746.28,171.6L746.81,212.05L746.98,130.02L747.02,164.44L747.04,173.51L747.24,232.09L747.69,122.01L747.71,117.62L748.18,202.61L748.53,178.26L748.55,164.37L748.73,126.84L749.2,204.95L749.23,199.03L749.25,202.35L749.39,147.12L749.59,237.09L749.7,196.24L749.72,169.42L749.89,209.72L750.44,124.59L750.49,147.78L750.5,160.77L750.91,207L751.13,126.65L751.26,204.53L751.27,177.61L751.47,118.52L751.98,227.28L752,230.3L752.1,207.45L752.11,174.48L752.27,218.56L752.72,120.14L752.88,162.63L752.89,169.55L753.29,209.24L753.41,120.93L753.49,138.82L753.51,129.88L753.52,123.87L753.99,218.23L754.12,206.21L754.13,214.4L754.33,238.08L754.89,126.53L754.92,143.58L754.93,153.62L755.07,144.18L755.7,218.86L755.71,194.99L755.73,179.03L756.03,194.27L756.14,104.22L756.35,173.18L756.37,192.44L756.57,139.55L756.77,234.75L757.08,187.27L757.1,167.11L757.74,203.11L757.87,114.07L757.88,120.66L757.89,142.59L758.19,98.88L758.42,187L758.62,131.01L758.63,125.5L758.65,122.36L758.78,212.59L759.05,167.56L759.06,176.01L759.16,227.33L759.5,126.12L759.53,131.46L759.55,116.83L759.56,95.11L760.13,201.23L760.27,144.01L760.29,163.2L760.49,185.98L760.7,121.59L761,142.97L761.01,135.23L761.36,125.29L761.51,205.18L761.53,208.85L761.55,213.37L761.73,131.45L761.87,150.81L761.88,132.28L761.97,89.77L762.54,183L762.65,118.39L762.67,125.44L762.75,103.05L762.88,182.03L763.41,122.78L763.42,116.9L763.44,115.76L763.49,151.66L763.51,157.67L763.75,131.61L763.92,221.82L764.25,189.59L764.26,162.19L764.8,123.42L764.93,213.96L765.04,139.5L765.06,149.31L765.27,208.81L765.71,124.21L765.8,135.03L765.81,131.76L765.96,197.97L766.16,126.89L766.26,187.51L766.27,202.85L766.31,227.98L766.84,117.62L766.98,168.59L767,146.92L767.31,190.18L767.42,109.94L767.78,114.05L767.79,131.76L767.87,100.92L768.72,233.18L768.76,225.61L768.78,217.39L769.23,141.34L769.4,231.03L769.42,231.21L770.26,103.45L770.32,141.42L770.33,151.69L770.73,194.98L770.93,102.73L771.11,190.8L771.13,188.56L771.28,105.43L771.4,169.15L771.41,172.13L771.97,93.33L772.1,174.01L772.18,125.1L772.2,113.86L772.44,180.1L772.65,92.19L772.91,130.78L772.92,143.84L772.98,105.05L773.45,198.6L773.46,222.85L773.48,226.47L773.66,123.43L773.68,126.23L773.81,184.96L773.91,111.66L773.92,104.1L774.02,96.01L774.49,185.1L774.67,127.05L774.69,119.14L774.82,188.6L775.27,106.16L775.4,118.91L775.42,129.84L775.7,124.27L775.9,228.4L776.2,190.31L776.21,157.88L776.88,191.84L777,92.24L777.01,99.78L777.03,117.69L777.22,181.45L777.44,81.35L777.75,107.66L777.77,100.87L777.78,95.71L778.26,212.98L778.32,203.86L778.34,198.06L779.15,66.75L779.19,104.47L779.2,118.83L779.72,83.27L779.95,245.04L779.97,163.38L779.99,135.34L780.17,82.71L780.64,223.88L780.67,214.69L780.69,215.38L780.7,216.4L780.8,163.96L780.81,140.97L780.99,203.08L781.2,118.54L781.27,169.8L781.28,178.61L781.33,205.33L781.43,101.48L781.44,96.1L782,213.27L782.2,127.01L782.21,117.47L782.34,205.39L782.47,96.12L782.68,194.93L782.7,202.76L783.04,219.63L783.49,103.43L783.51,108.89L783.52,126.04L783.59,100.68L784.06,193.3L784.13,142.73L784.15,118.62L784.18,96.91L784.79,238.81L784.85,218.62L784.86,217.29L784.89,218.34L784.9,187.62L785.26,132.18L785.47,230.41L785.67,146.51L785.69,156.83L785.76,207.84L786.33,88.15L786.46,178.58L786.47,147.16L786.9,74.91L787.14,210.65L787.18,190.89L787.2,188.99L787.23,198.27L787.25,169.36L787.28,174.74L787.3,134.49L787.35,98.59L787.87,219.05L788.05,119.82L788.07,143.36L788.28,86.03L788.51,202.72L788.85,197.58L788.86,148.91L788.95,61.64L789.18,188.63L789.63,99.62L789.65,106.94L789.75,104.08L790.22,227.64L790.4,142.81L790.42,138.48L790.56,232.13L790.76,127.88L790.84,185.31L790.86,189.46L790.89,195.85L790.99,114.84L791,101.78L791.23,210.02L791.36,92.59L791.56,173.19L791.57,195.53L792.03,77.03L792.27,198.66L792.34,152.91L792.35,146.13L792.62,212.64L793.07,57.03L793.19,93.67L793.21,112.98L793.39,55.47L793.98,179.56L793.99,146.98L794.08,74.48L794.66,195.09L794.76,118.92L794.78,130.32L795.02,210.23L795.46,51.87L795.5,96.58L795.52,84.12L795.67,167.98L795.79,34.45L796.26,58.57L796.27,84.43L796.47,55.81L797.05,186.98L797.08,160.87L797.1,147.93L797.4,207.8L797.85,39.11L797.94,56.46L797.95,56.69L798.18,39.95L798.76,174.68L798.78,140.41L798.88,43.67L799.45,176.13L799.53,140.21L799.55,130.47L799.62,85.69L799.76,163.91L799.78,185.83L799.8,201.75L800.25,63.8L800.49,143.01L800.5,128.91L800.57,61.65L800.8,178.75L801.29,83.14L801.3,107.58L801.37,75.43L802.18,217.9L802.25,204.64L802.27,192.77L803.08,66.64L803.11,104.32L803.12,121.39L803.32,59.41L803.89,184.7L803.91,146.84L803.99,50.39L804.59,200.37L804.63,186.07L804.65,183.86L804.68,194.44L805.02,82.83L805.5,117.72L805.52,128.48L805.72,64.19L805.94,201.5L806.29,191.14L806.3,161.35L806.5,98.97L806.98,208.03L807.01,203.11L807.03,198.67L807.43,66.25L807.9,109.93L807.91,122.69L808,181.94L808.11,84.5L808.68,180.98L808.69,152.55L808.78,101.49L809.36,211.65L809.38,213.39L809.58,124.02L809.68,179.37L809.69,196.2L810.15,87.74L810.33,146.23L810.35,154.02L810.49,104.4L810.73,202.42L811.07,186.32L811.09,159.34L811.17,92.52L811.77,221.74L811.81,215.67L811.83,212.89L812.21,121.77L812.44,213.72L812.68,143.33L812.7,154.3L812.78,202.34L813.34,102.13L813.47,192.66L813.48,166.02L813.58,105.69L814.19,218.89L814.21,218.24L814.95,98.99L815.09,127.86L815.1,139.13L815.29,96.46L815.86,194.75L815.87,166.36L815.89,150.8L816.07,123.19L816.54,225.54L816.56,225.22L817.43,95.29L817.48,124.4L817.5,137.15L817.57,196.58L818.12,101.7L818.27,161.76L818.28,146.59L818.37,102.36L818.94,214.6L818.95,219.17L818.96,220.21L819.09,172.6L819.11,145.87L819.28,207.65L819.73,89.41L819.89,129.5L819.9,142.82L819.96,188.66L820.18,84.89L820.47,107.8L820.49,99.85L820.52,86.81L820.99,188.2L821.2,113.51L821.22,118.16L821.4,208.32L821.88,95.17L822.01,191.3L822.03,163.37L822.35,191.05L822.81,80.53L822.82,95.31L823.04,186.73L823.15,78.45L823.58,112.87L823.59,114.48L823.68,154.86L823.69,162.46L823.72,203.44L824.18,89.67L824.42,162.76L824.43,146.06L824.75,190.13L824.85,81.84L825.06,166.9L825.08,188.15L825.09,196.48L825.55,83.76L825.8,168.03L825.82,158.01L825.92,170.54L825.99,110.75L826.09,164.57L826.1,187.63L826.13,207.33L826.67,68.56L826.81,162.12L826.83,146.19L827.48,171.63L827.6,59.83L827.63,101.1L827.64,110.01L827.94,51.23L828.17,175.39L828.39,86.9L828.41,95.27L828.52,188.04L828.95,70.82L829.21,152.99L829.22,131.42L829.41,75.98L829.53,182.08L829.85,150.74L829.86,175.46L829.99,76.15L830.22,184.26L830.3,96.51L830.32,73.75L830.33,71.95L830.53,147.68L830.55,171.98L830.77,96.66L830.94,213.06L831.26,154.57L831.27,130.99L831.59,177.84L831.7,58.03L831.9,141.6L831.91,169.81L832.04,58.14L832.27,176.94L832.36,83.97L832.37,68.68L832.81,54.94L832.95,181.39L833.11,128.15L833.12,102.19L833.17,96.01L833.3,203.44L833.59,154.54L833.61,161.65L833.64,190.36L833.75,66.98L834.34,148.15L834.35,127.88L834.53,59.96L834.68,196.48L835.12,101.53L835.13,113.68L835.22,74.94L835.72,200.48L835.86,104.46L835.87,100.51L835.89,100.94L835.9,91.28L835.93,97.08L835.95,113.51L836.14,50.54L836.36,188.85L836.71,170.87L836.73,140.94L837.04,168.64L837.51,47.03L837.53,57.81L838.12,200.21L838.28,102.38L838.3,95.4L838.54,49.22L838.75,182.06L839.11,163.99L839.12,131.55L839.22,58.35L839.44,168.85L839.91,86.97L839.92,102.55L840.01,74.29L840.5,197.72L840.67,102.98L840.69,93.17L840.73,116.23L840.75,125.22L840.8,173.76L841.27,55.62L841.5,163.05L841.52,133.63L841.71,56.99L842.17,188.12L842.28,90.24L842.3,87.4L842.4,87.16L842.93,211.85L843.05,124.12L843.07,114.08L843.2,180.7L843.42,52.38L843.81,93.61L843.82,119.43L844.11,77.7L844.56,191.28L844.59,159.91L844.61,143.02L844.79,98.67L845.26,204.74L845.28,206.92L845.39,214.24L845.49,141.73L845.62,163.74L845.63,143.24L845.93,187.27L846.06,71.56L846.42,89.39L846.43,113.77L846.5,73.27L846.6,147.11L846.61,178.23L846.67,183.13L846.84,87L847.04,127.58L847.06,115.02L847.18,77.7L847.73,204.25L847.78,175.86L847.8,173.62L848,180.09L848.22,76.89L848.31,134.14L848.32,144.7L848.68,173.6L848.91,64.04L849.05,131.91L849.07,111.66L849.14,53.14L849.38,169.82L849.79,141.97L849.81,130.28L850.12,188.13L850.62,60.73L850.63,64.04L850.65,78.78L850.73,169.94L851.3,61.77L851.44,136.95L851.46,118.29L851.76,177.1L851.99,72.23L852.16,140.96L852.17,142.58L852.34,85.34L852.5,190.42L852.66,86L852.67,78.55L852.68,78.27L852.7,89.04L852.71,99.96L853.01,88.91L853.47,185.53L853.48,183.23L853.5,152.34L853.7,77.13L853.82,193.37L854.28,89.84L854.29,103.23L854.38,82.11L854.85,195.39L855.03,102.09L855.05,93.48L855.29,69.19L855.53,179.47L855.76,98.51L855.77,107.85L856.2,185.03L856.32,72.1L856.42,80.99L856.43,74.68L857.3,195.44L857.31,193.72L857.33,186.92L857.57,187.95L857.8,78.43L858.18,113.04L858.2,123.91L858.3,193.62L858.82,100.2L858.95,186.2L858.97,151.13L859.05,80.29L859.68,204.55L859.69,200.31L859.71,196.58L860.53,79.52L860.56,94.91L860.58,107.61L860.87,65.45L861.33,178.47L861.34,172.12L861.36,139.58L861.46,81.05L862.07,200.62L862.09,198.14L862.93,67.18L862.98,109.69L863,120.09L863.04,171.76L863.17,51.01L863.75,136.52L863.77,119.06L863.84,80.36L864.14,181.7L864.39,145.37L864.41,193.1L864.42,249.01L864.98,50.23L865.13,109.93L865.15,106.12L865.21,55.86L865.23,76.11L865.25,114.4L865.33,45.8L865.78,161.45L866.02,73.34L866.03,87.76L866.84,209.98L866.87,206.09L866.89,200.62L867.37,89.4L867.71,95.38L867.73,94.9L868.51,195.11L868.54,161.97L868.55,141.14L868.64,102.04L869.19,195.61L869.21,209.17L869.76,107.89L870.02,152.1L870.03,166.67L870.11,130.45L870.21,176.74L870.22,197.24L870.79,103.98L870.89,155.86L870.9,177.96L870.92,180.45L871.02,101.4L871.1,112.34L871.12,107.86L871.13,98.96L871.63,218.35L871.79,164.04L871.8,174.92L872.03,255.69L872.48,141.42L872.5,133.11L872.63,196.98L873.18,112.25L873.2,112.87L874.01,210.13L874.02,208.15L874.04,208.95L874.18,134.1L874.31,179.41L874.32,204.95L874.41,219.52L874.89,99.6L875.02,177.36L875.03,151.12L875.23,104.51L875.7,187.04L875.82,108.76L875.83,119.66L875.92,107.04L876.42,223.35L876.6,148.84L876.62,142.94L876.84,107.4L877.41,202.21L877.43,176.05L877.74,199.11L878.21,111.61L878.23,127.17L878.31,121.2L878.82,232.62L878.98,159.74L879,153.11L879.12,201.87L879.57,116.11L879.58,115.34L879.68,100.38L880.15,204.4L880.33,138.14L880.35,133.06L880.49,198.75L881.02,116.61L881.08,136.6L881.09,148.78L881.19,216.09L881.63,85.29L881.72,90.03L881.73,84.71L882.53,186.03L882.54,176.2L882.56,148.6L882.87,177.89L883.1,103.94L883.28,168.77L883.3,172.7L883.63,227.41L884.12,86.96L884.14,92.47L884.59,174.7L884.81,73.01L884.94,156.26L884.95,136.25L885.15,82.93L885.62,184.46L885.66,166.45L885.68,171.17L885.83,123.67L886,213.25L886.37,139.05L886.39,124.47L886.52,98.96L886.65,187.33L887.13,141.81L887.14,152.08L887.33,179.18L887.54,73.51L887.91,113.15L887.93,121.98L888.21,108.62L888.37,201.85L888.74,177.7L888.75,180.57L888.91,131.13L889.02,194.25L889.04,205.14L889.08,209.81L889.25,141.44L889.49,148.82L889.51,149.85L889.71,180.95L890.16,78.76L890.18,73.9L890.51,204.49L890.95,106.03L890.96,113.04L891.29,94.28L891.42,185.82L891.62,95.02L891.63,93.61L891.76,181.78L891.86,85.12L892.27,119.99L892.29,116.66L892.31,99.37L892.78,191.9L893.01,124.69L893.03,135.02L893.17,212.22L893.58,75.21L893.68,77.73L893.7,83.59L894.14,178.08L894.37,76.37L894.49,165.27L894.51,136.12L894.95,72.69L895.18,172.66L895.25,150.08L895.26,141.41L895.59,195.33L896.08,71.29L896.1,89.18L896.12,96.21L896.19,152.15L896.76,38.67L896.89,141.06L896.9,109.42L897,57.72L897.57,167.1L897.61,139.03L897.63,137.43L897.93,195.37L898.14,88.82L898.27,122.78L898.28,104.69L898.37,57.4L898.92,163.16L899.05,74.53L899.07,84.88L899.49,60.38L899.61,190.53L899.81,101.96L899.82,83.15L899.84,77.11L899.96,173.82L900.28,164.02L900.29,187.39L900.32,201.4L900.75,75.66L900.86,82.64L900.88,84.88L901.2,63.97L901.46,529.55L901.69,145.91L901.7,129.1L901.75,132.83L901.76,109.64L901.77,85.74L901.89,77.03L901.99,144.26L902,162.03L902.02,163.86L902.1,106.63L902.12,84.93L902.76,213.64L903.04,207.34L903.06,183.09L903.38,190.78L903.5,82.7L903.84,119.41L903.85,130.4L903.94,101.64L904.42,242.15L904.59,137.56L904.61,133.35L905.14,204.18L905.31,117.75L905.35,135.09L905.36,144.63L905.44,192.95L905.89,95.97L905.96,106.61L905.98,98.1L906.12,181.92L906.33,85.94L906.45,161.52L906.46,166.68L906.9,89.29L907.14,176.13L907.2,149.78L907.22,154.2L907.33,104.19L907.5,221.02L907.77,171.61L907.79,179.8L907.83,210.61L907.94,98.42L908.51,190.98L908.53,168.01L909.18,196.2L909.3,98.59L909.31,102.69L909.32,110.71L909.72,106.01L909.92,251.99L910.08,127.25L910.09,127.98L910.44,105.97L910.55,213.05L910.66,113.92L910.68,113.42L910.91,220.78L911.36,99.78L911.43,128.76L911.45,113.37L911.46,112.67L911.5,152.59L911.52,168.56L911.69,105.68L912.3,234.86L912.33,228.01L912.34,223.78L912.73,95.15L913.18,112.88L913.2,135.23L913.3,200.12L913.74,71.83L913.98,191.36L914,152.14L914.08,73.78L914.71,225.91L914.72,227.53L914.74,228.49L914.81,211.35L914.82,172.86L915.22,131.13L915.38,228.05L915.59,150.87L915.61,171.34L915.68,209.25L915.81,96.2L916.38,202.67L916.39,171.99L916.59,103.99L917.06,230.34L917.1,216.88L917.12,211.85L917.52,107.89L917.73,212.68L917.74,224.13L918.09,224.22L918.53,99.61L918.56,112.94L918.57,130.74L918.77,206.47L918.88,87.56L919.05,161.61L919.07,173.44L919.45,236.37L919.67,126.6L919.81,173.46L919.82,151.43L920.01,111.76L920.14,197.01L920.45,181.3L920.46,200.24L920.48,203.77L920.59,107.68L920.66,109.88L920.68,98.67L920.82,183.52L920.93,83.61L921.13,159.96L921.15,186.48L921.16,187.59L921.22,115.68L921.23,122.82L921.25,104.79L921.26,80.47L921.85,232.2L921.95,220.59L921.96,220.71L921.99,224.05L922.06,141.96L922.22,144.68L922.23,125.99L922.29,101.37L922.53,213.2L922.62,134.09L922.63,106.27L922.86,211.81L922.97,103.88L923.11,147.96L923.13,164.93L923.33,94.89L923.54,234.7L923.91,224.41L923.93,216.29L924.07,150.11L924.25,265.99L924.71,164.44L924.72,173.77L924.92,233.64L925.04,132.12L925.49,149.71L925.51,161.35L925.61,253.05L926.16,116.24L926.29,210.73L926.3,192.06L926.65,218.86L927.09,78.61L927.19,96.9L927.2,112.95L927.32,249.95L927.42,110.18L927.74,117.02L927.76,101.51L927.77,100.51L927.93,152.02L927.94,161L928.11,93.03L928.68,197.83L928.71,181.13L928.73,178.13L928.76,181.61L928.8,160.08L928.83,172.01L928.84,137.65L929.03,231.61L929.48,82.06L929.6,108.48L929.61,117.72L929.71,200.76L929.82,84.78L930.39,190.86L930.41,158.61L930.61,88.44L931.08,196.73L931.13,171.59L931.15,175.22L931.42,226.13L931.87,117.75L931.93,144.27L931.95,139.86L931.97,124.1L932.43,217.72L932.67,147.21L932.69,161.92L932.9,106.92L933.13,226.37L933.48,208.8L933.5,194.33L933.83,229.85L934.25,112.06L934.3,157.73L934.31,162.65L934.5,214.78L934.61,113.85L935.08,141.87L935.09,153.86L935.64,122.56L935.86,215.18L935.89,190.27L935.91,185.95L936.03,136.97L936.22,241.05L936.53,212.86L936.55,217.66L936.76,118.09L937.35,125.42L937.36,132L937.57,216.24L937.69,127.26L938.11,143.83L938.13,136.46L938.61,235.78L938.77,152.71L938.78,149.58L938.94,217.61L939.05,113.81L939.25,206.56L939.27,223.82L939.28,229.03L939.84,138.17L939.97,225.44L939.98,193.48L940.52,124.2L940.65,216.99L940.72,197.44L940.74,191.18L941.03,240.62L941.55,119L941.56,124.53L941.58,137.77L941.68,216.58L942.23,112.28L942.37,185.67L942.39,167.53L942.47,115.82L942.7,209.64L942.97,157.74L942.99,166.26L943.21,126.33L943.43,232.24L943.73,197.7L943.74,171.2L943.94,95.01L944.41,201.24L944.52,119.06L944.54,128.71L944.62,102.75L945.09,203.13L945.29,133.51L945.31,127.38L945.79,229.84L945.94,176.9L945.95,152.88L946.46,206.38L946.68,111.87L946.7,126.54L946.72,138.42L946.8,203.26L947.02,103.08L947.49,191.75L947.5,164.29L947.7,116.1L948.16,214.26L948.17,233.48L948.19,240.09L948.6,128.59L948.61,104.76L948.63,102.25L948.8,170.79L948.81,179.76L948.86,215.99L949.07,109.15L949.3,109.34L949.31,105.87L949.54,208.21L950,102.2L950.05,129.33L950.07,124.79L950.09,108.81L950.61,238.23L950.79,140.87L950.81,149.05L951.25,210.98L951.36,95.8L951.6,187.32L951.62,175.16L951.92,217.78L952.39,90.03L952.4,103.73L952.42,128.49L952.49,105.76L952.97,222.63L953.3,206.44L953.31,173.69L953.64,199.62L954.1,78.02L954.11,96.88L954.13,129.31L954.33,205.96L954.78,88.34L954.85,116.7L954.87,110.96L954.9,105.87L955.01,204.02L955.34,194L955.35,212.07L955.39,214.2L955.51,176.75L955.52,148.72L955.68,202.61L955.79,99.58L956.28,129.85L956.29,142.4L956.38,206.48L956.83,92.09L956.92,102.75L956.93,95.46L957.17,92.06L957.4,194.31L957.56,144.01L957.57,117.77L957.76,216.31L957.96,110.06L958.06,165.45L958.07,191.77L958.13,121.83L958.14,119.35L958.19,80.29L958.43,192.45L958.61,120.23L958.63,100.68L958.64,98.56L958.77,204.39L959.07,166.36L959.08,172.66L959.21,131.98L959.8,229.72L959.85,209.62L959.87,202.74L960.2,236.76L960.69,104.87L960.74,131.37L960.75,144.92L960.81,203.17L960.94,87.07L961.51,193.05L961.52,161.03L961.96,89.31L962.19,198.7L962.27,157.36L962.29,145.23L962.55,218.31L962.74,108.08L962.94,115.79L962.96,92.25L963.22,191.37L963.67,65.22L963.7,106.29L963.71,119.74L964.24,197.01L964.35,74.48L964.48,97.84L964.5,110.02L964.78,93.97L964.98,204.68L965.28,146.4L965.29,120.23L965.37,53.32L965.61,179.08L965.94,179.05L965.95,178.81L966.28,182.35L966.39,55.18L966.73,62.46L966.75,61.1L967.36,207.68L967.52,110.44L967.53,104.22L967.55,103.22L967.59,132.74L967.6,142.79L967.76,71.06L968,192.05L968.1,72.98L968.12,74.49L968.44,71.3L968.67,198.49L968.87,106.96L968.88,95.15L968.9,84.66L969.37,202.12L969.48,158.99L969.5,169.58L969.75,227.85L970.15,92.57L970.17,99.49L970.72,194.08L970.85,77.9L970.92,101.66L970.94,88.72L970.95,78.54L971.46,223.71L971.65,128.74L971.66,133.01L971.98,124.76L972.15,223.95L972.3,127.76L972.32,119.97L972.42,171.36L972.43,200.07L972.66,76.48L972.76,160.69L972.77,193.12L972.89,80.72L973.07,155.82L973.09,168.08L973.59,71.56L973.67,234.24L973.83,154.66L973.84,131.29L973.91,81.25L974.48,213.25L974.5,224.84L974.54,229.5L974.92,101.55L974.94,75.45L975.17,202.8L975.69,111.62L975.71,104.78L975.85,192.13L975.96,68.73L976.46,103.6L976.48,112.96L976.76,102.3L976.93,209.59L977.25,152.58L977.26,134.4L977.45,68.08L977.56,190.59L977.89,167.99L977.9,197.31L978.03,73.99L978.53,134.73L978.54,150.25L978.81,126.94L978.94,218.04L979.14,130.84L979.16,128.49L979.3,221.31L979.67,146.33L979.68,139.18L979.75,98.89L979.94,160.17L979.95,175.48L980.08,84.47L980.67,211.64L980.69,162.83L980.71,156.26L980.99,205.25L981.12,83.45L981.42,155.31L981.44,144.59L982.02,210.5L982.13,74.45L982.2,111.37L982.22,102.39L982.36,198.32L982.48,64.61L982.96,107.19L982.97,118.74L983.06,204.78L983.5,111.48L983.76,189.42L983.77,182.41L984.13,213.49L984.64,77.08L984.67,97.29L984.68,112.07L984.98,92.78L985.1,205.22L985.45,200.75L985.47,166.87L985.68,122.79L986.12,219.67L986.19,184.87L986.21,188.72L986.52,224.95L987.03,117.55L987.05,122.87L987.49,209L987.6,107.99L987.85,200.22L987.86,166.75L988.4,120.91L988.53,208.74L988.6,182.85L988.61,180.58L988.71,128.1L988.93,226.02L989.43,132.79L989.44,138.56L989.77,126.96L989.88,208.68L990.1,135.48L990.11,132.76L990.2,177.31L990.21,186.93L990.81,145.12L990.92,220.39L990.95,199.2L990.97,197.09L991.34,241.97L991.49,149.07L991.61,203.97L991.62,169.75L991.93,209.74L992.4,114.26L992.42,128.1L992.73,107.17L992.96,230.59L993.17,154.72L993.19,146.65L993.67,268.91L993.83,136.34L993.99,229.95L994,214.49L994.21,89.56L994.75,163.45L994.77,163.11L995.01,199.19L995.24,103.47L995.52,147.07L995.54,130.01L995.6,109.89L995.71,198.94L996.04,194.85L996.05,204.56L996.07,208.07L996.26,122.27L996.55,170.75L996.56,150.69L996.79,240.12L996.95,146.02L997.12,156.49L997.13,135.99L997.29,99.75L997.4,187.18L997.6,116.55L997.62,97.82L997.63,94.91L997.75,178.16L998.07,168.74L998.09,188.04L998.32,115.46L998.46,207.91L998.83,185.12L998.84,185.63L998.86,189.84L998.97,145.52L999,160.43" style="vector-effect: non-scaling-stroke; fill: none; stroke: rgb(99, 110, 250); stroke-opacity: 1; stroke-width: 2px; opacity: 1;"/></g><g class="points"/><g class="text"/></g><g class="trace scatter trace87d403" style="stroke-miterlimit: 2; opacity: 1;"><g class="fills"/><g class="errorbars"/><g class="lines"/><g class="points"><path class="point" transform="translate(33.63,330.21)" d="M5,0A5,5 0 1,1 0,-5A5,5 0 0,1 5,0Z" style="opacity: 1; stroke-width: 0px; fill: rgb(239, 85, 59); fill-opacity: 1;"/><path class="point" transform="translate(33.65,330.82)" d="M5,0A5,5 0 1,1 0,-5A5,5 0 0,1 5,0Z" style="opacity: 1; stroke-width: 0px; fill: rgb(239, 85, 59); fill-opacity: 1;"/><path class="point" transform="translate(48.65,352.28)" d="M5,0A5,5 0 1,1 0,-5A5,5 0 0,1 5,0Z" style="opacity: 1; stroke-width: 0px; fill: rgb(239, 85, 59); fill-opacity: 1;"/><path class="point" transform="translate(184.72,322.14)" d="M5,0A5,5 0 1,1 0,-5A5,5 0 0,1 5,0Z" style="opacity: 1; stroke-width: 0px; fill: rgb(239, 85, 59); fill-opacity: 1;"/><path class="point" transform="translate(227.02,435.71)" d="M5,0A5,5 0 1,1 0,-5A5,5 0 0,1 5,0Z" style="opacity: 1; stroke-width: 0px; fill: rgb(239, 85, 59); fill-opacity: 1;"/><path class="point" transform="translate(227.03,467.03)" d="M5,0A5,5 0 1,1 0,-5A5,5 0 0,1 5,0Z" style="opacity: 1; stroke-width: 0px; fill: rgb(239, 85, 59); fill-opacity: 1;"/><path class="point" transform="translate(227.05,428.71)" d="M5,0A5,5 0 1,1 0,-5A5,5 0 0,1 5,0Z" style="opacity: 1; stroke-width: 0px; fill: rgb(239, 85, 59); fill-opacity: 1;"/><path class="point" transform="translate(227.06,339.73)" d="M5,0A5,5 0 1,1 0,-5A5,5 0 0,1 5,0Z" style="opacity: 1; stroke-width: 0px; fill: rgb(239, 85, 59); fill-opacity: 1;"/><path class="point" transform="translate(301.95,343.42)" d="M5,0A5,5 0 1,1 0,-5A5,5 0 0,1 5,0Z" style="opacity: 1; stroke-width: 0px; fill: rgb(239, 85, 59); fill-opacity: 1;"/><path class="point" transform="translate(645.28,335.51)" d="M5,0A5,5 0 1,1 0,-5A5,5 0 0,1 5,0Z" style="opacity: 1; stroke-width: 0px; fill: rgb(239, 85, 59); fill-opacity: 1;"/><path class="point" transform="translate(795.79,34.45)" d="M5,0A5,5 0 1,1 0,-5A5,5 0 0,1 5,0Z" style="opacity: 1; stroke-width: 0px; fill: rgb(239, 85, 59); fill-opacity: 1;"/><path class="point" transform="translate(901.46,529.55)" d="M5,0A5,5 0 1,1 0,-5A5,5 0 0,1 5,0Z" style="opacity: 1; stroke-width: 0px; fill: rgb(239, 85, 59); fill-opacity: 1;"/><path class="point" transform="translate(901.47,362.24)" d="M5,0A5,5 0 1,1 0,-5A5,5 0 0,1 5,0Z" style="opacity: 1; stroke-width: 0px; fill: rgb(239, 85, 59); fill-opacity: 1;"/></g><g class="text"/></g></g></g><g class="overplot"/><path class="xlines-above crisp" d="M120,664.5H1120" style="fill: none; stroke-width: 1px; stroke: rgb(255, 255, 255); stroke-opacity: 1;"/><path class="ylines-above crisp" d="M120.5,100V664" style="fill: none; stroke-width: 1px; stroke: rgb(255, 255, 255); stroke-opacity: 1;"/><g class="overlines-above"/><g class="xaxislayer-above"><g class="xtick"><text text-anchor="middle" x="0" y="696.2" transform="translate(121,0)" style="font-family: 'Open Sans', verdana, arial, sans-serif; font-size: 26px; fill: rgb(42, 63, 95); fill-opacity: 1; white-space: pre;">2011</text></g><g class="xtick"><text text-anchor="middle" x="0" y="696.2" transform="translate(245.79000000000002,0)" style="font-family: 'Open Sans', verdana, arial, sans-serif; font-size: 26px; fill: rgb(42, 63, 95); fill-opacity: 1; white-space: pre;">2012</text></g><g class="xtick"><text text-anchor="middle" x="0" y="696.2" transform="translate(370.91999999999996,0)" style="font-family: 'Open Sans', verdana, arial, sans-serif; font-size: 26px; fill: rgb(42, 63, 95); fill-opacity: 1; white-space: pre;">2013</text></g><g class="xtick"><text text-anchor="middle" x="0" y="696.2" transform="translate(495.72,0)" style="font-family: 'Open Sans', verdana, arial, sans-serif; font-size: 26px; fill: rgb(42, 63, 95); fill-opacity: 1; white-space: pre;">2014</text></g><g class="xtick"><text text-anchor="middle" x="0" y="696.2" transform="translate(620.51,0)" style="font-family: 'Open Sans', verdana, arial, sans-serif; font-size: 26px; fill: rgb(42, 63, 95); fill-opacity: 1; white-space: pre;">2015</text></g><g class="xtick"><text text-anchor="middle" x="0" y="696.2" transform="translate(745.3,0)" style="font-family: 'Open Sans', verdana, arial, sans-serif; font-size: 26px; fill: rgb(42, 63, 95); fill-opacity: 1; white-space: pre;">2016</text></g><g class="xtick"><text text-anchor="middle" x="0" y="696.2" transform="translate(870.43,0)" style="font-family: 'Open Sans', verdana, arial, sans-serif; font-size: 26px; fill: rgb(42, 63, 95); fill-opacity: 1; white-space: pre;">2017</text></g><g class="xtick"><text text-anchor="middle" x="0" y="696.2" transform="translate(995.22,0)" style="font-family: 'Open Sans', verdana, arial, sans-serif; font-size: 26px; fill: rgb(42, 63, 95); fill-opacity: 1; white-space: pre;">2018</text></g><g class="xtick"><text text-anchor="middle" x="0" y="696.2" transform="translate(1120.01,0)" style="font-family: 'Open Sans', verdana, arial, sans-serif; font-size: 26px; fill: rgb(42, 63, 95); fill-opacity: 1; white-space: pre;">2019</text></g></g><g class="yaxislayer-above"><g class="ytick"><text text-anchor="end" x="114.8" y="9.1" transform="translate(0,616.04)" style="font-family: 'Open Sans', verdana, arial, sans-serif; font-size: 26px; fill: rgb(42, 63, 95); fill-opacity: 1; white-space: pre;">1000</text></g><g class="ytick"><text text-anchor="end" x="114.8" y="9.1" transform="translate(0,530.55)" style="font-family: 'Open Sans', verdana, arial, sans-serif; font-size: 26px; fill: rgb(42, 63, 95); fill-opacity: 1; white-space: pre;">2000</text></g><g class="ytick"><text text-anchor="end" x="114.8" y="9.1" transform="translate(0,445.05)" style="font-family: 'Open Sans', verdana, arial, sans-serif; font-size: 26px; fill: rgb(42, 63, 95); fill-opacity: 1; white-space: pre;">3000</text></g><g class="ytick"><text text-anchor="end" x="114.8" y="9.1" transform="translate(0,359.56)" style="font-family: 'Open Sans', verdana, arial, sans-serif; font-size: 26px; fill: rgb(42, 63, 95); fill-opacity: 1; white-space: pre;">4000</text></g><g class="ytick"><text text-anchor="end" x="114.8" y="9.1" transform="translate(0,274.06)" style="font-family: 'Open Sans', verdana, arial, sans-serif; font-size: 26px; fill: rgb(42, 63, 95); fill-opacity: 1; white-space: pre;">5000</text></g><g class="ytick"><text text-anchor="end" x="114.8" y="9.1" transform="translate(0,188.57)" style="font-family: 'Open Sans', verdana, arial, sans-serif; font-size: 26px; fill: rgb(42, 63, 95); fill-opacity: 1; white-space: pre;">6000</text></g><g class="ytick"><text text-anchor="end" x="114.8" y="9.1" transform="translate(0,103.08)" style="font-family: 'Open Sans', verdana, arial, sans-serif; font-size: 26px; fill: rgb(42, 63, 95); fill-opacity: 1; white-space: pre;">7000</text></g></g><g class="overaxes-above"/></g></g><g class="polarlayer"/><g class="ternarylayer"/><g class="geolayer"/><g class="funnelarealayer"/><g class="pielayer"/><g class="treemaplayer"/><g class="sunburstlayer"/><g class="glimages"/><defs id="topdefs-f98638"><g class="clips"/><clipPath id="legendf98638"><rect width="147" height="47" x="0" y="0"/></clipPath></defs><g class="layer-above"><g class="imagelayer"/><g class="shapelayer"/></g><g class="infolayer"><g class="legend" pointer-events="all" transform="translate(130.99, 105.64)"><rect class="bg" shape-rendering="crispEdges" width="147" height="47" x="0" y="0" style="stroke: rgb(68, 68, 68); stroke-opacity: 1; fill: rgb(255, 255, 255); fill-opacity: 1; stroke-width: 0px;"/><g class="scrollbox" transform="translate(0, 0)" clip-path="url('#legendf98638')"><g class="groups"><g class="traces" transform="translate(0, 23.400000000000002)" style="opacity: 1;"><text class="legendtext user-select-none" text-anchor="start" x="40" y="10.14" style="font-family: 'Open Sans', verdana, arial, sans-serif; font-size: 26px; fill: rgb(42, 63, 95); fill-opacity: 1; white-space: pre;">Outliers</text><g class="layers" style="opacity: 1;"><g class="legendfill"/><g class="legendlines"/><g class="legendsymbols"><g class="legendpoints"><path class="scatterpts" transform="translate(20,0)" d="M5,0A5,5 0 1,1 0,-5A5,5 0 0,1 5,0Z" style="opacity: 1; stroke-width: 0px; fill: rgb(239, 85, 59); fill-opacity: 1;"/></g></g></g><rect class="legendtoggle" pointer-events="all" x="0" y="-18.400000000000002" width="141.5625" height="36.800000000000004" style="cursor: pointer; fill: rgb(0, 0, 0); fill-opacity: 0;"/></g></g></g><rect class="scrollbar" rx="20" ry="3" width="0" height="0" x="0" y="0" style="fill: rgb(128, 139, 164); fill-opacity: 1;"/></g><g class="g-xtitle"><text class="xtitle" x="620.5" y="737.903125" text-anchor="middle" style="font-family: 'Open Sans', verdana, arial, sans-serif; font-size: 31px; fill: rgb(42, 63, 95); opacity: 1; font-weight: normal; white-space: pre;">Date</text></g><g class="g-ytitle" transform="translate(19.0283203125,0)"><text class="ytitle" transform="rotate(-90,11.971874999999997,382)" x="11.971874999999997" y="382" text-anchor="middle" style="font-family: 'Open Sans', verdana, arial, sans-serif; font-size: 31px; fill: rgb(42, 63, 95); opacity: 1; font-weight: normal; white-space: pre;">Demand</text></g></g></svg>