<svg class="main-svg" xmlns="http://www.w3.org/2000/svg" xmlns:xlink="http://www.w3.org/1999/xlink" width="1200" height="750" style="" viewBox="0 0 1200 750"><rect x="0" y="0" width="1200" height="750" style="fill: rgb(255, 255, 255); fill-opacity: 1;"/><defs id="defs-ba8521"><g class="clips"><clipPath id="clipba8521xyplot" class="plotclip"><rect width="1000" height="564"/></clipPath><clipPath class="axesclip" id="clipba8521x"><rect x="120" y="0" width="1000" height="750"/></clipPath><clipPath class="axesclip" id="clipba8521y"><rect x="0" y="100" width="1200" height="564"/></clipPath><clipPath class="axesclip" id="clipba8521xy"><rect x="120" y="100" width="1000" height="564"/></clipPath></g><g class="gradients"/></defs><g class="bglayer"><rect class="bg" x="120" y="100" width="1000" height="564" style="fill: rgb(229, 236, 246); fill-opacity: 1; stroke-width: 0;"/></g><g class="layer-below"><g class="imagelayer"/><g class="shapelayer"/></g><g class="cartesianlayer"><g class="subplot xy"><g class="layer-subplot"><g class="shapelayer"/><g class="imagelayer"/></g><g class="gridlayer"><g class="x"><path class="xgrid crisp" transform="translate(286.97,0)" d="M0,100v564" style="stroke: rgb(255, 255, 255); stroke-opacity: 1; stroke-width: 1px;"/><path class="xgrid crisp" transform="translate(453.49,0)" d="M0,100v564" style="stroke: rgb(255, 255, 255); stroke-opacity: 1; stroke-width: 1px;"/><path class="xgrid crisp" transform="translate(620.01,0)" d="M0,100v564" style="stroke: rgb(255, 255, 255); stroke-opacity: 1; stroke-width: 1px;"/><path class="xgrid crisp" transform="translate(786.53,0)" d="M0,100v564" style="stroke: rgb(255, 255, 255); stroke-opacity: 1; stroke-width: 1px;"/><path class="xgrid crisp" transform="translate(953.5,0)" d="M0,100v564" style="stroke: rgb(255, 255, 255); stroke-opacity: 1; stroke-width: 1px;"/></g><g class="y"><path class="ygrid crisp" transform="translate(0,612.96)" d="M120,0h1000" style="stroke: rgb(255, 255, 255); stroke-opacity: 1; stroke-width: 1px;"/><path class="ygrid crisp" transform="translate(0,554.99)" d="M120,0h1000" style="stroke: rgb(255, 255, 255); stroke-opacity: 1; stroke-width: 1px;"/><path class="ygrid crisp" transform="translate(0,497.02)" d="M120,0h1000" style="stroke: rgb(255, 255, 255); stroke-opacity: 1; stroke-width: 1px;"/><path class="ygrid crisp" transform="translate(0,439.05)" d="M120,0h1000" style="stroke: rgb(255, 255, 255); stroke-opacity: 1; stroke-width: 1px;"/><path class="ygrid crisp" transform="translate(0,381.08)" d="M120,0h1000" style="stroke: rgb(255, 255, 255); stroke-opacity: 1; stroke-width: 1px;"/><path class="ygrid crisp" transform="translate(0,323.11)" d="M120,0h1000" style="stroke: rgb(255, 255, 255); stroke-opacity: 1; stroke-width: 1px;"/><path class="ygrid crisp" transform="translate(0,265.14)" d="M120,0h1000" style="stroke: rgb(255, 255, 255); stroke-opacity: 1; stroke-width: 1px;"/><path class="ygrid crisp" transform="translate(0,207.17000000000002)" d="M120,0h1000" style="stroke: rgb(255, 255, 255); stroke-opacity: 1; stroke-width: 1px;"/><path class="ygrid crisp" transform="translate(0,149.2)" d="M120,0h1000" style="stroke: rgb(255, 255, 255); stroke-opacity: 1; stroke-width: 1px;"/></g></g><g class="zerolinelayer"/><path class="xlines-below"/><path class="ylines-below"/><g class="overlines-below"/><g class="xaxislayer-below"/><g class="yaxislayer-below"/><g class="overaxes-below"/><g class="plot" transform="translate(120, 100)" clip-path="url('#clipba8521xyplot')"><g class="scatterlayer mlayer"><g class="trace scatter trace8cbd95" style="stroke-miterlimit: 2; opacity: 1;"><g class="fills"/><g class="errorbars"/><g class="lines"><path class="js-line" d="M0,470.38L0.13,529.55L0.4,425.25L0.63,433.11L0.65,418.78L0.99,480.84L1.2,374.15L1.35,400.94L1.37,428.54L1.44,467.12L1.65,362.06L2.05,377.5L2.07,366.82L2.34,460.08L2.55,354.12L2.72,395.11L2.74,416.29L3.12,375.77L3.33,496.17L3.52,451.49L3.54,444.02L3.71,474.97L3.93,352.67L4.33,372.09L4.35,362.47L4.64,460L4.85,351.6L5,387.11L5.02,418.53L5.09,460.28L5.3,346.5L5.7,363.68L5.72,354.99L5.76,347.35L6.04,457.75L6.35,388.86L6.37,408.05L6.52,493.98L7.05,362.53L7.07,367.81L7.09,357.88L7.38,453.3L7.58,337.78L7.74,382.17L7.76,411.21L7.83,449.5L8.04,338.3L8.46,349.56L8.48,341.2L8.5,338.56L8.67,410.12L8.69,432.19L8.93,345.23L9.24,451.39L9.39,408.73L9.41,412.07L9.47,408.89L9.49,392.64L9.71,492.55L10.25,349.1L10.26,354.8L10.57,440.67L10.76,329.15L10.93,371.33L10.95,397.17L11.03,440.61L11.23,335.35L11.65,347.47L11.67,339.29L11.69,338.39L11.73,356.92L11.75,382.41L12.15,347.32L12.39,462.27L12.55,411.55L12.56,413.74L12.7,371.44L12.79,460.24L12.81,473.45L12.91,498.79L13.17,387.96L13.36,430.44L13.38,397.17L13.76,452.93L13.97,332.01L14.12,378.28L14.14,408.6L14.22,448.37L14.43,327.77L14.83,350.77L14.85,337.78L15.13,434.43L15.32,317.85L15.51,387.88L15.53,408.9L15.89,356.84L16.1,478.89L16.31,430.75L16.33,414.64L16.5,447.16L16.71,311.96L17.13,316.78L17.15,305.5L17.17,304.11L17.2,334.21L17.22,369.73L17.41,421.1L17.62,302.52L17.94,353.45L17.96,331.22L18.06,305.22L18.32,419.42L18.67,348.77L18.69,365.01L19.08,356.55L19.29,480.04L19.47,442.67L19.48,437.4L19.67,459.83L19.9,328.97L20.13,440.19L20.15,441.1L20.81,322.28L20.95,348.9L20.97,372.36L21.06,438.78L21.27,323.4L21.67,347.23L21.69,337.31L21.73,328.32L22.03,445.93L22.32,386.99L22.34,405.8L22.49,483.18L22.73,390.46L23.08,407.8L23.1,407.22L23.21,387.63L23.4,462.34L23.63,406.19L23.65,374.45L23.8,457.47L24.01,346.22L24.1,359.41L24.12,357.85L24.14,356.24L24.18,399.44L24.2,421L24.26,438.14L24.46,323.92L24.81,345.96L24.83,333.46L24.92,321.91L25.09,392.49L25.11,413.37L25.47,351.94L25.66,482.18L25.87,430.08L25.89,399.42L26.06,453.07L26.27,316.59L26.67,323.74L26.69,335.17L26.97,430.22L27.18,305.14L27.35,366.78L27.37,395.75L27.45,429.56L27.64,311.55L28.02,320.51L28.04,321.87L28.1,309.68L28.86,479.75L28.99,443.48L29.01,442.68L29.08,398.97L29.1,367.64L29.25,451.51L29.33,398.86L29.35,359.55L29.73,428.45L29.92,306.72L30.09,364.87L30.11,392.81L30.38,309.57L30.64,429.91L30.79,335.05L30.81,319.53L30.83,309.7L31.08,429.53L31.46,366.93L31.48,393.66L31.84,338.94L32.05,480.23L32.26,429.38L32.28,392.02L32.45,456.22L32.66,312.87L33.06,323.5L33.08,334.44L33.11,310.57L33.36,439.64L33.76,401.85L33.78,420.23L34.03,318.16L34.29,439.37L34.37,365.15L34.39,348.18L34.48,334.23L34.79,454.4L35.07,381.07L35.09,398.91L35.24,492.46L35.77,351.19L35.79,350.16L36.1,451.6L36.33,330.7L36.63,397.01L36.65,363.44L37.01,439.65L37.22,317.41L37.37,358.68L37.39,375.92L37.68,331.96L37.98,451.67L38.15,404.08L38.17,405.97L38.23,341.19L38.4,473.56L38.42,476.79L38.44,488.34L38.93,369.15L38.95,347.04L39.06,321.85L39.29,441.6L39.65,360.62L39.67,386.81L39.96,344.37L40.2,459.52L40.39,352.64L40.41,345.31L40.43,344.4L40.56,369.01L40.58,393.27L40.87,337.7L41.17,456.66L41.34,406.81L41.36,409.96L41.42,345.4L41.63,491.67L41.93,406.91L41.95,428.15L42.03,471.88L42.26,331.5L42.6,351.89L42.62,339.09L42.66,350.59L42.69,327.99L42.73,333.41L42.75,355.61L42.96,446.86L43.15,322.34L43.36,425.84L43.38,436.67L43.61,338.09L43.93,482.97L44.12,441.06L44.14,394.07L44.37,480.43L44.61,359.95L44.73,459.94L44.75,471.33L44.82,493.24L45.07,383.49L45.3,415.58L45.32,380.83L45.68,452.87L45.89,332.91L46.04,363.37L46.06,392.53L46.13,449.97L46.34,327.56L46.76,345.79L46.78,333.25L47.05,444L47.26,321.37L47.43,376.28L47.45,403.35L47.79,340.07L48.02,481.77L48.21,442.88L48.23,423.01L48.42,466.75L48.62,341L48.99,358.62L49,347.17L49.08,339.68L49.23,367.93L49.25,397.56L49.54,334.87L49.78,456.07L49.96,369.79L49.97,345.4L49.99,336.21L50.24,452.32L50.6,367.47L50.62,392.76L50.98,358.33L51.21,495.73L51.4,455.18L51.42,432.4L51.61,482.16L51.89,349.98L52.18,364.49L52.2,352.5L52.52,459.64L52.81,333.65L53.05,402.12L53.07,371.06L53.26,337.38L53.43,456.41L53.8,372.48L53.81,397.57L54.18,344.14L54.4,495.02L54.59,454.39L54.61,429.62L55.09,363.52L55.32,502.71L55.33,502.21L55.35,489.17L55.72,495.8L56,351.01L56.13,465.35L56.15,474.2L56.17,477.06L56.27,393.47L56.29,378.53L56.46,347.28L56.63,473.63L57.01,408.31L57.03,435.9L57.37,346.79L57.6,504.41L57.79,459.65L57.81,431.14L58,492.65L58.28,353.03L58.57,376.52L58.59,365.3L58.62,378.95L58.66,361.68L58.72,366.09L58.74,348.29L58.91,474.08L59.19,345.96L59.46,388.63L59.48,372.26L59.65,342.05L59.82,468.08L60.18,375.68L60.2,401.09L60.56,341.99L60.79,499L60.98,466.38L61,430.69L61.19,487.76L61.47,345.62L61.76,373.26L61.78,362.46L61.93,346.05L62.03,419.43L62.04,448.93L62.39,346.37L62.56,480.44L62.69,374.65L62.71,376.08L62.84,350.26L63.01,481.9L63.55,466.12L63.57,444.96L63.76,357.89L64,515.74L64.29,439.67L64.31,458.81L64.38,501.83L64.67,353.72L64.97,376.67L64.99,375.27L65.3,482.4L65.58,345.53L65.81,446.29L65.83,423.59L66.21,475.21L66.49,345.11L66.57,385.39L66.59,411.34L66.95,346.56L67.18,511.27L67.37,467.42L67.39,430.35L67.58,497.33L67.86,342.63L68.15,375.16L68.17,362.41L68.32,339.32L68.41,411.72L68.43,442.64L68.49,473.62L68.77,340.43L69.08,361.43L69.1,362.29L69.23,344.72L69.4,475.99L69.95,438.33L69.97,424.09L70.14,351.32L70.39,509.71L70.68,427.19L70.69,448.97L70.77,493.22L71.06,346.1L71.34,366.27L71.36,352.67L71.51,341.25L71.59,378.79L71.61,407.52L71.97,349.29L72.2,483.33L72.37,438.59L72.39,434.67L72.59,489.7L72.88,360.87L73.11,484.21L73.13,474.6L73.34,353.9L73.58,513.6L73.89,453.85L73.91,475.79L73.96,499.66L74.25,355.85L74.53,384.81L74.55,373.87L74.7,347.16L74.88,480.1L75.41,423.3L75.43,398.36L75.62,349.6L75.79,479.96L76.15,391.53L76.17,416.43L76.53,353.46L76.78,514.95L76.95,468.99L76.97,433.84L77.16,500.23L77.44,353.68L77.73,376.87L77.75,364.46L77.78,377.93L77.84,361.66L77.86,358.93L78.07,471.43L78.35,341.64L78.43,376.43L78.45,404.4L78.53,466.88L78.81,339.52L79.17,367.95L79.19,363.03L79.27,346.49L79.34,385.68L79.36,409.44L79.72,347.26L79.97,513.84L80.14,468.2L80.16,436.51L80.35,497.6L80.64,354.24L80.92,389.59L80.94,379.8L80.98,393L81.07,377.53L81.09,353.38L81.26,482.24L81.55,347.81L81.83,388.31L81.85,378.46L82,347.9L82.65,482.18L82.75,430.24L82.76,422.33L82.84,432.91L82.9,407.92L82.92,353.09L83.16,514.65L83.64,412.95L83.66,396.12L84,479.19L84.29,349.52L84.36,389.58L84.38,421.08L84.46,477.19L84.74,348.8L85.08,386.99L85.1,375.59L85.2,349.19L85.37,473.61L85.73,389.5L85.75,414.05L86.11,356.38L86.36,513.24L86.53,472.75L86.55,444.09L86.74,506.7L87.02,377.93L87.31,393.38L87.33,384.15L87.48,354.57L87.65,480.51L87.74,402.57L87.76,389.06L87.94,348.34L88.11,477.8L88.47,385.44L88.49,414.9L88.85,353.76L89.04,478.15L89.25,434.36L89.27,432.66L89.3,354.62L89.55,516.84L90.01,439.64L90.03,410.17L90.39,481.64L90.67,352.64L90.75,391.05L90.77,422.4L91.13,352.11L91.3,481.78L91.49,383.73L91.51,379.58L91.57,382.58L91.58,352.57L91.64,376.11L91.66,390.76L92.04,356.42L92.23,484.05L92.44,438L92.46,436.57L92.5,356.73L92.74,518.85L93.11,497.43L93.12,500.47L93.41,353.02L93.52,444.87L93.54,463.77L93.58,475.21L93.87,348.73L94.13,396.41L94.15,380.03L94.49,475.63L94.78,349.14L94.85,379.53L94.87,409.34L95.23,355.39L95.42,475.72L95.63,426.72L95.65,426.26L95.69,353.07L95.92,514.65L96.28,487.56L96.3,494.82L96.32,496.66L96.39,435.37L96.41,405.98L96.77,480.36L97.06,353.7L97.14,385.15L97.15,418.85L97.23,479.68L97.52,353.1L97.86,382.12L97.88,373.54L97.97,352L98.14,474.37L98.52,408.31L98.54,439.17L98.88,356.38L99.11,511.13L99.3,464.99L99.32,439.68L99.51,495.16L99.8,360.94L100.08,380.99L100.1,370.55L100.42,474.59L100.71,350.36L100.96,417.96L100.98,391.12L101.17,351.06L101.34,472.71L101.7,382L101.72,409.5L102.08,353.9L102.31,511.3L102.5,473.83L102.51,451.24L102.7,495.58L102.99,355.63L103.28,377.3L103.29,366.95L103.33,378.43L103.45,349.32L103.5,365.3L103.52,380.26L103.9,353.69L104.07,473.22L104.26,371.43L104.28,361.12L104.34,375.77L104.36,351.39L104.42,365.88L104.43,381.52L104.81,356.08L105.01,475.19L105.2,424.48L105.21,425.69L105.23,425.86L105.25,413.41L105.27,355.86L105.5,507.7L105.99,405.68L106.01,387.66L106.35,471.73L106.64,352.6L106.72,378.16L106.73,411.99L107.1,350.26L107.27,472.96L107.44,378.75L107.46,369.81L107.55,354.62L107.72,472.29L108.1,408.18L108.12,433.36L108.46,358.33L108.69,508.37L108.88,465.15L108.9,444.79L109.09,493.55L109.38,359.04L109.66,375.31L109.68,365.76L109.83,355.59L109.91,384.48L109.93,416.53L110.29,354.25L110.46,475.49L110.63,381.41L110.65,372.41L110.75,357.72L110.92,474.46L111.3,410.94L111.32,438.28L111.68,355.62L111.89,512.02L112.08,460.11L112.1,442.04L112.29,488.97L112.51,355.07L112.86,375.16L112.87,363.96L112.91,378.98L113.03,357.6L113.1,377.4L113.12,411.48L113.2,471.71L113.48,350.03L113.83,369.14L113.84,358.32L113.86,349.5L114.17,484.7L114.47,410.63L114.49,432.3L114.87,361.93L115.08,504.61L115.25,458.92L115.27,451.93L115.48,479.65L115.71,338.8L116.09,348.48L116.11,360.99L116.39,456.9L116.6,335.65L116.77,388.98L116.79,419.92L117.06,337.59L117.3,457.06L117.47,358.5L117.49,348.31L117.51,338.03L117.82,461.43L118.12,399.05L118.14,422.58L118.27,499.76L118.81,342.36L118.82,339.96L119.13,451.17L119.36,323.75L119.66,400.35L119.68,366.54L119.79,329.93L120.04,450.27L120.4,366.99L120.42,396.26L120.63,346.07L121.01,465.68L121.18,422.99L121.2,431.08L121.26,356.68L121.47,509.76L121.85,488.3L121.87,489.92L122.61,349.61L122.68,377.85L122.7,408.49L123.06,357.74L123.23,481.08L123.42,383.49L123.44,377.39L123.52,368.84L123.6,396.05L123.61,425.42L123.98,364.72L124.2,480.23L124.34,423.16L124.36,423.88L124.39,425.55L124.41,412.7L124.43,364.46L124.66,516.84L125.14,428.35L125.15,395.59L125.52,466.64L125.74,343.49L125.88,365.2L125.9,395.85L125.97,456.8L126.2,335.57L126.62,349.52L126.64,344.96L126.88,454.86L127.09,337.24L127.25,369.61L127.26,389.63L127.64,350.69L127.85,498.9L128.04,462.48L128.06,449.44L128.25,472.19L128.48,337.62L128.86,339.7L128.88,352.35L128.92,332.68L129.18,447.12L129.55,387.14L129.56,413.71L129.83,343.79L130.13,486.3L130.32,443.34L130.34,432.25L130.84,370.21L131.03,506.54L131.05,514.9L131.75,356.87L131.86,454.19L131.88,463.53L131.9,467.55L132.05,354.74L132.09,357.14L132.11,348.02L132.28,397.62L132.3,429.05L132.36,462.48L132.57,346.05L132.95,347.01L132.97,346.56L133.02,338.08L133.77,468.8L133.82,423.14L133.84,406.78L134.03,352.67L134.26,497.88L134.56,415.15L134.58,440.13L134.64,472.15L134.87,333.65L135.21,356.52L135.23,342.14L135.27,353.61L135.29,345.84L135.31,336.91L135.32,336.06L135.38,371.46L135.46,365.69L135.48,388.2L135.57,453.52L135.78,333.92L136.18,348.4L136.2,342.35L136.24,327.76L136.45,502.76L136.84,382.2L136.86,408.7L137.24,354.91L137.45,485.33L137.64,441.46L137.66,430.86L137.83,464.86L138.06,317.37L138.46,329.48L138.48,320.01L138.52,308.76L138.76,430.86L139.11,349.1L139.13,366.47L139.43,332.87L139.73,473.58L139.89,440.36L139.91,440.85L140.13,483.97L140.44,376.11L140.51,451.71L140.53,467.83L140.65,503.95L140.89,390.12L141.12,399.09L141.14,373.69L141.48,460.59L141.71,339.38L141.86,391.19L141.88,421.81L141.94,457.92L142.15,336.24L142.55,348.07L142.57,359.08L142.85,451.51L143.08,338.47L143.21,365.39L143.23,385.08L143.63,358.94L143.84,494.04L144.01,450.52L144.03,444.48L144.22,468.31L144.45,340.01L144.68,457.41L144.7,458.09L144.83,351.2L145.13,469.59L145.49,386.32L145.51,406.05L145.65,487.65L145.91,382L146.24,389.4L146.25,382.15L146.27,380.73L146.43,413.83L146.44,440.14L146.82,378.78L147.01,512.33L147.2,467.46L147.22,459.9L147.41,486.8L147.64,349.33L147.91,455.39L147.93,450.31L148.35,459.49L148.55,335.46L148.71,383.38L148.73,412.29L148.8,455.55L149.01,327.64L149.45,341.13L149.47,339.91L149.49,335.5L149.71,446.12L149.73,445.4L149.75,450.41L150.02,364.68L150.23,489.44L150.51,403.02L150.53,423.69L150.61,480.37L150.84,347.99L151.22,352.79L151.23,363L151.52,458.58L151.75,335.73L151.9,381.61L151.92,411.81L152.2,325.93L152.45,451.98L152.6,353.9L152.62,346.91L152.64,337.65L152.95,456.52L153.25,388.28L153.27,408.32L153.4,489.96L153.95,340.55L153.97,348.1L154.28,446.45L154.49,321.07L154.64,366.63L154.66,395.63L154.73,436.82L154.94,310L155.34,329.72L155.36,310.51L155.64,424.95L155.83,303.67L155.99,334.35L156.01,348.6L156.41,345.57L156.61,466.56L156.79,436.91L156.8,434.22L157.01,449.99L157.22,305.45L157.7,315.47L157.72,336.87L158.13,310.53L158.38,430.19L158.46,362.15L158.48,338.3L158.59,314.98L158.84,433.71L159.18,357.56L159.2,372.91L159.6,361.12L159.79,478.05L160,437.96L160.02,431.15L160.19,459.26L160.85,318.21L160.87,314.61L161.58,433.76L161.63,406.41L161.65,371.84L161.78,317.06L162.03,426.66L162.39,366.33L162.41,389.52L162.79,360.94L163,476.08L163.19,435.15L163.21,431.1L163.27,377.79L163.44,473.73L163.88,464.92L163.89,483.07L163.91,490.62L164.2,381.52L164.39,396.59L164.41,370.82L164.52,343.69L164.77,432.03L165.13,374.95L165.15,401.48L165.57,365.11L165.72,457.13L165.91,422.49L165.93,422.11L165.99,372.07L166.12,463.45L166.14,468.75L166.19,487.76L166.42,422.31L166.44,392.7L166.63,485.32L166.9,386.68L166.95,434.96L166.97,450.86L167.11,506.81L167.37,403.94L167.56,450.61L167.58,420.84L167.96,450.65L168.17,357.39L168.32,387.69L168.34,412.66L168.63,350.94L168.91,455.51L169.08,405.24L169.1,405.92L169.18,361.1L169.39,479.2L169.62,412.09L169.64,384.04L169.79,454.57L170.45,313.6L170.47,317.56L170.49,337.95L170.91,317.51L171.16,432.58L171.23,371.6L171.25,349.91L171.37,329.89L171.61,447.26L171.95,370.93L171.97,388.58L172.37,372.25L172.58,494.07L172.75,454.07L172.77,447.5L172.96,469.57L173.19,341.53L173.44,450.54L173.46,444.41L173.89,450.94L174.1,336.11L174.25,380.16L174.27,409.25L174.35,446.53L174.56,330.18L174.96,349.95L174.98,339.83L175.01,331.32L175.3,443.16L175.6,385.17L175.62,405.25L175.78,488.38L176.29,356.96L176.31,357.02L176.33,365.57L176.63,451.78L176.84,338.22L176.99,380.06L177.01,409.04L177.09,448.79L177.3,326.47L177.69,345.06L177.71,330.31L177.75,315.82L178,431.11L178.36,362.14L178.38,387.71L178.76,361.28L178.97,484.5L179.16,440.88L179.18,434L179.35,463.5L180.03,327.11L180.05,330.53L180.28,442.99L180.49,322.21L180.81,370.19L180.83,347.93L181.19,428.88L181.4,312.26L181.55,356.23L181.57,381.78L181.95,352.83L182.16,471.28L182.35,434.45L182.37,427.65L182.56,455.14L182.77,330.75L183.19,340.34L183.21,329.68L183.23,327.6L183.3,380.54L183.38,374.22L183.4,404.7L183.68,327.18L183.91,442.82L184.08,353.09L184.1,347.53L184.14,334.1L184.39,442.15L184.75,373.59L184.77,398.43L185.15,362.93L185.36,480.55L185.55,442.32L185.56,437.93L185.75,464.08L186.06,374.04L186.29,439.85L186.31,427.27L186.67,439.58L186.88,324.04L187.07,405.38L187.09,417.88L187.12,424.64L187.33,301.17L187.67,329.34L187.69,315.83L187.79,301.75L187.83,330.19L187.85,360.17L187.92,334.79L188.53,465.28L188.7,426.77L188.72,422.85L188.93,439.34L189.14,296.18L189.35,407.45L189.37,416.76L189.4,422.17L189.59,299.77L189.71,331.24L189.73,324.78L190.05,297.7L190.32,422.39L190.39,344.37L190.41,331.08L190.51,297.37L190.77,421.44L191.12,341.9L191.13,363.29L191.51,337.11L191.72,475.09L191.91,427.15L191.93,420.51L192.12,443.96L192.33,301.81L192.73,309.73L192.75,321.82L192.79,298.48L193.04,428.99L193.42,369.5L193.43,397.5L193.7,313.11L193.95,436.68L194.1,326.79L194.12,338.77L194.16,318.53L194.46,450.42L194.76,380.98L194.78,401.89L194.92,481.52L195.45,316.7L195.47,314.26L195.98,300.43L196.23,428.84L196.3,383.27L196.32,346.8L196.44,300.43L196.7,423.75L197.05,334.23L197.07,357.93L197.35,293.66L197.65,431.27L197.81,376.31L197.83,378.5L197.9,332.7L198.11,470.43L198.59,392.49L198.6,351.98L198.98,424.79L199.18,295.59L199.33,332.77L199.35,358.48L199.63,304.15L199.9,425.89L200.07,327.47L200.09,321L200.13,326.61L200.14,349.76L200.18,336.25L200.3,424.25L200.32,434.41L200.54,318.23L200.85,442.68L200.96,387.14L200.98,389.65L201.09,336.88L201.29,466.02L201.3,478.15L201.55,366.82L201.65,438.03L201.67,452.63L201.7,462.81L201.84,340.91L202.27,358.21L202.29,348.88L202.43,366.78L202.44,357.25L202.46,348.39L202.62,457.94L202.92,342.49L203.15,401.36L203.17,370.95L203.53,446.96L203.76,324.53L203.91,375.59L203.93,403.42L204.29,339.58L204.5,485.09L204.69,438.75L204.71,424.3L204.9,466.26L205.11,330.22L205.5,331.81L205.52,345.96L205.56,328.49L205.81,446.35L206.17,357.04L206.19,388.43L206.47,343.77L206.8,490.28L206.97,459.33L206.99,448.43L207.48,360.44L207.69,501.69L207.71,498.78L207.73,483.97L208.3,321.95L208.53,436.74L208.55,440.88L208.6,415.65L208.62,391.89L208.77,322.89L209,443.36L209.36,351.36L209.38,381.65L209.69,322.35L209.92,444.41L210.09,347.67L210.11,339.29L210.12,331.7L210.43,450.47L210.75,407.43L210.77,429.58L210.88,482.5L211.4,353.28L211.42,339.95L211.49,334.21L211.66,392.88L211.68,418.73L211.95,333.77L212.2,452.45L212.33,342.21L212.35,342.56L212.65,452.7L212.88,329.39L213.17,419.05L213.18,392.96L213.32,326.53L213.6,443.83L213.91,375.91L213.93,394.03L214.08,490.9L214.63,351.11L214.65,363.65L214.67,355.53L214.93,459.93L215.22,344.05L215.29,370.74L215.31,402.69L215.67,341.88L215.85,462.71L216.02,369.32L216.04,361.35L216.13,340.51L216.3,459.8L216.7,427.68L216.72,446.36L217.04,347.1L217.27,505.77L217.46,459.45L217.48,434.68L217.67,490.03L217.96,348.36L218.24,377.01L218.26,366.35L218.41,344.32L218.49,380.6L218.51,412.35L218.58,468.67L218.87,341.03L219.21,370.26L219.23,361.31L219.32,339.67L219.5,464.75L219.88,400.82L219.89,429.2L220.24,343.45L220.46,501.13L220.66,453.25L220.67,427.1L220.86,483.1L221.15,343.42L221.43,363.68L221.45,351.17L221.61,335.91L221.7,402.9L221.72,430.23L221.83,487.57L222.38,347.05L222.4,359.56L222.52,331.97L222.69,458.15L223.07,392.46L223.09,421.13L223.43,339.51L223.66,498.22L223.85,450.24L223.87,422.02L224.06,482.06L224.34,344.69L224.63,374.61L224.65,364.34L224.68,376.39L224.72,361.74L224.78,362.17L224.8,343.25L225.26,342.4L225.43,469.6L225.52,390.85L225.54,377.01L225.71,340.15L225.88,468.68L226.24,381.24L226.26,402.42L226.62,344.83L226.85,507.93L227.04,469.9L227.06,438.59L227.25,487.77L227.54,335.51L227.82,368.32L227.84,354.21L227.99,331.2L228.09,395.91L228.11,428.23L228.16,460.81L228.45,330.97L228.79,362.14L228.81,353.42L228.9,331.25L229.08,459.96L229.46,396.2L229.48,431.48L229.82,349.84L230.05,509.42L230.24,459.48L230.25,426.59L230.44,491.8L230.73,341.7L231.01,369.78L231.03,357.47L231.19,338.14L231.26,374.89L231.28,407.62L231.64,337.42L231.81,464.96L231.98,372.75L232,364.84L232.1,338.76L232.27,467.48L232.63,382.6L232.65,407.23L233.01,343.47L233.26,510.04L233.43,465.56L233.45,431.07L233.64,495.01L233.92,344.8L234.21,367.55L234.23,355.25L234.38,335.76L234.49,435.29L234.51,452.79L234.84,336.79L235.06,474.63L235.18,427.17L235.2,425.62L235.23,428.33L235.27,396.96L235.29,356.14L235.46,480.99L235.75,350.26L236.05,423.18L236.07,421.38L236.2,350.31L236.43,508.07L236.64,423.26L236.66,373.81L236.83,490.86L237.12,342.55L237.38,389.41L237.4,375.74L237.57,342.93L237.74,474.45L238.11,385.24L238.12,415.09L238.2,477.07L238.49,340.52L238.83,376.27L238.85,370.35L238.94,343.47L239.13,472.76L239.47,417.92L239.49,440.8L239.64,507.86L240.16,370.65L240.18,366.52L240.48,472.01L240.77,340.36L240.99,431.69L241.01,409.98L241.22,338L241.39,467.8L241.75,377.71L241.77,405.32L242.14,341.52L242.33,466.51L242.52,419.92L242.53,419.75L242.59,345.41L242.65,396.96L242.67,417.91L242.84,506.33L243.35,359.19L243.37,356.78L243.96,331.92L244.13,466.32L244.19,430.89L244.21,410.01L244.42,332.86L244.59,465.36L244.95,376.44L244.97,403.62L245.33,349.28L245.52,468.25L245.73,421.84L245.75,420.4L245.78,343.19L246.03,506.46L246.41,493.46L246.43,491.24L247.15,341.21L247.23,378.53L247.25,409.59L247.32,468.79L247.61,333.09L247.95,366.52L247.97,358.29L248.24,462.33L248.52,335.91L248.6,376.82L248.62,400.5L248.98,344.11L249.23,504.9L249.4,453.91L249.42,424.56L249.61,492.64L249.89,345L250.18,377.06L250.19,367.85L250.23,380.33L250.33,365.09L250.35,346.06L250.8,344.29L250.97,475.78L251.07,393.8L251.09,380.43L251.26,344.94L251.43,473.85L251.79,383.71L251.81,408.97L252.17,348.6L252.42,513.21L252.59,464.41L252.61,434.65L252.8,497.02L253.08,351.25L253.37,395.8L253.39,383.98L253.54,351.64L253.64,416.79L253.65,442.13L253.71,472.57L254,339.7L254.3,371.41L254.32,372.8L254.62,468.31L254.91,339.24L255.18,434.11L255.19,418.06L255.37,342.45L255.61,505.11L255.9,419.51L255.92,440.55L255.99,488.68L256.28,340.87L256.58,357.94L256.6,362.5L256.9,459.69L257.19,339.31L257.44,410.87L257.46,383.3L257.65,335.31L257.82,459.74L258.18,373.47L258.2,396.94L258.56,338.71L258.81,496.22L258.98,447.8L259,422.02L259.19,477.32L259.47,331.83L259.76,364.67L259.78,354.63L260.1,471.22L260.38,337.42L260.63,419.57L260.65,388.66L260.84,337.12L261.01,466.14L261.37,379.99L261.39,404.68L261.75,347.33L262,510.26L262.17,462.12L262.19,436.99L262.38,491.27L262.66,339.7L262.95,373.77L262.97,362.2L263.12,331L263.22,397.78L263.23,436.17L263.29,468.3L263.58,332.91L263.88,359.39L263.9,358.94L264.03,331.84L264.68,463.54L264.76,429.89L264.77,414.44L264.95,345.45L265.19,502.32L265.48,410.79L265.5,435.21L265.57,483.44L265.86,338.69L266.16,352.15L266.18,350.54L266.49,461.35L266.77,334.21L267.02,403.31L267.04,375.11L267.23,328.8L267.4,453.85L267.76,362.76L267.78,385.76L268.14,342.2L268.39,501.69L268.56,464.71L268.58,439.14L268.77,488.55L269.05,334.59L269.36,345.09L269.37,343.97L269.51,324.82L270.14,459.4L270.21,405.94L270.23,376.18L270.42,332.48L270.59,463.92L270.95,369.06L270.97,396.71L271.33,340.59L271.58,504.13L271.75,452.33L271.77,429.32L271.96,489.61L272.25,337.97L272.53,369.94L272.55,353.83L272.59,365.94L272.7,336.4L272.78,365.62L272.8,397.63L272.87,463.22L273.16,333.74L273.5,359.3L273.52,349.52L273.61,329.69L273.78,457.24L274.17,385.3L274.18,413.18L274.53,334.86L274.75,495.03L274.94,443.29L274.96,422.15L275.15,476.35L275.44,333.2L275.72,356.16L275.74,343.9L275.89,334.09L275.97,364.53L275.99,399.55L276.37,342.24L276.52,462.87L276.71,364.6L276.73,358.13L276.81,340.94L276.98,464.26L277.07,382.61L277.09,366.66L277.28,339.76L277.49,467.15L277.78,385.42L277.8,405.11L277.95,506.42L278.5,348.14L278.52,360.9L278.54,350.54L278.8,455.64L279.09,333.49L279.18,394.28L279.2,424.68L279.54,336.81L279.72,460.72L279.85,352.7L279.87,351.76L280.02,339.37L280.69,490.23L280.74,451.77L280.76,442.71L280.93,362.17L281.03,458.18L281.05,474.28L281.16,499.67L281.39,375.01L281.62,418.83L281.64,385.19L282,456.27L282.22,333.06L282.38,386.47L282.4,415.86L282.68,326.89L282.91,453.16L283.1,337.09L283.12,326.8L283.14,325.98L283.18,351.08L283.25,340.02L283.27,356.95L283.57,320.47L283.88,456.84L284.03,395.79L284.05,398L284.07,399.75L284.11,340.15L284.13,333.98L284.33,491.67L284.87,330.81L284.89,328.15L284.96,321.93L285.65,443.52L285.72,392.72L285.74,363.24L285.93,324.58L286.1,449.76L286.46,356.02L286.48,384.09L286.77,328.08L287.07,455.72L287.22,392.87L287.24,393.77L287.26,394.47L287.28,386.01L287.3,337.04L287.32,333.39L287.43,439.14L287.45,451.18L287.53,482.9L287.78,362.88L288,404.47L288.02,368.32L288.16,324.01L288.38,444.17L288.74,359.78L288.76,389.44L289.14,337.32L289.3,458.98L289.47,362.74L289.49,352.54L289.6,333.63L289.75,455.79L290.13,387.97L290.15,416.57L290.51,344.18L290.72,497.33L290.91,439.71L290.93,418.87L291.12,472.59L291.41,329.92L291.71,340.61L291.73,339.33L291.88,325.85L292.49,448.32L292.55,425.64L292.57,395.59L292.77,326.16L292.96,442.52L293.31,354.27L293.33,380.14L293.71,336.41L293.92,499.63L294.09,455.53L294.11,450.99L294.31,482.04L294.62,345.1L294.9,355.76L294.92,355.57L295.23,464.55L295.53,336.74L295.74,439.79L295.76,407.21L295.99,335.36L296.14,458.7L296.5,369.26L296.52,395.41L296.9,368.71L297.11,507.57L297.3,448.86L297.32,433.76L297.51,471.7L297.74,321.66L298.1,328.07L298.12,331.43L298.17,322.44L298.88,449.33L298.95,394.75L298.97,363.82L299.18,330.53L299.33,450.74L299.69,359.08L299.71,385.06L300.09,340.49L300.32,498.01L300.49,444.85L300.51,440.31L300.7,466.21L300.93,317.2L301.39,318.02L301.4,320.61L301.63,435.81L301.84,307.95L302.17,364.68L302.18,340.6L302.3,307.5L302.55,430.7L302.89,346.17L302.91,362.42L303.31,340.85L303.51,476.77L303.7,429.31L303.72,417.53L303.91,458.53L304.12,333.41L304.5,337.24L304.52,350.76L304.81,447.27L305.04,328.29L305.17,348.95L305.19,375.84L305.49,328.17L305.74,448.25L305.91,346.22L305.93,337.68L305.95,337.39L305.97,342.54L305.99,357.89L306.04,346.52L306.69,492.5L306.78,450.2L306.8,451.72L306.82,453.86L306.94,389.92L306.96,371.01L307.09,465.15L307.32,331.28L307.64,373.03L307.66,353.5L307.77,333.87L308.02,451.58L308.36,358.11L308.38,385.97L308.46,455.06L309.07,335.72L309.1,342.41L309.12,332.49L309.14,328.46L309.33,427.37L309.35,441.25L309.69,343.71L309.9,484.33L310.07,435.98L310.09,430.26L310.28,452.56L310.97,298.5L310.99,302.18L311,324.39L311.42,310.61L311.67,437.4L311.76,346.47L311.78,336.11L311.88,315.91L312.16,461.01L312.3,412.82L312.32,411.08L312.37,416.57L312.39,410.14L312.41,378.04L312.43,353.45L313.06,471L313.08,481.95L313.1,483.49L313.17,447.24L313.27,447.62L313.29,439.7L313.48,469.49L314.08,318.43L314.12,319.78L314.14,308.27L314.16,304.78L314.33,385.25L314.35,408.97L314.41,433.05L314.96,326.08L314.98,310.67L315.07,298.34L315.24,379.33L315.26,402.43L315.53,318.4L315.81,443.76L316,396.65L316.02,396.26L316.08,349.39L316.29,482.92L316.59,409.41L316.61,432.7L316.67,465.13L316.9,326.23L317.24,347.66L317.26,331.53L317.35,319.21L317.54,426.07L317.56,438.57L317.6,444.47L317.81,314.21L318.11,397.39L318.13,363.23L318.51,431.65L318.72,304.91L318.87,360.9L318.89,392.55L319.27,345.2L319.48,480.67L319.67,433.5L319.69,425.14L319.86,459.1L320.53,295.99L320.55,293.39L320.79,422.17L320.87,350.86L320.89,326.48L321,285.61L321.25,409.56L321.59,345.38L321.61,363.77L321.92,311.19L322.2,442.01L322.37,389.15L322.39,390.75L322.41,391.38L322.43,388.14L322.45,365.97L322.68,474.37L323.21,309.59L323.23,318.29L323.25,308.79L323.28,294.5L323.53,417.23L323.91,384.16L323.93,405.6L324.2,310.38L324.44,433.99L324.54,340.77L324.56,327.08L324.65,315.26L324.73,357.07L324.79,339.09L324.8,361.58L325.11,322.28L325.39,444.56L325.57,391.1L325.58,393.12L325.6,394.6L325.66,345.66L325.72,387.64L325.74,410.64L325.87,474.55L326.4,327.17L326.42,336.05L326.48,312.93L326.72,436.96L327.09,362.23L327.1,395.3L327.18,439.08L327.39,316.78L327.79,345.23L327.81,336.61L327.85,323.87L328.09,434.72L328.45,364.52L328.47,391.84L328.85,352.35L329.06,474.83L329.25,431.48L329.27,423.26L329.46,464.94L329.79,361.06L329.96,464.39L329.98,456.83L330.22,373.01L330.43,496.87L330.74,400.16L330.75,422.78L330.83,462.83L331.15,339.29L331.42,348.87L331.44,351.01L331.5,337.63L331.78,437.87L332.09,359.71L332.1,377.18L332.26,464.3L332.52,360.9L332.83,365.53L332.85,358.16L332.98,352L333.15,451.7L333.34,413.2L333.36,417.5L333.42,366.59L333.62,485.44L333.85,423.59L333.87,387.15L334.02,453.61L334.69,327.86L334.73,349.05L334.75,372.55L334.82,337.8L334.97,430.61L335.22,378.74L335.24,347.19L335.45,464.4L335.91,405.85L335.92,370.56L336.31,414.87L336.51,296.59L336.67,333.55L336.69,364.57L336.76,410.33L336.97,288.24L337.39,300.26L337.41,289.94L337.43,286.25L337.62,376.08L337.64,389.47L337.86,285.42L338.17,414.96L338.36,375.28L338.38,378.86L338.4,379.52L338.42,364.79L338.43,333.86L338.64,453.57L338.87,397.42L338.89,365.73L339.04,430.68L339.71,286.38L339.75,311.76L339.76,347.16L339.95,409.14L340.16,285.92L340.49,345.41L340.51,320.51L340.87,410.02L341.08,288.1L341.23,340.02L341.25,363.56L341.65,339.47L341.84,461.52L342.03,416.05L342.05,410.75L342.24,427.54L342.88,278.74L342.9,274.55L343.15,395L343.36,268.65L343.66,363.31L343.68,326.18L343.81,263.88L344.06,387.84L344.42,325.58L344.44,351.89L344.82,329.78L345.03,452.25L345.22,409.04L345.24,403.73L345.43,419.82L346.09,265.12L346.11,268.23L346.13,292.61L346.34,387.31L346.55,260.47L346.87,323.72L346.89,297.52L347.01,262.13L347.25,385.4L347.62,307.5L347.63,332.95L348.03,319.8L348.22,440.05L348.41,394.25L348.43,392.7L348.62,399.97L348.83,258.47L349.31,265.47L349.33,288.56L349.54,376.82L349.74,251.42L350.07,310.88L350.09,284.9L350.2,251.09L350.45,371.26L350.81,299.01L350.83,321.03L351.21,317.62L351.42,432.87L351.63,390.04L351.65,374.41L351.82,398.5L352.03,254.54L352.42,280.6L352.44,268.93L352.48,253.63L352.73,380.66L353.09,310.27L353.11,337.47L353.39,267.31L353.64,394.77L353.81,293.1L353.83,283.45L353.85,282.69L353.87,292.18L353.89,313.18L354.59,463.78L354.72,432.02L354.74,432.03L354.84,359.58L354.95,433.52L354.97,441.21L354.99,443.44L355.07,384.12L355.09,346.81L355.45,423.32L355.66,298.77L355.83,364.22L355.85,390.93L355.92,422.09L356.13,299.14L356.49,306.18L356.51,305.09L357.02,285.19L357.33,418.26L357.35,402.29L357.37,378.44L357.58,320.55L357.79,459.22L358.11,382.15L358.13,401.9L358.18,431.53L358.39,287.66L358.75,310.54L358.77,298.17L358.85,283.64L358.93,333.73L359,320.87L359.02,348.15L359.12,409.35L359.31,277.37L359.72,303.23L359.74,290.66L359.76,280.64L360.03,406.19L360.37,333.07L360.39,356.32L360.77,332.35L360.98,470.46L361.17,434.05L361.19,426.11L361.43,450.55L361.68,349.25L361.93,423.16L361.95,411.98L362.31,435.54L362.52,321.39L362.71,407.6L362.73,417.66L362.75,422.09L362.94,311.21L362.96,301.06L363.13,354.77L363.15,381.43L363.41,301.58L363.72,433.95L363.89,387.59L363.91,389.02L363.96,328.6L364.12,454.11L364.13,459.16L364.17,478.02L364.4,382.68L364.42,354.16L364.57,441.06L364.72,303.23L364.74,316L364.76,302.4L365.05,417.56L365.24,290.81L365.41,350.67L365.43,379.89L365.69,296.68L365.94,419.03L366.09,303.86L366.11,316.94L366.42,417.42L366.61,281.78L366.78,344.1L366.8,369.54L367.16,311.67L367.37,453.32L367.56,407.56L367.57,398.58L367.78,420L367.97,277.99L368.37,292.4L368.39,302.71L368.43,282.43L368.7,407.93L369.06,344.94L369.08,372.73L369.15,410.7L369.34,284.7L369.76,305.91L369.78,292.99L369.8,285.11L370.1,422.44L370.29,383.78L370.31,379.77L370.35,320.49L370.58,470.76L371.07,341.4L371.09,327.49L371.17,320.54L371.34,378.78L371.36,407.77L371.41,438.49L371.64,313.17L372,318.5L372.02,317.04L372.33,429.24L372.54,306.07L372.86,376.77L372.88,341.65L372.99,297.15L373.3,435.16L373.6,371.44L373.62,391.03L373.75,464.62L374.28,311.88L374.3,309.3L374.61,426.22L374.82,293.61L375.14,374.75L375.16,339.04L375.27,295.07L375.52,424.61L375.88,335.22L375.9,363.19L376.19,301.22L376.49,437.02L376.66,381.03L376.68,384.27L376.74,322.33L376.87,445.17L376.89,452.5L376.95,471.69L377.16,409.36L377.17,356.58L377.35,444.35L377.55,294.59L377.76,406.52L377.78,417.74L377.82,422.62L377.99,303.01L378.01,292.23L378.26,420.72L378.35,340.88L378.37,318.04L378.47,297.03L378.71,426.19L379.08,338.36L379.09,365.41L379.38,300.69L379.68,430.53L379.85,383.88L379.87,385.88L379.91,325.57L380.14,466.71L380.48,425.82L380.5,440.42L380.54,451.86L380.69,325.91L381.07,391.05L381.09,359.58L381.45,442.73L381.74,321.81L381.81,348.69L381.83,377.29L382.19,325.28L382.44,480.2L382.61,448.05L382.63,430.87L383.1,347.2L383.33,486.03L383.35,485.03L383.37,471.46L383.79,479.1L384.04,350.13L384.15,445.31L384.17,452.34L384.19,455.96L384.3,344.55L384.32,330.65L384.47,318.22L384.55,348.46L384.57,377.75L384.93,316.62L385.1,438.5L385.27,342.93L385.29,334.59L385.39,321.86L385.56,444.72L385.92,361.65L385.94,388.56L386.3,336.6L386.53,494.11L386.72,448.53L386.74,422.57L386.93,476.72L387.21,332.58L387.48,382.74L387.5,367.22L387.67,328.36L387.84,460.98L388.2,375.2L388.22,401.81L388.35,482.84L388.58,359.84L388.94,367.79L388.96,361.17L389.04,334.75L389.11,377.45L389.13,404.33L389.49,338.67L389.72,495.52L389.91,448.33L389.93,416.95L390.12,474.45L390.4,322.02L390.69,351.11L390.71,338.28L390.86,318.9L390.96,387.63L390.97,416.33L391.03,448.68L391.32,317.88L391.62,333.63L391.64,330.93L391.77,317.91L392.42,454.66L392.5,419.68L392.51,405.92L392.69,340.17L392.89,489.63L392.91,497.97L392.95,483.08L392.97,470.07L393.31,483.27L393.6,330.64L393.73,449.05L393.75,458.06L393.77,461.95L393.92,352.56L393.96,355.78L393.98,348.87L394.02,348.91L394.04,347.34L394.05,326.79L394.23,458.79L394.51,322.45L394.8,358.91L394.81,346.32L394.97,319.13L395.06,393.23L395.08,422.63L395.42,321.9L395.61,455.93L395.8,405.86L395.82,407.74L395.88,329.06L395.94,380.76L395.95,401.55L396.13,492.33L396.64,347.85L396.66,345.12L396.96,456.17L397.25,322.3L397.49,399.48L397.51,370.87L397.7,319.08L397.87,452.27L398.24,359.25L398.25,387.65L398.62,321.42L398.81,453.19L399,406.17L399.02,407.08L399.07,335.46L399.32,493.38L399.62,430.16L399.64,449.88L399.7,478.98L399.98,324.06L400.27,361.02L400.29,349.37L400.31,349.01L400.33,363.56L400.44,324.59L400.61,463.42L400.97,369.15L400.99,402.64L401.35,324.59L401.52,468.58L401.71,362.82L401.73,356.41L401.81,333.25L401.89,377.87L401.9,406.32L402.27,339.81L402.49,505.07L402.68,448.87L402.7,412.18L402.89,484.11L403.18,330.11L403.46,369.62L403.48,357.04L403.63,327.44L403.71,374.22L403.73,407.61L403.81,465.78L404.09,324.15L404.43,359.27L404.45,349.83L404.55,319.82L404.72,456.25L405.1,390.1L405.12,417.23L405.46,334.13L405.71,494.59L405.88,448.24L405.9,412.45L406.09,473.19L406.37,324.53L406.68,344.74L406.69,344.77L406.83,326.9L407.46,459.02L407.53,413.58L407.55,385.12L407.91,461.94L408.2,327.41L408.27,373.18L408.29,396.39L408.65,331.46L408.9,500.31L409.07,451.61L409.09,416.72L409.28,485.42L409.57,331.78L409.85,369.2L409.87,360.81L409.96,405.79L409.98,444.22L410.19,464.86L410.48,329.45L410.59,426.73L410.61,447.78L410.93,351.46L411.1,483.04L411.26,380.51L411.28,388.84L411.58,480.36L411.85,341.02L411.92,416.85L411.94,437.08L412.09,508.27L412.3,368.4L412.64,388.07L412.66,382.12L412.7,391.54L412.72,412.06L412.93,475.55L413.21,338.29L413.46,416.13L413.48,388.38L413.84,466.52L413.98,34.45L414.2,371.81L414.22,399.24L414.58,328.38L414.98,468.66L415,438.03L415.04,359.18L415.29,501.37L415.78,375.81L415.8,363.98L415.95,335.45L416.12,468.74L416.39,353.82L416.41,331.28L416.58,464.92L416.86,327.15L417.13,377.64L417.15,362.58L417.32,324.71L417.49,460.32L417.85,382.66L417.87,400.59L418.23,341.82L418.48,500.19L418.65,453.99L418.67,420.22L418.86,482.59L419.15,332.8L419.43,363.75L419.45,358.26L419.54,380.85L419.56,405.29L419.77,467.77L420.06,349.19L420.31,405.96L420.32,378.72L420.51,332.98L420.69,462.21L421.05,376.85L421.07,402.19L421.45,356.21L421.67,511.27L421.83,466.79L421.85,463.61L422.05,493.91L422.34,338.52L422.64,361.12L422.66,359.26L423.25,331.26L423.42,466L423.48,432.72L423.5,410.34L423.71,332.11L423.88,466.84L424.26,391.25L424.28,426.73L424.62,345.93L424.87,509.78L425.04,465.16L425.06,436.8L425.25,491.26L425.53,337.99L425.82,370.14L425.84,358.1L425.87,370.39L425.99,332.47L426.05,353.59L426.06,373.1L426.16,468.86L426.45,331.06L426.79,366.2L426.81,356.71L426.9,328.65L427.07,462.78L427.43,383.02L427.45,409.32L427.81,348.91L428.06,505.36L428.23,455.48L428.25,427.67L428.44,492.11L428.73,340.87L429.01,374.32L429.03,363.05L429.05,363.39L429.07,377.26L429.35,475.65L429.64,335.73L429.73,412.01L429.75,440.1L429.81,473.84L430.09,336.36L430.4,360.29L430.42,358.42L430.55,339.35L431.25,505.83L431.31,466.34L431.33,459.46L431.39,464.14L431.43,455.8L431.44,434L431.63,486.28L431.92,335.15L432.2,364.55L432.22,353.21L432.24,353.6L432.26,368.7L432.38,338.05L432.55,468.02L432.93,404.83L432.95,435.75L433,469.62L433.29,335.97L433.61,352.99L433.63,367.06L433.74,340.32L433.93,468.43L434.26,389.9L434.28,411.42L434.43,506.45L434.96,359.2L434.98,356.41L435.28,467.81L435.57,326.91L435.8,427.38L435.82,403.23L436.03,332.09L436.2,466.18L436.56,373.07L436.58,404.12L436.94,342.52L437.13,472.16L437.32,419.27L437.34,420.81L437.39,349.36L437.53,477.4L437.55,488.84L437.62,507.32L437.85,377.16L438.1,423.45L438.12,392.07L438.48,467.14L438.76,334.5L438.84,369.62L438.86,402.66L438.93,465.63L439.22,332.51L439.56,360.94L439.58,351.47L439.68,330.43L439.85,461.1L440.23,390.87L440.25,419.88L440.59,341.01L440.82,497.06L441.01,445.91L441.02,427.23L441.22,477.08L441.5,327.3L441.8,339.06L441.82,336.77L441.96,325.62L442.58,462.19L442.66,406.52L442.68,377.33L442.87,332.7L443.04,464.57L443.4,373.25L443.42,399.24L443.8,347.23L444.01,502.91L444.2,451.79L444.22,431.19L444.41,485.02L444.69,335.95L445,340.44L445.02,336.95L445.32,454.18L445.61,326.59L445.85,399.73L445.87,370.06L446.06,334.11L446.23,458.51L446.59,373.52L446.61,397.86L446.99,352.42L447.2,508.37L447.39,461.83L447.41,441.9L447.6,491.03L447.91,341.54L448.19,344.01L448.21,341.52L448.51,454.74L448.74,321.44L449.03,425.18L449.05,395.67L449.2,317.43L449.43,447.39L449.79,360.18L449.81,384.55L450.19,340.97L450.4,497.9L450.59,444.64L450.61,430.09L450.8,471.42L451.02,327.03L451.37,346.42L451.38,333.37L451.48,324.74L451.61,356.74L451.63,386.46L451.94,325.69L452.16,451.38L452.34,346.66L452.35,336.03L452.37,324.36L452.64,449.04L453,384.53L453.02,412.57L453.36,341.22L453.59,490.15L453.78,445.27L453.8,428.46L453.99,476.96L454.29,341.42L454.58,347.22L454.6,345.45L454.9,455.39L455.13,327.68L455.41,426.99L455.43,397.86L455.81,450.5L456.02,323.63L456.18,364.61L456.19,387.05L456.57,345.35L456.78,497.09L456.97,443L456.99,423.17L457.18,468.77L457.39,316.56L457.77,320.37L457.79,319.84L458.3,313.15L458.55,443.36L458.63,394.4L458.65,363.27L458.76,331.9L459.01,456.27L459.37,375.14L459.39,399.97L459.77,358.45L459.98,514L460.17,476.28L460.19,454.91L460.38,490.43L460.68,345.1L460.95,362.07L460.97,349.31L461.14,337.39L461.21,393.65L461.23,423.5L461.29,457.29L461.52,325.98L461.88,329.29L461.9,328.53L462.41,304.71L462.71,448.74L462.75,399.58L462.77,383.01L462.96,335.12L463.17,489.27L463.47,388.13L463.49,406.6L463.57,455.22L463.78,302.17L464.14,317.1L464.16,304.64L464.23,294.5L464.52,428.81L464.65,320.97L464.67,305.35L464.98,428.16L465.15,292.2L465.32,355.84L465.34,383.04L465.6,286.59L465.91,440.52L466.08,386.25L466.1,390.53L466.15,335.8L466.34,452.76L466.36,464.57L466.38,471.99L466.63,365.19L466.86,372.37L466.88,348.81L466.99,326.31L467.24,438.72L467.58,357.06L467.6,378.91L467.9,331.42L468.13,450.01L468.32,339.69L468.34,327.87L468.61,441.19L468.82,315.71L468.95,354.88L468.97,370.38L469.37,353.79L469.58,485.55L469.77,445.16L469.79,428.45L469.96,471.29L470.18,326.11L470.56,331.97L470.58,342.91L470.89,444.94L471.1,306.38L471.25,358.27L471.27,389L471.34,434.91L471.55,303.33L471.95,326.35L471.97,316.81L472.01,306.39L472.29,439.95L472.58,363.96L472.6,378.94L472.77,478.26L473.28,325.57L473.3,321.24L473.38,303.73L474.08,431.16L474.14,387.86L474.16,355.41L474.29,305.7L474.54,431.03L474.9,366.08L474.92,392.09L475.2,308.03L475.49,437.95L475.66,390.88L475.68,393.74L475.7,394.86L475.74,359.24L475.75,345.5L475.96,476.44L476.46,349.95L476.48,334.84L476.82,438.5L477.03,309.9L477.16,341.92L477.18,361.78L477.48,309.91L477.73,434.46L477.9,321.33L477.92,311.25L477.94,309.6L478,355.9L478.07,346.33L478.09,367.6L478.32,332.38L478.68,478.93L478.87,435.36L478.89,433.99L478.95,377.14L479.14,500.54L479.48,442.9L479.5,459.27L479.54,472.51L479.77,332.04L480.07,410.12L480.09,379.15L480.47,446.31L480.68,315.77L480.83,370.26L480.85,399.39L480.92,442.05L481.51,324.41L481.53,333.53L481.55,323.38L481.59,311.23L481.88,434.53L482.18,374.09L482.2,392.39L482.35,473.85L482.86,326.39L482.88,320.54L483.41,305.64L483.66,431.77L483.72,390.73L483.74,357.93L483.87,304.59L484.12,429.08L484.48,365.17L484.5,391.31L484.78,316.01L485.07,447.91L485.24,393.5L485.26,395.53L485.33,350.85L485.47,459.61L485.49,464.62L485.54,480.94L485.75,419.42L485.77,395.85L485.92,453.43L486.59,300.75L486.61,299.3L486.86,426.65L487.05,304.13L487.06,300.57L487.14,352.44L487.22,348.85L487.24,377.56L487.52,303.68L487.77,432.6L487.96,321.68L487.98,321.11L488.72,480.03L488.91,434.19L488.93,427.64L489.14,446.09L489.8,296.89L489.84,321.97L489.86,349.21L489.9,328.2L489.95,351.59L489.97,380.62L490.26,302.99L490.51,424.37L490.66,324.72L490.68,314.89L490.71,301.38L490.96,423.34L491.32,357.41L491.34,381.08L491.72,351.58L491.93,472.75L492.12,432.76L492.14,424.31L492.33,456.83L492.98,326.42L493,321.57L493.24,442.86L493.45,317.79L493.76,402.24L493.77,367.75L493.91,308.46L494.15,429.1L494.52,361.36L494.53,383.09L494.92,349.8L495.12,467.26L495.31,425.74L495.33,418.52L495.52,445.89L495.73,344.02L496.11,365.42L496.13,372.47L496.19,364.43L496.36,407.47L496.38,430.17L496.74,380.18L496.95,504.26L497.16,464.89L497.18,444.15L497.35,471.42L497.67,363.02L497.94,407.76L497.96,408.24L498.05,408.67L498.07,406.24L498.09,389.7L498.32,471.95L498.85,351.1L498.87,352.59L498.93,339.51L499.21,431.25L499.53,362.75L499.55,384.65L499.93,368.91L500.14,483.09L500.35,454.23L500.37,434.33L500.58,453.69L500.88,360.28L501.13,402.09L501.15,403.12L501.32,360.61L501.47,449.85L501.49,461.41L501.51,469.95L501.78,368.27L501.99,381.49L502.01,354.21L502.37,422.08L502.58,297.2L502.75,361.78L502.77,383.96L502.82,409.45L503.03,286.22L503.45,298.83L503.47,286.6L503.49,284.1L503.56,355.18L503.66,354.55L503.68,375.34L503.93,280.26L504.25,405.51L504.4,359.7L504.42,363.12L504.51,326.36L504.7,442.09L504.95,352.52L504.97,340.67L505.1,404.38L505.18,332.61L505.2,302.79L505.56,380.62L505.77,254.85L505.92,306.39L505.94,331.05L506.23,263.18L506.47,386.81L506.62,290.91L506.64,277.44L506.93,382.97L507.12,262.57L507.29,311.83L507.31,330.65L507.71,318.07L507.9,431.8L508.11,392.02L508.13,377.58L508.3,397.36L508.49,259.76L508.94,264.38L508.96,263.09L509.42,260.21L509.67,389.33L509.72,362.25L509.74,328.47L509.88,277.63L510.12,403.06L510.48,338.77L510.5,362.85L510.88,337.32L511.09,457.68L511.3,409.93L511.32,392.52L511.49,423.47L512.14,272.32L512.16,271.59L512.61,269.67L512.86,397.53L512.92,363.93L512.94,330.83L513.07,276.67L513.32,395.09L513.68,332.05L513.7,354.05L514.08,334.64L514.29,453.78L514.46,414.25L514.48,409.37L514.68,419.27L515.35,272.42L515.39,301.88L515.41,337.2L515.81,291.97L516.05,412.81L516.13,343.44L516.15,322.29L516.26,302.66L516.51,418.59L516.85,344.06L516.87,357.66L517.27,344.51L517.48,466.38L517.67,419.52L517.69,414.09L517.88,437.68L518.54,278.1L518.56,282.34L518.58,305.63L518.79,405.94L519,276.4L519.32,329.27L519.34,302.93L519.46,262.38L519.7,384.34L520.04,319.78L520.06,328.34L520.67,453.45L520.88,421.51L520.9,403.96L521.07,442.47L521.38,364.05L521.64,406L521.66,401.37L521.68,402.42L521.81,383.73L521.83,357.35L521.98,427.9L522.08,361.24L522.1,347.88L522.19,318.59L522.36,378.78L522.38,399.75L522.44,418.84L522.65,296.25L522.99,321.61L523.01,308.83L523.11,298.74L523.14,323.49L523.16,348.64L523.2,326.09L523.41,413.27L523.64,359.84L523.66,329.17L523.85,461.29L524.32,378.1L524.34,336.74L524.72,411.02L524.91,283.88L525.06,327.58L525.08,352.39L525.18,412.19L525.37,281.7L525.77,292.73L525.79,305.5L525.82,277.89L526.09,409.54L526.47,373.01L526.49,392.33L526.83,331.79L527.04,472.59L527.25,419.5L527.27,389.09L527.46,442.46L527.65,296.4L528.07,313.31L528.09,296.16L528.37,415.59L528.56,281.98L528.75,374.63L528.77,395.04L528.83,413.16L529.02,279.91L529.36,327.78L529.38,308.33L529.47,286.67L529.78,427.81L530.04,344.01L530.06,358.92L530.23,466.76L530.75,326.42L530.77,312.74L530.84,304.99L530.92,344.17L530.99,341.4L531.01,362.33L531.09,423.24L531.3,301.27L531.72,317.16L531.74,302.09L531.75,292.13L532,421.1L532.4,381.19L532.42,401.85L532.67,288.54L532.97,429.47L533.1,370.87L533.12,372.75L533.22,323.52L533.41,449.47L533.43,463.53L533.67,351.47L533.79,421.51L533.81,430.11L533.83,433.21L533.92,339.55L533.94,315.27L534.04,286.1L534.3,420.5L534.64,337.44L534.66,360.91L534.76,424.19L534.95,299.58L535.37,327.75L535.39,316.56L535.65,424.38L535.86,300.57L536.05,388.05L536.07,405.75L536.41,338.32L536.62,477.1L536.83,420.44L536.85,381L537.02,459.42L537.69,313.46L537.7,313.65L537.95,438.79L538.14,306.32L538.46,384.58L538.48,347.65L538.6,299L538.86,427.55L539.21,346.48L539.22,367.74L539.6,332.5L539.81,469.49L540,426.24L540.02,412.09L540.21,450.2L540.8,309.45L540.82,309.58L540.88,296.58L541.6,431.13L541.66,390.01L541.68,356.41L541.79,321.06L542.11,479.36L542.36,391.75L542.38,396.48L542.8,351.29L543.01,475.21L543.18,445.5L543.2,438.63L543.41,452.41L543.62,312.58L544.02,328.51L544.03,342.7L544.07,325.28L544.32,442.39L544.68,357.44L544.7,384.86L544.78,444.02L545,321.99L545.4,341.93L545.42,329.43L545.44,320.67L545.74,446.63L546.03,373.39L546.05,391.99L546.2,482.45L546.73,329.57L546.75,327.27L547.06,439.15L547.27,311.85L547.59,387.83L547.61,354.37L547.74,308.42L547.97,434.8L548.33,350.31L548.35,374.38L548.63,310.43L548.94,445.5L549.11,395.86L549.13,396.2L549.17,335.68L549.39,477.02L549.74,428.51L549.76,442.81L549.81,456.12L550.08,338.66L550.46,405.84L550.48,406.71L550.54,350.88L550.63,400.15L550.65,419.35L550.71,445.82L550.92,323.26L551.28,351.19L551.3,340.25L551.83,322.35L552.13,449.8L552.17,416.72L552.19,401.42L552.36,349.48L552.61,494.65L552.89,416.37L552.91,434.27L552.99,476.92L553.2,337.82L553.56,353.5L553.58,340.1L553.65,326.32L553.84,420.14L553.86,437.68L554.18,337.43L554.36,455.79L554.45,374.12L554.47,358.48L554.56,348.68L554.89,493.35L555,454.65L555.02,455.4L555.04,456.8L555.08,433.83L555.1,383.79L555.55,365.97L555.78,504.92L555.91,463.02L555.93,464.7L555.99,428.06L556.01,381.04L556.18,479.07L556.41,343.36L556.45,351.25L556.47,335.8L557.09,456.91L557.23,349.88L557.25,349.14L557.38,341.08L558.01,465.29L558.06,437.01L558.08,412.29L558.29,351.91L558.48,471.1L558.82,416.67L558.84,436.71L558.98,504.21L559.49,368.1L559.51,355.6L559.66,339.15L559.75,403.81L559.77,430.39L560.12,334.34L560.29,461.07L560.42,354.53L560.44,353.86L560.57,338.11L561.2,467.7L561.26,436.24L561.28,413.42L561.48,346.21L561.67,469.46L562.02,420.36L562.04,440.94L562.19,505.35L562.72,359.34L562.74,373.82L562.76,365.47L563.02,465.63L563.31,341.69L563.39,378.9L563.4,408.08L563.48,462.9L563.77,339.1L564.11,364.4L564.13,353.17L564.22,335.54L564.39,459.48L564.75,379.53L564.77,402.59L565.13,346.9L565.38,500.7L565.55,454.12L565.57,422.98L565.76,483.06L566.05,337.99L566.35,348.3L566.37,346.85L566.67,457.89L566.96,332.37L567.19,426.21L567.21,402.96L567.41,335.25L567.59,457.4L567.95,381.7L567.97,407.3L568.33,354.27L568.57,502.83L568.75,456.71L568.76,422.59L568.95,485.16L569.24,343.5L569.54,356L569.56,354.92L569.7,341.63L570.38,482.18L570.42,465.77L570.44,451.93L570.8,486.7L571.06,358.5L571.18,447.97L571.2,466.38L571.52,355.08L571.77,508.44L571.94,463.56L571.96,429.22L572.15,489.95L572.43,347.78L572.74,355.97L572.76,353.55L573.06,463.31L573.35,339.56L573.59,409.27L573.61,381.31L573.8,334.55L573.97,463.15L574.33,383.42L574.35,406.25L574.71,349.51L574.96,503.33L575.13,457.98L575.15,423.38L575.34,482.63L575.63,346.74L575.91,374.77L575.93,362.68L575.97,376.5L576.08,346.64L576.14,366.7L576.16,384.45L576.25,473.13L576.54,340.9L576.88,364.84L576.9,354.22L577,337.91L577.17,468.3L577.53,392.96L577.55,419L577.91,361.38L578.15,515.59L578.33,473.23L578.35,437.37L578.54,501.28L578.82,355.86L579.11,382.91L579.12,371.52L579.28,349.98L579.35,392.25L579.37,423.53L579.73,355.75L579.9,480.39L580.07,389.15L580.09,381.07L580.19,354.41L580.36,483.84L580.72,400.79L580.74,427.3L581.1,361.6L581.35,521.01L581.52,474.26L581.54,440.84L581.73,502.62L582.01,359.16L582.3,387.21L582.32,374.83L582.36,385.56L582.45,370.26L582.47,354.82L582.64,480.66L582.93,351.53L583.19,395.9L583.21,381.47L583.38,349.63L583.55,472.96L583.91,389.62L583.93,415.55L584.29,363.29L584.54,515.31L584.71,470.59L584.73,440.8L584.92,502.44L585.21,358.55L585.51,370.56L585.53,370.85L585.83,474.27L586.12,347.69L586.37,438.38L586.39,412.89L586.75,477.98L587.03,354.54L587.13,415.21L587.15,438.94L587.49,358.76L587.74,511.35L587.91,463.19L587.93,436.1L588.12,491.93L588.4,350.22L588.69,372.68L588.7,361.86L588.72,362.05L588.74,372.51L589.05,466.94L589.31,343.91L589.41,406.15L589.43,432.74L589.77,348.03L589.94,470.35L590.11,381.09L590.13,370.79L590.23,352.54L590.42,473.43L590.43,473.18L590.45,473.35L590.68,360.98L590.93,515.71L591.21,428.57L591.23,448.31L591.31,495.52L591.59,352.48L591.88,373.44L591.9,364.25L592.05,351.18L592.2,465.12L592.35,370.85L592.37,372.55L592.68,475.65L592.96,350.06L593.19,445.6L593.21,420.06L593.42,349.17L593.61,474.62L593.95,424.19L593.97,443.77L594.12,513.39L594.65,374.47L594.67,385.23L594.96,473.99L595.24,347.82L595.34,412.08L595.36,435.93L595.7,344.31L595.87,472.82L596.04,376.01L596.06,363.53L596.16,348.77L596.33,468.82L596.69,385.99L596.71,410.82L597.07,361.29L597.32,511.83L597.49,466.51L597.51,443.74L597.7,492.88L597.98,352.88L598.29,356.09L598.3,353.39L598.61,467.84L598.89,342.41L599.12,434.01L599.14,413.87L599.52,462.99L599.73,341.11L599.9,397.17L599.92,418.26L600.26,351.35L600.51,500.89L600.68,465.57L600.7,442.52L600.89,485.13L601.12,345.72L601.48,356.11L601.5,355.06L602.09,345.97L602.26,468.43L602.33,411.93L602.35,384.93L602.49,345.16L602.71,468.65L603.08,380.2L603.09,406.95L603.46,354.47L603.7,502.1L603.87,454.69L603.89,435.8L604.08,480.91L604.31,344.82L604.67,350.18L604.69,349.2L605,460.33L605.22,338.97L605.53,411.31L605.55,382.37L605.74,347.09L605.91,461.53L606.27,379.08L606.29,403.09L606.65,356.16L606.88,502.49L607.07,453.41L607.09,434.83L607.28,480.78L607.5,346.97L607.87,349.76L607.88,348.9L608.19,459.77L608.42,338.53L608.7,432.82L608.72,409.09L608.85,346.96L609.1,461.55L609.46,381.24L609.48,402.39L609.86,357.98L610.07,507.23L610.26,455.1L610.28,439.84L610.47,482.88L610.68,333.03L611.06,341.05L611.08,339.34L611.14,329.89L611.84,460.91L611.91,410.31L611.93,380.18L612.07,340.81L612.29,460.07L612.66,372.84L612.68,397.19L613.06,366.86L613.26,502.71L613.45,463.23L613.47,448.55L613.72,506.76L614.25,358.75L614.27,357.23L614.58,462.63L614.88,346.07L615.09,434.79L615.11,408.84L615.32,339.14L615.49,456.54L615.85,371.72L615.87,398.4L616.23,357.62L616.46,504.34L616.65,457.24L616.67,440.05L616.86,484.43L617.16,354.13L617.45,355.66L617.47,352.86L617.77,459.77L618,320.43L618.28,428.5L618.3,399.49L618.7,438.93L618.89,308.08L619.06,371.36L619.08,393.03L619.44,347.51L619.65,489.19L619.86,428.04L619.88,382.64L620.05,463.26L620.26,313.43L620.47,423.83L620.49,435.44L620.51,441.8L620.72,304.06L621.04,392.71L621.06,355.54L621.44,430.16L621.63,288.55L621.8,355.41L621.82,378.2L622.08,303.01L622.39,445.11L622.58,398.21L622.6,389.3L622.64,348.96L622.84,485.58L623.36,351.31L623.38,337.59L623.4,337.25L623.42,349.73L623.7,447.52L623.91,328.05L624.1,416.17L624.12,433.11L624.16,450.07L624.37,325.97L624.71,364.7L624.73,346.45L625.07,442.5L625.28,309.33L625.43,353.74L625.45,375.6L625.83,352.2L626.04,487.86L626.23,444.3L626.25,428.55L626.44,463.85L626.65,332.33L627.03,335.15L627.05,334.45L627.35,447.74L627.58,316.07L627.86,425.03L627.88,394.14L628.03,310.04L628.28,433.54L628.64,374.36L628.66,398.37L629.02,348.53L629.23,484.9L629.44,432.08L629.46,386.47L629.69,492.18L629.94,378.81L630.03,436.56L630.05,449.19L630.09,459.76L630.3,321.2L630.62,388.27L630.64,352.41L631.04,430.7L631.21,293.19L631.38,347.37L631.4,372.85L631.66,289.02L631.97,437.1L632.16,387.18L632.18,383.72L632.22,340.02L632.44,479.25L632.94,362.89L632.96,346.86L633.28,436.1L633.51,300.92L633.66,346.03L633.68,373.05L633.76,420.04L633.97,291.83L634.36,319.73L634.38,311.72L634.42,300.54L634.67,426.88L635.01,352.56L635.03,364.34L635.43,358.25L635.64,487.4L635.83,444.17L635.85,431.43L636.02,463.38L636.63,328.01L636.65,340.09L636.66,332.78L636.7,317.12L636.95,435.03L637.31,373.18L637.33,399.05L637.41,439.98L637.61,319.36L638.03,344.27L638.05,333.67L638.07,330.16L638.26,416.78L638.28,430.65L638.62,359.7L638.83,481.23L639.02,436.96L639.04,426.92L639.29,483.52L639.82,331.55L639.84,341.73L639.86,334.6L640.14,434.7L640.35,309.75L640.5,367.89L640.52,395.92L640.6,436.11L640.81,316.07L641.21,335.06L641.23,330.5L641.25,321.56L641.55,448.75L641.83,377.06L641.85,393.48L642.02,488.65L642.52,353.16L642.54,335.34L642.88,433.04L643.09,302.91L643.22,337.35L643.24,356.93L643.34,427.82L643.55,296.37L643.94,319.41L643.96,309.08L644,293.61L644.25,417.82L644.61,353.96L644.63,374.55L645.01,348.26L645.22,469.62L645.41,432.94L645.43,422.6L645.6,446.79L645.83,316.08L646.24,327.38L646.26,315.98L646.28,312.68L646.45,394.97L646.47,416.32L646.53,435.2L646.74,301.13L647.06,355.22L647.08,329.11L647.2,292.64L647.44,421.38L647.78,359.48L647.8,371.67L648.2,363.43L648.41,488.79L648.6,435.2L648.62,428.66L648.81,454.41L649.02,322.14L649.42,339.92L649.44,333.94L649.72,433.76L649.93,316.57L650.08,364.28L650.1,391.53L650.18,433.51L650.39,306.69L650.79,330.44L650.81,323.06L650.84,311.51L651.13,439.93L651.43,377.16L651.45,395.3L651.61,475.55L652.12,336.5L652.14,331.9L652.46,440.68L652.67,318.29L652.97,394.8L652.99,364.24L653.13,310.55L653.37,433.19L653.73,367.33L653.75,392.49L654.04,317.29L654.32,441.68L654.49,386.1L654.51,388.54L654.59,352.01L654.8,471.48L655.05,380.82L655.06,376.68L655.2,452.37L655.41,326.19L655.71,406.77L655.73,379.64L656.11,432.56L656.32,300.25L656.47,356.04L656.49,381.75L656.57,427.19L656.78,306.36L657.17,322.43L657.19,313.81L657.23,299.99L657.52,430.48L657.82,367.62L657.84,382.28L657.99,467.46L658.51,318.1L658.52,312.95L658.85,414.02L659.06,289.66L659.38,356.27L659.4,330.17L659.76,416.06L659.97,297.03L660.12,341.07L660.14,365.27L660.41,306.45L660.71,426.15L660.9,384.05L660.92,387.45L660.94,388.12L660.96,370.04L660.98,352.15L661.19,461.24L661.64,420.02L661.66,389.67L662.04,430.12L662.25,326.19L662.42,375.94L662.44,396.16L662.71,328.66L662.99,435.12L663.18,397.38L663.2,400.02L663.26,370.12L663.47,476.01L663.98,420.46L664,413.36L664.17,367.4L664.27,419.07L664.28,431.88L664.38,470.06L664.65,374.3L664.87,377.84L664.89,365.01L664.99,347.9L665.23,430.65L665.6,368.44L665.61,390.41L666.03,356.04L666.2,446.17L666.36,405.58L666.38,407.32L666.45,365.81L666.66,478.67L666.91,400.53L666.93,393.79L667,437.54L667.02,446.81L667.36,375.76L667.57,475.89L667.74,441.54L667.76,435.84L667.97,454.52L668.64,325.83L668.66,330.48L668.68,347.09L668.88,428.29L669.09,321.17L669.42,369.09L669.44,346.17L669.55,311.66L669.8,413.78L670.16,356.74L670.18,376.18L670.56,351.49L670.77,462.47L670.96,421.42L670.98,414.93L671.17,428.99L671.37,308.02L671.79,314L671.81,303.74L671.83,301.24L672,366.18L672.02,386.95L672.08,410.54L672.29,295.63L672.65,320.89L672.67,318.77L672.74,306.71L673.5,426.75L673.56,381.63L673.58,379.66L673.75,354.76L673.96,471.63L674.42,409.65L674.43,378L674.82,431.65L675.02,322.18L675.18,365.14L675.2,389.38L675.48,328.57L675.73,435.34L675.9,333.99L675.92,324.29L675.94,321.64L676.11,392.05L676.13,410.94L676.39,324.44L676.7,440.53L676.85,393.59L676.87,394.9L676.94,357.15L677.02,407.34L677.04,425.15L677.15,474.19L677.65,346.26L677.67,328.78L677.76,305.36L677.99,414.48L678.01,416.91L678.22,293.38L678.45,409.59L678.46,412.85L678.67,303.14L678.88,410.11L678.9,417.5L678.92,417.95L678.94,411.62L678.96,398.82L679.38,419.34L679.59,301.48L679.72,347.85L679.74,359.79L680.14,346.61L680.35,464.53L680.54,421.45L680.56,416.93L680.75,430.33L681.39,293.62L681.41,291.57L681.87,284.64L682.11,407.24L682.17,374.12L682.19,344.11L682.57,408.59L682.76,289.6L682.93,341.38L682.95,361.98L683.33,348.8L683.54,462.23L683.75,422.82L683.77,403.89L683.94,437.04L684.28,351.35L684.51,401.62L684.53,396.6L684.55,396.76L684.57,390.71L684.85,410.52L685.06,291.11L685.27,382.98L685.29,392.41L685.31,395.33L685.4,310.97L685.42,295.45L685.52,277.88L685.59,351.51L685.67,332.49L685.69,358.45L685.97,288.85L686.28,416.36L686.45,369.72L686.47,374.44L686.52,334.81L686.73,452.61L686.96,383.47L686.98,351.61L687.13,413.47L687.32,277.31L687.55,398.18L687.57,405.32L687.59,406.44L687.65,370.96L687.67,341.02L688.05,407.03L688.25,269.5L688.41,331.04L688.43,355.54L688.5,399.85L688.71,272.86L689.13,287.81L689.15,276.7L689.17,276.88L689.19,288.16L689.91,456.39L689.98,429.31L690,424.11L690.12,408.45L690.14,382.62L690.31,429.4L690.52,289.81L690.95,296.43L690.97,287.72L691.18,392.89L691.2,403.21L691.24,410.66L691.43,281.13L691.75,363.39L691.77,325.16L691.89,273.72L692.15,401.92L692.49,321.73L692.51,338.13L692.89,324.4L693.1,452.69L693.31,402.89L693.33,372.73L693.71,301.25L693.98,428.23L694.11,322.53L694.13,335.81L694.43,428.67L694.62,308.3L694.79,367.81L694.81,392.47L694.89,427.29L695.46,309.36L695.48,307.93L695.53,299.57L696.3,471.7L696.41,427.09L696.43,428.78L696.54,358.69L696.64,406.89L696.66,422.71L696.69,437.54L696.9,291.05L697.23,375.81L697.25,337.88L697.36,282.18L697.63,411.73L697.99,350.88L698.01,375.45L698.27,293.88L698.54,414.41L698.71,311.27L698.73,301.88L698.94,398.85L698.96,409.99L699.28,336.97L699.49,474.73L699.7,425.55L699.72,387.72L699.89,452.56L700.55,295.54L700.57,297.85L700.82,427.88L701.35,340.56L701.37,318.86L701.73,423.16L701.92,283.56L702.07,330.51L702.09,351.14L702.47,331.11L702.68,465.37L702.87,420.86L702.89,410.16L703.1,431.82L703.29,285.33L703.69,295.65L703.71,308.92L703.75,284.49L704.01,409.3L704.37,358.9L704.39,380.41L704.66,314.43L704.98,462.3L705.17,427.31L705.19,387.18L705.42,461.47L705.67,350.63L705.82,455.06L705.84,460.08L705.88,477.91L706.08,425.3L706.1,380.81L706.27,444.37L706.94,290.41L706.96,291.14L706.98,299.55L707.21,420.67L707.4,289.27L707.74,338.97L707.76,317.2L707.85,285.7L708.12,417.52L708.46,336.02L708.48,355.59L708.86,332.44L709.07,466.17L709.26,417.08L709.28,406.97L709.47,431.47L709.68,289.12L710.08,297.33L710.1,309.67L710.13,279.82L710.4,414.45L710.8,392.49L710.82,405.09L710.86,413.78L711.05,275.67L711.37,370.82L711.39,332.41L711.5,280.89L711.81,424.71L712.11,361.96L712.13,377.85L712.28,458.23L712.79,309.14L712.81,308.06L713.33,293.42L713.59,422.78L713.65,377.6L713.67,340.13L714.05,420.9L714.24,286.39L714.39,326.63L714.41,350.55L714.7,285.66L715,427.69L715.17,371.61L715.19,374.56L715.25,327.18L715.44,446.72L715.46,460.86L715.48,461.02L715.49,448.94L716.06,283.34L716.31,413.27L716.33,414.94L716.52,278.56L717.11,320.59L717.13,328.16L717.28,433.51L717.87,338.93L717.89,331.3L718.16,434.92L718.17,437.62L718.42,341.21L718.67,471.04L718.84,427.62L718.86,412.39L719.05,440.84L719.26,295.98L719.64,312.74L719.66,313.6L719.71,306.66L720.42,446.28L720.49,399.54L720.51,370.32L720.7,337.9L720.87,456.83L721.23,380.2L721.25,404.74L721.61,351.28L721.86,510.7L722.03,466.72L722.05,439.25L722.24,489.07L722.53,347.26L722.83,355.43L722.85,353.45L723.15,463.06L723.44,339.34L723.69,403.6L723.71,371.92L723.9,335.15L724.07,452.82L724.43,368.5L724.45,392.16L724.81,346.07L725.04,489.62L725.23,458.65L725.25,427.65L725.44,471.98L725.64,338.91L726.01,351.03L726.03,339.1L726.1,333.02L726.25,360.3L726.27,389.66L726.63,328.3L726.8,444.64L726.98,350.52L726.99,341.21L727.09,330.92L727.26,448.61L727.62,371.95L727.64,396.48L728,348.88L728.25,497.73L728.42,448.96L728.44,419.43L728.63,475.27L728.84,340.23L729.22,346.35L729.24,343.85L729.37,333.61L730,455.85L730.05,423.89L730.07,401.86L730.28,334.78L730.45,453.9L730.82,365.31L730.83,391.8L731.2,338.09L731.42,489.96L731.61,439.69L731.63,410.75L731.82,468.33L732.11,338.73L732.39,365.96L732.41,355.39L732.45,370.08L732.49,354.54L732.55,355.25L732.56,341.33L733.25,475.5L733.4,424.97L733.42,426.37L733.46,398.71L733.48,361.18L733.67,474.38L733.93,352.29L734.27,419.17L734.29,420.16L734.33,421.73L734.37,389.6L734.39,354.8L734.64,499.42L735.09,415.39L735.11,382.45L735.47,457.71L735.76,330.39L735.83,362.61L735.85,393.5L735.93,455.93L736.21,332.23L736.56,353.15L736.57,343.74L736.67,330.21L736.84,448.18L737.2,367.94L737.22,393.67L737.58,337.82L737.83,487.75L738,436.71L738.02,404.97L738.21,466.6L738.49,333.31L738.8,343.6L738.82,342.6L739.41,330.93L739.58,454.61L739.65,405.01L739.67,375.87L739.86,335.83L740.03,460.84L740.4,376.06L740.41,404.25L740.78,347.53L741.02,508.8L741.19,457.58L741.21,425.21L741.4,495.47L741.69,346.13L741.97,376.97L741.99,364.3L742.14,347.64L742.26,437.34L742.28,456.56L742.32,470.11L742.6,338.04L742.87,387.3L742.89,371.85L743.06,337.54L743.23,468.39L743.61,405.46L743.63,431.8L743.97,344.68L744.22,505.18L744.39,455.24L744.41,420.54L744.6,486.98L744.88,343.2L745.17,367.13L745.19,355.83L745.22,369.11L745.26,352.24L745.32,352.89L745.34,338.59L745.79,337.62L745.97,469.83L746.06,386.78L746.08,372.57L746.25,340.44L746.42,469.95L746.78,387.25L746.8,413.24L747.16,350.05L747.41,509.33L747.58,460.72L747.6,427.33L747.79,492.13L748.08,346.34L748.36,377.18L748.38,366.63L748.7,470.32L748.99,341.87L749.23,414.19L749.25,387.86L749.44,343.56L749.62,469.61L749.98,384.47L750,410.35L750.36,350.51L750.6,504.56L750.77,457.56L750.79,428.3L750.98,486.32L751.27,345.31L751.55,372.26L751.57,360.57L751.61,372.95L751.63,361.42L751.65,353.48L751.73,341.96L751.8,375.24L751.82,408.89L751.9,467.37L752.18,342.91L752.52,376L752.54,364.83L752.64,342.24L752.81,464.73L753.17,382.39L753.19,410.51L753.55,356.43L753.8,505.66L753.97,456.74L753.99,430.8L754.18,487.03L754.46,342.26L754.77,351.18L754.79,349.8L754.92,333.8L755.55,459.79L755.6,434.23L755.62,411.18L755.83,336.56L756,458.67L756.36,373.63L756.38,397.36L756.74,348.34L756.99,504.13L757.16,458.88L757.18,431.37L757.37,484.27L757.66,344.41L757.94,373.48L757.96,363.38L758,375.54L758.04,358.1L758.09,364.74L758.11,341.68L758.28,468.17L758.57,339.49L758.82,415.83L758.83,386.68L759.02,339.88L759.2,467.44L759.56,379.24L759.58,407.32L759.94,349.71L760.18,505.33L760.34,464.08L760.36,457.6L760.56,483.49L760.85,346.34L761.13,371.7L761.15,360.61L761.31,340.7L761.38,370.81L761.4,402.37L761.48,462.23L761.76,336.14L762.1,370.26L762.12,358.45L762.22,340.41L762.39,462.27L762.75,375.68L762.77,402.4L763.13,350.32L763.38,503.72L763.55,459.07L763.57,435.68L763.76,487.98L764.04,349.83L764.33,367.63L764.35,355L764.5,341.78L764.59,400.93L764.61,427.1L764.96,339.9L765.13,463.56L765.28,356.66L765.3,368.88L765.41,340.89L765.58,463.57L765.96,401.9L765.98,420.22L766.32,346.29L766.57,495.85L766.74,451.18L766.76,430.1L766.95,476.21L767.24,341.75L767.54,347.79L767.56,344.9L767.62,338.29L768.32,459.23L768.4,409.07L768.41,380.83L768.6,341.68L768.78,460.72L769.14,375.25L769.16,400.73L769.52,353.83L769.76,502.43L769.94,459.18L769.95,437.65L770.14,477.87L770.73,345.83L770.75,343.2L771.08,454.54L771.27,325.96L771.57,422.58L771.59,401.45L771.74,330.39L771.99,446.05L772.35,383.55L772.37,406.85L772.71,351.41L772.96,490.48L773.13,446.67L773.15,428.33L773.34,480.17L773.64,347.96L773.91,372.3L773.93,362.1L773.97,374.91L774.08,349.34L774.16,374.17L774.17,404.53L774.25,467.57L774.55,347.33L774.88,369.69L774.9,358.34L775.16,460.96L775.37,342.53L775.54,396.38L775.56,421.53L775.92,352.03L776.13,500.98L776.32,449.24L776.34,430.75L776.53,472.53L776.74,334.21L777.12,339.77L777.14,337.86L777.27,330.64L777.9,453.33L777.98,406.13L778,377.18L778.36,455.38L778.57,340.86L778.72,371.15L778.74,394.27L779.1,353.74L779.33,500.86L779.52,453.38L779.54,434.48L779.73,481.41L780.01,348.01L780.3,362.65L780.31,352.47L780.45,369.99L780.47,347.52L780.54,368.26L780.56,393.49L780.69,473.46L781.25,355.29L781.28,358.85L781.3,351.37L781.36,369.22L781.38,347.33L781.4,346.67L781.45,365.9L781.47,393.89L781.76,348.88L782.06,468.42L782.22,407.05L782.23,407.48L782.31,352.95L782.39,419.6L782.41,440.23L782.52,496.93L783.07,338.37L783.09,348.29L783.11,335.14L783.39,445.37L783.6,319.53L783.76,373.82L783.77,402.15L784.04,323.38L784.29,443.76L784.46,349.27L784.48,337.98L784.5,329.83L784.74,445.98L785.1,366.13L785.12,388.61L785.5,346.36L785.71,487.93L785.9,435.8L785.92,420.03L786.11,464.34L786.32,329.2L786.7,349.06L786.72,347.35L787.02,454.42L787.25,340.17L787.54,432.95L787.56,402.95L787.94,450.19L788.15,332.54L788.3,365.4L788.32,388.74L788.68,353.38L788.91,497.15L789.1,450.09L789.12,434.04L789.31,477.19L789.61,346.77L789.88,360.64L789.89,347.08L789.97,339.94L790.12,363.89L790.14,393.79L790.22,454.52L790.43,331.89L790.85,351.42L790.86,340.58L790.88,330.02L791.13,448.73L791.51,389.5L791.53,416.04L791.89,357.67L792.1,499.87L792.31,445.04L792.33,407.88L792.5,475.37L793.18,347.87L793.2,351.09L793.26,340.36L793.41,456.76L793.96,379.23L793.98,365.55L794.32,465.45L794.63,345.29L794.69,370.79L794.7,397.18L795.08,349.84L795.29,500.6L795.48,448.38L795.5,433.35L795.69,471.52L796.28,342.55L796.3,341.33L796.36,334.1L796.66,479.11L797.14,405.22L797.16,368.41L797.29,323.82L797.52,440.11L797.88,357.81L797.9,380.3L798.28,342.44L798.51,481.64L798.68,428.98L798.7,423.79L798.91,443.12L799.57,291.49L799.59,297.23L799.82,415.11L800.03,283.69L800.35,348L800.37,324.49L800.48,290.69L800.73,416.09L801.07,349.31L801.09,366.03L801.49,361.99L801.7,483.59L801.89,434.33L801.91,423.7L802.08,453.2L802.31,311.18L802.69,325.81L802.71,336.76L803.01,430.6L803.22,309.1L803.35,340.71L803.37,361.59L803.68,312.8L803.92,431.76L804.09,349.14L804.11,341.36L804.13,339.63L804.28,380.05L804.3,405.61L804.68,363.9L804.89,495.01L805.08,443.93L805.1,431.97L805.27,470.02L805.5,330.01L805.92,337.06L805.94,326.01L805.96,320.39L806.22,445.2L806.24,458.99L806.26,458.82L806.28,446.77L806.87,326.28L807.06,421.68L807.08,433.72L807.33,335.1L807.61,454.25L807.69,396.43L807.71,394.28L807.88,360.32L808.09,488.07L808.52,435.44L808.54,414.58L808.94,437.04L809.15,309.82L809.3,364.52L809.32,395.21L809.38,434.8L809.61,309.01L809.99,317.05L810.01,325.19L810.06,299.76L810.31,421.79L810.65,347.09L810.67,363.55L811.07,362.56L811.28,484.74L811.47,444.31L811.49,432.34L811.89,364.21L812.17,471.83L812.23,441.68L812.25,428.11L812.59,455.09L812.8,320.17L812.99,424.02L813.01,437.38L813.26,323.11L813.5,445.09L813.58,380.94L813.6,360.75L813.71,343.67L814,467.43L814.28,386.78L814.3,404.18L814.45,502.35L814.99,355.91L815.01,348.07L815.33,448.17L815.54,322.34L815.82,421.83L815.84,403.31L816.24,438.38L816.45,313.68L816.6,367.16L816.62,392.1L816.91,311L817.19,441.74L817.36,383.85L817.38,386.61L817.46,351.26L817.67,470.46L817.88,414.88L817.89,391.12L818.07,442.03L818.28,294.89L818.73,299.05L818.75,304.61L819.43,443.31L819.53,359.85L819.55,345.63L819.64,331.77L819.87,441.32L819.89,441.76L820.1,318.86L820.39,441.84L820.67,366.13L820.69,382.79L820.86,477.56L821.37,342.55L821.39,337.69L821.72,438.88L821.92,301.92L822.23,394.27L822.25,360.54L822.38,295.36L822.63,417.67L822.99,353.83L823.01,377.45L823.27,305.88L823.58,429.68L823.75,382.16L823.77,383.46L823.84,349.15L823.94,417.89L823.96,430.3L824.05,462.38L824.32,363.9L824.53,364.53L824.55,338.14L824.91,420.53L825.12,294.78L825.27,352.56L825.29,377.81L825.57,314.34L825.82,435.94L825.99,351.57L826.01,343.04L826.03,341.61L826.11,372.73L826.16,366.37L826.18,386L826.49,349.11L826.77,459.29L826.94,406.45L826.96,407.51L827.04,366.82L827.1,406.87L827.11,424.68L827.25,482.46L827.76,349.77L827.78,346.4L828.1,441.42L828.31,329.91L828.63,380.05L828.65,356.93L829.02,430.84L829.22,325.12L829.38,351.99L829.4,375.29L829.68,333.33L829.98,448.25L830.16,399.62L830.17,399.58L830.23,355.37L830.27,398.72L830.29,416.97L830.44,474.06L830.94,376.35L830.95,359.96L831.33,415.21L831.51,317.27L831.68,367.51L831.7,385.83L831.96,326.78L832.25,416.14L832.4,331.89L832.42,330.61L833.18,447.69L833.33,407.86L833.35,408.33L833.41,384.21L833.43,354.57L833.63,473.01L834.15,352.48L834.17,344.98L834.24,326.24L834.3,373.39L834.41,366.39L834.43,385.14L834.49,410.2L834.7,299.97L835.06,325.28L835.08,320.74L835.16,301.2L835.4,402.02L835.52,316.47L835.54,313.21L835.61,295.69L836.37,413.45L836.41,380.02L836.43,369.74L836.62,335.16L836.83,445.82L837.15,369.6L837.17,386.62L837.23,408.55L837.44,277.31L837.78,313.34L837.8,299.23L837.89,278.27L837.93,308.44L837.95,339.92L838.33,276.93L838.6,394.38L838.67,339.6L838.69,316.45L838.79,291.29L839.05,403.54L839.39,328.8L839.41,341.66L839.81,339.63L840.02,449.77L840.21,406.88L840.23,402.77L840.42,415.17L840.63,288.05L841.09,298.04L841.1,301.73L841.33,402.52L841.54,292.19L841.87,344.02L841.88,322.77L842,296.08L842.25,408.24L842.59,333.78L842.61,346.13L843.01,344.08L843.21,458.7L843.4,417.59L843.42,412.69L843.61,428.27L844.28,278.83L844.3,284.6L844.32,309.04L844.53,401.33L844.74,290.34L845.06,337.2L845.08,315.59L845.19,289.77L845.44,403.76L845.78,326.25L845.8,339.5L846.2,337.78L846.41,450.18L846.6,405.61L846.62,400.9L846.81,416.03L847.02,277.95L847.49,291.67L847.51,313.94L847.93,286.2L848.18,401.43L848.25,339.79L848.27,318.67L848.39,287.5L848.63,402.07L848.99,332.32L849.01,354.99L849.39,331.55L849.6,446.54L849.79,399.83L849.81,395.99L850,414.36L850.67,277.08L850.69,282.36L850.7,307.69L851.12,278.72L851.37,401.87L851.45,340.51L851.46,317.56L851.58,281.74L851.83,401.55L852.17,320.58L852.19,332.98L852.59,329.78L852.8,448.64L852.99,406.61L853,401.37L853.19,417.38L853.86,280.75L853.88,285.04L854.11,398L854.32,268.03L854.64,329.08L854.66,303.75L854.77,261.29L855.02,390.19L855.38,318.43L855.4,339.77L855.78,315.38L855.97,436.58L856.18,384.62L856.2,362.93L856.39,401.2L856.58,250.46L857,285.85L857.02,267.52L857.3,386.71L857.49,257.01L857.68,345.12L857.7,364.55L857.76,387.63L857.95,252.7L858.31,287.9L858.33,275.25L858.36,291.61L858.4,267.39L858.44,290.1L858.46,322.69L858.54,311.26L859.16,449.08L859.37,410.76L859.39,382.11L859.62,437.07L859.87,343.83L860.11,407.28L860.13,396.23L860.49,412.64L860.68,296.04L860.89,378.82L860.91,388.87L861.14,273.03L861.41,397.19L861.46,359.05L861.48,321.02L861.6,272.36L861.9,416.86L862.2,349.87L862.22,363.47L862.36,442.99L862.87,305.57L862.89,290.45L862.97,275.9L863.14,338.21L863.16,363.21L863.23,398.68L863.42,267.63L863.86,278.94L863.88,267.79L863.93,310.19L863.95,319.05L864.14,394.1L864.33,262.39L864.62,384.82L864.64,376.97L864.79,267.17L865.09,408.76L865.38,333.77L865.4,347.77L865.55,439.66L866.06,309.25L866.08,295.87L866.16,283.87L866.33,344.61L866.35,367.41L866.61,282.98L866.86,407.68L867.03,305.79L867.05,288.65L867.07,278.71L867.34,402.42L867.68,319.96L867.7,340.8L867.98,286.4L868.29,423.68L868.48,383.36L868.5,378.75L868.74,467.42L869.28,328.58L869.29,325.45L869.6,433.81L869.81,308.41L870.13,382.4L870.15,348.75L870.51,425.72L870.72,299.09L870.87,335.05L870.89,359.87L871.18,292.2L871.48,427.01L871.63,366.89L871.65,369.93L871.73,323.69L871.94,458.84L872.39,405.81L872.41,380.16L872.55,301.32L872.79,420.3L873.15,341.67L873.17,365.96L873.46,309.7L873.71,432.19L873.88,334.23L873.9,322.22L873.91,311.52L874.16,432.68L874.56,402L874.58,420.41L874.92,342.99L875.13,481.89L875.32,434.9L875.34,420.83L875.53,456.66L875.74,317.6L876.12,319.16L876.14,316.65L876.44,425.96L876.65,303.11L876.97,378.67L876.99,344.5L877.11,300.96L877.37,422.13L877.72,342.52L877.73,362.08L878.1,328.91L878.32,463.86L878.51,418.05L878.53,404.28L878.72,436.8L878.93,297.2L879.31,306.75L879.33,303.1L879.39,294.18L880.09,428.79L880.17,388.11L880.19,358.55L880.3,330.77L880.62,475.15L880.89,392.64L880.91,401.02L881.29,348.71L881.52,477.68L881.69,445.26L881.71,439.85L881.92,452L882.13,317.56L882.53,326.06L882.54,339.03L882.58,319.33L882.83,438.72L883.21,379.66L883.23,404.23L883.49,320.47L883.8,453.39L883.97,404.77L883.99,403.24L884.25,455.27L884.48,342.96L884.62,446.71L884.64,457.18L884.71,481.37L885.24,346.56L885.26,341.36L885.57,447.74L885.78,322.71L886.1,394.36L886.12,361.09L886.31,322.18L886.48,436.71L886.84,359.55L886.86,383.7L887.22,341.59L887.45,459.45L887.62,412.26L887.64,410.39L887.68,352.2L887.92,497.82L888.28,488.14L888.3,493.77L888.36,505.96L888.44,462.91L888.46,455.45L888.76,479.28L889.05,339.52L889.14,399.28L889.16,424.35L889.22,459.17L889.5,332.7L889.81,345.26L889.82,341.75L889.96,328.96L890.6,449.37L890.68,416.83L890.7,404.15L890.87,336.62L891.12,485.98L891.4,402.15L891.42,420.27L891.5,465.61L891.78,333.81L892.09,345.49L892.11,342.45L892.41,451.07L892.69,325.82L892.92,417.52L892.94,397.13L893.15,330.65L893.32,452.25L893.68,369.67L893.7,394L894.06,339.03L894.29,487.97L894.48,452.23L894.5,423.17L894.69,466.12L894.98,326.95L895.28,337.22L895.3,335.2L895.43,320.49L896.06,447.5L896.12,413.64L896.14,394.55L896.34,324.43L896.52,447.44L896.88,371.68L896.9,391.93L897.26,341.73L897.5,486.98L897.66,445.91L897.68,434.95L897.88,470.18L898.17,326.45L898.45,355.12L898.47,343.63L898.63,321.87L898.72,392.9L898.74,419.48L898.8,453.45L899.08,325.2L899.39,347.01L899.41,344.15L899.54,325.63L900.18,451.75L900.22,450.84L900.24,440.39L900.45,340.16L900.7,488.94L900.98,411.76L901,430.99L901.08,477.16L901.36,334.9L901.67,354.43L901.69,351.98L901.99,460.21L902.28,332.82L902.52,405.45L902.54,379.44L902.73,333.51L902.9,456.54L903.26,373.93L903.28,398.78L903.64,342.32L903.89,496.11L904.06,444.8L904.08,412.1L904.27,471.61L904.56,331.29L904.86,341.67L904.88,339.78L905.18,450.41L905.47,319.76L905.72,396.46L905.73,368.75L905.93,319.19L906.1,442.92L906.46,365.79L906.48,386.57L906.84,340.15L907.08,498.28L907.26,451.59L907.27,417.68L907.46,478.42L907.75,331.2L908.04,361.51L908.05,349.64L908.21,328.06L908.32,421.39L908.34,438.31L908.66,329.2L908.89,463.25L909.02,413.12L909.04,414.5L909.08,415.95L909.1,390.77L909.12,349.44L909.57,339.79L909.8,469.32L909.92,414.41L909.94,415.29L909.97,417.04L910.01,388.47L910.03,344.98L910.28,495.47L910.77,369.83L910.79,357.07L911.11,458.13L911.4,329.87L911.48,368.37L911.49,397.93L911.86,332.53L912.03,461.95L912.2,366.53L912.22,358.49L912.31,330.42L912.48,463.5L912.84,379.3L912.86,402.71L913.22,345.45L913.47,500.77L913.64,453.46L913.66,422.83L913.85,483.2L914.14,338.5L914.42,373.1L914.44,361.88L914.59,334L914.67,375.78L914.69,406.22L914.76,465.38L915.05,331L915.39,368.63L915.41,359.58L915.51,330.56L915.68,461.96L916.04,378.74L916.06,400.74L916.42,348.03L916.67,502.38L916.84,455.25L916.86,423.87L917.05,486.55L917.33,347.9L917.6,397.92L917.62,385.29L917.96,473.83L918.24,339.01L918.34,411.98L918.36,438.1L918.41,469.08L918.7,336.92L919.02,362.11L919.04,373.5L919.16,340.11L919.35,467.76L919.67,400.3L919.69,419.94L919.86,505.58L920.37,370.6L920.39,368.49L920.69,465.31L920.98,336.97L921.23,414.68L921.25,388.66L921.61,462.84L921.89,334.46L921.97,376.58L921.99,403.15L922.35,337.56L922.54,466.21L922.75,419.69L922.77,416.67L922.8,349.93L923.05,500.46L923.41,477.54L923.43,480.83L923.51,426.09L923.53,395.27L923.72,338.78L923.89,464.68L924.25,381.66L924.27,411.08L924.34,470.29L924.63,336.55L924.97,375.75L924.99,364.46L925.09,336.09L925.26,464.23L925.62,379.86L925.64,405.98L926,350.01L926.25,501.65L926.42,457.8L926.44,432.85L926.63,484.73L926.91,338.99L927.2,374.49L927.22,363.51L927.25,372.08L927.27,360.92L927.29,352.73L927.35,362.95L927.37,335.53L927.82,332.38L927.99,461.66L928.07,414.31L928.09,388.28L928.28,332.99L928.45,460.72L928.81,380.18L928.83,405.25L929.19,349.36L929.44,500.11L929.61,454.31L929.63,430.83L929.82,484.36L930.1,345.14L930.39,375.7L930.41,363.76L930.56,341.93L930.64,379.51L930.66,408.58L930.73,466.69L931.02,337.51L931.38,360.61L931.4,352.82L931.42,352.64L931.43,355.4L931.45,364.44L931.47,339.49L932.12,462.75L932.14,462.62L932.18,454.23L932.2,433.69L932.39,352.64L932.63,500.46L932.94,442.3L932.96,461.45L933.01,482.3L933.3,344.8L933.62,355.68L933.64,368.34L933.93,458.92L934.21,329.32L934.31,392.39L934.32,419.3L934.67,333.47L934.84,454.93L935.01,362.25L935.03,352.29L935.12,338.12L935.31,456.86L935.65,404.1L935.67,423.51L935.81,491.83L936.34,358.16L936.36,353.4L936.49,340.53L937.12,457.75L937.19,405.51L937.21,379.55L937.57,456.14L937.86,331.91L937.94,368.54L937.96,392.14L938.32,334.53L938.51,452.62L938.7,400.84L938.72,400.88L938.77,342.98L938.89,441.33L938.91,457.5L939,490.64L939.55,355.48L939.57,368.69L939.59,360.81L939.86,462.09L940.16,339.47L940.22,371.83L940.24,401.53L940.31,465.39L940.6,339.69L940.94,365.98L940.96,355.54L941.05,338.99L941.22,459.66L941.6,396L941.62,421.64L941.97,350.83L942.19,497.95L942.38,448.12L942.4,430.77L942.59,475.72L942.9,338.5L943.18,347.69L943.2,342.31L943.51,451.89L943.73,323.9L944.04,400.95L944.06,371.96L944.19,331.85L944.42,449.96L944.78,365.33L944.8,389.86L945.18,348.38L945.39,495.31L945.58,447.13L945.6,428.79L945.79,470.92L946.01,336.01L946.38,349.73L946.39,347.63L946.93,332.3L947.21,466.36L947.27,430.99L947.29,421.28L947.63,459.8L947.92,348.39L947.99,394.88L948.01,418.9L948.37,352.97L948.58,489.49L948.77,436.19L948.79,421.37L948.98,460.93L949.21,319.57L949.57,330.01L949.59,326.65L949.66,313.14L949.91,439.71L950.42,391.17L950.44,360.32L950.58,306.33L950.82,432.39L951.17,352.27L951.19,371.06L951.57,343.2L951.77,486.51L951.96,434.18L951.98,419.47L952.17,459.2L952.4,318.12L952.76,334.16L952.78,328.73L953.09,439.15L953.31,316.51L953.62,389.24L953.64,358.33L953.75,307.84L954,433.72L954.36,352.02L954.38,372.8L954.76,341.65L954.97,481.84L955.16,438.1L955.18,421.66L955.37,458.32L955.58,325.57L955.96,339.72L955.98,334.06L956.28,438.7L956.51,313.44L956.79,418.88L956.81,388.64L956.94,315.1L957.21,439.19L957.55,365.27L957.57,384.78L957.95,353.71L958.16,493.99L958.35,436.46L958.37,421.69L958.58,459.47L958.77,335.11L959.15,343.45L959.17,341.92L959.32,334.15L959.93,453.69L960.01,404.38L960.02,374.4L960.39,439.42L960.59,304.89L960.77,367.66L960.78,393.53L961.15,346.92L961.35,484.38L961.55,438.13L961.56,421.6L961.75,456.27L961.98,309.72L962.36,311.35L962.38,322.26L962.69,424.09L962.88,288.77L963.05,357.81L963.07,381.27L963.18,447.83L963.77,326.06L963.79,318.26L964.09,445.09L964.3,386.88L964.32,350.85L964.34,342.87L964.57,475.52L964.89,419.14L964.91,435.41L964.97,449.85L965.18,322.02L965.5,369.07L965.52,348.13L965.88,425.56L966.09,298.62L966.24,346.62L966.26,372.96L966.34,418.73L966.54,297.29L966.94,322.92L966.96,313.96L967,301.65L967.29,423.91L967.59,373.18L967.61,379.76L967.76,463.98L968.29,337.83L968.31,349.54L968.33,345.45L968.62,439.43L968.83,329.26L968.98,371.09L969,398.67L969.07,436.82L969.28,313.04L969.68,337.09L969.7,330.66L969.98,425.82L970.19,307.83L970.35,363.26L970.37,388.44L970.75,337.4L970.95,465.49L971.13,425.16L971.14,417.76L971.33,442.74L972.02,316.62L972.04,319.62L972.78,463.66L972.89,419.04L972.91,418.06L972.93,418.98L972.99,409.18L973.01,380.7L973.18,455.09L973.39,344.36L973.73,403.16L973.75,394.14L973.94,354.1L974.05,440.16L974.07,448.16L974.15,471.42L974.4,374.05L974.6,408.05L974.62,378.68L974.76,327.94L974.98,438.14L975.36,377.28L975.38,404.29L975.46,442.33L975.67,332.28L976.05,334.82L976.07,343.87L976.37,432.56L976.58,311.53L976.73,362.14L976.75,385.41L977.13,357.25L977.32,483.8L977.53,429.67L977.55,421.59L977.72,455.64L977.95,318.45L978.37,328.52L978.39,315.63L978.41,310.6L978.63,434.96L978.65,441.55L978.69,452.74L978.75,414.98L978.77,402.9L979.11,428.76L979.32,289.36L979.49,377.7L979.51,399.03L979.77,307.03L980.06,435.1L980.23,385.38L980.25,386.02L980.33,348.41L980.38,394.19L980.4,411.09L980.53,468.98L981.07,354.06L981.09,359.58L981.39,438.99L981.6,312.41L981.75,368.49L981.77,391.83L982.06,318.73L982.28,433.95L982.45,339.41L982.47,334.61L982.76,434.41L982.97,311.68L983.12,358.94L983.14,382.52L983.52,348.28L983.73,468.38L983.92,421.59L983.94,412.42L984.11,437.22L984.77,301.92L984.79,298.53L985.02,424.41L985.55,388.76L985.57,363.29L985.71,317.31L985.95,428.6L986.31,367.03L986.33,390.71L986.71,347.66L986.92,473.52L987.09,424.83L987.11,416.84L987.32,438.46L987.99,291.95L988.02,316.84L988.04,342.06L988.08,323.52L988.14,346.96L988.16,371.17L988.23,417.03L988.44,294.75L988.84,320.78L988.86,312.38L988.9,297.72L989.15,410.64L989.51,351.11L989.53,372.7L989.91,338.67L990.12,458.2L990.31,412.24L990.32,405.56L990.51,428.53L990.7,296.05L991.16,313.17L991.18,308.8L991.43,420.21L991.5,357.88L991.52,336.48L991.88,412.77L992.09,287.64L992.24,337.39L992.26,361.43L992.55,287.46L992.83,417.11L993,359.46L993.02,360.93L993.1,330.82L993.21,409.25L993.23,418.06L993.31,445.72L993.57,348.52L993.77,389.6L993.78,355.34L994.16,411.31L994.37,292.21L994.53,339.68L994.54,364.26L994.83,299.47L995.08,410.01L995.25,323.64L995.27,315.36L995.29,314.02L995.36,353.22L995.44,345.38L995.46,369.25L995.74,329.65L996.03,428.64L996.22,388.42L996.24,389.74L996.29,349.84L996.39,412.22L996.41,425.82L996.75,361.9L996.96,476.56L997.17,445.29L997.19,424L997.36,449.78L998,327.61L998.02,326.23L998.21,391.01L998.23,403.42L998.27,413.16L998.48,325.7L998.84,355.39L998.86,352L998.94,347.43L999.7,465.56L999.87,422.34L999.89,417.69L999.94,354.11L1000,421.88" style="vector-effect: non-scaling-stroke; fill: none; stroke: rgb(99, 110, 250); stroke-opacity: 1; stroke-width: 2px; opacity: 1;"/></g><g class="points"/><g class="text"/></g><g class="trace scatter trace80391f" style="stroke-miterlimit: 2; opacity: 1;"><g class="fills"/><g class="errorbars"/><g class="lines"/><g class="points"><path class="point" transform="translate(0.13,529.55)" d="M5,0A5,5 0 1,1 0,-5A5,5 0 0,1 5,0Z" style="opacity: 1; stroke-width: 0px; fill: rgb(239, 85, 59); fill-opacity: 1;"/><path class="point" transform="translate(0.15,525.45)" d="M5,0A5,5 0 1,1 0,-5A5,5 0 0,1 5,0Z" style="opacity: 1; stroke-width: 0px; fill: rgb(239, 85, 59); fill-opacity: 1;"/><path class="point" transform="translate(413.98,34.45)" d="M5,0A5,5 0 1,1 0,-5A5,5 0 0,1 5,0Z" style="opacity: 1; stroke-width: 0px; fill: rgb(239, 85, 59); fill-opacity: 1;"/><path class="point" transform="translate(413.99,126.65)" d="M5,0A5,5 0 1,1 0,-5A5,5 0 0,1 5,0Z" style="opacity: 1; stroke-width: 0px; fill: rgb(239, 85, 59); fill-opacity: 1;"/></g><g class="text"/></g></g></g><g class="overplot"/><path class="xlines-above crisp" d="M119,664.5H1120" style="fill: none; stroke-width: 1px; stroke: rgb(255, 255, 255); stroke-opacity: 1;"/><path class="ylines-above crisp" d="M119.5,100V664" style="fill: none; stroke-width: 1px; stroke: rgb(255, 255, 255); stroke-opacity: 1;"/><g class="overlines-above"/><g class="xaxislayer-above"><g class="xtick"><text text-anchor="middle" x="0" y="696.2" transform="translate(120,0)" style="font-family: 'Open Sans', verdana, arial, sans-serif; font-size: 26px; fill: rgb(42, 63, 95); fill-opacity: 1; white-space: pre;">2012</text></g><g class="xtick"><text text-anchor="middle" x="0" y="696.2" transform="translate(286.97,0)" style="font-family: 'Open Sans', verdana, arial, sans-serif; font-size: 26px; fill: rgb(42, 63, 95); fill-opacity: 1; white-space: pre;">2013</text></g><g class="xtick"><text text-anchor="middle" x="0" y="696.2" transform="translate(453.49,0)" style="font-family: 'Open Sans', verdana, arial, sans-serif; font-size: 26px; fill: rgb(42, 63, 95); fill-opacity: 1; white-space: pre;">2014</text></g><g class="xtick"><text text-anchor="middle" x="0" y="696.2" transform="translate(620.01,0)" style="font-family: 'Open Sans', verdana, arial, sans-serif; font-size: 26px; fill: rgb(42, 63, 95); fill-opacity: 1; white-space: pre;">2015</text></g><g class="xtick"><text text-anchor="middle" x="0" y="696.2" transform="translate(786.53,0)" style="font-family: 'Open Sans', verdana, arial, sans-serif; font-size: 26px; fill: rgb(42, 63, 95); fill-opacity: 1; white-space: pre;">2016</text></g><g class="xtick"><text text-anchor="middle" x="0" y="696.2" transform="translate(953.5,0)" style="font-family: 'Open Sans', verdana, arial, sans-serif; font-size: 26px; fill: rgb(42, 63, 95); fill-opacity: 1; white-space: pre;">2017</text></g><g class="xtick"><text text-anchor="middle" x="0" y="696.2" transform="translate(1120.02,0)" style="font-family: 'Open Sans', verdana, arial, sans-serif; font-size: 26px; fill: rgb(42, 63, 95); fill-opacity: 1; white-space: pre;">2018</text></g></g><g class="yaxislayer-above"><g class="ytick"><text text-anchor="end" x="113.8" y="9.1" transform="translate(0,612.96)" style="font-family: 'Open Sans', verdana, arial, sans-serif; font-size: 26px; fill: rgb(42, 63, 95); fill-opacity: 1; white-space: pre;">40k</text></g><g class="ytick"><text text-anchor="end" x="113.8" y="9.1" transform="translate(0,554.99)" style="font-family: 'Open Sans', verdana, arial, sans-serif; font-size: 26px; fill: rgb(42, 63, 95); fill-opacity: 1; white-space: pre;">50k</text></g><g class="ytick"><text text-anchor="end" x="113.8" y="9.1" transform="translate(0,497.02)" style="font-family: 'Open Sans', verdana, arial, sans-serif; font-size: 26px; fill: rgb(42, 63, 95); fill-opacity: 1; white-space: pre;">60k</text></g><g class="ytick"><text text-anchor="end" x="113.8" y="9.1" transform="translate(0,439.05)" style="font-family: 'Open Sans', verdana, arial, sans-serif; font-size: 26px; fill: rgb(42, 63, 95); fill-opacity: 1; white-space: pre;">70k</text></g><g class="ytick"><text text-anchor="end" x="113.8" y="9.1" transform="translate(0,381.08)" style="font-family: 'Open Sans', verdana, arial, sans-serif; font-size: 26px; fill: rgb(42, 63, 95); fill-opacity: 1; white-space: pre;">80k</text></g><g class="ytick"><text text-anchor="end" x="113.8" y="9.1" transform="translate(0,323.11)" style="font-family: 'Open Sans', verdana, arial, sans-serif; font-size: 26px; fill: rgb(42, 63, 95); fill-opacity: 1; white-space: pre;">90k</text></g><g class="ytick"><text text-anchor="end" x="113.8" y="9.1" transform="translate(0,265.14)" style="font-family: 'Open Sans', verdana, arial, sans-serif; font-size: 26px; fill: rgb(42, 63, 95); fill-opacity: 1; white-space: pre;">100k</text></g><g class="ytick"><text text-anchor="end" x="113.8" y="9.1" transform="translate(0,207.17000000000002)" style="font-family: 'Open Sans', verdana, arial, sans-serif; font-size: 26px; fill: rgb(42, 63, 95); fill-opacity: 1; white-space: pre;">110k</text></g><g class="ytick"><text text-anchor="end" x="113.8" y="9.1" transform="translate(0,149.2)" style="font-family: 'Open Sans', verdana, arial, sans-serif; font-size: 26px; fill: rgb(42, 63, 95); fill-opacity: 1; white-space: pre;">120k</text></g></g><g class="overaxes-above"/></g></g><g class="polarlayer"/><g class="ternarylayer"/><g class="geolayer"/><g class="funnelarealayer"/><g class="pielayer"/><g class="treemaplayer"/><g class="sunburstlayer"/><g class="glimages"/><defs id="topdefs-ba8521"><g class="clips"/><clipPath id="legendba8521"><rect width="147" height="47" x="0" y="0"/></clipPath></defs><g class="layer-above"><g class="imagelayer"/><g class="shapelayer"/></g><g class="infolayer"><g class="legend" pointer-events="all" transform="translate(130, 105.64)"><rect class="bg" shape-rendering="crispEdges" width="147" height="47" x="0" y="0" style="stroke: rgb(68, 68, 68); stroke-opacity: 1; fill: rgb(255, 255, 255); fill-opacity: 1; stroke-width: 0px;"/><g class="scrollbox" transform="translate(0, 0)" clip-path="url('#legendba8521')"><g class="groups"><g class="traces" transform="translate(0, 23.400000000000002)" style="opacity: 1;"><text class="legendtext user-select-none" text-anchor="start" x="40" y="10.14" style="font-family: 'Open Sans', verdana, arial, sans-serif; font-size: 26px; fill: rgb(42, 63, 95); fill-opacity: 1; white-space: pre;">Outliers</text><g class="layers" style="opacity: 1;"><g class="legendfill"/><g class="legendlines"/><g class="legendsymbols"><g class="legendpoints"><path class="scatterpts" transform="translate(20,0)" d="M5,0A5,5 0 1,1 0,-5A5,5 0 0,1 5,0Z" style="opacity: 1; stroke-width: 0px; fill: rgb(239, 85, 59); fill-opacity: 1;"/></g></g></g><rect class="legendtoggle" pointer-events="all" x="0" y="-18.400000000000002" width="141.5625" height="36.800000000000004" style="cursor: pointer; fill: rgb(0, 0, 0); fill-opacity: 0;"/></g></g></g><rect class="scrollbar" rx="20" ry="3" width="0" height="0" x="0" y="0" style="fill: rgb(128, 139, 164); fill-opacity: 1;"/></g><g class="g-xtitle"><text class="xtitle" x="620" y="737.903125" text-anchor="middle" style="font-family: 'Open Sans', verdana, arial, sans-serif; font-size: 31px; fill: rgb(42, 63, 95); opacity: 1; font-weight: normal; white-space: pre;">Date</text></g><g class="g-ytitle" transform="translate(18.8876953125,0)"><text class="ytitle" transform="rotate(-90,12.112499999999997,382)" x="12.112499999999997" y="382" text-anchor="middle" style="font-family: 'Open Sans', verdana, arial, sans-serif; font-size: 31px; fill: rgb(42, 63, 95); opacity: 1; font-weight: normal; white-space: pre;">Demand</text></g></g></svg>