<svg class="main-svg" xmlns="http://www.w3.org/2000/svg" xmlns:xlink="http://www.w3.org/1999/xlink" width="1200" height="750" style="" viewBox="0 0 1200 750"><rect x="0" y="0" width="1200" height="750" style="fill: rgb(255, 255, 255); fill-opacity: 1;"/><defs id="defs-f3cc7c"><g class="clips"><clipPath id="clipf3cc7cxyplot" class="plotclip"><rect width="1017" height="564"/></clipPath><clipPath class="axesclip" id="clipf3cc7cx"><rect x="103" y="0" width="1017" height="750"/></clipPath><clipPath class="axesclip" id="clipf3cc7cy"><rect x="0" y="100" width="1200" height="564"/></clipPath><clipPath class="axesclip" id="clipf3cc7cxy"><rect x="103" y="100" width="1017" height="564"/></clipPath></g><g class="gradients"/></defs><g class="bglayer"><rect class="bg" x="103" y="100" width="1017" height="564" style="fill: rgb(229, 236, 246); fill-opacity: 1; stroke-width: 0;"/></g><g class="layer-below"><g class="imagelayer"/><g class="shapelayer"/></g><g class="cartesianlayer"><g class="subplot xy"><g class="layer-subplot"><g class="shapelayer"/><g class="imagelayer"/></g><g class="gridlayer"><g class="x"><path class="xgrid crisp" transform="translate(230.04000000000002,0)" d="M0,100v564" style="stroke: rgb(255, 255, 255); stroke-opacity: 1; stroke-width: 1px;"/><path class="xgrid crisp" transform="translate(357.43,0)" d="M0,100v564" style="stroke: rgb(255, 255, 255); stroke-opacity: 1; stroke-width: 1px;"/><path class="xgrid crisp" transform="translate(484.47,0)" d="M0,100v564" style="stroke: rgb(255, 255, 255); stroke-opacity: 1; stroke-width: 1px;"/><path class="xgrid crisp" transform="translate(611.51,0)" d="M0,100v564" style="stroke: rgb(255, 255, 255); stroke-opacity: 1; stroke-width: 1px;"/><path class="xgrid crisp" transform="translate(738.55,0)" d="M0,100v564" style="stroke: rgb(255, 255, 255); stroke-opacity: 1; stroke-width: 1px;"/><path class="xgrid crisp" transform="translate(865.93,0)" d="M0,100v564" style="stroke: rgb(255, 255, 255); stroke-opacity: 1; stroke-width: 1px;"/><path class="xgrid crisp" transform="translate(992.97,0)" d="M0,100v564" style="stroke: rgb(255, 255, 255); stroke-opacity: 1; stroke-width: 1px;"/></g><g class="y"><path class="ygrid crisp" transform="translate(0,603.19)" d="M103,0h1017" style="stroke: rgb(255, 255, 255); stroke-opacity: 1; stroke-width: 1px;"/><path class="ygrid crisp" transform="translate(0,498.3)" d="M103,0h1017" style="stroke: rgb(255, 255, 255); stroke-opacity: 1; stroke-width: 1px;"/><path class="ygrid crisp" transform="translate(0,393.4)" d="M103,0h1017" style="stroke: rgb(255, 255, 255); stroke-opacity: 1; stroke-width: 1px;"/><path class="ygrid crisp" transform="translate(0,288.51)" d="M103,0h1017" style="stroke: rgb(255, 255, 255); stroke-opacity: 1; stroke-width: 1px;"/><path class="ygrid crisp" transform="translate(0,183.62)" d="M103,0h1017" style="stroke: rgb(255, 255, 255); stroke-opacity: 1; stroke-width: 1px;"/></g></g><g class="zerolinelayer"/><path class="xlines-below"/><path class="ylines-below"/><g class="overlines-below"/><g class="xaxislayer-below"/><g class="yaxislayer-below"/><g class="overaxes-below"/><g class="plot" transform="translate(103, 100)" clip-path="url('#clipf3cc7cxyplot')"><g class="scatterlayer mlayer"><g class="trace scatter trace03a21c" style="stroke-miterlimit: 2; opacity: 1;"><g class="fills"/><g class="errorbars"/><g class="lines"><path class="js-line" d="M0,445.82L0.12,535.8L0.65,335.02L0.67,353.92L0.74,481.47L1.26,266.02L1.44,434.15L1.45,435.32L1.96,238.08L2.16,405.1L2.18,397.46L2.31,239.99L2.87,467L2.89,476.34L3.35,216.68L3.74,298.08L3.76,301.83L3.89,407.36L4.05,220.8L4.51,278.18L4.52,327.1L4.74,216.76L5.32,477.88L5.34,463.44L6.13,207.54L6.18,303.44L6.19,315.29L6.32,404.35L6.48,205.31L6.95,279.05L6.96,325.02L7.16,211.85L7.76,470.86L7.77,455.24L7.79,438.54L8.22,205.6L8.61,301.2L8.63,318.29L8.76,391.98L9.27,183.61L9.38,257.68L9.4,303.94L9.6,185.86L10.18,435.64L10.2,454.74L10.66,186.09L11.05,295.41L11.07,307.06L11.54,386.85L11.7,192.65L11.82,262.08L11.83,355.83L12.05,198.52L12.6,430.51L12.62,440.81L12.63,457.84L13.1,194.05L13.31,340.74L13.33,320.81L13.63,377.94L13.79,185.73L14.1,222.36L14.11,207.41L14.14,187.26L14.66,376.07L14.68,381.01L14.73,349.33L14.75,320.8L15.07,460.44L15.53,199.79L15.55,208.25L15.56,240.38L16.07,393.23L16.23,197.58L16.3,245.54L16.32,241.68L16.34,279.94L16.36,331.77L16.42,393.15L16.92,194.7L17.11,392.6L17.13,391.82L17.34,245.95L17.49,468.2L17.77,404.86L17.78,418.04L17.79,425.5L17.95,189.55L18.23,219.59L18.24,196.72L18.27,219.04L18.29,197.93L18.3,181.57L18.33,196.26L18.35,244.07L18.65,186.99L18.84,390.9L19.08,225.8L19.1,216.11L19.35,189.9L19.93,467.99L19.94,460L20.39,223.47L20.85,272.11L20.87,320.71L21.1,238.76L21.62,429.78L21.64,427.26L21.65,411.28L21.78,244.06L22.01,448.51L22.28,426.92L22.29,452.11L22.36,504.65L22.9,301.81L23.04,458.08L23.06,474.09L23.87,220.06L23.94,232.05L23.96,244.11L24.07,420.25L24.22,218.13L24.38,382.24L24.39,404.81L24.64,231.39L24.8,486.29L24.97,321.37L24.99,289.15L25.1,452.21L25.26,222.51L25.54,252.18L25.55,232.78L25.57,232.57L25.58,252.81L25.63,219.24L25.8,423.3L26.13,416.23L26.15,422.57L26.19,382.29L26.21,340.04L26.66,209.69L26.89,426.98L26.96,322.21L26.97,332.4L27.08,238.4L27.13,357.49L27.15,397.37L27.24,491.06L27.7,236.01L27.9,425.1L27.92,408.65L28.24,427.72L28.69,222.67L28.73,225.46L28.74,209.73L28.77,218L28.79,251.4L29.09,201.3L29.32,417.94L29.47,332.02L29.48,325.47L29.67,477.82L30.15,203.38L30.24,230.9L30.25,259.02L30.48,206.96L31.02,420.74L31.05,402.01L31.06,375.09L31.37,424.03L31.53,213.44L31.82,313.62L31.83,315.15L31.95,233.14L32.11,482.74L32.5,267.31L32.51,245.75L32.59,231.21L32.72,374.11L32.73,405.98L32.92,224.45L33.11,434.99L33.28,231.41L33.3,239.1L33.46,432.13L33.96,224.92L34.05,259.99L34.07,251.79L34.38,244.54L34.54,502.17L34.88,445.79L34.89,409.54L35.2,424.29L35.36,217.83L35.7,219.11L35.72,217.79L35.89,418.32L36.07,199.07L36.31,269.53L36.33,238.29L36.4,205.16L36.95,452.95L36.97,459.1L36.98,476.73L37.46,212.4L37.66,399.31L37.68,373.9L37.85,220.54L38.37,456.16L38.42,397.97L38.43,386.43L38.46,388.36L38.53,362.65L38.55,263.55L38.72,510.93L39.2,402.6L39.21,398.87L39.42,505.64L39.94,226.24L39.98,260.91L40,287.26L40.64,228.86L40.77,446.8L40.78,441.25L41.11,446.93L41.33,227.43L41.56,336.58L41.58,337.73L41.68,232.99L41.85,508.02L42.25,285.51L42.26,266.81L42.38,234.75L42.46,392.33L42.48,424.4L42.85,455.58L43.07,234.99L43.23,427.98L43.25,395.5L43.77,226.62L43.91,441.48L44.01,349.42L44.03,359L44.07,366.8L44.1,326.56L44.12,234.69L44.29,506.48L44.81,231.45L44.94,442.79L44.96,438.42L45.51,219.83L45.64,449.3L45.78,268.34L45.8,254.9L45.86,227.52L45.94,391.59L45.96,422.67L46.2,238.16L46.74,510.42L46.76,489.13L47.03,493.39L47.6,242.01L47.61,263.91L47.63,279.97L47.65,313.54L47.67,372.6L47.73,463.7L48.29,237L48.42,460.55L48.44,457.21L48.99,234.43L49.13,508.81L49.15,513.62L49.16,526.78L49.68,239.25L49.71,280.16L49.73,278.86L49.82,461.27L50.38,221.66L50.53,450.49L50.54,432.12L50.73,222.75L51.22,461.1L51.31,354.26L51.32,356.62L51.43,235.65L51.61,519.3L51.98,337.52L51.99,310.34L52.25,466.74L52.47,228.37L52.57,442.75L52.59,457.74L52.6,463.09L52.82,234.19L53.03,302.31L53.05,286.01L53.08,306.32L53.17,230.4L53.22,304.38L53.24,352.09L53.51,233.58L54.01,507.79L54.02,511.27L54.05,525.05L54.21,287.43L54.41,344.67L54.43,313.99L54.56,239.68L55.04,471.26L55.18,294.95L55.2,280.69L55.21,280.88L55.22,278.18L55.24,263.18L55.25,230.61L55.38,462.84L55.98,278.1L55.99,272.07L56.3,234.7L56.49,526.51L56.81,476.3L56.82,436.13L56.99,241.13L57.12,470.58L57.6,313.24L57.62,300.9L57.69,233.23L58.17,464.92L58.39,241.86L58.4,263.05L58.73,230.87L58.92,519.53L59.24,467.61L59.26,423L59.56,460.37L59.78,227.65L60.04,294.74L60.05,281.08L60.13,235.4L60.3,473.76L60.55,397.27L60.56,439.28L61.17,248.98L61.36,523.85L61.37,504.56L62.21,237.55L62.26,280.79L62.27,307.25L62.35,468.36L62.91,230.05L63.06,456.32L63.07,441.33L63.61,235.18L63.78,517.64L63.8,518.14L64.65,242.51L64.67,259.98L64.68,273.3L64.69,271.28L64.74,412.5L64.75,445.33L64.78,468.34L65,236.64L65.29,275.13L65.3,274.51L65.33,272.19L65.35,238.03L66.23,531.17L66.25,507.95L67.09,237.89L67.1,256.33L67.12,274.18L67.22,460.4L67.44,233.48L67.51,349.54L67.52,400.94L67.78,239.11L67.91,459.12L68.29,453.4L68.31,451.82L68.48,239.73L68.67,516.9L69.15,271.69L69.16,271.63L69.31,456.42L69.87,224.87L69.9,261.49L69.92,259.78L70.22,228.9L70.35,449.79L70.71,445.73L70.73,442.68L70.9,334.16L70.92,245.48L71.1,516.41L71.54,294.68L71.55,282.8L71.57,282.03L71.6,288.31L71.61,244.12L71.74,460.63L71.96,233.04L72.22,295.91L72.24,276.7L72.31,226.84L72.44,451.05L73,234.08L73.02,244.95L73.35,234.82L73.54,498.43L73.85,472.14L73.86,448.41L74.4,231.07L74.64,260.56L74.66,283.79L74.74,224.14L75.22,448.46L75.4,277.04L75.41,284.38L75.79,237.04L75.96,509.17L76.12,391.4L76.14,282.1L76.27,473.12L76.41,253.93L76.43,239.93L76.48,234.25L76.54,274.99L76.56,330.03L76.83,228.17L77.31,436.25L77.33,433.62L77.34,416.25L77.53,230.42L77.66,439.64L78.04,435.76L78.05,436.24L78.23,233.65L78.4,503.91L78.89,269.06L78.91,285.23L79.05,434.92L79.62,210.72L79.66,241.51L79.68,262.38L79.97,221.75L80.1,434.75L80.44,424.47L80.46,427.68L80.49,430.58L80.65,322.16L80.66,237.97L80.73,375.24L80.75,413.2L80.85,500.94L81.36,241.97L81.5,445.05L81.52,426.35L81.84,444.7L82.05,227.18L82.31,272.6L82.33,254.65L82.4,223.41L82.89,432.73L83.01,340.25L83.03,344.37L83.11,235.18L83.18,407.92L83.2,439.88L83.27,501.08L83.75,216.39L83.92,421.18L83.94,419.19L84.08,203.81L84.62,437.21L84.64,435.36L84.85,241.87L85.33,452.08L85.35,451.32L85.36,455.17L85.55,239.11L85.71,517.69L86.17,247.5L86.19,243.34L86.23,238.17L86.36,440.04L86.43,294.94L86.45,267.46L86.52,232.16L86.75,461.07L87.2,252.06L87.22,235.77L87.27,229.92L87.35,320.46L87.36,370.92L87.99,228.01L88.14,498.17L88.16,493.13L88.17,469.02L88.45,469.71L88.96,224.22L89.07,263.83L89.09,321.81L89.36,226.96L89.84,435.02L89.86,431.07L89.87,417.34L90.42,235L90.51,444.67L90.52,464.08L90.58,508.67L90.77,285.66L90.96,314.28L90.97,284.81L91.12,237.56L91.23,438.93L91.58,437.77L91.6,434.15L92.44,207.65L92.45,213.52L93.02,504.41L93.18,385L93.19,297.46L93.32,472.09L93.9,230.06L93.95,267.84L93.96,326.37L94.02,428.11L94.54,207.29L94.71,412.63L94.73,413.02L94.87,196.36L95.11,426.32L95.37,391.8L95.38,421.76L95.45,491.2L95.93,235.31L95.96,268.22L95.98,245.37L96.11,438.39L96.69,227.37L96.72,235.32L96.73,266.75L96.8,426.75L97.32,202.57L97.5,413.06L97.51,414.62L97.73,222.74L97.89,487.92L98.05,375.11L98.06,291.75L98.19,446.86L98.37,204.73L98.82,264.22L98.83,310.62L98.93,464.86L99.4,213.6L99.6,406.27L99.62,401.44L99.75,206.32L100.31,467.48L100.33,475.5L100.34,491.33L100.88,249.78L101.02,388.63L101.04,359.4L101.23,251.25L101.68,451.47L101.79,268.1L101.81,289.09L102.02,449.18L102.2,258.33L102.37,447.79L102.39,450.64L102.62,259.19L102.68,416.84L102.69,449.76L102.78,509.7L103.23,236.94L103.24,233.36L103.42,426.02L103.59,216.41L103.91,238.94L103.92,220.85L103.94,215.81L104.07,349.35L104.08,389.02L104.13,416.81L104.63,203.34L104.69,264.54L104.71,239.29L105.21,483.03L105.55,411.66L105.56,374.72L105.68,259.06L106.24,485.3L106.27,461.15L106.29,433.46L106.55,473.79L107.07,245.28L107.11,299.04L107.13,278.54L107.49,249.74L107.65,497.08L107.85,305.24L107.87,328.28L107.94,460.65L108.46,212.82L108.64,420.92L108.65,418.59L109.16,191.14L109.32,381.35L109.33,390.62L109.36,393.85L109.39,319.91L109.41,263.62L109.49,189.25L110.09,477.55L110.1,457.69L110.12,437.81L110.62,263.29L110.77,452.37L110.9,376.53L110.91,376.63L110.97,259.79L111.01,355L111.03,403.98L111.07,456.73L111.59,231.56L111.78,423.79L111.8,407.53L111.94,224.92L112.49,476.46L112.51,499.53L112.99,213.15L113.13,379.82L113.15,399.71L113.16,406.3L113.34,200.78L113.65,236.61L113.67,218.67L113.86,412.96L114.03,206.55L114.16,341.94L114.18,380.14L114.38,188.95L114.96,472.54L114.97,454.18L115.77,194.76L115.87,236.29L115.89,284.48L116.12,193.72L116.66,407.05L116.67,390.72L116.82,219.07L117.03,428.11L117.29,388.5L117.31,418.63L117.38,488.05L117.86,197.85L118.05,401.06L118.06,385.76L118.38,399.91L118.56,176.6L118.7,361.85L118.72,382.2L118.9,203.03L119.08,395.35L119.31,260.07L119.32,232.07L119.47,408.27L119.66,291.41L119.67,246.42L119.82,480.45L120.19,292.82L120.21,247.04L120.48,398.71L120.64,184.34L120.98,188.16L120.99,183.27L121.18,396.93L121.31,226.5L121.33,209.63L121.51,400.82L121.69,205.15L121.8,271.67L121.82,324.86L122.11,239.11L122.27,461.86L122.59,416.94L122.6,402.59L123.08,177.29L123.41,181.82L123.43,181.19L123.97,381.08L124.18,301.45L124.2,250.52L124.23,237.42L124.68,464.11L124.69,487.64L124.7,501.83L125.26,276.47L125.39,421.31L125.4,395.8L125.87,260.23L126.05,429.51L126.18,293.85L126.2,283.76L126.3,276.96L126.37,421.64L126.39,432.94L126.63,289.51L126.79,474.31L126.95,383.7L126.97,324.08L126.98,273.18L127.14,533.21L127.71,287.8L127.72,329.46L127.79,445.07L128.3,230.14L128.49,414.12L128.5,405.2L128.82,407.5L128.98,215.78L129.13,328.27L129.14,368.95L129.42,254.95L129.58,472.8L129.91,397.79L129.93,360.13L130.04,213.15L130.58,407.36L130.69,243.21L130.71,225.46L130.93,407.87L131.09,201.99L131.45,214.72L131.46,239.78L132.01,468.86L132.23,293.27L132.25,327.32L132.3,429.52L132.83,186.21L133.01,388.36L133.03,376.41L133.17,187.14L133.71,390.27L133.84,214.52L133.86,199.69L133.88,212.84L133.9,238L133.97,236.47L134.45,466.25L134.65,272.44L134.67,286.68L134.76,418.71L135.25,170.6L135.44,368.38L135.45,372.28L135.61,181.82L136.07,268.3L136.09,320.13L136.31,203.47L136.87,463.54L136.89,477.55L137.7,175.77L137.74,264L137.76,280.82L137.89,386.33L138.4,162.33L138.51,234.35L138.53,284.11L138.73,150.14L139.31,421.98L139.32,441.55L140.14,125.28L140.25,209.26L140.27,258.23L140.32,336.98L140.48,122.4L141.03,321.89L141.05,293.78L141.17,142.51L141.73,418.59L141.75,425.38L141.76,443.62L142.22,170.28L142.44,320.04L142.46,298L142.76,372L142.92,158.17L143.22,203.41L143.24,183.2L143.27,160.18L143.85,381.9L143.92,316.6L143.93,318.6L144.01,328.23L144.02,298.3L144.04,234.76L144.2,449.3L144.76,283.75L144.78,308.29L144.89,411.6L145.36,201.49L145.54,367.8L145.56,353.35L146.05,157.49L146.26,364.81L146.33,276.44L146.34,277.42L146.47,211.84L146.62,447.5L146.98,296.31L146.99,226.4L147.27,362.32L147.78,127.16L147.79,128.81L147.98,352.29L148.46,152.78L148.47,135.36L148.71,374.11L148.88,246.08L148.89,192.7L149.05,443.11L149.45,184.15L149.46,158.11L149.52,132.5L149.65,237.14L149.66,286.58L149.87,130L150.42,352.92L150.43,340.26L150.45,323.61L150.56,135.4L151.14,373.07L151.2,262.83L151.22,265.13L151.33,188.31L151.49,443.97L151.88,191.75L151.9,164.47L151.95,141.13L152.09,250.81L152.1,300.2L152.3,136.98L152.49,370.53L152.85,358.27L152.87,345.15L153,150.71L153.55,389.21L153.56,388.07L153.58,397.24L153.93,466.1L154.39,193.85L154.41,193.07L154.58,392.16L154.75,173.4L155,232.64L155.01,201.99L155.28,370.54L155.44,149.36L155.61,364.2L155.62,371.7L155.65,357L155.67,332.77L155.78,175.69L156.36,458.65L156.39,427.16L156.41,408L156.67,412.75L156.84,157.39L157.28,203.23L157.29,227.55L157.52,198.14L157.71,406.49L158.09,378.83L158.1,351.11L158.22,186.06L158.79,445.82L158.8,464.67L159.61,168.49L159.73,228.38L159.74,278.83L159.96,158.27L160.55,448.93L160.57,429.14L161.08,226.33L161.24,467.5L161.32,409.86L161.34,415.09L161.35,417.07L161.4,364.27L161.41,275.48L161.54,434.63L162.05,177.41L162.16,232.51L162.18,285.27L162.24,389.22L162.74,160.82L162.93,378.42L162.95,375.96L163.09,156.52L163.63,415.41L163.64,422.42L163.67,446.76L163.83,340.44L163.85,246.27L163.86,244.31L163.93,375.32L163.95,403.26L163.98,419.58L164.48,189.65L164.5,189.68L164.83,180.95L165.02,400.25L165.17,200L165.18,183.38L165.3,234.64L165.31,285.72L165.53,184.61L166.11,472.01L166.12,469.87L166.14,445.43L166.41,447.46L166.98,191.53L166.99,211.37L167.01,227.03L167.11,406.71L167.33,178.74L167.73,242.48L167.75,290.45L168.02,194.59L168.53,458.14L168.55,470.73L169.07,232.78L169.24,484.65L169.26,483.75L170.11,203.4L170.13,225.93L170.81,202.51L170.98,487.72L171,486.94L171.01,462.79L171.29,466.44L171.85,205.24L171.9,236.46L171.91,266.92L171.98,432.84L172.55,193.94L172.68,421.99L172.69,418.81L173.04,420.62L173.24,193.84L173.32,349.71L173.33,392.42L173.42,477.92L173.94,200.4L173.97,238.61L173.98,235.96L174.29,201.18L174.77,444.35L174.78,440.83L174.8,422.6L174.98,208.79L175.11,446.99L175.56,343.29L175.58,346.28L175.68,222.59L175.87,508.23L176.25,284.14L176.26,261.43L176.38,215.06L176.46,399.27L176.48,430.92L176.51,450.12L177.07,200.24L177.1,250.29L177.12,244.19L177.2,445.08L177.77,199.48L177.91,435.74L177.93,434.25L178.12,202.1L178.26,484.6L178.28,487.58L178.29,500.13L178.8,224.55L178.81,194.98L178.94,434.12L179.16,189L179.49,217.33L179.51,191L179.99,436.29L180.34,433.9L180.35,435.97L180.55,210.71L180.61,333.75L180.63,374.84L180.74,497.32L181.25,201.26L181.39,419.82L181.41,400.95L181.6,192.49L182.12,449.58L182.16,395.66L182.18,375.16L182.42,461.11L182.64,227.99L182.77,450.22L182.79,453.34L182.83,433.78L182.84,395.11L182.99,215.38L183.18,504.36L183.69,218.91L183.7,237.31L183.82,446.07L184.03,203.18L184.37,244.04L184.38,207.38L184.86,443.49L185.12,259.96L185.14,283.47L185.43,214.59L185.61,506.79L185.92,474.43L185.93,451.41L186.47,199.32L186.76,228.37L186.77,222.27L186.82,193.19L186.91,356.24L186.92,394.74L187.17,189.36L187.66,432.22L187.67,428.21L187.69,426.58L187.86,203.36L188.05,504.78L188.51,257.87L188.53,258.04L188.69,447.39L188.91,214.44L188.98,345.92L188.99,397.41L189.04,447.6L189.25,204.36L189.63,252.25L189.65,253.52L189.95,210.49L190.47,502.14L190.49,506.25L191.34,207.45L191.36,235.34L191.47,438.47L191.69,206.15L192.18,429.8L192.2,413.48L192.39,217.42L192.91,498.29L192.92,503.7L193.78,216.59L193.82,254.11L193.84,282.29L193.91,444.48L194.13,205.32L194.61,430.51L194.62,428.83L194.82,215.13L195.29,471.74L195.3,481.36L195.36,510.21L195.5,374.04L195.52,277.27L195.65,481.15L195.87,223.66L196.2,240.65L196.22,213.1L196.56,212.13L196.69,446.77L197.06,442L197.07,428.37L197.26,219.93L197.72,475.43L197.74,487.08L197.8,513.85L197.96,273.34L198.16,316.48L198.17,283.94L198.43,434.88L198.65,206.02L198.77,425.89L198.78,433.5L198.84,340.6L198.85,292.29L199.13,435.64L199.35,206.76L199.62,249.21L199.64,237.53L199.7,218.07L199.84,435.8L200.03,314.21L200.04,213.88L200.22,506.25L200.62,254.46L200.64,256.47L200.87,444.2L201.09,215.01L201.38,249.22L201.39,246.23L201.42,259.95L201.44,213.93L201.48,236.12L201.49,266.18L201.78,211.94L202.28,437.41L202.29,435.89L202.32,413.75L202.34,372.53L202.48,219.87L202.65,499.89L203.13,247.48L203.15,252.25L203.31,437.71L203.87,208.96L203.89,220.53L204.22,210.24L204.7,433.68L204.73,432.3L204.74,431.58L204.92,215.38L205.09,500.19L205.58,238.32L205.6,259.5L205.74,429.02L205.96,207.09L206.35,237.81L206.37,265.81L206.66,210.84L207.15,434.84L207.16,432.94L207.18,432.77L207.19,407.34L207.35,218.93L207.53,493.67L208.01,237.11L208.02,239.37L208.18,428.59L208.75,208.79L208.76,217.61L208.77,232.68L208.82,319.84L208.83,373.19L208.88,430.82L209.09,216.69L209.6,427.14L209.62,428.8L209.79,223.39L209.96,494.89L210.43,239.37L210.44,240.81L210.46,240.63L210.47,260.2L210.62,436.3L211.18,216L211.23,237.68L211.24,267.53L211.31,435.38L211.53,222.28L212.01,433.34L212.02,433.75L212.05,435.59L212.08,361.95L212.1,337.52L212.4,501.5L212.88,217.49L212.94,224.54L212.95,231.46L212.99,320.22L213.01,373.21L213.4,428.56L213.62,208.37L213.76,416.47L213.78,399.54L213.91,207.41L214.49,465.9L214.53,369.68L214.55,353.39L214.68,229.9L214.81,462.32L214.82,468.38L214.84,488.08L215.29,206.78L215.3,188.56L215.32,188.06L215.33,195.52L215.34,228.35L215.49,405.97L216,182.36L216.1,209.97L216.11,228.14L216.34,185.86L216.91,402.98L216.92,409.95L217.27,479.31L217.74,165.54L217.77,176.52L217.78,219.85L217.93,391.39L218.1,160.82L218.53,206.88L218.55,226.26L219.07,201.2L219.33,411.61L219.35,411.57L219.55,220.41L219.71,497.41L219.88,281.92L219.9,275.39L220.01,461.5L220.58,207.61L220.71,417.84L220.72,411.84L220.93,222.33L221.06,445.5L221.35,344.79L221.36,383.22L221.99,234.32L222.15,510.22L222.16,493.25L222.17,467.56L222.97,196.54L223.07,235.82L223.09,291.29L223.15,401.57L223.32,182.21L223.86,394.93L223.87,389.45L224,185.24L224.23,415.64L224.49,373.44L224.51,405.36L224.58,477.75L225.06,185.92L225.25,391.33L225.26,387.1L225.39,176.97L225.92,378.68L225.93,387L225.99,300.18L226,243.33L226.09,197.09L226.32,454.96L226.6,430.97L226.61,448.12L226.67,469.2L226.84,262.48L226.86,244.89L227.02,506.7L227.55,220.76L227.67,421.02L227.69,419.31L228.18,201.17L228.31,292.86L228.32,344.51L228.53,186.76L229.09,423.28L229.11,422.08L229.12,381.24L229.47,475.91L229.93,178.74L229.95,180.99L229.96,215.7L230.47,395.63L230.63,179.22L230.7,207L230.72,220.8L230.8,386.91L230.98,168.07L231.09,259.8L231.11,406.07L231.14,484.73L231.33,170.88L231.86,424.11L231.88,428.24L231.91,453.2L232.37,149.27L232.57,352.93L232.59,336.4L232.72,133.7L233.25,367.37L233.37,205.23L233.38,192.84L233.41,177.32L233.65,431.93L233.88,340.21L233.89,379.66L234.18,255.56L234.34,486.9L234.66,424.18L234.68,395.66L234.98,408.42L235.15,189.11L235.47,204.84L235.49,183.42L235.65,370.52L235.66,390.3L235.68,397.29L235.84,197.14L235.85,191.46L236.2,187.45L236.39,397.34L236.58,316.79L236.59,306.9L236.78,468.96L237.24,190.25L237.34,244.19L237.36,285.67L237.53,210.5L238.13,443.15L238.14,442.92L238.16,457.39L238.63,263.92L238.65,268.56L239.06,260.4L239.2,502.06L239.4,291.9L239.42,297.11L239.5,455.86L239.68,207.11L240.2,406.29L240.22,406.44L240.72,167.87L241.06,192.27L241.07,190.07L241.09,182.08L241.29,390.02L241.52,285.45L241.54,319.02L241.65,460.64L242.12,204.69L242.3,406.05L242.32,387.43L242.64,404.8L243.14,171.62L243.16,164.77L243.72,401.07L243.91,269.05L243.93,232.08L244.07,461.57L244.55,164.08L244.64,210.16L244.65,209.08L244.74,382.84L245.25,135.95L245.44,351.97L245.45,340.01L245.78,343.94L245.93,124.49L246.07,251.36L246.09,287.84L246.36,200.3L246.52,419.24L246.86,363.49L246.87,317.89L246.99,127.7L247.18,359.7L247.66,155.01L247.67,140.3L247.68,136.9L247.83,317.14L247.84,340.3L248.03,144.95L248.22,359.8L248.29,197.54L248.31,180.24L248.38,165.03L248.51,293.49L248.53,330.13L248.8,228.44L248.95,440.02L249.29,373.94L249.31,331.82L249.61,368L249.77,144.28L250.08,182.54L250.09,164.4L250.12,148.11L250.31,359.87L250.61,302.86L250.63,328.74L250.8,181.29L251.4,436.46L251.43,395.44L251.44,382.06L251.6,258.61L252.09,462.76L252.11,452.49L252.56,196.9L252.99,231.17L253.01,223.13L253.83,457.6L253.85,442.15L254.37,274.69L254.53,492.06L254.59,447.65L254.6,450.19L254.63,461.5L254.91,292.74L254.92,267.63L255.18,390.45L255.34,221.69L255.46,276.53L255.47,321.7L255.69,210.03L256.27,442.11L256.28,428.27L257.08,142.46L257.2,222.2L257.21,270.17L257.43,149.54L257.97,384.31L258,355.19L258.01,324.42L258.13,205.93L258.71,469.01L258.73,427.75L258.75,409.51L259,424.68L259.52,184.35L259.62,231.23L259.63,270.45L259.71,390.97L260.21,172.46L260.4,379.4L260.42,368L260.56,174.52L261.11,431.64L261.13,443.17L261.14,458.71L261.61,193.43L261.82,359.24L261.84,330.17L262.14,387.08L262.3,165.75L262.61,199.38L262.62,172.69L262.65,146.48L262.84,355.09L263.17,352.28L263.19,357.5L263.25,323.05L263.26,291.85L263.58,451.7L264.04,173.82L264.06,178.08L264.07,205.47L264.23,377.64L264.74,158.05L264.81,217.62L264.83,210.94L264.93,364.44L265.43,140.03L265.55,219.59L265.57,265.82L265.86,213.45L266.01,427.78L266.33,378.76L266.35,340.81L266.83,167.79L267.02,376.12L267.15,188.47L267.16,172.27L267.18,167.03L267.31,310.16L267.32,347.28L267.35,376.27L267.52,179.55L268.07,372.85L268.09,370.16L268.1,371.1L268.13,312.08L268.15,296.52L268.29,231.71L268.44,428.59L268.45,444.56L269.34,226.88L269.38,263.44L269.39,305.41L269.45,370.42L269.96,119.97L270.06,178.87L270.08,205.4L270.31,121.02L270.87,416.93L270.89,404.99L271.34,110.94L271.73,191.11L271.74,220.26L272.24,339.31L272.38,113.09L272.5,173.42L272.51,217.27L272.73,114.66L273.31,434.67L273.32,425.41L273.34,402.54L274.12,115.1L274.22,167.01L274.24,188.47L274.47,130.61L275.01,365.17L275.02,363.54L275.04,347.48L275.17,151.37L275.72,413.41L275.73,420.91L275.75,446.3L276.21,124.31L276.28,171.32L276.3,175.04L276.75,350.97L276.91,118.62L277.02,178.83L277.04,230L277.11,341.78L277.6,106.37L277.81,337.96L277.82,341.95L278.02,177.03L278.18,426.23L278.53,334.13L278.54,285.21L278.85,343.65L278.99,109.87L279.31,163.49L279.33,140.33L279.34,125.37L279.88,369.45L280.05,155.12L280.07,173.56L280.62,440.21L280.84,268.26L280.85,293.87L280.92,412.44L281.02,191.88L281.63,400.81L281.65,380.66L281.97,399.8L282.42,171.75L282.46,178.51L282.48,163.08L282.49,162.24L282.52,218.39L282.58,194.77L282.59,217.59L282.9,189.47L283.06,452.76L283.39,393.55L283.4,357.74L283.87,169.4L284.06,382.67L284.2,189.7L284.22,178.2L284.23,177.64L284.24,182.55L284.26,218.08L284.29,186.8L284.81,462.16L284.91,404.4L284.93,408.6L284.98,268.42L285.06,403.83L285.07,432.48L285.33,227.22L285.49,482.8L285.65,369.79L285.67,277.58L285.8,426.79L285.96,157.57L286.42,216.54L286.43,270.96L287.01,158.3L287.19,379.16L287.2,377.05L287.22,359.56L287.35,175.21L287.93,448.07L287.94,444.25L287.96,420.24L288.74,178.95L288.81,190.77L288.83,206.6L288.93,393.71L289.09,184.22L289.23,332.78L289.25,367.84L289.28,394.16L289.78,165.85L290,378.11L290.02,377.34L290.19,193.55L290.36,463.27L290.84,206.15L290.86,213.05L291.36,408.11L291.58,193.63L291.61,221.88L291.63,222.18L291.93,191.14L292.42,416.8L292.44,412.97L292.45,415.93L292.63,203.07L292.8,490.18L293.32,205.36L293.34,218.27L293.8,423.05L294.02,192.09L294.16,417.14L294.18,401.15L294.37,189.63L294.89,419.84L294.95,308.75L294.96,308.43L295.06,196.47L295.24,481.8L295.6,337.39L295.61,281.62L296.11,182.83L296.25,427.27L296.27,434.66L296.28,457.25L296.8,175.7L296.98,355.45L296.99,314.59L297.15,180.44L297.67,476.52L297.69,473.54L298.54,196.11L298.56,215.96L299.02,424.73L299.24,190.5L299.4,401.99L299.41,368.13L299.59,194.03L300.08,473.06L300.1,479.3L300.11,494.09L300.63,182.11L300.66,222.5L300.68,226.38L300.76,415.24L301.33,173.89L301.47,403.78L301.49,387.57L301.68,174.39L302.17,426.13L302.24,330.59L302.26,319.03L302.37,208.03L302.44,371.94L302.46,412.84L302.55,496.79L303.07,193.31L303.21,421.68L303.23,403.35L303.76,185.56L303.89,416.34L304.01,222.55L304.03,249.49L304.11,187.98L304.61,428.01L304.72,330.25L304.74,335.25L304.81,196.51L305,497.91L305.35,350.75L305.36,298.27L305.64,425.51L305.85,182.56L306.13,221.24L306.14,206.52L306.2,184.41L306.27,306.67L306.29,356.36L306.68,445.35L306.9,208.78L307.06,443.67L307.07,442.12L307.24,208.89L307.42,494.35L307.69,446.31L307.71,459.12L307.72,463.2L307.84,227.82L307.88,229.42L307.9,228.75L307.94,194.84L307.96,214.86L307.97,229.41L307.98,229.7L308,266.25L308.29,195.54L308.77,438.26L308.78,433.6L308.8,414.57L308.99,191.16L309.48,430.46L309.57,321.41L309.58,323.74L309.68,200.04L309.87,493.96L310.25,267.54L310.26,245.69L310.38,192.78L310.49,420.62L310.51,429.1L311.07,186.6L311.15,311.12L311.16,360.44L311.2,421.47L311.42,192.5L311.91,419.14L311.93,418.09L312.12,200.01L312.29,490.16L312.31,491.2L313.16,175.6L313.18,200.44L313.29,418.81L313.51,177.31L314,411.41L314.02,391.2L314.55,196L314.74,491.43L314.76,470.57L315.6,192.41L315.61,212.9L315.63,227.67L315.64,225.64L315.69,365.39L315.7,396.85L315.73,423.27L315.95,177.72L316.44,409.96L316.45,389.38L316.64,182.83L317.12,469.43L317.14,475.45L317.18,488.61L317.32,343.24L317.34,260.08L317.47,466.43L317.69,199.28L318.09,262.68L318.11,320.97L318.38,197.99L318.51,435.92L318.88,429.58L318.89,412.59L319.08,204.81L319.6,500.06L319.62,503.64L320.12,210.59L320.47,211.3L320.49,228.87L320.6,430.11L321.17,189.34L321.31,418.34L321.33,403.54L321.52,188.85L322.04,484.63L322.05,488.99L322.91,190.74L322.95,217.79L322.97,246.27L323.6,181.74L323.73,406.89L323.75,405.06L324.3,187.9L324.43,451.22L324.44,456.2L324.49,472.91L324.62,385.28L324.63,338.65L324.78,438.7L325,175.45L325.39,223.09L325.4,260.88L325.47,427.66L326.04,185.01L326.18,417.96L326.2,404.68L326.39,199.66L326.9,482.01L326.91,493.41L326.92,498.32L327.08,253.21L327.27,355.38L327.29,300.87L327.78,173.94L327.91,422.38L328.06,230L328.07,215.96L328.08,215.3L328.11,229.17L328.13,177.4L328.26,417.13L328.48,175.46L328.77,201.1L328.78,200.89L328.82,186.05L329.36,483.93L329.51,354.01L329.52,246.27L329.65,449.77L329.87,187.85L330.09,230.47L330.1,212.21L330.22,192.82L330.3,344.64L330.32,381.07L330.35,409.81L330.91,169.96L331.06,395.23L331.07,377.2L331.26,178.04L331.72,443.68L331.74,456.95L331.8,482.79L331.97,260.81L332.15,336.67L332.16,278.27L332.44,408.04L332.65,162.77L332.93,204.23L332.94,191.17L333,176.22L333.06,238.54L333.07,296.11L333.35,176.62L333.48,414.46L333.86,411.38L333.87,413.77L334.05,191.29L334.23,487.22L334.71,218.28L334.73,233.44L334.87,417.7L335.44,178.9L335.48,196.15L335.5,228.22L335.79,171.56L335.92,402.37L336.26,393.41L336.28,398.19L336.31,400.01L336.32,372.59L336.34,328.61L336.48,180.92L336.66,470.75L337.13,190.34L337.15,191.91L337.18,177.93L337.66,411.3L337.9,207.68L337.92,208.09L338.58,189.79L338.71,415.68L338.73,415.09L338.93,200.5L339.09,491.37L339.25,356.28L339.27,245.31L339.4,445.43L339.61,181.87L339.8,300.04L339.82,245.39L339.96,178.44L340.44,408.67L340.57,237.19L340.59,224.98L340.67,189.08L341.17,440.41L341.18,462.06L341.54,479.14L342.06,183.65L342.08,197.55L342.09,195.57L342.18,400.61L342.7,166.51L342.76,171.16L342.78,187.88L342.79,187.19L342.8,214.44L342.82,273.51L342.88,394.99L343.38,154.89L343.59,389.96L343.6,392.53L343.81,179.33L343.96,464.68L344.12,338.59L344.14,238.51L344.27,415.28L344.44,157.54L344.57,314.35L344.59,351.4L345.18,162.32L345.31,388.84L345.34,370.82L345.36,342.78L345.53,167.92L346.05,399.62L346.11,269.52L346.13,269.86L346.24,178.27L346.4,448.8L346.79,202.11L346.81,179.39L346.88,161.29L347.05,378.71L347.33,226.02L347.34,279.69L347.75,405.51L347.98,178.7L348.11,397.7L348.13,386.79L348.33,185.53L348.82,455.06L348.84,474.91L349.72,164.63L349.77,207.07L349.78,264.38L350.19,386.23L350.4,165.19L350.55,375.73L350.56,365.28L350.64,176.44L351.2,405.16L351.22,426.49L351.27,479.07L351.74,215.62L351.75,216.2L351.77,220.3L351.93,418.89L352.16,193.67L352.49,199.14L352.51,184.33L352.85,181.83L353.36,459.52L353.38,436.86L353.71,493.44L354.19,157.04L354.2,168.2L354.22,208.26L354.52,158.45L354.71,379.28L354.97,188.83L354.99,215.46L355.29,173.09L355.77,403.21L355.78,416.43L355.87,287.83L355.96,301.75L355.97,221.72L356.16,476.13L356.63,148.97L356.73,195.22L356.74,234.92L356.81,366.05L357.32,132.22L357.52,340.68L357.54,320.15L357.67,131.42L358.23,372.72L358.29,266.69L358.31,265.23L358.44,191.77L358.6,437.72L359,198.79L359.02,213.62L359.58,384.33L359.76,169.04L359.77,172.19L359.79,198.78L360.11,168.81L360.29,386.09L360.54,219.29L360.56,230.32L360.87,228.29L361.02,466.18L361.35,395.26L361.37,362.58L361.5,174.44L362.03,392.13L362.15,219.67L362.16,214.04L362.21,186.73L362.37,398.43L362.7,388.85L362.72,398.11L362.76,350.99L362.77,316.26L362.89,169.34L363.46,449.13L363.47,451.39L364.28,115.13L364.31,161.99L364.33,214.13L364.63,137.04L364.82,366.47L365.02,239.1L365.04,229.89L365.05,192.25L365.54,417.94L365.76,244.66L365.78,268.86L365.91,449.87L366.37,157.95L366.56,372.34L366.57,355.35L366.72,126.5L366.91,358.6L367.21,310.27L367.23,332.56L367.41,114.85L367.98,377.98L367.99,358.92L368.01,318.75L368.34,448.83L368.79,169.84L368.81,165.3L369.16,152.61L369.34,379.26L369.43,175.6L369.45,167.19L369.69,366.41L370.18,130.44L370.2,126.74L370.78,444.77L371.08,405.31L371.1,386.93L371.94,91.81L371.95,100.88L372.27,95.49L372.48,349.52L372.72,190.21L372.74,190.97L373.22,433.37L373.53,364.37L373.55,346.71L373.68,107.89L374.22,347.67L374.33,171.21L374.35,159.38L374.38,136.63L374.91,364.72L375.09,169.96L375.1,198.31L375.14,193.97L375.65,433.69L375.94,387.62L375.96,387.57L376.12,141.25L376.8,153.73L376.81,148.21L377,367.71L377.15,167.66L377.16,161.04L377.73,384.25L377.9,296.19L377.91,259.88L377.93,212.57L378.09,434.19L378.65,233.49L378.67,260.28L378.97,249.96L379.13,474.07L379.44,412.48L379.45,403.67L379.94,185.93L380.13,348.55L380.15,351.17L380.37,200.19L380.52,415.14L380.87,364.48L380.89,315.42L381.08,211.94L381.57,453.39L381.61,411.87L381.63,402.16L381.67,414.16L381.74,341.48L381.76,275.55L381.87,395.81L382.38,168.26L382.51,252.92L382.53,286.11L382.82,203.15L382.96,415.33L383.29,340.49L383.31,309.38L383.61,325.7L383.77,111.68L384.08,144.56L384.09,123.07L384.31,307.5L384.47,92.97L384.64,296.53L384.66,301.56L384.8,91.47L385.04,325.87L385.28,240.05L385.3,283.14L385.4,395.74L385.86,113.46L386.06,316.16L386.08,302.35L386.4,315.34L386.56,92.36L386.88,120.56L386.89,102.78L386.91,97.98L387.04,235.82L387.05,277.9L387.25,96.31L387.83,410.12L387.86,373.44L387.88,356.66L388.65,71.8L388.76,155.26L388.78,206.76L388.83,289.76L389.34,52.49L389.53,276.79L389.55,267.75L389.69,61.59L390.2,327.12L390.21,344.95L390.27,393.34L390.63,192.26L390.65,138.28L390.92,288.65L391.43,46.32L391.45,55.92L391.62,272.66L391.78,49.32L392.21,134.37L392.23,133.15L392.24,131.42L392.27,224.53L392.29,254.94L392.56,153.67L392.71,371.26L393.04,257.05L393.05,231.93L393.36,260.2L393.85,35.68L393.87,29.94L394.06,248.78L394.21,29.35L394.53,55.53L394.55,37.49L394.56,33.74L394.74,238.92L394.75,248.91L394.98,149.73L395.13,333.64L395.14,358.27L395.96,33.95L396.07,126.17L396.09,179.45L396.3,46.28L396.84,289.34L396.85,277.33L396.87,245.52L397,86.53L397.54,380.81L397.55,389.66L397.56,414.21L398.04,122.11L398.26,304.1L398.28,252.96L398.38,115.62L398.58,338.77L399.04,152.4L399.06,129.78L399.42,91.04L399.65,331.83L399.75,240.19L399.77,241.95L399.84,155.03L400,405.95L400.36,258.27L400.38,186.44L400.65,319.77L400.81,88.24L401.15,95.66L401.16,76.89L401.22,161.65L401.28,139.03L401.29,184.15L401.51,82.81L402.09,355.92L402.1,335.8L402.28,176.38L402.44,426.29L402.87,285.37L402.89,273.68L403.13,383.79L403.61,156.56L403.71,182.54L403.73,231.37L403.95,119.76L404.5,349.15L404.51,350.2L404.71,169.59L404.87,439.97L405.05,267.45L405.06,215.85L405.18,373.1L405.32,122.18L405.34,104.6L405.37,116.29L405.38,167.16L405.44,131.51L405.47,212.58L405.48,264.53L405.69,101.22L406.22,333.22L406.25,314.76L406.27,295.9L406.73,84.89L406.96,331.65L407.03,216.81L407.05,228.04L407.15,138.96L407.31,395.28L407.67,247.26L407.69,168.39L407.77,78.03L408.33,313.15L408.44,136.21L408.46,114.91L408.67,318.15L408.82,90.16L409.2,117.39L409.21,163.87L409.24,136.87L409.73,400.89L409.75,425.37L409.76,426.84L409.89,359.53L409.91,332.21L410.05,398.17L410.57,141.67L410.66,163.85L410.68,194.83L410.75,360.84L411.26,128.83L411.44,349.25L411.46,348.16L411.6,112.69L412.14,382.44L412.15,390.26L412.18,415.73L412.37,213.84L412.55,273.32L412.56,204.82L412.84,346.25L413,106.29L413.31,145.37L413.33,126.08L413.34,108.93L413.89,345.1L414.07,142.91L414.08,178.02L414.11,146.77L414.61,406.48L414.62,428.52L415.43,103.79L415.55,164.56L415.56,218.78L415.78,112.47L416.33,347.12L416.35,330.49L416.48,119.1L417.04,404.75L417.06,419.5L417.22,319.89L417.23,226.91L417.36,392.63L417.93,163.67L417.98,217.2L418,273.59L418.27,157.32L418.77,399.75L418.78,413.41L419.32,203.25L419.49,454.47L419.52,428.1L419.54,409.48L419.84,441.92L420.36,150.83L420.42,205.53L420.44,258.54L420.71,147.93L421.19,379.71L421.2,378.35L421.22,360.99L421.41,164.57L421.91,450.56L421.93,469.09L422.45,176.8L422.52,307.55L422.54,359.28L422.8,169.16L423.32,448.69L423.34,446.21L423.84,180.72L424.13,323.85L424.15,327.36L424.19,187.82L424.32,445.18L424.34,452.42L424.37,471.63L424.52,329.47L424.54,229.88L424.67,433.51L424.89,157.69L425.22,187.99L425.24,152.05L425.37,386.89L425.58,150.21L426.08,386.57L426.09,364.51L426.28,168.78L426.74,435.05L426.76,447.87L426.8,476.07L427.19,251.48L427.21,227.86L427.45,410.9L427.67,166.32L427.76,352.78L427.77,383.15L427.8,405.17L428.02,158.47L428.28,223.3L428.3,207.56L428.37,152.46L428.86,400L428.98,299.96L428.99,305.37L429.02,312.8L429.06,170.43L429.12,301.59L429.14,342.25L429.25,465.87L429.76,162.82L429.89,400.44L429.91,396.39L430.24,398.95L430.46,152.38L430.73,197.16L430.75,181.85L430.8,155.3L430.89,326.77L430.91,361.11L431.15,156.61L431.69,467.76L431.7,444.1L431.72,418.84L431.98,441.71L432.2,161.38L432.57,205.45L432.59,207.45L433.24,162.34L433.37,422.89L433.39,419.3L433.4,398.43L433.59,178.02L434.11,488.92L434.13,486.98L434.98,167.49L435,195.28L435.11,417.82L435.68,153.71L435.71,196.66L435.72,195.31L436.02,158.54L436.53,454.4L436.55,469.62L436.56,469.96L436.58,448.36L436.59,423.67L436.85,431.23L437.07,162.24L437.46,196.76L437.48,233.9L437.77,170.29L438.24,410.88L438.26,408.52L438.27,388.41L438.46,167.44L438.93,442.55L438.94,456.22L439,480.3L439.16,236.01L439.36,281.17L439.37,248.75L439.51,175.35L439.98,416.16L440,414.3L440.2,171.13L440.68,449.06L440.8,263.52L440.81,278.6L441.04,444.2L441.25,192.08L441.35,439.64L441.36,462.37L441.43,494.7L441.59,241.62L441.81,278.6L441.83,262.6L442.07,435.5L442.29,187.14L442.51,249.31L442.52,229.38L442.55,249.7L442.62,204.26L442.64,173.48L442.77,419.17L442.99,163.07L443.49,418.42L443.51,419.51L443.87,482.22L444.32,220.15L444.35,222.82L444.36,219.32L444.51,423.18L445.07,166.98L445.1,209.37L445.12,208.65L445.42,162.56L445.92,419.84L445.93,417.91L445.94,415.44L446.12,193.53L446.31,480.09L446.57,426.75L446.58,441.45L446.6,448.24L446.68,243.82L446.7,225.14L446.81,177.2L446.89,296.01L446.9,343.88L447.29,421.42L447.51,206.85L447.67,395.89L447.68,360.07L447.86,177.52L448.35,423.65L448.42,333.8L448.44,318.29L448.57,219.55L448.71,483.2L448.73,493.82L448.74,500.14L448.92,261.52L449.12,266.38L449.13,240.09L449.16,262.09L449.25,187.55L449.31,258.37L449.32,315.78L449.38,423.68L449.95,174.41L450.09,415.07L450.11,395.02L450.3,175.94L450.79,421.89L450.88,320.9L450.89,323.46L450.99,200.96L451.18,497.44L451.56,262.08L451.57,239.63L451.6,260.72L451.69,186.6L451.75,258.98L451.76,316.64L451.82,424.66L452.38,174.04L452.51,412.89L452.53,411.01L452.73,169.68L453.22,426.97L453.25,416.93L453.27,400.15L453.43,206.34L453.62,489.45L454.05,245.62L454.07,237.51L454.12,191.81L454.2,325.71L454.21,373.21L454.6,435.68L454.82,182.5L454.96,428.48L454.98,407.97L455.17,183.65L455.3,429.76L455.75,316.67L455.76,315.76L455.86,204.11L456.05,490.29L456.2,360.31L456.21,247.94L456.34,454.92L456.46,205.75L456.49,209.17L456.5,195.47L456.53,200.24L456.55,220.68L456.56,181.45L457.04,421.88L457.3,214.81L457.31,246.76L457.39,424.77L457.6,182.93L458.1,422.62L458.11,420.28L458.17,329.5L458.18,315.86L458.2,315.59L458.21,324.88L458.23,327.48L458.3,205.24L458.47,491.42L458.84,342.61L458.85,285.42L459.13,421.5L459.34,166.54L459.63,194.99L459.65,196.05L459.66,195.77L459.68,212.62L459.69,175.92L460.17,421.53L460.26,250.76L460.27,229.91L460.3,253.79L460.39,194.79L460.43,227.08L460.45,257.64L460.74,207.17L460.91,492.99L461.23,457.13L461.24,431.79L461.78,180.27L462.07,199.15L462.09,198.44L462.26,413.91L462.48,172.91L462.71,194.52L462.72,191.97L462.83,174.99L463.35,474.43L463.51,348.06L463.52,242.84L463.54,243.33L463.55,263.94L463.65,438.27L464.22,164.21L464.23,169.75L464.25,189.19L464.57,175.71L464.7,411.33L464.77,257.78L464.78,229.25L464.91,177.01L465.04,415.63L465.36,384.6L465.38,405.22L465.62,203.31L465.78,485L466.12,424.45L466.13,386.37L466.44,407.44L466.61,168.97L466.94,171.72L466.96,172.71L467,165.96L467.48,404.67L467.63,224.21L467.64,210.34L467.7,198.81L467.87,427.84L468.03,311.31L468.05,216.71L468.06,212.7L468.16,453.17L468.18,465.41L468.22,494.88L468.41,272.01L468.58,344.97L468.6,286L468.87,413.51L469.38,159.67L469.39,156.65L469.57,388.47L469.66,194.27L469.67,167.96L469.74,149.38L469.92,384.55L470.21,270.84L470.22,321.02L470.5,191.98L470.66,475.94L470.99,408.25L471,376.64L471.48,162.61L471.66,390.32L471.8,186.56L471.82,165.72L471.83,164.33L471.93,218.87L471.95,272.01L472.01,391.76L472.16,161.93L472.72,389.08L472.73,392L472.92,192.43L473.09,461.91L473.25,350.3L473.27,255.23L473.4,438.05L473.92,181.39L474.02,231.01L474.04,285.06L474.09,399.02L474.62,166.5L474.8,388.41L474.82,372.99L474.95,160.61L475.51,453.43L475.53,474.48L476.34,144.69L476.46,206.36L476.47,256.64L476.69,141.65L477.23,400.61L477.25,390.69L477.27,368.67L477.39,203.81L477.97,505.07L477.99,464.32L478.01,443.04L478.27,462.43L478.85,185.5L478.89,229.15L478.91,287.3L478.97,402.46L479.49,145.25L479.66,377.71L479.68,376.93L479.82,126.37L480.02,367.46L480.04,382.18L480.24,181.39L480.4,460.33L480.56,346.11L480.58,264.62L480.71,398.71L481.21,107.89L481.34,224.64L481.36,274.64L481.43,350.92L481.91,103.73L482.11,338.05L482.13,340.05L482.26,93.57L482.79,376.31L482.81,388.21L482.85,429.06L483.23,206.16L483.24,179.35L483.32,165.46L483.45,298.83L483.46,335.4L483.66,166.74L483.84,388.65L484.07,216.63L484.09,199.54L484.19,389.29L484.71,146.28L484.91,376.23L484.93,379.93L485.29,453.59L485.75,165.09L485.78,201.88L485.8,242.21L485.94,384L486.45,129.38L486.55,181.81L486.57,223.28L486.64,361.96L486.8,123.87L487.33,358.7L487.35,358.75L487.57,209.03L487.73,440.41L488.06,354.08L488.07,310.76L488.19,124.6L488.73,355.17L488.86,153.55L488.87,132.79L488.89,128.16L489,229.26L489.02,276.97L489.23,128.47L489.42,364.17L489.78,358.77L489.8,367.46L490.16,437.11L490.63,142.57L490.65,187.74L490.67,235.36L490.81,368.46L490.97,135.76L491.42,192.01L491.44,231.63L491.67,135.21L492.22,415.04L492.24,441.62L492.44,257.43L492.58,480.72L492.84,376.43L492.86,406.04L492.89,430.01L493.41,157.07L493.47,235.01L493.48,193.26L493.6,382.6L493.7,173.31L493.71,190.05L493.73,171.59L493.95,374.89L494.45,138.17L494.47,152.86L494.48,186.55L494.53,185.88L495.03,432.43L495.32,400.47L495.34,399.58L496.19,126.15L496.21,129.26L496.73,361.26L496.98,211.92L496.99,214.48L497.31,209.86L497.47,445.26L497.79,376.49L497.8,353.22L498.28,116.58L498.62,125.32L498.63,118.88L498.67,207.55L498.69,212.74L498.98,124.51L499.17,357.79L499.43,218.35L499.44,247.54L499.75,216.77L499.89,443.61L500.23,368.38L500.24,355.13L500.72,112.23L501.05,126.03L501.07,123.26L501.26,342.89L501.42,120.34L501.66,213.21L501.68,165.84L501.76,121.1L502.33,426.74L502.34,430.44L503.16,156.89L503.27,242.34L503.29,295.91L503.34,376.35L503.85,133.16L504.04,351.45L504.06,342.04L504.2,157.92L504.42,368.14L504.68,300.09L504.69,330.86L504.78,420.5L505.24,197.5L505.32,210.97L505.33,212.26L505.43,376.5L505.65,274.25L505.66,239L505.68,238.19L505.69,239.91L505.71,267.71L506.01,262.93L506.17,487.45L506.49,422.81L506.51,427.2L507.07,218.61L507.22,428.99L507.23,411.53L507.25,390.59L507.68,189.35L508.07,268.46L508.09,269.56L508.13,210.46L508.61,449.15L508.83,279.22L508.84,295.38L509.17,226.93L509.65,425.36L509.67,413.64L510.47,112.78L510.58,181.9L510.6,229.64L510.65,315.89L511.16,89.07L511.36,293.12L511.38,287.52L511.49,82.14L512.09,374.95L512.1,360.48L512.9,36.16L513.03,174.04L513.05,211.86L513.25,51.23L513.44,274.93L513.8,259.48L513.82,252.19L513.93,50.12L514.51,335.12L514.53,356.33L514.98,45.04L515.45,142.54L515.47,184.64L515.69,45.85L516.22,304.33L516.24,292.73L516.25,274.33L516.38,91.16L516.89,333.28L516.9,349.82L516.96,403.16L517.32,202.81L517.34,152.85L517.61,297.96L518.12,62.97L518.14,78.15L518.31,294.32L518.47,75.63L518.89,167.13L518.91,158.57L518.92,154.62L519.05,311.47L519.31,295.44L519.33,318.28L519.4,396.11L519.86,94.13L520.05,308.36L520.07,294.59L520.21,67.94L520.75,321.98L520.86,164.38L520.88,149.07L520.91,122.65L521.44,346.54L521.56,266.23L521.57,271.62L521.6,275.18L521.66,249.35L521.68,198.39L521.83,418.92L522.21,168.9L522.23,138.78L522.49,322.24L522.65,78.22L522.81,291.69L522.82,305.6L522.84,309.54L522.89,185.03L522.91,140.95L523.18,297.2L523.34,49.78L523.68,72.9L523.69,73.9L524.27,395.51L524.63,331.42L524.65,304.91L524.97,363.01L525.43,151.48L525.46,177.95L525.47,218.95L525.62,332.89L525.76,113.53L525.78,111.05L526.36,322.81L526.53,226.13L526.55,170.63L526.69,409.7L527.16,91.74L527.24,147.21L527.26,141.31L527.71,320.85L527.85,84.74L528.07,308.48L528.09,294.85L528.2,77.85L528.78,346.93L528.84,236.98L528.85,238L528.97,175.37L529.13,430.14L529.49,278.86L529.51,206.92L529.8,338.33L530.29,85.25L530.3,89.06L530.49,322.6L530.64,81.49L530.91,132.93L530.93,107.28L530.96,131.61L530.99,93.72L531.01,126.79L531.03,177.77L531.06,157.1L531.57,419.6L531.9,352.64L531.91,325.98L532.22,340.85L532.73,103.6L532.74,104.58L532.91,336.98L533.34,182.9L533.35,143.76L533.42,97.12L534,413.75L534.02,409.63L534.47,92.69L534.87,175.44L534.89,154.64L535.02,342.57L535.16,117.09L535.6,172.85L535.61,165.81L535.86,118.87L536.44,438.3L536.47,410.6L536.48,391.13L536.74,406.31L537.25,142.21L537.37,209.66L537.38,257.72L537.45,368.99L537.95,116.04L538.15,348.64L538.16,335.99L538.29,123.08L538.53,365.88L538.79,327.61L538.8,355.28L538.87,424.53L539.34,137.21L539.35,137.13L539.54,353.23L539.69,111.66L539.93,267.69L539.95,200.75L540.04,121.58L540.63,442.39L540.64,423.06L541.15,210.66L541.31,434.88L541.41,382.35L541.43,384.76L541.62,393.63L541.78,140.61L541.93,334.98L541.95,353.5L542.12,163.6L542.31,375.5L542.47,166.73L542.49,168.89L542.66,378.45L542.83,157.64L543.08,225.44L543.1,192.27L543.17,155.25L543.73,423.31L543.75,447.99L544.56,139.29L544.68,210.61L544.69,259.65L544.75,365.08L544.92,133.08L545.46,360.86L545.47,345.63L545.6,136.73L545.84,381.13L546.11,369.26L546.13,389.93L546.18,438.15L546.71,187.81L546.88,399.94L546.89,391.62L547.34,159.94L547.76,201.47L547.78,217.98L547.88,384.95L548.04,158.29L548.21,371.1L548.23,380.9L548.45,207.39L548.64,470.06L548.78,356.81L548.79,260.97L548.93,437.97L549.08,186.29L549.35,245.92L549.36,214.66L549.43,165.47L549.97,399.74L550.11,214.51L550.13,205.94L550.33,435.88L550.35,445.33L550.88,237.23L551.06,488.65L551.09,460.94L551.1,440.31L551.36,441.87L551.58,182.63L551.97,213.23L551.99,242.79L552.28,192.18L552.75,416.93L552.77,414.74L552.78,396.87L552.97,211.78L553.44,450.58L553.45,463.28L553.49,487.37L553.67,287.78L553.86,332.14L553.87,273.51L554.36,179.99L554.49,409.3L554.62,240.87L554.64,224.39L554.71,186.8L554.84,420.21L555.18,413.52L555.19,421.3L555.41,201.47L555.49,358.3L555.51,390.94L555.76,217.19L555.94,489.42L556.26,421.65L556.28,377.4L556.58,417.56L556.8,193.28L557.06,240L557.08,223.45L557.28,412.09L557.5,182.16L557.84,192.02L557.86,218.48L558.19,202.72L558.38,481.01L558.7,420.83L558.71,379.1L559.02,406.27L559.24,181.37L559.51,204.02L559.53,187.73L559.58,176.42L559.67,339.61L559.69,374.45L559.93,181.63L560.43,421.99L560.45,421.36L560.47,404.48L560.63,216.05L560.82,484.87L561.25,232.15L561.27,221.56L561.31,220.3L561.32,196.55L561.67,193.17L561.8,419.15L562.01,229.66L562.02,197.89L562.51,455.68L562.89,450.1L562.91,436.13L563.06,217.51L563.25,495.01L563.7,222.3L563.72,221.55L563.89,424.43L564.05,203.84L564.07,202.7L564.24,413.35L564.46,189.43L564.73,206.55L564.75,191.5L564.81,180.36L564.86,249L564.88,297.01L565.15,189.64L565.66,471.1L565.68,483.64L565.69,485.76L565.82,403.7L565.83,341.1L565.98,448.32L566.55,202.24L566.59,238.53L566.6,270.66L566.68,431.12L567.24,186.45L567.39,421.19L567.4,403.76L567.59,214.72L568.07,487.7L568.08,490.76L568.13,507.95L568.16,466.81L568.17,444.07L568.42,482.06L568.98,208.28L569.03,252.11L569.04,284.77L569.68,216.3L569.81,450.51L569.82,449.2L570.03,220.93L570.17,454.99L570.46,437.22L570.48,465.01L570.56,517.77L571.07,224.9L571.22,450.92L571.23,430.76L571.55,444.75L571.77,211.1L572.01,244.85L572.03,269.78L572.11,207.66L572.61,436.98L572.72,346.65L572.74,348L572.81,232.36L573,507.44L573.35,372.92L573.36,318.32L573.64,443.77L573.85,214.15L574.16,231.53L574.17,232.72L574.2,204.14L574.25,246.1L574.26,270.98L574.68,439.9L574.9,216.54L575.06,433.28L575.07,436.37L575.25,224.17L575.44,500.29L575.67,383.57L575.68,418.82L575.73,465.14L575.94,208.72L576.26,218L576.28,228.25L576.64,197.29L576.78,421.41L577.02,245.42L577.03,243.77L577.33,212.92L577.87,508.16L577.89,487.66L578.73,210.46L578.74,225.22L578.76,246.89L578.84,416.63L579.08,216.16L579.15,327.08L579.16,374.19L579.21,435.68L579.77,206.82L579.93,432.09L579.95,433.63L580.12,236.3L580.31,503.98L580.79,243.51L580.8,259.94L580.95,432.68L581.51,198.02L581.56,237.58L581.57,257.85L581.86,206.09L582.35,432.1L582.37,431.78L582.38,435.13L582.54,321.05L582.56,228.74L582.74,501.15L583.16,256.85L583.18,236.56L583.38,426.95L583.95,194.58L583.96,206.33L584.08,413.09L584.59,192.23L584.6,193.08L585.18,481.36L585.5,423.44L585.51,385.68L585.64,200.58L586.17,419.87L586.33,203.27L586.34,202.34L586.69,199.56L586.86,423.02L586.92,326.97L586.94,273.77L587.02,208.35L587.6,482.83L587.62,483.55L588.43,190.11L588.47,193.28L588.49,203.59L588.78,188.36L589.3,410.14L589.31,408.76L589.33,389.84L589.46,210.07L590.04,484.24L590.05,482.29L590.85,198.03L590.97,246.86L590.98,299.2L591.21,187.56L591.74,410.18L591.76,387.89L591.78,359.4L591.9,210.05L592.48,492.82L592.5,460.93L592.52,438.54L592.78,448.77L593.29,171.93L593.37,218.31L593.39,215.01L593.82,409.01L594,191.69L594.2,388.24L594.22,363.36L594.33,196.52L594.91,484.65L594.94,461.05L594.96,442.57L595.26,491.98L595.74,213.09L595.81,236.24L595.83,236.08L595.91,412.12L596.48,188.66L596.62,398.8L596.64,380.27L596.77,192.62L597.33,467.13L597.35,487.6L598.16,196.26L598.28,239.21L598.29,292.94L598.35,406.95L598.86,141.36L599.06,369.24L599.07,359.73L599.2,132.46L599.44,391.08L599.68,307.51L599.7,340.76L599.78,460.18L600.25,142.15L600.45,373.84L600.47,362.46L600.8,364.95L601.29,97.13L601.31,98.42L601.32,116.82L602.16,396.82L602.18,411.62L602.22,453.65L602.64,185.26L602.66,207.83L602.67,186.34L603.22,389.39L603.38,164.83L603.41,179.29L603.42,214.95L603.57,385.85L604.08,134.73L604.18,198L604.19,215.1L604.5,212.3L604.66,457.78L604.99,398.77L605.01,373.81L605.47,162.32L605.66,385.18L605.77,173.53L605.79,193.49L606.01,372.86L606.18,136.02L606.54,173.6L606.56,209.71L606.57,189.32L607.09,452.42L607.22,380.94L607.24,377.19L607.44,465.59L607.91,156.22L608.02,202.21L608.04,253.66L608.11,364.6L608.6,105.53L608.8,324.79L608.82,330.76L608.95,97.99L609.18,365.93L609.43,287.72L609.46,326.54L609.54,442.2L610.01,165.97L610.21,346.36L610.23,322.26L610.55,335.05L610.7,103.06L611.04,120.38L611.05,118.83L611.98,456.94L612.02,406.32L612.04,394.15L612.27,413.49L612.44,168.81L612.46,171.17L612.63,371.05L612.79,148.83L613.21,204.01L613.23,213.8L613.26,250.26L613.27,297.07L613.49,152.88L614.05,383.67L614.07,376.13L614.26,225.87L614.77,449.92L614.81,392.14L614.82,378.37L615.07,403.93L615.58,135.5L615.69,240.69L615.71,291.41L615.93,146.93L616.46,377.33L616.48,376.34L616.49,387L616.69,235.64L616.85,459.2L617.13,394.23L617.14,403.96L617.16,405.36L617.19,359.06L617.2,320.76L617.51,358.59L618.01,111.28L618.03,123.18L618.2,333.47L618.36,106.28L618.78,196.45L618.8,204.93L618.81,197.73L619.26,389.24L619.28,414.09L619.29,424.77L619.75,146.94L619.83,202.83L619.84,208.7L619.86,208.42L619.87,244.14L619.94,364.3L620.45,119.9L620.62,333.36L620.64,336.86L620.8,104.52L621.31,343.22L621.32,357.78L621.57,232.62L621.73,459.46L622.06,355.21L622.07,314.42L622.38,370.09L622.54,156.75L622.86,167.39L622.87,149.91L622.89,147.83L622.93,220.57L622.99,197.16L623,234.16L623.08,359.43L623.23,129.95L623.79,356.38L623.8,371.04L624.16,435.5L624.63,164.86L624.64,171.89L624.66,204.31L624.82,372.41L625.32,136.94L625.41,206.64L625.42,207.68L625.67,138.62L626.24,374.21L626.25,357.21L626.6,428.14L627.06,165.25L627.08,172.58L627.09,205.1L627.25,364.71L627.76,118.29L627.83,188.07L627.85,190.83L627.86,189L627.9,303.6L627.92,328.45L628.46,117.84L628.67,353.95L628.69,341.64L629.04,420.86L629.5,101.82L629.51,111.23L629.69,324.17L629.85,99.14L630.27,193.27L630.28,184.85L630.38,327.86L630.54,112.47L630.69,275.61L630.7,299.22L630.88,129.53L631.47,409.61L631.52,350.51L631.53,343.1L631.78,375.61L631.85,232.23L631.86,206.42L632.12,353.29L632.28,165.23L632.41,255.25L632.43,291.84L632.63,169.71L633.21,436.33L633.23,425.8L633.24,409.32L633.75,239.8L633.91,425.56L634.02,359.73L634.04,356.57L634.21,375.32L634.37,204.53L634.84,241.69L634.85,281.44L635.17,219.25L635.65,441.14L635.66,434.75L635.68,417.45L636.19,254.93L636.34,436.11L636.45,379.07L636.46,377.09L636.55,266.56L636.61,363.31L636.62,381.97L636.65,397.45L637.16,164.59L637.21,255.7L637.23,209.89L637.35,349.99L637.85,138.95L637.97,206.83L637.98,242.84L638.19,139.31L638.78,411.84L638.8,400.15L638.81,385.74L639.59,120.08L639.69,169.63L639.71,197.38L639.94,109.93L640.48,322.68L640.49,312.97L640.64,136.29L640.87,347.19L641.12,306.06L641.13,341.03L641.22,428.41L641.68,158.79L641.88,346.4L641.9,328.98L642.03,157.98L642.57,362.74L642.71,161.8L642.73,157.01L643.31,372.14L643.48,267.08L643.49,221.26L643.55,312.08L643.57,344.3L643.65,433.03L644.12,127.55L644.31,329.4L644.32,320.93L644.47,105.87L644.65,322.05L644.94,265.58L644.96,296.51L645.51,120.52L645.73,346.05L645.74,348.07L646.09,415.56L646.55,110.04L646.58,157.87L646.6,215.88L646.74,319.75L647.25,90.05L647.32,173.15L647.34,164.21L647.79,314.33L647.93,99.03L647.98,167.69L647.99,221.72L648.05,175.92L648.53,411.4L648.85,364.36L648.86,360.84L648.87,363.99L649.09,210.77L649.32,273.63L649.34,271L649.38,290.95L649.4,271.94L649.41,205.15L649.53,317.82L650.03,77.81L650.15,176.63L650.17,223.61L650.38,97.67L650.96,394L650.98,384.74L651.41,76.8L651.82,199.33L651.83,215.91L651.96,311.52L652.12,62.65L652.59,163.6L652.6,212.96L652.8,75.69L653.38,400.82L653.41,374.47L653.43,361.62L654.2,95.63L654.33,205.55L654.34,253.04L654.4,318.08L654.89,70.29L655.11,292.65L655.13,280.79L655.24,70.72L655.82,394.13L655.86,354.85L655.88,343.06L656.29,120.1L656.49,349.88L656.75,203.32L656.76,243.88L656.84,350.67L656.98,132.87L657.53,335.79L657.55,322.57L657.68,117.08L658.21,381.46L658.23,391.7L658.26,428.53L658.72,101.65L658.74,104.76L658.92,329.82L659.07,85.6L659.5,153.74L659.52,143.11L659.77,106.77L660.35,360.54L660.36,332.99L660.69,434.01L661.16,125.27L661.17,128.25L661.35,356.9L661.51,109.78L661.83,163.47L661.84,134.16L662.04,344.32L662.55,88.1L662.58,122.09L662.59,177.77L662.62,155.27L662.71,286.44L662.72,309.55L662.97,174.14L663.13,417.07L663.48,318.83L663.49,265.8L663.8,320.23L663.94,89.79L664.28,104.86L664.29,93.92L664.89,411.52L665.04,275.59L665.06,254.03L665.41,209.45L665.57,439.77L665.74,264.07L665.76,235.71L665.87,379.08L666.03,110.54L666.32,126.15L666.34,123.1L666.58,336.2L667.07,91.96L667.09,93.85L667.97,383.29L667.99,391.62L668,418.52L668.47,98.16L668.7,300.36L668.71,253.49L669.02,324.95L669.51,73.83L669.53,76.84L670.44,404.14L670.45,404.15L671.25,105.95L671.37,181.33L671.38,228.28L671.45,340.01L671.95,93.23L672.15,316L672.17,317.15L672.3,91.9L672.83,362.38L672.85,372.6L672.89,409.2L673.33,103.65L673.34,87.71L673.54,325.83L673.69,79.05L673.95,176.78L673.96,138.24L674.04,80.89L674.27,359.43L674.54,313.07L674.56,333.78L674.73,174.48L675.33,427.35L675.34,406.33L675.36,388.39L675.78,110.57L676.24,201.84L676.25,252.02L676.41,171.01L677.01,401.63L677.04,382.5L677.05,351.21L677.23,206.24L677.72,464.95L677.73,472.97L677.76,499.11L678.21,217.98L678.26,237.28L678.27,203.37L678.4,415.02L678.62,194.42L678.89,213.37L678.91,197.96L678.97,189.03L679.02,242.87L679.04,290.6L679.1,400.62L679.31,181.45L679.81,397.39L679.82,399.6L679.84,402.59L679.89,298.17L679.91,296.27L680.01,201.2L680.19,460.95L680.55,322.4L680.56,258.3L680.84,390.09L681.35,174.31L681.36,174.82L681.4,169.06L681.88,386.75L681.95,244.49L681.97,214.78L682.1,193.39L682.59,453.22L682.61,458.31L682.64,475.63L683.09,190.64L683.3,374.58L683.32,340.27L683.49,178.66L683.97,399.85L684.09,200.36L684.1,224.38L684.19,180.79L684.32,396.32L684.65,387.72L684.67,397.25L684.68,400.68L684.87,259.29L684.88,186.76L685.06,461.58L685.57,212.31L685.58,187.93L686.45,435.4L686.46,432.54L686.48,404.36L686.77,433.39L686.97,212.46L687.25,335.27L687.26,338.04L687.32,217L687.41,388.56L687.42,420.47L687.51,478.7L687.91,205.03L687.94,211.26L687.96,200.69L688.02,188.92L688.15,403.23L688.23,227.19L688.25,204.53L688.36,172.83L688.49,400.01L688.78,278.36L688.8,329.23L689.06,172.51L689.55,401.31L689.57,400.34L689.58,399.38L689.76,186.29L689.95,457.57L690.22,416.16L690.24,419.3L690.45,178.12L690.58,392.35L690.6,391L691.15,173.81L691.28,397.61L691.4,211.76L691.41,236.37L691.5,182.67L691.99,418.7L692,419.53L692.02,420.83L692.03,407.37L692.05,365.32L692.19,203.85L692.38,495.67L692.83,249.71L692.85,250.94L692.89,201.32L692.96,330.04L692.98,379.83L693.02,436.06L693.59,186.68L693.73,421.94L693.74,402.28L693.93,185.78L694.43,425.21L694.44,422.43L694.46,421.26L694.63,198.69L694.82,489.12L695.31,222.47L695.33,196.02L695.46,421.56L695.67,187.68L696.01,213.48L696.02,185.93L696.5,425.37L696.7,245.18L696.72,207.72L697.25,496.63L697.57,435.85L697.59,395.43L697.89,427.88L698.11,196.77L698.37,253.53L698.39,237.72L698.46,193.6L698.59,425.8L699.12,239.73L699.14,238.61L699.15,200.37L699.69,488L699.86,277.03L699.88,299.45L699.98,454.98L700.2,199.83L700.53,228.61L700.55,193.78L700.68,420.7L701.39,414.13L701.4,394.74L701.59,195.81L702.05,454.32L702.07,466.37L702.13,489.98L702.5,258.77L702.52,230.84L702.77,413.33L702.98,179.01L703.06,295.12L703.07,342.38L703.33,182.69L703.46,406.99L703.82,403.36L703.84,388.01L704.03,185.79L704.53,467.82L704.55,480.78L704.56,487.21L704.72,258.59L704.94,267.82L704.95,245.53L704.98,261.81L705.01,228.93L705.06,236.76L705.07,198.21L705.42,193.27L705.55,422.15L705.68,255.35L705.69,234.67L705.77,189.3L705.9,417.49L706.2,356.68L706.22,391.71L706.46,197.15L707,489.39L707.01,464.88L707.86,191.49L707.91,245.97L707.93,303.09L708.2,183.24L708.68,411.48L708.7,408.78L708.71,391.66L708.9,192.99L709.36,446.02L709.38,459.69L709.44,486.47L709.6,265.6L709.81,267.36L709.83,242.31L710.07,417.4L710.29,193.45L710.38,347.82L710.39,380.81L710.64,190.04L710.77,413.81L710.97,237.98L710.99,191.84L711.87,472.24L711.89,448.23L712.67,187.13L712.74,188.43L712.76,202.91L712.86,394.01L713.08,192.14L713.16,339.01L713.18,377.02L713.42,193.26L713.95,421.31L713.96,405.93L714.31,484.15L714.76,203.32L714.79,213.91L714.8,230.69L714.95,404.69L715.45,164.82L715.56,190.25L715.57,217.72L715.82,172.85L716.35,389.46L716.37,389.24L716.38,393.44L716.56,210.88L716.75,462.52L717.02,442.29L717.04,443.86L717.27,204.63L717.35,387.88L717.37,408.94L717.6,207.14L717.73,421.05L717.93,247.1L717.95,204.74L717.96,203.49L718.01,248.34L718.02,304.62L718.08,420.82L718.59,194.81L718.8,407.82L718.82,417.31L719.17,481.52L719.63,179.76L719.66,191.65L719.67,222.2L719.82,390.11L720.04,173.3L720.41,208.17L720.43,206.09L721.02,191.78L721.23,405.43L721.24,405.35L721.26,414.5L721.6,481.3L722.08,210.5L722.1,220.49L722.47,203.84L722.65,431.72L722.92,400.55L722.94,415.85L722.95,423.76L723.18,202.3L723.43,239.4L723.45,221.17L723.46,206.3L724.03,451.9L724.04,474.19L724.87,153.19L724.97,204.26L724.98,251.42L725.2,160.15L725.74,381.99L725.77,364.86L725.78,344.81L725.9,181.83L726.48,457.9L726.51,422.22L726.52,398.92L726.78,415.22L726.94,170.68L727.36,201.08L727.38,214.48L727.39,214.67L727.4,240.85L727.48,397.27L728,183.51L728.19,387.23L728.2,373.14L728.33,176.72L728.56,409.91L728.83,372.09L728.84,400.05L728.91,474.58L729.45,202.48L729.58,399.75L729.59,388.31L729.91,397.44L730.07,175.54L730.26,388.96L730.28,387.14L730.42,172.17L730.93,357.53L730.94,376.87L731.19,222.19L731.35,479.51L731.52,313.05L731.54,295.28L731.65,435.17L731.89,207.69L732.06,317.49L732.07,262.72L732.23,190.87L732.35,401.5L732.81,217.67L732.83,246.45L733.28,199.8L733.44,426.74L733.54,309.74L733.55,311.21L733.58,318.66L733.61,227.58L733.63,208.03L733.79,480.83L734.25,196.46L734.42,385.88L734.44,394.8L734.5,307.34L734.51,245.76L734.83,441.94L735.29,161.05L735.31,160.95L735.87,397.94L736.05,204.94L736.06,194.64L736.24,446.52L736.7,119.96L736.76,188.07L736.77,171.06L736.89,334.65L736.95,218.72L736.96,171.7L737.24,326.14L737.4,88.34L737.74,101L737.76,116.57L738.31,364.94L738.54,279.26L738.56,313.45L738.67,450.04L739.14,138.08L739.31,348.02L739.33,351.26L739.67,354.16L739.83,134.31L740.02,345.48L740.04,332.1L740.18,141L740.72,388.56L740.73,388.25L740.75,398.21L741.11,470.72L741.57,172.15L741.6,207.36L741.62,242.61L741.92,154.75L742.14,405.53L742.36,230.87L742.37,242.81L742.62,165.4L743.18,396.95L743.2,382.25L743.55,458.16L744.01,148.78L744.02,155.59L744.2,365.81L744.71,134.16L744.78,201.79L744.79,201.91L744.82,236.95L744.84,278.54L745.05,117.41L745.6,355.42L745.62,370.25L745.82,231.05L745.98,452.12L746.3,415.02L746.32,404.75L746.66,428.78L747.14,154.34L747.16,163.66L747.49,159.67L747.68,380.39L747.93,245.43L747.94,254.25L748.26,248.94L748.4,483.99L748.72,431.29L748.74,413.48L749.23,158.27L749.58,158.85L749.59,161.92L749.77,368.24L750.27,137.75L750.35,200.21L750.36,208.51L750.38,207.15L750.39,236.97L750.4,281.69L750.69,210.6L750.85,426.29L751.17,358.51L751.19,341.28L751.32,108.61L751.86,354.38L751.97,197.03L751.99,185.29L752.2,377.17L752.71,151.98L752.73,165.27L752.74,198.92L753.29,439.13L753.52,312.43L753.54,347.47L753.6,401.85L754.1,121.32L754.29,353.83L754.31,338.8L754.45,109.45L754.97,328.77L754.99,332.22L755.13,128.49L755.65,353.62L755.67,368.45L755.73,411.66L756.18,130.26L756.19,124.69L756.54,108.39L756.73,339.35L756.79,229.77L756.8,189.37L756.89,143.79L757.42,387.95L757.53,219.5L757.54,233.74L757.58,206.72L758.12,418.47L758.13,421.16L758.16,448L758.63,178.45L758.7,211.22L758.71,207.85L758.82,373.74L758.87,267.03L758.89,228.05L759.16,365.32L759.32,165.95L759.66,167.58L759.67,163.31L760.25,386.11L760.41,294.94L760.43,263.01L760.6,432.8L761.17,173.29L761.18,195.23L761.19,232.09L761.41,149.1L761.98,328L761.99,313.55L762.11,173.24L762.69,385.09L762.72,341.56L762.73,327.15L762.88,216.58L763.01,384.22L763.02,412.1L763.04,430.91L763.5,165.33L763.56,247.27L763.57,201.93L763.69,317.26L763.85,117.8L764.31,183.61L764.33,223.36L764.54,110.04L765.1,305.88L765.11,318.15L765.31,181.47L765.47,381.7L765.65,270L765.66,215.76L765.78,314.26L765.94,76.78L766.42,200.73L766.43,238.3L766.62,76.09L767.17,305.21L767.2,287.43L767.21,260.81L767.33,114.31L767.89,369.27L767.91,388.86L768.37,96.23L768.82,156.97L768.84,189.32L769.07,103.71L769.61,313.71L769.62,304.21L769.77,130.78L770.29,359.86L770.3,369.45L770.35,405.01L770.52,295.05L770.53,242.3L770.65,349.94L771.16,79.54L771.29,220.35L771.3,255.21L771.85,99.33L772.04,305.59L772.06,294.09L772.07,274.69L772.2,109.75L772.43,323.29L772.71,322.46L772.72,339.62L772.78,389.59L772.98,206.22L773.13,255.93L773.14,193.44L773.25,77.95L773.78,300.58L773.91,118.96L773.93,99.78L773.94,92.88L774.13,301.38L774.44,265.09L774.45,286.75L774.64,96.05L775.22,383.02L775.25,353.12L775.26,336.75L776.03,76.37L776.15,168.51L776.16,221.06L776.38,79.35L776.57,302.18L776.93,288.09L776.94,258.33L777.07,88.7L777.31,303.46L777.57,298.93L777.58,320.01L777.65,386.81L778.03,148.05L778.05,121.58L778.31,299.31L778.47,83.02L778.61,254.23L778.63,278.3L778.66,295.19L779.16,47.81L779.37,269.65L779.38,241.79L779.51,52.95L780.05,322.85L780.06,335.02L780.08,364.99L780.54,28.2L780.76,263.68L780.77,255.79L781.44,276.42L781.58,32.27L781.6,42.86L782.48,351.95L782.5,361.78L782.51,387.61L783.05,197.17L783.22,338.2L783.24,311.97L783.53,321.67L784.02,69.05L784.06,142.61L784.08,154.79L784.37,67.84L784.6,329.31L784.82,182.81L784.83,208.09L784.95,376.59L785.41,74.25L785.49,129.95L785.5,131.59L785.62,296.4L785.76,59.27L785.95,287.67L785.96,290.01L786.46,49.79L786.59,158.79L786.6,204.31L786.81,58.45L787.39,370.55L787.41,345.91L787.43,329.8L788.2,87.06L788.3,140.99L788.31,168.33L788.39,312.7L788.55,79.32L789.1,300.32L789.11,287.32L789.24,93.23L789.47,341.65L789.71,256.86L789.72,287.5L789.82,420.8L790.29,149.36L790.49,359.33L790.5,342.97L790.84,348.71L790.98,121.51L791.16,336.19L791.17,345.34L791.23,262.28L791.24,202.68L791.68,103.73L791.9,336.46L791.91,347.67L792.26,405.26L792.72,120.24L792.74,127.8L792.75,140.06L793.07,124.57L793.26,347.5L793.51,175.24L793.52,176.06L793.77,138.7L794.32,373.89L794.33,373.44L794.35,381.23L794.69,446.97L795.16,149.69L795.19,163.76L795.2,203.9L795.35,356.5L795.86,123.47L795.96,161.26L795.97,185.63L796.2,119.58L796.77,341.83L796.78,348.28L797.13,414.35L797.6,112.77L797.67,147.71L797.68,158.4L797.8,331.98L797.94,107.31L798.1,298.27L798.12,319.32L798.29,130.31L798.89,434.77L798.93,378.59L798.94,367.35L799,376.96L799.03,348.53L799.05,268.14L799.22,422.23L799.39,205.99L799.55,420.69L799.57,439.35L799.96,191.28L799.97,164.31L800.03,149.63L800.18,302.85L800.19,333.86L800.38,152.82L800.57,368.87L800.77,199.13L800.79,163.36L801.08,154.9L801.66,398.8L801.67,379.36L802,446.03L802.47,180.47L802.48,181.05L802.53,175.23L802.66,385.17L802.74,209.9L802.76,183.63L803,374.26L803.22,157.98L803.29,258.98L803.31,301.71L803.57,163.85L804.09,406.36L804.11,387.49L804.27,212.3L804.79,490.53L804.85,412.64L804.86,399.13L804.92,399.91L804.95,351.94L804.96,267.62L805.09,442.26L805.18,243.37L805.19,221.06L805.31,189.35L805.4,342.86L805.41,374.77L805.44,405.86L805.66,177.01L805.99,205.41L806.01,170.25L806.89,454.38L806.91,431.47L807.75,175.58L807.76,192.17L807.78,204.24L807.88,391.21L808.09,164.57L808.17,272.51L808.18,323.95L808.44,173.31L808.94,400.84L808.97,398.57L808.98,378.48L809.31,457.98L809.73,187.42L809.76,195.55L809.78,182.26L809.84,166.62L809.89,223.59L809.91,275.35L810.18,154.92L810.66,384.75L810.68,382.64L810.69,361.61L810.88,162.05L811.37,395.97L811.39,395.18L811.4,391.33L811.58,193.36L811.76,456.18L812.05,425.78L812.07,420.56L812.62,157.43L812.88,219.67L812.9,202.99L812.97,163.45L813.1,395.37L813.66,168.39L813.68,191.28L814.01,190.51L814.2,459.73L814.52,409.62L814.53,368.25L814.71,181.01L814.84,413.34L815.33,215.19L815.35,204.44L815.38,207.51L815.39,204.25L815.4,177.23L815.53,404.98L816.09,219L816.1,183.21L816.64,472.7L816.94,425.25L816.96,400.11L817.49,164.07L817.75,202.07L817.77,182.97L817.97,382.99L818.19,152.58L818.51,188.17L818.52,185.97L818.54,166L819,438.17L819.02,450.01L819.07,476.63L819.23,243.13L819.44,275.28L819.45,244.59L819.71,402.01L819.93,168.62L820.22,189.17L820.23,189.74L820.28,170.69L820.45,413.24L820.61,282.09L820.62,207.31L820.97,189.85L821.15,424.22L821.31,277.92L821.32,199.23L821.51,471.55L822,206.77L822.02,178.62L822.37,171.89L822.5,408.93L822.71,176.71L822.73,192.51L823.06,172.9L823.55,417.59L823.57,414.85L823.58,413.18L823.76,200.09L823.95,481.13L824.19,410.45L824.21,434.05L824.24,449.34L824.45,187.51L824.77,219.03L824.79,219.68L824.93,417.09L825.5,173.15L825.54,219.5L825.56,253.53L825.85,179.84L826.35,468.01L826.37,478.01L826.38,484.06L826.54,259.81L826.76,277.51L826.77,256.51L826.89,204.52L826.95,280.79L826.96,336.86L827.02,436.45L827.59,188.44L827.73,420.87L827.75,402.31L827.93,184.65L828.43,421.4L828.51,326.04L828.53,323.46L828.63,208.79L828.82,489.84L829.18,299.43L829.2,268.15L829.46,416.96L829.67,184.75L829.96,220.6L829.98,219.83L830.02,183L830.08,255.92L830.09,308.11L830.37,180.2L830.86,418.6L830.88,415.65L830.89,414.51L831.07,208.19L831.26,480.57L831.5,401.5L831.52,426.34L831.55,445.05L831.76,188.02L832.1,225.83L832.11,189.7L832.24,425.99L832.46,183.99L832.69,232.1L832.71,233.48L832.81,183.15L833.3,419.32L833.47,331.48L833.49,293.08L833.69,482.73L834.2,188.4L834.24,229.17L834.26,255.87L834.33,413.52L834.9,176.43L835.03,410.37L835.04,409.35L835.24,177.55L835.74,417.07L835.75,413.27L835.77,411.67L836.13,479.95L836.64,199.53L836.65,203.59L836.66,219.99L836.77,421.39L836.98,193.71L837.19,280.53L837.2,255.21L837.33,185.73L837.46,412.09L837.81,411.15L837.82,407.35L838.03,197.07L838.17,412.34L838.46,396.68L838.48,423.46L838.56,480.57L839.07,198.91L839.22,413.67L839.23,392.8L839.55,405.4L839.77,170.9L840.07,184.72L840.09,191.33L840.12,178.4L840.96,445.71L840.97,450.08L840.99,464.96L841.39,223.08L841.41,214.47L841.51,191.18L841.99,403.3L842.15,203.4L842.16,200.11L842.2,181.32L842.26,239.22L842.28,292.54L842.33,400.37L842.55,175.59L843.05,394.02L843.06,392.58L843.07,393.4L843.1,335.91L843.12,309.49L843.25,195.62L843.42,462.81L843.9,217.11L843.92,221L844.31,189.28L844.42,417.12L844.64,189.67L844.66,192.33L844.77,411.44L844.99,188.4L845.5,406.89L845.51,411.47L845.86,476.04L846.4,187.51L846.41,200.78L846.51,399.56L846.67,171.32L846.95,222.48L846.96,195.54L847.03,161.1L847.21,386.21L847.5,278.83L847.51,327.41L847.79,189.59L848.3,471.26L848.32,438.42L848.34,417.03L848.6,427.13L849.12,181.76L849.21,198.6L849.22,231.2L849.47,176.29L849.69,418.87L850.02,400.2L850.04,397.48L850.22,205.41L850.73,460.73L850.78,405.35L850.79,388.74L851.04,409.04L851.56,141.63L851.66,212.28L851.67,254.05L851.75,370.64L852.25,129.31L852.44,357.4L852.46,346.21L852.59,129.61L853.12,415.08L853.14,421.92L853.17,455.33L853.59,178.36L853.6,196.77L853.62,171.75L853.82,373.72L854.34,147.73L854.36,158.83L854.37,198.79L854.52,362.22L854.68,132.03L855.11,190.07L855.13,191.61L855.6,446.89L855.94,385.49L855.95,360.91L856.26,374.02L856.76,142.76L856.78,142.17L857.32,369.7L857.53,185.12L857.55,204.41L858.04,468.86L858.21,258.32L858.23,258.63L858.36,406.4L858.5,181.37L858.91,187.53L858.93,179.64L859.39,395.95L859.56,155.11L859.62,167.34L859.64,183.05L859.66,212.65L859.68,247.93L859.9,126.7L860.46,434.07L860.48,451.48L861.29,109.63L861.41,183.2L861.42,225.83L861.64,97.54L861.87,385.35L862.2,366.75L862.22,360.73L862.33,150.88L862.93,435.45L862.96,406.02L862.97,388.16L863.23,388.99L863.74,133.68L863.86,210.2L863.87,263.14L863.93,345.05L864.44,112.94L864.64,312.48L864.65,289.99L864.78,120.84L865.29,356.99L865.31,371.77L865.36,414.56L865.83,177.07L865.87,236.08L865.89,212.13L866.02,370.15L866.52,141.44L866.63,193.99L866.64,232.17L866.71,351.44L867.22,132.01L867.42,347.46L867.44,350.91L867.64,185.53L867.8,417.29L868.09,376.14L868.11,375.29L868.61,147.93L868.92,204.13L868.93,193.27L868.96,169.45L869.19,413.99L869.45,364.64L869.47,384.99L869.5,398.47L869.66,198.11L870.06,224.1L870.08,215.74L870.24,428.03L870.7,168.4L870.89,367.07L870.9,348.6L871.05,173.67L871.24,375.39L871.57,369.43L871.59,372.1L872.09,138.7L872.31,361.77L872.33,349.83L872.66,450.44L873.14,151.23L873.15,155.6L873.49,137.02L873.7,394.22L873.89,229.55L873.91,183.8L874.02,350.84L874.18,98.59L874.5,152.37L874.52,134.2L874.53,130.57L874.7,339.63L874.72,347.08L874.75,362.31L874.76,349.42L874.78,313.7L875.11,423.61L875.57,192.52L875.59,197.11L875.76,369.35L875.92,140.3L876.33,207.62L876.34,180.24L876.62,152.73L876.81,361.06L876.88,200.64L876.89,172.3L876.97,138.99L877.18,366.41L877.43,273.27L877.44,306.9L877.55,422.53L878.01,124.13L878.08,161.19L878.1,166.42L878.2,333.93L878.34,121.33L878.36,115.18L878.53,342.96L879.11,210.95L879.13,187.07L879.4,164.26L879.62,371.05L879.81,232.97L879.82,204.09L879.98,431.83L880.39,144.17L880.4,158.64L880.42,143.42L880.79,103.29L880.98,329.61L881.16,115.26L881.17,152.64L881.33,325.46L881.49,113.71L881.93,183.1L881.94,185.53L882.42,404.11L882.74,335.08L882.75,322.46L882.87,110.7L883.42,335.37L883.56,127.13L883.58,117.74L883.77,321.9L883.9,122.08L883.91,102.09L883.93,95.49L884.07,270.2L884.09,294.85L884.28,95.15L884.86,381.52L884.87,361.71L884.88,340.62L885.67,103.75L885.78,189.65L885.8,234.13L886.02,116.89L886.55,327.04L886.57,317.93L886.58,312.23L886.71,171.5L886.93,350.62L887.22,345.51L887.23,363.71L887.48,229.85L887.64,437.33L887.81,342.23L887.83,286.24L887.94,388.87L888.45,165.31L888.58,246.37L888.6,282.52L888.8,164.34L889.38,368.41L889.39,346.51L889.92,215.76L890.06,424.03L890.08,443.42L890.89,152.75L891.02,249.02L891.03,285.92L891.42,331.76L891.58,144.15L891.67,174.79L891.69,179.43L892.16,412.94L892.5,338.51L892.51,311.05L892.82,339.69L893.32,124.41L893.34,133.01L893.51,317.98L893.67,110.35L894.09,174.28L894.11,173.5L894.6,392.07L894.77,275.82L894.79,230.27L894.89,340.84L895.41,89.08L895.54,217.48L895.56,255.51L895.6,297.03L896.11,57.42L896.3,264.05L896.31,255.25L896.44,65.4L896.69,298.95L896.91,189.46L896.92,215.11L897.04,368.19L897.5,58.89L897.59,127.78L897.6,120.29L897.69,269.75L898.2,43.65L898.28,121.65L898.3,112.41L898.55,76.17L899.11,300.9L899.13,305.34L899.47,382.47L899.94,80.58L899.95,88.19L899.97,129.58L900.29,108.09L900.47,318.05L900.72,157.53L900.74,156.74L900.82,316.35L900.98,103.13L901.52,309.94L901.53,310.79L901.56,313.24L901.58,280.1L901.59,251.26L901.91,396.44L902.37,132.4L902.4,167.85L902.42,212.89L902.46,169.37L902.56,328.74L902.64,181.13L902.65,153.46L902.91,314.86L903.07,101.22L903.23,287.42L903.24,300.68L903.26,304.37L903.32,194.83L903.33,151.66L903.75,71.61L903.98,294.93L904,305.49L904.19,175.51L904.35,384.2L904.77,258.01L904.78,246.26L905.04,334.32L905.23,194.58L905.32,320.11L905.33,330.65L905.35,332.12L905.39,290.39L905.41,255.83L905.7,334.54L906.2,111.06L906.22,123.69L906.77,397.77L907.03,304.93L907.04,328.21L907.07,349.02L907.23,107.43L907.51,142.06L907.52,118.65L907.58,93.46L907.71,194.03L907.73,243.31L907.93,76.3L908.48,307.19L908.49,294.98L908.51,280.37L908.62,102.26L909.2,406.04L909.23,372.59L909.25,351.25L910.02,90.59L910.13,167.27L910.15,208.18L910.22,321.51L910.71,65.93L910.9,291.07L910.92,291.77L911.06,57.06L911.29,321.64L911.57,294.75L911.58,317.2L911.64,378.65L912.02,165.86L912.03,122.39L912.45,48.13L912.66,285.7L912.8,58.32L912.82,61.14L913.35,307.21L913.58,147.76L913.6,147.49L913.92,147.44L914.08,388.17L914.41,307.48L914.43,291.37L914.74,292.92L914.9,59.01L915.22,62.64L915.24,38.99L915.44,290.75L915.57,75.84L915.59,54.3L915.76,270.91L915.77,282.73L915.79,285.88L915.83,215.35L915.85,148.46L915.93,53.13L916.51,386.28L916.54,358.16L916.56,338.54L917.33,57.05L917.43,117.56L917.44,141.71L917.67,87.9L918.23,318.54L918.24,303.88L918.25,283.32L918.37,72.88L918.94,373.27L918.95,397.07L919.78,106.79L919.88,175.91L919.89,216.08L920.11,101.52L920.7,402.65L920.72,381.92L921.23,191.5L921.39,415.17L921.47,349.77L921.49,354.79L921.5,355.5L921.55,310.63L921.56,225.73L921.69,357.65L922.2,100.71L922.33,213.5L922.34,259.74L922.74,331.29L922.89,111.47L923.11,308.66L923.13,285.67L923.24,115.1L923.82,412.56L923.85,389.07L923.87,370.48L924.64,115.09L924.74,158.46L924.75,186.66L924.84,338.94L924.98,116.75L925.53,336.9L925.55,320.52L925.68,116.89L926.24,404.35L926.26,423.41L926.27,425.38L926.42,327.43L926.43,245.95L926.49,296.9L926.51,330.43L926.56,404.97L927.13,174.43L927.27,389.4L927.29,371.01L927.61,382.4L927.78,158.12L928.1,169.11L928.12,154.01L928.7,448.2L928.86,318.51L928.87,229.24L929,402.84L929.49,150.04L929.51,136.5L929.71,356.26L929.78,189.24L929.8,160.47L930.04,348.39L930.22,118.97L930.36,314.03L930.38,335.04L930.55,114.35L930.78,355.3L930.94,242.46L930.96,161.05L931.15,421.79L931.84,413.27L931.86,389.43L932.64,133.56L932.71,160.2L932.73,173.38L932.74,171.04L932.8,321.38L932.81,340.75L932.99,129.19L933.22,358.44L933.37,273.49L933.38,236.75L933.58,426.5L934.05,161.31L934.13,188.73L934.15,214.88L934.44,164.17L934.57,380.48L934.93,374.84L934.95,356.21L935.13,156.64L935.66,374.54L935.71,276.15L935.73,272.85L935.83,179.78L936.02,441.05L936.4,223.26L936.41,197.14L936.66,369.57L936.88,158.83L936.95,268.68L936.96,315.55L937.22,151L937.7,372.94L937.73,350.1L937.75,317.81L937.92,155.86L938.44,452.33L938.46,457.99L939.31,177.21L939.33,197.68L939.66,185.09L940.15,422.96L940.17,406.87L940.36,204.6L940.88,498.01L940.89,501.39L941.75,225.52L941.78,262.68L941.79,280.57L942.1,224.55L942.27,478.35L942.6,452.54L942.62,443.61L943.14,212.72L943.33,474.41L943.37,411.53L943.39,394.35L943.43,405.04L943.47,324.37L943.49,252.09L943.62,449.46L944.18,188.12L944.21,220.19L944.23,224.8L944.31,415.13L944.88,177.1L945.03,396.36L945.04,375.39L945.23,179.85L945.76,467.25L945.78,444.32L946.62,158.3L946.64,172.88L946.97,160.63L947.45,395.92L947.48,373.52L947.49,337L947.66,172.64L948.16,447.76L948.17,451.16L948.2,464.99L948.36,253.45L948.55,326.18L948.56,275.92L949.06,175.64L949.19,410.06L949.33,225.31L949.35,212.17L949.4,176.2L949.46,248.09L949.48,299.66L949.54,405.36L949.75,170.5L950.25,400.17L950.26,398.36L950.45,182.62L950.54,375.2L950.55,403.67L950.64,459.35L951.04,208.53L951.07,211.94L951.09,197.51L951.15,178.18L951.25,373.17L951.26,389.77L951.28,397.27L951.45,184.94L951.46,189.12L951.48,187.62L951.49,163.1L951.97,392.81L952.22,204.13L952.23,205.57L952.54,176.46L953.07,465.95L953.09,443.12L953.93,160.85L953.94,186L953.96,202.04L954,287.53L954.02,336.11L954.06,394.14L954.63,163.37L954.77,387.66L954.79,368L955.32,180.93L955.51,465.03L955.52,443.12L956.37,189.45L956.41,225.25L956.42,260.2L956.5,413.89L956.71,175.16L957.21,403.29L957.22,384.44L957.41,177.34L957.89,440.48L957.9,448.77L957.95,469.65L958.09,337.52L958.11,245.89L958.24,431.93L958.8,173.1L958.83,209.33L958.85,209.77L958.93,394.31L959.5,163.69L959.64,386.03L959.66,370.22L959.85,166.39L960.35,444L960.37,456.25L960.38,462.78L960.77,230.66L960.79,227.49L961.24,171.7L961.37,396.95L961.51,217.45L961.53,204.64L961.59,167.78L961.64,237.74L961.66,290.33L961.93,168.4L962.43,398.05L962.44,394.24L962.5,314.77L962.52,298.85L962.63,185.24L962.79,438.55L962.81,451.13L962.82,456.19L962.98,234.74L963.18,267.04L963.2,237.65L963.68,175.02L963.81,395.35L963.95,219.5L963.97,205.38L964.02,175.12L964.11,333.6L964.12,367.59L964.15,394.43L964.37,176.4L964.7,213.3L964.72,184.82L965.07,183.84L965.26,458.33L965.57,394L965.59,352.46L965.89,397.67L966.11,178.81L966.37,225.13L966.39,208.56L966.81,165.75L966.94,395.55L967.13,220.33L967.14,232.44L967.16,180.53L967.69,469.33L967.87,263.06L967.88,279.89L967.98,434.55L968.2,182.85L968.39,303.11L968.4,256.41L968.55,171.58L968.68,395.75L969.03,390.95L969.04,386.99L969.24,174.18L969.37,390.1L969.69,365.24L969.71,386.45L969.94,195.01L970.11,460.33L970.45,399.87L970.46,365.51L970.77,398.27L970.98,172.94L971.27,191.54L971.29,192.05L971.33,174.39L971.46,394.36L971.67,209.7L971.68,167.44L971.81,380.71L971.88,234.25L971.9,204.25L971.97,164.11L972.55,456.44L972.57,458.6L973.42,186.29L973.44,184.71L973.55,400.73L974.12,172.55L974.26,382.03L974.28,364.39L974.41,171.73L974.97,431.69L974.99,451.06L975.16,239.83L975.28,407.44L975.29,414.45L975.35,313.2L975.36,258.51L975.87,186.18L975.99,396.68L976.1,219.05L976.12,243.85L976.22,190.96L976.73,430.31L976.8,341.91L976.81,339.67L976.83,340.66L976.89,319.32L976.9,237.84L977.08,444.45L977.26,223.01L977.37,428.45L977.38,439.56L977.42,470.67L977.61,256.18L977.8,272.73L977.81,239.91L978.08,385.56L978.6,174.05L978.61,177.27L978.63,201.37L978.77,372.31L978.95,164.09L979.37,202.36L979.38,207.6L979.69,191.1L979.86,456.02L980.19,383.62L980.21,352.64L980.51,380.14L980.74,156.89L980.99,182.98L981.01,162.72L981.03,140.77L981.56,370.3L981.75,171.27L981.76,199.18L981.79,158.89L982.3,442.94L982.48,227.1L982.5,240.06L982.6,384.96L982.76,120.12L983.02,207.15L983.04,172.57L983.31,342.49L983.46,108.41L983.8,119.8L983.82,124.91L984.73,429.91L984.76,398.85L984.78,381.95L985.54,113.47L985.65,156.99L985.66,174.46L985.73,339.8L985.89,104.14L986.44,333.45L986.46,329.24L986.59,148.45L986.82,383.76L987.1,383.5L987.11,402.66L987.17,452.83L987.55,239.76L987.56,206.03L987.82,354.44L988.33,118.15L988.34,119.06L988.36,131.99L988.91,406.03L989.14,256.6L989.16,281.05L989.45,197.96L989.61,427.89L989.92,377.02L989.94,371.99L990.77,118.24L990.78,121.37L990.79,134.4L991.11,105.55L991.66,358.35L991.68,377.02L991.69,378.48L991.74,281.59L991.75,267.23L991.77,266.23L991.84,290.56L991.85,276.79L991.87,210.89L992.04,457.39L992.51,155.65L992.62,208.34L992.64,252.6L992.69,360.83L992.85,130.26L993.4,349.29L993.42,342.99L993.9,129.31L994.13,365.15L994.19,250.38L994.2,246.24L994.32,183.76L994.48,437.43L994.84,302.66L994.86,241.44L995.16,365.45L995.64,117.59L995.65,120.24L996.22,403.56L996.39,243.35L996.41,211.87L996.75,201.99L996.93,425.98L997.23,382.22L997.25,363.53L997.74,151.31L998.07,154.57L998.09,147.01L998.63,362.82L998.7,213.55L998.71,188.5L998.79,164.45L999,364.38L999.25,276.29L999.26,311.46L999.37,421.95L999.83,92.85L999.9,144.42L999.92,149.19L1000.02,315.22L1000.16,79.25L1000.18,71.33L1000.74,332.19L1000.93,207.86L1000.95,176.28L1001.22,152.91L1001.44,367.87L1001.61,269.58L1001.63,226.62L1001.8,411.78L1002.27,162.8L1002.37,200.83L1002.38,239.32L1002.79,359.47L1002.96,155.14L1003.16,332.74L1003.18,313.97L1003.66,114.97L1003.88,328.98L1003.95,239.22L1003.96,245.87L1004.08,196.83L1004.24,401.69L1004.43,230.48L1004.44,231.46L1004.54,371.25L1004.7,150.33L1004.98,173.32L1004.99,164.75L1005.24,348.08L1005.4,125.91L1005.7,149.03L1005.72,129.09L1005.75,99.86L1006.31,324.57L1006.41,248.81L1006.43,251.35L1006.47,251.64L1006.49,246.29L1006.5,205.04L1006.67,398.62L1007.14,158.04L1007.24,190.24L1007.25,232.93L1007.31,354.16L1007.83,99.53L1008.02,322.08L1008.04,309.89L1008.18,97.1L1008.69,331.13L1008.7,344.12L1008.95,217.91L1009.1,437.31L1009.28,296.02L1009.3,245.75L1009.4,376.31L1009.92,81.44L1010.05,211.14L1010.07,251.19L1010.11,298.85L1010.62,50.59L1010.82,271.68L1010.84,269.85L1010.95,56.46L1011.55,361.37L1011.56,344.35L1011.58,325.69L1012.01,32.29L1012.43,124.32L1012.45,116.52L1012.55,268.79L1012.71,66.58L1012.88,263.4L1012.9,269.85L1013.06,65.89L1013.53,198.31L1013.55,231.43L1013.82,171.35L1013.98,359.23L1014.33,347.26L1014.35,317.9L1014.68,433.64L1015.14,200.56L1015.16,203.53L1015.33,349.1L1015.49,182.93L1015.9,235.52L1015.91,196.02L1015.93,191.43L1016.04,336.08L1016.06,354.16L1016.07,354.41L1016.09,325.87L1016.27,192.37L1016.42,388.99L1016.85,291.45L1016.87,287.32L1016.96,219.49L1017,315.9" style="vector-effect: non-scaling-stroke; fill: none; stroke: rgb(99, 110, 250); stroke-opacity: 1; stroke-width: 2px; opacity: 1;"/></g><g class="points"/><g class="text"/></g></g></g><g class="overplot"/><path class="xlines-above crisp" d="M102,664.5H1120" style="fill: none; stroke-width: 1px; stroke: rgb(255, 255, 255); stroke-opacity: 1;"/><path class="ylines-above crisp" d="M102.5,100V664" style="fill: none; stroke-width: 1px; stroke: rgb(255, 255, 255); stroke-opacity: 1;"/><g class="overlines-above"/><g class="xaxislayer-above"><g class="xtick"><text text-anchor="middle" x="0" y="696.2" transform="translate(103,0)" style="font-family: 'Open Sans', verdana, arial, sans-serif; font-size: 26px; fill: rgb(42, 63, 95); fill-opacity: 1; white-space: pre;">2011</text></g><g class="xtick"><text text-anchor="middle" x="0" y="696.2" transform="translate(230.04000000000002,0)" style="font-family: 'Open Sans', verdana, arial, sans-serif; font-size: 26px; fill: rgb(42, 63, 95); fill-opacity: 1; white-space: pre;">2012</text></g><g class="xtick"><text text-anchor="middle" x="0" y="696.2" transform="translate(357.43,0)" style="font-family: 'Open Sans', verdana, arial, sans-serif; font-size: 26px; fill: rgb(42, 63, 95); fill-opacity: 1; white-space: pre;">2013</text></g><g class="xtick"><text text-anchor="middle" x="0" y="696.2" transform="translate(484.47,0)" style="font-family: 'Open Sans', verdana, arial, sans-serif; font-size: 26px; fill: rgb(42, 63, 95); fill-opacity: 1; white-space: pre;">2014</text></g><g class="xtick"><text text-anchor="middle" x="0" y="696.2" transform="translate(611.51,0)" style="font-family: 'Open Sans', verdana, arial, sans-serif; font-size: 26px; fill: rgb(42, 63, 95); fill-opacity: 1; white-space: pre;">2015</text></g><g class="xtick"><text text-anchor="middle" x="0" y="696.2" transform="translate(738.55,0)" style="font-family: 'Open Sans', verdana, arial, sans-serif; font-size: 26px; fill: rgb(42, 63, 95); fill-opacity: 1; white-space: pre;">2016</text></g><g class="xtick"><text text-anchor="middle" x="0" y="696.2" transform="translate(865.93,0)" style="font-family: 'Open Sans', verdana, arial, sans-serif; font-size: 26px; fill: rgb(42, 63, 95); fill-opacity: 1; white-space: pre;">2017</text></g><g class="xtick"><text text-anchor="middle" x="0" y="696.2" transform="translate(992.97,0)" style="font-family: 'Open Sans', verdana, arial, sans-serif; font-size: 26px; fill: rgb(42, 63, 95); fill-opacity: 1; white-space: pre;">2018</text></g><g class="xtick"><text text-anchor="middle" x="0" y="696.2" transform="translate(1120.01,0)" style="font-family: 'Open Sans', verdana, arial, sans-serif; font-size: 26px; fill: rgb(42, 63, 95); fill-opacity: 1; white-space: pre;">2019</text></g></g><g class="yaxislayer-above"><g class="ytick"><text text-anchor="end" x="96.8" y="9.1" transform="translate(0,603.19)" style="font-family: 'Open Sans', verdana, arial, sans-serif; font-size: 26px; fill: rgb(42, 63, 95); fill-opacity: 1; white-space: pre;">40k</text></g><g class="ytick"><text text-anchor="end" x="96.8" y="9.1" transform="translate(0,498.3)" style="font-family: 'Open Sans', verdana, arial, sans-serif; font-size: 26px; fill: rgb(42, 63, 95); fill-opacity: 1; white-space: pre;">50k</text></g><g class="ytick"><text text-anchor="end" x="96.8" y="9.1" transform="translate(0,393.4)" style="font-family: 'Open Sans', verdana, arial, sans-serif; font-size: 26px; fill: rgb(42, 63, 95); fill-opacity: 1; white-space: pre;">60k</text></g><g class="ytick"><text text-anchor="end" x="96.8" y="9.1" transform="translate(0,288.51)" style="font-family: 'Open Sans', verdana, arial, sans-serif; font-size: 26px; fill: rgb(42, 63, 95); fill-opacity: 1; white-space: pre;">70k</text></g><g class="ytick"><text text-anchor="end" x="96.8" y="9.1" transform="translate(0,183.62)" style="font-family: 'Open Sans', verdana, arial, sans-serif; font-size: 26px; fill: rgb(42, 63, 95); fill-opacity: 1; white-space: pre;">80k</text></g></g><g class="overaxes-above"/></g></g><g class="polarlayer"/><g class="ternarylayer"/><g class="geolayer"/><g class="funnelarealayer"/><g class="pielayer"/><g class="treemaplayer"/><g class="sunburstlayer"/><g class="glimages"/><defs id="topdefs-f3cc7c"><g class="clips"/></defs><g class="layer-above"><g class="imagelayer"/><g class="shapelayer"/></g><g class="infolayer"><g class="g-gtitle"><text class="gtitle" x="60" y="50" text-anchor="start" dy="0em" style="font-family: 'Open Sans', verdana, arial, sans-serif; font-size: 36px; fill: rgb(42, 63, 95); opacity: 1; font-weight: normal; white-space: pre;">All Demand outliers fixed</text></g><g class="g-xtitle"><text class="xtitle" x="611.5" y="737.903125" text-anchor="middle" style="font-family: 'Open Sans', verdana, arial, sans-serif; font-size: 31px; fill: rgb(42, 63, 95); opacity: 1; font-weight: normal; white-space: pre;">Date</text></g><g class="g-ytitle" transform="translate(19.3564453125,0)"><text class="ytitle" transform="rotate(-90,11.643749999999997,382)" x="11.643749999999997" y="382" text-anchor="middle" style="font-family: 'Open Sans', verdana, arial, sans-serif; font-size: 31px; fill: rgb(42, 63, 95); opacity: 1; font-weight: normal; white-space: pre;">Demand</text></g></g></svg>