<svg class="main-svg" xmlns="http://www.w3.org/2000/svg" xmlns:xlink="http://www.w3.org/1999/xlink" width="1200" height="750" style="" viewBox="0 0 1200 750"><rect x="0" y="0" width="1200" height="750" style="fill: rgb(255, 255, 255); fill-opacity: 1;"/><defs id="defs-e94834"><g class="clips"><clipPath id="clipe94834xyplot" class="plotclip"><rect width="1017" height="564"/></clipPath><clipPath class="axesclip" id="clipe94834x"><rect x="103" y="0" width="1017" height="750"/></clipPath><clipPath class="axesclip" id="clipe94834y"><rect x="0" y="100" width="1200" height="564"/></clipPath><clipPath class="axesclip" id="clipe94834xy"><rect x="103" y="100" width="1017" height="564"/></clipPath></g><g class="gradients"/></defs><g class="bglayer"><rect class="bg" x="103" y="100" width="1017" height="564" style="fill: rgb(229, 236, 246); fill-opacity: 1; stroke-width: 0;"/></g><g class="layer-below"><g class="imagelayer"/><g class="shapelayer"/></g><g class="cartesianlayer"><g class="subplot xy"><g class="layer-subplot"><g class="shapelayer"/><g class="imagelayer"/></g><g class="gridlayer"><g class="x"><path class="xgrid crisp" transform="translate(272.81,0)" d="M0,100v564" style="stroke: rgb(255, 255, 255); stroke-opacity: 1; stroke-width: 1px;"/><path class="xgrid crisp" transform="translate(442.16,0)" d="M0,100v564" style="stroke: rgb(255, 255, 255); stroke-opacity: 1; stroke-width: 1px;"/><path class="xgrid crisp" transform="translate(611.51,0)" d="M0,100v564" style="stroke: rgb(255, 255, 255); stroke-opacity: 1; stroke-width: 1px;"/><path class="xgrid crisp" transform="translate(780.86,0)" d="M0,100v564" style="stroke: rgb(255, 255, 255); stroke-opacity: 1; stroke-width: 1px;"/><path class="xgrid crisp" transform="translate(950.67,0)" d="M0,100v564" style="stroke: rgb(255, 255, 255); stroke-opacity: 1; stroke-width: 1px;"/></g><g class="y"><path class="ygrid crisp" transform="translate(0,620.69)" d="M103,0h1017" style="stroke: rgb(255, 255, 255); stroke-opacity: 1; stroke-width: 1px;"/><path class="ygrid crisp" transform="translate(0,511.93)" d="M103,0h1017" style="stroke: rgb(255, 255, 255); stroke-opacity: 1; stroke-width: 1px;"/><path class="ygrid crisp" transform="translate(0,403.17)" d="M103,0h1017" style="stroke: rgb(255, 255, 255); stroke-opacity: 1; stroke-width: 1px;"/><path class="ygrid crisp" transform="translate(0,294.41999999999996)" d="M103,0h1017" style="stroke: rgb(255, 255, 255); stroke-opacity: 1; stroke-width: 1px;"/><path class="ygrid crisp" transform="translate(0,185.66)" d="M103,0h1017" style="stroke: rgb(255, 255, 255); stroke-opacity: 1; stroke-width: 1px;"/></g></g><g class="zerolinelayer"/><path class="xlines-below"/><path class="ylines-below"/><g class="overlines-below"/><g class="xaxislayer-below"/><g class="yaxislayer-below"/><g class="overaxes-below"/><g class="plot" transform="translate(103, 100)" clip-path="url('#clipe94834xyplot')"><g class="scatterlayer mlayer"><g class="trace scatter traceef22df" style="stroke-miterlimit: 2; opacity: 1;"><g class="fills"/><g class="errorbars"/><g class="lines"><path class="js-line" d="M0,440.81L0.12,533.17L0.41,356.14L0.64,370.87L0.66,344L1.01,460.42L1.22,260.27L1.37,310.52L1.39,362.31L1.47,434.68L1.68,237.57L2.09,266.56L2.11,246.51L2.38,421.47L2.59,222.69L2.76,299.59L2.78,339.33L3.17,263.3L3.38,489.18L3.56,419.33L3.58,405.37L3.77,449.42L4,219.96L4.21,405.12L4.23,414.46L4.25,416.18L4.29,385.14L4.31,350.46L4.72,421.33L4.93,217.95L5.08,284.57L5.1,343.52L5.18,421.86L5.39,208.39L5.8,240.62L5.82,224.32L5.86,209.99L6.15,417.11L6.46,287.86L6.48,323.87L6.63,485.09L7.17,238.47L7.19,248.37L7.21,229.73L7.5,408.76L7.71,192.03L7.87,275.31L7.89,329.79L7.96,401.63L8.18,193L8.58,234.26L8.6,214.12L8.64,193.5L8.89,403.61L9.26,271.37L9.28,318.82L9.67,246.87L9.88,482.39L10.05,408.63L10.07,395.61L10.28,433.09L10.94,175.85L10.98,184.29L11,215.99L11.21,384.96L11.43,187.47L11.75,260.46L11.77,225.59L11.89,193.16L12.14,401.48L12.47,258.84L12.49,262.65L12.91,255.17L13.13,494.1L13.3,419.05L13.32,404.25L13.51,449.35L13.75,198.88L13.96,397.28L13.98,407.1L14,408.07L14.02,394.73L14.04,367.45L14.46,399.52L14.67,173.25L14.81,215.59L14.83,254.41L14.92,386.07L15.14,167.27L15.54,195.33L15.56,172.72L15.58,154.63L15.89,376.98L16.2,256.34L16.22,287.93L16.37,456.77L16.9,174.71L16.92,170.51L17.24,354.16L17.46,128.86L17.73,334.8L17.75,303.98L17.92,125.87L18.17,344.69L18.44,251.99L18.46,264.9L18.83,146.72L19.12,369.67L19.18,327.66L19.2,300.67L19.41,227.25L19.62,458.92L19.91,283.43L19.93,320.04L20.01,421L20.24,175.51L20.61,195.36L20.63,190.38L20.96,384.66L21.17,162.95L21.48,309.77L21.5,259.9L21.63,165.05L21.88,374.33L22.25,258.23L22.27,305.41L22.66,242.37L22.87,464.81L23.06,402.84L23.08,388.71L23.28,434.57L23.6,285.55L23.8,425.72L23.82,411.32L24.2,416.59L24.42,207.87L24.61,348.15L24.63,370.83L24.67,380.31L24.88,166.03L24.9,169.5L25.34,162.25L25.61,377.2L25.69,304.23L25.71,285.58L25.85,312.21L25.87,310.21L25.89,267.8L26.1,462.95L26.64,171.06L26.66,171.71L26.97,374.62L27.2,140.7L27.49,334.84L27.51,281.62L27.64,130.8L27.92,364.22L28.26,205.6L28.28,248.54L28.57,139.31L28.88,386.85L29.04,290.54L29.06,298.57L29.13,198.76L29.35,458.39L29.58,306.83L29.6,248.04L29.75,405.4L29.83,306.63L29.85,232.87L30.24,362.14L30.43,133.75L30.58,195.7L30.6,242.85L30.89,139.11L31.16,364.88L31.32,186.91L31.34,157.78L31.36,139.35L31.61,364.16L31.99,246.72L32.01,296.87L32.38,194.21L32.59,459.28L32.79,382.95L32.81,363.87L33,414.23L33.21,145.29L33.6,166.39L33.62,165.25L33.68,140.98L33.93,383.14L34.47,286.42L34.49,222.2L34.6,155.23L34.87,382.63L35.22,247.51L35.24,286.65L35.63,212.51L35.84,482.23L36.03,404.07L36.05,381.81L36.25,440.33L36.48,199.14L36.83,222.63L36.85,201.99L36.94,178.75L36.98,233.36L37.08,228.76L37.1,274.01L37.18,394.16L37.39,163.98L37.81,193.02L37.83,170.23L37.85,153.82L38.1,384.36L38.47,248.82L38.49,260.9L38.88,198.42L39.09,474.51L39.28,392.15L39.3,370.66L39.5,426.91L39.73,162.15L40.09,183.92L40.11,185.75L40.17,175.58L40.89,420.42L40.96,323.67L40.98,267.79L41.35,411.4L41.56,191.88L41.72,250.67L41.74,294.07L42.12,206.33L42.34,480.74L42.51,406.05L42.53,396.41L42.74,443.62L42.98,180.26L43.21,402.44L43.23,400.37L43.88,163.06L44.04,214.25L44.06,261.95L44.35,192.61L44.68,464.43L44.85,411.93L44.87,385.79L45.37,233.63L45.58,483.68L45.6,478.92L46.2,195.4L46.42,384.79L46.44,402.57L46.45,407.95L46.67,182.9L47,309.67L47.02,247.48L47.38,388.83L47.6,165.7L47.75,223.79L47.77,274.86L47.85,391.32L48.06,161.24L48.52,299.82L48.54,304.33L48.6,196.32L48.83,462.17L49.05,351.94L49.06,254.3L49.08,252.26L49.14,309.98L49.16,347.61L49.24,434L49.45,198.08L49.84,209.64L49.86,211.21L50.38,186.58L50.63,413.95L50.69,364.48L50.71,320.01L50.84,189.09L51.09,406.91L51.46,247.72L51.48,295.18L51.85,230.58L52.08,488.36L52.27,412.28L52.29,369.55L52.49,462.91L52.78,214.91L53.05,271.99L53.07,242.14L53.41,420.65L53.7,184.28L53.78,241.73L53.8,294.37L54.17,191.28L54.34,414.59L54.52,234.02L54.54,215.48L54.63,200.72L54.83,421.82L55.17,313.82L55.19,358.33L55.33,487.03L55.56,267.76L55.89,281.05L55.91,295.75L56.02,240.31L56.26,501.47L56.57,360.27L56.58,406.64L56.66,488.49L56.95,216.85L57.24,268.48L57.26,249.54L57.28,249.26L57.3,270.09L57.42,209.85L57.59,446.9L57.98,324.35L58,376.11L58.34,208.93L58.58,504.65L58.77,420.68L58.79,367.18L58.98,482.58L59.27,220.63L59.56,264.72L59.58,243.66L59.6,243.09L59.62,269.28L59.91,447.75L60.2,207.37L60.3,325.06L60.32,379.43L60.37,441.25L60.66,200.04L60.99,227.88L61.01,250.52L61.32,435.08L61.59,199.94L61.67,316.96L61.69,361.55L61.82,494.49L62.37,239.58L62.38,239.95L62.4,263.82L62.52,206.75L62.69,444.65L63.06,284.16L63.08,345.21L63.45,208.15L63.62,459.68L63.8,290.61L63.82,275.53L63.91,215.44L64.09,462.42L64.47,350.07L64.49,400.59L64.84,229.75L65.09,525.91L65.26,441.01L65.28,377.18L65.48,499.8L65.77,221.94L66.04,310.16L66.06,284.86L66.41,463.35L66.7,206.57L66.77,285.61L66.79,345.67L66.87,460.44L67.16,207.93L67.51,269.82L67.53,255.12L67.62,205.79L67.82,450.75L68.15,307.43L68.16,345.18L68.32,517.51L68.86,255.59L68.88,250.21L69.19,449.08L69.48,194.93L69.71,382.33L69.73,339.4L69.94,196.99L70.12,445.54L70.48,280.94L70.5,335.59L70.58,451.32L70.87,216.11L71.24,354.75L71.26,358.4L71.28,360.16L71.32,307.79L71.34,217.44L71.59,514.6L72.09,266.22L72.11,244.54L72.44,437.63L72.73,198.54L72.8,268.96L72.82,322.88L73.19,213.62L73.42,465.1L73.58,379.84L73.6,381.16L73.66,249.36L73.79,456.8L73.81,470.76L73.83,477.05L73.96,296.57L74,312.96L74.02,298.74L74.12,235.35L74.31,469L74.33,468.53L74.35,466.74L74.58,222.27L74.83,521.9L75.12,366.66L75.14,409.78L75.22,495.73L75.51,225.94L75.8,280.26L75.82,259.75L75.84,259.48L75.86,285.04L75.97,209.62L76.15,459.04L76.52,285.26L76.54,341L76.9,214.21L77.08,458.78L77.27,268.04L77.29,253.7L77.37,223.43L77.46,339.59L77.48,391.23L77.83,221.45L78.08,524.42L78.24,456.65L78.26,438.2L78.47,496.8L78.76,221.87L79.03,292.25L79.05,265.36L79.4,442.77L79.69,199.26L79.76,264.55L79.78,317.02L79.86,434.24L80.15,195.3L80.5,261.7L80.52,248.63L80.61,208.37L80.81,447.1L81.02,361.83L81.04,355.77L81.08,209.81L81.33,522.33L81.72,491.88L81.74,486.76L82.47,221.3L82.55,297.85L82.57,357.63L82.64,463.05L82.93,210.85L83.28,289.92L83.3,273.16L83.4,211.02L83.59,455.86L83.94,297.84L83.96,342.51L84.33,220.74L84.58,523.86L84.73,453.05L84.75,441.45L84.96,493.57L85.25,222.03L85.52,310.75L85.54,283.29L85.89,453.58L86.18,212.7L86.26,294.04L86.28,340.58L86.36,451.07L86.65,213.43L86.99,280.72L87.01,260.75L87.11,224.39L87.3,454.76L87.63,314.93L87.65,351.96L87.83,521.22L88.04,292.43L88.39,342.86L88.41,330.14L88.68,477.8L88.97,223.53L89.06,353.44L89.08,406.04L89.14,459.81L89.43,211.85L89.72,274.71L89.74,254.42L89.89,217.67L90.07,445.33L90.34,267.38L90.36,222.01L91.07,527.97L91.25,442.75L91.27,386.78L91.46,497.83L91.75,230.86L92.04,277.74L92.06,262.34L92.21,219.91L92.39,459.15L92.6,259.96L92.62,262.02L92.68,218.91L92.76,290.51L92.77,349.07L92.85,462.18L93.14,219.77L93.49,300.17L93.51,278.13L93.61,226.99L93.8,466.44L94.13,323.69L94.15,352.24L94.32,531.74L94.84,272.08L94.86,275.01L95.17,449.86L95.46,212.57L95.69,400.79L95.71,352.11L96.1,450.65L96.39,213.34L96.47,270.35L96.49,326.28L96.85,225.06L97.05,450.82L97.24,356.65L97.26,358.89L97.3,324.74L97.32,220.72L97.55,523.86L98.03,375.12L98.05,319.99L98.42,459.52L98.71,221.89L98.79,280.9L98.81,344.12L98.88,458.26L99.17,220.77L99.52,275.23L99.54,259.12L99.64,218.71L99.81,448.29L100.18,275.08L100.2,324.35L100.57,226.93L100.8,517.26L100.97,444.58L100.99,430.69L101.2,487.3L101.49,235.48L101.78,273.1L101.8,253.51L101.82,253.32L101.84,279.6L102.13,448.7L102.42,215.62L102.52,328.6L102.54,385.18L102.6,445.28L102.89,216.95L103.21,243.35L103.23,263.63L103.52,448.62L103.81,222.28L103.87,294.06L103.89,329.86L104.04,517.58L104.59,252.47L104.61,250.12L104.91,443.79L105.2,213.68L105.42,419.41L105.44,385.76L105.84,446.14L106.13,217.56L106.21,274.1L106.23,328.63L106.6,226.37L106.79,449.82L106.98,354.69L107,356.95L107.02,357.28L107.04,333.91L107.06,225.96L107.29,510.82L107.78,376.95L107.8,319.42L108.16,443.34L108.45,219.83L108.53,267.79L108.55,331.25L108.92,215.44L109.09,445.65L109.26,268.89L109.28,252.12L109.38,223.63L109.55,444.38L109.94,324.11L109.96,371.35L110.31,230.58L110.54,512.08L110.73,430.99L110.75,392.8L110.95,484.27L111.24,231.92L111.51,290.49L111.53,262.44L111.87,449.51L112.16,222.92L112.24,276.34L112.26,334.44L112.34,450.38L112.63,229.43L112.98,268.07L113,254.49L113.32,450.59L113.58,225.49L113.63,331.68L113.65,378.55L113.79,518.93L114.33,238.95L114.35,233.68L114.43,224.46L115.12,443.3L115.18,385.03L115.2,339.36L115.59,434.15L115.8,214.01L115.95,267.09L115.97,317.29L116.36,248.53L116.57,482.02L116.73,365.58L116.75,364.86L116.77,365.87L116.78,344.79L116.8,244.84L116.82,237.33L116.96,460.25L116.98,472.84L117.04,505.01L117.25,371.57L117.27,271.02L117.29,265.51L117.4,438.78L117.42,452.31L117.44,458.2L117.54,280.21L117.56,240.96L117.91,419.88L118.12,191.3L118.27,236.93L118.29,295.79L118.37,415.51L118.58,188.04L119.01,229.17L119.03,211.49L119.05,191.67L119.3,415.81L119.68,293.88L119.7,343.67L120.07,214.05L120.28,495.93L120.48,404.64L120.5,375.29L120.69,445.78L120.9,170.6L121.27,209.84L121.29,185.25L121.33,210.64L121.35,187.42L121.37,166.06L121.39,165.7L121.41,177.35L121.42,221.01L121.62,393.66L121.83,177.31L122.04,376.28L122.06,394.92L122.08,403.07L122.29,208.72L122.35,245.3L122.37,212.11L122.55,413.78L122.64,261.7L122.66,228.28L122.68,207.58L123.07,431.98L123.34,254.15L123.36,297.84L123.53,514.69L124.05,270.83L124.07,246.81L124.11,263.75L124.17,226.8L124.3,258.08L124.32,320.8L124.69,214.22L124.87,432.19L125.04,264.67L125.06,250.71L125.16,229.48L125.33,460.87L125.7,301.34L125.72,356.45L126.08,242.58L126.32,459.29L126.45,352.21L126.47,353.56L126.51,356.69L126.53,332.59L126.55,242.08L126.57,241.91L126.59,267.77L126.78,527.97L127.32,241.45L127.34,235.73L127.65,433.79L127.88,202.74L128.17,377.07L128.19,318.68L128.35,187.88L128.58,407.31L128.94,243.38L128.96,289.9L129.25,191.02L129.56,429.91L129.7,316.14L129.72,316.88L129.81,216.26L129.91,386.16L129.93,419.25L130.03,494.31L130.53,267.84L130.55,230.57L130.9,407.13L131.11,182.45L131.26,224.3L131.28,276.1L131.59,185.55L131.83,400.21L132,233.52L132.02,215.37L132.04,203.31L132.33,450.19L132.35,470.67L132.81,485.44L133.06,252.87L133.14,385.4L133.16,425.89L133.28,524.32L133.8,287.74L133.82,260.96L133.99,227.85L134.11,410.43L134.13,427.95L134.14,435.49L134.36,211.24L134.69,328.88L134.71,271.97L135.07,419.49L135.29,192.6L135.44,247.95L135.46,292.03L135.75,202.86L136.04,437.83L136.21,324L136.23,326.69L136.31,219.96L136.46,448.56L136.48,459.56L136.54,492.4L136.75,370.74L136.77,303.34L136.93,444.12L137.16,184.29L137.55,201.06L137.57,221.73L137.88,409.17L138.09,184.78L138.24,265.42L138.26,322.17L138.55,173.23L138.77,501.55L138.94,189.54L138.96,207.3L139.02,176.14L139.31,409.47L139.5,313.82L139.52,318.11L139.58,224.17L139.64,313.97L139.65,352.06L139.79,468.86L140.29,223.45L140.31,189.64L140.41,153.73L140.64,377.26L140.66,379.53L140.87,137.59L141.45,218.21L141.47,213.26L141.8,182.81L142.11,446.8L142.3,385.43L142.32,366.73L142.83,263.94L143.02,499.62L143.04,503.79L143.66,197.18L143.85,390.02L143.87,412.24L143.89,422.43L144.12,195.03L144.43,340.66L144.45,284.96L144.56,189.13L144.82,410.88L145.2,284.3L145.22,338.18L145.51,193.32L145.76,410.94L145.94,313.97L145.96,316.75L146.07,231.73L146.13,334.23L146.15,374.98L146.29,485.19L146.81,209.28L146.83,203.05L146.9,196.22L147.6,439.32L147.68,354.31L147.7,304.88L147.83,236.9L148.12,473.19L148.43,321.4L148.45,361.79L148.53,469.7L148.76,272.61L149.2,368.38L149.22,370.55L149.32,268.95L149.51,519.51L149.75,402.25L149.77,348.45L149.92,471.61L150.15,213.7L150.54,247.5L150.56,261.65L150.87,420.37L151.08,187.67L151.23,277.59L151.25,331.82L151.33,412.97L151.54,173.01L151.95,234.56L151.97,218.57L152.03,187.74L152.3,403.35L152.61,294.93L152.63,329.73L152.78,476.56L153.32,224.98L153.34,245.32L153.4,211.19L153.63,420.62L153.65,419.97L154.33,188.17L154.46,224.54L154.48,274.26L154.79,169.8L155.04,406.29L155.2,222.27L155.22,209.16L155.24,191.79L155.55,414.8L155.85,286.77L155.87,324.38L156.01,477.53L156.55,205.99L156.57,197.22L156.9,395.91L157.11,160.68L157.42,307.86L157.44,241.4L157.83,363.9L158.02,128.55L158.19,211.95L158.21,272.42L158.48,128.04L158.79,362.49L158.95,276.67L158.97,280.2L159.06,206.64L159.28,433.64L159.51,319.41L159.53,271.64L159.68,402.55L159.9,131.37L160.11,350.29L160.13,371.35L160.15,371.91L160.17,362.4L160.19,351.08L160.36,140.64L160.61,356.27L160.96,200.43L160.98,235.37L161.29,149.25L161.54,372.01L161.71,188.67L161.73,173.21L161.75,170.07L161.83,261.46L161.91,257.93L161.93,303.26L162.31,235.81L162.51,455.19L162.7,389.68L162.72,379.99L162.91,419.94L163.14,170.54L163.36,366.85L163.37,377.58L163.39,380.51L163.45,313.05L163.47,248.99L163.61,148.55L163.86,365.94L164.21,206.09L164.23,239.68L164.32,372.09L164.53,153.16L164.96,197.08L164.98,186.93L165.04,231.77L165.06,270.38L165.08,271.77L165.11,228.25L165.13,217.96L165.77,451.5L165.97,374.71L165.98,367.1L166.04,267.1L166.22,447.08L166.66,430.56L166.68,464.61L166.7,478.77L166.99,274.08L167.18,302.37L167.2,254.01L167.32,203.11L167.57,368.86L167.94,261.77L167.96,311.53L168.38,243.3L168.54,415.95L168.73,350.96L168.75,350.24L168.81,256.36L168.94,427.81L168.96,437.74L169.02,473.42L169.25,350.61L169.27,295.07L169.46,468.83L169.74,283.77L169.79,374.34L169.81,404.19L169.95,509.15L170.22,316.15L170.41,403.72L170.43,347.86L170.82,403.79L171.03,228.82L171.19,285.67L171.2,332.51L171.49,216.73L171.78,412.91L171.94,317.01L171.96,318.59L172.02,328L172.04,298.31L172.06,235.79L172.11,295.14L172.13,334.8L172.27,457.35L172.79,198.65L172.81,193.93L173.14,359.53L173.35,146.66L173.66,304.21L173.68,243.32L173.81,154.01L174.07,369.88L174.41,236.76L174.43,271.42L174.74,212.47L175.03,412.11L175.19,334.5L175.21,338.66L175.28,299.73L175.3,256.69L175.42,435.2L175.44,450.41L175.52,485.25L175.73,382.78L175.75,349.55L175.9,439.29L176.13,199.06L176.54,231.88L176.56,214.51L176.85,404.33L177.06,188.89L177.22,271.53L177.24,326.11L177.31,396.05L177.53,177.77L177.93,214.85L177.95,195.88L177.99,179.91L178.28,389.74L178.59,280.94L178.61,318.61L178.76,474.57L179.29,228.02L179.3,228.13L179.32,244.16L179.63,405.91L179.85,192.86L180,271.35L180.02,325.71L180.1,400.3L180.31,170.82L180.7,189.03L180.72,205.68L180.77,150.83L181.03,367.13L181.39,237.73L181.41,285.7L181.8,236.12L182.01,467.29L182.2,385.45L182.22,372.55L182.4,427.89L183.07,177.65L183.09,172.02L183.34,389.42L183.5,215.24L183.52,191.42L183.81,376.82L184.02,150.65L184.18,231.76L184.2,284.31L184.27,362.95L184.49,144.15L184.95,289.17L184.97,294.46L185.05,220.27L185.22,411.96L185.24,423.23L185.26,442.49L185.76,226.48L185.78,194.7L185.8,194.3L185.82,217.8L186.13,387.48L186.34,172.93L186.5,260.39L186.52,317.58L186.81,172.14L187.04,389.09L187.23,210.33L187.25,191.57L187.27,185.12L187.46,359.07L187.48,377.95L187.52,387.84L187.71,186.91L188.08,322.53L188.1,306.4L188.29,239.21L188.37,358.95L188.39,389.98L188.51,459.89L188.78,278.83L189.07,318.6L189.09,306.07L189.43,405.4L189.69,234.19L189.76,315.62L189.78,349.5L189.84,383.02L190.05,166.26L190.38,229.64L190.4,184.26L190.52,123.35L190.77,343.97L191.12,186.43L191.14,209.75L191.54,189.27L191.74,431.24L191.93,351.63L191.95,341.23L192.14,382.57L192.35,113.98L192.76,144.56L192.78,166.51L193.09,349.21L193.28,116.84L193.46,229.73L193.47,281.81L193.55,350.77L193.75,116.21L194.13,137.52L194.15,139.74L194.21,117.85L194.98,449.64L195.08,372.49L195.1,371.87L195.2,347.23L195.21,291.56L195.39,391.23L195.6,124.54L195.99,137L196.01,139.4L196.07,118.3L196.78,367.33L196.86,281.79L196.88,217.18L196.99,145.74L197.24,377.58L197.61,222.65L197.63,263.91L198.02,192.79L198.23,461.7L198.42,366.94L198.44,352.23L198.64,400.46L198.85,127.85L199.24,138.88L199.26,138.97L199.31,121.96L199.56,362.86L200.07,339.08L200.09,322.52L200.51,351.83L200.71,109.25L200.86,187.81L200.88,224.11L201.27,182.51L201.48,440.89L201.67,359.53L201.69,344.34L201.88,390.34L202.1,127.68L202.48,136.63L202.5,136.96L202.56,112.88L203.3,357.33L203.35,276.94L203.37,214.91L203.74,382.02L203.95,155.35L204.11,216.24L204.13,255.87L204.51,190.35L204.73,455.39L204.92,374.01L204.94,352.73L205.13,426.6L205.27,197.91L205.71,230.36L205.73,212.86L205.87,246.43L205.89,228.55L205.91,211.93L206.06,417.46L206.37,200.86L206.64,221.86L206.66,198.94L206.7,225.55L206.72,205.92L206.74,190.67L206.76,190.5L206.78,194.89L206.79,229.24L206.99,396.86L207.22,167.18L207.39,315.18L207.41,349.87L207.76,195.41L207.97,468.4L208.17,381.46L208.19,354.35L208.38,433.08L208.59,177.85L208.98,180.65L209,180.83L209.06,174.6L209.77,401.25L209.85,314.93L209.87,255.54L209.98,203.26L210.31,478.14L210.56,295.86L210.58,316.79L211.01,234.55L211.22,499.55L211.38,426L211.4,421.68L211.63,441.47L211.84,162.33L212.05,358.99L212.07,377.68L212.09,385.46L212.23,173.29L212.29,180.63L212.3,165.89L212.32,164.1L212.44,206.14L212.46,223.47L212.79,167.37L213.02,391.81L213.19,199.54L213.21,178.13L213.25,163.09L213.48,392.09L213.85,233.61L213.87,276.37L214.26,189.17L214.47,463.54L214.66,383.04L214.68,353.83L214.88,429.88L215.09,185.34L215.44,247.72L215.46,213.33L215.55,184.5L215.8,407.17L216.17,233.43L216.19,291.42L216.27,407.64L216.5,176.29L216.89,176.73L216.91,202.15L216.94,170.92L217.23,390.99L217.58,342.13L217.6,384.7L217.72,479.29L218.24,245.23L218.26,220.56L218.41,205.5L218.49,254.51L218.51,311.42L218.88,203.8L219.05,422.1L219.23,247.74L219.24,229.28L219.52,426.42L219.81,197.15L219.88,255.84L219.9,309.16L220.27,201.69L220.46,431.11L220.66,341.68L220.68,343.35L220.71,310.92L220.73,209.51L220.97,507.2L221.43,406.84L221.45,359.11L221.84,434.68L222.13,204.3L222.2,272.37L222.22,331.92L222.3,437.59L222.59,198.13L222.92,228.35L222.94,252.96L223.05,195.58L223.23,430.23L223.61,310.29L223.63,363.55L223.98,202.67L224.21,498.5L224.39,422.97L224.41,408.67L224.62,464.67L224.91,202.61L225.14,373.94L225.16,332.43L225.37,188.52L225.6,473.05L225.91,316.46L225.93,363.89L226.01,454.99L226.3,181.14L226.59,230.87L226.61,208.24L226.76,186.05L227.46,493.03L227.65,403.01L227.67,350.07L227.87,462.71L228.16,205L228.43,287.76L228.45,261.13L228.79,436.39L229.08,200.69L229.16,265.12L229.18,323.36L229.26,439.34L229.55,196.48L229.9,261.4L229.92,245.54L230.01,200.14L230.21,442.15L230.53,299.65L230.55,332.49L230.71,511.25L231.25,240.11L231.27,232.96L231.58,429.49L231.87,179.68L232.1,364.84L232.12,321.77L232.33,179.25L232.51,419.24L232.87,259.62L232.89,288.31L233.26,206.59L233.45,440.79L233.65,351.08L233.67,352.14L233.72,214.65L233.8,342.8L233.82,384.6L233.96,514.05L234.5,248.17L234.52,240.84L234.83,438.78L235.12,192.7L235.35,367.94L235.37,328.83L235.58,191.36L235.75,430.64L236.12,265.99L236.14,321.26L236.51,204.39L236.7,442.73L236.89,350.97L236.91,354.34L236.97,202.71L237.05,344.47L237.07,388.84L237.22,515.21L237.75,250.46L237.76,243.74L238.07,440.14L238.36,188.25L238.6,362.4L238.62,319.82L238.83,190.17L239.06,448.77L239.35,292.1L239.37,322.18L239.47,460.71L239.76,215.44L240.14,362.7L240.16,363.75L240.22,215.54L240.36,456.86L240.37,477.98L240.45,511.52L240.68,259.63L240.94,350.99L240.95,296.24L241.15,200.98L241.32,443.06L241.69,277.13L241.71,341.2L242.08,203.32L242.25,453.36L242.42,268.83L242.44,254.32L242.54,197.16L242.71,442.7L243.08,276.03L243.1,324.19L243.47,206.37L243.72,511.11L243.89,427.69L243.91,362.32L244.11,483.61L244.4,198.84L244.67,286.02L244.69,259.45L245.03,436.91L245.32,192.43L245.4,265.54L245.42,321.54L245.5,435.96L245.79,198.56L246.14,256.52L246.15,243.34L246.25,199.05L246.44,433.54L246.77,303.05L246.79,342.37L246.97,508.25L247.47,256.89L247.49,232.2L247.64,182.42L247.74,311.69L247.76,364.76L248.11,181.03L248.28,433.19L248.42,232.25L248.44,232.4L248.57,182.8L248.75,431.38L249.27,365.01L249.29,318.96L249.69,436.81L249.96,202.18L250.02,303.7L250.04,341.53L250.21,508.49L250.74,263.76L250.76,258.85L251.07,449.19L251.36,198.46L251.59,375.32L251.61,329.04L251.82,183.22L251.99,429.87L252.36,255.3L252.38,307.14L252.75,188.52L252.94,437.47L253.13,340.72L253.15,344.74L253.19,293.65L253.21,203.9L253.46,505.57L253.95,306.17L253.96,272.4L254.14,205.58L254.31,440.65L254.68,271.32L254.7,331.75L255.07,204.24L255.24,450.94L255.41,281.77L255.43,266.43L255.53,205.46L255.7,447.32L256.09,325.6L256.11,376.38L256.46,212.33L256.71,521.15L256.88,429.61L256.9,373.77L257.1,490.78L257.39,217.31L257.64,377.5L257.66,330.6L258.02,444.92L258.31,195.64L258.41,317.95L258.43,367.71L258.49,437L258.78,195.28L259.11,247.09L259.13,266.06L259.24,194.77L259.44,435.18L259.78,327.85L259.8,371.55L259.96,505.96L260.48,240.59L260.5,241.5L260.81,426.15L261.1,196.73L261.33,374.73L261.35,326.36L261.74,420.65L262.03,187.4L262.1,252.15L262.12,302L262.49,193.81L262.68,421.7L262.86,321.59L262.88,325.16L262.9,326.9L262.93,287.26L262.95,193.78L263.21,489.29L263.67,342.29L263.69,279.63L263.88,180.88L264.06,424.96L264.42,269.45L264.44,327.54L264.52,442.37L264.81,191.35L265.16,262.4L265.18,239L265.27,190.79L265.45,432.85L265.82,271.23L265.83,317.54L266.2,209.95L266.45,515.63L266.61,437.82L266.63,425.3L266.84,480L267.13,195.63L267.42,259.55L267.44,237.85L267.59,179.31L267.69,304.61L267.71,376.62L267.77,436.9L268.06,182.89L268.37,232.58L268.39,231.74L268.52,180.89L269.18,427.98L269.26,364.85L269.28,335.85L269.45,206.42L269.7,500.72L269.99,329.01L270.01,374.81L270.09,465.3L270.38,193.73L270.67,237.92L270.69,218.99L270.84,198.88L270.92,242.22L270.94,299.89L271.02,423.86L271.31,185.33L271.65,230.88L271.67,211.04L271.77,175.18L271.94,409.79L272.31,238.89L272.33,282.05L272.7,200.32L272.95,499.54L273.12,430.17L273.14,382.19L273.34,474.9L273.63,186.05L273.9,258.81L273.92,229.49L274.09,167.72L274.26,410.89L274.63,246.29L274.65,305.97L275.02,182.09L275.19,428.69L275.37,248.12L275.38,232.24L275.48,190.52L275.67,428.31L276,276.97L276.02,312.13L276.2,504.13L276.72,235.07L276.74,230.1L277.05,432.04L277.34,189.43L277.57,366.98L277.59,325.41L277.98,415.72L278.27,176.84L278.34,240.65L278.36,290.37L278.44,416.15L278.73,177.09L279.1,308.3L279.12,311.77L279.14,315.24L279.17,287.06L279.19,186.55L279.29,339.98L279.31,386.24L279.43,487.05L279.95,234.07L279.97,209.55L280.12,183.44L280.22,303.67L280.24,355.59L280.59,185.11L280.76,425.42L280.89,218.95L280.91,219.18L281.51,197.95L281.69,429.32L281.74,376.42L281.76,328.2L282,195.74L282.21,434.74L282.5,281.4L282.52,318.34L282.67,508.42L283.21,218.94L283.23,211.48L283.83,183.97L284.01,415.72L284.06,354.98L284.08,312.62L284.3,190.22L284.47,422.69L284.84,237.82L284.86,300.52L285.24,210.04L285.46,478.04L285.63,383.88L285.65,378.75L285.71,237.8L285.94,495.75L286.31,455.77L286.33,461.38L286.42,280.97L286.44,244.71L286.79,414.33L287.02,183.17L287.16,224.57L287.18,283.38L287.49,171.6L287.72,408.5L287.89,213.6L287.91,190.73L288.18,408.08L288.4,159.56L288.57,271.05L288.59,324.28L288.96,184.9L289.17,480.75L289.36,381.27L289.38,350.02L289.57,429.54L289.81,162.3L290.15,193.23L290.17,172.6L290.19,173.22L290.21,200.45L290.5,390.41L290.79,167.26L290.87,217.5L290.89,275.29L291.26,173.06L291.43,403.26L291.6,206.66L291.62,188.51L291.64,173.83L291.95,413.3L292.24,239.04L292.26,271.84L292.42,464.29L292.96,184.96L292.98,180.69L293.05,166.2L293.75,413.42L293.83,318.43L293.85,264.57L294.21,419.41L294.52,184.25L294.58,239.3L294.6,282.53L294.99,191.33L295.2,428.35L295.35,315.29L295.37,318.88L295.39,321.31L295.41,297.15L295.43,205.14L295.45,204.03L295.47,237.21L295.49,271.32L295.66,491.37L296.19,228.49L296.21,203.37L296.36,177.28L296.53,400.93L296.55,400.82L296.84,169.65L297.37,219.15L297.38,280.05L297.46,399.42L297.75,170.23L298.1,211.71L298.12,195.51L298.14,183.21L298.45,413.11L298.74,256.57L298.76,293.61L298.91,495.68L299.47,225.65L299.49,249.23L299.51,235.55L299.78,433.28L300.09,199.77L300.15,250.45L300.17,313.49L300.25,429.86L300.56,190.08L300.88,232.86L300.9,212.35L301.02,187.49L301.17,418.89L301.54,251.09L301.56,300.15L301.95,250.06L302.16,510.58L302.33,411.86L302.35,400.43L302.57,443.28L302.8,161.79L303.05,382.54L303.07,381.92L303.24,163.25L303.49,392.21L303.84,194.75L303.86,222.35L304.27,178.42L304.42,403.96L304.6,214.32L304.61,195.46L304.63,180.28L304.92,430.73L305.23,261.91L305.25,301.06L305.43,492.63L305.95,191.77L305.97,179.19L306.05,153.42L306.3,378.5L306.82,303.24L306.84,244.74L307.22,369.09L307.44,135.23L307.59,231.21L307.61,278.08L307.9,152.85L308.19,385.41L308.35,294.98L308.37,295.27L308.46,197.8L308.67,452.8L309.14,341.34L309.16,280.74L309.54,397.18L309.76,181.75L309.91,267.47L309.93,323.18L309.99,397.45L310.22,174.23L310.59,199.14L310.61,187.83L310.69,173.99L311.46,451.49L311.52,381.93L311.54,369.88L311.59,372.64L311.71,235.66L311.79,370.73L311.81,407.76L311.9,482.31L312.17,254.37L312.41,267.61L312.42,224.37L312.54,179.83L312.79,394.15L313.14,223.93L313.16,274.97L313.49,192.56L313.7,412.07L313.89,215.84L313.91,199.48L313.93,192.78L314.13,375.96L314.15,402.14L314.16,411.74L314.4,174.54L314.76,286.1L314.78,282.52L314.96,203.16L315.17,466.97L315.4,288.28L315.42,244.45L315.56,407.37L315.63,317.27L315.65,243.58L316.04,351.83L316.25,118.34L316.41,207.93L316.43,271.42L316.72,141.05L316.97,378.93L317.12,194.93L317.14,179.68L317.18,150.99L317.47,423.23L317.78,264.06L317.8,295.12L318.21,225.55L318.42,465.41L318.59,398.1L318.61,383.24L318.8,439.14L319.5,130.12L319.52,138.51L319.54,175.8L319.75,370.77L319.96,171.25L320.29,217.67L320.31,170.08L320.43,118.04L320.68,355.67L321.01,215.92L321.03,213.91L321.45,213.81L321.67,464.32L321.84,388.7L321.86,371.68L322.05,430.95L322.75,157.19L322.77,163.29L323,392.19L323.21,147.81L323.54,239.78L323.56,194.14L323.93,368.14L324.14,130.37L324.28,207.34L324.29,235.41L324.7,205.96L324.91,460.11L325.09,386.05L325.11,371.61L325.3,419.65L325.53,132.6L325.8,338.52L325.82,328.88L326.25,350.35L326.46,94.15L326.61,179.77L326.63,235.79L326.9,97.96L327.18,361.36L327.33,178.02L327.35,164.37L327.39,142.15L327.68,387.59L327.99,246.73L328.01,288.36L328.16,448.29L328.68,146.45L328.7,139.15L328.78,110.83L329.5,359.44L329.55,291.81L329.57,229.64L329.71,140.62L329.96,372.54L330.31,194.49L330.33,236.69L330.64,162.95L330.93,392.37L331.1,292.06L331.12,295.86L331.14,298.62L331.2,206.81L331.25,285.57L331.27,328.72L331.41,448.62L331.93,176.43L331.95,172.13L332.03,145.41L332.74,382.09L332.8,317.01L332.82,255.67L332.96,152.63L333.21,380.21L333.57,228.6L333.59,281.34L333.88,186.08L334.17,397.36L334.35,308.04L334.37,310.84L334.39,313.25L334.42,268.42L334.44,219.36L334.66,449.14L334.89,317.4L334.91,266.85L335.06,430.59L335.39,235.7L335.47,366.84L335.49,397.58L335.84,258.13L336.05,490.49L336.24,428.91L336.26,413.31L336.45,426.64L336.78,194.86L337.07,216.84L337.09,206.46L337.13,191.74L337.42,379.81L337.73,233.17L337.75,265.94L337.9,429.39L338.18,235.4L338.48,244.09L338.5,230.27L338.64,218.71L338.72,328.69L338.74,355.89L339.08,246.07L339.3,469.05L339.51,398.98L339.53,353.02L339.7,409.35L340.05,185.73L340.32,198.55L340.34,189.86L340.38,173.42L340.67,366.19L340.98,230.22L341,263.46L341.15,429.59L341.69,164.83L341.71,173.74L342.02,336.65L342.23,114.75L342.39,184.1L342.41,242.29L342.49,328.14L342.7,99.08L343.1,143.9L343.12,121.64L343.41,311.63L343.61,93.8L343.78,183.53L343.8,229.6L344.19,184.67L344.4,409.27L344.59,349.85L344.61,338.07L344.81,366.33L345.48,95.59L345.5,98.95L345.73,325.91L345.95,94.73L346.28,206.34L346.29,159.64L346.66,327.55L346.87,98.82L347.01,170.22L347.03,196.23L347.45,195.19L347.65,424.19L347.84,338.88L347.86,328.93L348.05,360.43L348.73,73.4L348.75,84.09L348.77,127.05L348.98,299.39L349.19,62.33L349.52,170.27L349.54,119.91L349.66,53.38L349.91,285.95L350.26,152.3L350.28,169.13L350.9,406.79L351.09,325.72L351.11,315.77L351.3,345.95L351.98,55.72L352,61.54L352.02,107.29L352.23,284.95L352.44,46.98L352.77,165.65L352.79,116.49L352.91,50.09L353.16,281.37L353.52,135.22L353.54,182.97L353.95,158.29L354.14,383.9L354.32,307.62L354.34,297.97L354.39,196.53L354.41,173.59L354.43,172.64L354.45,199.43L354.47,237.61L354.55,308.71L354.76,43.24L355.11,100.5L355.13,71.37L355.25,56.36L355.3,189.62L355.4,180.54L355.42,218.57L355.48,265.27L355.69,30.01L356.04,92.82L356.06,64.55L356.15,29.4L356.19,84.88L356.21,160.63L356.62,33.94L356.93,276.82L356.99,196.82L357,194.84L357.18,154.21L357.39,370.43L357.84,260.1L357.86,238.95L358.26,267.49L358.47,34.16L358.61,101.2L358.63,129.77L358.94,46.94L359.19,277.55L359.36,79.69L359.38,64.16L359.4,59.81L359.48,188.14L359.56,171.03L359.58,221.61L359.87,88.68L360.14,321.67L360.35,275.01L360.37,282.3L360.43,188.31L360.6,402.97L360.62,428.43L361.26,125.57L361.43,295.19L361.45,325.76L361.49,352.52L361.7,118.84L362.05,199.81L362.07,166.27L362.44,346.07L362.65,113.9L362.78,172.17L362.8,219.27L363.09,93.36L363.4,343.02L363.56,249.83L363.58,254.3L363.65,159.7L363.87,419.86L364.1,269.17L364.12,213.45L364.14,210.37L364.22,312.33L364.23,342.96L364.27,367.91L364.49,98L364.81,248.51L364.83,179.48L365.22,326.31L365.41,78.69L365.57,143.12L365.59,189.89L365.88,84.83L366.15,320.38L366.3,158.9L366.32,137.04L366.34,119.48L366.65,367.99L366.94,226.08L366.96,260.65L367.12,440.95L367.37,237.86L367.71,282.73L367.73,274.57L367.83,213.56L367.93,322.06L367.95,346.47L368.04,396.89L368.29,201.35L368.57,232.69L368.58,208.91L368.68,161.28L368.84,238.86L368.86,287.71L368.91,350.21L369.13,123.13L369.55,157.2L369.57,137.61L369.59,124.11L369.9,372.46L370.09,288.17L370.11,283.97L370.36,455.13L370.9,131.99L370.92,127.22L371.25,341.71L371.45,103.91L371.77,255.03L371.79,190.17L372.16,344.46L372.39,110.36L372.53,171.59L372.55,214.24L372.84,86.98L373.15,342.83L373.3,243.1L373.32,249.07L373.4,143.04L373.59,380.86L373.61,408.8L374.23,79.86L374.42,247.58L374.44,281.78L374.69,88.18L374.96,323.64L375.06,140.85L375.08,115.59L375.1,115.35L375.12,140.18L375.43,328.83L375.62,92.44L375.8,205.65L375.81,257.05L376.09,93.22L376.39,350.85L376.55,266.58L376.57,273.16L376.65,159.59L376.78,382.5L376.8,396.24L376.88,441.52L377.11,228.63L377.32,350.01L377.34,300.22L377.73,380.97L377.96,145.85L378.1,200.96L378.12,253.94L378.19,373.09L378.41,141.78L378.85,149.14L378.87,132.53L378.91,143.18L378.93,185.32L379.12,361.07L379.33,115.81L379.55,325.3L379.57,349.06L379.89,156.54L380.11,430L380.3,352.44L380.32,323.69L380.51,394.88L380.74,125.41L381.11,132.26L381.13,129.26L381.19,109.17L381.9,354.94L381.98,261.72L382,198.67L382.12,116.97L382.39,356.77L382.74,194.04L382.75,240.24L383.14,163.05L383.35,443.26L383.53,357.1L383.55,354.63L383.76,391.97L383.97,111L384.26,335.75L384.28,312.73L384.44,106.57L384.69,347.64L385.06,184.63L385.07,234.3L385.36,129.32L385.64,358.87L385.79,155.27L385.81,135.8L385.83,122.45L386.14,366.04L386.41,199.58L386.43,227.68L386.6,433.92L387.14,170.32L387.16,169.75L387.47,396.19L387.76,168.66L387.99,335.55L388.01,290.7L388.23,162.07L388.4,386.32L388.77,229.58L388.79,276.35L388.94,459.23L389.17,258.73L389.56,341.27L389.58,339.41L389.62,209.69L389.85,470.17L390.22,414.35L390.24,433.83L390.31,457.16L390.56,215.2L390.78,358.12L390.8,306.73L391.18,375.82L391.47,152.34L391.55,213.25L391.57,266.04L391.94,162.16L392.11,392.66L392.29,211.75L392.3,192.67L392.4,169.59L392.59,406.06L392.61,406.9L392.63,407.94L392.65,380.25L392.67,336.96L392.87,189.83L393.1,485.33L393.41,332.36L393.43,372.42L393.5,452.69L393.79,182.27L394.08,247.26L394.1,226.01L394.26,174.36L394.33,254.94L394.35,311.16L394.72,180.29L394.95,464.18L395.11,388.03L395.13,388.17L395.19,233.42L395.3,401.23L395.32,431.82L395.36,458.09L395.65,186.34L395.94,338.04L395.96,322.77L395.98,322.43L396.02,333.28L396.04,334.73L396.06,338.38L396.09,291.08L396.11,193.7L396.35,487.96L396.85,267.08L396.87,228.78L397.22,403.03L397.51,156.61L397.58,226.45L397.6,285.56L397.68,400.1L397.97,154.7L398.32,205.03L398.34,185.67L398.43,154.74L398.63,399.77L398.97,239.56L398.99,291.22L399.36,196.51L399.59,492.56L399.79,434.96L399.81,374.69L400,464.99L400.29,178.63L400.58,245.83L400.6,223.38L400.75,171.41L400.83,249.55L400.85,309.05L400.93,419.06L401.22,163.27L401.56,230.49L401.58,214.17L401.68,157.04L401.85,412.19L402.22,244.05L402.24,293.66L402.61,175.66L402.86,481.99L403.03,395.91L403.05,335.25L403.25,451L403.54,167.78L403.81,254.57L403.83,223.04L404.17,412.61L404.46,156.95L404.54,236.66L404.56,293.62L404.64,406.83L404.93,159.99L405.26,180.46L405.28,208.49L405.39,161.34L405.59,408.56L405.91,277.65L405.93,315.05L406.11,483.95L406.61,237.5L406.63,210.74L406.78,166.28L406.88,305.95L406.9,360.5L407.25,167.29L407.42,427.75L407.56,218.5L407.58,216.48L408.18,167.28L408.35,437.43L408.41,372.53L408.43,330.06L408.64,183.54L408.83,445.91L409.16,293.53L409.18,334.07L409.34,505.89L409.57,244.78L409.86,250.52L409.88,228.91L410.03,177.64L410.13,319.37L410.15,376.88L410.21,433.88L410.5,172.62L410.81,225.82L410.82,220.16L411.13,428.17L411.42,158.33L411.66,352.33L411.68,306.33L411.89,163.34L412.08,415.45L412.43,290.85L412.45,352.74L412.6,486.23L413.11,238.47L413.13,213.29L413.28,167.18L413.4,344.63L413.42,379.95L413.74,171.63L413.92,415.5L414.09,237.95L414.11,220.12L414.21,175.53L414.38,419.48L414.63,333.56L414.65,378.6L415.14,172.57L415.33,426.44L415.37,423.2L415.39,403.25L415.6,180.18L415.85,496.95L416.14,340.48L416.16,376.95L416.24,469.02L416.53,180.77L416.82,250.97L416.84,235.23L416.93,319.63L416.95,391.73L417.17,430.45L417.46,176.4L417.55,309.8L417.57,358.91L417.92,217.7L418.09,464.56L418.27,287.83L418.29,269.69L418.38,203.71L418.52,421.67L418.54,445.64L418.58,459.52L418.83,295.42L418.85,198.12L419.1,511.88L419.6,287.82L419.62,271.24L419.95,450.5L420.08,255.33L420.14,257.39L420.16,244.19L420.18,244.01L420.2,245.46L420.22,233.68L420.41,441.97L420.7,178.84L420.86,425.16L420.88,433.57L420.95,328.67L420.97,276.69L421.17,168.04L421.34,431.4L421.71,265.64L421.73,308.21L422.1,232.18L422.35,498.95L422.52,407.34L422.54,340.81L422.73,473.94L423.02,187.65L423.31,251.39L423.33,230.88L423.49,179.84L423.64,422.51L423.66,430.56L423.72,378.36L423.74,330.44L424.13,424.78L424.42,167.5L424.49,243.64L424.51,298.11L424.72,230.32L425.07,434.26L425.27,335.03L425.29,340.13L425.34,199.62L425.42,325.62L425.44,358.99L425.59,496.73L426.12,232.39L426.14,233.95L426.27,182.69L426.91,435.91L426.99,368.51L427.01,319.65L427.37,435.77L427.66,183.02L427.76,310.65L427.78,361.21L428.13,191.72L428.32,438.22L428.51,350.14L428.53,355.68L428.61,226.6L428.69,383.07L428.71,422.42L428.84,517.52L429.07,270.11L429.35,275.15L429.36,247.9L429.4,270.71L429.52,193.42L429.6,266.85L429.62,326.37L429.69,438.24L429.98,184.3L430.35,238.07L430.37,225.86L430.45,179.79L430.52,251.96L430.54,313.57L430.91,181.39L431.08,434.16L431.26,244.5L431.28,229.52L431.37,187.56L431.57,436.39L431.76,351.52L431.78,356.64L431.84,207.33L431.94,380.65L431.95,423.57L432.09,514.72L432.3,264.77L432.59,270.69L432.61,247.42L432.65,269.28L432.77,192.43L432.84,267.48L432.86,327.26L432.94,439.26L433.23,182.08L433.58,252.15L433.6,233.08L433.87,427.05L434.16,174.89L434.24,257.14L434.26,314.12L434.62,194.49L434.82,441.66L435.01,345.77L435.03,348.03L435.09,212.91L435.26,487.98L435.28,492.97L435.34,506.44L435.38,458.6L435.4,435.52L435.72,481.57L436.01,197.83L436.13,385.92L436.15,419.49L436.48,194.51L436.65,450.69L436.75,289L436.77,262.25L436.94,188.19L437.12,447.29L437.48,263.63L437.5,324.11L437.58,444.55L437.87,194.98L438.24,337.99L438.26,341.44L438.28,345.24L438.32,311.94L438.33,210.59L438.49,472.83L438.51,485.79L438.59,507.31L438.78,372.54L438.8,256.04L438.97,470.63L439.11,220.77L439.13,212.29L439.26,187.09L439.9,436.38L439.98,333.18L440,284.04L440.36,439.38L440.65,188.63L440.73,253.99L440.75,317.1L441.12,196.8L441.31,437.15L441.5,343.15L441.52,346.82L441.58,211.76L441.64,289.82L441.66,330.19L441.81,508.48L442.36,232.22L442.37,226.98L442.68,435.99L442.97,171.64L443.21,360.12L443.23,314.83L443.44,181.36L443.61,432.91L443.98,258.24L444,316.5L444.37,200.92L444.56,444.14L444.75,344.91L444.77,347.8L444.83,213.76L444.97,453.98L444.98,475.43L445.06,510.11L445.29,265.9L445.53,401.08L445.55,352.75L445.93,434.73L446.22,185.87L446.3,251.76L446.32,313.76L446.4,431.9L446.69,182.14L447.03,235.49L447.05,217.71L447.15,178.24L447.32,423.39L447.71,291.63L447.73,346.06L448.08,198.1L448.31,490.87L448.5,394.9L448.52,359.85L448.72,453.37L449.01,172.36L449.28,254.34L449.3,218.41L449.47,169.22L449.64,420.03L450.01,248.69L450.03,308.52L450.4,182.49L450.57,429.9L450.75,239.99L450.76,223.85L450.86,194.89L451.09,433.87L451.38,285.29L451.4,323.22L451.56,501.83L452.08,242.71L452.1,214.69L452.25,188.6L452.37,359.57L452.39,392.78L452.43,421.41L452.66,174.15L452.99,256.27L453.01,219.95L453.18,171.03L453.36,406.48L453.72,242.44L453.74,297.61L454.11,205.09L454.34,442.56L454.5,343.27L454.52,345.21L454.55,321.73L454.57,223.66L454.59,219.49L454.65,333.43L454.67,374.86L454.81,512.07L455.35,235.24L455.37,229.27L455.68,427.71L455.91,176.66L456.2,365.11L456.22,311.51L456.6,401.74L456.84,153.84L456.97,224.6L456.99,275.34L457.28,166.35L457.59,420.95L457.74,312.91L457.76,315.82L457.84,198.01L457.92,342.59L457.94,384.76L458.05,492.44L458.58,222.81L458.59,194.79L458.69,171.85L458.85,281.79L458.87,335.65L459.15,167.56L459.39,403.66L459.58,192.39L459.6,170.79L459.62,169.34L459.66,210.59L459.73,197.73L459.75,225.89L459.85,405.15L460.06,166.86L460.49,204.03L460.51,189.73L460.53,174.88L460.84,410.85L461.13,267L461.15,302.64L461.3,477.89L461.82,238.01L461.84,216.08L462.02,198.86L462.09,310.14L462.11,362.52L462.17,424.55L462.4,187.03L462.75,218.4L462.77,191.39L462.87,173.09L463,238.64L463.02,293.02L463.1,409.04L463.33,171.6L463.72,175.79L463.74,199.93L463.78,165.49L464.08,416.36L464.37,273.39L464.39,305.88L464.55,490.92L465.07,204.52L465.09,174.21L465.17,152.22L465.36,329.71L465.38,366.84L465.42,394.77L465.63,148.98L465.98,225.48L466,188.87L466.1,145.83L466.35,390.1L466.69,211.29L466.71,242.5L467.02,210.28L467.33,450.87L467.49,349.76L467.51,353.55L467.53,354.16L467.55,333.75L467.56,244.36L467.58,230.81L467.8,522.63L468.11,356.16L468.13,400.96L468.2,478.42L468.51,205.77L468.82,211.68L468.84,237.92L469.13,416.24L469.36,169.9L469.52,281.83L469.54,337.98L469.59,405.4L469.83,149.56L470.19,161.21L470.21,153.3L470.27,129.98L471.04,476.24L471.2,396.67L471.22,394.76L471.45,412.35L471.66,125.22L471.86,293.44L471.88,328.92L472.13,110.82L472.42,362.81L472.53,138.99L472.55,160.49L472.88,361.6L473.05,106.51L473.23,225.9L473.25,276.94L473.52,95.98L473.83,384.79L474,282.96L474.02,291L474.08,188.32L474.27,407.74L474.29,429.9L474.31,443.83L474.56,243.45L474.79,256.93L474.81,212.72L474.93,170.51L475.18,381.4L475.53,228.21L475.55,269.2L475.86,180.11L476.09,402.59L476.26,210.19L476.28,195.61L476.57,386.03L476.79,150.62L476.94,253.2L476.96,297.91L477.35,222.06L477.56,469.26L477.75,393.5L477.77,362.14L477.95,442.51L478.18,170.14L478.56,181.13L478.58,201.66L478.89,393.07L479.11,133.11L479.26,230.47L479.28,288.12L479.36,374.25L479.57,127.4L479.96,153.6L479.98,170.58L480.03,133.13L480.32,383.71L480.65,302.6L480.67,338.24L480.81,455.59L481.31,201.42L481.33,169.12L481.43,128.15L481.62,327.18L481.64,348.57L481.89,133.1L482.14,367.21L482.2,285.98L482.22,225.11L482.35,131.84L482.6,366.99L482.95,207.68L482.97,245.12L483.28,136.22L483.57,379.96L483.73,289.86L483.75,291.66L483.84,206.52L484.05,452.17L484.52,331.69L484.54,264.15L484.92,380.99L485.14,139.73L485.29,237.05L485.31,293.71L485.6,139.75L485.85,373.41L485.97,156.6L485.99,153.22L486.07,139.15L486.82,456.85L486.95,375.82L486.97,375.93L486.99,377L487.05,357.61L487.07,304.11L487.28,497.39L487.84,197.4L487.86,219.69L487.88,205.55L488.17,407.27L488.39,161.82L488.54,256.77L488.56,314.08L488.64,395.65L488.85,150.74L489.25,229.51L489.27,213.72L489.56,384.56L489.78,142.22L489.93,235.43L489.95,278.24L490.34,209.16L490.55,447.32L490.74,363.44L490.76,341.51L490.94,414.18L491.17,133.76L491.57,174.34L491.59,158L491.88,368.36L492.1,129.76L492.25,227.2L492.27,280.25L492.56,135.66L492.81,373.52L492.97,187.72L492.99,173.36L493.02,151.18L493.31,398.64L493.62,267L493.64,302.21L493.8,460.62L494.3,201.03L494.32,167.95L494.42,130.73L494.65,360.32L494.67,363.11L494.88,119.84L495.48,174.45L495.5,212.79L495.81,128.06L496.06,369.93L496.23,178.56L496.25,161.82L496.27,160.76L496.29,178.39L496.31,207.94L497.03,458.91L497.14,383.71L497.16,384.33L497.28,306.63L497.3,253.61L497.45,395.24L497.65,155.86L497.84,277.95L497.86,318.37L497.92,357.41L498.13,115.32L498.48,179.96L498.5,155.28L498.53,174.17L498.55,152.8L498.57,129.64L498.59,126.76L498.67,212.76L498.73,183.21L498.75,218.61L498.84,354.48L499.06,123.74L499.46,163.7L499.48,145.82L499.52,124.52L499.81,366.86L500.1,228.76L500.12,255.1L500.29,445.25L500.83,201.23L500.85,216.91L501.16,394.57L501.38,161.62L501.53,250.23L501.55,305.77L501.63,389.17L501.84,154.53L502.23,171.1L502.25,183.07L502.3,137.02L502.56,363.36L502.92,236.27L502.94,277.03L503.33,214.58L503.54,434.95L503.73,357.05L503.75,343.51L503.95,394.85L504.16,203.74L504.53,244.97L504.55,243.88L504.62,242.02L505.4,504.36L505.59,445.63L505.61,430.51L505.8,442.75L506.13,239.37L506.38,329.39L506.4,323.32L506.52,325.02L506.54,320.47L506.56,289.44L506.79,443.75L507.33,217.01L507.35,219.81L507.41,195.28L507.7,367.4L508.03,238.88L508.05,279.96L508.43,250.44L508.64,464.66L508.86,410.51L508.88,373.18L509.09,409.48L509.4,234.25L509.63,320.12L509.65,312.69L509.77,324.8L509.8,288.17L509.82,237.16L509.84,234.86L509.88,282.56L509.9,315.96L510.04,439.99L510.56,193.69L510.58,184.61L510.66,148.46L510.91,350.19L511,191.62L511.02,162.73L511.12,115.9L511.29,237.06L511.31,278.66L511.37,326.49L511.58,95.29L511.95,133.94L511.97,123.07L512.49,84.12L512.82,319.1L512.84,280.18L512.86,243.5L513.09,170.6L513.28,387.72L513.59,209.48L513.61,244.6L513.69,316.98L513.9,43.4L514.25,108.23L514.27,80.36L514.37,36.45L514.43,171.39L514.44,196.57L514.83,52.08L515.08,284.01L515.22,86.88L515.24,104.1L515.55,276.82L515.74,50.93L515.93,178.66L515.95,216.83L516.34,155.06L516.53,368.42L516.75,293.79L516.76,266.71L516.94,303.82L517.13,45.66L517.56,97.04L517.58,72.94L517.87,276.62L518.08,46.5L518.23,160.48L518.25,202.32L518.54,79.18L518.79,314.5L518.95,137.59L518.97,114.38L519.01,93.48L519.32,331.34L519.59,196.93L519.61,224.26L519.78,416.97L520.26,209.24L520.28,157.45L520.65,307.9L520.86,67.86L521,142.66L521.02,173.24L521.33,64.25L521.58,304.12L521.73,128.19L521.75,101.64L521.79,77.37L522.04,299.56L522.41,181.27L522.43,222.55L522.82,186.14L523.03,409.67L523.22,326.35L523.24,318.85L523.43,344.91L524.11,69.4L524.13,79.81L524.83,332.8L524.9,202.65L524.92,162.96L525.04,126.13L525.29,343.64L525.62,200.16L525.64,203.81L526.28,433.31L526.47,345.39L526.49,335.19L526.68,379.46L527.36,80.06L527.38,88.01L527.4,131.71L527.61,319.9L527.82,76.88L528.15,176.07L528.17,126.65L528.29,50.58L528.54,279.37L528.89,158.27L528.9,174.32L529.52,409.04L529.72,356.98L529.74,349.11L529.93,388.45L530.24,241.31L530.45,375.34L530.47,358.22L530.86,361.1L531.07,156.02L531.26,308.29L531.28,331.3L531.32,344.11L531.53,114.11L531.84,256.37L531.86,203.71L532,118.79L532.31,333.66L532.6,222.55L532.62,248.11L532.75,423.75L533.31,116.93L533.33,140.9L533.35,113.16L533.64,329.43L533.83,90.9L533.99,172.89L534.01,219.44L534.11,331.63L534.3,86.82L534.7,107.51L534.72,131.46L534.76,79.68L535.03,326.65L535.4,213.79L535.42,258.12L535.79,180.8L536,444.95L536.21,345.35L536.23,288.3L536.43,388.42L536.62,114.4L537.02,120.99L537.04,146.12L537.35,338.02L537.55,87.35L537.72,209.29L537.74,261.17L537.82,333.45L538.01,83.45L538.4,110.19L538.42,109.24L538.47,96.14L539.25,434.01L539.36,358.77L539.38,361.49L539.4,361.9L539.44,351.69L539.46,331.63L539.65,385.57L539.87,130.51L540.27,135.76L540.29,161.87L540.58,350.29L540.79,106.38L540.97,226.78L540.99,280.14L541.05,348.35L541.26,107.54L541.64,119.48L541.66,119.41L541.72,99.65L542.5,427.95L542.59,350.4L542.61,349.64L542.71,327.11L542.73,257.15L542.9,371.07L543.11,95.06L543.52,132.02L543.54,158.88L543.58,114.65L543.85,354.15L544.22,238.43L544.24,285.9L544.76,354.5L544.91,136.25L544.93,164.54L544.95,139.12L544.97,122.21L545.28,372.19L545.55,223.75L545.57,252.91L545.74,453.41L546.28,180.01L546.3,177.47L546.61,390.88L546.83,146.41L547.14,341.46L547.15,291L547.54,370.6L547.75,119.27L547.91,196.69L547.93,242.98L548.22,126.57L548.53,378.32L548.68,275.01L548.7,280.73L548.78,182.12L548.86,303.4L548.87,338.63L548.99,439.13L549.51,181.55L549.53,155.12L549.63,141.14L549.76,204.61L549.78,255.91L549.88,365.2L550.07,114.74L550.48,144.21L550.5,168.96L550.54,125.02L550.81,367.17L551.16,235L551.18,273.56L551.33,457.65L551.93,327.93L551.95,330.88L551.97,331.57L551.99,315.21L552.01,225.97L552.03,217.38L552.22,429.65L552.24,449.86L552.45,351.58L552.47,257.19L552.64,407.09L552.86,144.75L553.05,315.33L553.07,346.28L553.32,168.59L553.57,388.29L553.67,241.31L553.69,209.28L554.04,391.35L554.27,162.41L554.4,228.7L554.42,275.95L554.71,159.93L555.02,396.25L555.16,291.4L555.18,294.72L555.25,196.21L555.47,437.87L555.49,463.45L556.11,155.84L556.28,275.3L556.3,323.36L556.36,382.21L556.57,143.38L556.94,187.01L556.96,161.8L557.05,136.94L557.19,210.99L557.21,259.93L557.28,374.05L557.5,141.08L557.92,181.23L557.94,158.25L557.96,140.73L558.27,394.13L558.56,251.07L558.58,284.89L558.73,453.25L559.28,212.01L559.29,208.31L559.43,193.69L559.66,413.63L560.15,293.37L560.16,224.25L560.28,164.79L560.53,392.82L560.88,219.34L560.9,243.95L561.21,163.08L561.52,402.18L561.67,320.37L561.69,325.45L561.75,213.99L561.87,385.87L561.89,416.66L562,486.33L562.54,205.3L562.56,229.33L562.58,208.58L562.85,411.91L563.06,170.52L563.22,242L563.24,293.49L563.61,191.38L563.78,413.43L563.95,241.47L563.97,221.38L563.99,212.49L564.22,432.22L564.24,444.17L564.32,483.89L564.51,372.23L564.53,278.35L565,244.92L565.23,505.61L565.35,424.31L565.37,427L565.46,273.18L565.64,457.1L565.71,337.34L565.73,278.68L565.93,188.32L566.1,411.69L566.47,250.69L566.49,305.88L566.85,198.22L567.03,426.19L567.2,245.48L567.22,229.37L567.32,204.87L567.49,431.25L567.86,280.1L567.88,324.11L568.25,224.99L568.48,504.28L568.67,435.54L568.69,373.21L568.88,462.84L569.17,194.61L569.48,218.22L569.5,217.9L569.64,185.58L570.28,434.65L570.33,368.9L570.35,329.76L570.57,200.44L570.74,435.77L571.11,280.85L571.13,328.05L571.49,224.15L571.74,506.41L571.9,429.26L571.92,414.99L572.13,465.14L572.42,203.72L572.71,241.4L572.73,222.15L572.77,253.3L572.87,227.02L572.89,199.37L573.06,426.78L573.35,194.51L573.64,240.28L573.66,217.16L573.81,187.83L573.89,263.47L573.91,313.34L574.28,198.06L574.47,427.79L574.66,337.65L574.68,339.84L574.72,287.84L574.74,209.15L574.99,497.69L575.48,282.97L575.5,246.4L575.84,420.19L576.13,187.01L576.21,259.06L576.23,312.7L576.31,417.37L576.6,181.88L576.93,208.32L576.95,235.19L577.06,187.28L577.24,416.46L577.62,322.46L577.64,367.05L577.99,222.97L578.24,501.69L578.41,415.16L578.43,351.15L578.63,468.53L578.92,202.75L579.19,273.75L579.21,246.88L579.38,199.25L579.55,433.55L579.92,281.28L579.94,326.8L580.31,248.39L580.5,471.43L580.66,304.5L580.68,291.05L580.77,230.91L580.95,461.96L580.97,466.23L581.04,412.8L581.06,380.69L581.24,224.48L581.49,512.21L581.78,357.05L581.8,395.56L581.87,477.51L582.16,210.79L582.45,251.76L582.47,226.16L582.63,196.9L582.73,316.09L582.74,365.99L582.8,427.54L583.09,195.37L583.38,241.89L583.4,214.49L583.56,185.96L583.65,306.91L583.67,358.71L584.02,195.59L584.21,436.48L584.41,348.26L584.43,352.54L584.47,297.81L584.48,214.03L584.74,502.62L585.22,290.05L585.24,255.72L585.59,443.67L585.88,208.65L585.95,279.59L585.97,341.31L586.05,445.96L586.34,197.87L586.65,219.57L586.67,218.51L586.8,192.27L587.46,461.78L587.54,402.37L587.56,372.43L587.73,236.3L587.98,525.62L588.27,380.83L588.29,422.57L588.37,498.78L588.66,225.95L588.95,276.7L588.97,255.33L589.12,214.92L589.2,294.22L589.22,352.91L589.59,225.75L589.76,459.58L589.94,288.4L589.96,273.24L590.05,223.23L590.23,466.06L590.61,359.98L590.63,404.99L590.98,236.71L591.23,535.8L591.39,465.15L591.41,448.07L591.62,501.28L591.91,232.14L592.18,313.09L592.2,284.76L592.55,460.09L592.84,217.83L592.91,289.31L592.93,342.73L593.01,454.13L593.3,214.27L593.63,240.38L593.65,264.72L593.76,214.5L593.96,452.04L594.29,326.07L594.31,362.9L594.48,525.09L595.02,273.67L595.04,294.88L595.06,280.67L595.33,459.07L595.62,221L595.7,283.62L595.72,342.8L595.79,448.1L596.08,210.62L596.43,295.85L596.45,281.38L596.72,455.06L597.01,223.48L597.09,294.3L597.11,337.29L597.48,231.39L597.73,517.68L597.9,427.31L597.92,376.49L598.11,481.24L598.4,215.37L598.69,257.5L598.71,237.2L598.73,237.56L598.75,257.19L599.06,434.36L599.33,203.52L599.43,320.3L599.45,370.18L599.8,211.25L599.97,440.74L600.14,273.28L600.16,253.95L600.26,219.73L600.45,446.52L600.47,446.05L600.49,446.38L600.51,432.53L600.72,235.56L600.97,525.84L601.26,362.37L601.28,399.4L601.36,487.97L601.65,219.62L601.94,258.93L601.96,241.69L602.12,217.17L602.27,430.94L602.42,254.08L602.44,257.26L602.75,450.69L603.04,215.07L603.28,394.32L603.29,346.39L603.51,213.4L603.7,448.76L604.03,321.3L604.05,354.14L604.22,521.5L604.74,262.26L604.76,260.86L605.07,447.58L605.36,210.87L605.6,391.46L605.61,341.25L605.83,204.27L606,445.39L606.37,275.13L606.39,325.78L606.76,215.25L606.99,450.12L607.14,361.71L607.16,363.05L607.2,331.83L607.22,236.13L607.47,518.57L607.66,390.82L607.68,282.58L607.86,483.02L608.15,220.35L608.38,382.44L608.4,338.55L608.78,436.03L609.07,200.71L609.15,261.9L609.17,317.49L609.25,427.26L609.54,203.72L609.87,217.78L609.89,238.03L609.93,198.27L610.23,428.36L610.54,318.75L610.56,357.86L610.72,498.05L611.24,231.88L611.26,225.47L611.34,206.93L612.03,434.29L612.09,377.58L612.11,333.92L612.5,437.14L612.73,205.87L612.86,265.32L612.88,316.14L612.96,437.56L613.17,214.98L613.64,346.81L613.66,346.37L613.68,346.86L613.7,322.57L613.71,223.34L613.97,500.32L614.45,287.32L614.47,252.81L614.82,424.02L615.05,196.07L615.18,254.08L615.2,310.33L615.28,421.94L615.51,194.26L615.92,249.82L615.94,230.44L616.03,209.5L616.21,424.2L616.58,269.52L616.6,314.56L616.96,226.52L617.19,501.04L617.37,422.71L617.39,408.96L617.6,460.32L617.83,209.27L618.2,214.51L618.22,212.9L618.53,420.9L618.76,193.43L619.05,370.34L619.07,325.82L619.2,209.26L619.46,424.24L619.82,273.56L619.84,313.26L620.23,229.94L620.44,509.93L620.62,421.78L620.64,412.13L620.85,464.26L621.06,183.11L621.43,227.71L621.45,198.16L621.52,177.23L621.68,246.36L621.7,301.48L621.99,201.19L622.24,423.04L622.41,239.38L622.43,217.93L622.47,197.71L622.7,421.45L623.09,303.49L623.11,347.26L623.48,246.58L623.69,501.46L623.88,427.38L623.9,399.85L624.15,509.06L624.41,285.3L624.66,290.1L624.68,254.87L625.02,426.26L625.33,207.59L625.39,250.91L625.41,306.97L625.49,425.26L625.78,194.57L626.13,230.43L626.15,213.12L626.16,198.68L626.47,433.61L626.78,327.34L626.8,365.09L626.94,504.52L627.48,239.96L627.5,236.14L627.81,436.22L628.02,202.45L628.33,374.89L628.35,321.64L628.74,398.88L628.95,145.53L629.1,212.08L629.12,260.57L629.41,136.3L629.72,404.44L629.88,296.83L629.9,297.86L629.97,210.28L630.19,476.09L630.65,388.35L630.67,327.23L631.06,387.18L631.27,128.77L631.42,203.89L631.44,256.4L631.54,377.36L631.75,120.36L632.12,136.24L632.14,132.12L632.2,99.67L632.97,393.4L633.03,299.57L633.05,285.97L633.07,284.15L633.16,305.41L633.18,288.69L633.2,216.38L633.22,213.01L633.28,292.95L633.3,326.21L633.43,469.32L633.97,191.68L633.99,191.04L634.52,173.77L634.77,402.7L634.83,362.43L634.84,304.55L635.23,399.03L635.44,158.64L635.6,221.82L635.62,271.35L635.91,138.65L636.22,404.48L636.37,309.18L636.39,311.11L636.43,295.86L636.45,224.45L636.47,219.08L636.57,364.39L636.58,394.03L636.68,473.6L637.18,258.62L637.2,221.74L637.55,390.99L637.76,167.26L637.92,226.87L637.94,279.23L638.01,398.33L638.25,151.3L638.65,187.89L638.67,158.93L638.71,139.99L638.96,371.68L639.31,220.75L639.33,260.67L639.72,212.2L639.93,468.04L640.12,390.04L640.14,368.94L640.39,481.7L640.93,184.62L640.95,183.27L641.28,376.99L641.48,128.15L641.8,285.39L641.82,213.52L642.23,341.9L642.4,100.56L642.56,185.43L642.58,221.72L642.96,196.24L643.2,457.45L643.39,378.49L643.41,353.42L643.6,408.81L644.2,156.05L644.22,173.33L644.24,153.21L644.53,346.35L644.74,105.82L644.9,207.51L644.92,254.11L645.21,122.17L645.46,359.2L645.63,177.32L645.65,159.67L645.67,152.84L645.86,327.18L645.88,355.33L646.23,230.43L646.44,472.74L646.64,391.63L646.66,367.73L646.83,427.68L647.45,173.7L647.47,196.37L647.53,153.27L647.78,374.48L648.13,221.42L648.14,258.44L648.24,383.78L648.45,157.48L648.86,220.47L648.88,204.21L648.92,177.74L649.21,396.76L649.52,285.4L649.54,318.23L649.94,287.06L650.16,465.45L650.31,389.54L650.33,388.38L650.56,417.77L650.68,187.53L650.7,180.34L651.24,139.45L651.49,376.52L651.55,303.49L651.57,249.01L651.7,151.3L651.95,371.43L652.3,233.91L652.32,257.25L652.73,243.28L652.94,475.08L653.11,392.64L653.13,377.28L653.35,419.25L654.02,126.61L654.06,174.92L654.08,230.55L654.27,360.96L654.49,114.34L654.66,262.66L654.68,306.23L654.74,344.71L654.95,109.15L655.3,164.75L655.32,137.27L655.41,110.15L655.61,300.56L655.63,328.04L655.97,211.68L656.19,439.38L656.4,351.17L656.42,294.94L656.57,396.55L657.25,151.14L657.27,144.93L657.52,374.8L657.69,151.52L657.71,128.38L657.73,123.27L657.89,223.51L657.91,272.06L658.2,107.34L658.45,348.87L658.62,226.95L658.64,212.1L658.66,208.58L658.84,296.6L658.85,329.73L659.22,240.15L659.43,475.34L659.63,374.8L659.65,362.54L659.84,410.85L660.05,162.69L660.46,196.05L660.48,184.82L660.77,372.09L660.98,152.24L661.14,241.75L661.16,292.87L661.23,371.63L661.45,133.7L661.87,164.42L661.89,143.36L661.91,142.75L661.93,157.66L661.95,192.69L662.68,450.51L662.78,378.69L662.8,381.81L662.82,382.92L662.9,351.53L662.91,309.06L663.09,409.44L663.3,169.89L663.71,199.27L663.73,183.26L664.02,370.59L664.23,140.94L664.38,243.12L664.4,287.68L664.69,142.68L664.94,371.17L665.1,186.12L665.12,173.62L665.16,153.59L665.45,386.96L665.76,261.63L665.78,289.38L665.93,442.87L666.45,193.87L666.47,188.75L666.8,377.11L667.01,167.79L667.32,300.83L667.34,238.18L667.48,121.61L667.73,359.78L668.08,189.35L668.1,219.53L668.4,121.14L668.69,365.95L668.85,263.58L668.87,266.54L668.97,215.8L669.04,308.73L669.06,339.3L669.18,435.32L669.66,241.83L669.68,188.57L670.05,335.07L670.26,101.75L670.42,203.28L670.43,251.67L670.72,125.04L670.98,338.9L671.11,150.69L671.13,162.54L671.19,115.57L671.44,329.99L671.81,212.93L671.83,248.8L672.21,218.99L672.43,423.66L672.62,352.36L672.64,345.7L672.83,388.41L673.04,184.83L673.45,208.13L673.47,196.68L673.51,170.28L673.8,351.34L674.15,254.71L674.17,295.47L674.53,252.7L674.75,451.36L674.96,406.87L674.98,365.15L675.46,247.6L675.67,440.19L675.71,408.23L675.73,392.55L676.29,211.02L676.5,349.02L676.52,363.61L676.54,366.27L676.62,309.91L676.64,273.18L676.76,220.8L677.01,370.3L677.37,247.24L677.39,285.41L677.78,244.62L677.99,456.35L678.21,409.22L678.23,367.03L678.71,263.28L678.92,451.13L678.96,422.35L678.98,404.72L679.33,411.05L679.54,192.48L679.75,361L679.77,376.07L679.79,380.59L679.89,237.25L679.91,209.38L680,169.62L680.2,323.03L680.22,348.22L680.26,361.84L680.47,160.87L680.78,308.87L680.8,250.77L680.93,143.03L681.18,334.62L681.55,227.6L681.57,264.08L681.96,217.75L682.17,425.97L682.36,348.94L682.38,336.77L682.58,363.16L683.25,123.47L683.27,129.2L683.5,328.54L683.72,112.94L684.04,219.57L684.06,179.05L684.18,133.74L684.43,333.53L684.78,201.3L684.8,223.1L685.42,443.15L685.61,361.32L685.63,347.15L685.82,392.82L686.04,163.6L686.48,168.18L686.5,162.76L686.75,369.44L686.92,194.75L686.94,178.28L686.96,174.76L687.04,265.85L687.12,253.43L687.14,296.23L687.21,375.06L687.43,161.76L687.83,209.36L687.85,191.98L687.89,167.01L688.2,384.8L688.51,289.08L688.53,322.54L688.66,447.94L689.19,175.15L689.21,166.58L689.53,340.49L689.75,108.73L690.06,276.8L690.08,218.33L690.21,127.03L690.46,342.43L690.81,190.67L690.83,216.95L691.14,123.92L691.45,359.85L691.6,274.01L691.62,276.46L691.7,208.6L691.91,429.83L692.14,315.44L692.16,251.39L692.32,365.67L693,105.33L693.03,160.77L693.05,219.48L693.46,92.33L693.71,322.35L693.77,260.2L693.79,203.9L694.17,324.87L694.37,101.64L694.54,198.78L694.56,237.44L694.95,212.71L695.16,425.51L695.37,351.58L695.39,316.06L695.57,378.26L695.91,217.49L696.13,326.72L696.15,311.8L696.49,328.49L696.71,104.47L696.92,276.82L696.94,294.53L696.96,299.99L697.05,141.73L697.07,112.62L697.17,79.64L697.25,217.8L697.33,182.1L697.34,230.81L697.63,100.23L697.94,339.46L698.08,244.52L698.1,245.13L698.2,186.45L698.41,407.47L698.64,277.75L698.66,217.97L698.81,334.03L699.01,78.59L699.24,305.34L699.26,318.75L699.28,320.84L699.34,254.27L699.36,198.11L699.74,321.96L699.95,63.92L700.11,179.39L700.13,225.35L700.21,308.48L700.42,70.23L700.82,120.48L700.84,98.29L700.86,77.44L701.19,326.03L701.46,202.37L701.48,219.94L701.64,414.55L702.16,151.39L702.18,128.51L702.26,102.03L702.31,180.79L702.33,201.5L702.72,98.12L702.99,328.75L703.01,313.89L703.03,299.22L703.45,316.5L703.65,71.84L703.8,155.38L703.82,192.29L704.11,72.29L704.42,337.72L704.59,249.16L704.61,258.63L704.67,166.92L704.88,407.61L705.25,324.97L705.27,342.98L705.5,123.49L705.77,361.73L705.83,281.94L705.85,219.66L706.24,362.55L706.43,136.73L706.59,196.26L706.6,248.37L706.7,359.97L707.3,136.03L707.32,160.81L707.36,120.35L707.67,378.19L707.96,234.16L707.98,264.31L708.13,443.28L708.63,207.9L708.65,163.75L709.02,340.93L709.21,87.72L709.37,165.89L709.39,215.15L709.68,95.6L709.95,332.69L710.1,156.41L710.12,128.85L710.14,109.67L710.41,335.79L710.76,200.33L710.78,221.61L711.17,190.5L711.38,448.96L711.57,373.38L711.59,356.7L711.79,407.36L712,128.84L712.4,139.96L712.42,163.15L712.46,112.78L712.73,361.06L713.1,234.38L713.12,283.96L713.18,355.97L713.39,100.66L713.78,123.26L713.8,118.93L713.85,90.3L714.63,431.4L714.76,351.29L714.78,348.39L714.8,349.78L714.84,327.82L714.86,256.56L715.05,368.46L715.71,92.06L715.73,99.31L716.17,96.34L716.44,341.91L716.52,207.31L716.54,174.46L716.64,148.23L716.97,425.64L717.06,369.33L717.08,372.74L717.12,375.76L717.16,360L717.18,284.71L717.41,424.08L717.66,216.13L717.8,395.72L717.82,412.07L717.88,454.93L718.13,243.36L718.34,348.16L718.36,293L718.76,347.07L718.96,103.15L719.11,175.37L719.13,223.99L719.23,347.54L719.42,101.03L719.83,122.81L719.85,140.47L719.89,94.31L720.16,341.62L720.52,225.45L720.54,271.33L720.91,182L721.12,432.9L721.32,340.8L721.34,321.85L721.53,367.8L721.74,100.73L722.13,118.95L722.15,116.14L722.21,83.29L722.48,335.88L723,255.29L723.02,186.01L723.13,75.51L723.4,325.14L723.75,170.78L723.77,208.85L724.16,175.55L724.39,418L724.56,348.64L724.58,326.13L724.8,371.55L724.99,110.66L725.36,161.71L725.38,134.52L725.45,108.81L725.57,183.26L725.59,168.52L725.61,186.97L725.72,351.5L725.92,99.01L726.34,145.33L726.36,115.82L726.67,327.79L726.85,94.25L727,177.32L727.02,216.87L727.41,172.15L727.64,423.24L727.81,337.2L727.83,313.82L728.04,364.61L728.24,89.9L728.62,116.45L728.64,114.51L728.7,80.92L729.47,371.63L729.55,294.63L729.57,289.12L729.59,290.79L729.69,276.06L729.71,194.8L729.73,189.59L729.86,345.03L729.88,359.94L729.9,364.24L730,225.25L730.02,203.49L730.09,179.87L730.15,222.58L730.23,212.09L730.25,226.23L730.63,198.47L730.89,442.05L731.06,360.58L731.08,332.01L731.27,385.39L731.49,113.6L731.85,169.62L731.87,145.04L731.95,133.64L732.07,190.71L732.08,183.62L732.1,208.24L732.34,176.27L732.66,395.59L732.84,234.58L732.86,215.46L732.95,192.25L733.13,415.38L733.5,271.61L733.52,317.65L733.88,217.35L734.13,516.46L734.29,445.45L734.31,433.94L734.52,475.87L734.81,209.82L735.12,225.14L735.14,221.44L735.45,427.07L735.74,194.96L735.97,361.31L735.99,315.51L736.2,187.1L736.38,407.87L736.74,249.67L736.76,294.05L737.13,207.58L737.36,476.89L737.56,418.79L737.57,360.64L737.77,443.8L737.98,194.16L738.35,216.89L738.37,194.51L738.41,216.13L738.44,183.1L738.54,203.87L738.56,215.05L738.7,391.54L738.99,174.24L739.08,279.82L739.1,325.46L739.45,179.16L739.62,399.96L739.78,202.28L739.8,227.86L739.91,199.48L740.15,419.47L740.44,298.01L740.46,330.16L740.63,492.11L741.17,208.27L741.19,232.14L741.48,409.88L741.77,184.21L741.87,299.41L741.89,344.6L742.23,190.86L742.41,413.54L742.56,206.7L742.58,231.6L742.7,186.41L742.87,409.88L743.26,293.38L743.28,347.35L743.63,192.61L743.86,477.54L744.05,383.23L744.07,328.94L744.26,436.97L744.55,193.81L744.84,244.9L744.86,225.07L744.9,252.63L744.94,223.47L745,224.8L745.02,198.68L745.71,450.4L745.85,351.85L745.87,355.61L745.89,358.23L745.93,306.34L745.95,235.92L746.14,448.32L746.41,219.25L746.74,340.11L746.76,344.73L746.82,349.54L746.85,289.25L746.87,223.96L747.12,495.29L747.59,337.63L747.61,275.84L747.98,417.04L748.27,178.16L748.34,238.62L748.36,296.56L748.44,413.7L748.73,181.63L749.06,196.55L749.08,220.87L749.19,177.83L749.37,399.15L749.73,248.61L749.75,296.88L750.12,192.11L750.37,473.38L750.53,392.14L750.55,377.63L750.76,433.71L751.05,183.64L751.34,223.14L751.36,202.95L751.51,184.72L751.59,233.92L751.61,291.21L751.98,179.17L752.15,411.22L752.33,244.04L752.34,232.59L752.44,188.36L752.62,422.91L752.98,263.85L753,316.74L753.37,210.32L753.62,512.89L753.79,416.78L753.81,356.07L754.01,487.88L754.3,207.7L754.57,294.96L754.59,265.56L754.94,440.29L755.23,192.51L755.3,259.69L755.32,320.98L755.4,438.09L755.69,191.58L756.04,253.67L756.06,238.39L756.15,200.76L756.35,439.84L756.67,302.07L756.69,339.1L756.87,506.1L757.39,240.72L757.41,236.34L757.72,436.05L758.01,193.55L758.24,371.06L758.26,328.14L758.47,191.74L758.65,439.77L759.01,266.73L759.03,319.61L759.4,214.33L759.59,451.63L759.79,352.59L759.81,353.08L759.86,215.05L759.96,389.54L759.98,426.84L760.12,513.88L760.33,267.59L760.62,276.53L760.64,253.63L760.79,208.09L760.89,334.97L760.91,385.91L760.97,442.61L761.26,202.98L761.55,262.29L761.57,241.82L761.72,199.69L761.8,263.82L761.82,324.06L761.89,440.45L762.18,202.87L762.53,268.52L762.55,248.89L762.65,206.71L762.84,442.47L763.17,305.23L763.19,343.12L763.36,504.93L763.58,266.15L763.87,270.82L763.89,248.44L763.92,266.4L764.04,206.16L764.12,265.26L764.14,327.16L764.5,199.88L764.68,435.15L764.85,262.5L764.87,243L765.14,425.86L765.43,200.4L765.51,261.16L765.53,317.8L765.9,201.98L766.13,450.99L766.28,360.46L766.3,361.09L766.36,227.02L766.46,383.75L766.48,419.85L766.61,506.99L767.11,267.26L767.13,238.31L767.29,200.43L767.38,314.79L767.4,363.47L767.46,427.52L767.75,184.56L768.06,218.51L768.08,217.51L768.22,188.38L768.39,420.94L768.93,331.89L768.95,274.29L769.14,191.59L769.34,420.32L769.67,289.98L769.69,324.39L769.86,504.12L770.38,253.53L770.42,270.41L770.44,249.37L770.71,433.87L771,199.34L771.08,262.72L771.1,323.96L771.17,436.67L771.46,195.23L771.81,258.2L771.83,236.11L771.93,195.98L772.1,435.3L772.47,269.81L772.49,322.49L772.86,214.4L773.11,506.38L773.28,416.82L773.3,371.97L773.49,465.4L773.78,208.09L774.07,255.67L774.09,234.85L774.25,197.5L774.33,253.99L774.34,313.21L774.42,425.51L774.71,188.95L775.06,252.96L775.08,230.81L775.18,196.96L775.35,425.6L775.72,263.13L775.74,313.27L776.1,215.56L776.35,503.34L776.53,419.58L776.55,375.7L776.74,473.82L777.03,214.63L777.32,248.03L777.34,224.34L777.5,199.54L777.59,310.5L777.61,359.6L777.96,196L778.13,428.01L778.27,230.45L778.29,227.45L778.42,197.86L779.12,431L779.16,372.87L779.18,340.27L779.35,207.99L779.6,488.59L779.89,331.53L779.91,363.42L779.99,451.75L780.28,199.48L780.57,232.42L780.59,210.8L780.67,192.98L780.86,338.5L780.88,378.35L781.21,198.18L781.38,419.88L781.5,244.38L781.52,224.82L781.56,249.97L781.59,215.12L781.65,242.26L781.67,199.34L781.85,422.67L782.12,258.91L782.14,211.12L782.37,435.79L782.58,313.8L782.6,222.14L782.68,324.5L782.7,360.14L782.85,500.94L783.37,232.95L783.39,222.64L783.7,418.56L783.99,189.7L784.22,361.02L784.24,319.95L784.38,169.85L784.63,397.97L785,230.18L785.02,278.41L785.31,181.09L785.61,406.89L785.77,309.52L785.79,311.98L785.85,217.6L785.96,374.38L785.98,407.08L786.1,478.52L786.6,265.97L786.62,242.19L786.79,211.13L786.87,315.9L786.89,367.69L787.24,213.73L787.41,435.52L787.55,232.58L787.57,229.52L787.88,435.28L788.19,202.76L788.4,375.53L788.42,329.76L788.55,200.95L788.86,431.64L789.17,317.98L789.19,355.42L789.33,498.22L789.85,234.72L789.87,207.31L789.95,185.34L790.14,342.66L790.16,373.96L790.2,403.44L790.49,178.64L790.76,251.72L790.78,224.66L790.95,199.66L791.12,408.81L791.49,242.5L791.51,297.11L791.8,197.8L792.11,428.73L792.27,329.99L792.28,332.16L792.34,221.98L792.57,497.99L792.88,335.47L792.9,375.03L792.98,461.5L793.27,211.22L793.56,238.69L793.58,219.58L793.72,252.45L793.73,210.31L793.81,249.22L793.83,296.55L793.97,446.58L794.53,224.87L794.55,245.33L794.57,231.55L794.68,208.71L794.84,414.21L795.2,260.67L795.22,306.55L795.61,220.48L795.82,490.62L796,401.66L796.02,392.85L796.23,440.68L796.44,164.7L796.83,180.91L796.85,179.43L796.92,157.79L797.62,390.85L797.7,311.95L797.72,252.71L797.83,177.11L798.08,395.02L798.45,245.22L798.47,287.4L798.86,208.13L799.07,473.73L799.24,384.56L799.26,375.92L799.48,429.48L799.69,175.93L799.96,402.19L799.98,387.34L800.4,410.86L800.64,196.51L800.77,239.6L800.79,294.17L800.87,408.13L801.1,189.23L801.49,198.01L801.51,220.98L801.54,182.19L801.85,423.97L802.16,314.67L802.18,348.66L802.32,491.02L802.86,224.62L802.88,220.04L803.19,416.43L803.4,196.09L803.71,372.69L803.73,320.06L804.12,402.25L804.33,177.47L804.48,243.21L804.5,286.96L804.79,192.64L805.1,427.83L805.26,326.34L805.28,327.13L805.31,305.76L805.33,234.62L805.35,229.34L805.45,390.57L805.47,421.66L805.57,496.13L806.07,286.22L806.09,249.96L806.44,419.04L806.74,196.87L806.8,248.61L806.82,307.66L806.9,415.25L807.21,200.24L807.54,254.48L807.56,237.28L807.83,431.56L808.14,206.12L808.21,303.47L808.23,353.55L808.6,214.66L808.81,497.5L808.99,405L809.01,399.52L809.22,442.93L809.43,202.66L809.7,407.15L809.72,401.21L809.9,185.12L810.21,457.18L810.5,271.55L810.51,290.79L810.61,418.95L810.84,165.84L811.19,205.04L811.21,181.31L811.23,181.63L811.25,204.32L811.29,173.43L811.6,411.56L811.91,283.9L811.93,320.36L812.08,461.92L812.58,204.22L812.6,168.91L812.95,345.93L813.16,105.19L813.3,173.29L813.32,210.3L813.41,337.12L813.63,90.56L814.03,143.48L814.05,126.76L814.09,103.68L814.34,338.94L814.69,213.65L814.71,245.03L815.12,237.46L815.33,465.58L815.52,373.17L815.54,353.23L815.71,408.58L815.95,142.13L816.33,169.58L816.35,190.12L816.66,366.17L816.87,138.22L817.01,197.53L817.03,236.7L817.34,145.16L817.59,368.36L817.76,213.34L817.78,198.74L817.8,195.5L817.96,271.34L817.98,319.29L818.36,241.04L818.58,487.02L818.75,410.47L818.77,391.18L818.96,440.13L819.66,159.41L819.68,163.91L819.7,197.8L819.95,419.43L820.45,252.8L820.47,211.55L820.59,170.46L820.84,382.91L821.19,236.61L821.21,273L821.61,234.31L821.82,474L821.98,396.95L822,389.92L822.21,426.1L822.44,153.22L822.67,376.48L822.69,378.25L823.37,138.06L823.51,209.38L823.53,244.64L823.62,366.98L823.83,120.7L824.24,160.03L824.26,144.85L824.28,127.65L824.59,382.84L824.86,238.52L824.88,263.2L825.07,467.74L825.59,266.13L825.61,259.11L825.98,443.53L826.25,241.41L826.46,331.25L826.48,269.23L826.62,158.99L826.87,392.9L827.22,229.52L827.24,269.52L827.55,203.09L827.84,435.27L828.01,343.79L828.03,345.73L828.05,347.4L828.09,289.78L828.11,257.07L828.3,500.78L828.82,259.53L828.84,226.04L829.19,399.14L829.4,163.06L829.54,220.26L829.56,266.81L829.65,390.19L829.87,163.66L830.27,188.16L830.29,174.73L830.58,374.95L830.79,141.78L830.95,244.66L830.97,291.02L831.35,217.32L831.57,440.95L831.74,356.75L831.76,347.35L831.97,387.62L832.19,111.57L832.4,326.25L832.42,337.43L832.44,341.87L832.51,219.15L832.53,175.53L832.65,119.36L832.9,366.39L833.23,216.97L833.25,223.56L833.37,390.02L833.96,180.21L833.98,198.65L834,181.8L834.04,156.54L834.33,387.27L834.64,276.47L834.66,308.9L834.81,454.27L835.34,200.97L835.36,191.87L835.68,381.71L835.9,124.75L836.21,298.01L836.23,234.74L836.36,112.44L836.61,341.91L836.98,222.14L837,266.46L837.27,132.18L837.58,364.44L837.75,275.29L837.77,277.73L837.85,213.36L837.95,342.32L837.97,365.61L838.06,425.79L838.33,241.03L838.55,242.22L838.57,192.71L838.93,347.28L839.15,111.35L839.3,219.76L839.32,267.12L839.61,148.05L839.86,376.18L840.03,217.9L840.05,201.89L840.07,199.22L840.15,257.6L840.21,245.68L840.23,282.49L840.54,213.29L840.83,420L840.98,318.73L841,320.87L841.04,322.85L841.08,286L841.1,246.5L841.31,463.46L841.77,350.9L841.79,290.3L842.18,386.47L842.39,177.26L842.55,248.56L842.57,296.19L842.64,377.74L842.86,171.03L843.26,207.05L843.28,191.62L843.32,168.29L843.57,357.32L843.94,225.87L843.96,266.17L844.35,225.03L844.56,447.7L844.75,392.86L844.77,380.11L845,394.82L845.64,153.55L845.66,165.62L846.39,339.04L846.43,274.49L846.45,234.53L846.57,178.58L846.86,347.86L847.19,239.84L847.21,273.28L847.59,223.52L847.81,445.74L848,382.99L848.02,370.55L848.21,371.25L848.89,121.1L848.91,132.86L849.14,319.53L849.35,123.4L849.68,226.34L849.7,179.67L849.82,113.06L850.07,314.59L850.42,174.41L850.44,194.59L850.84,187.11L851.05,394.72L851.21,318.43L851.23,316.16L851.32,204.36L851.4,283.65L851.42,304.23L851.46,324.8L851.67,78.57L852,189.9L852.02,146.18L852.39,287.79L852.58,77.86L852.74,150.84L852.76,178.66L853.05,104.81L853.32,315.41L853.49,141.45L853.51,122.58L853.53,117.49L853.7,233.47L853.72,272.19L854.09,195.49L854.3,402.14L854.49,321.67L854.51,313.96L854.71,337.22L854.92,98.74L855.38,117.46L855.4,124.39L855.64,313.48L855.85,106.49L856.18,203.73L856.2,163.86L856.31,113.79L856.56,324.23L856.91,184.52L856.93,207.69L857.34,203.84L857.55,418.89L857.74,341.76L857.76,332.57L857.96,361.79L858.63,81.43L858.65,92.25L858.67,138.11L858.88,311.25L859.1,103.03L859.42,190.95L859.44,150.4L859.56,101.95L859.81,315.81L860.16,170.4L860.18,195.25L860.58,192.04L860.8,402.9L860.97,330.3L860.99,319.29L861.2,338.83L861.42,79.78L861.63,285.85L861.65,299.67L861.67,304.37L861.74,190.41L861.76,149.08L861.88,94.83L862.13,310.61L862.48,152.67L862.5,187.7L862.81,97.71L863.06,312.65L863.21,142.14L863.23,122.69L863.27,98.55L863.58,321.43L863.87,208.27L863.89,232.34L864.04,396.08L864.57,123.1L864.59,111.44L865.13,78.14L865.38,311.83L865.44,242.08L865.46,186.29L865.59,81.23L865.84,312.28L866.19,149.97L866.21,181.48L866.52,90.93L866.83,313.59L866.98,245.21L867,251.56L867.08,177.01L867.29,400.02L867.52,277.76L867.54,222.51L867.7,341.36L867.91,91.77L868.1,264.29L868.12,291.27L868.16,309.29L868.38,85.04L868.7,183.09L868.72,136.43L869.09,292.28L869.3,48.53L869.46,152.42L869.48,201.37L869.77,53.86L870.08,293.81L870.23,205.48L870.25,211.02L870.33,150L870.52,377.39L870.75,239.21L870.77,182.37L870.79,178.94L870.89,278.44L870.91,296.16L870.95,311.01L871.14,28.2L871.47,211.15L871.49,139.09L871.87,283.83L872.07,40.5L872.22,119.17L872.24,162.14L872.34,285.56L872.53,32.42L872.96,105.41L872.98,75.33L873,59.98L873.31,330.58L873.48,260.23L873.5,266.69L873.52,269.05L873.54,224.78L873.56,180.38L873.77,400.84L874.29,277.93L874.31,261.25L874.48,203.39L874.62,328.66L874.64,338.87L874.7,369.49L874.93,243.36L874.95,187.53L875.04,272.26L875.06,299.56L875.12,332.48L875.32,113.71L875.66,159.64L875.68,122.49L876.05,303.49L876.24,69.3L876.38,148L876.4,163.2L876.8,150.55L877.02,389.42L877.21,311.79L877.23,297.52L877.42,336.45L877.64,75.94L878.04,85.04L878.06,108.06L878.1,60.42L878.37,299.65L878.74,176.32L878.76,223.82L878.83,297.7L879.03,50.59L879.41,78.86L879.43,75.68L879.49,59.57L880.26,383.16L880.36,318.7L880.38,318.07L880.4,318.58L880.46,309.25L880.48,294.71L880.69,335.46L880.88,90.88L881.29,112.24L881.31,133.72L881.6,323.18L881.81,81.21L881.99,196.52L882,242.08L882.08,313.3L882.28,82.7L882.66,105.49L882.68,105.31L882.74,95.63L883.51,435.26L883.61,368.36L883.63,369.23L883.76,248.78L883.92,403.48L884,301.16L884.01,236.84L884.38,372.19L884.59,136.93L884.75,202.28L884.77,250.25L884.87,360.52L885.06,124.94L885.48,165.74L885.5,138.52L885.77,347.52L885.99,106.51L886.16,221.38L886.18,264.31L886.55,165.6L886.76,419.15L886.95,338.03L886.97,320.34L887.17,367.18L887.38,123.63L887.75,170.49L887.77,145.59L887.84,128.12L887.9,191.41L887.98,171.36L888,199.33L888.31,139.36L888.56,369.16L888.73,185.36L888.75,162.83L888.77,142.77L889.02,370.08L889.39,230.84L889.41,262.79L889.8,201.81L890.01,462.4L890.2,374.25L890.22,347.84L890.41,415.07L890.63,154.17L891.01,157.09L891.03,152.39L891.34,357.46L891.55,126.98L891.88,268.74L891.9,204.64L892.02,122.95L892.29,350.28L892.64,200.93L892.66,237.62L893.02,175.4L893.26,428.58L893.45,342.62L893.47,316.8L893.66,377.8L893.87,115.89L894.26,133.82L894.28,126.96L894.34,110.22L895.05,362.77L895.13,286.46L895.15,231L895.27,178.88L895.59,449.75L895.85,286.29L895.87,294.96L896.27,212.54L896.5,454.49L896.68,393.68L896.7,383.53L896.91,406.33L897.12,154.1L897.53,170.04L897.55,194.37L897.59,157.41L897.84,381.41L898.22,270.61L898.24,316.7L898.51,159.56L898.82,408.93L898.98,317.48L899,317.71L899.06,204.21L899.13,275.26L899.15,307.67L899.52,201.75L899.75,461.42L899.94,381.27L899.96,343.88L900.16,434.4L900.45,180.64L900.72,245.76L900.74,216.59L901.09,387.01L901.38,162.76L901.45,217.98L901.47,267.48L901.84,168.85L902.03,392.28L902.19,243.11L902.21,224.54L902.3,199.17L902.48,415.48L902.5,419.34L902.54,420.29L902.55,400.73L902.57,361.45L902.77,219.08L903.02,492.28L903.31,358.42L903.33,390.64L903.46,507.56L903.98,251.3L904,228.16L904.16,195.29L904.27,354.45L904.29,387.54L904.33,419.77L904.62,182.49L904.89,258.5L904.91,229.23L905.09,175.48L905.26,394.58L905.63,246.2L905.65,286.53L906.01,189.86L906.27,470.08L906.44,386.44L906.46,340.7L906.65,431.84L906.94,184.59L907.23,229.39L907.25,206.5L907.41,181.01L907.52,337.9L907.54,373.66L907.58,404.58L907.87,169.59L908.14,250.8L908.16,222L908.33,178.65L908.51,406.8L908.88,251.85L908.9,297.5L909.26,194.38L909.49,473.81L909.67,421.4L909.69,406.75L909.9,432.81L910.19,171.72L910.5,190.98L910.52,187.18L910.65,159.59L911.29,397.88L911.35,334.35L911.37,298.53L911.58,166.98L911.76,397.77L912.12,255.64L912.14,293.62L912.51,199.44L912.76,471.94L912.92,394.89L912.94,374.33L913.15,440.42L913.44,170.78L913.73,224.57L913.75,203.01L913.9,162.19L914,295.45L914.02,345.3L914.08,409.05L914.37,168.43L914.68,209.35L914.69,203.98L914.83,169.24L915.49,405.84L915.55,384.53L915.56,342.66L915.76,196.49L916.01,475.63L916.3,330.83L916.32,366.91L916.4,453.52L916.69,186.63L916.98,245.1L917,223.27L917.15,187.27L917.3,414.73L917.32,421.72L917.38,359.13L917.4,320.82L917.61,182.72L917.79,418.86L918.16,255.47L918.17,304.25L918.54,188.92L918.74,424.99L918.93,329.61L918.95,330.75L919.01,200.56L919.08,329.02L919.1,364.7L919.26,489.07L919.76,234.69L919.78,210.81L919.93,179.85L920.07,376.6L920.09,397.17L920.11,404.73L920.26,195.77L920.3,199.43L920.32,184.36L920.4,169.08L920.46,198.85L920.48,229.91L920.57,403.34L920.86,158.22L921.21,209.38L921.23,187.38L921.33,157.16L921.5,389.28L921.87,244.58L921.89,283.56L922.25,196.47L922.51,493.15L922.68,405.55L922.7,341.93L922.89,455.89L923.18,179.68L923.47,236.55L923.49,214.28L923.65,173.79L923.76,348.9L923.78,380.63L924.11,175.93L924.34,427.42L924.46,335.68L924.48,333.37L924.53,338.68L924.55,291.44L924.57,213.91L925.04,195.81L925.27,438.81L925.37,331.32L925.39,335.8L925.44,340.73L925.48,287.12L925.5,205.53L925.75,487.88L926.24,284.19L926.26,252.16L926.6,417.83L926.89,177.18L926.97,249.42L926.99,304.88L927.36,182.18L927.53,424.98L927.71,245.97L927.72,230.89L927.82,178.23L928,427.9L928.36,269.93L928.38,313.85L928.75,206.42L929,497.82L929.17,409.06L929.19,351.59L929.39,464.86L929.68,193.38L929.95,285.29L929.97,258.29L930.32,431.42L930.61,179.32L930.68,264.4L930.7,318.44L930.78,427.39L931.07,178.49L931.42,251.29L931.44,234.64L931.53,185.43L931.73,429.08L932.06,304.49L932.07,338.47L932.25,500.85L932.77,264.91L932.79,262.17L933.1,451.49L933.39,204.88L933.62,388.66L933.64,348.69L934.03,438.36L934.32,190.42L934.39,261.95L934.41,314.45L934.78,196.4L934.97,435.88L935.17,346.9L935.19,347.79L935.24,215.44L935.36,420.44L935.38,448.32L935.5,506.85L935.71,269.4L935.98,309.42L936,276.99L936.35,431.28L936.64,190.51L936.71,263.4L936.73,319.88L936.81,430.07L937.1,188.7L937.45,257.79L937.47,237.22L937.56,185.8L937.74,426.46L938.11,271.64L938.13,314.3L938.49,214.82L938.74,497.23L938.9,423.41L938.92,407.58L939.13,460.41L939.42,193.91L939.71,254.71L939.73,236.74L939.88,195.65L940.06,440.64L940.17,269.5L940.19,248.87L940.35,189.73L940.45,322.34L940.46,372.35L940.52,433.19L940.81,188.85L941.12,241.87L941.14,242.13L941.28,193.86L941.99,499.47L942.05,429.02L942.07,415.12L942.13,429.69L942.19,370.38L942.2,269.31L942.38,467.72L942.67,194.3L942.92,341.33L942.94,289.48L943.31,424.02L943.6,181.89L943.67,259.29L943.69,314.92L943.77,424.44L944.06,183.05L944.41,260.58L944.43,241.9L944.52,193.3L944.72,431.39L945.05,301.88L945.07,339.31L945.24,496.59L945.78,247.54L945.8,270.27L945.82,253.14L946.09,435.87L946.38,199.81L946.46,270.32L946.48,324.86L946.55,433.88L946.84,191.53L947.19,250.83L947.21,234.85L947.31,195.23L947.48,425.25L947.85,262.73L947.87,309.01L948.24,219.91L948.49,497.23L948.66,408.73L948.68,368.67L948.87,463.16L949.16,205.2L949.45,258.33L949.47,234.26L949.63,187.8L949.78,412.31L949.8,419.3L949.86,359.92L949.88,322.83L950.09,176.16L950.27,410.47L950.63,246.87L950.65,295.03L951.02,192.67L951.21,415.44L951.41,321.87L951.43,322.92L951.46,299.84L951.48,214.11L951.72,481.04L952.18,388.37L952.2,348.03L952.41,197.19L952.59,415.7L952.95,259.12L952.97,311.07L953.05,417.11L953.34,186.96L953.67,209.36L953.69,233.87L953.8,181.02L953.98,406.23L954.36,290.72L954.38,337.73L954.73,201.79L954.96,478.82L955.14,402.7L955.16,387.96L955.37,452.09L955.68,202.36L955.95,253.49L955.97,233.2L955.99,232.92L956.01,257.64L956.14,195.21L956.3,431.45L956.68,310.19L956.7,359.78L956.76,425.55L957.05,194.3L957.36,223.73L957.38,218.66L957.52,201.14L958.21,492.54L958.29,417.73L958.31,403.65L958.37,412.84L958.42,366.48L958.44,267.97L958.62,450.82L958.71,287.42L958.73,252.69L959.08,413.24L959.29,176.59L959.45,237.48L959.47,286.21L959.55,406.12L959.78,165.99L960.18,220.93L960.2,197.37L960.24,180.9L960.47,402.5L960.84,243.72L960.86,289.74L961.25,211.92L961.46,487.58L961.65,397.19L961.67,362.77L961.87,441.82L962.1,188.71L962.43,266.79L962.45,237.97L962.79,405.71L963.02,181.75L963.18,282.36L963.2,332.94L963.31,433.26L963.57,224.53L963.89,264.64L963.91,243.94L964.03,211.93L964.24,434.74L964.53,277.3L964.55,306.92L964.71,476.66L965.23,221.01L965.25,193.43L965.6,383.8L965.81,145.81L965.94,219.06L965.96,262.37L966.06,383.26L966.27,147.76L966.66,165.17L966.68,185.44L966.74,133.03L966.99,369.52L967.36,254.47L967.37,301.93L967.74,202.19L967.95,471.07L968.15,372.9L968.17,345.3L968.36,419.83L968.59,155.15L968.94,207.26L968.96,185.25L969.29,382.2L969.52,152.13L969.66,208.79L969.68,261.01L969.75,374.53L969.97,135.85L970.39,188.02L970.41,165.37L970.43,145.8L970.74,395.51L971.03,257.75L971.05,286.07L971.2,462.31L971.74,193.63L971.76,186.8L972.07,386.76L972.3,157.75L972.59,344.63L972.61,289.86L972.77,146.37L973,375.36L973.37,226.45L973.39,267.44L973.68,177.46L973.99,404.19L974.16,315.29L974.18,314.26L974.24,221.92L974.45,485.09L974.8,375.98L974.82,399.12L974.88,420.33L975.07,187.01L975.4,302.27L975.42,248.52L975.63,185.22L975.78,406.24L976.15,245.29L976.17,299.84L976.25,409.49L976.48,159.78L976.85,161.26L976.87,157.14L976.92,130.33L977.7,467.07L977.83,386.62L977.85,390.21L977.91,349.29L977.93,270.35L978.1,414.33L978.34,139.39L978.55,355.6L978.57,366.44L978.59,367.11L978.61,364.28L978.63,341.17L979.05,353.96L979.24,100.09L979.4,188.64L979.42,229.6L979.55,398.5L980.11,185.2L980.13,194.35L980.15,170.05L980.17,155.4L980.48,393.36L980.77,249.51L980.79,274.84L980.97,450.44L981.47,231.17L981.49,200.31L981.84,368.3L982.05,137.57L982.2,216.91L982.22,271.79L982.3,356.72L982.51,118.56L982.9,147.47L982.92,164.92L982.98,116.06L983.23,334.86L983.59,219.11L983.61,251.04L984,204.01L984.21,428.79L984.39,367.44L984.41,351.49L984.62,397.17L984.83,182.55L985.24,214.52L985.26,202.35L985.55,377.83L985.76,145.61L985.91,239.68L985.93,290.79L986.01,363.35L986.22,145.82L986.59,164.97L986.61,156.8L986.69,135.84L987.46,431.62L987.56,361.11L987.58,363.76L987.6,365.04L987.67,321.64L987.69,265L987.85,388.95L988.54,152.33L988.56,157.97L989.32,428.2L989.41,347.14L989.43,344.49L989.55,272.56L989.57,235.79L989.72,412.11L989.94,204.37L990.3,297.78L990.32,292.43L990.5,222.64L990.71,442.75L990.92,337.86L990.94,281.8L991.1,411.5L991.33,173.56L991.77,186.03L991.79,179.03L992.04,388.18L992.12,264.93L992.14,229.47L992.51,384.77L992.72,164.35L992.87,247.58L992.89,294.41L993.18,142.77L993.47,374.06L993.63,296.65L993.65,299.31L993.69,300.04L993.7,291.3L993.94,465.99L994.5,179.41L994.52,196.46L994.83,375.93L995.04,141.03L995.17,209.36L995.19,244.29L995.33,407.7L995.89,132.42L995.91,147.39L995.97,101.18L996.22,346.37L996.57,205.37L996.59,234.66L996.99,211.97L997.2,438.18L997.36,370.41L997.38,362.67L997.61,402.25L997.82,198.57L998.02,346.33L998.04,369.53L998.07,381.92L998.29,144.43L998.63,206.32L998.65,178.49L998.75,156.29L998.94,337.81L998.96,359.11L999.21,157.31L999.47,373.32L999.54,246.11L999.56,206.99L999.68,143.07L999.97,378.87L1000.26,233.66L1000.28,253.43L1000.45,437.06L1000.95,196.78L1000.97,163.41L1001.32,345.19L1001.53,118.39L1001.67,190.62L1001.69,224.46L1001.77,354.56L1002,129.91L1002.42,175.76L1002.44,159.17L1002.46,153.62L1002.64,287.58L1002.66,324.84L1002.93,169.27L1003.22,383.68L1003.39,286.9L1003.41,286.53L1003.43,286.95L1003.45,276.82L1003.47,240.51L1003.7,446.7L1004.28,147.66L1004.3,126.59L1004.32,119.45L1004.51,297.58L1004.53,320.58L1004.78,106.06L1005.03,340.71L1005.11,219.11L1005.13,178.35L1005.25,111.31L1005.5,336.41L1005.86,204.85L1005.88,247.83L1006.17,142.05L1006.46,357.62L1006.62,255.86L1006.64,255.96L1006.73,193.69L1006.91,388.22L1006.93,416.25L1006.95,417.96L1007.01,365.7L1007.02,352.72L1007.18,286.77L1007.2,239.84L1007.35,362.28L1007.55,113.74L1007.78,321.14L1007.8,330.86L1007.82,336.98L1007.95,167.03L1007.99,167.37L1008.01,145.86L1008.03,137.65L1008.26,346.06L1008.28,346.68L1008.96,97.97L1009.09,165.43L1009.11,191.29L1009.42,97.62L1009.71,340.87L1009.87,234.01L1009.89,232.71L1009.98,178.97L1010.06,269.84L1010.08,301.26L1010.2,394.53L1010.7,177.05L1010.72,148.67L1010.81,116.35L1010.89,216.35L1010.97,200.66L1010.99,248.04L1011.07,329.98L1011.28,106.54L1011.68,161.05L1011.7,143.94L1011.74,120.16L1011.99,327.54L1012.36,206.28L1012.38,251.08L1012.67,176.78L1012.96,362.5L1013.13,284.43L1013.15,287.03L1013.23,214.65L1013.31,298.8L1013.33,331.7L1013.69,237.27L1013.91,452.4L1014.12,393.73L1014.14,353.8L1014.31,402.15L1014.53,199.72L1014.93,201.61L1014.95,190.13L1015.24,333.45L1015.45,169.36L1015.61,209.64L1015.63,251.6L1015.92,210.14L1016.23,380.95L1016.4,318L1016.42,317.37L1016.48,233.25L1016.59,368L1016.61,383.6L1016.69,431.76L1016.94,222.67L1017,349.81" style="vector-effect: non-scaling-stroke; fill: none; stroke: rgb(99, 110, 250); stroke-opacity: 1; stroke-width: 2px; opacity: 1;"/></g><g class="points"/><g class="text"/></g></g></g><g class="overplot"/><path class="xlines-above crisp" d="M102,664.5H1120" style="fill: none; stroke-width: 1px; stroke: rgb(255, 255, 255); stroke-opacity: 1;"/><path class="ylines-above crisp" d="M102.5,100V664" style="fill: none; stroke-width: 1px; stroke: rgb(255, 255, 255); stroke-opacity: 1;"/><g class="overlines-above"/><g class="xaxislayer-above"><g class="xtick"><text text-anchor="middle" x="0" y="696.2" transform="translate(103,0)" style="font-family: 'Open Sans', verdana, arial, sans-serif; font-size: 26px; fill: rgb(42, 63, 95); fill-opacity: 1; white-space: pre;">2012</text></g><g class="xtick"><text text-anchor="middle" x="0" y="696.2" transform="translate(272.81,0)" style="font-family: 'Open Sans', verdana, arial, sans-serif; font-size: 26px; fill: rgb(42, 63, 95); fill-opacity: 1; white-space: pre;">2013</text></g><g class="xtick"><text text-anchor="middle" x="0" y="696.2" transform="translate(442.16,0)" style="font-family: 'Open Sans', verdana, arial, sans-serif; font-size: 26px; fill: rgb(42, 63, 95); fill-opacity: 1; white-space: pre;">2014</text></g><g class="xtick"><text text-anchor="middle" x="0" y="696.2" transform="translate(611.51,0)" style="font-family: 'Open Sans', verdana, arial, sans-serif; font-size: 26px; fill: rgb(42, 63, 95); fill-opacity: 1; white-space: pre;">2015</text></g><g class="xtick"><text text-anchor="middle" x="0" y="696.2" transform="translate(780.86,0)" style="font-family: 'Open Sans', verdana, arial, sans-serif; font-size: 26px; fill: rgb(42, 63, 95); fill-opacity: 1; white-space: pre;">2016</text></g><g class="xtick"><text text-anchor="middle" x="0" y="696.2" transform="translate(950.67,0)" style="font-family: 'Open Sans', verdana, arial, sans-serif; font-size: 26px; fill: rgb(42, 63, 95); fill-opacity: 1; white-space: pre;">2017</text></g><g class="xtick"><text text-anchor="middle" x="0" y="696.2" transform="translate(1120.02,0)" style="font-family: 'Open Sans', verdana, arial, sans-serif; font-size: 26px; fill: rgb(42, 63, 95); fill-opacity: 1; white-space: pre;">2018</text></g></g><g class="yaxislayer-above"><g class="ytick"><text text-anchor="end" x="96.8" y="9.1" transform="translate(0,620.69)" style="font-family: 'Open Sans', verdana, arial, sans-serif; font-size: 26px; fill: rgb(42, 63, 95); fill-opacity: 1; white-space: pre;">40k</text></g><g class="ytick"><text text-anchor="end" x="96.8" y="9.1" transform="translate(0,511.93)" style="font-family: 'Open Sans', verdana, arial, sans-serif; font-size: 26px; fill: rgb(42, 63, 95); fill-opacity: 1; white-space: pre;">50k</text></g><g class="ytick"><text text-anchor="end" x="96.8" y="9.1" transform="translate(0,403.17)" style="font-family: 'Open Sans', verdana, arial, sans-serif; font-size: 26px; fill: rgb(42, 63, 95); fill-opacity: 1; white-space: pre;">60k</text></g><g class="ytick"><text text-anchor="end" x="96.8" y="9.1" transform="translate(0,294.41999999999996)" style="font-family: 'Open Sans', verdana, arial, sans-serif; font-size: 26px; fill: rgb(42, 63, 95); fill-opacity: 1; white-space: pre;">70k</text></g><g class="ytick"><text text-anchor="end" x="96.8" y="9.1" transform="translate(0,185.66)" style="font-family: 'Open Sans', verdana, arial, sans-serif; font-size: 26px; fill: rgb(42, 63, 95); fill-opacity: 1; white-space: pre;">80k</text></g></g><g class="overaxes-above"/></g></g><g class="polarlayer"/><g class="ternarylayer"/><g class="geolayer"/><g class="funnelarealayer"/><g class="pielayer"/><g class="treemaplayer"/><g class="sunburstlayer"/><g class="glimages"/><defs id="topdefs-e94834"><g class="clips"/></defs><g class="layer-above"><g class="imagelayer"/><g class="shapelayer"/></g><g class="infolayer"><g class="g-gtitle"><text class="gtitle" x="60" y="50" text-anchor="start" dy="0em" style="font-family: 'Open Sans', verdana, arial, sans-serif; font-size: 36px; fill: rgb(42, 63, 95); opacity: 1; font-weight: normal; white-space: pre;">All Regions Demand outliers fixed</text></g><g class="g-xtitle"><text class="xtitle" x="611.5" y="737.903125" text-anchor="middle" style="font-family: 'Open Sans', verdana, arial, sans-serif; font-size: 31px; fill: rgb(42, 63, 95); opacity: 1; font-weight: normal; white-space: pre;">Date</text></g><g class="g-ytitle" transform="translate(19.3564453125,0)"><text class="ytitle" transform="rotate(-90,11.643749999999997,382)" x="11.643749999999997" y="382" text-anchor="middle" style="font-family: 'Open Sans', verdana, arial, sans-serif; font-size: 31px; fill: rgb(42, 63, 95); opacity: 1; font-weight: normal; white-space: pre;">Demand</text></g></g></svg>