<svg class="main-svg" xmlns="http://www.w3.org/2000/svg" xmlns:xlink="http://www.w3.org/1999/xlink" width="1200" height="750" style="" viewBox="0 0 1200 750"><rect x="0" y="0" width="1200" height="750" style="fill: rgb(255, 255, 255); fill-opacity: 1;"/><defs id="defs-b0a267"><g class="clips"><clipPath id="clipb0a267xyplot" class="plotclip"><rect width="1017" height="564"/></clipPath><clipPath class="axesclip" id="clipb0a267x"><rect x="103" y="0" width="1017" height="750"/></clipPath><clipPath class="axesclip" id="clipb0a267y"><rect x="0" y="100" width="1200" height="564"/></clipPath><clipPath class="axesclip" id="clipb0a267xy"><rect x="103" y="100" width="1017" height="564"/></clipPath></g><g class="gradients"/></defs><g class="bglayer"><rect class="bg" x="103" y="100" width="1017" height="564" style="fill: rgb(229, 236, 246); fill-opacity: 1; stroke-width: 0;"/></g><g class="layer-below"><g class="imagelayer"/><g class="shapelayer"/></g><g class="cartesianlayer"><g class="subplot xy"><g class="layer-subplot"><g class="shapelayer"/><g class="imagelayer"/></g><g class="gridlayer"><g class="x"><path class="xgrid crisp" transform="translate(230.04000000000002,0)" d="M0,100v564" style="stroke: rgb(255, 255, 255); stroke-opacity: 1; stroke-width: 1px;"/><path class="xgrid crisp" transform="translate(357.43,0)" d="M0,100v564" style="stroke: rgb(255, 255, 255); stroke-opacity: 1; stroke-width: 1px;"/><path class="xgrid crisp" transform="translate(484.47,0)" d="M0,100v564" style="stroke: rgb(255, 255, 255); stroke-opacity: 1; stroke-width: 1px;"/><path class="xgrid crisp" transform="translate(611.51,0)" d="M0,100v564" style="stroke: rgb(255, 255, 255); stroke-opacity: 1; stroke-width: 1px;"/><path class="xgrid crisp" transform="translate(738.55,0)" d="M0,100v564" style="stroke: rgb(255, 255, 255); stroke-opacity: 1; stroke-width: 1px;"/><path class="xgrid crisp" transform="translate(865.93,0)" d="M0,100v564" style="stroke: rgb(255, 255, 255); stroke-opacity: 1; stroke-width: 1px;"/><path class="xgrid crisp" transform="translate(992.97,0)" d="M0,100v564" style="stroke: rgb(255, 255, 255); stroke-opacity: 1; stroke-width: 1px;"/></g><g class="y"><path class="ygrid crisp" transform="translate(0,607.64)" d="M103,0h1017" style="stroke: rgb(255, 255, 255); stroke-opacity: 1; stroke-width: 1px;"/><path class="ygrid crisp" transform="translate(0,537.65)" d="M103,0h1017" style="stroke: rgb(255, 255, 255); stroke-opacity: 1; stroke-width: 1px;"/><path class="ygrid crisp" transform="translate(0,467.66)" d="M103,0h1017" style="stroke: rgb(255, 255, 255); stroke-opacity: 1; stroke-width: 1px;"/><path class="ygrid crisp" transform="translate(0,397.67)" d="M103,0h1017" style="stroke: rgb(255, 255, 255); stroke-opacity: 1; stroke-width: 1px;"/><path class="ygrid crisp" transform="translate(0,327.68)" d="M103,0h1017" style="stroke: rgb(255, 255, 255); stroke-opacity: 1; stroke-width: 1px;"/><path class="ygrid crisp" transform="translate(0,257.69)" d="M103,0h1017" style="stroke: rgb(255, 255, 255); stroke-opacity: 1; stroke-width: 1px;"/><path class="ygrid crisp" transform="translate(0,187.7)" d="M103,0h1017" style="stroke: rgb(255, 255, 255); stroke-opacity: 1; stroke-width: 1px;"/><path class="ygrid crisp" transform="translate(0,117.71000000000001)" d="M103,0h1017" style="stroke: rgb(255, 255, 255); stroke-opacity: 1; stroke-width: 1px;"/></g></g><g class="zerolinelayer"/><path class="xlines-below"/><path class="ylines-below"/><g class="overlines-below"/><g class="xaxislayer-below"/><g class="yaxislayer-below"/><g class="overaxes-below"/><g class="plot" transform="translate(103, 100)" clip-path="url('#clipb0a267xyplot')"><g class="scatterlayer mlayer"><g class="trace scatter traceaedb1a" style="stroke-miterlimit: 2; opacity: 1;"><g class="fills"/><g class="errorbars"/><g class="lines"><path class="js-line" d="M0,402.87L0.1,522.99L0.64,319.06L0.75,444.56L0.77,443.84L0.78,477.62L1.02,297.3L1.51,413.42L1.52,355.33L1.84,458.05L2.06,295.22L2.29,309.86L2.31,302.28L2.73,260.12L2.89,488.52L3.05,443.36L3.06,335.15L3.22,464.79L3.8,283.13L3.81,299.7L3.83,334.34L3.93,450.43L4.5,280.37L4.61,443.35L4.63,445.53L5.16,256.54L5.32,482.41L5.37,459.22L5.38,452.11L5.79,262.72L5.99,419.3L6,444.66L6.02,445.85L6.03,388.21L6.13,271.54L6.71,447.98L6.79,306.56L6.8,325.49L6.83,296.54L7.06,452.24L7.35,428.39L7.37,435.13L7.38,435.35L7.4,457.83L7.6,282.38L7.76,507.09L8.12,421.1L8.14,362.1L8.45,450.49L8.57,283.14L8.9,297.31L8.92,288.03L9.27,279.75L9.5,438.01L9.67,324.22L9.69,307.13L10.04,254.32L10.2,479.97L10.51,433.24L10.53,450.22L10.54,452.61L10.59,300.15L10.6,285.01L10.66,280.38L10.69,313.18L10.7,365.76L10.89,442.58L11.01,264.08L11.47,290.48L11.49,325.9L11.7,256.55L11.92,502.18L12.28,474.33L12.3,445.08L12.47,282.25L12.63,510.47L13.08,299.97L13.1,282.46L13.44,277.13L13.68,441.5L13.78,299.1L13.79,285.56L14.14,269.59L14.36,446.48L14.53,372.33L14.55,313.31L14.91,273.94L15.07,491.9L15.11,467.82L15.13,460.22L15.42,469.27L15.88,280.29L16,314.26L16.01,346.02L16.23,274.57L16.46,451.08L16.76,412.2L16.78,413.15L17.34,271.64L17.49,495.8L17.55,460.8L17.56,457.02L17.62,461.9L17.68,317.53L17.77,433.91L17.78,446.73L17.84,467.86L17.95,283.86L18.29,293.28L18.3,273.02L18.32,272.36L18.33,310.55L18.88,442.39L19,258.09L19.06,284.85L19.07,282.06L19.77,259.17L19.93,488.02L19.94,480.89L19.96,466.05L20.75,284.28L20.84,288.75L20.85,312.5L20.97,443.09L21.43,260.26L21.65,411.23L21.67,423.69L21.78,273.29L22.36,489.06L22.41,460.78L22.42,459.41L22.51,470.85L22.55,323.59L22.7,458.76L22.71,482.44L23.25,322.87L23.55,354.04L23.57,377.63L23.75,438.6L23.87,263.65L24.33,300.58L24.35,327.49L24.64,253.04L24.8,479L25.13,451.11L25.15,451.01L25.26,254.22L25.92,270.22L25.93,283.87L26.19,429.48L26.31,241.23L26.67,255.8L26.68,285.97L27.08,250.1L27.24,471.95L27.42,290.74L27.44,296.04L27.58,439.12L28.05,247.99L28.13,292.41L28.15,267.77L28.41,253.9L28.96,424.81L28.98,429.56L29.5,236.44L29.67,469.15L29.72,434.44L29.73,430.48L30.02,444.85L30.48,263.19L30.6,291.42L30.61,316.61L30.72,426.37L31.18,231.56L31.4,404.59L31.41,415.38L31.53,235.1L32.11,455.35L32.14,428.56L32.15,422.37L32.46,428.91L32.57,236.75L32.73,363.77L32.75,377.03L32.8,419.14L32.92,230.9L33.25,242.3L33.27,224.2L33.28,223.76L33.3,259.75L33.62,230.29L33.85,412.41L34.05,301.99L34.07,273.43L34.37,259.75L34.54,495.95L34.89,456.95L34.91,405.98L35.01,275.75L35.24,439.57L35.66,292.12L35.68,308.77L36.28,438.01L36.4,262.61L36.43,293.78L36.44,304.79L36.81,232.26L36.98,474.95L37.1,445.24L37.11,443.64L37.31,448.32L37.85,275.17L37.87,294.14L37.88,307.58L38.08,268.44L38.37,478.9L38.59,336.68L38.61,365.9L38.72,535.8L39.24,286.08L39.39,462.05L39.4,484.13L39.42,507.84L39.94,274.18L40.11,440.7L40.13,390.23L40.46,431.2L40.68,262.3L40.88,286.47L40.9,302.29L40.98,258.89L41.51,464.67L41.61,370.16L41.62,372.19L41.65,376.3L41.66,318.41L41.68,243.54L41.85,503.37L42.52,414.2L42.54,421.95L42.72,279.78L43.25,440.91L43.26,399.21L43.27,337.73L43.77,272.83L43.93,437.85L43.94,455.97L44.12,238.92L44.29,490.66L44.78,307.35L44.8,297.49L44.99,440.52L45.51,268.17L45.55,294.62L45.57,317.26L45.86,286.4L46.03,457.48L46.36,454.23L46.38,474.54L46.55,263.92L46.73,503.89L47.18,305.78L47.19,291.53L47.25,282.04L47.34,383.46L47.35,408.42L47.6,265.35L47.77,439.57L47.97,321.7L47.99,298.35L48.29,290.1L48.8,451.89L48.81,469.88L48.99,252.79L49.16,519.54L49.64,313.23L49.66,327.86L50.19,458.94L50.38,291.92L50.4,314.43L50.41,328.77L50.55,460.9L50.73,281.39L51.13,317.74L51.15,360.87L51.43,248.52L51.6,501.39L51.93,463.69L51.95,460.88L52.12,282.11L52.72,315.01L52.73,329.47L52.99,452.47L53.17,284.37L53.48,315.6L53.5,306.06L53.86,250.03L54.04,505.22L54.24,326.36L54.25,344.42L54.37,464.64L54.56,293.66L55.05,443.28L55.07,451.39L55.08,454.35L55.25,286.77L55.46,346.96L55.47,320.69L55.49,319.3L55.51,368.74L55.53,355.08L55.54,302.28L55.6,288.82L55.69,401.47L55.7,418.52L55.95,276.5L56.12,459.26L56.27,389.22L56.28,330.12L56.3,241.83L56.47,492.17L57.02,330.84L57.04,316.08L57.34,283.55L57.52,454.73L57.84,431.85L57.85,441.05L57.86,447.16L58.04,290.91L58.37,309.57L58.39,286.85L58.73,245.97L58.91,492.16L59.24,468.21L59.26,472.5L59.73,279.13L60.02,308.3L60.04,325.15L60.13,284.55L60.65,508.75L60.72,425.6L60.74,429.29L60.82,343.96L60.98,482.67L61,505.37L61.17,277.36L61.34,515.98L61.82,305.92L61.84,315.46L62.21,276.27L62.39,453.83L62.55,319.21L62.56,293.85L63.26,284.34L63.43,472.98L63.45,449.14L63.61,259.68L63.78,508.68L64.23,320.01L64.25,303.95L64.26,304.12L64.27,319.73L64.3,286.28L64.48,446.15L64.56,326.5L64.58,312.5L64.83,456.46L65.35,279.44L65.36,296.52L65.7,288.93L65.87,474.8L66.03,343.46L66.04,259.65L66.22,522.93L66.71,330.52L66.72,327.67L66.74,297.65L67.26,459.73L67.46,336.55L67.48,315.78L67.61,466.64L68.13,295.49L68.28,444.83L68.29,448.06L68.48,255.92L68.65,517.17L69.02,427.67L69.03,375.23L69.52,292.62L69.7,458.94L69.83,299.52L69.84,320.63L69.87,287.08L70.39,454.43L70.48,327.41L70.5,313.28L70.92,256.7L71.1,499.24L71.12,488.09L71.13,477.23L71.61,287.43L71.71,416.17L71.73,427.45L71.96,286.77L72.13,448.52L72.34,331.88L72.35,307.6L72.48,455.21L72.66,286.03L73.03,326.33L73.05,302.87L73.35,244.52L73.53,496.14L73.86,459.62L73.87,458.87L74.4,276.35L74.67,296.02L74.69,275.45L74.7,274.99L74.72,300.01L74.73,325.78L74.92,438.15L75.03,261.1L75.48,289.87L75.5,307.12L75.79,246.81L75.96,496.45L76.28,453.59L76.3,457.44L76.31,458.76L76.33,406.05L76.34,344.86L76.66,447.1L76.83,281.49L77.09,305.03L77.11,289.98L77.18,268.84L77.7,442.23L77.83,290.12L77.85,317.57L78.23,251.91L78.4,505.91L78.6,330.33L78.62,344.03L78.75,468.82L79.27,282.55L79.4,427.27L79.41,428.05L79.62,277.52L79.78,437.64L79.83,304.07L79.85,289.17L79.97,276.61L80.49,461.58L80.65,352.43L80.66,244.62L80.84,483.92L81.21,334.97L81.23,308.48L81.3,283.75L81.87,435.87L81.98,299.18L82,283.43L82.21,432.97L82.69,275.85L82.74,315.34L82.75,270.99L83.1,246.99L83.27,495.89L83.59,445.76L83.61,449.57L84.08,262.81L84.23,381.44L84.24,401.18L84.3,427.17L84.43,256.01L84.71,282.64L84.72,268.22L84.78,257.47L85.36,446.92L85.51,383.35L85.52,335.76L85.53,237.78L85.71,485.71L86.27,294.18L86.29,320.86L86.52,269.34L86.75,475.98L87.06,440.47L87.07,437.68L87.09,455.22L87.58,257.05L87.65,303.61L87.67,280.04L87.97,226.04L88.14,478.68L88.48,449.51L88.49,436.78L88.9,246.94L89.26,270.09L89.28,288.29L89.3,251.5L89.87,431.44L90.02,272.26L90.03,301.92L90.41,245.74L90.58,492.75L90.93,456.58L90.94,401.43L91.26,458.63L91.45,282.15L91.71,308.71L91.73,288.91L91.96,448.35L92.44,256.77L92.47,291.68L92.48,304.87L92.84,231.73L93.02,481.05L93.22,314.76L93.24,327.06L93.35,455.62L93.84,248.46L94.02,402.37L94.03,401.62L94.18,244.15L94.4,434.01L94.76,415.38L94.77,358.25L95.28,233.05L95.45,479.49L95.48,453.59L95.5,439.34L95.79,455.44L95.92,246.6L96.34,288.23L96.35,301.78L96.48,439.18L96.96,238.35L97.08,281L97.09,331.54L97.72,231.18L97.89,474.41L97.9,462.21L97.92,444.89L98.22,454.14L98.7,230.85L98.77,275.06L98.79,290.19L98.93,442.61L99.4,236.05L99.51,282.72L99.53,318.93L99.98,434.93L100.15,216.62L100.3,401.21L100.31,399.38L100.34,451.92L100.81,234.28L100.89,275.54L100.91,255.24L101.15,232.02L101.72,429.78L101.73,415.26L101.91,275.56L102.41,467.23L102.49,358.42L102.5,365.82L102.6,250.33L102.78,494.42L103.15,329.05L103.17,299.62L103.46,466.28L103.94,229.61L103.95,244L104.29,229.06L104.5,423.87L104.72,301.48L104.74,270.34L105.04,222.78L105.21,465.94L105.55,439.81L105.56,411.66L105.68,221.21L106.26,464.61L106.3,415.91L106.32,409.66L106.43,293.46L106.59,455.73L106.62,367.61L106.64,304.2L106.72,259.13L107.29,453.99L107.36,353.35L107.37,362.93L107.48,253.95L107.64,489.48L108.01,372.82L108.03,314.57L108.46,244.26L108.68,439.5L108.78,304.31L108.8,279.13L108.81,253.41L109.03,430.58L109.54,285.72L109.55,305.23L109.91,250.16L110.09,483L110.29,320.17L110.3,334.35L110.42,471.96L110.96,277L111.1,420.16L111.12,442.06L111.59,221.02L111.91,255.39L111.93,230.64L111.94,217.83L112.16,432.74L112.49,424.02L112.51,464L112.52,473.72L112.99,244.84L113.07,293.53L113.09,272.58L113.2,428.31L113.34,217.47L113.87,380.66L113.89,383.56L114.03,211.83L114.6,439.18L114.63,388.87L114.64,350.58L114.79,221.01L114.96,457.61L115.44,233.32L115.45,267.11L115.99,417.77L116.12,218.69L116.19,262.48L116.21,277.19L116.34,425.9L116.82,212.37L116.93,281.81L116.95,316.05L117.22,237.53L117.4,459.5L117.73,449.79L117.74,427.58L118.21,228.73L118.43,428.51L118.51,258.41L118.53,268.29L118.77,434.9L119.25,224.93L119.27,238.75L119.28,276.07L119.67,214.73L119.83,454.31L120.02,270.04L120.04,281.4L120.17,431.5L120.3,232.26L120.69,323.77L120.7,266.34L120.99,248.07L121.21,436.06L121.25,290.92L121.27,269.59L121.56,433.77L121.69,244.84L121.88,393.29L121.89,399.94L122.11,241.52L122.27,469.31L122.62,425.45L122.63,353.33L122.95,431.87L123.08,224.3L123.41,247.74L123.43,237.79L123.99,415.68L124.17,355.44L124.18,284.05L124.36,444.33L124.55,249.99L124.6,383.39L124.62,397.65L124.7,492.17L125.27,269.05L125.36,394.48L125.37,396.09L125.39,427.54L125.87,245.18L126.1,406.84L126.11,350.59L126.31,247.36L126.79,446.89L126.84,390.14L126.85,382.91L126.94,402.91L126.95,394.94L126.97,278.76L126.98,255.03L127.14,495.66L127.71,259.56L127.72,281.19L127.82,417.86L128.3,234.62L128.53,405.94L128.55,345.96L128.65,235.08L129.23,417.83L129.3,336.27L129.32,343.99L129.42,226L129.52,374.93L129.53,383.05L129.58,450.02L129.75,302.12L129.77,272.87L129.91,414.59L130.39,225.7L130.48,276.97L130.49,257.97L130.61,405.16L131.09,223.81L131.32,386.92L131.33,323.23L131.43,214.76L132.01,451.55L132.04,433.51L132.06,421.42L132.16,422.17L132.48,231.48L132.68,368.47L132.7,393.14L132.83,207.98L133.33,348.03L133.35,359.51L133.52,241.57L133.74,402.49L133.78,282.57L133.8,259.94L134.1,418.67L134.29,246.04L134.36,370.66L134.38,386.32L134.45,465.71L134.91,251.87L135.15,413.02L135.16,352.57L135.61,239.98L135.83,413.74L135.94,249.1L135.96,236.65L136.31,236.07L136.54,420.48L136.7,364.08L136.71,257.91L136.73,229.2L136.89,459.26L137.45,249.3L137.47,268.95L137.7,220.78L138.26,399.91L138.28,401.33L138.74,226.24L138.98,415.03L139.03,320.92L139.05,329.75L139.16,235.06L139.32,452.61L139.74,248.71L139.76,253.67L140.02,380.65L140.14,198.66L140.5,215.72L140.51,254.49L140.7,375.67L140.83,188.85L141.25,255.96L141.27,269.04L141.6,225.9L141.76,451.1L141.99,314.28L142.01,346.95L142.09,409.77L142.22,219.22L142.77,376.27L142.79,386.83L142.92,221.58L143.15,403.57L143.18,294.39L143.2,267.36L143.27,243.31L143.5,405.69L143.82,397.38L143.83,418.07L144.04,271.07L144.54,490.46L144.59,441.52L144.6,431.71L144.66,431.24L144.7,458.92L144.72,376.07L144.89,483.07L145.46,275.55L145.47,294.75L145.49,336.69L145.57,414.85L146.05,233.84L146.24,386.28L146.26,388.86L146.47,237.08L146.62,467.06L146.98,367.74L146.99,300.13L147.31,412.05L147.78,217.95L147.79,221.24L148.01,405.07L148.47,213.06L148.52,318.31L148.53,260.52L148.58,240.67L148.69,404.9L148.71,427.48L149.05,451.79L149.52,198.35L149.53,201.04L150.1,396.33L150.27,246.86L150.29,250.32L150.56,209.95L151.14,413.66L151.16,377.12L151.33,216.74L151.49,452.99L151.94,234.96L151.95,215.72L151.98,242.68L152,301.02L152.3,205.61L152.53,410.91L152.75,236.51L152.77,252.77L152.88,390.55L153,196.88L153.55,358.77L153.56,381.8L153.75,210.43L153.93,429.63L154.28,409.68L154.29,357.71L154.62,406.39L154.74,215.9L155.04,233.98L155.06,250.67L155.32,399.75L155.78,203.72L155.81,246.51L155.83,293.37L156.19,205.65L156.36,443.4L156.58,290.33L156.6,306.84L156.71,411.19L156.83,212.83L157.36,373.31L157.38,377.66L157.41,398.52L157.89,205.4L158.1,385.59L158.12,327L158.63,196.87L158.8,434.49L158.84,401.9L158.86,393.87L159.13,407.9L159.61,198.44L159.71,235.41L159.73,258.34L159.96,216.1L160.19,409.07L160.51,391.78L160.53,426.31L160.54,469.99L161.06,242.84L161.28,427.13L161.29,421.14L161.38,424.17L161.41,273.2L161.53,404.2L161.54,409.04L161.57,421.34L161.58,421.21L161.6,361.02L162.05,212.75L162.28,398.56L162.35,232.82L162.37,246.81L162.63,396.52L163.09,199.25L163.12,240.81L163.14,273.64L163.5,197.01L163.67,436.29L163.88,267.21L163.89,274.11L164.02,401.9L164.48,194.1L164.67,355.72L164.69,363.69L164.83,195.31L165.06,389.26L165.41,384.47L165.43,330.62L165.53,218.16L166.11,445.9L166.15,407.91L166.17,400.44L166.44,403.9L166.92,185.81L166.99,246.06L167.01,258.58L167.5,386.36L167.62,188.53L167.75,277.47L167.76,313.33L168.37,193.41L168.55,435.73L168.57,409.46L168.59,403.27L168.89,418.58L169.01,234.36L169.23,404.88L169.24,445.45L169.71,198.48L170.17,261.17L170.18,295.97L170.81,215.26L170.98,455.85L171,446.33L171.01,429.18L171.45,223.72L171.66,399.19L171.68,399.35L172.03,405.14L172.14,213.31L172.45,238.21L172.46,252.44L172.72,390.7L172.84,207.39L173.03,362.6L173.04,368.02L173.24,201.14L173.42,445.34L173.77,406.44L173.78,343.77L174.11,383.69L174.24,203.37L174.56,211.81L174.58,190L175.16,391.2L175.27,225.96L175.29,232.13L175.68,216.91L175.85,461.89L176.06,300.04L176.07,310.35L176.19,425.14L176.32,238.47L176.67,240.47L176.68,240.02L177.25,416.4L177.45,285.2L177.46,261.15L178.12,220.75L178.29,460.87L178.32,438.1L178.33,427.21L178.64,438.94L178.75,242.58L178.91,383.68L178.93,394.2L179.1,240.79L179.33,416.82L179.42,271.02L179.44,254.03L179.68,443.66L179.8,232.52L180.16,244.76L180.18,279.13L180.21,254.17L180.36,420.58L180.38,443.38L180.55,235.78L180.73,480.13L181.19,239.05L181.21,239.68L181.54,231.58L181.77,408.73L181.97,290.99L181.99,261.6L182.12,442.94L182.8,411.23L182.82,433.36L182.99,229.21L183.16,472.54L183.61,280.86L183.63,261.62L183.86,409.63L183.98,246.21L184.14,375.98L184.15,390.12L184.32,244.47L184.56,414.36L184.72,281.79L184.73,256.61L185.25,435.62L185.43,220.08L185.54,407.19L185.56,416.46L185.6,479.73L185.77,270.82L185.99,272.63L186.01,255.06L186.41,234.2L186.64,410.28L186.75,253.31L186.76,236.77L186.77,215.51L186.99,405.69L187.47,270.42L187.49,289.71L187.69,441.67L187.86,227.48L187.98,406.44L187.99,419.18L188.04,486.79L188.21,291.52L188.41,337.24L188.43,306.37L189.08,437.33L189.2,269.95L189.21,266.72L189.6,262.29L189.78,429.97L189.89,273.33L189.91,276.61L190.3,233.16L190.47,490.43L190.66,295.47L190.68,314.75L190.82,462.46L191.34,267.91L191.47,413.35L191.49,413.48L191.52,429.94L191.98,268.6L192,263.4L192.04,260.84L192.56,434.62L192.72,310.86L192.74,215.18L192.91,463.03L193.59,404.47L193.61,414.89L194.3,420.69L194.36,252.02L194.37,260.6L194.39,271.72L194.43,238.75L195,423.03L195.08,337.23L195.1,342.7L195.17,222.12L195.35,476.5L195.72,333.56L195.74,302.06L196.16,253.22L196.39,413.29L196.51,255.67L196.52,253.59L196.85,245.54L197.09,414.3L197.27,273.12L197.29,290.55L197.61,221.8L197.78,484.13L198.01,342.36L198.03,376.04L198.13,442.18L198.61,251.94L198.78,400.84L198.8,399.92L198.96,254.69L199.17,421.1L199.33,297.85L199.35,254.67L200.04,230.79L200.22,485.1L200.23,475.93L201.04,268.05L201.13,279.38L201.15,305.53L201.26,428.84L201.78,264.3L201.91,414.79L201.93,413.4L202.07,262.69L202.31,449.69L202.47,343.52L202.48,239.74L202.65,489.95L203.06,255.9L203.08,261.51L203.35,411.07L203.47,239.81L203.81,245.62L203.83,243.84L204.39,408.56L204.6,298.78L204.61,273.12L204.92,229.31L205.09,477.57L205.44,435L205.45,377.73L205.9,254.24L206.14,417.15L206.22,298.58L206.24,283.63L206.61,257.21L206.82,416.29L206.98,290.86L206.99,310.93L207.35,226.02L207.53,472.75L207.73,313.3L207.74,328.36L207.86,444.17L208.4,253.38L208.43,291.85L208.44,267.07L208.7,248.97L209.25,419.69L209.27,417.06L209.79,253.3L209.96,480.74L210.01,443.78L210.02,436.11L210.3,444.35L210.43,253.57L210.59,385.1L210.6,397.47L210.65,411.04L210.72,255.94L210.76,262.86L210.78,238.17L210.79,235.6L210.94,377.75L210.95,389.63L210.99,407.23L211.12,224.02L211.44,261.07L211.46,245.86L211.47,228.18L212.05,426.48L212.15,338.73L212.17,338.06L212.23,216.43L212.4,465.14L212.79,268.41L212.81,254.41L213.23,233.12L213.43,410.3L213.47,290.24L213.49,259.78L213.56,247.64L213.78,414.6L214.11,399.96L214.13,431.45L214.66,232.85L214.84,466.42L214.87,438.59L214.88,425.27L215.3,225.58L215.52,402.07L215.53,398.6L215.87,408.8L216,210.96L216.32,250.08L216.33,231.78L216.36,207.86L216.56,410.28L217.03,327.63L217.04,324.81L217.1,201.85L217.27,450.94L217.43,355.13L217.45,260.18L217.61,426.36L217.74,216.54L218.07,237.07L218.08,213.24L218.22,284.22L218.23,327.65L218.65,394.81L218.78,193.81L219,388.34L219.01,381.73L219.13,197.46L219.71,433.09L219.72,425.69L219.74,409.31L220.04,423.02L220.52,199.13L220.62,231.78L220.64,248.44L220.74,396.27L220.87,184.65L221.41,367.09L221.42,367.47L221.97,217.89L222.15,467.01L222.2,421.26L222.22,413.09L222.26,410.86L222.29,416.29L222.31,364.17L222.48,439.24L222.62,220.74L223.07,268.18L223.09,307.25L223.18,409.06L223.31,223.91L223.86,383.96L223.87,415.29L224.23,427.18L224.41,225.01L224.49,370.72L224.51,392.41L224.58,466.01L225.06,249.52L225.26,419.46L225.28,404.4L225.61,416.58L226.03,221.34L226.05,236.6L226.06,243.66L226.09,210L226.32,424.63L226.64,389.17L226.66,426.25L226.84,212.29L226.93,356.99L226.95,377.15L227.02,455.32L227.48,244.29L227.57,275.49L227.58,244.49L227.7,403.38L227.83,202.26L228.27,264.77L228.28,232.06L228.53,206.66L229.09,413.97L229.11,411.68L229.12,371.26L229.28,199.66L229.47,454.9L229.93,205.37L229.95,213.65L230.15,401.02L230.28,169.6L230.7,242.8L230.72,252.04L230.98,189.28L231.18,483.51L231.44,276.46L231.46,310.36L231.73,223.53L231.91,457.82L232.25,417.31L232.27,351.99L232.72,183.84L232.94,408.05L233.02,217.22L233.04,234.1L233.07,169.86L233.65,432.16L233.73,372.37L233.75,371.93L233.98,436.29L234.17,211.99L234.31,387.86L234.33,429.97L234.34,436.37L234.73,235.32L234.75,217.71L235.15,191.46L235.37,412.54L235.49,223.34L235.5,207.95L236.07,415.86L236.18,235.64L236.2,219.97L236.78,459.57L237.13,410.72L237.14,346.63L237.46,408.7L237.59,184.55L237.92,190.31L237.94,180.52L238.5,413.55L238.72,264.43L238.74,236.14L239.04,195.18L239.21,432.85L239.56,395.02L239.58,327.57L239.9,396.1L240.03,174.05L240.33,208.31L240.35,222.3L240.59,390.71L240.72,177.94L241.09,192.31L241.1,230.18L241.48,192.25L241.65,425.97L241.85,246.49L241.87,255.15L241.98,407.68L242.46,180.63L242.68,389.08L242.7,373.65L243.03,388.76L243.16,174.1L243.46,202.04L243.48,228.26L243.51,194.13L243.72,402.77L244.06,391.59L244.07,437.27L244.09,443.05L244.25,363.18L244.26,258.45L244.28,255.29L244.35,354.2L244.36,372.01L244.42,422.66L244.55,177.78L244.81,232.8L244.83,202.53L245.12,378.55L245.25,173.25L245.42,337L245.44,340.97L245.6,172.92L245.81,386.72L245.93,186.37L245.94,171.37L246.52,412.68L246.68,350.93L246.7,243.74L246.86,402.5L247.34,159.73L247.45,216.2L247.47,256.61L247.55,377.72L247.68,156.22L248.22,318.03L248.24,319.01L248.38,167.32L248.96,416.97L249,371.45L249.02,372.54L249.06,383.05L249.12,365.6L249.13,257.05L249.29,414.08L249.77,159.17L249.89,210.75L249.9,251.13L250.12,164.5L250.34,381.91L250.7,373.57L250.72,314.65L250.82,184.74L251.4,424.24L251.45,373.23L251.47,367.07L251.54,378.86L251.57,257.49L251.59,236.75L252.09,448.33L252.44,405.44L252.46,340.16L252.77,368.97L252.9,183.37L253.22,224.05L253.24,206.29L253.67,188.6L253.82,404.85L253.83,421.24L254.02,239.38L254.18,430.58L254.49,385.28L254.5,392.1L254.53,462.25L254.99,221.23L255.23,379.21L255.24,323.63L255.34,203.25L255.92,391.93L255.99,293.17L256.01,310.71L256.11,186.76L256.27,425.26L256.56,355.4L256.57,367.47L256.6,399L256.63,328.82L256.65,250.23L256.95,372.52L257.08,171.98L257.4,206.63L257.42,192.1L257.78,161.02L258.01,359.76L258.15,220.31L258.17,286.95L258.55,204.06L258.71,422.62L258.92,263.94L258.94,277.09L259.04,394.8L259.17,192.42L259.69,338.29L259.71,346.64L259.75,383.2L259.87,174.93L260.11,307.2L260.13,241.23L260.56,181.06L260.79,380.61L260.85,286.64L260.87,295.16L261.14,435.98L261.55,203.84L261.56,211.57L261.58,224.52L262.19,395.91L262.3,185.31L262.33,223.98L262.35,289.63L262.88,385.01L263,180.39L263.11,227.18L263.13,256.53L263.42,196.63L263.58,419.19L263.91,390.18L263.93,392.92L264.39,163.63L264.7,198.16L264.71,215.92L264.74,157.07L264.97,362.64L265.45,180.14L265.46,216.78L265.86,195.29L266.01,413.05L266.2,227.34L266.22,238.02L266.36,380.23L266.48,155.53L266.74,224.39L266.75,187.77L266.83,140.96L267.06,354.87L267.35,304.97L267.36,313.28L267.41,358.31L267.47,180.72L267.49,209.13L267.51,181.23L267.52,157.11L268.1,375.11L268.2,306.44L268.22,309.77L268.29,208.66L268.45,418.45L268.97,330.23L268.99,297.07L269.15,414.22L269.61,227.15L269.67,266.53L269.68,242.13L269.84,357.17L269.9,171.07L269.95,175.66L269.96,152.24L270.54,370.91L270.7,309.56L270.71,204.12L270.73,174.67L270.87,406.61L271.44,210.93L271.45,221.89L271.92,365.97L272.03,172.29L272.25,359.15L272.27,369.62L272.73,156.92L272.96,370.02L273.03,270.1L273.05,282.07L273.15,180.98L273.28,349.97L273.3,377.75L273.31,410.68L273.77,163L274.02,294.5L274.03,222.42L274.35,350.61L274.47,132.56L274.69,339.17L274.7,347.17L274.82,143.56L275.4,369.34L275.46,275.47L275.47,278.66L275.59,181.74L275.75,406.04L276.14,205.95L276.15,189.4L276.21,159.26L276.36,262.29L276.37,303.9L276.91,137.71L277.14,351.85L277.15,291.66L277.25,140.28L277.83,353.2L277.91,247.69L277.92,258.86L277.98,290.62L278.01,178.42L278.02,165.54L278.18,393.8L278.59,155.48L278.62,173.86L278.63,147.44L278.88,331.22L278.99,118.72L279.2,293.07L279.21,314.3L279.23,324.54L279.34,116.9L279.62,155.86L279.63,141.42L279.69,127.53L280.27,355.26L280.43,294.69L280.44,181.37L280.46,176.59L280.56,326.71L280.58,328.85L280.62,400.6L281.01,183.33L281.02,170.67L281.08,144.08L281.66,350.54L281.71,195.97L281.72,180.72L282.01,357.99L282.13,155.91L282.39,217.77L282.4,184.08L282.48,156.97L282.71,358.35L282.95,246.35L282.97,272.64L283.06,401.14L283.52,174.22L283.75,343.66L283.77,277.85L283.87,144.14L284.1,342.1L284.52,204.4L284.53,218.42L284.66,185.27L284.8,402.83L285.07,348.8L285.09,365.59L285.32,200.04L285.49,423.98L285.65,343.11L285.67,227.48L285.72,254.43L285.74,286.14L285.84,381.08L286.3,146.64L286.49,305.43L286.51,310.06L286.54,342.02L286.65,134.89L287.23,326.22L287.25,269.45L287.35,133.47L287.93,383.09L287.99,339.32L288,333.78L288.28,347.32L288.74,133.33L288.84,160.66L288.86,183.11L288.97,331.67L289.09,123.44L289.62,289.72L289.64,292.54L289.78,129.28L290.36,382.37L290.41,346.46L290.42,339.29L290.83,119.05L290.99,264.02L291,276.43L291.18,122.1L291.41,326.67L291.44,191.41L291.45,160.63L291.52,123.79L291.76,327.15L292.03,277.99L292.05,297.16L292.16,173.14L292.45,389.69L292.61,258.01L292.63,174.06L292.8,439.61L293.5,390.82L293.51,332.17L293.61,204.62L294.19,392.43L294.28,260.52L294.29,241.56L294.54,387.92L294.66,218.51L294.87,384.63L294.89,408.08L295.06,190.07L295.24,438.85L295.67,260.17L295.69,247.56L296.05,215.42L296.28,455.33L296.35,393.13L296.37,390.85L296.43,397.46L296.44,339.95L296.59,407.14L297.11,205.49L297.21,242.42L297.22,275.05L297.5,170.17L297.67,447.37L298.02,420.11L298.04,360.04L298.37,384.75L298.49,177.75L298.8,211.84L298.82,187.83L298.83,164.69L299.41,364.14L299.54,200.06L299.56,231.06L299.59,210.65L299.66,268.75L299.67,298.2L299.94,188.97L300.11,431.51L300.46,400.82L300.47,339.82L300.92,192.36L301.15,384.19L301.24,233.06L301.26,221.66L301.5,377.73L301.62,196.33L301.98,219L302,244.12L302.2,397.51L302.37,203.94L302.49,369.09L302.5,383.08L302.55,448.32L302.71,313.14L302.72,232.76L302.89,413.4L303.36,195.4L303.4,229.61L303.42,208.39L303.59,381.45L304.05,180.25L304.21,324.7L304.23,338.93L304.4,179.69L304.63,384.15L304.78,316.58L304.79,246.8L304.81,179.65L304.98,426.75L305.53,256.35L305.55,229.43L306.14,180.99L306.37,402.15L306.39,374.73L306.55,204.09L307.07,404.06L307.16,308.22L307.17,314.48L307.24,182.37L307.38,365.51L307.39,372.88L307.42,431.05L307.88,180.65L308.12,368.77L308.13,310.86L308.23,180.97L308.81,375.35L308.88,223.79L308.9,243.5L309.28,197.89L309.51,396.62L309.61,317.81L309.62,321.68L309.68,188.93L309.86,451.56L310.01,321.55L310.03,235.36L310.2,409.89L310.73,216.82L310.75,251.47L310.77,223.18L311.07,213.58L311.25,382.95L311.57,362.23L311.58,370.09L311.71,213.62L311.94,400.01L312.09,318.99L312.1,263.4L312.12,182.53L312.29,439.61L312.86,214.08L312.87,240.65L313.1,188.05L313.68,385.68L313.7,328.56L314.16,206.1L314.38,398.12L314.45,318.3L314.47,327.71L314.55,200.21L315.08,464.76L315.22,358.93L315.24,331.93L315.42,410.68L315.6,227.93L316,253.05L316.02,287.01L316.12,383.02L316.64,207.62L316.79,354.15L316.8,369.11L316.99,193.44L317.16,452.61L317.53,369.6L317.54,303.58L317.63,224.51L317.86,398.25L318.31,259.21L318.32,249.74L318.38,238.02L318.56,402.57L318.67,238.2L318.69,233.83L319.25,413.64L319.41,277.57L319.43,187.15L319.6,451.12L320.28,387.65L320.3,396.81L320.76,224.66L320.99,401.4L321.07,261.92L321.08,275.43L321.52,228.85L321.69,410.02L321.79,323.26L321.81,325.62L321.86,192.44L322.04,454.2L322.41,298.77L322.43,267.27L322.73,402.27L322.85,221.81L323.2,225.53L323.21,225.99L323.43,391.1L323.91,214.77L323.94,257.63L323.95,219L324.3,182.37L324.47,442.42L324.63,324.38L324.65,229.99L324.82,407.83L325,197.46L325.26,244.48L325.27,223.47L325.52,374.16L325.65,199.69L325.85,367.36L325.87,374.89L325.98,199.03L326.56,416.32L326.62,319.04L326.63,324.06L326.74,208.21L326.91,454.27L327.29,286.93L327.3,251.64L327.61,383.25L327.72,206.63L327.9,373.19L327.91,376.52L327.95,392.7L327.97,333.64L328.08,213.68L328.3,392.34L328.72,225.09L328.74,245.45L329.17,200.04L329.33,420.83L329.35,453.97L329.82,204.74L330.23,245.69L330.25,257.75L330.39,386.63L330.91,208.56L330.97,251.2L330.99,290.56L331.61,176.45L331.78,448.85L331.8,435.28L332.59,184.1L332.65,201.13L332.67,220.46L332.83,384.51L332.94,193.53L333.49,354.22L333.51,359.8L334.05,180.75L334.22,436.56L334.26,397.21L334.28,387.84L334.55,416.14L334.74,217.13L334.9,386.42L334.92,386.15L335.03,213.2L335.25,391.42L335.68,229.61L335.7,242.56L336.08,205.91L336.31,397.31L336.41,307.62L336.42,309.51L336.48,177.38L336.66,444L336.81,341.52L336.83,234.55L336.99,406.09L337.47,181.61L337.51,238.5L337.53,197.38L337.82,171.43L337.87,415.52L338.35,369.48L338.37,370.44L338.92,206.05L339.09,457.41L339.15,409.86L339.16,404.7L339.19,405.15L339.25,349.41L339.27,249.37L339.43,420.17L339.9,191.06L339.95,244.4L339.96,214.88L340.14,380.48L340.27,182.97L340.69,241.07L340.7,210.92L340.95,205.51L341.53,452.34L341.59,408.59L341.6,400.91L341.62,400.55L341.63,404.54L341.67,402.88L341.69,350.3L341.86,418.27L341.99,213.1L342.44,232.01L342.46,254.36L342.56,392.95L343.04,210.79L343.25,389.34L343.27,381.55L343.79,176.48L343.96,436.4L344.02,380.22L344.04,371.84L344.11,376.04L344.12,322.25L344.14,217.59L344.3,398.47L344.76,179.69L344.78,159.57L345.34,367.45L345.41,192.27L345.43,200.18L345.82,171.88L346.05,379.91L346.2,304.36L346.21,259.89L346.4,422.71L346.87,161.25L346.97,189.08L346.98,211.22L347.08,367.41L347.56,140.72L347.78,356.36L347.79,343.78L347.91,142.87L348.49,373.07L348.55,259.06L348.56,264.95L348.66,166.95L348.84,424.67L349.2,319.14L349.21,249.64L349.52,381.12L350,154.43L350.01,154.78L350.03,192.88L350.22,371.4L350.35,155.82L350.78,220.54L350.8,184.26L351.1,150.68L351.27,395.54L351.43,285.84L351.45,207.96L351.46,205.34L351.59,357.41L351.61,384.24L351.74,161.7L352.4,214.6L352.42,196.65L352.78,173.15L353,376.96L353.14,198.31L353.16,233.72L353.19,216.88L353.71,436.62L354.06,396.04L354.07,326.97L354.52,167.62L354.74,373.81L354.84,206.45L354.86,193.54L355.44,376.23L355.57,162.71L355.6,205.24L355.61,221.99L355.97,162.17L356.16,404.14L356.35,216.03L356.36,230.77L356.49,405.13L356.9,183.97L356.92,164.35L357.19,374.33L357.34,134.16L357.6,194.23L357.61,181.47L357.67,156.01L357.89,367.34L358,173.54L358.02,153.74L358.6,408.02L358.93,396.92L358.95,376.72L359.41,138.55L359.71,171.73L359.73,188.05L359.76,136.55L360.32,371L360.47,175.31L360.48,208.86L360.51,192.29L361.03,419.34L361.37,407.14L361.38,381.32L362.19,164.32L362.21,174.75L362.76,382.85L362.89,148.5L362.96,203.64L362.98,219.21L363.3,160.08L363.47,408.45L363.7,251.36L363.72,274.71L363.8,394.82L364.28,137.93L364.47,312.3L364.49,319.56L364.63,126.59L365.21,399.29L365.24,350.92L365.25,331.93L365.54,407.82L365.73,199.74L365.83,335.02L365.85,349.17L365.92,418.21L366.37,154.12L366.46,217.84L366.47,188.43L366.59,375.51L367.07,161.24L367.15,226.32L367.17,191.63L367.28,374.3L367.76,156.14L367.99,360.16L368.01,319.4L368.17,159.45L368.34,390.86L368.79,164.72L368.81,141.61L369.16,139.57L369.37,362.46L369.56,182.92L369.58,194.17L370.07,383.93L370.2,159.03L370.43,364.73L370.45,329.38L370.62,159.19L370.78,408.51L371.23,162.21L371.24,136.92L371.46,350.21L371.5,186.48L371.52,156.76L371.81,339.82L371.94,108.55L372.29,117.78L372.3,124.28L372.64,123.1L372.85,348.8L373.03,263.75L373.04,147.71L373.06,146.78L373.09,178.64L373.1,224.49L373.22,402.35L373.68,134.04L373.87,305.42L373.88,311.46L373.9,353.83L374.38,114.74L374.61,333.17L374.62,263.67L374.72,122.08L375.3,352.94L375.36,230.97L375.38,237.03L375.48,151.52L375.65,392.48L376.09,196.81L376.1,172.86L376.12,161.47L376.33,355.86L376.62,298.26L376.64,308.31L376.81,185L377.04,371.8L377.25,215.8L377.26,193.64L377.93,174.82L378.09,413.59L378.12,387.53L378.13,373.09L378.42,410.8L378.65,196.3L378.73,344.31L378.74,352.56L378.77,399.23L378.84,273.89L378.94,350.54L378.96,255.92L379.13,447.43L379.7,174.65L379.71,193.74L379.73,228.17L380.37,156.75L380.52,406.85L380.54,398.08L381.09,181.72L381.35,302.71L381.37,324.02L381.57,436.85L382.03,178.91L382.08,281.34L382.09,228.18L382.61,370L382.8,148.94L382.85,206.09L382.86,239.05L382.96,390.63L383.43,168.17L383.64,355.33L383.66,356.48L383.99,362.35L384.12,159.58L384.43,174.12L384.44,196.8L384.47,161.2L385.05,367.38L385.12,273.42L385.14,279.15L385.17,279.02L385.19,304.87L385.21,299.16L385.22,198.65L385.4,408.08L385.86,160.57L385.93,215.49L385.95,228.13L386.08,349.98L386.56,141.25L386.69,219.22L386.7,258.5L386.79,339.64L387.25,117.92L387.34,190.3L387.36,150.25L387.67,138.45L387.83,371.51L388.18,355.91L388.2,290.21L388.65,133.67L388.88,342.79L388.95,158.32L388.97,176.41L389.34,122.83L389.57,336.36L389.7,143.6L389.72,181.78L390.11,148.81L390.27,384.64L390.47,203.98L390.49,210.08L390.6,351.01L391.08,145.95L391.3,329.92L391.31,336.04L391.43,135L392.08,169.37L392.1,192.29L392.13,149.31L392.71,389.6L392.78,351.6L392.79,352.59L392.87,343.71L392.88,237.72L393.05,361L393.52,152.25L393.63,199.65L393.65,241.96L393.75,348.28L394.21,141.72L394.43,333.72L394.45,342.03L394.56,154.84L395.14,400.74L395.19,368.46L395.2,363.31L395.48,367.3L395.59,164.51L395.61,143.48L395.96,133.95L396.19,334.65L396.27,176.76L396.29,153.45L396.65,115.01L396.88,323.82L397.01,144.8L397.03,182.3L397.42,168.17L397.56,389.35L397.78,219.71L397.8,236.38L397.91,358.54L398.38,130.7L398.57,295.19L398.58,297.35L398.73,149.64L399.31,341.96L399.32,287.46L399.33,222.91L399.65,356.89L399.84,151.09L399.97,325.55L399.99,353.66L400,388.39L400.47,155.48L400.71,272.53L400.73,203.38L400.81,122.3L401.05,334.02L401.48,166.14L401.5,142.62L401.51,128.84L402.09,345.93L402.15,269.33L402.16,272.3L402.28,170.39L402.44,396.88L402.95,346.31L402.96,263.36L403.13,385.72L403.7,196.84L403.71,207.76L403.73,238.02L403.83,339.06L404.05,144.06L404.51,313.44L404.53,339.45L404.87,377.13L405.34,134.09L405.35,140.24L405.69,137.01L405.92,341.65L406.09,184.71L406.11,189.16L406.38,160.48L406.96,357.72L406.98,320.49L407.14,163.36L407.31,393.51L407.75,204.27L407.76,187.76L408.06,156.32L408.35,339.15L408.49,187.66L408.5,210.64L408.7,338.03L408.82,126.24L409.22,170.3L409.24,178.78L409.57,143.24L409.75,380.09L410.09,341.84L410.11,278.61L410.21,131.13L410.44,337.15L410.86,149.35L410.88,162.57L410.91,122.42L411.49,323.31L411.62,154.12L411.63,188.94L412.01,151.54L412.18,394.5L412.4,241.55L412.42,259.62L412.53,367.58L413,142.51L413.18,306.64L413.2,308.16L413.23,332.24L413.69,129.79L413.92,323.58L413.94,262.26L414.45,130.99L414.62,377.02L414.68,334.41L414.69,326.95L414.76,340.68L414.78,287.36L414.79,186.78L414.97,356.49L415.01,175.18L415.03,167.73L415.32,335.56L415.43,138.04L415.75,185.21L415.77,166.26L416.36,338.36L416.48,145.54L416.5,187.16L416.52,213.46L416.88,166.21L417.06,386.76L417.26,207.87L417.27,215.63L417.4,344.96L417.87,143.49L417.94,189.02L417.96,185.97L418.16,158.03L418.45,345.79L418.69,220.92L418.71,251.7L418.8,407.63L419.32,176.31L419.51,393.24L419.52,382.07L419.84,386.53L420.03,187.3L420.13,298.86L420.14,305.69L420.19,341.81L420.2,281.28L420.65,129.1L420.88,314.97L420.97,165.27L420.99,137.49L421.35,116.82L421.58,327.74L421.74,204.87L421.75,126.66L422.28,378L422.39,186.44L422.41,189.54L422.45,189.45L422.97,368.76L423.18,244.34L423.19,221.78L423.32,426.5L423.79,195.67L423.97,341.32L423.99,346.75L424.19,169L424.37,425.4L424.71,384.42L424.73,321.18L425.06,360.5L425.47,181.78L425.48,185.95L425.5,200.67L425.76,355.02L426.22,155.78L426.25,189.73L426.26,185.86L426.63,128.99L426.79,354.36L426.8,389.49L426.92,390.05L427.32,195.46L427.43,310.43L427.44,323.75L427.56,195.86L427.85,360.54L427.96,195.92L427.98,201.44L428.19,353.28L428.66,171.79L428.7,191.26L428.72,176.09L429.06,138.93L429.24,409.71L429.54,361.53L429.56,360.64L429.57,371.45L430.05,154.15L430.14,210.14L430.15,177.57L430.28,343.26L430.4,157.9L430.83,214.5L430.85,180.72L431.5,139.47L431.67,403.35L431.69,387.67L431.7,376.77L432.14,159.19L432.56,204.32L432.57,217.1L433.07,343.17L433.18,161.7L433.3,211.95L433.31,246.38L433.94,168.85L434.11,435.04L434.14,407.53L434.15,396.69L434.44,401.02L434.57,180.09L434.78,346.74L434.79,361.7L434.82,301.69L434.84,236.58L434.92,156.08L435.15,357.04L435.6,185.34L435.62,176.16L435.97,169.11L436.2,372.89L436.34,307.67L436.36,246.63L436.37,163.49L436.55,417.3L437.11,196.57L437.13,211.67L437.36,182.03L437.59,362.8L437.92,357.42L437.94,367.39L438.46,199.9L438.64,386.56L438.69,284.8L438.71,290.02L438.81,167.68L438.98,425.13L439.37,249.3L439.39,226.78L439.45,204.16L440.03,377.55L440.04,316.95L440.06,253.42L440.14,198.44L440.72,393.25L440.81,253.42L440.83,230.84L441.07,418.52L441.25,186.96L441.39,390.39L441.41,411.34L441.42,446.12L441.59,236.96L442.14,369.32L442.16,346.17L442.46,400.51L442.99,201.74L443,222L443.02,249.16L443.51,393.97L443.68,188.81L443.75,285.21L443.77,318.14L443.86,425.3L444.32,180.55L444.52,345.45L444.54,353.51L444.67,177.86L444.9,380.1L445.25,368.65L445.26,310.09L445.36,184.46L445.94,398.64L446,289.51L446.02,289.94L446.12,179.46L446.28,397.39L446.29,436.71L446.76,206.43L446.96,350.96L446.97,362.87L447.34,379.92L447.39,216.69L447.44,217.51L447.45,204.86L447.58,270.77L447.6,301.15L447.68,374.16L448.15,184.96L448.35,330.89L448.37,345.36L448.55,197.68L448.73,429.54L449.09,327.05L449.11,262.97L449.43,361.32L449.54,203.57L449.87,220.62L449.89,208.16L450.12,360.27L450.25,198.18L450.5,249.12L450.51,221.44L450.82,383.87L450.99,178.38L451.09,348.22L451.11,364.12L451.17,438.79L451.63,205.74L451.72,249.21L451.73,225.98L451.86,369.46L452.33,204.33L452.56,362.26L452.57,311.11L453.02,192.02L453.25,398.79L453.31,289.75L453.33,292.18L453.43,186.21L453.6,429.28L453.96,331.49L453.98,269.06L454.41,209.11L454.65,372.46L454.73,244.14L454.75,226.9L455.34,374.06L455.46,198.48L455.49,221.74L455.5,237.08L455.86,179.73L456.04,430.58L456.15,363.39L456.17,364.72L456.18,365.05L456.2,320.68L456.37,388.86L456.85,174.72L456.95,204.26L456.97,220.95L457.43,376.3L457.56,194.87L457.75,363.47L457.76,371.47L457.78,374.88L457.81,261.02L457.82,230.19L458.13,396.42L458.3,179.42L458.42,377.15L458.43,386.18L458.47,445.55L458.65,245.47L458.84,352.97L458.85,287.23L459.16,378.09L459.63,180.16L459.65,183.43L459.66,202.15L459.85,362.88L460,192.14L460.42,242.57L460.43,214.69L460.74,180.86L460.91,438.37L461.26,381.32L461.27,323.12L461.59,365.88L461.72,193.73L462.04,217.03L462.06,203L462.65,352.2L462.77,182.56L462.8,219.02L462.81,244.48L463.17,174.9L463.35,428.14L463.55,243.44L463.56,256.57L463.68,386.5L464.16,179.9L464.25,235.27L464.26,210.76L464.39,354.38L464.86,174.02L464.94,227.33L464.96,201.91L465.2,169.66L465.78,430.99L465.8,417.62L465.81,395.97L466.6,138.78L466.71,189.9L466.73,228.49L466.83,331.11L467.29,117.16L467.49,297.91L467.51,312.97L467.52,312.48L467.54,259.08L467.58,164.65L468.22,426.02L468.26,384.16L468.28,376.83L468.55,396.44L469.05,193.54L469.15,223.65L469.16,263.01L469.25,359.99L469.67,172.99L469.95,351.74L469.96,342.11L470.48,170.65L470.66,422.84L470.7,379.27L470.71,370.89L470.83,226.49L470.92,343.52L470.93,362.98L470.99,405.42L471.41,183.01L471.44,200.93L471.45,185.01L471.69,346.87L472.16,159.68L472.19,187.35L472.21,216.39L472.74,369.02L472.92,146.01L472.96,211.58L472.98,234.25L473.09,398.22L473.56,132.41L473.77,348.49L473.79,342.05L474.25,152.99L474.47,355.65L474.56,169.7L474.57,188.06L474.6,146.51L474.82,350.26L475.14,318.31L475.15,321.53L475.36,149.65L475.53,399.77L475.88,359.92L475.89,295.01L475.99,132.25L476.21,352.74L476.67,158.6L476.69,132.38L477.25,337.83L477.37,190.69L477.39,177.82L477.97,424.54L478.13,342.53L478.14,255.3L478.3,410.27L478.43,202.58L478.71,207.27L478.72,188.39L479.13,168.67L479.34,374.92L479.39,229.55L479.4,194.31L479.69,370.97L479.82,155.95L480.02,320.99L480.04,356.04L480.11,234.84L480.21,238L480.23,155.58L480.4,401.25L481.08,338.2L481.1,320.38L481.43,349.51L481.56,132.3L481.87,144.95L481.88,164.83L482.13,338.37L482.26,115.64L482.46,304.05L482.48,346.76L482.66,140.77L482.85,380.77L483.11,293.24L483.13,310.6L483.19,375.22L483.66,125.42L483.9,337.62L483.91,286.54L484.36,148.98L484.58,343.2L484.69,162.46L484.71,148.75L485.29,399.33L485.45,304.94L485.46,212.33L485.62,389.34L485.75,149.71L486,265.15L486.01,193.55L486.1,124.43L486.32,343.22L486.65,325.97L486.67,363L486.8,136.89L487.36,375.38L487.38,373.15L487.73,405.47L488.19,143.28L488.2,153.84L488.76,351.54L488.89,129L488.97,205.06L488.99,174.13L489.23,125.47L489.45,351.27L489.81,335.83L489.83,295.03L489.99,137.59L490.16,379.56L490.61,143.64L490.63,121.92L490.97,121.13L491.19,340.49L491.22,248.71L491.24,174.38L491.34,100.57L491.89,337.11L492,125.13L492.02,109.54L492.6,378.22L492.9,329.14L492.92,333.3L492.93,360.73L493,158.82L493.64,340.78L493.66,285.99L494.11,165.11L494.32,356.16L494.41,183.31L494.43,201.96L494.86,162.33L495.03,396.81L495.09,342.28L495.11,334.86L495.18,336.36L495.21,197.56L495.32,326.68L495.34,334.95L495.37,374.78L495.5,122.47L495.75,269.97L495.76,194.12L496.06,348.05L496.19,118.07L496.51,172.36L496.53,143.91L496.89,115.26L497.11,347.86L497.22,235.73L497.24,234.16L497.3,149.35L497.47,377.51L497.73,288.03L497.75,310.47L497.8,367.31L497.94,116.12L498.37,199.19L498.38,166.07L498.5,341.5L498.98,114.68L499.07,190.44L499.08,154.6L499.33,111.82L499.54,330.15L499.72,268.8L499.73,160.85L499.75,153.07L499.91,378.26L500.02,332.26L500.04,334.2L500.24,372.1L500.47,197.47L500.62,268.69L500.63,194.8L500.72,128.53L500.94,339.28L501.27,302.76L501.29,326.53L501.42,133.2L501.63,338.18L501.69,170L501.71,153.47L501.76,138.43L502.34,389.44L502.5,320.47L502.52,206.56L502.68,359.95L502.75,145.78L503.27,196.9L503.29,230.21L503.5,174.81L504.07,364.49L504.08,353.65L504.62,176.79L504.78,391.4L504.81,364.78L504.82,347.52L505.11,384.7L505.35,184.29L505.45,316.82L505.46,357.61L505.59,177.06L505.8,323.04L505.81,364.63L505.82,364.95L505.84,320.06L506.01,225.17L506.17,424.6L506.59,244.12L506.61,247.79L507.06,166.7L507.22,402.57L507.27,352.63L507.29,347.43L507.33,342.86L507.36,356.52L507.38,339.47L507.55,363.84L508.03,164.33L508.14,181.27L508.16,211.79L508.45,206.82L508.61,415.03L508.94,371.66L508.96,368.87L509.49,173.6L509.65,401.78L509.71,366.49L509.73,361.46L509.8,367.38L509.81,353.44L509.83,239.52L509.99,372.92L510.47,134.76L510.58,162.11L510.6,195.38L511.16,141.76L511.38,324.36L511.39,322.6L511.51,130.62L512.09,369.71L512.12,344.76L512.13,338.6L512.28,188.89L512.41,308.19L512.42,335.12L512.55,117.35L512.76,279.87L512.77,310.42L512.79,312.15L512.8,246.44L512.9,98.81L513.12,308.85L513.55,133.3L513.57,148.22L513.6,99.86L514.18,322.36L514.29,217.14L514.31,222.95L514.37,119.82L514.53,355.75L514.98,142.71L514.99,96.71L515.22,308.8L515.34,92.36L515.67,104.6L515.69,86.61L516.27,315.53L516.37,130.37L516.38,114.01L516.96,373.71L517.14,221.98L517.15,196.95L517.31,343.7L517.34,192.06L517.35,153.01L517.66,317.34L517.77,101.38L517.98,280.37L517.99,311.87L518.01,320.18L518.12,91.32L518.38,164.6L518.4,134.25L518.82,87.05L519.05,317.31L519.21,244.11L519.22,149.73L519.4,347.48L519.86,113.53L519.94,182L519.95,186.8L520.21,90.39L520.44,299.81L520.69,185.23L520.7,221.57L520.91,120.98L521.49,329.68L521.5,301.41L521.52,262.88L521.83,355.03L522.3,109.63L522.31,116.18L522.33,136.38L522.65,89.41L522.88,312.93L523.08,170.62L523.1,131.97L523.34,94.15L523.92,326.99L523.94,303.9L523.95,271.19L524.11,157.89L524.27,358.64L524.6,336.88L524.62,365.4L524.97,365.5L525.43,181.82L525.45,190.61L525.66,318.25L525.78,112.94L526.19,199.53L526.2,189.88L526.55,154.25L526.69,385.76L527.04,353.76L527.06,295.52L527.52,152.18L527.74,346.39L527.82,191.82L527.84,169.01L528.09,330.61L528.55,104.98L528.58,152.74L528.59,209.93L528.97,138.23L529.13,372.11L529.26,321.93L529.27,325.72L529.48,335.08L529.94,130.58L530.06,170.25L530.07,194.56L530.64,122.64L530.87,340.21L530.88,280.45L530.99,159.97L531.57,387.29L531.59,365.5L531.61,358.67L532.04,139.68L532.23,303.55L532.25,323.66L532.26,333.33L532.73,111.77L532.81,186.47L532.83,146.15L533.42,112.88L533.65,330L533.67,300.49L533.68,262.19L534,364.75L534.47,92.24L534.5,129.53L534.51,195.65L534.7,308.8L535.16,97.55L535.26,141.35L535.28,154.4L535.86,115.26L536.09,326.77L536.11,295.3L536.26,148.4L536.44,382.66L536.89,159.47L536.9,146.29L537.13,334.87L537.19,153.56L537.21,149.72L537.25,131.94L537.48,335.99L537.93,142.33L537.95,119.77L537.96,115.88L538.16,314.8L538.18,330.4L538.29,110.99L538.87,369.83L538.93,321.18L538.95,309.01L539.22,332.61L539.34,114.69L539.56,312.01L539.57,320.01L539.69,95.82L539.92,328.15L540.34,166.77L540.35,182.51L540.38,167.93L540.6,347.74L540.62,397.55L540.77,343.71L540.79,247.35L540.96,376.71L541.14,160.65L541.41,313.6L541.43,312.47L541.46,315.71L541.47,279.2L541.49,166.64L541.66,327.95L541.78,83.27L541.86,155.29L541.88,117.95L542.12,74.22L542.7,320.26L542.72,260.26L542.82,119.43L543.4,336.93L543.47,237.07L543.49,242.83L543.57,143.48L543.75,382.1L544.11,273.36L544.12,193.96L544.56,120.06L544.79,329.53L544.89,141.38L544.91,124.91L545.14,324.55L545.26,109.95L545.5,243.79L545.52,167.31L545.6,105.52L546.18,369.56L546.21,342.18L546.23,333.88L546.65,136.95L546.88,350.64L546.98,274.65L547,272.24L547.03,281.04L547.04,250.23L547.05,167.49L547.23,318.88L547.26,161.44L547.27,127.88L547.29,110.62L547.58,318.73L547.85,260.29L547.87,272.2L548.45,134.57L548.62,373.26L548.66,342.21L548.68,334.11L548.97,353.48L549.08,141.8L549.24,274.93L549.26,292.61L549.32,331.39L549.43,111.99L549.71,158.55L549.72,140.18L549.75,160.28L549.78,126.98L549.81,155.91L549.82,177.6L550.01,329.4L550.13,134.53L550.33,313.07L550.35,353.79L550.36,400.13L550.88,168.04L551.1,371.24L551.11,365.59L551.52,155.08L551.72,305.32L551.74,328.95L551.75,337.62L552.22,115.89L552.3,187.49L552.32,151.17L552.91,106.45L553.15,337.48L553.16,307.36L553.17,272.52L553.49,389.44L553.96,141.27L553.99,167.97L554,186.03L554.19,341.16L554.31,128.86L554.45,251.14L554.46,276.18L554.54,334.86L554.65,125.25L555.09,221.71L555.1,181.79L555.35,145.67L555.58,345.33L555.74,221.55L555.76,152.16L555.93,386.5L556.39,148.99L556.58,293.66L556.6,297.21L556.63,327.48L556.74,146.15L557.32,326.98L557.34,273.31L557.44,147.07L558.02,347.86L558.09,251.37L558.1,260.68L558.16,281.36L558.18,217.16L558.19,150.34L558.37,391.47L558.82,162.02L558.83,148.4L559.06,324.16L559.18,144.54L559.51,153.46L559.53,138.08L559.76,334.24L560.31,204.62L560.32,162.45L560.63,148.63L560.8,395.43L561.15,346.9L561.16,288.21L561.61,151.84L561.85,326.97L561.93,190.16L561.95,173.79L561.96,165.59L562.19,358.17L562.51,323.05L562.53,335.78L563.06,167.91L563.24,406.23L563.3,360.37L563.31,351.2L563.33,349.15L563.35,364.02L563.38,357.01L563.4,277.3L563.59,366.57L564.07,161.62L564.15,177.58L564.17,197.93L564.28,344.18L564.75,150.92L564.95,304.15L564.96,314.77L565.1,166.26L565.33,364.23L565.49,225.4L565.5,153.55L565.68,396.25L566.14,141.85L566.24,167.72L566.26,182.18L566.49,139.09L566.72,336.04L567.05,330.32L567.07,342.07L567.18,167.93L567.76,375.42L567.82,267.56L567.84,275.03L567.94,168.39L568.11,408.1L568.55,243.7L568.56,230.08L568.59,218.41L568.81,373.32L569.08,337.36L569.1,348.49L569.16,411.62L569.56,224.64L569.72,249.1L569.74,264.37L570.2,397.75L570.37,180.37L570.53,394.91L570.55,432.79L571.01,235.26L571.23,357.82L571.24,374.19L571.36,221.09L571.94,379.59L572.01,248.39L572.03,265.45L572.35,212.93L572.64,385.2L572.72,307.42L572.74,304.23L572.81,188.98L572.98,427.11L573.14,326.9L573.16,237.32L573.33,393.43L573.85,217.16L573.88,251.6L573.9,225.43L574.38,367.03L574.49,195.74L574.72,365.53L574.74,315.73L575.25,180.44L575.42,425.92L575.46,390.69L575.48,381.94L575.77,387.52L576.23,188.39L576.33,218.9L576.35,233.44L576.6,207.51L576.81,380.8L577.13,370.52L577.15,380.76L577.68,202.06L577.86,450.52L577.9,406.7L577.92,394.22L578.21,403.17L578.67,215.34L578.79,236.28L578.8,270.31L579.03,212.4L579.25,368.93L579.57,348.23L579.58,355.55L579.71,221.64L579.95,401.55L580.1,290.51L580.12,203L580.29,436.62L580.66,340.14L580.67,277.88L581.34,371.54L581.45,215.94L581.47,219.36L581.69,375.67L581.8,216.77L582.24,269.81L582.25,239.38L582.56,200.1L582.73,455.34L583.08,397.3L583.09,338.64L583.43,379.63L583.54,201.3L583.86,245.07L583.88,225.35L584.12,363.82L584.59,193.35L584.62,221.88L584.63,242.43L584.99,184.6L585.17,433.25L585.37,272.91L585.38,278.18L585.5,392.36L585.63,212.39L586.02,254.06L586.04,220.46L586.21,374.38L586.69,208.9L586.86,362.3L586.88,361.58L587.02,214.24L587.25,391.37L587.41,275.35L587.43,205.07L587.6,430.69L588.15,253.39L588.17,228.92L588.3,368.02L588.41,197.31L588.99,367.71L589.01,311.96L589.46,179.65L589.69,380.89L589.76,273.84L589.78,284.95L589.86,180.12L590.04,422.49L590.4,324.33L590.42,255.13L590.74,352.23L590.85,146.42L591.18,164.71L591.2,145.11L591.43,346.7L591.81,218.7L591.82,187.25L591.9,160.88L592.13,362.88L592.4,325.7L592.42,340.9L592.48,414.3L592.94,191.63L593.17,350.46L593.19,302.13L593.52,360.16L593.64,171.59L593.95,215.64L593.97,195.65L594.33,155.25L594.56,363.4L594.68,272.59L594.69,275.27L594.74,165.35L595.26,428.43L595.42,335.52L595.43,242.12L595.59,382.29L595.62,313.28L595.64,239.25L596.07,142.09L596.3,343.62L596.41,159.62L596.42,142.25L597,372.31L597.16,255.74L597.17,165.15L597.35,399.43L597.78,193.9L597.8,171.22L597.81,157.33L598.38,347.67L598.52,174.79L598.54,196.75L599.07,351.25L599.2,162.31L599.29,231.49L599.31,196.49L599.61,174.72L599.78,412.79L600.13,376.61L600.15,310.53L600.47,354.15L600.6,142.62L600.9,157.09L600.92,176.64L601.51,334.13L601.64,131.13L601.67,174.17L601.68,206.74L602.05,150.22L602.22,400.53L602.31,341.47L602.32,336.17L602.35,341.63L602.38,295.33L602.39,214.04L602.55,376.98L602.68,149.65L602.96,173.97L602.97,156.35L603.03,137.21L603.19,286.6L603.21,302.31L603.25,350.16L603.73,134.61L603.83,175.54L603.85,184.39L604.08,146.29L604.66,388.45L604.67,375.68L605.47,109.07L605.59,169.51L605.6,201.65L605.76,137.56L606.03,358.39L606.38,341.45L606.4,329.39L606.51,147.48L607.09,402.55L607.14,371.71L607.15,364.54L607.27,222.47L607.41,361.75L607.43,405.56L607.44,409.18L607.63,226.27L607.8,287.53L607.82,212.32L608.25,130.48L608.47,336.85L608.57,176.97L608.59,155.64L608.95,126.39L609.17,341.17L609.28,232.73L609.3,235.92L609.36,131.94L609.54,373.99L609.98,200.87L609.99,175.42L610.23,336.3L610.36,115.98L610.56,303.42L610.57,340.18L611.05,94.07L611.2,220.2L611.21,245.06L611.4,100.43L611.98,373.89L612.02,337.41L612.04,326.27L612.31,358.46L612.44,124.58L612.65,296.84L612.66,337.34L612.79,107.98L613.01,339.35L613.34,292.65L613.36,334.27L613.49,102.77L614.05,343.71L614.07,346.26L614.24,163.6L614.75,402.31L614.82,336.95L614.84,332.16L614.91,343.04L614.92,309.17L614.94,223.38L615.1,360.69L615.58,104.48L615.71,198.66L615.72,237.56L615.79,335.92L616.27,89.87L616.36,186.69L616.38,148.84L616.68,138.65L616.85,367.76L617.01,283.64L617.03,190.7L617.19,349.73L617.32,106.28L617.59,144.45L617.61,136.73L617.67,110.41L617.88,331.63L617.94,155.33L617.96,144.53L618.23,324.55L618.36,84.87L618.68,138.69L618.7,106.38L618.71,85.01L619.29,362.74L619.33,330.26L619.35,321.21L619.62,343.54L619.75,84.07L619.96,278.47L619.97,321.11L620.1,85.33L620.32,321.55L620.6,211.69L620.61,234.74L620.8,79.13L621.36,326.51L621.39,289.52L621.41,248.15L621.73,361.47L622.19,77.64L622.2,88.94L622.22,121.44L622.41,315.48L622.89,66.6L622.97,158.99L622.99,119.38L623.1,315.3L623.23,70.05L623.67,199.39L623.68,153.45L623.99,140.54L624.16,381.75L624.35,194.94L624.37,201.06L624.38,200.89L624.39,210.96L624.41,233.56L624.5,360.26L624.97,82.94L625.16,259.55L625.18,273.04L625.19,320.23L625.67,61.16L625.9,283.36L625.92,210.65L626.02,70.96L626.6,337.62L626.64,307.69L626.66,302.14L626.93,337.51L627.06,81.69L627.54,155.59L627.56,191.22L627.76,66.64L628.32,307.41L628.34,298.84L628.35,233.73L628.46,76L629.04,336.13L629.06,321.59L629.08,309.67L629.37,340.64L629.85,88.79L629.98,164.61L629.99,199.3L630.07,314.13L630.2,90.59L630.78,303.66L630.79,245.59L630.89,116L631.47,365.22L631.53,306.11L631.54,300.52L631.57,300.19L631.62,317.63L631.63,305.83L631.65,203.16L631.81,347.82L631.94,141.88L632.4,176.16L632.41,200.99L632.63,153.95L633.21,406.53L633.26,380.02L633.27,373.77L633.56,388.19L633.75,192.98L633.88,333.44L633.89,379.46L633.91,395.87L634.37,185.8L634.43,224.92L634.44,215.22L634.47,186.67L634.6,351.58L634.71,189.28L634.72,173.48L635.17,173.39L635.3,358.38L635.47,252.65L635.49,224.48L635.65,402.88L636.19,189.85L636.2,194.21L636.21,193.52L636.34,377.07L636.55,185.17L636.72,199.16L636.74,172.53L636.81,126.82L637.04,345.54L637.48,189.01L637.49,190.68L637.74,336.99L637.85,152.99L638.23,206.43L638.24,245.03L638.3,192.5L638.78,409.52L638.9,373.12L638.91,381.05L638.97,235.92L639.1,343.09L639.11,369.09L639.13,369.37L639.14,306.67L639.48,337.8L639.94,125.21L639.96,132.76L640.52,323.9L640.72,196.12L640.74,159.21L641.06,150.13L641.22,365.11L641.57,345.16L641.58,290.88L641.91,349.43L642.03,150.17L642.33,171.51L642.35,189.53L642.38,165.93L642.96,354.83L643.09,200.15L643.1,223.52L643.49,192L643.65,406.9L643.84,219.58L643.86,231.03L644,383.02L644.47,159.96L644.55,211.56L644.57,181.27L644.7,361.5L644.81,160.35L645.39,349.42L645.41,296.1L645.51,172.48L646.09,409.98L646.13,380.79L646.15,373.27L646.44,373.95L646.9,173.31L647.02,196.87L647.03,230.54L647.13,351.02L647.6,134.96L647.83,330.39L647.84,268.62L647.95,141.6L648.53,392.62L648.54,385.65L648.56,378.98L648.72,224.45L648.87,399.47L649.19,327.16L649.21,357.16L649.22,391.99L649.79,172.88L649.93,268L649.95,194.48L650.27,324.59L650.38,87.94L650.69,198.09L650.7,205.47L650.72,204.81L650.75,216.58L650.76,248.97L650.8,134.79L650.96,354L651.33,271.29L651.34,193.06L651.43,112.74L651.66,314.59L652.09,166.17L652.11,140.05L652.12,114.22L652.7,306.58L652.83,163.17L652.85,193.95L653.24,170.22L653.38,380.18L653.6,203.75L653.62,208.62L653.73,327.25L653.86,117.29L654.43,315.73L654.44,253.83L654.78,316.99L654.89,102.18L655.21,163.39L655.23,132.51L655.24,113.41L655.82,350.93L655.86,332L655.88,329.48L656.63,78.57L656.76,148.7L656.78,187.61L656.98,81.19L657.56,301.89L657.58,234.67L657.69,83.48L658.26,362.75L658.3,343.6L658.32,334.96L659.07,68.59L659.2,147.7L659.21,189.13L659.77,72.65L660,303.22L660.01,231.51L660.11,76.43L660.69,359.34L660.72,341.81L660.74,334.49L661.51,100.11L661.64,179.71L661.65,212.67L661.85,95.68L662.43,324.48L662.45,259.85L662.55,89.91L663.13,354.95L663.19,317.48L663.2,303.94L663.28,310.65L663.59,65.34L663.81,255.5L663.83,279.66L663.94,65.85L664.52,286.54L664.6,129.89L664.61,147.47L664.64,129.58L664.87,361.25L665.2,332.3L665.22,354.84L665.58,364.27L665.99,119.88L666.03,125.83L666.05,133.08L666.38,105.47L666.61,308.15L666.81,189.69L666.83,155.08L666.96,328.68L667.07,123.39L667.52,161.33L667.54,166.97L667.83,147.7L668,375.33L668.35,342.52L668.37,279.32L668.7,320.65L668.82,111.98L669.13,153.48L669.15,126.74L669.4,309.94L669.86,93.06L669.89,135.44L669.9,180.47L669.96,121.76L670.44,359.41L670.57,316.66L670.58,317.84L670.79,328.99L670.9,120.81L671.35,160.89L671.37,167.89L671.48,323.01L671.6,113.01L672.15,291.45L672.17,305.79L672.3,136.16L672.88,387.09L672.93,349.26L672.95,343.72L673.22,350.06L673.34,159.31L673.56,322.75L673.57,332.46L674.04,131.44L674.27,352.73L674.31,297.09L674.33,284.85L674.62,337.19L674.73,160.37L674.94,291.43L674.95,321.27L675.14,161.69L675.31,386.17L675.67,274.87L675.69,206.3L676.01,314.99L676.47,70.77L676.49,79.98L676.7,296.45L676.82,68.01L677.26,179.86L677.27,141.17L677.4,320.07L677.56,205.58L677.57,117.6L677.75,371.13L678.11,258.9L678.13,182.7L678.21,107.15L678.79,315.11L678.89,143.04L678.91,131.7L679.14,309.6L679.2,124.13L679.23,135.77L679.24,106.4L679.26,89.17L679.49,290.31L679.79,266.57L679.81,272.54L680.01,130.47L680.19,370.24L680.55,286.14L680.56,212.04L680.88,323.46L681.35,122.37L681.36,125.8L681.37,152.67L681.58,318.66L681.69,114.49L682.01,137.6L682.03,113.72L682.04,99.69L682.61,333.67L682.62,373.55L682.72,326.87L682.77,334.55L682.78,268.79L682.97,339.77L683.43,103.88L683.55,162.98L683.56,193.15L683.67,315.7L683.78,111.19L684.36,315.25L684.38,255.29L684.48,124.68L685.06,384.58L685.1,343.8L685.12,331.36L685.52,101.97L685.99,167.01L686,202.75L686.22,153.59L686.45,359.22L686.78,341.17L686.8,356.85L687.32,148.11L687.49,376.6L687.55,339.95L687.57,328.78L687.84,328.89L687.96,160.82L688.12,275L688.13,290.12L688.31,138.45L688.54,329.29L688.57,207.07L688.58,173.94L688.89,321.93L689,118.61L689.21,268.81L689.22,282.32L689.29,137.3L689.93,377.11L689.99,337.53L690,332.97L690.39,118.27L690.61,300.79L690.63,315.45L691.09,91.68L691.4,117.63L691.41,134.32L691.44,94.58L692.02,322.9L692.12,225.84L692.13,227.72L692.19,129.07L692.37,368.37L692.53,267.62L692.54,187.37L692.71,342.15L692.83,150.58L693.12,167.07L693.14,166.57L693.41,337.09L693.53,155.38L693.9,194.93L693.92,205.17L694.46,343.45L694.63,141.9L694.67,201.32L694.69,222.94L694.8,389.39L695.27,165.09L695.48,325.26L695.5,340.43L695.62,145.24L696.2,343.65L696.27,210.14L696.28,229.81L696.31,202.48L696.54,397.08L696.88,361.56L696.89,392.4L697.07,181.17L697.24,419.2L697.73,222.53L697.75,223.32L697.94,373.99L698.4,196.56L698.5,206.72L698.52,216.05L698.63,361.51L698.75,178.39L699.3,330.4L699.31,349.05L699.5,179.61L699.68,411.13L700.04,316.94L700.05,252.21L700.37,358.6L700.49,193.54L700.82,203.76L700.84,187.21L701.07,346.4L701.18,167.33L701.45,217.72L701.46,187.55L701.53,157.17L702.1,362.8L702.11,401.15L702.58,175.41L702.72,274.72L702.74,297.63L702.81,340.19L703.27,151.85L703.5,339.82L703.52,282.22L703.97,147.03L704.2,358.71L704.27,238.78L704.29,247.68L704.37,149.25L704.55,398.83L704.94,184.66L704.95,162.24L704.98,174.04L705,155.6L705.01,138.78L705.24,314.54L705.29,174.96L705.3,157.68L705.36,147.57L705.45,211.66L705.48,189.37L705.49,221.63L706.06,152.5L706.29,345.6L706.3,287.02L706.81,167.37L706.99,404.86L707.01,375.69L707.03,363.64L707.33,368.53L707.45,187.18L707.91,214.08L707.93,248.9L708.03,347.1L708.15,172.24L708.7,317.29L708.71,325.05L709.25,175.53L709.42,419.48L709.51,364.17L709.52,365.82L709.57,367.16L709.58,321.2L709.77,372.75L710.23,168.3L710.35,203.07L710.36,240.07L710.93,168.69L711.16,349.31L711.18,299.64L711.68,172.1L711.86,413.6L711.9,370.26L711.92,362.12L712.21,372.26L712.32,157.5L712.79,188.89L712.8,221.81L712.9,338.27L713.37,144.86L713.6,336.28L713.61,280.61L713.71,154.91L714.29,406.45L714.32,376.83L714.34,368.41L715.11,119.38L715.24,193.48L715.25,225.27L715.34,323.1L715.45,111.79L716.03,318.3L716.05,261.74L716.15,148.52L716.73,409.76L716.77,369.89L716.79,359.63L717.19,131.43L717.66,190.72L717.67,224.47L717.89,164.41L718.47,347.68L718.49,292.47L718.59,174.02L719.17,421.11L719.21,381.98L719.23,375.38L719.5,383.01L719.63,169.38L719.83,317.67L719.85,333L719.86,338.28L720.27,162.47L720.3,186.99L720.31,170.52L720.33,158.75L720.56,334.55L720.83,286.25L720.85,300.64L721.02,164.67L721.26,362.15L721.41,260.68L721.43,181.57L721.6,407.62L722.07,174.35L722.24,308.22L722.26,316.13L722.42,168.47L722.65,376.17L722.81,293.99L722.82,209.03L722.98,355.47L723.05,171.73L723.08,190.42L723.1,168.67L723.11,152.52L723.69,355.96L723.78,264.74L723.79,269.87L723.87,173.21L723.97,313.98L723.98,327.13L724.04,401.61L724.21,224.05L724.42,234.97L724.43,202.38L724.72,343.85L724.85,152.62L725.06,301.31L725.07,324.4L725.08,327.07L725.14,162.51L725.19,165.1L725.2,151.42L725.42,335.05L725.53,150.24L725.55,133.73L725.9,119.14L726.13,334.13L726.29,228.17L726.3,151.4L726.48,378.87L726.93,148.61L726.94,129.3L727.16,322.67L727.29,100.78L727.55,164.57L727.56,130.93L727.64,85.4L727.87,295.59L728.14,239.35L728.16,255.66L728.33,121.88L728.91,370.21L728.97,331.11L728.99,324.86L729.25,343.19L729.38,120.43L729.58,274.46L729.59,309.25L729.72,107.86L729.88,246.14L729.9,262.6L730.29,320.88L730.42,127.49L730.65,312.58L730.67,250.26L730.77,117.6L731.35,374.8L731.39,357.94L731.41,358.44L731.49,360.2L731.81,154.12L732,281.04L732.02,282.19L732.03,319.48L732.51,89.06L732.74,285.45L732.76,225.53L732.86,86.57L733.44,318.13L733.51,206.73L733.52,221.35L733.58,249.1L733.6,205.94L733.61,134.24L733.79,367.9L734.16,195.05L734.18,162.92L734.25,120.25L734.47,322.63L734.8,296.85L734.82,350.09L734.83,364.07L735.29,108.67L735.53,303.03L735.54,239.75L735.64,120.67L736.24,368.24L736.27,341.32L736.28,330.54L736.57,339.74L737.05,93.84L737.16,156.19L737.18,188.55L737.74,74.06L737.96,310.5L737.98,297.16L738.09,95.67L738.67,371.83L738.72,341.63L738.73,334.86L739.01,358.45L739.14,112.52L739.34,286.03L739.35,326.53L739.83,94.04L740.01,257.54L740.02,268.25L740.18,88L740.4,323.24L740.44,189.85L740.46,154.27L740.53,95.3L741.09,335.82L741.11,346.09L741.92,106.2L742.02,168.48L742.04,177.69L742.15,337.58L742.62,103.15L742.83,314.65L742.85,301.19L742.97,107.4L743.55,351.68L743.59,327.95L743.6,321.54L743.7,282.55L743.72,201.64L743.81,270.89L743.82,288.6L743.88,348.42L744.01,120.16L744.28,150.47L744.3,132.88L744.58,319.21L744.71,96.27L744.97,165.69L744.98,136.25L745.05,94.3L745.27,309.24L745.6,265.23L745.62,320.24L745.63,320.69L745.65,288.54L745.66,247.41L745.81,132.53L745.98,364.95L746.3,315.41L746.32,360.31L747.14,95.94L747.16,110.05L747.17,139.83L747.36,323.3L747.84,91.16L747.93,175.38L747.94,145.23L748.24,144.06L748.42,371.39L748.77,344.16L748.78,279.59L749.1,338.14L749.58,80.25L749.59,87.57L749.8,322.71L749.93,69.89L750.36,171.93L750.38,135.5L750.68,134.6L750.85,359.95L751.01,283.93L751.03,184.85L751.1,210.53L751.12,237.93L751.19,336.36L751.67,77.19L751.88,298.05L751.9,279.6L752.01,63.42L752.23,299.24L752.67,112.57L752.68,128.59L752.71,93.97L752.94,304.42L753.26,266.4L753.28,328.64L753.29,344.46L753.75,68.99L753.99,289.54L754,220.13L754.32,286.75L754.45,56.34L754.76,142.39L754.77,157.49L755.15,90.5L755.38,303.25L755.5,203.34L755.51,216.84L755.73,340.45L756.18,86.12L756.19,70.31L756.76,308.16L756.87,112.19L756.89,94.24L757.47,313.3L757.67,208.47L757.69,178.76L758,177.33L758.16,401.39L758.51,348.06L758.53,282.73L759.21,333.86L759.27,160.89L759.29,188L759.31,166.67L759.32,149.16L759.56,327.11L760.03,175.19L760.05,204.62L760.12,161.56L760.6,382.16L760.8,214.27L760.82,213.71L760.93,352.52L761.06,126.71L761.35,152.63L761.37,148.33L761.41,119.27L761.99,328.41L762.17,209.57L762.18,198.16L762.56,166.09L762.69,349.55L762.85,300.98L762.86,202.34L763.04,383.18L763.5,133.05L763.63,165.77L763.65,193.96L763.73,296.02L764.2,95.83L764.43,290.96L764.44,233.27L764.54,96.21L765.12,310.7L765.18,209.37L765.2,212L765.47,346.26L765.86,134.04L765.88,117.92L765.94,86.5L765.97,130.35L765.98,203.08L766.28,71.38L766.52,281.02L766.75,123.49L766.76,148.49L766.98,79.1L767.56,289.98L767.58,261.45L767.59,222.37L767.92,321.63L768.37,80.76L768.39,92.77L768.4,127.83L768.61,290.83L768.72,88.16L769.14,161.47L769.16,165.81L769.65,274.12L769.77,84.58L769.9,145.41L769.91,174.6L770.19,123.73L770.35,327.85L770.69,298.02L770.71,231.63L770.81,75.75L771.04,295.55L771.46,98.25L771.48,114.51L771.51,68.95L771.74,281.49L772.22,86.23L772.23,130.7L772.78,342.29L772.98,178.52L773,171.34L773.13,297.62L773.25,73.29L773.49,213.62L773.51,147.45L773.94,59.88L774.17,269.31L774.29,62.08L774.3,74.7L774.64,60.16L774.87,285.37L775.04,146.27L775.06,121.43L775.22,331.93L775.68,54.75L775.78,91.83L775.8,97.74L775.91,262.91L776.03,46.44L776.58,208.87L776.6,238.08L776.73,63.63L777.31,286.12L777.34,233.65L777.35,218.92L777.65,353.31L778.12,114.17L778.15,151.17L778.16,219.39L778.7,297.56L778.81,98.99L778.93,134.55L778.95,165.14L779.05,300.94L779.51,70.7L779.71,223.44L779.73,252.91L779.93,123.2L780.08,332.42L780.44,239.54L780.45,164.12L780.54,92.59L780.77,297.8L781.22,113.48L781.24,111.19L781.25,108.24L781.44,261.74L781.45,282.57L781.47,293.53L781.58,70.99L781.86,116.11L781.87,100.82L781.9,122.6L781.92,98.49L781.93,83.64L782.51,333.79L782.69,186.24L782.7,170.71L782.86,333.09L783.06,220.55L783.08,188.83L783.21,315.84L783.77,138.75L783.8,168.24L783.82,198.92L784.37,97.31L784.6,316.1L784.62,282.92L784.95,336.71L785.41,67.18L785.43,80.65L785.65,259.79L786.11,58.3L786.18,131.99L786.2,133.38L786.46,72.94L786.69,267.01L786.94,138.87L786.95,165.88L787.23,101.61L787.39,319.39L787.73,290.58L787.75,228.02L788.2,81.05L788.43,274.29L788.5,104.29L788.52,122.8L788.55,85.44L789.13,277.84L789.26,113.79L789.27,152.96L789.65,121.78L789.82,333.9L790.01,166.68L790.03,167.63L790.17,291.53L790.63,44.16L790.78,145.16L790.79,167.05L790.98,77.6L791.21,273L791.42,142.57L791.43,102.75L791.68,92.37L791.91,296.57L792.07,217.63L792.08,115.34L792.26,320.46L792.62,215.7L792.64,138.26L792.95,260.04L793.07,47.47L793.4,72.9L793.42,62.05L794,287.81L794.2,163.74L794.22,130.65L794.52,128.06L794.69,353.78L795.04,335.77L795.06,280.02L795.39,303.19L795.51,105.96L795.81,135.33L795.83,154.26L796.44,301.55L796.55,82.47L796.58,133.24L796.59,175.7L796.96,111.79L797.13,338.12L797.26,287.6L797.28,290.23L797.48,293.6L797.94,86.33L798.06,98.35L798.07,123.57L798.29,68.41L798.87,366.69L798.93,358.94L798.94,352.15L799.02,360.47L799.05,237.93L799.06,234.55L799.09,232.86L799.22,367.29L799.38,250.69L799.39,159.66L799.57,359.92L799.93,246.78L799.94,170.97L800.26,286.29L800.38,66.56L800.73,86.02L800.74,92.45L801.31,337.78L801.51,155.1L801.53,142.31L801.83,100.92L802,328.25L802.18,156.23L802.19,159.65L802.35,308.2L802.4,147.21L802.41,129.43L802.7,291.02L802.82,95.81L802.98,216.06L802.99,231.49L803.05,285.02L803.51,80.58L803.74,274.13L803.76,224.38L803.86,121.74L804.44,352.6L804.48,335.43L804.5,335.56L804.61,194.78L804.77,351.29L804.79,396.45L805.6,130.07L805.73,182.82L805.75,217.67L806.3,121.72L806.53,328.05L806.54,301.87L806.88,359.89L807.34,125.92L807.36,135.26L807.37,156.42L807.44,149.04L807.57,306.35L807.62,158.13L807.63,144.49L807.66,160L807.69,124.12L807.75,148.52L807.76,167.43L807.79,131.9L807.92,304.74L807.95,174.17L807.96,142.08L808.27,290.97L808.38,90.57L808.59,261.71L808.6,281.82L808.73,115.49L808.97,328.27L809.12,187.38L809.14,120.51L809.31,356.4L809.78,66.86L809.86,137.56L809.88,97.56L810.01,278.78L810.13,53.33L810.71,269.54L810.72,216.13L810.82,92.97L811.4,321.33L811.46,227.92L811.47,226.62L811.58,138.54L811.75,358.23L811.91,259.84L811.92,188.42L812.1,314.71L812.21,113.73L812.55,121.51L812.56,106.81L812.79,302.58L813.17,181.18L813.19,152.22L813.26,126.29L813.82,297L813.84,324.98L814.01,133.9L814.19,360.87L814.62,209.91L814.64,199.94L814.88,343.41L815.35,160.14L815.4,169.33L815.42,185L815.58,312.66L816.04,125.37L816.13,177.94L816.14,148.46L816.27,328.4L816.43,194.68L816.45,129.37L816.62,372.33L817.27,284.24L817.29,288.35L817.32,313.97L817.78,129.93L818.01,310.23L818.03,261.73L818.48,114.06L818.71,323.28L818.78,221.13L818.8,227.4L818.86,259.13L818.87,208.55L818.88,134.54L819.06,360.56L819.49,164.1L819.51,142.36L819.52,128.1L820.1,313.57L820.23,148.35L820.25,173.13L820.45,335.78L820.91,160.96L821,195.03L821.02,163.19L821.32,137.91L821.5,373.58L821.84,342.71L821.86,280.59L822.19,327.43L822.31,142.63L822.61,171.75L822.63,184.63L822.66,149.01L823.24,333.33L823.35,211.21L823.37,222.08L823.76,197.73L823.93,401.31L824.13,244.91L824.15,249.52L824.28,360.11L824.74,172.61L824.83,213.87L824.85,179.76L824.98,345.19L825.67,334.14L825.69,285.46L826.19,164.97L826.37,401.52L826.41,369.35L826.43,360.37L826.54,209.46L826.72,370.2L827.25,230.05L827.27,245.81L827.41,365.66L827.93,194.54L828.01,243.07L828.02,272.73L828.63,170.58L828.8,404.65L828.85,369.42L828.86,358.94L829.15,363.43L829.33,198.68L829.44,310.04L829.46,313.04L829.5,338.15L829.56,198.71L829.57,199.15L829.67,187.73L829.85,342.71L830.3,199.67L830.31,190.71L830.54,341.07L830.57,243.62L830.59,217.5L830.89,369.63L831.07,170.47L831.23,365.95L831.24,406.64L831.76,201.49L831.91,318.24L831.92,327.36L832.05,186.98L832.28,350.49L832.63,332.3L832.65,280.71L832.85,181.99L833.33,362.7L833.4,263.27L833.42,269.17L833.5,160.82L833.66,361.77L833.68,404.16L834.2,194.46L834.56,223.68L834.58,237.34L834.72,350.87L835.24,189.27L835.32,244.08L835.33,273.61L835.94,179.32L836.11,411.8L836.13,401.09L836.14,385.17L836.98,197.5L837.04,221.35L837.06,260.09L837.16,350.59L837.62,160.75L837.82,316.07L837.84,326.6L837.97,148.31L838.55,389.83L838.59,355.54L838.61,347.22L838.9,354.95L839.36,171.1L839.48,202.05L839.49,234.71L839.59,329.64L840.06,136.7L840.26,296.65L840.28,306.46L840.41,148.97L840.99,383.77L841.04,341.66L841.06,339.6L841.1,356.94L841.45,176.78L841.7,296.31L841.71,246.54L842.03,343.58L842.49,150.71L842.52,174.45L842.54,200.36L842.84,140.19L843.07,344.31L843.28,194.31L843.29,203.32L843.42,386.75L843.89,147.05L843.94,173.64L843.96,186.69L844.23,154.48L844.47,321.93L844.67,213.79L844.68,192.19L844.81,322.07L844.93,159.41L845.37,211.97L845.38,184.74L845.68,161.94L845.86,390.81L846.21,338.28L846.22,281.36L846.67,152.4L846.9,330.29L847,173.46L847.02,157.39L847.25,315.69L847.37,129.51L847.63,196.81L847.64,176.91L847.72,150.04L847.93,315.2L847.95,333.48L848.12,153.54L848.3,382.84L848.74,191.91L848.76,178.43L848.98,322.52L849.09,172.76L849.11,155.98L849.69,358.07L849.89,203.48L849.9,200.87L850.15,190.81L850.38,354.61L850.54,244.54L850.56,167.76L850.73,383.78L851.38,302.76L851.4,303.48L851.54,157.2L851.76,332.86L852.12,321.82L852.14,272.59L852.18,176.02L852.82,356.96L852.88,263.15L852.89,272.86L852.99,175.66L853.17,402.71L853.53,295.64L853.55,237.65L853.63,174.59L854.2,344.96L854.31,195.07L854.33,179.75L854.68,171.83L854.89,336.53L855.01,187.85L855.02,177.17L855.43,174.95L855.6,396.78L855.81,243.39L855.82,245.51L855.94,365.38L856.36,168.78L856.4,169.92L856.42,155.48L856.63,331.88L856.76,154.51L857.08,172.96L857.1,152.42L857.46,139.22L857.69,336.97L857.77,245.17L857.78,246.94L857.87,156.36L857.98,293.79L858,304.71L858.04,384.18L858.5,116.07L858.52,119.72L858.85,100.48L859.07,306.04L859.29,177.05L859.3,143.52L859.55,120.59L859.77,307.89L859.88,149.87L859.9,135.25L860.3,129.59L860.48,357.3L860.69,201.86L860.71,211.38L860.81,338.29L861.29,117.58L861.48,272.5L861.49,278.33L861.64,127.2L861.87,333.51L862.23,263.44L862.25,205.94L862.74,132.61L862.93,356.47L862.94,345.71L862.96,333.44L863.74,115.31L863.84,144.3L863.86,157.61L864.31,322.49L864.44,130.99L864.65,311.05L864.67,297.99L864.78,110.06L865.36,356.05L865.41,319.44L865.42,312.54L865.51,304.34L865.52,261.08L865.7,337.71L866.18,115.11L866.29,161.21L866.31,191.98L866.39,322.22L866.87,107.72L867.09,306.48L867.1,288.57L867.22,85.07L867.8,335.78L867.83,314.18L867.84,306.74L868.13,307.05L868.26,60.85L868.74,157.08L868.76,187.23L868.96,79.02L869.19,319.58L869.54,312.41L869.56,256.98L869.66,137.33L870.24,354.36L870.28,323.85L870.3,318.26L870.57,338.97L870.7,73.24L871.17,163.2L871.18,189.1L871.61,324.5L871.75,124.92L871.96,318.48L871.98,303.72L872.09,101.82L872.67,353.45L872.73,289.61L872.75,285.46L873.01,309.16L873.14,72.94L873.34,250.46L873.36,299.23L873.49,96.63L873.72,345.12L874.02,290.03L874.04,296.49L874.05,335.25L874.18,114.64L874.78,299.21L874.79,259.33L875.11,363.72L875.57,90.36L875.6,125.62L875.62,176.62L875.79,311.25L876.27,72.65L876.39,120.1L876.4,149.37L876.62,56.1L877.2,311.13L877.21,278.53L877.23,242.8L877.55,365.79L878.01,80.15L878.04,117.62L878.05,181.66L878.36,58.42L878.58,301.23L878.82,111.1L878.84,141.73L879.05,73.28L879.63,298L879.65,266.11L879.98,345.19L880.45,58.77L880.46,62.32L880.66,268.7L880.79,28.26L881.2,113.37L881.22,119.8L881.24,79.55L881.35,210.02L881.36,256.95L881.49,47.18L882,168.05L882.01,185.73L882.24,116.9L882.42,320.64L882.62,167.05L882.64,167.6L882.75,298.95L882.88,69.33L883.14,151.95L883.16,122.73L883.23,63.35L883.8,292.43L883.93,78.72L883.94,89.16L884.51,311.01L884.68,133.4L884.7,132.25L884.86,339.47L885.32,102.08L885.54,303.86L885.55,300.94L885.67,106.4L886.25,305.01L886.33,152.69L886.35,134.12L886.36,117.92L886.94,320.03L887.02,248.79L887.03,247.94L887.13,171.47L887.29,367.83L887.45,298.05L887.47,200.21L887.64,376.89L888.1,131.31L888.23,171.91L888.25,200.87L888.34,309.29L888.8,104.74L889.03,282.73L889.05,232.18L889.15,110.05L889.73,324.36L889.77,298.96L889.79,294.1L890.08,346.35L890.54,93.52L890.57,136.21L890.58,205.24L890.77,261.14L890.89,77.77L891.37,131.79L891.38,161.57L891.58,93.1L892.16,341.27L892.24,305.94L892.25,303.5L892.27,301.44L892.31,312.54L892.32,312.14L892.34,208.18L892.51,297.49L892.98,90.06L893.09,125.38L893.11,149.23L893.56,289.39L893.67,107.61L893.89,267.59L893.9,275.55L894.02,88.9L894.6,322.5L894.62,316.61L894.63,310.87L895.06,98.44L895.28,284.51L895.3,294.53L895.41,97.88L896.07,114.9L896.08,129.19L896.11,90.53L896.69,294.18L896.79,205.67L896.81,212.27L897.04,337.04L897.44,116.39L897.46,115.75L897.5,85.43L898.08,284.56L898.18,115.53L898.2,100.84L898.55,76.03L898.78,279.21L898.82,114.86L898.84,96.46L899.47,341.64L899.65,208.82L899.66,181.92L899.82,310.66L899.88,117.57L899.91,134.48L899.92,105.08L900.17,286.13L900.29,69.26L900.5,268.73L900.52,288.32L900.98,66.39L901.3,117.68L901.32,91.08L901.33,72.86L901.91,333.78L901.94,316.79L901.95,310.62L902.37,103.34L902.58,234.51L902.59,261.77L902.61,281.77L902.72,77.72L903.3,275.24L903.32,210.73L903.42,94.69L904,307.32L904.06,243.48L904.07,249.19L904.19,148.48L904.32,296.49L904.33,331.69L904.35,373.9L904.91,197.4L905.07,331.77L905.09,322.56L905.39,336.82L905.85,129.56L905.99,181.86L906,214.19L906.2,136.42L906.77,369.46L906.78,358.83L906.8,342.48L907.58,92.71L907.71,144.52L907.73,184.29L907.81,290.51L907.93,74.66L908.51,271.51L908.52,214.46L908.62,83.19L909.2,342.51L909.23,329.11L909.25,322.76L909.55,331.72L910.02,68.75L910.16,178.98L910.18,210.15L910.36,81.3L910.94,287.44L910.96,232.77L911.06,97.11L911.64,355.7L911.68,334.4L911.7,330.7L912.11,84.66L912.58,124.27L912.6,157.53L912.69,275.69L912.8,50.69L913.38,260.56L913.4,198.28L913.5,61.27L914.08,320.15L914.12,297.68L914.14,291.28L914.54,61.16L915.02,129.51L915.03,160.74L915.12,273.37L915.24,53.6L915.82,244.03L915.83,201.64L915.93,59.29L916.51,317.39L916.54,302.12L916.56,296.69L917.33,54L917.46,122.91L917.47,154.36L917.67,54.52L917.76,334.4L918.25,266.24L918.27,206.87L918.37,74.13L918.95,351.9L918.99,327.53L919.01,317.07L919.76,96.61L919.88,141.92L919.89,170.23L920.11,119.25L920.75,352.97L920.76,348.24L920.78,347.67L920.84,352.72L920.85,315.21L921.04,361.02L921.21,154.77L921.6,178.02L921.62,180.83L921.73,301.75L922.2,72.6L922.39,216.3L922.4,220.85L922.43,271.05L922.89,52.36L923.13,241.37L923.14,196.48L923.24,77.44L923.82,332.67L923.85,321.32L923.87,313.01L924.52,314.65L924.64,115.86L924.75,150.64L924.77,176.74L924.87,303.04L925.33,121.88L925.53,258.77L925.55,276.97L926.09,115.83L926.26,356.07L926.32,320.81L926.33,309.79L926.61,321.53L926.72,124.66L926.88,242.89L926.9,256.48L927.3,321.12L927.42,130.45L927.65,309.25L927.67,257.23L927.77,102.07L928.35,349.57L928.41,280.29L928.42,274.14L928.49,284.88L928.52,151.88L928.64,276.65L928.65,284.67L928.7,358.27L928.86,253.96L928.87,180.26L929.04,336.64L929.51,107.21L929.59,159.32L929.61,126.27L929.86,116.23L930.09,312.2L930.44,301.76L930.45,243.47L930.55,105.69L931.13,346.16L931.16,327.68L931.18,321.49L931.31,165.02L931.76,255.3L931.77,269.56L931.83,367.98L932.28,120.4L932.29,104.58L932.52,286.56L932.55,160.72L932.57,126.68L932.64,93.36L932.87,286.85L933.19,250.75L933.21,275.41L933.39,113.13L933.57,349.09L933.93,266.17L933.95,202.3L934.26,299.88L934.38,115.8L934.71,144.88L934.73,130.52L935.08,109.74L935.31,297.01L935.51,179.65L935.53,150.89L935.83,116.47L936,348.74L936.35,312.27L936.37,257.17L936.82,103.48L937.05,292.51L937.12,133.2L937.14,150.89L937.51,103.87L937.75,299.23L937.88,136.27L937.89,164.63L937.96,147.23L938.06,253.37L938.08,280.9L938.27,100.63L938.44,338.4L938.8,220.39L938.82,149.47L938.91,85.86L939.49,297.06L939.56,145.5L939.57,155.82L939.6,111.95L939.83,291.5L940.3,164.25L940.31,173.43L940.7,172.19L940.89,393.37L941.23,358.13L941.24,316.22L941.75,204.08L941.92,368.49L941.99,239.12L942.01,251.12L942.27,392.08L942.79,184.92L942.81,201.14L943.14,156.95L943.31,377.01L943.66,329.98L943.68,283.77L944.13,163.54L944.36,327.97L944.43,181.93L944.45,190.08L944.71,314.94L944.82,143.29L945.2,184.8L945.21,180.5L945.4,334.88L945.58,139.62L945.72,307.06L945.74,334.68L945.75,375.38L946.21,153.3L946.46,268.71L946.48,212.22L946.56,136.79L946.79,315.13L947.24,170.3L947.26,161.88L947.61,131.81L947.84,322.98L948,208.22L948.01,133.14L948.19,367L948.75,172.54L948.77,180.93L949,155.34L949.23,322.89L949.55,299.13L949.56,310.73L949.71,163.69L950.28,348.44L950.29,325.33L950.3,293.86L950.45,160.07L950.62,390.29L951.12,193.61L951.13,199.66L951.32,332.51L951.45,168.2L951.65,300.13L951.67,322.76L952.13,163.56L952.36,328.35L952.44,196.67L952.45,213.03L952.89,139.71L953.06,378.02L953.15,319.62L953.16,322.41L953.18,324.33L953.22,265.04L953.23,184.48L953.41,346.03L953.87,136.76L953.96,204.6L953.97,173.45L954.1,328.42L954.22,161.98L954.47,269.64L954.48,214.56L954.57,153.81L954.94,317.91L955.13,299.22L955.15,336.03L955.32,141.6L955.5,380.78L955.97,167.46L955.99,183.93L956.54,325.61L956.66,157.56L956.74,210.18L956.76,179.03L957,162.05L957.58,336.46L957.6,312.14L957.76,144.17L957.93,381.69L958.38,198.45L958.4,183.11L958.63,331.61L958.73,185.97L958.74,169.35L958.98,321.87L959.14,214.14L959.15,179.58L959.44,163.02L959.67,321.26L959.9,189.23L959.92,214.2L960.19,151.56L960.37,385.08L960.7,312.4L960.72,326.99L961.18,167.15L961.49,174.55L961.5,193.16L961.88,159.1L962.11,309.04L962.24,174.1L962.25,201.53L962.63,147.1L962.81,359.71L962.96,288.32L962.98,199.56L963.15,330.65L963.62,145.99L963.7,197.5L963.72,167.81L963.85,309.21L964.31,142.41L964.55,306.51L964.56,265.08L965.07,131.1L965.24,371.55L965.28,331.47L965.3,322.8L966.05,118.02L966.17,157.86L966.18,189.53L966.75,128.64L966.98,297.44L967,249.72L967.5,116.54L967.69,337.94L967.74,304.94L967.75,298.97L967.78,306.46L968.13,113.86L968.14,99.07L968.72,306L968.82,162.99L968.84,142.92L969.07,288.81L969.19,123.33L969.53,126.08L969.55,135.23L970.11,364.67L970.32,211.49L970.33,210.37L970.46,316.95L970.58,155.09L970.9,190.81L970.91,168.94L971.16,309.57L971.27,147.73L971.49,291.74L971.51,304.91L971.97,131.03L972.2,321.81L972.26,228.32L972.28,233.66L972.38,136.93L972.55,368L972.94,185.7L972.96,168.87L973.01,150.95L973.22,272.89L973.23,287.05L973.36,146.78L973.59,306.57L973.8,199.41L973.81,175.52L973.94,318.47L974.41,163.12L974.45,212.31L974.46,177.17L974.81,143.51L974.99,371.99L975.34,329.11L975.35,270.38L975.8,106.31L976.03,300.19L976.1,140.1L976.12,156.98L976.15,110.81L976.73,327.9L976.81,284.86L976.83,284.48L977.08,345.98L977.25,153.94L977.34,261.56L977.35,279.29L977.42,373.34L977.83,161.84L977.87,162.56L977.89,144.05L978.24,123.53L978.47,296.72L978.51,154.61L978.53,141.79L978.58,120.73L979.16,292.83L979.27,161.55L979.28,136.03L979.69,127.64L979.86,356.81L980.06,187.78L980.08,185.39L980.21,305.24L980.32,99.6L980.6,138.88L980.61,126.28L980.67,101.47L980.82,197.45L980.83,220.78L980.9,292.83L981.37,104.74L981.45,168.28L981.47,134L981.6,289.04L981.63,171.88L981.64,146.92L981.72,107.23L981.95,317.81L982.25,265.28L982.27,274.61L982.3,353.46L982.76,108.49L982.99,279.79L983.01,220.92L983.11,80.04L983.69,290.2L983.76,139.91L983.78,159.75L984.15,86.09L984.38,310.46L984.5,201.93L984.51,208.9L984.56,107.68L984.73,337.63L985.12,135.63L985.14,121.05L985.54,86.99L985.78,292.43L985.86,135.93L985.88,110.97L986.11,277.83L986.24,58.35L986.62,130.25L986.63,159.35L986.99,112.47L987.15,321.51L987.17,347.78L988,89.82L988.11,152.23L988.13,183.26L988.68,64.68L988.91,306.34L988.92,289.17L988.94,274.8L989.43,125.74L989.61,320.55L989.66,283.86L989.68,279.16L989.71,279.64L989.75,271.87L989.76,223.92L989.94,274.24L990.42,45.85L990.53,89.57L990.55,117.34L990.98,277.35L991.11,58.94L991.33,270.91L991.35,263.64L991.46,54.22L992.04,303.72L992.09,293.79L992.1,289.52L992.38,297.74L992.85,82.21L992.98,128.74L993,161.81L993.07,276.62L993.55,46.89L993.78,247.39L993.8,187.16L993.9,33.61L994.48,306.45L994.52,304.23L994.54,299.88L994.94,43.16L995.42,129.57L995.44,164.04L995.99,61.56L996.22,313.28L996.23,300.96L996.25,285.96L996.74,116.41L996.93,328.78L997,282.96L997.02,277.51L997.26,298.72L997.39,46.78L997.58,210.73L997.6,221.23L997.96,285.15L998.09,61.93L998.34,216.76L998.35,144.45L998.79,63.48L999.02,285.34L999.08,195.73L999.09,197.04L999.19,94.02L999.37,325.98L999.73,218.97L999.74,139.43L1000.05,276.97L1000.18,43.65L1000.39,271.19L1000.41,261.38L1000.53,39.73L1000.76,295L1001.18,111.41L1001.19,123.92L1001.22,81.49L1001.79,312.53L1001.8,325.2L1002.27,51.16L1002.47,208.41L1002.48,260.6L1002.6,52.29L1002.61,28.2L1002.83,259.03L1003.28,88.25L1003.3,57.21L1003.31,32.29L1003.89,248.66L1003.99,183.24L1004.01,182.51L1004.57,313.19L1004.64,102.23L1004.67,126.97L1004.69,107.88L1004.7,96.37L1005.27,297.31L1005.41,112.22L1005.43,139.49L1005.62,298.46L1006.09,71.29L1006.18,142.91L1006.2,99.48L1006.33,277.6L1006.49,189.75L1006.5,93.58L1006.69,300.18L1007.04,212.78L1007.05,136.72L1007.14,73.52L1007.36,270.27L1007.83,76.44L1007.85,88.29L1008.18,65.22L1008.4,257.07L1008.62,158.02L1008.63,120.9L1008.94,117.26L1009.11,320.31L1009.31,181L1009.33,182.97L1009.79,325.76L1009.92,131.78L1009.94,137.53L1010.14,312.58L1010.62,114.03L1010.69,170.69L1010.71,177.39L1010.97,106.22L1011.2,282.5L1011.45,177.92L1011.46,198.75L1011.55,315.69L1012.01,129.64L1012.24,293.11L1012.26,232.01L1012.71,107.88L1012.94,306.72L1013.01,129.19L1013.03,139.18L1013.4,95.53L1013.64,295.23L1013.75,200.43L1013.77,206.98L1013.82,129.19L1013.98,326.1L1014.51,213.75L1014.52,201.22L1014.68,368.87L1015.14,118.37L1015.23,173.43L1015.25,131.73L1015.38,297.45L1015.61,107.84L1015.69,222L1015.71,278.63L1015.84,106.53L1016.07,294.37L1016.23,223.78L1016.25,118.92L1016.26,108.84L1016.77,318.79L1016.88,218.8L1016.9,224.1L1016.93,265.74L1016.96,176.32L1017,212.59" style="vector-effect: non-scaling-stroke; fill: none; stroke: rgb(99, 110, 250); stroke-opacity: 1; stroke-width: 2px; opacity: 1;"/></g><g class="points"/><g class="text"/></g></g></g><g class="overplot"/><path class="xlines-above crisp" d="M102,664.5H1120" style="fill: none; stroke-width: 1px; stroke: rgb(255, 255, 255); stroke-opacity: 1;"/><path class="ylines-above crisp" d="M102.5,100V664" style="fill: none; stroke-width: 1px; stroke: rgb(255, 255, 255); stroke-opacity: 1;"/><g class="overlines-above"/><g class="xaxislayer-above"><g class="xtick"><text text-anchor="middle" x="0" y="696.2" transform="translate(103,0)" style="font-family: 'Open Sans', verdana, arial, sans-serif; font-size: 26px; fill: rgb(42, 63, 95); fill-opacity: 1; white-space: pre;">2011</text></g><g class="xtick"><text text-anchor="middle" x="0" y="696.2" transform="translate(230.04000000000002,0)" style="font-family: 'Open Sans', verdana, arial, sans-serif; font-size: 26px; fill: rgb(42, 63, 95); fill-opacity: 1; white-space: pre;">2012</text></g><g class="xtick"><text text-anchor="middle" x="0" y="696.2" transform="translate(357.43,0)" style="font-family: 'Open Sans', verdana, arial, sans-serif; font-size: 26px; fill: rgb(42, 63, 95); fill-opacity: 1; white-space: pre;">2013</text></g><g class="xtick"><text text-anchor="middle" x="0" y="696.2" transform="translate(484.47,0)" style="font-family: 'Open Sans', verdana, arial, sans-serif; font-size: 26px; fill: rgb(42, 63, 95); fill-opacity: 1; white-space: pre;">2014</text></g><g class="xtick"><text text-anchor="middle" x="0" y="696.2" transform="translate(611.51,0)" style="font-family: 'Open Sans', verdana, arial, sans-serif; font-size: 26px; fill: rgb(42, 63, 95); fill-opacity: 1; white-space: pre;">2015</text></g><g class="xtick"><text text-anchor="middle" x="0" y="696.2" transform="translate(738.55,0)" style="font-family: 'Open Sans', verdana, arial, sans-serif; font-size: 26px; fill: rgb(42, 63, 95); fill-opacity: 1; white-space: pre;">2016</text></g><g class="xtick"><text text-anchor="middle" x="0" y="696.2" transform="translate(865.93,0)" style="font-family: 'Open Sans', verdana, arial, sans-serif; font-size: 26px; fill: rgb(42, 63, 95); fill-opacity: 1; white-space: pre;">2017</text></g><g class="xtick"><text text-anchor="middle" x="0" y="696.2" transform="translate(992.97,0)" style="font-family: 'Open Sans', verdana, arial, sans-serif; font-size: 26px; fill: rgb(42, 63, 95); fill-opacity: 1; white-space: pre;">2018</text></g><g class="xtick"><text text-anchor="middle" x="0" y="696.2" transform="translate(1120.01,0)" style="font-family: 'Open Sans', verdana, arial, sans-serif; font-size: 26px; fill: rgb(42, 63, 95); fill-opacity: 1; white-space: pre;">2019</text></g></g><g class="yaxislayer-above"><g class="ytick"><text text-anchor="end" x="96.8" y="9.1" transform="translate(0,607.64)" style="font-family: 'Open Sans', verdana, arial, sans-serif; font-size: 26px; fill: rgb(42, 63, 95); fill-opacity: 1; white-space: pre;">6k</text></g><g class="ytick"><text text-anchor="end" x="96.8" y="9.1" transform="translate(0,537.65)" style="font-family: 'Open Sans', verdana, arial, sans-serif; font-size: 26px; fill: rgb(42, 63, 95); fill-opacity: 1; white-space: pre;">7k</text></g><g class="ytick"><text text-anchor="end" x="96.8" y="9.1" transform="translate(0,467.66)" style="font-family: 'Open Sans', verdana, arial, sans-serif; font-size: 26px; fill: rgb(42, 63, 95); fill-opacity: 1; white-space: pre;">8k</text></g><g class="ytick"><text text-anchor="end" x="96.8" y="9.1" transform="translate(0,397.67)" style="font-family: 'Open Sans', verdana, arial, sans-serif; font-size: 26px; fill: rgb(42, 63, 95); fill-opacity: 1; white-space: pre;">9k</text></g><g class="ytick"><text text-anchor="end" x="96.8" y="9.1" transform="translate(0,327.68)" style="font-family: 'Open Sans', verdana, arial, sans-serif; font-size: 26px; fill: rgb(42, 63, 95); fill-opacity: 1; white-space: pre;">10k</text></g><g class="ytick"><text text-anchor="end" x="96.8" y="9.1" transform="translate(0,257.69)" style="font-family: 'Open Sans', verdana, arial, sans-serif; font-size: 26px; fill: rgb(42, 63, 95); fill-opacity: 1; white-space: pre;">11k</text></g><g class="ytick"><text text-anchor="end" x="96.8" y="9.1" transform="translate(0,187.7)" style="font-family: 'Open Sans', verdana, arial, sans-serif; font-size: 26px; fill: rgb(42, 63, 95); fill-opacity: 1; white-space: pre;">12k</text></g><g class="ytick"><text text-anchor="end" x="96.8" y="9.1" transform="translate(0,117.71000000000001)" style="font-family: 'Open Sans', verdana, arial, sans-serif; font-size: 26px; fill: rgb(42, 63, 95); fill-opacity: 1; white-space: pre;">13k</text></g></g><g class="overaxes-above"/></g></g><g class="polarlayer"/><g class="ternarylayer"/><g class="geolayer"/><g class="funnelarealayer"/><g class="pielayer"/><g class="treemaplayer"/><g class="sunburstlayer"/><g class="glimages"/><defs id="topdefs-b0a267"><g class="clips"/></defs><g class="layer-above"><g class="imagelayer"/><g class="shapelayer"/></g><g class="infolayer"><g class="g-gtitle"><text class="gtitle" x="60" y="50" text-anchor="start" dy="0em" style="font-family: 'Open Sans', verdana, arial, sans-serif; font-size: 36px; fill: rgb(42, 63, 95); opacity: 1; font-weight: normal; white-space: pre;">NorthEast Demand outliers fixed</text></g><g class="g-xtitle"><text class="xtitle" x="611.5" y="737.903125" text-anchor="middle" style="font-family: 'Open Sans', verdana, arial, sans-serif; font-size: 31px; fill: rgb(42, 63, 95); opacity: 1; font-weight: normal; white-space: pre;">Date</text></g><g class="g-ytitle" transform="translate(19.3564453125,0)"><text class="ytitle" transform="rotate(-90,11.643749999999997,382)" x="11.643749999999997" y="382" text-anchor="middle" style="font-family: 'Open Sans', verdana, arial, sans-serif; font-size: 31px; fill: rgb(42, 63, 95); opacity: 1; font-weight: normal; white-space: pre;">Demand</text></g></g></svg>