<svg class="main-svg" xmlns="http://www.w3.org/2000/svg" xmlns:xlink="http://www.w3.org/1999/xlink" width="1200" height="750" style="" viewBox="0 0 1200 750"><rect x="0" y="0" width="1200" height="750" style="fill: rgb(255, 255, 255); fill-opacity: 1;"/><defs id="defs-2e332b"><g class="clips"><clipPath id="clip2e332bxyplot" class="plotclip"><rect width="1017" height="564"/></clipPath><clipPath class="axesclip" id="clip2e332bx"><rect x="103" y="0" width="1017" height="750"/></clipPath><clipPath class="axesclip" id="clip2e332by"><rect x="0" y="100" width="1200" height="564"/></clipPath><clipPath class="axesclip" id="clip2e332bxy"><rect x="103" y="100" width="1017" height="564"/></clipPath></g><g class="gradients"/></defs><g class="bglayer"><rect class="bg" x="103" y="100" width="1017" height="564" style="fill: rgb(229, 236, 246); fill-opacity: 1; stroke-width: 0;"/></g><g class="layer-below"><g class="imagelayer"/><g class="shapelayer"/></g><g class="cartesianlayer"><g class="subplot xy"><g class="layer-subplot"><g class="shapelayer"/><g class="imagelayer"/></g><g class="gridlayer"><g class="x"><path class="xgrid crisp" transform="translate(272.81,0)" d="M0,100v564" style="stroke: rgb(255, 255, 255); stroke-opacity: 1; stroke-width: 1px;"/><path class="xgrid crisp" transform="translate(442.16,0)" d="M0,100v564" style="stroke: rgb(255, 255, 255); stroke-opacity: 1; stroke-width: 1px;"/><path class="xgrid crisp" transform="translate(611.51,0)" d="M0,100v564" style="stroke: rgb(255, 255, 255); stroke-opacity: 1; stroke-width: 1px;"/><path class="xgrid crisp" transform="translate(780.86,0)" d="M0,100v564" style="stroke: rgb(255, 255, 255); stroke-opacity: 1; stroke-width: 1px;"/><path class="xgrid crisp" transform="translate(950.67,0)" d="M0,100v564" style="stroke: rgb(255, 255, 255); stroke-opacity: 1; stroke-width: 1px;"/></g><g class="y"><path class="ygrid crisp" transform="translate(0,597.79)" d="M103,0h1017" style="stroke: rgb(255, 255, 255); stroke-opacity: 1; stroke-width: 1px;"/><path class="ygrid crisp" transform="translate(0,519.21)" d="M103,0h1017" style="stroke: rgb(255, 255, 255); stroke-opacity: 1; stroke-width: 1px;"/><path class="ygrid crisp" transform="translate(0,440.62)" d="M103,0h1017" style="stroke: rgb(255, 255, 255); stroke-opacity: 1; stroke-width: 1px;"/><path class="ygrid crisp" transform="translate(0,362.03)" d="M103,0h1017" style="stroke: rgb(255, 255, 255); stroke-opacity: 1; stroke-width: 1px;"/><path class="ygrid crisp" transform="translate(0,283.45)" d="M103,0h1017" style="stroke: rgb(255, 255, 255); stroke-opacity: 1; stroke-width: 1px;"/><path class="ygrid crisp" transform="translate(0,204.86)" d="M103,0h1017" style="stroke: rgb(255, 255, 255); stroke-opacity: 1; stroke-width: 1px;"/><path class="ygrid crisp" transform="translate(0,126.28)" d="M103,0h1017" style="stroke: rgb(255, 255, 255); stroke-opacity: 1; stroke-width: 1px;"/></g></g><g class="zerolinelayer"/><path class="xlines-below"/><path class="ylines-below"/><g class="overlines-below"/><g class="xaxislayer-below"/><g class="yaxislayer-below"/><g class="overaxes-below"/><g class="plot" transform="translate(103, 100)" clip-path="url('#clip2e332bxyplot')"><g class="scatterlayer mlayer"><g class="trace scatter trace34d6b1" style="stroke-miterlimit: 2; opacity: 1;"><g class="fills"/><g class="errorbars"/><g class="lines"><path class="js-line" d="M0,448.52L0.14,520.41L0.41,376.94L0.64,378.92L0.66,361.54L1.01,440.73L1.2,288.36L1.39,364.43L1.41,393.86L1.47,418.6L1.66,267.55L2.03,304.83L2.05,288.61L2.13,265.3L2.22,362.62L2.32,361.26L2.34,388.13L2.4,410L2.59,244.67L3.04,351.08L3.05,349.77L3.19,303.56L3.38,458.95L3.63,350.93L3.65,311.3L3.79,415.56L3.98,213L4.31,335.45L4.33,283.32L4.72,381.47L4.91,203.28L5.08,277.98L5.1,320.48L5.37,205.48L5.64,384.07L5.8,284.43L5.82,257.25L5.84,239.19L6.11,413.45L6.46,354.33L6.48,387.81L6.63,481.1L7.13,286.1L7.15,266.97L7.19,296.88L7.21,262.56L7.23,241.29L7.25,239.21L7.29,279.74L7.31,326L7.5,398.59L7.69,212.58L8.02,324.18L8.04,273.2L8.43,389.66L8.62,206.98L8.78,261.99L8.8,278.62L9.09,191.62L9.38,381.46L9.57,338.14L9.59,343.48L9.69,303.82L9.74,383.18L9.76,400.32L9.88,456.81L10.15,304.1L10.34,329.52L10.36,266.63L10.75,356.51L10.94,179.27L11.1,262.52L11.12,277.39L11.41,203.96L11.68,388.71L11.83,286.52L11.85,252.44L11.87,234.04L12.14,401.83L12.51,320.48L12.53,361.17L12.93,308.73L13.13,468.31L13.3,415.14L13.32,407.13L13.53,410.3L14.19,175.45L14.25,216.55L14.27,270.21L14.46,358.53L14.65,173.27L15,257.58L15.02,232.01L15.39,351.45L15.58,160.02L15.66,272L15.68,325.44L15.74,253.81L16.35,421.6L16.37,437.42L17.44,166.61L17.5,221.44L17.51,270.08L17.71,357.29L17.9,162.25L18.23,284.87L18.25,230.41L18.37,174.04L18.64,366.01L18.91,291.65L18.93,338.68L18.98,286.27L19.58,449.92L19.6,448.25L19.62,459.57L20.24,189.54L20.49,366.84L20.51,358.19L20.96,360.67L21.15,164.97L21.3,235.2L21.32,265.93L21.42,350.5L21.61,151.93L22.04,225.55L22.06,181.5L22.08,158.99L22.41,361.48L22.7,301.34L22.72,324.02L22.87,427.6L23.45,283.89L23.47,267.18L23.53,297.18L23.55,326.33L23.62,293.08L24.2,388.4L24.26,323.76L24.28,280.41L24.65,379.07L24.86,187.27L25.03,270.84L25.05,310.65L25.32,184.19L25.61,376.93L25.81,345.51L25.83,347.96L25.9,292.43L25.94,341.66L25.96,402.95L26.1,457.16L26.37,305.76L26.58,323.2L26.6,261.36L26.72,195.05L26.97,387.89L27.34,269.74L27.35,305.8L27.64,176.43L27.9,393.55L28.07,260.35L28.09,228.41L28.11,208.42L28.36,395.83L28.75,315.89L28.77,353.26L29.13,281.52L29.35,466.19L29.54,393.07L29.56,387.78L29.75,403.72L30.43,149.1L30.47,163.95L30.49,212.16L30.89,145.86L31.16,354.74L31.24,231.63L31.26,205.25L31.36,151.59L31.63,359.14L31.96,250.98L31.98,257.21L32.38,253.82L32.59,443.19L32.77,382.51L32.79,381.68L33.02,388.72L33.21,152.3L33.41,294.86L33.43,323.55L33.68,150.99L33.95,365.1L34.1,244.46L34.12,212.51L34.14,192.57L34.41,378.39L34.76,289.81L34.78,325.8L35.07,228.67L35.34,409.42L35.53,347.09L35.55,349.7L35.63,272.03L35.71,385.44L35.73,417.44L35.84,471.96L36.38,239.39L36.4,233.62L36.73,390.25L36.92,194.97L37.21,372.81L37.23,346.26L37.39,206.76L37.64,397.04L37.99,286.62L38.01,301.96L38.32,236.07L38.59,419.75L38.8,369.66L38.82,370.36L38.88,277.31L39.05,476.58L39.07,477.75L39.09,484.89L39.34,329.44L39.55,404.79L39.57,365.9L39.71,231.71L39.96,414.19L40.33,322.49L40.35,361.89L40.42,434.84L41.04,271.06L41.06,309.39L41.08,281.95L41.35,425.79L41.56,256.24L41.74,342.66L41.76,385.98L42.12,284.16L42.34,483.11L42.53,422.06L42.55,408.34L42.74,443.32L42.98,230.07L43.36,238.83L43.38,279.51L43.67,407.68L43.9,202.28L44.08,347.21L44.1,374.23L44.27,254.75L44.68,480.7L44.87,430.2L44.89,374.75L45.37,302.95L45.55,481.91L45.57,481.6L45.6,486.87L45.84,341.48L46.05,397.99L46.07,357.22L46.45,420.09L46.67,243.48L46.82,301.48L46.84,342.1L47.38,417.09L47.52,227.93L47.54,230.27L48.06,217.32L48.33,409.16L48.35,404.6L48.37,395.31L48.6,298.25L48.85,478.3L48.99,438.03L49.01,439.3L49.24,449.76L49.45,261.03L49.63,357.67L49.64,391.86L49.7,425.43L49.92,244.45L50.26,285.92L50.28,269.92L50.38,232.45L50.63,416.41L51,294.92L51.02,335.62L51.31,234.98L51.6,429.44L51.79,389.92L51.81,385.52L51.85,301.42L52.1,483.31L52.43,434.7L52.45,448.85L52.47,456.29L52.7,264.79L52.72,264.71L52.74,263.49L52.8,284.56L52.82,304.66L53.09,259.21L53.41,421.11L53.43,419.23L53.67,255.89L53.88,426.45L54.23,310.18L54.25,323.23L54.48,268.61L54.83,446.76L55.02,380.42L55.04,380.71L55.1,296.06L55.29,507.47L55.46,459.35L55.48,463.67L55.54,423.89L55.56,343.14L56.02,302.06L56.28,496.4L56.33,439.67L56.35,432.79L56.66,475.61L56.78,297.61L56.8,280.12L56.82,280.96L56.84,321.89L57.13,444.53L57.42,267.02L57.51,357.45L57.53,394.97L57.59,436.86L57.74,260.88L58.25,370.53L58.27,372.99L58.34,269.91L58.48,461.21L58.5,473.92L58.6,486.83L58.81,317.01L59.02,437.8L59.04,391.39L59.45,433.71L59.66,256.96L59.81,304.82L59.83,348.49L59.91,426.48L60.12,249.02L60.55,301.95L60.57,273.97L60.66,253.42L60.84,423.78L61.22,351.63L61.24,388.04L61.59,278.27L61.79,495.79L62.02,453.58L62.04,414.25L62.23,468.77L62.52,261.24L62.81,279.12L62.83,263.84L62.98,255.37L63.08,357.81L63.1,397.85L63.45,258.27L63.62,434.37L63.74,289.51L63.76,275.87L63.78,276.1L63.8,319.38L63.91,260.49L64.09,441.08L64.47,359.08L64.49,396.81L64.84,278.63L65.09,500.1L65.26,443.21L65.28,403.49L65.46,465.65L65.77,260.06L66.04,291.9L66.06,278.74L66.41,433.58L66.7,249.35L66.77,305.53L66.79,350.38L66.87,430.04L67.14,242.21L67.51,305.94L67.53,285.65L67.62,262.38L67.82,440.07L68.15,363.31L68.16,389.54L68.28,499.83L68.84,291.72L68.86,271.14L69.02,250.99L69.09,309L69.11,351.78L69.19,430.32L69.42,239.68L69.83,304.53L69.85,282.17L70.12,432.62L70.39,256.25L70.5,356.52L70.52,398.62L70.72,262.01L71.06,442.18L71.24,377.53L71.26,380.89L71.28,381.99L71.3,372.71L71.32,335.73L71.34,274.79L71.55,500.95L72.07,302.35L72.09,282.98L72.44,444.34L72.59,259.38L72.79,297.03L72.8,311.75L73.04,268.37L73.38,473.95L73.58,403.82L73.6,405.53L73.83,472.03L74.12,270.18L74.22,364.98L74.23,409.97L74.58,268.58L74.78,507.68L74.99,432.26L75.01,412.33L75.22,484.28L75.51,259.88L75.8,283.89L75.82,266.62L75.97,250.31L76.07,357.14L76.09,403.51L76.15,447.84L76.44,255.34L76.73,283.56L76.75,266.79L76.9,250.93L77.56,445.08L77.62,406.76L77.64,381.77L77.83,278.31L78.04,501.31L78.37,396.39L78.39,425.38L78.47,478.65L78.74,259.68L79.03,293.49L79.05,277.83L79.2,245.32L79.4,439.48L79.76,300.24L79.78,342.67L79.86,437.24L80.15,251.29L80.5,302.05L80.52,280.66L80.61,267.44L80.81,445.7L81.12,335.54L81.14,362.12L81.33,507.34L81.81,309.78L81.83,290.67L82.18,448.06L82.47,254.72L82.55,310.07L82.57,356.17L82.64,440.25L82.93,252.17L83.28,313.25L83.3,289.54L83.4,251.98L83.57,441.69L83.94,324.62L83.96,363.86L84.33,276.45L84.58,498.04L84.73,453.26L84.75,444.95L84.96,472.11L85.25,261.31L85.56,266.64L85.58,267.66L85.89,437.83L86.18,260.02L86.39,419.45L86.41,374.74L86.63,252.47L86.82,436.2L87.17,322.08L87.19,332.08L87.57,297.96L87.79,514.28L88,457.17L88.02,414.71L88.21,491.91L88.5,280.08L88.79,288.36L88.81,275.48L88.97,265.07L89.06,364.88L89.08,407.21L89.14,448.93L89.43,259.28L89.72,279.53L89.74,264.58L90.07,449.27L90.34,294.86L90.36,271.29L91.07,507.06L91.25,444.44L91.27,402.66L91.46,475.7L91.73,240.29L92.04,261.69L92.06,243.01L92.39,443.27L92.66,274.14L92.68,256.09L92.85,446.19L93.41,297.63L93.43,279.66L93.61,266.07L93.8,456.72L93.97,393.72L93.99,395.36L94.01,397.72L94.05,365.4L94.07,282.77L94.26,509.19L94.78,357.43L94.8,316.61L95.17,445.43L95.46,265.23L95.54,312.01L95.56,358.85L95.93,268.02L96.1,450.42L96.27,326.6L96.29,299.27L96.39,268.76L96.56,450.55L96.93,323.42L96.95,365.07L97.32,288.38L97.53,517.84L97.74,452.34L97.76,414.05L97.96,486.3L98.25,278.02L98.54,292.27L98.55,276.54L98.67,272.84L98.88,454.72L99,298.19L99.02,281.83L99.04,279.67L99.06,319.97L99.25,315.53L99.27,363.38L99.35,449.36L99.64,277.8L99.99,318.49L100,295.23L100.02,278.29L100.29,454.1L100.64,386.82L100.66,423.57L100.76,510.3L101.32,296.96L101.34,281.72L101.36,279.06L101.38,320.18L101.57,314.26L101.59,360.13L102.13,444.51L102.27,270.14L102.31,311.77L102.32,291.11L102.6,438.9L102.73,257.43L102.98,343.37L103,388.68L103.21,256.89L103.54,444.27L103.74,379.79L103.75,384.02L103.77,385.38L103.79,369.76L103.81,288.35L103.83,287.64L103.85,326.98L104.01,504.15L104.55,308.35L104.57,286.17L104.61,267.41L104.91,445.93L105.28,310.14L105.3,358.19L105.38,443.04L105.98,259.38L106.02,303.82L106.04,278.32L106.31,439.1L106.52,255.39L106.69,349.35L106.71,394.75L107.06,292.8L107.25,496.52L107.49,440.19L107.51,416.83L107.68,468.79L107.91,263.26L108.26,284.75L108.28,270.1L108.63,430.85L108.84,237.98L108.99,297.89L109.01,347.93L109.3,243.65L109.55,433.08L109.73,295.35L109.75,263.59L109.77,243.91L110.04,435.61L110.37,362.83L110.39,386.13L110.5,500.58L111.06,285.06L111.08,265.48L111.1,265L111.12,307.78L111.41,441.32L111.55,252.63L111.8,356.24L111.82,400.7L111.87,438.14L112.01,255.8L112.45,280.16L112.47,263.08L112.74,401.44L112.76,426.92L112.8,442.51L112.94,264.83L113.38,361.91L113.4,352.42L113.42,351.18L113.5,378.16L113.54,363.9L113.56,292.68L113.58,282.3L113.79,495.57L114.1,380.68L114.12,409.82L114.19,459.38L114.35,261.97L114.77,286.38L114.79,270.01L114.81,270.25L114.83,314.94L115.12,431.83L115.37,236.43L115.53,376.61L115.55,404.27L115.8,244.68L116.11,456.69L116.3,404.43L116.32,387.59L116.36,303.08L117,492.68L117.02,490.56L117.04,492.01L117.29,334.89L117.4,463.39L117.42,468.88L117.48,444.48L117.5,400.68L117.69,255.98L117.91,441.95L118.27,302.43L118.29,349.89L118.37,439.29L118.97,258.67L119.01,305.49L119.03,278.94L119.3,433.36L119.51,244.58L119.68,338.88L119.7,378.39L120.07,291.4L120.28,497.03L120.48,427.8L120.5,402.1L120.69,455.03L120.92,223.39L121.31,233.8L121.33,278.6L121.37,225.53L121.62,424.94L122,383.85L122.02,417.12L122.08,458.3L122.39,300.87L122.66,305.49L122.68,286.52L122.91,334.12L122.93,373.6L123.32,302.12L123.53,520.37L123.72,457.03L123.74,436.63L123.92,477.38L124.54,260.57L124.56,266.79L124.87,450.22L125.37,426.82L125.39,402.18L125.79,444.37L125.93,274.35L126.16,320.78L126.18,362.91L126.57,313.84L126.78,513.5L126.97,449.18L126.99,430.7L127.17,476.61L127.78,265.31L127.8,264.88L128.25,259.73L128.58,438.5L128.62,415.38L128.64,389.65L129.04,440.72L129.25,256.18L129.39,304.23L129.41,307.38L129.81,297.05L130.03,500.99L130.22,436.79L130.24,424.77L130.43,457.11L131.05,233.88L131.07,275.5L131.11,226.98L131.38,416.94L131.75,353.24L131.77,391.11L131.96,264.62L132.35,489.18L132.54,434.66L132.56,420.7L133.06,319.57L133.26,517.06L133.28,529.55L133.91,270.41L134.11,426.52L134.13,436.89L134.14,439.62L134.26,281.99L134.28,262.12L134.32,307.64L134.34,274.14L134.36,255.42L134.4,256.97L134.42,282.42L134.61,432.07L134.82,251.52L135.17,292.42L135.19,269L135.29,241.04L135.54,425.85L135.88,306.71L135.9,317.05L136.02,431.45L136.29,319.01L136.31,281.38L136.54,486.4L137.04,283.29L137.06,257.84L137.18,244.71L137.32,353.29L137.33,393.21L137.53,270.58L137.88,454.5L137.99,278.65L138.01,277.7L138.32,436.66L138.55,252.55L138.82,408.11L138.84,371.95L139,242.94L139.27,436.51L139.6,325.09L139.62,354L139.79,485.33L140.29,265.61L140.31,240.41L140.41,218.36L140.58,361.64L140.6,388.65L140.66,409.92L140.85,213.07L141.18,320.93L141.2,272.26L141.32,227.07L141.57,415.48L141.9,295.15L141.92,312.17L141.94,312.02L141.96,339.55L142.36,322.87L142.52,471.01L142.71,395.79L142.73,396.52L142.81,363.55L142.83,312.59L143.02,488.61L143.54,268.02L143.56,243.81L143.64,217.01L143.83,358.24L143.85,384.66L143.89,405.73L144.1,210.27L144.45,275.35L144.47,251.45L144.56,194.58L144.82,394.58L145.18,284.1L145.2,310.69L145.26,398.08L145.49,209.14L145.94,320.15L145.96,318.7L146.07,274L146.15,376.34L146.17,401.03L146.27,452.51L146.56,309.63L146.75,322.64L146.77,264.94L146.83,219.22L147.14,403.87L147.48,302.52L147.5,298.03L147.74,255.22L148.12,432.39L148.28,363.36L148.3,366.16L148.39,300.67L148.53,437.92L148.62,327L148.64,305.88L148.74,272.96L149.01,424.58L149.34,319.63L149.36,347.54L149.51,485.02L150.04,260.13L150.06,241.3L150.07,241.45L150.09,284.92L150.4,389.29L150.62,185.22L150.79,326.84L150.81,356.31L150.87,383.24L151.06,180.71L151.41,253.26L151.43,228.45L151.54,166.57L151.8,367.59L152.14,271.68L152.16,290.96L152.78,476.52L152.97,418.66L152.99,407.36L153.17,443.46L153.84,192.31L153.9,227.83L153.92,271.75L154.11,382.83L154.31,172.33L154.64,294.35L154.66,246.13L154.79,188.42L155.04,383.07L155.39,256.99L155.41,274.5L156.01,451.96L156.2,395.23L156.22,385.43L156.42,416.27L156.65,168.05L156.84,337.38L156.86,357.26L156.9,367L157.09,185.33L157.11,187.98L157.17,271.67L157.19,315.4L157.36,361.02L157.56,155.11L158,162.79L158.02,149.82L158.08,191.98L158.1,242.78L158.41,162.35L158.79,365.87L158.85,306.85L158.87,293.12L159.08,284.1L159.28,443.85L159.51,363.53L159.53,318.61L159.68,393.32L159.9,141.43L160.34,209.1L160.36,209.44L160.61,365.07L160.69,247.1L160.71,218.66L160.73,200.03L161.07,390.24L161.35,288.48L161.36,334.08L161.73,221.16L162,404.9L162.12,312.53L162.14,312.26L162.33,282.89L162.51,448.34L162.95,398.72L162.97,377.18L163.61,178.96L163.76,273.16L163.78,315.74L164.05,191.56L164.32,376.44L164.44,208.48L164.46,208.36L164.52,189.52L165.29,432.92L165.31,424.53L165.33,397.71L165.75,476.88L166.04,314.66L166.1,376.24L166.12,403.48L166.51,327.08L166.7,448.36L166.87,414.58L166.89,409.93L167.3,284.85L167.51,389.67L167.53,405.24L167.69,318.87L168.03,449.28L168.13,358.24L168.15,344.72L168.23,337.31L168.32,384.94L168.4,362.03L168.42,401.68L168.83,341.96L169.02,494.96L169.19,437.5L169.21,429.42L169.29,340.72L169.46,475.54L169.85,470.96L169.87,481.55L169.95,518.27L170.22,392.78L170.43,410.22L170.45,387.9L170.8,451.94L171.05,292.51L171.2,377.5L171.22,403.57L171.28,425.81L171.49,266.28L171.9,356.82L171.92,358.44L172.04,345.07L172.06,315.03L172.07,308.81L172.27,471.04L172.62,411.57L172.64,425.66L172.67,432.97L172.89,225.28L173.2,335.89L173.21,287.89L173.6,393.19L173.81,218.23L173.95,271.11L173.97,293.3L174.07,397.8L174.26,217.5L174.7,268.7L174.72,232.49L174.76,240.48L174.78,269.14L175.52,461.7L175.59,401.28L175.61,408.26L175.63,411.94L175.77,346.47L175.79,301.21L175.9,411.83L176.13,201.22L176.44,303.5L176.46,252.56L176.58,180.64L176.85,381.88L177.2,245.01L177.22,268.34L177.31,363.46L177.53,167.83L177.93,230.02L177.95,194.59L177.97,182.75L178.24,377.75L178.45,328.49L178.47,335.05L178.57,286.34L178.67,414.35L178.69,425.6L178.76,448.94L179.01,338.88L179.03,306.68L179.15,412.9L179.38,205.56L179.69,314.14L179.71,263.68L180.1,376.75L180.29,180.75L180.46,259.15L180.48,300.52L180.75,144.31L181.03,361.16L181.14,193.69L181.16,198.78L181.22,185.03L182.01,460.96L182.03,446.01L182.05,429.05L182.63,175.86L182.86,356.16L182.88,359.68L183.54,153.63L183.6,195.37L183.62,250.22L183.81,337.93L184.02,135.32L184.35,209.27L184.37,176.89L184.47,121.64L184.79,328.53L184.97,319.53L184.99,323.21L185.01,323.94L185.03,322.36L185.05,285.69L185.07,277.39L185.26,426.34L185.57,344.54L185.59,375.81L185.65,411.05L185.88,219.48L186.21,259.18L186.23,237.78L186.59,370.82L186.79,192.76L186.94,267.03L186.96,294.29L187.04,380.68L187.27,208.22L187.68,263.76L187.69,229.08L187.71,212.02L188,380.48L188.31,307.13L188.33,333.56L188.51,449.91L189.03,291.44L189.05,285.95L189.11,264.75L189.38,383.18L189.86,369.71L189.88,345.44L190.3,358.25L190.5,167.37L190.65,265.61L190.67,283.65L190.96,186.59L191.23,370.49L191.43,304.97L191.45,307.41L191.56,274.02L191.74,443.11L192.2,362.14L192.22,313.03L192.35,172.35L192.62,376.72L192.97,245.67L192.99,282.56L193.28,163.44L193.55,375.28L193.71,232.22L193.73,199.73L193.75,178.79L194.02,376.01L194.36,275.56L194.38,308.54L194.77,271.62L194.98,462.86L195.16,381.43L195.18,379.21L195.39,391.79L195.6,176.55L195.81,358.15L195.83,374.83L195.85,378.93L195.93,296.31L195.95,245.67L196.07,204.4L196.32,396.82L196.66,261.04L196.68,271.04L196.78,398.88L196.99,194.27L197.38,194.75L197.4,188.7L197.46,166.61L198.23,443.93L198.25,440L198.27,421.55L198.85,196.74L199.06,369.1L199.08,383.82L199.1,384.87L199.14,369.07L199.16,341.45L199.56,406.95L199.8,216.51L199.93,272.66L199.95,321.02L200.03,394.49L200.63,192.63L200.65,187.47L200.71,179.12L201.48,480.03L201.5,473.17L201.52,453.69L202.12,201.38L202.33,387.31L202.35,394.77L202.43,310.75L202.44,260.16L202.56,210.33L202.81,405.83L203.16,290.44L203.18,299.82L203.74,419.62L203.88,244.38L203.91,281.77L203.93,261.9L203.95,245.51L204.22,420.18L204.55,338.94L204.57,364.04L204.73,483.73L205.25,276.93L205.27,262.08L205.29,260.97L205.31,303.36L205.6,423.06L205.73,249.48L205.98,348.82L206,389.4L206.29,235.04L206.52,430.63L206.64,264.17L206.66,247.15L206.68,245.85L206.7,293.91L206.99,422.87L207.2,231.87L207.39,370.44L207.41,397.8L207.76,286.55L207.97,480.27L208.17,428.2L208.19,409.52L208.38,456.2L208.98,229.49L209,229.54L209.02,276.72L209.06,227.31L209.31,417.58L209.69,336.02L209.71,375.1L209.98,233.17L210.31,475.74L210.49,435.5L210.51,423.06L211.01,293.61L211.22,485.42L211.24,482.16L211.84,200.78L212.05,380.92L212.07,392.61L212.09,397.24L212.19,261.6L212.21,234.89L212.56,402.27L212.77,205.93L212.9,266.35L212.92,273.7L213.17,203.45L213.48,423.92L213.66,287.87L213.68,261.95L213.7,244.59L213.97,437.58L214.3,341.98L214.31,372.23L214.49,479.8L214.99,263.69L215.01,240.79L215.03,239.98L215.05,281.89L215.34,419.79L215.47,231.31L215.73,342.7L215.75,380.03L216.02,219.13L216.27,417.06L216.44,274.25L216.46,240.16L216.5,214.14L216.73,408.48L217.12,344.94L217.14,378.16L217.5,289.46L217.74,497.34L217.91,443.4L217.93,415.65L218.12,458.78L218.37,270.67L218.7,280.84L218.72,263.9L219.05,429.34L219.3,254.03L219.55,404.45L219.57,363.84L219.98,418.52L220.13,244.74L220.33,293.76L220.35,306.19L220.73,278.3L220.98,490.5L221.16,438.91L221.18,407.19L221.37,462.66L221.6,258.07L221.95,270.53L221.97,253.99L221.99,252.87L222.01,295.21L222.3,420.14L222.51,239.06L222.69,343.19L222.7,385.11L222.76,422.28L222.98,235.35L223.34,259.56L223.36,242.12L223.38,242.66L223.4,284.76L223.44,234.15L223.71,425.52L224.06,375.45L224.08,406.21L224.17,474.07L224.72,292L224.73,272.12L225.08,421.46L225.3,236.77L225.43,305.53L225.45,318.01L225.62,453.25L226.15,237.69L226.17,233.56L226.24,215.38L226.96,423.05L226.98,420.27L227.23,281.58L227.44,480.85L227.6,442.66L227.62,448.4L227.85,469.95L228.16,271.81L228.25,365.85L228.27,401.72L228.33,438.9L228.62,271.79L228.91,283.67L228.93,270.88L228.97,317.65L229.08,260.49L229.16,303.3L229.18,352.49L229.55,256.33L229.72,434.04L229.9,312.07L229.92,286.1L230.01,260.67L230.19,440.55L230.53,366.99L230.55,392.09L230.69,496.06L231.23,293.75L231.25,274.37L231.4,246.28L231.52,390.73L231.54,416.35L231.58,430.38L231.87,236.04L232.1,361.81L232.12,316.36L232.2,237.54L232.51,434.14L232.87,315.19L232.89,339.5L233.26,253.67L233.45,439.28L233.65,372.17L233.67,371.94L233.72,270.92L233.84,450.6L233.86,470.52L233.92,495.79L234.19,311.68L234.44,344.17L234.46,302.53L234.83,443.21L235.12,249.54L235.19,307.49L235.21,356.31L235.29,435.65L235.56,242.52L235.89,250.11L235.91,252.61L236.04,242.62L236.68,423.89L236.72,417.47L236.74,401.38L236.97,248.83L237.22,488.19L237.49,364.17L237.51,388.82L237.59,457.19L237.9,243.62L238.15,307.15L238.17,273.93L238.34,227.78L238.54,433.13L238.87,306.55L238.89,306.75L239.29,292.92L239.47,462.09L239.58,328.09L239.6,314.93L239.64,341.07L239.74,295.43L239.76,271.15L240.41,507.76L240.61,459.61L240.63,455.41L240.86,482.35L241.15,264.57L241.26,395.86L241.28,423.56L241.32,439.63L241.61,250.81L241.86,318.49L241.88,283.11L242.25,439.17L242.54,238.61L242.6,277.79L242.62,293.04L243,251L243.2,434.27L243.39,376.6L243.41,379.57L243.47,259.18L243.53,352.18L243.54,379.48L243.66,496.62L244.22,279.75L244.24,264.42L244.28,304.23L244.4,243.57L244.47,300.2L244.49,346.55L244.86,232.46L245.03,425.73L245.17,243.59L245.19,243.61L245.32,228.28L245.96,428.67L246,405.91L246.02,357.43L246.25,241.48L246.44,435.66L246.77,353.61L246.79,382.72L246.91,496.52L247.45,286.35L247.47,266.57L247.82,423.77L248.11,228.17L248.18,292.28L248.2,334.19L248.57,233.43L248.75,427.19L248.92,285.25L248.94,261.33L249.02,221.7L249.21,427.2L249.58,310.54L249.6,345.39L249.96,268.51L250.21,504.72L250.37,453.65L250.39,437.72L250.6,473.93L250.87,236.08L251.2,247.2L251.22,248.87L251.34,231.61L251.99,430.53L252.03,406.68L252.05,359.18L252.13,243.26L252.46,432.46L252.8,296.24L252.82,309.34L253.21,272.79L253.4,504.73L253.62,443.94L253.64,427.59L253.85,472.32L254.14,239.68L254.43,258.58L254.45,246.93L254.6,235.27L254.7,336.98L254.72,379.76L255.07,236.19L255.24,430.63L255.36,263.04L255.38,248.37L255.4,248.62L255.41,293.58L255.53,237.81L255.7,426.65L256.09,335.5L256.11,377.64L256.46,261.66L256.65,495.13L256.88,425.36L256.9,384.21L257.1,470.59L257.39,247.88L257.68,264.4L257.7,249.02L257.85,241.52L257.95,345.01L257.97,387.98L258.02,430.54L258.31,241.56L258.62,258.93L258.64,261.8L259.24,236.45L259.44,428.42L259.46,422.92L259.47,410.78L259.71,266.76L259.92,489.69L260.09,443.55L260.11,442.89L260.34,462.91L260.63,247.64L260.77,413.82L260.79,425.78L260.81,431.5L260.92,263.41L260.94,250.74L261.1,243.27L261.74,434.99L261.79,374.17L261.81,326.87L262.2,420.62L262.34,233.54L262.57,292.34L262.59,332.28L262.95,265.48L263.15,502.39L263.38,413.39L263.4,381.33L263.59,468.92L263.86,227.99L264.19,229.26L264.21,231.99L264.52,427.11L264.81,204.34L265.02,402.76L265.04,366.35L265.27,214.53L265.47,416.93L265.8,276.37L265.82,293.84L266.2,260.81L266.4,493.01L266.61,446.61L266.63,436.17L266.84,458.76L267.15,247.01L267.44,247.76L267.46,250.42L267.59,233.72L267.77,429.96L268.27,408.75L268.29,366.35L268.52,241.84L268.7,428.49L269.06,308.94L269.08,345.05L269.45,275.13L269.66,506.81L269.88,451.17L269.89,421.29L270.09,474.75L270.38,263.16L270.67,269.14L270.69,255.04L270.71,253.85L270.73,298.93L271.02,437.85L271.15,257.02L271.4,345.62L271.42,385.83L271.48,430.53L271.77,248.48L272.06,264.55L272.08,244.63L272.1,232.63L272.43,436.76L272.62,359.63L272.64,360.79L272.7,282.44L272.85,487.34L272.87,494.73L272.95,503.5L273.14,416.21L273.16,332.3L273.34,479.74L273.64,255.88L273.76,424.19L273.78,437.51L273.8,441.61L273.88,325.53L273.9,282.34L274.26,433.51L274.57,230.17L274.63,273.04L274.65,325.3L274.73,430.57L275.04,238.35L275.38,276.07L275.4,264.17L275.5,250.44L275.6,375.95L275.62,407.31L275.95,274.92L276.2,499.75L276.37,433.54L276.39,405.06L276.58,465.83L276.89,254.08L277.16,268.6L277.18,253.66L277.2,253.95L277.22,298.99L277.51,429.96L277.67,249.23L277.9,343.49L277.92,388.02L277.98,426.88L278.23,240.66L278.54,270.94L278.56,252.46L278.57,231.64L278.92,427.55L279.25,331.01L279.27,356.94L279.41,487.64L279.95,264.91L279.97,239.17L280.08,226.02L280.2,283.56L280.22,335.12L280.3,428.92L280.43,226.51L280.93,291.12L280.95,273.53L281.07,240.68L281.22,429.55L281.59,278.67L281.61,317.52L281.82,247.49L282.17,446.89L282.38,382.22L282.4,381.95L282.46,285.14L282.67,503.94L283,417.06L283.02,445.33L283.08,470.04L283.23,269.2L283.62,322.29L283.64,282.34L284.01,431.68L284.14,250.27L284.35,273.12L284.37,293.84L284.61,254.52L284.93,438.85L285.11,300.18L285.13,276.33L285.15,263.33L285.46,475L285.73,336.73L285.75,366.86L285.88,503.42L286.42,294.54L286.44,271.27L286.79,428.84L287,224.85L287.16,279.53L287.18,327.05L287.25,419.51L287.47,215.48L287.89,264.23L287.91,229.41L288.18,410.38L288.4,189.88L288.57,308.39L288.59,351.86L288.96,266.88L289.17,482.09L289.36,418.25L289.38,390.62L289.57,449.13L289.71,245.79L290.17,252.65L290.19,257.26L290.5,435.21L290.81,253.26L290.99,428.94L291.01,410.53L291.1,250.9L291.43,435.79L291.78,316.1L291.8,331.56L292.2,294.17L292.42,486.64L292.59,440.15L292.61,427.58L292.82,462.51L293.42,251.24L293.44,252.82L293.46,296.42L293.75,436.1L294.06,251.43L294.14,335.67L294.16,383.51L294.21,433.13L294.52,252.72L294.85,306.38L294.87,283.78L294.99,263.65L295.16,440.35L295.49,353.17L295.51,380.72L295.66,514.19L296.19,279L296.21,260.33L296.24,300.38L296.32,256.27L296.44,299.14L296.46,343.22L296.53,432.24L297.15,249.26L297.17,292.86L297.19,268.74L297.46,422.39L297.62,243.91L297.83,299.89L297.85,338.71L298.06,247.49L298.45,439.09L298.62,381.7L298.64,379.1L298.7,278.45L298.91,513.67L299.22,383.95L299.24,416.54L299.32,471.07L299.63,261.01L299.88,291.86L299.9,278.44L300.25,436.61L300.56,244.69L300.61,289.2L300.63,340.6L300.71,429.37L301.31,236.83L301.35,278.57L301.37,252.09L301.39,238.31L301.7,475.68L301.87,420.35L301.89,413.81L302.16,515.91L302.41,317.82L302.55,449.93L302.57,451.61L302.78,219.61L303.03,409.78L303.05,405.64L303.16,219.87L303.49,409.44L303.8,250.25L303.82,275.9L303.96,420.19L304.11,232.93L304.34,324.69L304.36,369.6L304.56,230.71L304.92,432.94L305.08,345.63L305.1,347.21L305.19,269.11L305.27,387.73L305.31,434.93L305.43,508.35L305.91,284.19L305.93,247L306.05,230.62L306.3,414.53L306.61,266.89L306.63,286.77L306.74,420.53L306.99,230.38L307.26,333.61L307.28,295.94L307.34,226.94L307.69,392.9L308.02,293.2L308.04,294.75L308.46,285.62L308.67,484.95L308.87,412.24L308.89,396.93L309.06,432.35L309.68,253.94L309.7,294.88L309.99,414.8L310.22,223.72L310.4,360.39L310.41,389.81L310.45,412.19L310.69,223.71L311.01,280.17L311.03,262.02L311.13,226.94L311.46,460.58L311.63,399.28L311.65,396.83L311.71,311.85L311.9,480.58L312.35,421.66L312.37,377.92L312.77,413.29L313,226.73L313.14,282.87L313.16,316.68L313.49,227.74L313.7,415.14L313.87,275.25L313.89,248.11L314.16,407.06L314.38,198.36L314.55,288.96L314.57,336.03L314.96,267.39L315.17,457.22L315.34,393.98L315.36,383.85L315.56,418.01L315.81,201.54L316.27,222.29L316.29,249.95L316.48,409.11L316.7,204.57L317.03,313.46L317.05,267.96L317.18,200.51L317.47,433.77L317.76,316.28L317.78,337.54L318.21,308.01L318.4,501.89L318.59,429.67L318.61,417.58L318.8,447.17L319.5,165.51L319.54,203.4L319.56,244.17L319.73,380.58L319.95,185.04L320.29,229.38L320.31,207.58L320.33,191.17L320.66,399.08L320.95,277.07L320.97,289.32L321.05,314.83L321.07,359.74L321.45,299.25L321.65,485.98L321.84,417.44L321.86,404.11L322.05,427.97L322.73,159.24L322.79,201.65L322.81,243.37L323,373.08L323.21,153.58L323.54,222.71L323.56,197.57L323.66,162.05L323.93,377.79L324.2,273.62L324.22,307.22L324.24,279.25L324.86,453.32L324.87,453.49L324.89,462.85L325.18,308.63L325.38,343.2L325.4,301.52L325.78,349.16L325.98,157.24L326.15,260.96L326.17,312.94L326.25,373.66L326.44,146.57L326.81,190.39L326.83,173.73L327.64,405.89L327.72,344.34L327.74,323.62L328.14,466.25L328.43,276.41L328.47,313.39L328.49,350.92L328.55,398.93L328.76,166.03L329.13,214.79L329.15,197L329.22,188.92L329.48,394.07L329.57,256.37L329.59,233.7L329.94,398.14L330.17,198.92L330.31,256.54L330.33,281.73L330.42,391.32L330.62,182.9L331.08,317.62L331.1,320.11L331.22,279.12L331.39,445.98L331.64,361.13L331.66,312.45L331.81,390.74L332.01,158.63L332.47,160.29L332.49,162.13L332.74,369.37L332.9,217.83L332.92,185.78L332.96,160.06L333.21,360.65L333.59,288.26L333.61,324.69L333.86,185.39L334.17,381.95L334.33,302.34L334.35,303.88L334.46,257.81L334.66,426.39L334.89,355L334.91,319.64L335.06,406.16L335.26,265.25L335.66,316.55L335.68,338.03L335.86,309.11L335.89,345.98L335.91,362.5L336.05,441.1L336.34,286.83L336.53,314.33L336.55,282.39L336.96,340.16L337.11,196.3L337.29,248.03L337.31,285.33L337.71,263.48L337.9,413.87L338.08,358.51L338.1,355.54L338.33,390.65L338.5,259.83L338.72,339.42L338.74,358.46L339.1,325.25L339.3,449.91L339.51,397.89L339.53,386.34L339.7,414.41L339.9,255.09L340.32,296.78L340.34,289.36L340.36,282.17L340.63,427.7L340.84,374L340.86,373.07L340.94,326.11L340.96,309.19L341.15,473.47L341.65,266.81L341.67,240.69L342.02,367.58L342.23,163.4L342.39,236.87L342.41,282.23L342.68,164.25L342.95,350.63L343.1,219.83L343.12,178.21L343.41,332.33L343.61,134.2L343.78,252.69L343.8,288.1L344.4,445.49L344.61,383.12L344.63,371.11L344.79,408.42L345.48,179.61L345.5,168.57L346.2,368.77L346.26,295.23L346.28,240.92L346.66,352.73L346.86,132.55L347.03,226.51L347.05,263.62L347.45,240.65L347.65,416.77L347.84,345.11L347.86,336.47L348.05,338.6L348.25,102.19L348.44,234.21L348.46,265.94L348.52,308.79L348.73,82.55L349.08,125.49L349.1,101.24L349.14,132.55L349.18,62.62L349.23,126.94L349.25,188.93L349.45,273.15L349.64,63.85L349.97,205.81L349.99,140.47L350.1,68.36L350.43,318.72L350.62,316.69L350.64,313.9L350.7,279.04L350.74,324.35L350.76,359.31L350.9,428.07L351.17,277.49L351.36,284.68L351.38,217.07L351.77,305.56L351.96,73.45L352.13,156.25L352.15,203.53L352.23,281.65L352.42,56.09L352.85,136.71L352.87,83.85L352.89,59.42L353.16,293.1L353.49,227.15L353.51,218.42L353.52,203.9L354.12,382.3L354.14,400.69L354.74,65.6L355.26,126.81L355.28,190.38L355.48,265.23L355.67,42.19L356,196.29L356.02,128.54L356.13,34.45L356.41,243L356.75,141.68L356.77,146.48L357.39,376.02L357.62,305.81L357.64,253.57L357.8,308.91L358.45,57.33L358.49,66.6L358.51,109.48L358.92,58.6L359.19,291.04L359.27,167.42L359.29,142.22L359.38,122.1L359.65,350.2L359.9,238.33L359.92,269.58L360.62,458.7L360.74,398.78L360.75,403.33L360.87,312.05L360.89,298.39L361.03,407.67L361.26,172.08L361.55,325.65L361.57,273.39L361.97,353.02L362.17,136.27L362.32,213.65L362.34,252.24L362.88,346.84L363.02,149.28L363.04,148.19L363.09,126.1L363.87,426.04L363.89,423.37L363.91,407.56L364.49,142.07L364.72,348.24L364.74,354.44L364.76,357.35L364.81,272.81L364.83,211.75L364.95,140.49L365.2,353.07L365.55,232.35L365.57,244.29L365.8,193.74L366.13,398.32L366.3,265.73L366.32,235.67L366.34,211.51L366.65,411.51L366.96,343.77L366.98,375.08L367.12,464.3L367.66,283.31L367.68,282.08L367.83,270.4L368.45,402.22L368.49,388.33L368.51,365.2L368.91,393.24L369.13,178.36L369.28,245.84L369.3,283.05L369.59,170.73L369.86,383.8L370.07,330.08L370.09,330.78L370.13,309.04L370.15,251.89L370.36,452.96L370.85,297.8L370.87,237.68L370.98,170.1L371.25,377.12L371.6,248.06L371.62,289.14L371.91,183.44L372.16,388.47L372.3,190.48L372.32,187.65L372.62,382.11L372.84,148.46L373.09,360.21L373.11,365.73L373.4,231.75L373.46,306.57L373.48,348.03L373.61,440.01L374.15,162.11L374.17,160.38L374.23,153.7L374.94,387.08L374.98,370.14L375,340.32L375.16,193.91L375.41,397.12L375.76,259.16L375.78,274.81L376.01,204.89L376.36,409.97L376.55,358.75L376.57,365.39L376.59,366.73L376.61,360.52L376.63,318.35L376.86,493.1L377.42,232.1L377.44,270.64L377.73,410.22L377.96,197.87L378.13,349.36L378.15,381.4L378.19,401.33L378.41,195.43L378.73,285.7L378.75,236.47L379.12,384.75L379.33,156.92L379.47,240.22L379.49,248.9L379.89,229.35L380.13,443.68L380.3,396.86L380.32,375.73L380.51,412.28L380.72,191.53L381.11,194.92L381.13,194.15L381.19,181.88L381.9,385.94L381.94,366.91L381.96,330.68L382.37,388.44L382.58,177.08L382.72,247.49L382.74,258.83L383.14,236.07L383.35,447.78L383.51,385.48L383.53,383.31L383.61,264.05L383.72,382.44L383.74,392.52L383.76,397.31L383.84,296.78L383.86,235.42L384.22,363.79L384.44,141.86L384.59,233.36L384.61,278.56L384.82,194.79L385.15,406.95L385.33,263.21L385.35,228L385.62,395.33L385.77,196.02L386.04,379.45L386.06,396.35L386.1,402.16L386.22,311.43L386.35,339.32L386.37,281.43L386.39,276.46L386.49,424.65L386.51,446.02L386.62,482.25L387.12,273.35L387.14,254.61L387.16,251.07L387.38,305.01L387.39,349.78L387.47,423.38L388.07,228.12L388.09,224.26L388.61,210.96L388.94,464.89L388.96,451.16L389.35,475.69L389.62,306.77L389.71,417.2L389.73,447.34L389.81,493.05L390.1,340.45L390.43,401.61L390.45,402.66L390.56,284.6L390.64,387.67L390.66,412.91L390.72,435.99L390.87,233.94L391.26,309.56L391.28,264.6L391.32,234.41L391.65,421.11L392,276.97L392.01,296.84L392.25,238.44L392.58,426.35L392.77,357.29L392.79,363.39L392.87,263.77L392.96,409.59L392.98,440.18L393.12,485.44L393.33,316.54L393.58,336.49L393.6,291.64L393.97,424.46L394.26,229.79L394.33,295.34L394.35,337.77L394.57,232.15L394.97,463.8L395.13,418.54L395.15,411.22L395.36,474.53L395.65,272.3L395.82,459.8L395.84,461.95L396.11,281.6L396.25,471.55L396.27,487.43L396.31,500.38L396.58,320.54L396.79,433.34L396.81,384.13L397.22,421.44L397.43,227.93L397.58,284.27L397.6,331.3L397.68,414.88L397.91,221.26L398.32,267.74L398.34,242.56L398.38,221.88L398.63,436.42L398.97,298.46L398.99,339.35L399.36,272.57L399.55,490.43L399.79,451.79L399.81,413.41L399.98,459.82L400.29,231.15L400.58,256.93L400.6,240.85L400.64,284.9L400.75,222.28L400.81,272.23L400.83,290.2L400.93,418.5L401.22,224.46L401.56,275.94L401.58,249.21L401.68,223.95L401.85,421.67L402.22,304.29L402.24,345.54L402.61,260.16L402.82,489.18L403.03,431.8L403.05,394.45L403.23,458.43L403.54,239.93L403.83,254.91L403.85,235.47L403.87,235.93L403.88,283.77L404.17,422.18L404.46,225.24L404.56,344.36L404.58,385.96L404.91,232.96L405.1,437.8L405.22,253.48L405.24,236.07L405.59,443.3L405.82,360.94L405.84,317.25L405.86,261.94L406.05,499.7L406.59,301.22L406.61,282.04L406.96,435.49L407.25,219.04L407.33,281.33L407.35,334.13L407.71,218L407.89,424.81L408.08,269.3L408.1,255.59L408.18,221.3L408.27,334.08L408.29,382.71L408.64,235.18L408.83,439.03L409.01,359.72L409.03,363.2L409.1,270.87L409.22,451.62L409.24,473.46L409.3,502.57L409.57,306.33L409.82,344.06L409.84,294.98L410.21,433.5L410.5,222.36L410.57,285.22L410.59,338.85L410.96,224.87L411.13,431.95L411.31,272.55L411.33,248.58L411.4,215.02L411.6,426.37L411.97,299.33L411.98,334.56L412.35,266.25L412.56,486.27L412.76,420.23L412.78,407.41L412.99,454.41L413.28,228.68L413.59,234.96L413.61,238.05L413.74,224.3L413.92,425.5L414.42,400.41L414.44,354.01L414.85,427.21L415.14,229.78L415.21,300.57L415.23,335.64L415.6,252.34L415.81,496.57L416.01,432.49L416.03,421.06L416.24,468.33L416.53,231.7L416.8,268.3L416.82,258.35L417.17,433.49L417.46,232.77L417.51,279.66L417.53,302.05L417.92,249.36L418.09,462.27L418.27,317.42L418.29,295.98L418.38,239.11L418.52,427.91L418.54,449.8L418.58,463.17L418.83,332.67L418.85,252.68L419.04,501.69L419.6,270.87L419.62,252.47L419.64,253.3L419.66,292.38L419.95,441.3L420.24,233.01L420.34,345.41L420.36,390.32L420.68,228.96L420.88,450.73L421.05,287.03L421.07,264.58L421.15,231.25L421.34,431.44L421.71,303.97L421.73,338.1L422.1,286.45L422.29,506.62L422.5,428.07L422.52,415.64L422.73,475.05L423.02,233.36L423.33,246.85L423.35,251.1L423.66,436.87L423.95,227.35L424.16,409.79L424.18,361.92L424.42,231.3L424.59,427.6L424.94,295.47L424.96,310.8L425.34,267.18L425.54,497.13L425.75,434.8L425.77,427.98L425.98,471.71L426.27,243.85L426.58,248.66L426.6,245.56L426.91,426.42L427.06,234.59L427.41,396.56L427.43,353.89L427.66,227.47L427.84,418.88L428.2,292.86L428.22,335.92L428.61,281.45L428.78,502.44L429,445.7L429.02,441.05L429.23,471.74L429.52,234.72L429.85,240.61L429.87,286.46L430.16,428.09L430.45,223.47L430.54,333.75L430.56,378.98L430.78,231.82L431.08,438.97L431.2,253.8L431.22,237.91L431.24,238.57L431.26,286.72L431.37,247.81L431.57,436.94L431.9,345.82L431.92,376.58L432.09,503.26L432.59,274.08L432.61,257.88L432.77,241.37L432.86,344.99L432.88,387.94L432.94,435.78L433.23,231.26L433.52,251.17L433.54,232.54L433.56,232.73L433.58,274.28L433.85,422.34L434,228.37L434.26,341.11L434.27,392.29L434.62,243.86L434.8,437.07L435.01,381.58L435.03,386.64L435.09,267.27L435.18,408.84L435.2,454.56L435.3,500.76L435.55,308.57L435.8,332.04L435.82,283.52L436.01,236.92L436.19,433.61L436.56,290.88L436.58,346.97L436.65,439.87L436.94,233.86L437.31,265.3L437.33,253.67L437.41,236.29L437.48,293.1L437.5,339.17L437.79,242.69L438.04,448.21L438.26,379.15L438.28,384.9L438.3,385.11L438.32,361.82L438.33,281.4L438.55,504.76L439.07,286.21L439.09,264.63L439.13,243.53L439.44,436.35L439.8,286.78L439.82,337.08L440.36,434.66L440.52,240.37L440.54,285.51L440.56,260.19L440.83,429.2L440.96,235.19L441.2,285.77L441.21,331.96L441.58,267.91L441.78,494.07L442.01,447.64L442.03,419.65L442.2,466.67L442.82,232.26L442.84,231.14L442.94,230.63L443.15,434.62L443.65,409.2L443.67,362.45L443.92,233.03L444.08,427.11L444.44,293.76L444.46,338.04L444.83,283.61L445.02,506.58L445.26,449.77L445.27,420.8L445.47,479.1L445.62,254.55L446.05,262.44L446.07,244.97L446.09,245.41L446.11,290.5L446.4,434.02L446.55,244.6L446.78,344.84L446.8,388.32L446.86,434.97L447.07,245.57L447.44,256.34L447.46,236.49L447.48,236.7L447.5,281.05L447.54,234.57L447.77,425.68L448.16,369.11L448.17,402.58L448.29,487.26L448.81,284.81L448.83,260.56L448.87,236.88L449.18,434.37L449.53,276.29L449.55,295.79L449.64,434.19L450.26,239.24L450.28,290.39L450.3,268.52L450.42,234.53L450.57,427.78L450.94,306.81L450.96,339.36L451.34,272.34L451.56,495.82L451.75,437.54L451.77,411.54L451.94,483.22L452.56,246.71L452.58,246.49L452.89,443.11L453.39,418.35L453.41,380.32L453.82,442.87L453.95,256.64L454.17,303.36L454.19,317.21L454.59,299.17L454.77,510.99L455,456.49L455.02,432.08L455.19,484.85L455.81,241.17L455.83,239.29L456.14,418.35L456.39,222.54L456.64,391.8L456.66,353.72L457.07,416.76L457.2,233.95L457.43,282.29L457.45,313.31L457.84,274.45L458.05,505.57L458.25,418.99L458.27,402.83L458.46,454.2L458.61,243.37L459.04,269.33L459.06,253.21L459.1,291.58L459.23,251.62L459.27,279.59L459.29,297.98L459.39,433.5L459.99,237.95L460.02,284.35L460.04,261.85L460.1,247.41L460.31,436.65L460.68,316.07L460.7,351.58L461.09,294.94L461.3,513.58L461.49,450.8L461.51,430.08L462.17,478.39L462.31,249.31L462.33,242.91L462.77,237.69L463.1,434.86L463.12,427.64L463.14,406.05L463.56,429.43L463.7,242.42L463.91,298.16L463.93,313.09L464.34,294.85L464.55,515.22L464.74,433.34L464.76,401.77L464.95,463.29L465.55,239.24L465.57,240.79L465.88,435.53L466.39,414.07L466.4,384.06L466.48,254.67L466.81,436.24L467.16,296.67L467.18,313.36L467.58,301.33L467.8,522.79L467.99,468L468.01,443.39L468.2,478.22L468.82,240.38L468.84,284.15L469.13,421.67L469.36,212.6L469.52,320.31L469.54,364.13L469.59,410.34L469.81,197.08L470.17,226.08L470.19,200.02L470.27,185.04L470.41,265.88L470.43,276.79L470.83,273.64L471.04,490.72L471.2,416.48L471.22,418.44L471.45,428.35L471.66,199.47L471.84,323.39L471.86,358.48L472.13,199.79L472.38,408.03L472.49,230.58L472.51,208.29L472.53,208.46L472.55,253.38L472.59,195.09L472.84,403.89L473.23,309.43L473.25,347.8L473.46,196.38L473.83,416.49L474,356.31L474.02,356.99L474.08,277.93L474.31,477.83L474.6,361.44L474.62,387.72L474.7,454.61L474.85,253.68L475.28,267.37L475.3,250.95L475.39,244.33L475.55,326.46L475.57,374.19L475.84,239.71L476.09,427.18L476.21,254.59L476.23,237.22L476.32,214.13L476.52,384.29L476.53,401.46L476.55,406.35L476.65,261.25L476.67,239.41L476.77,206.59L477.04,412.26L477.29,357.23L477.31,348.99L477.35,291.64L477.56,479.08L477.95,436.05L477.97,432.47L478.64,148.86L478.78,226.4L478.8,256.52L478.89,376.43L479.09,133.72L479.51,237.68L479.53,202.06L479.55,185.76L479.8,393.74L480.17,269.8L480.19,288.04L480.81,469.94L481,407.18L481.02,389.26L481.19,442.84L481.43,178.67L481.87,211.32L481.89,213.72L482.12,413.97L482.22,265.74L482.24,247.26L482.59,410.46L482.8,209.14L482.93,294.46L482.95,299.23L483.18,225.71L483.53,430.84L483.73,357L483.75,359.98L483.84,298.14L483.94,438.28L483.96,456.08L484.04,487.08L484.33,312.92L484.5,379.14L484.52,327.79L484.67,181.91L484.91,383.25L485.27,266.19L485.29,288.74L485.6,202.96L485.85,390.61L486.01,250.03L486.03,219.45L486.05,201.33L486.32,396.07L486.66,298.4L486.68,325.2L487.09,310.41L487.28,486.18L487.46,419.74L487.48,412.76L487.69,425.57L487.92,183.51L488.15,390.03L488.17,390.71L488.83,157.69L488.98,241.89L489,268.16L489.31,158.32L489.54,370.81L489.72,216.75L489.74,177.45L489.76,152.65L490.03,377.35L490.36,291.25L490.38,318.75L490.53,467.5L491.05,225.44L491.07,198.2L491.17,157.14L491.42,358.26L491.69,258.82L491.71,285.06L491.88,393.81L492.54,161.16L492.56,162.34L492.58,171.2L493.01,164.12L493.31,382.73L493.39,293.23L493.41,288.64L493.78,444.03L494.07,266.09L494.22,363.13L494.24,337.55L494.67,349.39L494.86,119.37L495.02,212.93L495.04,237.05L495.33,166.45L495.58,376.97L495.77,196.9L495.79,173.24L495.87,256.76L495.89,301.56L496.25,169.38L496.56,385.39L496.62,315.92L496.64,304.81L496.66,303.78L496.68,318.68L496.81,312.52L496.83,272.73L496.85,268.33L496.95,400.05L496.97,410.93L497.03,437.06L497.3,268.91L497.32,232.67L497.36,253.97L497.37,291.23L497.45,346.26L497.65,94.45L498.01,162.17L498.03,143.45L498.05,143.81L498.07,188.43L498.11,116.83L498.38,336.9L498.77,267.21L498.79,302.25L499.04,143.04L499.31,351.72L499.46,206.09L499.48,169.39L499.5,148.13L499.77,371.85L500.1,281.32L500.12,304.76L500.27,455.33L500.8,231.05L500.82,213.2L500.91,186.23L500.97,265.64L500.99,309.77L501.38,181.44L501.63,372.43L501.76,197.7L501.78,235.2L502.09,360.64L502.28,162.07L502.48,285.54L502.5,321.55L502.75,184.54L503.06,372.78L503.19,278.88L503.21,271.26L503.48,423.3L503.5,427.71L503.54,442.9L504.02,332.1L504.04,322.54L504.08,308.1L504.41,449.43L504.76,333.55L504.78,356.1L505.4,502.56L505.57,461.09L505.59,450.12L505.8,457.34L506,317.13L506.27,443.82L506.29,445.16L506.31,445.72L506.33,442.6L506.34,421.94L506.6,316.97L506.79,470.53L507.1,368.81L507.12,399.77L507.2,446.37L507.54,297.12L507.78,315.92L507.79,306.36L507.85,289.89L508.64,474.68L508.76,450.26L508.78,450.73L508.9,378.8L508.92,358.55L509.05,459.02L509.38,340.58L509.69,393.83L509.71,392.14L509.84,319.78L509.88,368.26L509.9,396L510.04,474.83L510.54,282.94L510.56,263.91L510.91,357.92L511.1,153.27L511.29,256.61L511.31,287.91L511.56,132.95L511.83,334.05L511.95,178.28L511.97,177.54L512.49,140.04L512.8,354.19L512.82,350.99L512.84,315.2L513.28,426.99L513.57,258.04L513.59,271.09L513.61,300.48L513.69,352.35L513.88,95.82L514.23,178.87L514.25,147.22L514.35,80.08L514.62,283.22L514.89,236.76L514.91,279.76L515.55,335.93L515.74,114.2L515.78,128.53L515.8,167.33L516.53,403.89L516.61,345.33L516.63,352.92L516.82,263.09L516.88,327.53L516.9,340.71L516.94,352L517.07,139.99L517.09,169.67L517.11,118.06L517.13,93.18L517.4,305.79L517.75,241.03L517.77,257.75L518.06,159.01L518.33,352.14L518.48,229.36L518.5,190.51L518.79,352.89L518.99,148.28L519.16,240.33L519.18,276.35L519.59,253.97L519.78,419.89L519.97,350.13L519.99,341.79L520.19,356.76L520.38,97.4L520.63,301.17L520.65,307.84L520.84,87.93L521.11,309.2L521.37,168.5L521.38,214.96L521.77,153.11L522.04,350.07L522.12,225.27L522.14,205.27L522.24,186.85L522.51,375.01L522.74,325.9L522.76,325.81L522.83,281.49L522.89,357.07L522.91,381.95L523.03,437.49L523.3,271.69L523.49,292.09L523.51,232.74L523.9,324.86L524.09,101.94L524.25,215.26L524.27,233.2L524.57,145.33L524.83,343.56L525,175.28L525.02,150.63L525.08,192.88L525.1,242.81L525.48,150.26L525.75,354.69L525.85,299.34L525.87,286.48L526.08,259.43L526.14,335.89L526.16,361.7L526.28,427.4L526.55,255.21L526.74,267.35L526.76,206.23L527.15,318.36L527.34,87.54L527.51,205.74L527.53,242.57L527.8,112.92L528.07,318.54L528.19,131.36L528.21,139.47L528.27,92.34L529.02,343.33L529.06,338.4L529.08,318.61L529.31,293.36L529.52,439.73L529.81,317.04L529.83,338.52L529.91,406.81L530.14,260.41L530.55,303.18L530.57,289.16L530.84,374.29L531.05,166.01L531.24,286.4L531.26,317.4L531.51,145.14L531.79,349.97L531.86,212.48L531.88,192.78L531.98,172.54L532.25,362.42L532.48,306.43L532.5,306.22L532.56,261.38L532.66,391.14L532.67,405.46L532.75,441.15L533.02,290.06L533.22,350.29L533.24,293.55L533.37,145.39L533.64,365.37L533.99,251.96L534.01,295.63L534.11,384.14L534.3,137.56L534.67,194.58L534.69,171.87L534.76,136.24L535.03,359.17L535.28,215.86L535.3,268.69L535.32,238.65L535.94,428.41L535.96,436.67L536,457.62L536.1,377.98L536.15,383.34L536.17,379.86L536.41,395.12L536.5,233.84L536.52,205.81L536.89,347.02L537.08,106.1L537.24,203.56L537.26,230.43L537.35,342.85L537.55,108.66L537.97,189.93L537.99,148.78L538.01,122.87L538.28,346.76L538.63,242.58L538.65,267.3L539.03,248.32L539.25,438.72L539.44,368.51L539.46,357.45L539.65,384.35L539.87,148.4L540.33,148.51L540.35,150.53L540.58,356.15L540.68,202.97L540.7,178.91L541.05,354.93L541.26,131.19L541.39,213.61L541.41,224.43L541.51,351.18L541.72,124.77L542.17,264.99L542.19,264.36L542.28,208.89L542.5,410.87L542.73,302.63L542.75,244.14L542.9,363.17L543.02,160.14L543.04,137.6L543.11,119.8L543.19,244.3L543.27,214.4L543.29,248.09L543.58,124.87L543.83,355.17L544,198.6L544.02,157.71L544.04,133.41L544.29,354.15L544.68,261.65L544.7,299.6L544.76,356.96L544.97,127.95L545.45,313.46L545.47,319.66L545.53,252.65L545.67,427.99L545.69,436.12L545.74,451.66L545.99,291.55L546.21,353.94L546.23,306.41L546.61,385.67L546.83,161.08L546.98,251.55L547,293.92L547.08,376.38L547.29,147.53L547.68,177.15L547.7,178.64L547.75,168.65L548.49,402.38L548.53,389.18L548.55,371.54L548.78,272.54L548.95,462.9L549.3,362.29L549.32,387.63L549.4,434.21L549.65,219.56L549.94,298.17L549.96,247.97L550.32,391.57L550.54,176.98L550.69,261.7L550.71,301.23L551,189.9L551.33,452.18L551.5,396.57L551.52,385.84L552.03,268.17L552.24,450.16L552.26,451.58L552.8,228.9L553.07,394.79L553.09,408.76L553.11,412.12L553.19,307.88L553.21,263.5L553.55,402.06L553.8,213.05L553.94,277.99L553.96,318.96L554.04,397.14L554.27,192.14L554.64,199.54L554.66,197.59L554.71,186.14L555.45,442.63L555.47,443.83L555.51,451.98L555.72,303.39L555.74,290.19L555.89,413.88L556.11,183.04L556.43,280L556.45,233.77L556.59,181.93L556.82,379.87L557.17,252.37L557.19,262.86L557.5,188.82L557.77,388.68L557.92,244.46L557.94,212.16L557.96,191.6L558.23,405.45L558.56,339.66L558.58,368.02L558.75,468.05L559.26,276.76L559.28,255.79L559.29,251.42L559.62,433.32L559.64,431.44L559.87,337.26L559.89,282.58L560.07,434.77L560.2,235.29L560.59,357.63L560.61,314.13L561,418.48L561.21,221.44L561.36,296.49L561.38,332.95L561.75,271.33L562,479.77L562.16,427.32L562.18,420.47L562.39,443.69L562.6,220.97L562.99,223.18L563.01,222.28L563.06,214.71L563.76,414.5L563.82,390.45L563.84,348.28L563.92,234.12L564.32,459.08L564.57,361.15L564.59,372.74L565,299.03L565.21,488.27L565.38,439.51L565.4,435.04L565.64,460.1L565.79,255.05L566.06,416.68L566.08,430.47L566.1,434.19L566.18,321.04L566.2,274.31L566.56,416.89L566.85,234.18L566.91,274.9L566.93,291.6L567.03,419.66L567.63,236.07L567.67,288.14L567.69,262.95L567.78,243.67L567.97,430.97L568.32,377.31L568.34,405.9L568.44,477.9L568.98,285.81L569,267.06L569.35,429.53L569.64,237.32L569.71,298.38L569.73,344.24L570.1,236.58L570.28,425.04L570.41,249.46L570.43,249.12L570.57,241.32L571.22,434.58L571.24,428.25L571.26,415.22L571.49,272.01L571.69,488.43L572.03,382.59L572.05,407.82L572.11,449.7L572.42,241.91L572.67,313.42L572.69,270.65L573.06,420.44L573.35,235.12L573.41,286.85L573.43,301.4L573.52,417.37L574.12,218.8L574.14,218.6L574.2,217.47L574.95,474.47L574.99,470.63L575.01,454.78L575.38,455.67L575.65,251.82L575.79,398.32L575.8,422L575.84,436.45L576.11,234.06L576.37,365.57L576.38,313.72L576.58,243.91L576.77,444.56L577.12,301.23L577.14,320.68L577.53,257.72L577.72,453.58L577.91,390.9L577.93,392.65L577.99,284.32L578.12,482.05L578.14,495.48L578.18,505.68L578.43,400.01L578.45,322.32L578.61,473.34L578.92,241.17L579.17,319.45L579.19,280.26L579.38,237.95L579.55,433.55L579.9,300.89L579.92,319.43L580.31,282.6L580.48,463.49L580.66,339.53L580.68,321.1L580.97,458.74L581.24,273.29L581.29,364.89L581.31,390.97L581.43,485.07L581.97,290.67L581.99,272L582.34,420.34L582.57,226.74L582.71,288.98L582.73,336.18L583.03,224.97L583.27,413.43L583.44,275.13L583.46,249.51L583.54,231.04L583.73,431.33L584.1,315.69L584.12,351.1L584.48,271.6L584.68,499.07L584.91,436.65L584.93,383.56L585.12,476.3L585.41,256.43L585.7,276.24L585.72,262.32L585.76,312.81L585.88,241.17L585.95,304.47L585.97,355.35L586.05,441.43L586.34,237.77L586.65,238.63L586.67,240.67L586.79,238.55L587.46,452.87L587.5,436.69L587.52,425.62L587.73,276.12L587.93,507.71L588.27,394.6L588.29,427.64L588.37,482.68L588.66,255.47L588.93,288.01L588.95,270.76L589.3,441.09L589.59,235.04L589.65,281.15L589.67,303.87L590.05,248.91L590.23,444.78L590.4,305.63L590.42,283.69L590.52,251.23L590.71,454.41L591.02,348.94L591.04,369.38L591.17,506.2L591.73,290.3L591.75,271.53L591.91,251.58L592,368.41L592.02,412.63L592.08,448.47L592.35,253.54L592.64,287.45L592.66,279.02L593.01,438.95L593.28,245.21L593.38,309.74L593.4,353.27L593.74,247.56L593.96,451.34L594.15,387.02L594.17,388.01L594.23,274.63L594.44,497.25L594.77,382.33L594.79,412.56L594.87,469.23L595.16,240.54L595.41,302.61L595.43,265.53L595.79,436.7L595.93,230.63L596.14,283.71L596.16,298.73L596.39,245.7L596.72,440.96L596.9,297.99L596.92,278.12L596.99,264.8L597.21,447.01L597.55,381.23L597.57,411.95L597.67,491.72L598.21,290.98L598.23,272.33L598.58,434.36L598.71,244.31L598.93,291.3L598.94,308.69L599.18,232.42L599.51,437.84L599.68,291.98L599.7,266.56L599.8,245L599.97,440.17L600.34,317.71L600.36,346.7L600.72,281.61L600.92,509.56L601.15,446.44L601.17,410.84L601.36,476L601.61,258.73L601.94,270.78L601.96,254.75L602.25,425.26L602.27,441.46L602.29,442.68L602.33,420.01L602.35,379.68L602.75,442.21L603.04,250.01L603.12,307.56L603.14,353.63L603.35,251.62L603.7,462.24L603.89,392.85L603.91,393.64L603.97,293.48L604.07,424.81L604.09,459.32L604.22,506.23L604.44,335.63L604.69,358.47L604.71,311.29L605.07,439.26L605.21,249.38L605.44,306.49L605.46,355.9L605.83,248.06L606,439.03L606.14,250.43L606.16,248.46L606.21,245.93L606.95,443.35L606.99,425.94L607.01,412.32L607.22,285.26L607.47,493.49L607.76,380.53L607.78,414.28L607.86,466.18L608.01,249.14L608.42,275.61L608.44,260.3L608.48,241.62L608.78,428.62L609.13,285.53L609.15,298.66L609.25,427.06L609.85,238L609.87,235.43L609.93,228.35L610.72,477.45L610.74,449.63L611.1,454.22L611.32,225.86L611.53,399.6L611.55,409.73L611.57,412.92L611.65,306.64L611.67,263.52L612.03,419.19L612.25,219.73L612.4,287.46L612.42,333.62L612.71,221.74L612.96,419.59L613.13,281.98L613.15,256.15L613.17,242.22L613.44,428.36L613.75,327.44L613.77,354.46L613.91,488.26L614.45,291.92L614.47,273.58L614.82,424.48L614.95,236.01L615.18,308.63L615.2,352.63L615.42,243.51L615.74,432.04L615.88,253.07L615.9,258.17L616.34,256.2L616.69,447.4L616.71,441.54L616.73,429.89L616.96,292.76L617.17,489.16L617.5,396.31L617.52,426.89L617.58,469.36L617.75,261.61L618.14,320.39L618.16,280.47L618.53,433.03L618.68,248.91L618.88,296.49L618.9,309.84L619.01,447.7L619.61,260.79L619.63,305.24L619.65,281.68L619.67,268.98L619.92,448.57L620.27,351.33L620.29,380.86L620.44,498.66L620.96,279.42L620.98,255.93L621.08,225.23L621.31,427.66L621.62,271.77L621.64,299.22L621.66,296.61L621.7,352.24L621.72,390.76L621.93,253.65L622.24,433.04L622.36,266.31L622.38,248.49L623.19,450.53L623.28,383.54L623.3,374.76L623.32,374L623.38,400.14L623.4,403.03L623.48,313.48L623.57,456.93L623.59,480.18L623.94,354.83L624.12,511.47L624.25,423.72L624.27,432.26L624.33,437.55L624.39,341.2L624.41,332.04L624.56,480.58L625.14,280.36L625.16,263.13L625.18,263.31L625.2,308.23L625.49,441.11L625.74,253.07L625.87,368.2L625.89,405.17L626.09,261.39L626.44,451.23L626.63,392.8L626.65,394.99L626.73,296.96L626.88,498.91L626.9,502.44L626.94,513.36L627.01,441.5L627.03,432.05L627.32,476.43L627.5,269.49L627.56,279.91L627.58,280.95L627.65,272.07L627.75,404.89L627.77,426.66L627.81,440.16L627.96,257.52L628.33,367.52L628.35,315.84L628.52,217.38L628.74,420.38L629.1,285.05L629.12,326.44L629.35,219.42L629.68,422.91L629.88,355.78L629.9,361.85L629.97,299.62L630.11,462.72L630.13,470.21L630.19,488.6L630.44,325.11L630.65,396.14L630.67,336.44L631.06,412.66L631.27,209.13L631.42,275.44L631.44,318.99L631.52,404.65L631.73,196.56L632.12,201.37L632.14,201.07L632.2,188.66L632.93,428.96L632.97,421.54L632.99,404.24L633.22,303.79L633.43,490.27L633.74,392.43L633.76,422.65L633.84,471.63L633.99,269.05L634.4,291.2L634.42,274.69L634.46,253.94L634.77,433.96L635.13,310.99L635.15,354.29L635.23,428.99L635.44,244.87L635.81,255.92L635.83,234L635.91,229.7L636.06,317.93L636.08,354.73L636.47,304.81L636.68,500.27L636.87,437.63L636.89,417.2L637.09,460.09L637.69,239.13L637.71,235.97L638.01,415.53L638.25,212.54L638.48,403.65L638.5,399.65L638.61,208.99L638.94,411.97L639.25,279.99L639.27,306.96L639.46,432.41L639.72,298.69L639.77,376.13L639.79,406.4L640.18,346.38L640.39,499.6L640.55,427.51L640.57,429.06L640.8,457.8L640.95,260.69L641.2,387.21L641.22,411.89L641.26,427.2L641.51,219.96L641.8,324.84L641.82,280.79L642.19,402.56L642.33,216.52L642.54,282.09L642.56,290.33L643.2,490.54L643.37,434.32L643.39,424.18L643.58,453.59L644.28,208.3L644.3,211.14L644.72,210.13L644.97,400.84L645.07,255.95L645.09,240.74L645.13,220.84L645.44,408.98L645.77,273.4L645.79,298.73L645.83,320.22L645.84,362.12L646.23,295.47L646.44,493.55L646.62,436.99L646.64,422.84L646.83,458.53L647.45,236.07L647.55,241.23L647.56,262.33L647.76,418.06L647.99,223.68L648.3,313.21L648.32,265.91L648.45,203.25L648.71,398.88L649.03,292.8L649.05,292.11L649.69,477.08L649.88,411.7L649.9,397.6L650.1,480.93L650.75,247.4L650.77,248.8L651.01,417.96L651.14,229.31L651.53,355.92L651.55,314.37L651.93,416.54L652.07,234.38L652.3,306.18L652.32,328.02L652.73,302.95L652.92,487.81L653.11,428.53L653.13,412.56L653.33,454.63L653.58,210.24L654.04,219.84L654.06,249.28L654.25,405.96L654.49,199.94L654.81,251.77L654.83,230.94L654.93,190.06L655.18,392.54L655.53,284.6L655.55,283.16L656.19,477.02L656.38,412.98L656.4,395.49L656.57,439.33L657.17,229.24L657.25,238.9L657.27,238.58L657.29,238.77L657.31,256.64L657.5,410.61L657.71,207.67L658.04,302.55L658.06,250.57L658.18,186.85L658.43,410.82L658.72,308.88L658.74,334.43L658.76,302.28L659.38,483.33L659.4,483.4L659.42,495.57L659.71,337.52L659.9,340.62L659.92,286.43L659.98,243.61L660.29,424.89L660.65,302.8L660.67,331.45L660.75,414.6L661.35,224.5L661.37,223L661.81,207.18L662.16,409.29L662.2,402.08L662.22,383.59L662.47,298.77L662.59,482.54L662.97,351.46L662.99,384.36L663.07,443.47L663.22,243.93L663.65,258.16L663.67,237.85L663.75,225.94L663.92,314.27L663.94,357.79L664.15,220.28L664.46,411.63L664.58,249.54L664.6,237.69L664.69,220.4L664.93,398.91L665.22,282.57L665.23,313.11L665.25,289.7L665.85,454.77L665.87,465.41L665.93,494.49L666.16,405.94L666.18,356.57L666.32,451.08L667.01,204.08L667.03,208.99L667.05,236.04L667.46,163.37L667.73,395.41L667.81,256.06L667.82,234.5L668.17,390.42L668.39,185.92L668.52,271.91L668.54,267.24L669.18,455.31L669.37,383.01L669.39,374.79L669.56,409.91L669.78,183.96L669.97,330.62L669.99,359.99L670.05,383.42L670.26,186.48L670.59,255.79L670.61,231.54L670.98,386.84L671.17,175.63L671.32,239.76L671.34,253.92L671.58,194.62L671.94,401.87L672.14,352.35L672.16,348.54L672.21,321.92L672.43,463.19L672.79,439.49L672.81,441.86L672.89,377.87L672.91,330.12L673.3,419.48L673.49,248.15L673.66,301.2L673.68,338.92L673.95,251.77L674.26,423.8L674.44,362.86L674.46,362.66L674.49,344.4L674.75,483.81L675.07,408.27L675.09,433.84L675.19,464.05L675.48,320.26L675.79,402.38L675.81,399.71L675.83,400.03L675.87,389.04L675.89,377.82L676.08,430.78L676.27,284.59L676.49,380.94L676.5,400.54L676.54,411.03L676.74,280.8L677.08,339.42L677.1,314L677.2,279.77L677.51,411.53L677.8,348L677.82,374.95L677.99,473.5L678.26,365.4L678.59,402.4L678.61,402.08L678.69,376.57L678.71,351.22L678.92,474.56L679.19,321.48L679.31,427.64L679.33,429.3L679.98,220.93L680.16,286.68L680.18,326.92L680.24,377.45L680.45,199.68L680.82,229.09L680.84,211.34L680.87,242.49L680.89,208L680.91,188.97L680.99,261.82L681.01,301.77L681.38,188.12L681.67,369.66L681.69,372.58L681.96,291.66L681.98,285.83L682.17,434.38L682.65,252.51L682.67,223.33L683.04,346.06L683.23,140.49L683.41,215.97L683.43,255.28L683.7,118.39L683.97,331.63L684.12,213.19L684.14,176.12L684.43,354.19L684.62,143.14L684.8,232.04L684.82,263.97L685.22,256.06L685.42,428.12L685.61,355.28L685.63,345.46L685.71,263.18L685.77,336.06L685.78,352.64L685.82,362.82L686,153.81L686.02,127.48L686.07,175.26L686.09,236.67L686.29,331.86L686.48,120.27L686.83,213.81L686.85,187.58L686.94,123.88L687.21,332.19L687.56,216.89L687.58,229.36L687.87,145.26L688.2,354.15L688.34,282.65L688.36,284.16L688.47,244.27L688.66,414.94L689.11,311.5L689.13,275L689.26,96.25L689.53,326.42L689.88,250.86L689.9,269.5L690.19,176.42L690.44,359.92L690.62,227.74L690.64,186.67L690.93,340.47L691.12,103.12L691.31,284.08L691.33,314.88L691.53,281.17L691.91,436.94L692.13,381.39L692.14,370.2L692.3,397.69L692.51,191.21L692.96,226.26L692.98,207.87L693.05,283L693.07,319.02L693.44,181.93L693.69,373.01L693.85,201.28L693.87,241.31L694.16,365.65L694.37,154.74L694.58,323.37L694.6,345.9L694.97,280.05L695.16,435.66L695.35,368.95L695.37,359.56L695.57,384.17L695.76,212.9L696.24,249.37L696.26,259.34L696.49,352.12L696.69,120.59L697.02,267.93L697.04,208.12L697.42,336.74L697.62,123.8L697.77,214.25L697.79,218.94L698.41,407.26L698.6,348.17L698.62,338.27L698.81,360.76L699.01,124.04L699.2,290.22L699.22,321.96L699.28,352.32L699.49,148.3L699.82,209.95L699.84,178.99L700.21,333.41L700.4,102.11L700.55,199.32L700.57,208.93L700.86,106.58L701.15,343.41L701.35,277.53L701.37,288.1L701.44,268.05L701.64,429.88L702.1,340.98L702.12,284.41L702.53,352.35L702.72,135.21L702.87,220.73L702.89,254.96L702.99,348.39L703.18,118.28L703.57,129.5L703.59,122.2L704.11,90.36L704.42,348.4L704.44,336.6L704.46,305.68L704.67,256.27L704.88,436.38L705.17,312.55L705.19,326.19L705.29,408.82L705.5,171.5L705.85,245.26L705.87,223.11L705.97,167.65L706.22,377.1L706.57,265.65L706.59,276.41L706.68,405.25L707.3,209.85L707.32,254.94L707.34,228.02L707.36,208.31L707.67,405.63L707.96,318.17L707.98,346.49L708.13,464.46L708.63,249.54L708.65,220.41L709,378.09L709.21,143.26L709.37,229.78L709.39,265.4L709.6,173.9L709.93,380.69L710.1,250.82L710.12,219.5L710.14,198.04L710.39,393.43L710.76,302.93L710.78,321.95L711.17,277.08L711.38,478.93L711.57,412.87L711.59,398.19L711.79,436.23L712.4,189.23L712.44,190.67L712.46,164.77L712.5,173.28L712.52,217.05L712.71,384.13L712.93,138.57L713.26,271.96L713.27,208.99L713.66,348.99L713.85,105.18L714.01,207.46L714.03,237.89L714.63,432.1L714.84,364.19L714.86,321.34L715.03,402.43L715.25,177.66L715.65,196.44L715.67,247.19L715.71,194.79L715.96,389.84L716.35,320.3L716.37,345.42L716.64,210.4L716.97,451.24L717.16,399.59L717.18,361.89L717.37,470.51L717.66,303.98L717.8,468.93L717.82,475.98L717.88,488.74L718.09,419.33L718.11,368.47L718.28,452.58L718.9,209.09L718.92,250.59L719.21,393.14L719.42,174.93L719.62,337.92L719.63,364.31L719.89,168.13L720.14,387.82L720.21,292.09L720.23,237.58L720.35,163.1L720.62,384.47L720.93,273.83L720.95,300.05L721.14,442.31L721.63,232.81L721.65,208.66L721.99,368.96L722.21,126.64L722.38,245.27L722.4,289.79L722.67,111.06L722.92,354.2L723.04,173.34L723.06,147.32L723.13,119.31L723.25,233.36L723.29,222.99L723.31,257.24L723.6,145.63L723.89,382.8L724.08,314.1L724.1,318.54L724.14,260.96L724.27,389.23L724.29,404.01L724.39,432.48L724.62,311.03L724.84,353.98L724.85,309.32L725.24,400.19L725.45,188.05L725.61,274.8L725.63,311.51L725.71,398.84L725.92,172.6L726.32,203.92L726.34,228.14L726.65,374.44L726.85,137.51L727.04,306.54L727.06,334.41L727.41,219.7L727.64,416.92L727.79,332.95L727.81,334.14L728.04,363.2L728.24,112.38L728.41,248.45L728.43,290.27L728.51,347.94L728.7,108.55L729.07,174.61L729.09,152.87L729.11,151.95L729.13,191.57L729.17,124.11L729.47,362.91L729.8,322.16L729.82,351.53L730.09,256.93L730.36,418.9L730.54,337.6L730.56,338.21L730.6,339.29L730.62,331.18L730.63,266.96L730.67,295.22L730.69,314.8L730.89,443.47L731.37,257.13L731.39,229.54L731.49,205.06L731.74,417.39L732.07,302.59L732.08,303.48L732.2,447.17L732.36,257.81L732.74,320.44L732.76,272.59L733.13,423.54L733.26,232.52L733.48,278.1L733.5,296.15L733.88,267.08L734.13,499.33L734.29,452.61L734.31,440.85L734.52,467.35L735.14,245.06L735.16,290.2L735.45,428.34L735.74,239.6L735.83,341.14L735.85,379.96L735.91,425.61L736.2,237.17L736.49,250.17L736.51,237.59L736.76,341.45L736.78,386.05L737.13,278.06L737.32,486.33L737.56,434.22L737.57,395.74L737.75,467.85L737.92,251.03L738.35,261.94L738.37,246.34L738.39,247.24L738.41,290.44L738.7,431.04L738.85,238.16L739.08,349.49L739.1,385.4L739.45,239.03L739.62,432.21L739.74,262.67L739.76,246.73L739.91,244.71L739.99,309.51L740.01,350.65L740.38,279.04L740.57,493.4L740.78,426.67L740.8,414.01L741,463.15L741.62,251.07L741.63,251.86L741.94,428.73L742.23,223.49L742.43,419.61L742.45,398.84L742.7,215.57L742.87,420.14L743.22,287.64L743.24,302.55L743.63,265.75L743.84,484.68L744.03,420.45L744.05,403.14L744.24,465.52L744.55,235.03L744.88,238.16L744.9,287.32L745.02,229.59L745.19,432.43L745.58,355.62L745.6,395.03L745.95,279.79L746.12,460.29L746.29,325.1L746.31,305.83L746.41,266.41L746.6,459.99L746.91,339.71L746.93,357.08L747.09,479.79L747.61,276.4L747.63,258.48L747.78,228.19L747.98,426.8L748.34,290.69L748.36,340.85L748.44,431.95L748.71,222.29L749.08,280.18L749.1,260.78L749.37,422.84L749.66,225.81L749.73,288.18L749.75,333.5L750.12,247.81L750.31,476.02L750.53,412L750.55,393.49L750.76,448.87L751.05,212.06L751.36,220.32L751.38,223.95L751.69,418.03L751.98,203.73L752.19,393.26L752.21,344.44L752.44,194.54L752.62,413.17L752.98,263.53L753,314.69L753.37,218.17L753.56,468.99L753.78,410.01L753.79,390.88L754.01,442.62L754.3,202.44L754.57,253.39L754.59,237.2L754.94,421.01L755.23,213.87L755.28,256.45L755.3,276.55L755.69,216.95L755.86,424.63L756.04,271.14L756.06,250.98L756.15,229.55L756.35,428.94L756.66,296.11L756.67,322.33L756.83,476.57L757.37,249.25L757.39,223.93L757.43,268.2L757.54,205.48L757.62,265.43L757.64,325.75L758.01,200.22L758.18,423.07L758.36,263.24L758.38,242.27L758.47,209.55L758.65,428.32L759.01,273.97L759.03,325.18L759.4,214.5L759.59,428.45L759.79,357.06L759.81,359.11L759.86,239.51L760.04,474.59L760.06,477.47L760.14,454.18L760.15,429.69L760.48,449.41L760.79,218.01L760.91,376.51L760.93,400.73L761.26,216.03L761.43,420.01L761.51,296.53L761.53,259.69L761.72,215.86L761.89,420.72L762.24,260.41L762.26,277.9L762.65,223.23L762.84,424.65L763.02,346.77L763.04,349.96L763.11,248.77L763.31,472.52L763.56,371.78L763.58,290.45L763.75,445.56L764.04,232.24L764.29,307.56L764.31,270L764.5,229.22L764.64,427.2L765.03,283.71L765.05,303.96L765.14,432.48L765.43,237.01L765.78,293.24L765.8,271.87L765.9,233.72L766.09,438.81L766.4,321.98L766.42,347.43L766.55,484.24L767.11,267.67L767.13,245.48L767.29,237.58L767.37,301.68L767.38,350.92L767.75,234.05L767.93,434.76L768.06,242.76L768.08,241.3L768.22,236.35L768.39,434.27L768.89,413.16L768.91,371.81L768.99,249.67L769.34,447.79L769.67,346.45L769.69,372.21L769.86,495.71L770.4,251.39L770.42,294.9L770.71,435.73L771,221.49L771.1,341.19L771.12,384.91L771.17,433.61L771.46,218.91L771.75,243.21L771.77,229L771.93,215.3L772.02,326.39L772.04,375.55L772.39,222.56L772.59,434.92L772.78,367.02L772.8,368.83L772.86,254.82L773.05,482.57L773.07,481.06L773.11,481.47L773.32,305.27L773.44,431.41L773.46,448.31L773.49,456.54L773.78,239.85L774.02,366.23L774.04,317.5L774.42,429.08L774.71,234.22L774.79,293.38L774.81,342.59L774.89,426.83L775.18,223.94L775.52,282.87L775.54,257.86L775.64,231.86L775.83,430.68L776.14,323.41L776.16,350.15L776.32,481.46L776.84,289.53L776.86,272.3L777.21,425.77L777.5,235.3L777.57,285.78L777.59,341.88L777.82,235.3L778.13,425.91L778.27,241.36L778.29,239.55L778.42,232.67L779.08,432.6L779.1,429.66L779.12,413.63L779.35,270.42L779.54,474.9L779.89,373.16L779.91,398.46L779.99,450.86L780.28,243.13L780.55,268.36L780.57,248.15L780.59,231.17L780.92,418.94L781.27,261.2L781.28,285.08L781.38,422.5L781.52,233.92L782.02,285.1L782.04,266.92L782.15,248.35L782.33,431.82L782.66,343.44L782.68,372.98L782.79,481.3L783.35,273.93L783.37,252.39L783.39,246.73L783.62,360.68L783.64,394.25L783.7,437.2L783.86,242.17L784.28,261.22L784.3,239.04L784.32,237.95L784.34,284.47L784.63,432.87L784.78,238.72L785.02,350.93L785.03,388.71L785.25,233.98L785.58,440.72L785.73,341.64L785.75,347.29L785.85,291.73L786.04,484.52L786.29,401.88L786.31,327.14L786.48,464.66L786.79,237.59L786.91,408.46L786.93,424.88L786.95,428.39L787.03,315.85L787.05,270.57L787.26,236.94L787.41,429.53L787.78,294.01L787.8,344.83L787.88,430.16L788.48,236.21L788.5,232.9L789.31,472.73L789.33,476.44L789.54,389.48L789.56,312.74L789.58,308.89L789.67,419.56L789.69,434.01L789.73,440.17L789.85,260.92L789.87,244.44L789.89,243.42L789.91,285.25L790.2,421.61L790.35,235.55L790.58,346.11L790.6,385.9L790.8,236.3L791.12,427.83L791.22,279.77L791.24,263.95L791.59,429.96L791.74,247.26L791.94,289.67L791.96,308.29L792.34,282.73L792.56,482.62L792.75,431.48L792.77,423.66L792.98,461.31L793.58,251.24L793.6,252.9L793.62,299.24L793.75,262.48L793.97,456.79L794.28,367.77L794.3,404.15L794.37,456.75L794.68,253.09L795.01,301.77L795.03,284.02L795.15,257.36L795.32,443.63L795.65,342.99L795.67,371.17L795.82,482.81L796.34,261.19L796.36,242.86L796.46,227.39L796.69,413.24L797,257.25L797.02,281.33L797.08,346.29L797.1,386.58L797.16,428.91L797.29,253.01L797.74,265.07L797.76,247.47L797.93,243.26L798.01,336.99L798.03,380.67L798.24,243.2L798.57,430.99L798.76,356.67L798.78,359.38L798.82,347.74L798.84,291.37L798.86,271.75L799.07,477.67L799.42,435.82L799.44,450.41L799.48,459.13L799.63,269.84L799.67,290.9L799.69,280.62L799.79,263.54L799.84,323.95L799.86,367.74L799.94,446.18L800.54,250.63L800.56,247.47L800.87,425.45L801.18,234.51L801.37,394.89L801.39,367.4L801.49,239.79L801.82,426.52L802.14,340.57L802.16,373.45L802.32,483.85L802.84,270.29L802.86,253.22L803.03,236.28L803.13,380.39L803.15,403.74L803.19,420.15L803.5,228.08L803.73,307.91L803.75,265.73L804.1,447.54L804.27,223.35L804.46,248.64L804.48,282.92L804.71,233.64L805.1,423.64L805.26,362.67L805.28,362.12L805.35,270.26L805.53,475.45L805.55,475.72L805.57,482.13L805.82,332.52L806.01,416.74L806.03,386.71L806.44,420.07L806.74,231.59L806.8,288.7L806.82,340.1L807.05,230.65L807.36,429.8L807.54,292.33L807.56,273.87L807.83,432.22L808.14,247.43L808.19,303.75L808.21,343.88L808.6,270.97L808.81,490.7L808.99,429.14L809.01,422.61L809.22,446.86L809.84,232.55L809.86,275.38L809.9,237.68L810.21,452.97L810.51,356.46L810.53,386.55L810.61,442.03L810.75,241.56L811.17,275.07L811.19,257.67L811.23,238.72L811.56,426.65L811.87,305.45L811.89,333.46L812.08,473.13L812.56,269.58L812.58,240.97L812.68,198.04L812.93,409.66L813.3,275.43L813.32,308.6L813.4,394.99L813.61,191.99L814.03,240.99L814.05,210.88L814.07,194.26L814.32,399.19L814.69,291.55L814.71,319.59L815.12,286.14L815.33,473.33L815.5,402.69L815.52,390.99L815.71,418.49L815.93,189.88L816.14,380.65L816.16,396.68L816.18,400.71L816.26,304.06L816.28,259.01L816.33,226.91L816.64,407.75L816.99,284.72L817.01,295.96L817.24,242.62L817.57,427.95L817.74,297.77L817.76,276.61L817.78,266.05L818.05,429.99L818.38,324.36L818.4,359.73L818.56,489.75L819.08,269.97L819.1,248.14L819.43,401.59L819.66,204.01L819.77,273.45L819.79,288.86L820.35,442.98L820.51,249.15L820.53,290.99L820.55,266.05L820.82,429.44L821.03,234.66L821.21,323.72L821.22,365.06L821.61,282.42L821.8,472.01L821.98,405.53L822,398.39L822.21,418.42L822.89,154.28L822.95,206.02L822.96,243.83L823.27,197.59L823.6,393.99L823.7,241.51L823.72,215.44L823.83,163.65L824.07,378.11L824.41,280.26L824.43,287.54L825.05,470.33L825.25,412.13L825.26,400.07L825.46,438.29L825.69,231.9L825.92,411.05L825.94,416.49L825.98,418.7L826.25,268.42L826.33,363.4L826.35,382L826.39,403.37L826.6,188.22L826.93,301.28L826.95,246.74L827.06,201.47L827.31,407.1L827.66,282.7L827.68,292.21L828.11,288.34L828.3,474.05L828.49,405.56L828.51,390.77L828.71,420.52L828.92,188.27L829.42,198.4L829.44,227.59L829.63,386.39L829.87,190.91L830.19,240.77L830.21,219.6L830.33,170.94L830.56,369.5L830.91,257.79L830.93,258.55L831.35,252.62L831.57,422.44L831.74,365.19L831.76,359.81L831.95,393.15L832.17,169.17L832.4,371.85L832.42,376.95L832.46,360.82L832.48,334.19L832.63,198.07L832.88,392.93L833.23,261.4L833.25,268.85L833.35,390.6L833.95,188.61L833.96,183.41L834.02,163.88L834.8,469.31L834.83,449.61L834.85,428.34L835.2,429.33L835.43,199.72L835.63,357.74L835.65,373.46L835.67,380.09L835.8,187.37L835.82,180.03L836.13,357.66L836.36,132L836.63,330.41L836.65,312.96L836.81,160.33L837.06,363.51L837.41,263.98L837.42,265.95L838.04,426.72L838.22,357.35L838.24,352.69L838.45,393.96L838.68,156.35L838.89,332.65L838.91,340.8L838.93,344.62L838.99,265.5L839.01,203.83L839.13,114.62L839.4,353.1L839.71,259.4L839.73,246.67L840.07,199.15L840.31,383.02L840.38,298.34L840.4,250.5L840.54,199.1L840.79,382.53L841.12,269.14L841.14,292.39L841.29,423.27L841.83,218.54L841.85,213.84L841.93,192.39L842.64,378.98L842.68,353.93L842.7,313.89L843.11,362.84L843.3,177.2L843.46,223.32L843.48,241.16L843.77,204.89L844.08,397.15L844.25,316.21L844.27,315.94L844.35,294.73L844.52,419.75L844.54,435.7L844.56,440.3L844.81,326.08L844.83,290.06L844.85,289.62L844.87,307.51L844.96,394.33L845.18,210.34L845.58,253.08L845.6,229.46L845.62,214.09L845.89,369.26L846.26,288.19L846.28,320.62L846.55,243.46L846.82,376.46L846.99,290.11L847.01,282.17L847.34,419.72L847.57,318.75L847.59,303.27L847.81,460.47L848.06,332.13L848.08,298.47L848.21,408.96L848.31,299.97L848.33,276.06L848.68,367.91L848.87,179.38L849.06,271.27L849.08,312.43L849.33,166.51L849.6,368.09L849.76,235.54L849.78,205.25L849.8,185.93L850.07,367.41L850.42,273.58L850.44,294.84L850.86,270.64L851.05,428L851.19,348.28L851.21,347.94L851.32,261.29L851.46,369.99L851.52,308L851.54,241.53L851.65,141.5L851.92,339.2L852.29,238.59L852.31,276.59L852.39,338.94L852.6,147.38L853.01,203.7L853.03,165.39L853.32,340.08L853.51,126.02L853.7,236.59L853.72,272.54L854.11,244.9L854.3,400.35L854.49,319.28L854.51,312.77L854.71,329.49L854.9,109.45L855.07,218.99L855.09,258.62L855.17,323.32L855.36,118.56L855.75,141.35L855.77,137.03L855.83,100.36L856.56,332.94L856.6,300.25L856.62,265.63L856.76,128.11L857.09,339.51L857.36,249.01L857.38,272.65L857.55,405.72L858.07,157.27L858.09,149.24L858.42,317.1L858.61,88.01L858.92,274.6L858.94,239.1L859.08,126.03L859.35,338.2L859.68,238.51L859.7,238.57L860,168.71L860.28,361.62L860.47,304.83L860.49,304.36L860.6,264.32L860.66,347.61L860.68,371.29L860.8,417.83L861.07,259.88L861.26,271.96L861.28,212.21L861.42,133.18L861.67,330.8L862.02,225.53L862.03,250.61L862.34,150.3L862.58,342.06L862.75,201.49L862.77,162.19L863.06,331.24L863.25,125.31L863.43,217.52L863.45,252.67L863.85,219.47L864.04,391.14L864.24,326.77L864.26,319.22L864.32,239.94L864.41,332.97L864.43,343.09L864.45,347.03L864.51,265.86L864.53,203.43L864.64,126.02L864.91,332.77L865.26,206.8L865.28,231.65L865.38,333.17L865.59,125.75L866,179.41L866.02,133.28L866.04,107.2L866.31,319.4L866.67,227.67L866.69,266.03L867.08,254.48L867.29,412.82L867.49,343.06L867.51,327.85L867.68,367.74L867.89,143.8L868.39,153.13L868.41,186.7L868.63,338.05L868.82,89.98L869.15,232.29L869.17,173.88L869.28,66.47L869.55,325.87L869.9,200.11L869.92,213.48L870.52,389.26L870.71,301.12L870.73,299.12L870.95,323.94L871.14,46.73L871.66,131.34L871.68,208.63L872.07,55.6L872.34,301.94L872.47,105.5L872.49,151.23L872.53,86.79L872.78,320.86L873.19,268.47L873.21,296.58L873.56,228.15L873.77,405.65L873.98,338.16L874,320.83L874.19,361.28L874.39,190.4L874.77,232.92L874.79,224.24L875.12,324.34L875.32,107.09L875.62,291.22L875.64,245.57L875.78,84.34L876.05,308.41L876.4,210.25L876.42,239.96L877.02,416.48L877.23,356.75L877.25,335.2L877.42,381.58L878.08,129.76L878.1,104.34L878.37,333.11L878.45,182.81L878.47,155.9L878.83,314.68L879.03,80.6L879.18,188.27L879.2,220.93L879.41,136.36L879.76,370L879.99,300.17L880.01,302.23L880.05,241.41L880.26,418.42L880.63,400.49L880.65,414.54L880.67,417.45L880.73,361.15L880.75,313.07L881.13,389.27L881.37,168.61L881.5,251.14L881.52,286.79L881.6,371.08L881.83,126.79L882.2,159.94L882.22,160.41L883.01,412.88L883.05,406.82L883.07,389.27L883.3,274.83L883.51,466.54L883.82,357.46L883.84,384.55L883.9,427.28L884.13,208.43L884.46,292.22L884.48,244.37L884.85,386.94L885.06,173.83L885.21,258.57L885.23,299.52L885.54,178.5L885.77,380L885.91,180.68L885.93,177.2L885.99,160.44L886.76,441.51L886.78,440.67L886.8,420.62L887.38,191.28L887.59,372.79L887.61,386.43L887.63,390.35L887.71,291.31L887.73,242.3L888.09,389.1L888.31,188L888.44,255.23L888.46,273.44L888.77,186.29L889.02,388.51L889.16,201.19L889.18,198.81L889.23,192.42L890.01,452.31L890.03,450.12L890.05,428.36L890.65,183.12L890.84,360.52L890.86,374.7L890.88,378.83L890.96,276.82L890.97,228.99L891.09,173.73L891.34,370.83L891.67,259.58L891.69,261.91L892.02,201.96L892.27,398.18L892.35,296.2L892.37,248.09L892.48,197.38L892.75,390.63L893.06,288.34L893.08,311.8L893.28,435.9L893.76,238.06L893.78,215.41L893.87,171.17L894.13,375.61L894.47,252.18L894.49,271.2L894.74,208L895.05,397.87L895.23,259.97L895.25,233.68L895.27,218.92L895.59,447.58L895.85,332.88L895.87,344.54L896.27,272.36L896.52,454.08L896.66,437.88L896.68,434.32L896.91,439.66L897.06,220.48L897.35,395.27L897.37,398.78L897.51,213.78L897.74,279.42L897.76,324.62L897.84,400.76L898.09,210.58L898.44,211.5L898.46,211.9L899.25,445.83L899.29,431.34L899.31,418.22L899.52,271.1L899.77,474.3L900.06,363.23L900.08,391.87L900.16,435.22L900.45,229.42L900.7,292.46L900.72,252L900.76,221.13L901.09,418.4L901.41,281.35L901.43,286.81L901.55,427.88L901.84,244.14L902.11,289.64L902.13,275.64L902.3,247.23L902.5,436.38L902.81,329.3L902.83,355.59L903.23,324.51L903.42,486.68L903.6,416.63L903.62,418.62L903.68,370.78L903.69,298.42L903.85,448.5L904.16,241.23L904.39,344.18L904.41,303.25L904.62,218.4L904.8,413.04L905.16,295.3L905.18,335.94L905.42,223.56L905.74,420.21L905.92,346.84L905.94,351.04L905.96,353.32L906,324.42L906.01,253.9L906.27,469.61L906.73,316.12L906.75,275.18L907.12,412L907.41,220.95L907.48,289.43L907.5,334.78L907.58,417.97L907.87,217.35L908.18,225.05L908.2,224.19L908.33,213.88L908.99,422.03L909.01,417.52L909.03,403.41L909.26,261.48L909.48,481.69L909.78,362.35L909.8,381.16L909.9,459.25L910.19,230.38L910.46,265.98L910.48,253.47L910.83,416.42L911.12,217.53L911.18,272.2L911.2,293.77L911.56,227.12L911.76,428.12L911.93,285.39L911.95,266.17L912.05,251.17L912.24,439.33L912.55,338.49L912.57,358.63L912.72,492.05L913.26,274.86L913.28,258.02L913.44,234.46L913.52,317.68L913.53,355.76L913.61,434.63L913.9,220.24L914.21,242.63L914.23,240.66L914.54,429.26L914.83,215.14L915.04,393.93L915.06,352.62L915.29,227.04L915.49,426.53L915.8,323.26L915.82,345.52L915.95,479.87L916.49,287.89L916.51,269.34L916.86,424.13L917.15,219.53L917.23,290.37L917.25,336.93L917.59,218.63L917.79,426.24L917.96,287.08L917.98,267.81L918.08,227.36L918.25,431.97L918.62,303.36L918.64,343.99L919.01,262.58L919.2,492.23L919.41,423.69L919.43,407.59L919.64,454.28L919.91,211.26L920.24,230.3L920.26,229.92L920.57,426.56L920.84,212.81L921.07,399.61L921.09,356.6L921.5,418.18L921.79,219.08L921.87,288.39L921.89,324.78L922.25,245.19L922.45,481.38L922.68,411.23L922.7,364.6L922.87,455.78L923.18,218.28L923.47,249.48L923.49,236.45L923.53,279.43L923.65,211.25L923.7,258.49L923.72,283.16L924.11,217.06L924.3,433.61L924.5,359.53L924.52,363.11L924.75,447.74L925.04,240.07L925.13,362.42L925.15,397.08L925.5,260.31L925.69,480.42L925.91,421.3L925.93,407.56L926.12,455.89L926.43,213.74L926.76,219.33L926.78,264.76L926.89,192.54L927.07,421.4L927.45,327.51L927.47,371.82L927.53,419.92L927.82,206.47L928.11,243.39L928.13,225.46L928.15,225.08L928.17,266.9L928.29,214.43L928.48,423.77L928.81,339.06L928.83,367L928.94,478.63L929.5,261.98L929.52,241.87L929.68,218.06L929.75,289.8L929.77,340.66L929.85,417.91L930.14,210.27L930.45,225.81L930.47,223.14L930.61,204.23L930.78,414.38L931.28,384.49L931.3,340.61L931.53,216.37L931.73,424.4L932.04,310.87L932.06,335.77L932.19,476.15L932.77,237.27L932.79,233.34L933.1,418.68L933.39,207.55L933.6,396.25L933.62,345.95L933.85,207.79L934.03,417.34L934.39,279L934.41,325.59L934.78,214.42L934.97,422.73L935.17,354.44L935.19,358.59L935.24,252.39L935.34,401.21L935.36,430.81L935.44,473.98L935.71,292.66L935.96,315.25L935.98,273.6L936.35,410.73L936.64,205.7L936.71,279.7L936.73,325.79L937.1,205.02L937.27,406.9L937.45,268.14L937.47,242.92L937.56,202.2L937.74,408.53L938.11,285.94L938.13,325.09L938.49,245.97L938.69,466.5L938.9,418.89L938.92,405.71L939.11,437.74L939.42,204.68L939.75,216.12L939.77,258.97L939.88,180.41L940.06,410.73L940.45,313.04L940.46,359.13L940.81,191.96L940.99,407.59L941.1,232.71L941.12,227.72L941.14,228.07L941.16,271.19L941.28,204.97L941.47,417.54L941.82,355.4L941.84,391.05L941.93,471.55L942.49,263.09L942.51,245.82L942.55,281.79L942.67,215.45L942.73,268.93L942.75,286.24L942.84,414.46L943.13,209.83L943.48,270.02L943.5,241.91L943.6,202.98L943.77,406.07L944.14,286.18L944.16,327.41L944.52,215.04L944.7,415.13L944.91,350.38L944.93,352.56L944.99,246.83L945.08,392.6L945.1,423.82L945.2,467.47L945.45,286.45L945.7,306.51L945.72,268.24L946.09,408.97L946.38,212.58L946.44,254.48L946.46,281.23L946.84,208.71L947.02,412.32L947.19,280.19L947.21,261.92L947.31,231.28L947.48,424.24L947.85,289.2L947.87,330.79L948.24,253.22L948.43,471.12L948.66,417.93L948.68,386.71L948.85,447.32L949.18,224.13L949.45,250.32L949.47,229.35L949.8,405.95L950.09,207.34L950.15,237.77L950.17,264.94L950.56,193.96L950.73,412.46L950.9,256.51L950.92,233.47L951.02,217.97L951.19,412.84L951.21,415.7L951.48,253.48L951.58,386.14L951.6,415.34L951.7,464.12L952.22,291.7L952.24,269.59L952.59,419.39L952.88,226.57L952.95,295.12L952.97,341.51L953.05,423.83L953.34,223.03L953.65,233.07L953.67,232.36L953.82,223.79L954.44,420.54L954.48,414.51L954.5,398.38L954.73,253.66L954.94,480.14L955.25,354.28L955.27,381.93L955.35,462.07L955.68,227.73L955.93,264.5L955.95,250.57L956.14,214.58L956.3,419.45L956.66,279.1L956.68,328.44L956.76,412.1L957.07,209.17L957.36,221.54L957.38,216.96L957.44,214.72L958.17,458.59L958.23,454.39L958.25,435.03L958.93,214.34L959.04,384.81L959.06,398.37L959.08,400.91L959.14,339.53L959.16,298.29L959.31,186.17L959.55,392.58L959.91,275.3L959.93,316.9L960.16,213.58L960.47,407.34L960.65,271.23L960.67,243.27L960.78,224.85L960.96,414.28L961.3,350.39L961.32,384.54L961.46,462.89L961.96,258.88L961.98,237.18L962.1,185.58L962.33,392.26L962.68,249.62L962.7,278.36L963.01,214.73L963.28,419.89L963.47,347.94L963.49,347.21L963.53,336.54L963.55,280.68L963.72,420.11L964.03,241.22L964.17,410.52L964.18,416.99L964.2,419.94L964.34,337.27L964.44,346.14L964.46,332.38L964.71,458.55L965.21,250.4L965.23,232.9L965.58,390.62L965.81,193.35L965.94,267.08L965.96,304.64L966.04,389.02L966.27,184.55L966.64,195.85L966.66,193.89L966.72,179.94L967.45,406.02L967.49,395.21L967.51,372.94L967.72,266.75L967.95,466.09L968.26,352.47L968.28,382.37L968.36,429.82L968.67,221.43L968.92,252L968.94,235.18L969.04,198.52L969.29,396.4L969.64,254L969.66,271.44L969.75,389.08L969.98,159.09L970.35,184.2L970.37,179.38L970.43,159.25L971.2,461.08L971.24,432.59L971.26,414.36L971.61,424.44L971.84,210.52L972.03,377.51L972.05,391.74L972.07,393.44L972.13,342.51L972.15,293.4L972.3,187.19L972.54,386.1L972.9,258.73L972.92,302.4L973.15,207.58L973.46,395.1L973.64,270.77L973.66,249.61L973.68,236.97L973.95,419.45L974.26,307.88L974.28,336.35L974.45,484.2L974.97,282.35L974.99,262.95L975.17,250.96L975.24,343.51L975.26,378.77L975.32,423.44L975.63,234.43L975.9,254.71L975.92,234.43L976.09,223.74L976.17,328.64L976.19,364.73L976.25,405.19L976.48,202.66L976.81,237.09L976.83,215.12L976.87,191.83L977.23,406.91L977.49,282.34L977.5,318.35L977.7,473.64L978.2,281.88L978.22,258.84L978.57,404.17L978.72,213.04L978.94,277.76L978.95,318.27L979.24,191.96L979.55,428.98L979.71,349.49L979.73,350.72L979.81,275.6L979.9,384.16L979.92,406.88L980.17,228.2L980.48,425.49L980.54,353.38L980.56,339.93L980.73,285.58L980.81,397.84L980.85,430.26L980.97,481.13L981.45,288.04L981.47,266.85L981.82,402.87L982.07,191.45L982.2,276.27L982.22,323.63L982.28,381.81L982.51,161.3L982.92,250L982.94,229.33L982.96,222.38L983.21,395.91L983.23,392.91L983.36,214.42L983.69,405.24L983.71,399.24L984,291.57L984.21,469.84L984.33,418.75L984.35,426.06L984.37,427.72L984.43,389L984.44,355.87L984.6,445.46L985.22,227.48L985.24,267.67L985.53,401.48L985.68,220.18L985.91,329.06L985.93,367.9L985.99,412.21L986.24,217.99L986.57,235.79L986.59,215.62L986.67,207.52L986.82,288.55L986.84,312.91L987.25,270.48L987.46,465.46L987.63,398.29L987.65,381.53L987.85,429.77L988.54,218.68L988.56,221.17L989.01,218.35L989.3,433.59L989.41,369.37L989.43,370.37L989.47,372.76L989.53,352.94L989.55,330.42L989.7,429L989.86,263.52L990.28,346.71L990.3,335.45L990.4,370.54L990.5,309.33L990.53,363.3L990.55,393.41L990.65,496.86L991.21,262.46L991.23,241.72L991.33,234.68L991.5,357.85L991.52,386.47L991.56,407.26L991.79,210.75L992.1,292.64L992.12,247.71L992.49,396.1L992.72,189.71L992.85,256.65L992.87,288.77L993.09,188.82L993.43,411.3L993.63,337.63L993.65,339.39L993.67,340.07L993.72,324.52L993.74,281.66L993.94,473.97L994.42,321.57L994.44,270.29L994.81,388.14L995.04,172.39L995.17,255.47L995.19,284.84L995.33,419.19L995.87,155.94L995.89,151L995.95,135.65L996.68,391.6L996.74,372.79L996.76,341.99L996.99,291.92L997.18,466.81L997.49,327.9L997.51,360.49L997.59,427.29L997.84,190.08L998.15,231.02L998.17,210.97L998.21,184.38L998.52,391.46L998.87,249.12L998.89,266.38L998.98,393.11L999.58,187.29L999.6,180.93L999.66,157.8L1000.43,451.42L1000.47,428.17L1000.49,408.99L1000.84,409.88L1001.09,188.06L1001.26,348.13L1001.28,368.55L1001.3,379.47L1001.52,165.05L1001.84,290.94L1001.86,236.2L1001.98,156.52L1002.23,361.86L1002.58,247.55L1002.6,252.61L1002.93,181.79L1003.18,376.41L1003.37,300.23L1003.39,300.73L1003.43,301.61L1003.47,297.38L1003.49,261.87L1003.68,432.38L1003.95,277.45L1003.97,267.63L1004.09,376.38L1004.3,154.95L1004.61,313.69L1004.63,265.06L1005.01,350.65L1005.25,140.48L1005.38,212.92L1005.4,239.94L1005.71,151.06L1005.96,346.56L1006.12,199.87L1006.14,162.84L1006.15,139.4L1006.46,358.45L1006.81,330.79L1006.83,356.58L1006.93,420.28L1007.43,211.29L1007.45,183.31L1007.55,142.46L1007.82,350.8L1008.15,218.65L1008.17,220.56L1008.26,346.66L1008.49,117.98L1008.88,122.79L1008.9,160.78L1009.21,311.33L1009.4,88.06L1009.6,235.36L1009.62,269.04L1010,200.47L1010.18,363.35L1010.39,338.92L1010.41,331.93L1010.6,363.78L1010.79,167.73L1011.01,333.58L1011.03,352.72L1011.07,359.88L1011.2,182.12L1011.22,216.19L1011.24,177.54L1011.28,152.77L1011.53,344.12L1011.9,270.86L1011.92,309.2L1011.99,369.87L1012.19,186.77L1012.61,227.52L1012.63,203.32L1012.65,186.26L1012.96,362.56L1013.25,287.82L1013.27,306.56L1013.91,478.3L1014.1,432.91L1014.12,418.39L1014.31,448.23L1014.97,236.98L1015.05,275.25L1015.07,299.73L1015.24,376.93L1015.43,228.52L1015.82,286.94L1015.84,278.9L1016.69,445.89L1016.73,408.99L1016.75,390.41L1016.94,309.97L1017,388.57" style="vector-effect: non-scaling-stroke; fill: none; stroke: rgb(99, 110, 250); stroke-opacity: 1; stroke-width: 2px; opacity: 1;"/></g><g class="points"/><g class="text"/></g><g class="trace scatter tracef535df" style="stroke-miterlimit: 2; opacity: 1;"><g class="fills"/><g class="errorbars"/><g class="lines"/><g class="points"><path class="point" transform="translate(133.28,529.55)" d="M5,0A5,5 0 1,1 0,-5A5,5 0 0,1 5,0Z" style="opacity: 1; stroke-width: 0px; fill: rgb(239, 85, 59); fill-opacity: 1;"/><path class="point" transform="translate(356.13,34.45)" d="M5,0A5,5 0 1,1 0,-5A5,5 0 0,1 5,0Z" style="opacity: 1; stroke-width: 0px; fill: rgb(239, 85, 59); fill-opacity: 1;"/><path class="point" transform="translate(356.6,38.71)" d="M5,0A5,5 0 1,1 0,-5A5,5 0 0,1 5,0Z" style="opacity: 1; stroke-width: 0px; fill: rgb(239, 85, 59); fill-opacity: 1;"/><path class="point" transform="translate(467.8,522.79)" d="M5,0A5,5 0 1,1 0,-5A5,5 0 0,1 5,0Z" style="opacity: 1; stroke-width: 0px; fill: rgb(239, 85, 59); fill-opacity: 1;"/></g><g class="text"/></g></g></g><g class="overplot"/><path class="xlines-above crisp" d="M102,664.5H1120" style="fill: none; stroke-width: 1px; stroke: rgb(255, 255, 255); stroke-opacity: 1;"/><path class="ylines-above crisp" d="M102.5,100V664" style="fill: none; stroke-width: 1px; stroke: rgb(255, 255, 255); stroke-opacity: 1;"/><g class="overlines-above"/><g class="xaxislayer-above"><g class="xtick"><text text-anchor="middle" x="0" y="696.2" transform="translate(103,0)" style="font-family: 'Open Sans', verdana, arial, sans-serif; font-size: 26px; fill: rgb(42, 63, 95); fill-opacity: 1; white-space: pre;">2012</text></g><g class="xtick"><text text-anchor="middle" x="0" y="696.2" transform="translate(272.81,0)" style="font-family: 'Open Sans', verdana, arial, sans-serif; font-size: 26px; fill: rgb(42, 63, 95); fill-opacity: 1; white-space: pre;">2013</text></g><g class="xtick"><text text-anchor="middle" x="0" y="696.2" transform="translate(442.16,0)" style="font-family: 'Open Sans', verdana, arial, sans-serif; font-size: 26px; fill: rgb(42, 63, 95); fill-opacity: 1; white-space: pre;">2014</text></g><g class="xtick"><text text-anchor="middle" x="0" y="696.2" transform="translate(611.51,0)" style="font-family: 'Open Sans', verdana, arial, sans-serif; font-size: 26px; fill: rgb(42, 63, 95); fill-opacity: 1; white-space: pre;">2015</text></g><g class="xtick"><text text-anchor="middle" x="0" y="696.2" transform="translate(780.86,0)" style="font-family: 'Open Sans', verdana, arial, sans-serif; font-size: 26px; fill: rgb(42, 63, 95); fill-opacity: 1; white-space: pre;">2016</text></g><g class="xtick"><text text-anchor="middle" x="0" y="696.2" transform="translate(950.67,0)" style="font-family: 'Open Sans', verdana, arial, sans-serif; font-size: 26px; fill: rgb(42, 63, 95); fill-opacity: 1; white-space: pre;">2017</text></g><g class="xtick"><text text-anchor="middle" x="0" y="696.2" transform="translate(1120.02,0)" style="font-family: 'Open Sans', verdana, arial, sans-serif; font-size: 26px; fill: rgb(42, 63, 95); fill-opacity: 1; white-space: pre;">2018</text></g></g><g class="yaxislayer-above"><g class="ytick"><text text-anchor="end" x="96.8" y="9.1" transform="translate(0,597.79)" style="font-family: 'Open Sans', verdana, arial, sans-serif; font-size: 26px; fill: rgb(42, 63, 95); fill-opacity: 1; white-space: pre;">6k</text></g><g class="ytick"><text text-anchor="end" x="96.8" y="9.1" transform="translate(0,519.21)" style="font-family: 'Open Sans', verdana, arial, sans-serif; font-size: 26px; fill: rgb(42, 63, 95); fill-opacity: 1; white-space: pre;">8k</text></g><g class="ytick"><text text-anchor="end" x="96.8" y="9.1" transform="translate(0,440.62)" style="font-family: 'Open Sans', verdana, arial, sans-serif; font-size: 26px; fill: rgb(42, 63, 95); fill-opacity: 1; white-space: pre;">10k</text></g><g class="ytick"><text text-anchor="end" x="96.8" y="9.1" transform="translate(0,362.03)" style="font-family: 'Open Sans', verdana, arial, sans-serif; font-size: 26px; fill: rgb(42, 63, 95); fill-opacity: 1; white-space: pre;">12k</text></g><g class="ytick"><text text-anchor="end" x="96.8" y="9.1" transform="translate(0,283.45)" style="font-family: 'Open Sans', verdana, arial, sans-serif; font-size: 26px; fill: rgb(42, 63, 95); fill-opacity: 1; white-space: pre;">14k</text></g><g class="ytick"><text text-anchor="end" x="96.8" y="9.1" transform="translate(0,204.86)" style="font-family: 'Open Sans', verdana, arial, sans-serif; font-size: 26px; fill: rgb(42, 63, 95); fill-opacity: 1; white-space: pre;">16k</text></g><g class="ytick"><text text-anchor="end" x="96.8" y="9.1" transform="translate(0,126.28)" style="font-family: 'Open Sans', verdana, arial, sans-serif; font-size: 26px; fill: rgb(42, 63, 95); fill-opacity: 1; white-space: pre;">18k</text></g></g><g class="overaxes-above"/></g></g><g class="polarlayer"/><g class="ternarylayer"/><g class="geolayer"/><g class="funnelarealayer"/><g class="pielayer"/><g class="treemaplayer"/><g class="sunburstlayer"/><g class="glimages"/><defs id="topdefs-2e332b"><g class="clips"/><clipPath id="legend2e332b"><rect width="147" height="47" x="0" y="0"/></clipPath></defs><g class="layer-above"><g class="imagelayer"/><g class="shapelayer"/></g><g class="infolayer"><g class="legend" pointer-events="all" transform="translate(113.17, 105.64)"><rect class="bg" shape-rendering="crispEdges" style="stroke: rgb(68, 68, 68); stroke-opacity: 1; fill: rgb(255, 255, 255); fill-opacity: 1; stroke-width: 0px;" width="147" height="47" x="0" y="0"/><g class="scrollbox" transform="translate(0, 0)" clip-path="url('#legend2e332b')"><g class="groups"><g class="traces" transform="translate(0, 23.400000000000002)" style="opacity: 1;"><text class="legendtext user-select-none" text-anchor="start" x="40" y="10.14" style="font-family: 'Open Sans', verdana, arial, sans-serif; font-size: 26px; fill: rgb(42, 63, 95); fill-opacity: 1; white-space: pre;">Outliers</text><g class="layers" style="opacity: 1;"><g class="legendfill"/><g class="legendlines"/><g class="legendsymbols"><g class="legendpoints"><path class="scatterpts" transform="translate(20,0)" d="M5,0A5,5 0 1,1 0,-5A5,5 0 0,1 5,0Z" style="opacity: 1; stroke-width: 0px; fill: rgb(239, 85, 59); fill-opacity: 1;"/></g></g></g><rect class="legendtoggle" pointer-events="all" x="0" y="-18.400000000000002" width="141.5625" height="36.800000000000004" style="cursor: pointer; fill: rgb(0, 0, 0); fill-opacity: 0;"/></g></g></g><rect class="scrollbar" rx="20" ry="3" width="0" height="0" style="fill: rgb(128, 139, 164); fill-opacity: 1;" x="0" y="0"/></g><g class="g-gtitle"><text class="gtitle" x="60" y="50" text-anchor="start" dy="0em" style="font-family: 'Open Sans', verdana, arial, sans-serif; font-size: 36px; fill: rgb(42, 63, 95); opacity: 1; font-weight: normal; white-space: pre;">South Demand outliers</text></g><g class="g-xtitle"><text class="xtitle" x="611.5" y="737.903125" text-anchor="middle" style="font-family: 'Open Sans', verdana, arial, sans-serif; font-size: 31px; fill: rgb(42, 63, 95); opacity: 1; font-weight: normal; white-space: pre;">Date</text></g><g class="g-ytitle" transform="translate(19.3564453125,0)"><text class="ytitle" transform="rotate(-90,11.643749999999997,382)" x="11.643749999999997" y="382" text-anchor="middle" style="font-family: 'Open Sans', verdana, arial, sans-serif; font-size: 31px; fill: rgb(42, 63, 95); opacity: 1; font-weight: normal; white-space: pre;">Demand</text></g></g></svg>